<?xml version="1.0" standalone="no"?>
<!DOCTYPE svg PUBLIC "-//W3C//DTD SVG 20010904//EN"
 "http://www.w3.org/TR/2001/REC-SVG-20010904/DTD/svg10.dtd">
<svg version="1.0" xmlns="http://www.w3.org/2000/svg"
 width="700.000000pt" height="700.000000pt" viewBox="0 0 700.000000 700.000000"
 preserveAspectRatio="xMidYMid meet">
<metadata>
Created by potrace 1.11, written by Peter Selinger 2001-2013
</metadata>
<g transform="translate(0.000000,700.000000) scale(0.100000,-0.100000)"
fill="#000000" stroke="none">
<path d="M0 3500 l0 -3500 3500 0 3500 0 0 3500 0 3500 -3500 0 -3500 0 0
-3500z m2171 2290 c83 -16 138 -48 220 -130 85 -84 155 -186 233 -340 80 -156
107 -226 123 -315 7 -44 31 -156 53 -250 21 -93 53 -240 70 -325 18 -85 43
-182 56 -216 15 -37 24 -81 24 -113 l0 -52 26 20 c37 29 59 26 83 -12 31 -50
92 -211 170 -444 38 -114 93 -273 123 -353 30 -80 70 -205 88 -278 28 -116 31
-139 21 -171 -14 -50 -15 -48 16 -56 14 -3 41 -22 58 -41 l32 -35 61 178 c34
98 66 199 72 226 16 74 108 412 140 512 15 50 51 171 79 270 60 211 101 321
174 459 52 97 54 106 71 236 9 74 21 184 26 245 8 93 19 136 74 300 39 117 66
215 70 255 3 36 13 85 21 110 8 25 17 57 20 72 8 41 94 147 150 186 43 29 55
33 90 28 65 -10 67 -10 146 7 65 14 164 17 655 19 534 3 583 2 630 -15 93 -32
117 -74 108 -193 -6 -76 -11 -91 -35 -119 -67 -75 -212 -115 -426 -115 -148 0
-213 -12 -285 -52 -48 -26 -48 -26 -77 -193 -19 -111 -21 -168 -24 -760 -4
-673 -8 -741 -56 -977 l-19 -90 38 -235 c58 -355 64 -432 50 -635 -22 -313 6
-607 65 -684 15 -19 45 -44 68 -56 79 -40 133 -48 333 -48 209 0 271 -11 333
-57 84 -64 80 -212 -7 -285 -72 -61 -99 -62 -752 -35 -419 18 -1023 18 -1333
1 -86 -5 -103 -3 -142 16 -25 12 -57 36 -71 53 -36 43 -74 130 -74 170 0 82
58 103 310 111 222 7 345 27 372 61 10 13 33 27 51 30 26 5 32 11 33 33 0 15
8 69 17 119 10 51 18 116 19 145 14 480 17 812 8 964 -8 134 -26 1212 -30
1768 0 22 -2 37 -5 35 -2 -3 -22 -72 -44 -154 -49 -182 -121 -396 -161 -474
-16 -32 -44 -71 -62 -86 l-33 -28 3 -82 c4 -77 0 -92 -63 -291 -97 -306 -119
-372 -149 -441 -39 -91 -110 -367 -165 -643 -28 -135 -69 -320 -92 -410 -23
-91 -50 -205 -59 -255 -27 -130 -68 -231 -134 -328 -26 -38 -26 -39 -10 -85
44 -122 -39 -212 -194 -212 -108 0 -158 43 -173 146 -7 49 -31 116 -84 238
-93 210 -101 235 -120 421 -18 172 -42 334 -51 360 -4 9 -17 28 -30 42 -39 42
-108 190 -188 401 -69 182 -136 405 -136 451 0 9 -20 68 -45 130 -26 62 -53
140 -61 172 -8 33 -35 103 -58 157 -44 97 -60 146 -92 277 -10 39 -53 169 -97
290 -137 381 -157 442 -157 482 0 21 -8 48 -19 62 l-19 24 -7 -59 c-3 -33 -1
-222 5 -419 13 -383 8 -691 -15 -1000 -24 -313 -25 -323 -35 -524 -13 -257
-13 -663 0 -748 6 -37 18 -78 26 -91 11 -16 13 -36 9 -67 l-7 -43 38 9 c35 8
41 6 60 -17 11 -13 37 -60 58 -102 33 -68 47 -84 106 -129 80 -59 132 -74 414
-118 236 -36 256 -47 256 -137 -1 -60 -31 -123 -71 -143 -70 -36 -575 -58
-1269 -53 -486 3 -528 4 -568 22 -87 38 -110 99 -76 200 20 59 44 71 236 120
257 67 296 82 350 140 32 33 53 68 63 101 20 65 58 260 90 455 24 150 24 159
10 285 -42 383 -49 930 -25 1885 11 431 11 484 -4 569 -43 245 -180 365 -376
329 -78 -14 -245 -5 -300 17 -110 45 -170 111 -170 188 0 23 4 47 8 53 4 6 34
23 67 38 33 15 69 35 80 45 24 22 211 70 309 81 110 11 826 11 887 0z"/>
</g>
</svg>
