<?xml version="1.0" standalone="no"?>
<!DOCTYPE svg PUBLIC "-//W3C//DTD SVG 20010904//EN"
 "http://www.w3.org/TR/2001/REC-SVG-20010904/DTD/svg10.dtd">
<svg version="1.0" xmlns="http://www.w3.org/2000/svg"
 width="700.000000pt" height="700.000000pt" viewBox="0 0 700.000000 700.000000"
 preserveAspectRatio="xMidYMid meet">
<metadata>
Created by potrace 1.11, written by Peter Selinger 2001-2013
</metadata>
<g transform="translate(0.000000,700.000000) scale(0.100000,-0.100000)"
fill="#000000" stroke="none">
<path d="M1275 5789 c-127 -17 -262 -56 -325 -95 -30 -18 -70 -39 -87 -45 -63
-21 -63 -113 -1 -180 50 -53 121 -89 203 -104 47 -9 187 -6 220 3 69 21 191
-7 250 -56 116 -96 167 -337 141 -672 -8 -96 -18 -704 -19 -1090 -1 -350 5
-634 18 -760 2 -19 6 -66 10 -105 8 -94 14 -153 20 -191 5 -26 -17 -193 -40
-314 -3 -14 -8 -41 -11 -60 -10 -63 -45 -224 -60 -275 -15 -51 -79 -132 -120
-153 -23 -12 -255 -81 -294 -88 -54 -10 -147 -38 -181 -55 -29 -14 -40 -29
-53 -65 -43 -126 8 -196 159 -219 74 -11 1291 -3 1410 9 22 2 90 7 150 11 158
9 187 16 223 51 40 40 55 151 27 192 -17 23 -86 47 -165 56 -99 13 -141 20
-273 46 -120 24 -145 33 -193 66 -80 55 -94 72 -144 172 -25 50 -50 93 -56 96
-6 2 -28 1 -49 -4 l-37 -8 7 48 c4 30 3 50 -4 54 -28 18 -44 157 -44 386 0
153 9 449 18 565 2 33 7 98 10 145 6 95 15 227 20 280 20 207 24 608 13 1175
-3 143 -2 269 2 280 6 18 8 18 23 -5 9 -14 16 -34 15 -45 -3 -39 14 -98 72
-258 179 -495 179 -496 200 -602 11 -51 42 -135 91 -243 16 -34 34 -84 40
-110 5 -26 32 -103 59 -172 26 -69 53 -154 60 -190 16 -94 53 -210 136 -428
77 -203 139 -333 179 -377 26 -27 41 -72 50 -150 3 -27 7 -63 10 -80 4 -30 10
-74 20 -170 14 -132 17 -153 27 -190 11 -43 69 -183 124 -302 32 -68 46 -116
59 -203 11 -76 83 -116 194 -108 89 7 136 31 161 83 24 50 25 93 4 138 -15 32
-15 35 11 73 55 81 116 218 129 294 2 14 7 43 11 65 4 22 11 54 16 71 5 17 11
40 14 50 2 10 22 92 44 182 22 90 42 178 45 195 41 244 146 671 192 780 59
139 217 643 218 692 0 22 -3 59 -7 82 -7 39 -5 43 24 60 58 34 158 282 239
597 17 66 33 122 35 125 3 2 5 -54 6 -125 5 -672 9 -986 13 -1139 3 -99 8
-270 12 -380 9 -292 9 -480 2 -850 -7 -309 -12 -377 -40 -499 -8 -37 -8 -50 2
-56 7 -4 -5 -10 -28 -14 -26 -4 -48 -15 -60 -30 -14 -18 -36 -28 -83 -36 -93
-18 -107 -19 -294 -26 -187 -6 -265 -22 -290 -56 -46 -67 30 -230 129 -277 59
-27 153 -29 326 -5 31 4 777 4 885 0 44 -2 163 -6 265 -10 102 -3 235 -9 295
-13 61 -4 166 -7 235 -7 139 -1 189 14 241 71 71 76 64 208 -12 266 -63 47
-134 60 -354 62 -215 2 -235 5 -308 43 -68 35 -94 74 -115 173 -27 124 -30
229 -21 679 2 91 0 190 -4 220 -4 30 -10 71 -12 90 -6 42 -7 48 -45 278 -17
101 -28 187 -25 192 9 15 39 186 50 285 4 33 8 74 10 90 12 97 18 363 20 835
1 467 4 546 19 625 27 133 29 138 72 162 61 36 109 45 249 49 245 7 328 23
419 83 66 44 77 66 81 168 3 88 2 92 -26 126 -19 23 -47 42 -82 54 -48 17 -94
18 -602 17 -302 0 -575 -3 -605 -7 -56 -7 -65 -8 -136 -25 -30 -7 -50 -6 -71
3 -26 11 -36 10 -69 -4 -74 -34 -194 -173 -194 -226 0 -12 -6 -38 -14 -57 -8
-19 -18 -68 -22 -109 -4 -49 -23 -121 -56 -214 -27 -77 -52 -147 -54 -155 -22
-83 -33 -149 -38 -225 -4 -49 -8 -101 -10 -115 -5 -27 -13 -87 -22 -165 -4
-27 -7 -55 -8 -60 -1 -6 -13 -31 -27 -55 -40 -70 -95 -182 -104 -210 -4 -14
-16 -43 -26 -65 -9 -22 -36 -107 -59 -190 -23 -82 -64 -222 -90 -310 -27 -88
-69 -241 -95 -340 -25 -99 -76 -271 -113 -382 -63 -194 -67 -201 -82 -179 -24
37 -46 55 -74 62 -22 5 -25 10 -18 33 4 14 7 44 6 66 -1 59 -57 262 -108 398
-25 65 -77 213 -116 330 -39 117 -77 226 -84 242 -8 17 -21 53 -30 80 -27 83
-79 179 -100 183 -10 2 -31 -5 -46 -16 l-27 -20 2 56 c0 31 -3 60 -7 63 -9 6
-46 100 -52 134 -37 183 -68 334 -81 390 -9 39 -18 77 -20 85 -2 8 -10 44 -19
80 -15 66 -21 93 -36 188 -11 64 -145 342 -219 453 -95 144 -217 256 -304 281
-46 13 -851 19 -942 7z"/>
</g>
</svg>
