<?xml version="1.0" standalone="no"?>
<!DOCTYPE svg PUBLIC "-//W3C//DTD SVG 1.1//EN" "http://www.w3.org/Graphics/SVG/1.1/DTD/svg11.dtd" >
<svg>
<metadata>
Created by FontForge 20120731 at Mon Aug 22 13:52:56 2016
 By www
Copyright (c) Baseline Fonts www.baselinefonts.com * Not freely distributable * Licensed Font Visit us on the web for updates and purchasing options, 2004. All rights reserved.
</metadata>
<defs>
<font id="OldTimesAmericanW00-Rg" horiz-adv-x="265" >
  <font-face 
    font-family="OldTimesAmericanW00-Rg"
    font-weight="400"
    font-stretch="normal"
    units-per-em="1000"
    panose-1="2 0 5 3 7 0 0 2 0 4"
    ascent="800"
    descent="-200"
    x-height="442"
    cap-height="775"
    bbox="-40 -285 1334 1265"
    underline-thickness="50"
    underline-position="-125"
    unicode-range="U+0005-2122"
  />
<missing-glyph horiz-adv-x="500" 
d="M63 846h374v-846h-374v846zM375 63v720h-250v-720h250z" />
    <glyph glyph-name=".notdef" horiz-adv-x="500" 
d="M63 846h374v-846h-374v846zM375 63v720h-250v-720h250z" />
    <glyph glyph-name="glyph1" horiz-adv-x="0" 
 />
    <glyph glyph-name="glyph1" horiz-adv-x="0" 
 />
    <glyph glyph-name="glyph2" horiz-adv-x="335" 
 />
    <glyph glyph-name="uni0005" horiz-adv-x="500" 
d="M420 943q0 -3 7 -9t15 -13t15 -13.5t7 -10.5q0 -5 -6 -16.5t-7 -16.5q0 -4 -8.5 -11.5t-8.5 -13.5q0 -3 -3.5 -7.5t-8.5 -9t-9.5 -8.5t-6.5 -6q-8 -8 -15 -14.5t-13 -9.5q-1 -1 -32 -20l-31 -16q0 -4 -47 -4q-50 0 -54 7q-1 2 -7 4t-13.5 4t-13.5 4t-6 4t-4.5 6t-10 8
t-11 7t-7.5 3q-10 3 -29 34q-16 31 -26 31q-8 0 -18 46v3q0 9 8.5 17.5t18.5 14.5t18.5 10t7.5 5q0 -7 6 -15t12.5 -16t12.5 -16.5t6 -16.5q0 -3 3.5 -14.5t7.5 -11.5v-1q0 -2 1 -7.5t4 -14.5q10 -25 14 -26q47 -35 57 -35q-2 0 7.5 0.5t22 1t23 2t10.5 3.5q13 0 29 22
q26 30 27 64q2 5 3.5 14t5.5 25l1 4q2 7 9.5 11t15.5 6.5t14.5 5t6.5 5.5v1z" />
    <glyph glyph-name="uni0006" horiz-adv-x="500" 
d="M487 833q-2 -8 -2.5 -17.5t-2.5 -20.5q0 -5 -4 -10t-9.5 -9.5t-10 -8t-5.5 -5.5q-7 -15 -40 -18h-7q-26 0 -61 20q-18 12 -18 65q0 73 74 73q28 0 49 -10q9 -6 13.5 -9.5t6.5 -3.5q9 -4 17 -46z" />
    <glyph glyph-name="uni0008" horiz-adv-x="500" 
d="M469 972q1 -2 1 -7v-6q0 -22 -12 -44q-1 -5 -6.5 -9t-14.5 -12q-3 -7 -17 -10l-14 -4q0 -1 -8 -1h-11h-6.5t-8.5 1q-9 0 -27 9q-6 4 -9 6.5t-4.5 4l-2 2t-3.5 2.5q-6 8 -8.5 11t-3.5 4.5t-2 3.5t-3 7q-1 6 -2 9.5t-1 4.5q1 2 1 7q0 7 -4 7q0 2 1 15.5t7 30.5q3 11 6.5 15
t14.5 11q5 3 7 5.5t5 5.5t10 5.5t21 5.5q4 1 7 1.5t7 0.5q14 0 28 -8q11 -6 15 -8.5t10 -8.5q0 -2 3.5 -5t5.5 -4q3 -4 7.5 -10.5t7.5 -15.5q2 -8 2 -12q0 -7 1 -10zM354 978v-11v-9t1 -11q0 -10 2 -11.5t6 -5.5q0 -6 11 -9q7 0 8 -1h6q2 1 6 1q2 0 8 2q7 3 11 5.5t4 14.5
v31q-1 3 -1 6q0 2 -1.5 6.5t-9.5 14.5q-2 4 -7 4.5t-10 1.5q-19 0 -26 -5t-8 -24z" />
    <glyph glyph-name="uni000A" unicode="&#xa;" horiz-adv-x="500" 
d="M47 697q-6 9 -6 17q0 6 2 12q5 13 16.5 24t22.5 23l5 -1q2 2 2 7q3 3 5 4q4 1 53 53l6 1q10 10 17.5 18.5t14.5 15.5l5 3q2 5 8.5 11t20.5 13q11 7 19.5 11t14.5 5l26 -2q2 -2 8 -7t14 -13q8 -6 14 -32q-1 -5 -1.5 -8.5t-0.5 -5.5q0 -4 1 -5l-22 -28q1 -1 1 -3t-1 -3
q-1 -6 -23 -12l-11 -11q-2 -2 -5 -2q-4 0 -7 -1l-7 -5l-9 -2l-5 -6q-8 -4 -19 -7.5t-25 -8.5q-5 -4 -14 -5q-8 -5 -21 -11.5t-32 -13.5q-39 -19 -52 -19q-3 -2 -6.5 -3t-8.5 -3zM231 652q-6 9 -6 17q0 6 2 12q5 13 16.5 24t22.5 23l5 -1q2 2 2 7q3 3 5 4q4 1 53 53l6 1
q10 10 17.5 18.5t14.5 15.5l5 3q2 5 8.5 11t20.5 13q11 7 19.5 11t14.5 5l26 -2q2 -2 8 -7t14 -13q8 -6 14 -32q-1 -5 -1.5 -8.5t-0.5 -5.5q0 -4 1 -5l-22 -28q1 -1 1 -3t-1 -3q-1 -6 -23 -12l-11 -11q-2 -2 -5 -2q-4 0 -7 -1l-7 -5l-9 -2l-5 -6q-8 -4 -19 -7.5t-25 -8.5
q-5 -4 -14 -5q-8 -5 -21 -11.5t-32 -13.5q-39 -19 -52 -19q-3 -2 -6.5 -3t-8.5 -3z" />
    <glyph glyph-name="uni000B" horiz-adv-x="500" 
d="M327 -12l12 -22h2q1 0 1 -3t-4 -11.5t-18 -26.5q-12 -16 -16 -31.5t-4 -28.5q0 -7 1 -12.5t2 -9.5q1 -2 1 -4t1 -4l78 -6q4 -8 6 -11q2 -5 4 -9.5t2 -7.5q0 -7 -12 -14q-2 -2 -5.5 -4t-7.5 -4l-134 13q-2 5 -4 9t-4 9q-4 8 -7.5 16.5t-5.5 17.5q-4 12 -4 19q0 3 0.5 7
t0.5 12q0 9 0.5 14t2 9.5t4 9.5t5.5 13q4 8 11.5 22t15.5 28q5 8 10 16.5t10 17.5l49 -6z" />
    <glyph glyph-name="uni000C" horiz-adv-x="500" 
d="M88 916q0 8 5.5 16.5t12.5 8.5q2 0 4 -2q5 0 11.5 -2.5t14.5 -6.5q6 -4 13.5 -8.5t17.5 -9.5q11 -14 23.5 -28t26.5 -29q11 -9 22.5 -19.5t24.5 -22.5q1 -3 11 -13q5 5 11.5 12t14.5 15q27 27 44 41q14 16 31 32.5t35 34.5l2 3q5 6 10 11.5t11 5.5q8 0 16.5 -5t8.5 -11
l-2 -6q-1 -5 -3.5 -10.5t-6.5 -13.5l-11.5 -11.5t-7 -7.5t-9 -10t-17.5 -18q-28 -28 -31 -32q-10 -11 -21 -21.5t-23 -24.5q-8 -8 -24 -21q-4 -8 -14 -18q-4 -2 -17 -2q-8 0 -16.5 9.5t-16.5 20.5l-3 3q-10 8 -23 17.5t-27 22.5q-18 17 -37.5 37t-40.5 41l-1 1l-2 1
q-6 5 -11.5 9.5t-5.5 10.5z" />
    <glyph glyph-name="uni000D" unicode="&#xd;" horiz-adv-x="335" 
d="M186 438q20 -6 20 -53q0 -9 -1 -22.5t-2.5 -26.5t-2.5 -23t-2 -13v-238q3 -16 25 -25q12 -5 28 -5h9h6q23 0 23 -21q0 -11 -12 -16.5t-26 -5.5q-4 0 -14 2q-17 3 -42 3h-17q-12 -1 -21 -1.5t-17 -0.5t-12.5 0.5t-7.5 1.5q-91 1 -91 20q0 3 4 7t19 5q8 2 12 2q8 0 11 1
q20 4 33 19q6 6 9 23q1 3 1 13v7q0 6 -1 9q-1 5 -1.5 9.5t-0.5 8.5v8v95q0 22 0.5 41t1.5 36v32q0 50 -5 50q-3 0 -14 11q-9 11 -18 11.5t-22 2.5q-16 1 -16 7q0 2 -4.5 4t-4.5 5q0 1 1 2q4 4 18 9q8 4 31.5 5t61.5 1q3 0 20 4q12 0 21 -4z" />
    <glyph glyph-name="uni001A" horiz-adv-x="501" 
d="M277 617q17 29 17 33v1l-5 12q0 5 -21 8q-4 0 -7 0.5t-5 0.5q-12 0 -13 -4q-5 -4 -13 -9.5t-16 -10.5q-4 -4 -8.5 -11t-9.5 -17q-7 0 -7 -105q0 -8 3.5 -19.5t3.5 -17.5q1 -2 5.5 -7t9.5 -10q3 -3 6.5 -6t7.5 -6q0 -6 12 -6q5 0 12 1l14 2t12.5 2t6.5 1h15q9 0 12 -1h38
q3 0 20 4q12 0 21 -4q20 -6 20 -53q0 -9 -1 -22.5t-2.5 -26.5t-2.5 -23t-2 -13v-238q3 -16 25 -25q12 -5 28 -5h15q23 0 23 -21q0 -11 -12 -16.5t-26 -5.5q-4 0 -14 2q-17 3 -42 3h-17q-12 -1 -21 -1.5t-17 -0.5t-12.5 0.5t-7.5 1.5h-18q-7 -4 -16 -4q-23 1 -37.5 1.5
t-20.5 0.5h-61q-4 -1 -8 -1h-8h-13q-26 0 -26 2q0 -3 -14 -3q-10 0 -23 1.5t-25 3.5t-21.5 4.5t-11.5 4.5q-3 4 -3 8q0 12 38 20q22 3 34 6t14 4q15 13 15 53v57v28q0 11 0.5 24.5t1.5 30.5q1 7 1 12.5v10.5v22v19v9t-1 8q-2 24 -3 40t-3.5 25.5t-8 13t-15.5 3.5h-19
q-54 0 -54 18v2q0 4 3.5 7.5t7.5 6.5q5 5 10 6q7 1 13 1h12q7 0 13.5 0.5t13.5 1.5q18 4 20 27q1 5 1.5 9.5t0.5 9.5v20q0 6 1 16t4 27q5 38 9 38l23 37q13 20 18.5 29.5t5.5 10.5q21 30 85 39q21 3 33 3q7 0 13 -2q29 -13 28 -13q3 0 9 -4.5t11.5 -10.5t9.5 -11.5t4 -7.5
l5.5 -11t6.5 -11q7 -15 7 -20q0 -1 -1 -1q3 0 3 -6q0 -5 -2 -13.5t-5 -22.5q-12 -41 -31 -41q-5 0 -17 -2.5t-20 -2.5q-17 0 -28.5 18.5t-11.5 36.5q0 6 1 12t5 13zM300 401q-7 7 -13 10h-27q-58 0 -58 -25q0 -21 -1.5 -58t-3.5 -91q1 -8 1.5 -17t0.5 -20v-54
q-1 -7 -1.5 -13t-0.5 -11v-19q0 -38 11 -38q22 -22 29 -22q2 0 2 1h2q1 0 1.5 -0.5t2.5 -0.5q4 0 10 0.5t14 1.5h25q9 4 16 13q6 6 9 23q1 3 1 13v7q0 6 -1 9q-1 5 -1.5 9.5t-0.5 8.5v8q0 52 1 95.5t1 76.5v32q0 50 -5 50q-3 0 -14 11z" />
    <glyph glyph-name="uni001B" horiz-adv-x="498" 
d="M491 9q-3 -6 -20 -8h-28q-13 0 -18 1l-113 3q-5 -2 -9 -3t-9 -2q-63 3 -63 2h-56q-55 -3 -55 1q0 -3 -14 -3q-10 0 -23 1.5t-25 3.5t-21.5 4.5t-11.5 4.5q-3 4 -3 8q0 12 38 20q22 3 34 6t14 4q13 12 15 53v57v28q0 11 0.5 24.5t1.5 30.5q1 49 0 81q-2 24 -3 40
t-3.5 25.5t-8 13t-15.5 3.5q-76 -3 -73 20q0 4 3.5 7.5t7.5 6.5q5 5 10 6q7 1 13 1h12q7 0 13.5 0.5t13.5 1.5q18 4 20 27q1 5 1.5 9.5t0.5 9.5v20q0 6 1 16t4 27q5 38 9 38l23 37q13 20 18.5 29.5t5.5 10.5q21 30 85 39q38 6 46 1q29 -13 28 -13q3 0 6 -3q27 3 36 3
q41 0 47 -21q2 -4 2 -34q0 -29 -5 -29q-3 0 -3 -74q0 -21 -3 -72q-1 -25 -2 -44t-1 -33q1 -25 1.5 -47.5t0.5 -42.5q0 -39 -3 -70q-1 -8 -1.5 -44t-2.5 -102q0 -25 10 -31q32 -22 40 -22q1 0 3 2h1q9 0 20 -2t11 -14q0 -6 -3 -13zM283 617q5 9 9 15.5t6 11.5q-32 11 -47 23
q-1 0 -1 0.5t-1 0.5q-5 -4 -13 -9.5t-16 -10.5q-4 -4 -8.5 -11t-9.5 -17q-7 0 -7 -105q0 -8 3.5 -19.5t3.5 -17.5q1 -2 5.5 -7t9.5 -10q3 -3 6.5 -6t7.5 -6q0 -6 12 -6q5 0 12 1l14 2t12.5 2t6.5 1q26 0 34 -3q15 -6 15 -21q0 -14 -29 -14h-42q-58 0 -58 -25q0 -21 -1.5 -58
t-3.5 -91q1 -8 1.5 -17t0.5 -20v-54q-8 -81 9 -81q29 -29 31 -21q2 -2 30 1q23 0 26 -1q22 4 28 35q1 7 1.5 13t0.5 13v14t1 14q-1 13 -2 31.5t-2 42.5q2 32 4.5 80t6.5 114q1 51 2 80t-1 40q-1 3 -1 18q-6 -1 -11.5 -1.5t-10.5 -0.5q-17 0 -28.5 18.5t-11.5 36.5q0 6 1 12
t5 13z" />
    <glyph glyph-name="uni001C" horiz-adv-x="654" 
d="M318 395q2 -10 2 -13q0 -4 -0.5 -7.5t-1.5 -8.5q-2 -22 -15 -23q-12 -2 -28.5 -4.5t-37.5 -5.5v-10q-1 -7 -1.5 -21t-0.5 -36q0 -15 0.5 -33.5t0.5 -41.5q0 -57 4 -85t8 -28v-1q0 -4 15 -29q0 -4 13 -9t20 -5h2q25 0 60.5 2t83.5 6q56 9 56 12t14 12q16 9 19 9
q5 3 10.5 9t10 12.5t8 12t5.5 6.5q4 9 9.5 18.5t13.5 20.5q15 6 20 80q2 6 4.5 14t4.5 20q0 24 9 63q7 15 16 15q23 0 24 -40q0 1 -1 1v1v1q-2 0 -2 -58q0 -29 -0.5 -53t-0.5 -42t0.5 -29.5t0.5 -17.5q1 -15 1.5 -27.5t0.5 -23.5q0 -25 -3 -38q-3 -18 -47 -18
q-11 0 -26.5 -1t-31.5 -1.5t-30.5 -1.5t-24.5 -1h-127q0 3 -80 3h-90q-68 -3 -153 -3q-7 0 -15 1t-19 4q-27 6 -27 13q0 5 12 13q18 9 46 9h15q40 0 54 32q10 20 10 65v12q-1 12 -1.5 27.5t-0.5 35.5v25v14t1 14v54l-12 -2v-1q-6 2 -9 2t-6 -0.5t-8 -1.5l-22 -3l-33 9
q-17 3 -17 27q0 36 21 38l33 11h19q7 0 14.5 0.5t15.5 1.5q-3 61 -3 129q0 52 3 108q-4 14 -5 27t-9 21q-7 10 -7 13q0 7 -48 9l-42 3t-15 1q-14 5 -14 24q0 20 47 20h12q8 0 13 -1t12.5 -1.5t15.5 -0.5h40q4 1 7 1.5t7 0.5q9 0 14 1q27 3 43 3q23 0 24 -4l59 3q0 3 14 3h52
q18 0 29 -3q22 -7 22 -26v-3q-3 -19 -31 -20q-5 -1 -12 -1h-9q-7 0 -7 1t-29 1q-3 1 -9 1h-7q-14 0 -16 -2q-7 -7 -17 -11q-2 0 -6 -19q-2 -3 -6.5 -11t-4.5 -13v-51v-21q0 -8 0.5 -19.5t1.5 -25.5q0 -44 -7 -66v-9q0 -4 0.5 -9t1.5 -13l1 -19q10 2 20.5 4t16.5 2
q15 0 22.5 -5.5t20.5 -23.5z" />
    <glyph glyph-name="uni001D" horiz-adv-x="300" 
d="M290 392q3 -10 0 -26q-2 -20 -13 -22q-11 -1 -27.5 -4t-37.5 -6q-2 -1 -6 -1q-3 0 -5 -1q2 -59 -3 -101q-1 -5 -1 -45q0 -18 -0.5 -43.5t-1.5 -57.5q0 -25 10 -31q32 -22 40 -22q1 0 3 2h1q9 0 20 -2t11 -14q0 -6 -3 -13q-3 -6 -20 -8q-17 0 -28 0.5t-18 4.5h-133
q-24 0 -40 9q-6 4 -6 7q0 5 6 9t14 7t16 4.5t12 1.5q29 0 35 35q1 7 1.5 13t0.5 13v14t1 14q-1 13 -2 31.5t-2 42.5q3 45 6 116q-2 0 -3.5 -0.5t-3.5 -0.5t-2 -1q-1 1 -8 1q-9 0 -12 -1q-7 -1 -11.5 -2t-7.5 -1l-29 8q-15 3 -15 25q0 33 18 35q5 2 12.5 4.5t17.5 5.5
q6 0 18 0.5t27 2.5q3 0 4 1v1q1 35 1.5 59t0.5 40v12q0 7 -1 9q-1 15 -2 36t-2 50q0 4 -2.5 9t-2.5 6q0 14 -25 20q-17 5 -30.5 11t-24.5 14q-9 9 -9 12q0 1 2 3v1q0 1 3.5 5t8.5 8t10 7t8 3h2q1 0 5.5 -1.5t24.5 -3.5q8 -1 13 -1.5t9 -0.5h9q33 3 42 3q41 0 47 -21
q2 -4 2 -34q0 -29 -5 -29q-3 0 -3 -74q0 -21 -3 -72q-1 -18 -1.5 -32.5t-1.5 -26.5q2 1 9 2.5t15 3l16 3t12 1.5q14 0 20.5 -5t17.5 -22z" />
    <glyph glyph-name="uni001E" horiz-adv-x="640" 
d="M190 708q-2 0 -7 -6.5t-11 -15.5t-12.5 -18.5t-11.5 -15.5q-20 -25 -20 -38q0 -6 -4.5 -17t-9.5 -22.5t-9.5 -22.5t-4.5 -18q0 -2 -2 -13l-6 -33q-5 -14 -18 -30h-3q-18 0 -20 17q-2 23 -3 44.5t-1 43.5t1 43.5t3 42.5l4 71q4 37 45 37q13 0 30.5 0.5t40.5 0.5l67 -5
l136 5q8 -1 17 -1h20h51q8 0 24.5 3t25.5 3q6 -1 18.5 -1.5t32.5 -2.5q32 -3 51.5 -2t19.5 -14q0 -12 -14 -35q-6 -6 -10.5 -12.5t-9.5 -13.5q-13 -23 -28 -42.5t-27.5 -33.5t-21 -23t-8.5 -12q0 -6 -10 -15.5t-11 -15.5q-4 -10 -20 -35q-1 -3 -5 -8.5t-9 -11t-9 -9.5t-5 -4
q-6 0 -21 -27q-16 -29 -20 -31q-6 -4 -13 -19q-8 -14 -15 -16.5t-17 -16.5q-6 -6 -9 -11.5t-5 -8.5q-5 -8 -9 -15t-8 -15q-6 0 -24 -26l-22 -32q-11 -15 -26 -36t-37 -49q-34 -37 -35 -44q-12 -12 -25 -40l-20 -39q0 -14 29 -14q8 0 21 1.5t15 1.5l120 5q85 0 109 18
q11 6 22.5 15t26.5 22q5 4 10.5 8t11.5 9q2 8 7 14q2 2 10 15.5t21 38.5q6 0 20 38q6 17 9 28t5 18.5t3 13t3 11.5q-1 0 -1 3q0 10 4 23q9 28 20 28q3 0 8 -5q12 -18 12 -47q0 -10 -3 -37l-1 -19q0 -5 0.5 -8.5t0.5 -6.5q2 -22 3 -44t1 -45q0 -41 -3 -83q-3 -43 -61 -43h-14
q-10 0 -15 1q-21 3 -137 3q-22 0 -54.5 1t-77.5 1h-131h-19q-5 0 -12 -0.5t-15 -1.5l-27 -1q-6 0 -10.5 0.5t-8.5 0.5q-13 0 -23.5 1.5t-20.5 3.5q-10 1 -10 12q0 8 26 46q6 17 28 39q1 1 5 5.5t10 15.5q8 13 12 17.5t8 7.5t9 8t16 20q18 32 26 35q8 5 11.5 17.5t6.5 16.5
q21 16 25 37q1 7 8.5 15.5t20.5 19.5q13 12 20.5 21.5t8.5 17.5q1 1 28 40q2 0 6 4.5t8.5 10.5t8 12.5t5.5 10.5t8 12.5t13 17.5t13 18t7 15q3 12 25 31q21 21 21 29q0 4 5 10t10.5 12t10.5 11.5t5 9.5q8 6 14.5 15.5t19.5 29.5q26 35 26 49q0 19 -66 19h-96zM105 1029
q0 11 6.5 21t14.5 10q3 0 5 -2q14 -2 32 -12q7 -5 16.5 -10.5t20.5 -11.5q14 -17 29 -34.5t32 -37.5q13 -11 27 -24t30 -28q2 -4 5.5 -7.5l8.5 -8.5q6 7 14 15t17 18l30 30t24 22q17 20 37.5 40.5t42.5 43.5q1 1 1 1.5t1 1.5q5 8 11.5 15t14.5 7q9 0 19.5 -6.5t10.5 -14.5
q0 -4 -3 -7q-2 -12 -12 -30l-9 -9t-11 -13q-2 -1 -10 -10.5t-25 -26.5q-33 -33 -37 -40q-12 -13 -25.5 -26.5t-28.5 -30.5q-10 -10 -29 -26q-6 -14 -17 -23q-5 -3 -20 -3q-10 1 -20.5 13t-19.5 25q-13 11 -29 24t-36 30q-22 22 -45 46.5t-49 50.5l-1 1q-8 6 -15.5 12.5
t-7.5 14.5z" />
    <glyph glyph-name="uni001F" horiz-adv-x="405" 
d="M391 196q1 -12 1.5 -26t0.5 -28q0 -29 -1 -54.5t-1 -36.5q0 -30 -25 -43q-26 -15 -72 -15q-37 0 -72 7h-122q-12 1 -24.5 1.5t-23 2t-17.5 5t-7 11.5q0 7 7 20q11 11 23.5 28.5t27.5 42.5q7 20 19 29q2 6 7.5 13t13.5 18q2 0 4.5 5.5t5.5 12t6 12t6 5.5q30 34 30 40
q0 4 5 12.5t14 23.5q20 29 23 29q5 0 17 29t17 29q4 0 4 11q0 25 -13 25q-60 0 -62 -2q-5 -1 -14 -3.5t-21 -7.5q-30 -11 -30 -18q0 -13 -27 -34q-12 -10 -19 -48q-5 -18 -9 -18q-5 0 -10.5 10t-10.5 11q-3 2 -4 7t-3 13q0 5 0.5 14l1 18t1 16t0.5 8v34q2 8 5.5 15.5
t11.5 13.5l4 2t6 1q5 0 18 -3t19 -3q7 2 16 2.5t20 0.5h20h11q6 0 9 1q22 3 42 3l22 -1q2 -1 7 -1h9h13q5 0 15 2q19 2 31.5 3t17.5 1q48 0 48 -20q0 -5 -3.5 -12t-7 -14.5t-7 -13t-3.5 -7.5q-1 -1 -4.5 -5t-7.5 -8.5t-7 -8.5t-3 -7t-5 -8t-10.5 -10t-10.5 -9.5t-5 -6.5
q0 -4 -21 -34q-22 -28 -22 -32q0 -9 -12 -19.5t-16 -18.5q-1 -7 -16 -25q-7 -9 -10.5 -14.5t-6 -10.5l-5.5 -11t-9 -16t-9.5 -14t-6 -6.5t-5 -4.5t-7.5 -8q-8 -11 -8 -16q0 -3 -2 -8t-4.5 -11t-4.5 -11t-2 -7q0 -13 21 -16h10q9 0 20 1t24 4q42 9 52 9q28 3 54 42
q11 17 18.5 32.5t9.5 30.5q1 5 11 17t14 25zM41 678q0 8 5.5 16.5t12.5 8.5q2 0 4 -2q5 0 11.5 -2.5t14.5 -6.5q6 -4 13.5 -8.5t17.5 -9.5q11 -14 23.5 -28t26.5 -29q11 -9 22.5 -19.5t24.5 -22.5q1 -3 11 -13q5 5 11.5 12t14.5 15q27 27 44 41q14 16 31 32.5t35 34.5l2 3
q5 6 10 11.5t11 5.5q8 0 16.5 -5t8.5 -11l-2 -6q-1 -5 -3.5 -10.5t-6.5 -13.5l-11.5 -11.5t-7 -7.5t-9 -10t-17.5 -18q-28 -28 -31 -32q-10 -11 -21 -21.5t-23 -24.5q-8 -8 -24 -21q-4 -8 -14 -18q-4 -2 -17 -2q-8 0 -16.5 9.5t-16.5 20.5l-3 3q-10 8 -23 17.5t-27 22.5
q-18 17 -37.5 37t-40.5 41l-1 1l-2 1q-6 5 -11.5 9.5t-5.5 10.5z" />
    <glyph glyph-name="space" unicode=" " horiz-adv-x="335" 
 />
    <glyph glyph-name="space" unicode="&#xa0;" horiz-adv-x="335" 
 />
    <glyph glyph-name="exclam" unicode="!" horiz-adv-x="183" 
d="M140 529q-14 -91 -15 -109q-4 -48 -6 -74q-1 -7 -1 -13t-1 -11q-4 -30 -9 -54t-10 -43q-2 -8 -12 -8q-9 0 -17.5 6.5t-8.5 11.5q0 4 -1.5 13t-3.5 24q-1 10 -2 17t-2 13q-2 0 -14 158q-2 6 -2.5 27t-2.5 59q0 9 -2 23t-5 28.5t-6 27.5t-4 20q-1 5 -3 17t-6 32
q-2 15 -3 27.5t-1 21.5q0 21 10 62q1 4 6.5 9.5t11.5 11t11 9.5t5 5q0 20 39 20q50 0 58 -18q5 -8 10.5 -18t12.5 -21q9 -7 14 -40q3 -34 0 -34t-9 -51q-7 -49 -13 -49q-5 0 -18 -100zM140 65q-2 -4 -4.5 -9.5t-6.5 -13.5l-21 -22q0 -6 -13 -6q-7 0 -23 3l-18 5
q-19 3 -30 22.5t-7 37.5q0 7 8 33q0 1 3 3.5t7 5t7 4t3 0.5q0 3 21 15q22 13 22 14q0 3 18 -12q19 -16 19 -22q0 -11 9 -17q10 -4 6 -41z" />
    <glyph glyph-name="quotedbl" unicode="&#x22;" horiz-adv-x="383" 
d="M363 691q-1 -10 -6 -29.5t-14 -50.5q-8 -32 -20 -39q-2 0 -6 -4t-8.5 -9.5t-7.5 -11t-3 -7.5t-4.5 -6.5t-10.5 -10t-10.5 -10.5t-4.5 -7q0 -5 -5.5 -11t-13.5 -11.5t-16.5 -9t-15.5 -3.5q-15 0 -15 14t29 46q15 16 22 26t9 14q0 5 3.5 13t8 17t8.5 18t4 16q0 13 -7.5 21
t-38.5 16q-24 8 -31 28q-2 4 -4.5 8.5t-6.5 9.5q-4 11 4 50q1 11 14.5 20t17.5 14q6 13 32 13q12 0 24 -2.5t22.5 -6.5t18 -9.5t9.5 -11.5q27 -60 23 -94zM162 691q-2 -10 -7 -29.5t-13 -50.5q-11 -32 -20 -39q-3 0 -7.5 -4t-9 -9.5t-7.5 -11t-3 -7.5t-4.5 -6.5t-10.5 -10
t-10.5 -10.5t-4.5 -7q0 -5 -5 -11t-13 -11.5t-17 -9t-16 -3.5q-16 0 -16 14q0 13 30 46q15 16 22 26t8 14q1 5 5 13l8.5 17t8 18t3.5 16q0 13 -7.5 21t-38.5 16q-24 8 -31 28q-2 4 -4.5 8.5t-6.5 9.5q-1 8 -0.5 20.5t3.5 29.5q4 11 16.5 20t16.5 14q6 13 34 13q22 0 44.5 -9
t28.5 -21q28 -58 24 -94z" />
    <glyph glyph-name="numbersign" unicode="#" horiz-adv-x="509" 
d="M512 486q0 -9 -6.5 -23.5t-17.5 -14.5q5 0 -14.5 -1t-65.5 -2h-25l-17 -110q8 1 14.5 1.5t11.5 0.5h17h8h6.5t8.5 1h25q13 -1 18 -6.5t10 -20.5q0 -13 -7 -23q-6 -17 -16 -17h-15q-10 0 -27 -0.5t-40 -1.5h-23q-4 -20 -5 -31.5t-3 -12.5q-1 -6 -3 -15t-4 -21
q-5 -7 -11.5 -16t-13.5 -21q-3 -7 -11 -7q-11 0 -17 5t-8.5 13t-3 18t-0.5 21l11 67l-117 -1q-4 -20 -5 -31t-3 -12l-2.5 -15t-5.5 -21q-13 -16 -24 -37q-3 -7 -11 -7q-21 0 -25 18t-4 39l12 66h-37q-4 1 -14 1q-4 0 -9 0.5t-11 1.5q-5 3 -14 8t-20 10q-6 3 -6 8
q0 4 3.5 10.5t8.5 11.5t11 9t11 4t14 2.5t14 2.5l60 -2l18 110h-38q-4 1 -15 1q-4 0 -9 0.5t-10 1.5q-6 3 -14.5 7.5t-19.5 10.5q-3 2 -5.5 3t-2.5 5t3.5 10t9 11.5t12 9t11.5 3.5t14 3t14 3l58 -2q2 16 3 27t2.5 20t2.5 17t3 18q2 20 12 29q3 7 22 14q11 0 24 -4.5
t13 -14.5q-2 -14 -5 -33.5t-6 -46.5q0 -3 -1 -9t-2 -17l118 -1q2 16 3.5 27.5t2.5 20.5t2 17.5t1 17.5q3 21 14 29q3 7 22 14q11 0 24 -4.5t13 -14.5q-2 -14 -4.5 -33.5t-6.5 -46.5q0 -3 -1 -9t-2 -17q8 1 14.5 1.5t11.5 0.5h17q4 -2 21 -0.5t27 0.5q13 -2 17.5 -6.5
t9.5 -21.5zM197 445l-15 -110l118 -1l18 112z" />
    <glyph glyph-name="dollar" unicode="$" horiz-adv-x="500" 
d="M517 191q-4 -25 -22.5 -48.5t-36.5 -45.5q-20 -26 -46 -34l-21 -9q-22 -9 -22 -8q0 -8 -31 -9l-30 -3q-4 -2 -6.5 -3.5t-6.5 -2.5q-9 -5 -12 -40v-11q0 -5 0.5 -11t1.5 -14q2 -32 3 -32t1 -3q0 -16 -12 -35q-7 -10 -26 -10q-14 0 -22 8q-11 14 -11 49q0 75 -16 91
q-4 4 -34.5 12t-87.5 23l-6 4q-8 7 -19 12q-23 16 -24 18q-6 11 -14 22t-17 24q-14 7 -6 60q6 45 48 59q29 9 46 -5q29 -26 29 -61q0 -16 -5 -16q-4 0 -24 -29t-20 -31q-1 -4 3 -9t9.5 -9.5t12 -8t10.5 -3.5q38 -20 49 -20q5 0 5 3q0 -5 21 -5q35 0 37 15q4 20 6 45t1 57
q-1 23 -1.5 40.5t-0.5 30.5v32q3 60 -65 66q-5 0 -17 2.5t-29 8.5q-40 12 -40 20q-13 9 -18.5 11t-15.5 12q-3 6 -6 10t-4 5q-28 25 -28 43q0 6 -1.5 17.5t-3 24t-2 24.5t0.5 19q0 8 3 22.5t3 22.5q0 14 15 35q6 8 12 15.5t11 15.5q4 6 50 28q46 19 46 24q0 11 49 14
q38 3 35 25q0 3 -1.5 13t-3 23t-3 27t-1.5 23q0 55 40 52q48 -2 48 -41q0 -6 -2 -17.5t-4 -24.5t-4 -24.5t-2 -18.5q0 -19 9 -28q10 -15 63 -21q13 -7 38 -16q27 -11 45 -21t26 -23q23 -35 23 -62q0 -21 -12 -37q-17 -21 -48 -21q-24 0 -42 14t-18 38q0 7 2.5 16t5.5 18
t5.5 17t2.5 12q0 19 -34 31l-23 9l-14 3.5t-11 -0.5q-17 -2 -18 -28v-9q0 -5 -0.5 -11.5t-1.5 -15.5q-1 -5 -1.5 -14t-0.5 -20v-57q-2 -77 0 -77q4 0 16 -14q6 -7 10.5 -9.5t9.5 -4t11 -2.5t15 -4t15.5 -3.5t13 -2t14.5 -5t20 -12.5q13 -8 21 -11.5t13 -5.5q20 -4 45 -34
q23 -32 26 -51q11 -75 9 -104zM222 643q-3 26 -5 26q2 0 -3 6.5t-11 9.5q-2 1 -7 0t-11.5 -2.5t-12 -3.5t-6.5 -2q-26 0 -64 -20q-41 -21 -45 -40q-2 -7 -4.5 -14t-4.5 -12q-8 -24 -8 -33q0 -15 14 -23q7 -5 11 -20q0 -4 4 -9t9.5 -9.5t11.5 -8t10 -3.5q6 0 45 -17t52 -17
q26 0 23 38q-2 14 -2.5 33.5t0.5 43.5q2 28 3 47t1 30zM278 255q3 -30 4 -58t0 -54v-36q0 -15 1 -18q7 -31 34 -31q6 0 15 3.5t18 8l17 8.5t13 4q10 0 31 9q10 5 16 9.5t10.5 9.5t9 11.5t11.5 15.5q8 5 5 28q-2 22 2 26q3 3 3 4q0 17 -20 43q-9 6 -28 27q-4 5 -12 10.5
t-17 10.5t-17 8t-12 3q-10 0 -29 5.5t-30 6.5q-6 0 -10 -5.5t-7 -14t-4.5 -18t-3.5 -16.5z" />
    <glyph glyph-name="percent" unicode="%" horiz-adv-x="535" 
d="M252 728q0 -48 -18 -100q-4 -11 -12.5 -22t-21.5 -31q-4 -5 -11 -10.5t-18 -9.5q-5 -1 -17 -8t-20 -7t-21 2.5t-18 3.5q-15 0 -46 22q-9 7 -13 11t-5.5 7t-2 5t-3.5 4q-7 4 -7 8q-20 35 -16 35q-3 0 -10 25q-6 25 -6 31q3 32 -3 32v18q0 5 0.5 10.5t1.5 10.5
q-2 15 1.5 32t8.5 35q0 7 2 13t3 8.5t2.5 4t2.5 3t3 5.5q1 9 4 9q4 10 16 23q16 7 18 17q5 15 52 30q3 1 7 1h7q30 0 53 -17q9 -6 12.5 -9t5 -5t3.5 -4t8 -6q7 -5 9.5 -7.5t3.5 -5t1.5 -5.5t3.5 -7q7 -8 8 -11t9 -15q8 -14 8 -20l5 -9q1 -2 2 -7t1 -10q3 -48 5 -67t2 -13z
M532 858q-2 -9 -6.5 -20.5t-10.5 -26.5q-5 -6 -12.5 -14.5t-16.5 -19.5q-6 -13 -34.5 -66.5t-79.5 -147.5q-57 -105 -85 -157.5t-32 -54.5q-33 -51 -68.5 -103.5t-77.5 -109.5q-5 -5 -13.5 -23.5t-21.5 -49.5q-21 -54 -37 -54q-23 0 -40 23q-4 6 -6 29q0 8 6.5 22t19.5 37
q11 18 19.5 31t15.5 21q6 6 25 37t51 91q66 117 75 129q8 6 123 214t122 213q5 6 11.5 14.5t14.5 19.5q5 5 14 5q15 0 30.5 -9t15.5 -22q0 -2 -2 -8zM572 195q0 -46 -18 -100q-4 -10 -12.5 -21t-21.5 -31q-7 -12 -29 -20q-5 -1 -17 -8t-20 -7t-21 2t-18 2q-13 3 -46 23
q-9 7 -13 11.5t-5.5 7.5t-2 5t-3.5 4q-7 4 -7 8q-19 34 -16 34q-2 0 -10 26q-6 25 -6 31q3 32 -3 32v17q0 5 0.5 10.5t1.5 10.5q-2 15 1.5 32t8.5 36q2 6 2 12q4 11 5.5 12.5t5.5 9.5q1 9 4 9q2 4 7.5 9.5t11.5 10.5t10.5 10t4.5 10q4 16 52 29q6 2 7 2h7q16 0 29 -4.5
t22.5 -10t14.5 -11t5 -6.5t3.5 -3.5t8 -6t8 -7t3.5 -5.5q0 -5 7 -12t7 -11q2 -4 9.5 -15.5t7.5 -19.5l5 -10q1 -2 2 -6.5t1 -10.5q3 -46 5 -65.5t2 -14.5zM46 797q-1 -15 -0.5 -46t2.5 -79q2 -41 4 -41q13 -27 13 -29q0 -8 9.5 -21.5t17.5 -14.5t19.5 -5.5t11.5 -0.5l15 6
q6 2 10.5 4t5.5 2q9 4 21 19q3 5 4 7t1 4.5t1 6.5t4 13q6 0 6 30v19v11.5t1 14.5v45q0 6 -0.5 16.5t-1.5 22t-1.5 22.5t-0.5 17q0 3 -1.5 10t-3.5 14.5t-4.5 13t-3.5 5.5q-1 2 -3 7.5t-7 18.5q-5 12 -20 17l-9 4.5l-13 6.5q-5 0 -13 -1t-21 -2q-11 -2 -23.5 -18.5
t-17.5 -47.5v-13q0 -7 -0.5 -16t-1.5 -22zM366 265q-1 -15 -0.5 -46t2.5 -79q1 -42 4 -42q8 -12 11 -19.5t3 -9.5q0 -4 2.5 -10t6.5 -11.5t8.5 -9.5t8.5 -4q8 -2 19.5 -6t11.5 0q5 1 15 5q13 4 16 7q10 4 21 17q3 6 4 8.5t1 5t1 6t4 12.5q6 0 6 31v18v12.5t1 14.5v44
q0 6 -0.5 17t-1.5 22.5t-1.5 22.5t-0.5 17q0 3 -1.5 10t-3.5 14.5t-4.5 13t-3.5 5.5q-1 1 -10 26q-5 12 -20 17l-9 4.5t-13 4.5q-5 2 -13 1t-21 -2q-11 -2 -23.5 -18.5t-17.5 -48.5v-13q0 -6 -0.5 -15t-1.5 -22z" />
    <glyph glyph-name="ampersand" unicode="&#x26;" horiz-adv-x="697" 
d="M709 251q0 -119 -12 -119q9 0 -34 -94q0 -4 -5.5 -11t-13 -13.5t-15.5 -12t-12 -6.5q-6 -1 -20.5 -6.5t-24.5 -5.5q-23 0 -40 2t-32 7.5t-29.5 14.5t-30.5 24q-6 5 -12.5 12t-13.5 12q-17 14 -31 14t-21 -15q-18 -30 -97 -62q-30 -10 -102 -7q-23 1 -42.5 8.5t-35.5 20.5
q-15 13 -32 26.5t-22 30.5q-2 5 -6.5 16t-13.5 30q-16 28 -16 49q0 35 2.5 62t8.5 47q13 58 54 94q11 13 24.5 25.5t24.5 16.5q13 2 28 17q17 14 21 23t4 20q0 8 -3.5 20t-7.5 24.5t-7.5 24t-3.5 18.5q-2 38 0.5 63.5t5.5 40.5q2 3 7 15t5 17q0 6 4.5 15t11 18.5t13 18
t10.5 12.5q34 25 45 30q24 13 47 18l10.5 3.5t9.5 2.5q17 5 17 3q12 -2 23.5 -4.5t22.5 -5.5q2 -4 14 -8t16 -8q49 -40 44 -40q9 0 16 -46q1 -3 1 -9v-9q0 -12 -20 -60q-2 -6 -7 -15t-11 -16.5t-12 -13t-11 -5.5q-3 0 -19 -13q-15 -14 -15 -17q-3 -5 -12.5 -11t-20.5 -11.5
t-20.5 -11.5t-12.5 -11q-5 -12 -5 -25q0 -52 35 -78q7 -4 25 -57q18 -52 28 -52q10 -19 10 -31q8 -7 14.5 -15t13.5 -16q12 -9 22 -9q30 0 50 71l11 23q12 21 13 21q3 0 4 31q3 32 0 32q5 0 5 5q0 11 -22 43q-21 33 -21 26q-12 4 -23.5 8t-24.5 9q-8 5 -8 11t8.5 11.5
t16.5 5.5q155 0 155 4q0 -3 9 -3q3 0 10.5 1t17 1.5t19 1.5t15.5 1q28 0 28 -11q0 -35 -23 -35q-4 0 -15.5 -4.5t-11.5 -6.5l-18 -9q-9 -4 -12 -7.5t-5 -7.5l-4 -8t-8 -9q-6 -4 -9.5 -7t-4.5 -4q-4 -8 -15 -17t-16 -17q-3 -6 -8.5 -16t-11.5 -24q-1 -6 -6.5 -16t-11.5 -21
t-11 -21t-5 -17q0 -2 -6 -9l-6 -8l-6 -15q-5 -14 -9 -18q-17 -14 -17 -41q0 -13 7 -23q14 -19 31.5 -40.5t35.5 -27.5q2 -2 7.5 -4.5l16.5 -7.5q14 -10 26 -10q11 0 26 8t20 16q36 52 31 107q-4 63 8 69q5 4 4.5 8.5t9.5 4.5q5 0 11.5 -7.5t6.5 -12.5zM383 631q2 13 3.5 23
t1.5 18q0 40 -23 63q-5 5 -11 10.5t-14 11.5q-8 2 -13 3t-9 2q-3 1 -7 1q-59 -12 -59 -26q0 -2 -4.5 -7t-4.5 -7q-4 -19 -5 -34t-1 -26q0 -43 14 -83q16 -53 54 -48q11 3 27 25q21 25 30 25t21 49zM360 120q-2 6 -8.5 16t-17.5 22q-11 13 -15.5 23t-6.5 17q0 3 -3.5 10
t-8 14.5t-9 13.5t-6.5 6q-4 0 -14 21q-4 6 -6.5 12.5t-6.5 12.5q-5 9 -11.5 18t-14.5 19q-13 25 -15 41q-3 26 -32 43q-5 4 -8.5 5t-7.5 1q-7 0 -24 -17q-33 -30 -33 -129q0 -21 10 -44q5 -16 7 -25.5t4 -18t6 -17t13 -21.5q20 -27 31 -32q6 -6 11 -12t11 -11q24 -23 24 -17
q0 -13 54 -16q0 -3 6 -3q19 0 51 16q6 0 11 6t7.5 14.5t3 17.5t-1.5 14z" />
    <glyph glyph-name="quotesingle" unicode="'" horiz-adv-x="200" 
d="M12 437q-7 4 -7 12q0 17 32 51q31 34 34 45q0 4 4 13t9.5 19.5t9.5 20.5t4 17q0 13 -9 22.5t-43 17.5q-26 7 -34 31q-4 7 -10 20q-3 8 -2 21t5 33q0 6 5 12t11 11t11.5 8.5t7.5 5.5q8 17 35 17q12 0 25.5 -3t25.5 -7.5t20.5 -11t10.5 -12.5q30 -66 26 -103
q-1 -11 -6.5 -33.5t-14.5 -55.5q-12 -35 -24 -42q-2 0 -6 -5t-9 -11t-8.5 -12t-3.5 -7q0 -2 -5.5 -7.5l-11.5 -11.5t-11.5 -11t-5.5 -7q0 -6 -6 -13t-14 -13t-18 -10t-17 -4t-10 3z" />
    <glyph glyph-name="parenleft" unicode="(" horiz-adv-x="294" 
d="M278 780l-22 -22t-10 -12q-2 -2 -7.5 -6t-15.5 -12q-17 -12 -17 -20q0 -5 -2 -12l-4 -14t-5 -12t-4 -5q-8 -23 -16.5 -46t-16.5 -50q-3 -15 -7.5 -38t-10.5 -54q-4 -48 -6 -98.5t-2 -104.5q0 -17 2 -40t6 -49q4 -23 8 -45t7 -45q2 -8 4 -17.5t6 -20.5q9 -34 15 -34
q5 0 17 -29q12 -30 12 -37q0 -4 4.5 -9.5t9.5 -11t9.5 -10t4.5 -6.5q0 -3 3 -8t6.5 -10t6.5 -9t4 -5q0 -2 4.5 -6.5t9.5 -10t9.5 -10.5t4.5 -7q0 -5 2.5 -11.5t5 -12.5t5 -11t2.5 -8q0 -8 -7.5 -17t-15.5 -9q-4 0 -9 4t-10.5 9t-10 9t-7.5 4q-4 0 -43 44q-39 45 -39 51
q0 4 -2 8.5t-5 11.5q-4 6 -7 9l-5.5 5.5t-4 6t-3.5 11.5q-3 16 -8 19q-2 1 -25 45q-18 43 -20 43q-6 0 -18 37q-12 36 -12 44q0 3 -10 36q-5 17 -7 27.5t-2 16.5q0 5 3 5q-6 0 -6 44v36q0 11 0.5 22.5t1.5 24.5q1 27 2 39t1 11q0 11 2 24t5 28q5 21 7.5 33.5l3.5 17.5
q5 27 6 37q7 28 14 30q17 8 22 56q0 5 4 14t9.5 18t11.5 17t10 12q3 3 9 25q4 4 9.5 10.5t10.5 14.5q1 4 6.5 12t12 17t12 18t5.5 14q0 2 3.5 8t8 12l9 12t6.5 8q14 13 29 28t30 15q38 0 38 -41q0 -15 -7 -30.5t-30 -37.5z" />
    <glyph glyph-name="parenright" unicode=")" horiz-adv-x="280" 
d="M258 162q-13 -64 -21 -64q-6 0 -15 -36q-11 -36 -17 -36l-20 -41q-11 -29 -28.5 -56.5t-44.5 -53.5q-3 -7 -10 -15t-17 -18q-3 -1 -8 -6t-10 -11t-9.5 -12t-6.5 -8q-3 -7 -19 -7q-26 0 -26 13q0 7 3.5 18t9 22t12.5 19t14 8q-1 0 12 25q14 26 14 28q0 20 31 60
q37 49 49 158q1 20 4.5 49t9.5 68q3 17 2.5 51t-5.5 86q-2 24 -5.5 59t-8.5 80q-6 22 -8.5 33t-2.5 10q0 5 -6 15t-6 15t-14 28q-6 10 -8 16.5l-4 13t-5 14t-11 18.5q-7 10 -12.5 17t-10.5 10q-2 2 -5 8.5t-6.5 13t-8 12t-8.5 5.5q-5 8 -11.5 17t-14.5 20q-22 21 -8 41
q12 17 39 17q35 0 41 -31l28 -35q4 0 9 -5.5t9.5 -12.5t8.5 -13.5t5 -8.5q5 -3 28 -51q24 -46 28 -46q5 0 18 -43q16 -42 19 -42q12 0 35 -96q6 -25 8.5 -53t2.5 -60v-30q0 -8 -0.5 -18t-1.5 -21q-1 -26 -2 -42.5t-1 -23.5t-3 -25t-11 -47z" />
    <glyph glyph-name="asterisk" unicode="*" horiz-adv-x="409" 
d="M392 726q0 -3 -3 -8.5t-7 -10.5t-8 -9t-6 -4q-5 0 -48 -9q-43 -7 -43 -6t-1 -1.5t-2 -8.5q-2 -4 1 -6.5t7 -3.5q2 -1 4.5 -1t4.5 -1q4 0 4 1t25 -6q13 -1 19 -3q3 -1 6 -1q18 0 33.5 -15t15.5 -35q0 -30 -29 -30q-34 0 -54 20q-2 1 -8 5t-17 10q-13 8 -21 11.5t-13 3.5
q-6 0 -6 -4q8 -12 14 -20t9 -14q2 0 7 -4.5t10.5 -11t9.5 -13.5t4 -11q16 -34 9 -35q1 0 -5 -11q-2 -3 -6 -11q-11 -11 -23 -11q-1 0 -8.5 2.5t-20.5 7.5q-14 5 -17 44q-2 42 -11 42q-2 12 -4 18q-2 7 -5.5 12t-8.5 5q-17 0 -17 -78q0 -8 -4.5 -17.5t-11 -18.5t-15 -15
t-17.5 -6q-13 0 -21 12t-6 32q1 5 1 8.5v5.5v6q0 5 4 11t9 12t9.5 11t5.5 9q2 5 6 13q5 13 5 18q0 9 -10 8q-18 -3 -43 -28q-5 -6 -13.5 -9.5t-21.5 -7.5q-11 -2 -17 -0.5t-9.5 4.5t-5.5 7.5t-5 8.5q-12 14 -8 14l5 5q4 4 12 15q15 19 28 22q17 3 34.5 6t28.5 12
q3 13 -18 15q-11 1 -15 3q-2 1 -5 1t-6 1q-4 1 -7.5 1.5t-8.5 1.5q-11 4 -17 5t-8 3l-23 14q-3 0 -6 17q0 9 0.5 13t2.5 6t5 4t8 7q8 11 15 11q30 0 51 -18q2 -2 10 -6.5t22 -15.5q30 -18 31 -17q8 6 8 11q0 12 -31 37t-31 28q-4 5 -5 10t-1 11q0 20 15.5 35.5t35.5 15.5
q6 0 12 -2q18 -4 26 -60q8 -54 14 -57q13 -2 18 36q2 10 2.5 17t1.5 12q1 3 1 9q7 17 23 37q0 18 46 11q5 0 12 -10.5t8 -15.5q2 -15 -7 -39q-11 -27 -22 -27q-3 0 -7.5 -5t-8 -12t-6.5 -15t-3 -14q0 -11 7 -11q5 0 15 7q48 30 48 39l24 12q7 3 14 0q11 -5 11 -6
q21 -4 18 -37z" />
    <glyph glyph-name="plus" unicode="+" horiz-adv-x="331" 
d="M318 382q1 -5 0 -12.5t-3.5 -14t-6.5 -11t-8 -4.5q-7 0 -19 -0.5t-24.5 -1t-24 -1t-17.5 -0.5h-7v-35v-15q0 -5 -0.5 -10t-1.5 -11q-5 -8 -9.5 -17.5t-10.5 -20.5q-1 -10 -11 -10q-9 0 -21 10t-12 21q0 5 -2.5 14t-2.5 14q0 8 1.5 22.5t1.5 22.5v16h-2q-37 0 -36 -1
q-12 0 -37 3l-17 8.5t-22 9.5q-8 5 -8 11q0 11 10 22.5t21 11.5q5 0 14 3t14 3q8 0 22.5 -2t22.5 -1h15v28v9q0 3 -0.5 6.5t-1.5 8.5q-2 16 0 27q2 14 7.5 19.5t22.5 13.5q5 1 12 0.5t13.5 -3t11 -6.5t4.5 -9v-42q1 -8 1.5 -14.5t0.5 -11.5v-17v-6h26h8q7 0 15 0.5t15 0.5
q10 0 13 -1q14 -1 19.5 -6.5t13.5 -20.5z" />
    <glyph glyph-name="comma" unicode="," horiz-adv-x="226" 
d="M205 91q0 -25 -2.5 -51t-8.5 -52q-2 -6 -6 -15t-10 -22l-21 -33q-16 -29 -22 -35q-10 -13 -28.5 -30.5t-44.5 -41.5q-8 -5 -13 -5q-20 0 -20 29q0 8 3 13.5t22 22.5q20 17 20 24q0 3 3.5 7.5t8 10t8 10.5t3.5 9q1 8 10.5 21t9.5 21q7 42 -22 54q-21 7 -34 15t-20 17
t-9.5 17.5t-2.5 17.5v36q0 4 3.5 9t7.5 10.5t7.5 10t3.5 7.5t4.5 6.5t11 7.5t13 6.5t11.5 2.5q9 1 27.5 -2t44.5 -11q21 -6 32 -36q10 -23 10 -51z" />
    <glyph glyph-name="hyphen" unicode="-" horiz-adv-x="268" 
d="M286 294q3 -12 0 -29q-2 -22 -15 -23q-13 -2 -31.5 -5t-42.5 -6q-24 -4 -41.5 -6.5t-30.5 -4.5q-23 -4 -33.5 -5t-8.5 -3q-7 3 -23 0q-8 -1 -13.5 -2t-8.5 -1q-5 0 -16.5 4.5t-16.5 4.5q-17 3 -17 27q0 36 21 38q6 2 14 4.5t19 6.5q8 0 21.5 0.5t30.5 2.5q15 4 37 7t52 8
q2 1 9.5 3t17.5 3.5t19 3t14 1.5q15 0 22.5 -5.5t20.5 -23.5z" />
    <glyph glyph-name="period" unicode="." horiz-adv-x="175" 
d="M158 103q5 0 5 -6t-2.5 -16t-5.5 -19.5t-6.5 -17.5t-5.5 -10q-25 -31 -74 -31q-2 0 -8 2t-12 4.5t-10.5 4.5t-4.5 3q-8 11 -14 19t-10 14q-2 4 -4 7t-4 5v26q0 28 3 30q22 25 20 25t2.5 3.5t15.5 8.5q22 13 22 10q0 3 32 -3q32 -7 37 -16q30 -43 24 -43z" />
    <glyph glyph-name="slash" unicode="/" horiz-adv-x="689" 
d="M737 897q-2 -9 -6.5 -21t-10.5 -27q-12 -10 -28 -34q-2 -3 -55.5 -70t-161.5 -202q-106 -135 -160 -201t-58 -70q-34 -45 -70.5 -91.5t-75.5 -97.5q-13 -11 -30.5 -28t-42.5 -40q-4 -4 -10 -4q-26 0 -40 23q-6 5 -6 29q0 15 20 35q8 8 16 15t16 15q145 177 312 378
q73 96 149 192.5t157 198.5q5 6 11.5 14.5t14.5 19.5q4 4 16 4q14 0 29 -9t15 -20q0 -7 -1 -9z" />
    <glyph glyph-name="zero" unicode="0" horiz-adv-x="520" 
d="M506 388q0 -95 -35 -202q-8 -23 -23 -49q-8 -11 -19 -25.5t-24 -34.5q-2 -3 -9 -9t-15 -12t-16.5 -11.5t-13.5 -7.5q-21 -7 -42 -23q-11 -9 -31 -9q-7 0 -17.5 1.5t-22 3.5t-20.5 4t-13 3q-30 2 -88 46q-35 29 -35 42q0 2 -4 5.5t-8.5 8t-8 9t-3.5 7.5q-39 70 -33 70
q-7 0 -17 52q-6 26 -9.5 41.5t-1.5 21.5q5 65 -8 65v9q0 5 0.5 12t1.5 16q0 11 0.5 19t0.5 13v11q-2 63 22 137q1 3 1 11q0 5 2 15q5 23 12 23q1 0 3 6t4.5 13t5 13.5t4.5 7.5q7 2 14 21q5 9 8.5 14t7.5 9t9 7.5t12 9.5q14 17 14 19q6 31 101 60l12 2t14 1q57 0 100 -34
q11 -5 22.5 -12.5t11.5 -15.5q0 -7 22 -23q23 -17 23 -23t3.5 -11.5t8.5 -12.5q6 -9 10 -15.5t6 -11.5q1 -6 18 -33q12 -21 12 -37q0 -5 5.5 -11t5.5 -8q4 -12 6 -35q0 -6 2 -26.5t6 -55.5q4 -24 5 -44.5t1 -36.5zM391 417q0 13 -1.5 33.5t-3.5 46.5q-1 28 -2 48.5t-1 32.5
q0 6 -2.5 18.5t-8.5 29.5q-9 39 -15 42q-3 0 -20 50q-2 3 -7 8.5t-10.5 11t-11 10t-8.5 4.5q-11 11 -42 20q-8 2 -24 0.5t-39 -4.5q-13 -2 -23 -10.5t-21 -23.5q-2 -7 -7 -17t-13 -23q-5 -5 -9.5 -20t-7.5 -42l-5 -101q0 -32 1.5 -94.5t3.5 -159.5q1 -88 9 -88
q25 -50 25 -58t5.5 -19.5t13 -22.5t16 -19t15.5 -8q3 0 27 -10q25 -9 30 -9q3 0 3 0.5t2 2t8 4.5t20 7q28 13 30 15q2 3 7.5 6.5t11.5 8.5t11.5 10t8.5 11q11 24 11 26t9 37q12 0 12 63v91q1 14 1.5 27.5t0.5 24.5v40z" />
    <glyph glyph-name="one" unicode="1" horiz-adv-x="455" 
d="M477 14q0 -20 -29 -20q-8 -2 -16.5 -1t-19.5 2q-7 1 -12 1.5t-10 0.5h-15q-57 1 -95.5 0.5t-61.5 -2.5q-31 -2 -55 -3t-41 -1q-108 0 -108 29q0 20 41 20h12q5 0 15 -2h16q14 2 31.5 5.5t39.5 8.5q20 8 26 48q7 34 3 60q-3 22 -4.5 49.5t-2.5 61.5v111q-3 114 0 153
q1 11 -1 30t-5 46q0 3 -4.5 7.5t-9.5 9t-9.5 9t-4.5 6.5q0 5 -28 6q-18 3 -52 0q-8 0 -14 -0.5t-10 -0.5h-8q-42 1 -42 10q-16 22 -9 22q6 0 12 20q7 15 29 15q6 0 18.5 -1.5t15.5 -1.5q4 0 34 -3q0 8 29 8q8 0 21 3.5t30 8.5q35 12 35 26q0 2 2.5 6t6 8.5t6.5 7.5t4 3
q25 25 25 23q0 6 26 3q10 -2 24 -20q-3 -66 -4.5 -111.5t0.5 -69.5q-3 -137 0 -405q-1 -8 -1.5 -18.5t-0.5 -22.5v-57q3 -31 29 -48q21 -13 56 -16q13 3 38 0q48 0 48 -24z" />
    <glyph glyph-name="two" unicode="2" horiz-adv-x="488" 
d="M480 209q0 -10 -1.5 -26.5t-3 -35t-3 -35t-1.5 -26.5q0 -52 -9 -52q-2 0 -7 -8t-8 -14q-1 -4 -5 -4q-3 0 -16 -2.5t-18 -2.5q-105 -8 -174 0q-33 4 -88 -3q-32 -4 -54 -5t-34 -1q-66 0 -61 38q0 4 4 10t8.5 11.5t8.5 10t4 5.5q0 2 3.5 8t8 13t8.5 13t4 8q2 5 8.5 13
l13 16t13 16.5t8.5 14.5q6 13 31 38t82 73q46 28 61 52q5 8 11.5 17.5t14.5 20.5q10 4 45 88q11 0 14 55q1 20 2 35t1 24q-1 4 -2.5 13t-3 19.5t-2.5 20.5t-1 16t-5.5 18.5t-5.5 20.5q0 22 -17 33q-3 3 -6 5t-7.5 5.5t-11.5 8.5q-24 16 -24 21q0 3 -40 2q-50 -3 -47 -3
q-9 2 -38 -23q-2 -2 -8.5 -6t-14 -8.5t-13.5 -7.5l-6 -3q-8 -13 -13 -22.5t-7 -9.5q-5 -8 -8.5 -18.5t-1.5 -23.5q6 -9 12 -13.5t12.5 -7.5t15.5 -6.5t21 -10.5q16 -13 16 -16q20 -14 20 -36q0 -17 -7 -33.5t-20 -33.5q-17 -21 -46 -21q-35 0 -52 20q-36 40 -42 78
q-5 36 0 71q8 14 17 40q8 36 30 57q8 6 16.5 12.5t16.5 13.5q28 21 28 26q0 17 82 42l16 2t16 1t21 -1.5l26 -3t24.5 -3.5t16.5 -3q22 -1 45.5 -12t43 -28.5t34.5 -39.5t21 -44q8 -23 15 -45.5t5 -47.5q0 -73 -40 -144q-2 -8 -6.5 -15t-10.5 -15q-5 -1 -13 -10t-8 -14
q0 -2 -4.5 -8t-10.5 -12.5t-12 -11.5t-9 -5q-11 -4 -20.5 -11.5t-17.5 -17.5q-2 -3 -8.5 -7.5t-14.5 -9.5t-14.5 -10t-8.5 -9q-2 -3 -7 -7.5t-15 -9.5q-9 -4 -13 -7t-7 -6t-6.5 -7t-11.5 -10q-13 -11 -16 -11q-12 0 -36 -33q-11 -15 -33 -40q-14 -11 -14 -23q0 -32 74 -32
q8 0 22 1t29 2t28.5 2t20.5 1q92 0 120 25q6 2 16 38q9 37 17 37q-7 0 16 63q3 5 7 5q12 0 15 -19v-49z" />
    <glyph glyph-name="three" unicode="3" horiz-adv-x="486" 
d="M471 165q2 0 -14 -34q-8 -17 -12.5 -25.5t-4.5 -10.5q0 -3 -3.5 -7t-8.5 -10l-17 -16q0 -1 -17 -13q-17 -9 -17 -12q0 -7 -42 -22q-40 -13 -40 -17q0 -10 -47 -10q-36 0 -69.5 2.5t-63.5 7.5q-11 4 -18 5.5t-12 2.5q-14 4 -28 16q-6 2 -9 4q-4 2 -7 4.5t-3 4.5
q0 20 -23 40q-23 21 -24 43q-1 13 -1.5 22t-0.5 14v9q0 30 13 40q1 2 6.5 7.5t14.5 18.5q7 8 14 13.5t15 6.5q8 2 19.5 0t28.5 -7q4 -1 10.5 -7t13 -12.5t11.5 -12l5 -5.5q3 0 3 -23q0 -24 -5 -24q2 0 0 -5t-5.5 -11t-7.5 -12t-5 -7q-2 -1 -6.5 -4t-13.5 -8
q-19 -8 -21 -15.5t-2 -12.5q0 -23 32 -32q11 -4 20 -8q24 -8 28 -8q3 0 5 2q0 -5 52 -8q52 0 52 9q0 -6 46 25q14 10 37 62q7 19 9 44q3 19 0 46q-1 10 -1 17.5v12.5v18q0 11 -3.5 23.5t-8.5 27.5q-12 32 -27 40q-2 0 -7.5 4.5t-11 10l-10.5 10.5t-6 7q-8 11 -48 14
q-11 1 -27.5 0t-33 -3t-32 -4t-24.5 -2q-16 1 -16 9q0 5 3.5 10t7.5 10q6 8 10 12q22 2 42.5 2.5t40.5 2.5q48 1 48 8q7 3 14 5.5t15 6.5q17 0 35 28q11 15 15.5 26.5t6.5 20.5q8 58 2 131q-3 42 -48 74q-43 29 -89 25q-13 -3 -22 -4t-14 -3q-22 -5 -31.5 -14t-9.5 -27
q0 -17 14 -23q21 -14 21 -53q0 -31 -14 -43q-32 -27 -63 -27q-8 0 -15.5 1t-15.5 5q-35 17 -35 61q0 11 1.5 30.5t1.5 28.5q0 20 45 61q44 42 92 51q11 4 37 5t68 1q6 0 15.5 -2t19 -5t18.5 -5t14 -2q27 0 91 -61q40 -40 40 -112v-16q0 -10 -1 -15q-8 -57 -60 -102
q4 0 -19 -17q-11 -8 -15.5 -12.5t-4.5 -2.5q0 -5 -40 -17q-6 -1 -8.5 -5.5t-2.5 -9.5q0 -18 14 -23q5 -2 9.5 -3t9.5 -5q33 -14 35 -14q4 0 38 -34q2 -1 6.5 -8t12.5 -18q17 -23 14 -23q7 0 12.5 -8.5t9 -22.5t5.5 -31t2 -33q0 -40 -9 -40z" />
    <glyph glyph-name="four" unicode="4" horiz-adv-x="514" 
d="M491 214h-12h-9t-10 1q-22 3 -34 0q-22 0 -31 -4q-27 -12 -27 -60q0 -8 1 -21.5t3 -31.5q7 -52 45 -52h7q3 0 13 2h25q52 0 52 -26q0 -24 -46 -24q-6 0 -15 0.5t-17 1.5t-14.5 1.5t-7.5 0.5h-50q-14 0 -31 -0.5t-36 -1.5q-77 -3 -115 -3q-87 0 -87 21q0 6 8 15t34 10h41
h28q15 0 23.5 5.5t13 13t6.5 16.5t5 16q0 6 1 9t1 12v8t1 9l1 39q-6 40 -18 40q-5 0 -17.5 1.5t-17.5 1.5q-14 0 -35 -1t-47 -2q-53 -3 -65 -3q-58 0 -72 17q-8 8 -8 20q0 4 2 11t5 14.5t5 14.5t2 12l22 35q12 18 21 32t15 23l12 18q0 2 4 7.5t8.5 11.5t8.5 11t5 7
q3 5 8.5 15t12.5 23q16 25 16 29q0 2 3.5 6.5t8 9.5t8 9.5t3.5 7.5q0 2 4 8.5t8.5 13.5t8.5 12.5t5 5.5t6 5.5t10 13t9 14t4 8.5q2 5 7.5 14t17.5 21q1 2 7.5 13.5t18.5 34.5q21 42 24 42q5 0 16 20q5 10 8 18t7.5 13.5t11.5 8.5t21 3q24 0 24 -16q0 -3 2.5 -12.5t2.5 -14.5
v-56q0 -5 -1 -15.5t-1.5 -22t-1.5 -22.5t-1 -18v-168q3 -12 0 -72q0 -23 0.5 -40.5t5 -30t14.5 -20t28 -9.5q16 -3 58 -2q49 3 46 -43q-1 -13 -8.5 -24t-18.5 -11zM260 394q4 29 -2 103v25v13t-1 13q-3 40 -19 40q-5 0 -10 -3.5t-9.5 -9t-7.5 -11t-3 -9.5q0 -7 -20 -33
q-24 -31 -26 -33q-3 -2 -6.5 -8.5t-7 -14t-7 -13t-6.5 -5.5q-5 0 -10.5 -10t-10.5 -18q-31 -34 -31 -46q0 -5 -8.5 -14.5t-9.5 -14.5q-2 -4 -11 -13.5t-9 -19.5q2 -24 58 -21q21 2 59 0q11 -1 19.5 -1.5t15.5 -0.5h21q31 0 39 36q1 1 1 19q0 9 0.5 21.5t1.5 28.5z" />
    <glyph glyph-name="five" unicode="5" horiz-adv-x="451" 
d="M98 509q0 2 6 5.5t13.5 7.5t14 7.5t6.5 5.5q11 4 20.5 7.5t18.5 6.5q6 2 18.5 2.5t32.5 2.5q40 1 40 -3q20 -6 34.5 -10t22.5 -6q56 -15 64 -26q0 -1 20 -21q8 -7 11 -12t4.5 -9.5t4 -9.5t9.5 -11q14 -11 14 -18q0 -5 6.5 -15.5t6.5 -15.5q4 -20 10 -62q2 -15 2.5 -37.5
t-0.5 -54.5q0 -8 -6 -21.5t-6 -21.5q0 -45 -23 -66q-4 -4 -10.5 -15t-6.5 -14q0 -5 -5.5 -12t-12 -14t-13 -12.5t-8.5 -8.5q-13 -22 -45 -34t-92 -27q-114 -9 -114 8q0 -2 -37 13q-36 16 -41 24q-17 18 -34.5 38t-20.5 43q-3 30 -8 49q-2 7 -0.5 15.5t4.5 16t5.5 14.5
t2.5 11q0 7 7 16t17.5 16t23 12t23.5 5q16 0 23 -10q5 -5 23 -20q12 -13 17 -26q3 -16 -2 -30q-1 -11 -2 -17.5t-1 -9.5q0 -16 -26 -34q-24 -18 -24 -36q0 -7 3 -17q8 -15 29 -25.5t41 -14.5q73 -6 73 0q0 2 38 19q16 7 40 34q25 25 25 41q0 8 7 20t7 17q3 15 4.5 33t2.5 38
q2 54 -1.5 95.5t-8.5 69.5q-4 13 -13 31t-26 42q-9 15 -32 26t-43 11q-84 0 -100 -21q-4 -7 -34 -28q-21 -18 -26 -35q-1 -5 -5 -11.5t-9 -13t-10.5 -11t-8.5 -4.5q-15 0 -15 20q0 8 2.5 20t2.5 17q0 28 2.5 68t7.5 95q6 54 8.5 93.5t2.5 66.5v23q2 13 6.5 17t21.5 4h29
q43 -1 43 -10q0 -10 60 -11q25 -2 42 -2.5t27 0.5q25 2 38 3.5t15 1.5q4 2 7 3q3 2 8 3.5t11 4.5q7 3 11.5 4.5t7.5 3.5q6 2 7 2q0 3 15 0q16 -1 17 -7q7 -24 -1 -31q-15 -8 -29 -32q-4 -5 -12 -12t-22 -16q-26 -17 -37 -17q3 0 -21.5 -4.5t-78.5 -12.5q0 -8 -79 -8
q-22 0 -32.5 -2.5t-16 -13.5t-8.5 -32.5t-9 -58.5q0 -2 -1 -8.5t-5 -20.5q-2 -11 -3.5 -18.5t0.5 -12.5q3 -11 15 -11q23 0 23 9z" />
    <glyph glyph-name="six" unicode="6" horiz-adv-x="489" 
d="M11 203q-12 33 -16 82q-1 22 -2 43t-2 41q-3 36 6 86q6 36 10 57t5 28l5 20t9 29q1 3 5 10t8.5 15.5t8.5 16t4 11.5t8.5 14.5t8.5 14.5q0 3 17 26q9 11 14.5 17t7.5 8q5 2 26 27q16 22 29 22q1 0 6 3.5t11 7.5t11 8t6 5q4 10 38 19q15 5 27 7t20 4q57 5 109 -19
q64 -26 74 -75q1 -11 2 -19.5t1 -16.5q0 -56 -45 -75q-15 -5 -26 -5q-24 0 -44 16.5t-24 40.5q0 7 2 19t3.5 25.5t2.5 25.5t-2 18q-2 11 -29 11q-28 0 -28 -5q0 3 -4 3q-12 0 -52 -29q-41 -28 -36 -28q-12 0 -40 -63q-34 -79 -28 -166q3 -28 13 -28q3 0 8 2.5t11 6t11 6.5
t8 4q3 0 9.5 3.5t14 8t15 8t12.5 3.5q-1 0 6.5 0.5t18.5 1t24 1t23 0.5q51 0 51 -11l25 -12q24 -11 24 -12q8 -8 18.5 -18t24.5 -21q8 -2 22 -31q14 -26 14 -33q0 -4 1 -12t3 -19q4 -25 8 -25q1 -11 1.5 -20.5t0.5 -17.5v-31q0 -13 -8 -43q-5 -17 -7 -27.5t-4 -15.5
q0 -9 -6 -21t-15 -24.5t-19 -23t-17 -14.5q-16 -16 -32 -26q-19 -19 -34 -19q-34 -16 -34 -14q0 -9 -94 -9q-9 0 -22 3t-26.5 8.5t-25.5 12t-19 13.5q-10 10 -20.5 18.5t-21.5 15.5q-3 2 -6.5 7.5t-8 11.5t-8 11t-6.5 5q-6 6 -13 25q-6 21 -7 21q-6 0 -14 23q-2 8 -3.5 14.5
t-2.5 13.5zM109 251q0 -97 16 -116q3 -9 9 -22t17 -30q7 -13 24 -28q5 -1 9.5 -2t7.5 -2q16 -4 16 -6q0 -7 32 -7q60 0 60 14q0 -1 18 11q19 13 19 23q0 5 7 14.5t8 14.5q4 15 8 39.5t9 56.5q0 8 4 26t4 29q0 3 -1 10t-2 15.5t-2 16.5t-1 12q-3 55 -8 55q-1 0 -9 17
q-3 9 -4 14t-3 9t-5.5 8t-12.5 11q-9 8 -14 11t-9 4.5t-8.5 2t-11.5 3.5l-18 10q-3 1 -11 1h-11q-62 0 -97 -44q-40 -56 -40 -171z" />
    <glyph glyph-name="seven" unicode="7" horiz-adv-x="454" 
d="M68 669q-6 -3 -12 -10t-13 -17q-1 -8 -2.5 -22t-3.5 -32q-2 -8 -3.5 -16t-4 -15.5t-7 -12.5t-11.5 -6q-19 -4 -19 22q0 13 8 43q4 15 5 23t1 9q0 2 1.5 16.5t3.5 43.5q6 58 6 79q0 12 -2 12q3 1 3 5q0 5 2.5 10t19.5 5q4 0 15.5 4t16.5 4q4 0 12.5 -1t18 -1.5t18.5 -1.5
t14 -1q11 2 27 2.5t38 -0.5h38h14t11 1q24 -1 59.5 -2t83.5 1q21 1 30.5 2t8.5 1q30 0 30 -12v-37q-1 -8 -6.5 -15t-13.5 -12q-8 -10 -15 -19.5t-15 -20.5q-8 -35 -14 -35q-8 0 -33 -45q-12 -22 -19 -34.5t-7 -15.5q0 -2 -3.5 -12.5t-11.5 -30.5q-17 -39 -20 -39
q-4 0 -20 -52q-6 -20 -10.5 -34.5t-6.5 -25.5q-13 -67 -18 -149q-2 -17 -1 -41.5t2 -54.5q3 -74 3 -97q0 -9 -6 -19t-14.5 -18.5t-18.5 -14t-19 -5.5q-22 3 -34 8q-7 2 -14 6.5t-12 12.5q-25 28 -28 101q0 6 1.5 18.5t3.5 32.5q6 49 13 49l2 6t3 7l12 36q5 14 9.5 27.5
t7.5 26.5q5 11 11 25.5t14 34.5q6 13 13 30.5t18 40.5q0 4 10 23q5 9 6.5 14.5l3 11t4.5 10.5t10 12q8 8 11.5 13.5t5.5 10t4.5 9.5t7.5 13q5 7 9 10.5t7 6t5.5 6t5.5 9.5q4 7 6 11.5t4 5.5q15 15 21 42q7 5 14 23q7 22 -34 26q-18 1 -33 0.5t-28 -2.5q-21 3 -59 3
q-9 -1 -18 -1h-19h-37q-23 -2 -39.5 -7.5t-27.5 -17.5z" />
    <glyph glyph-name="eight" unicode="8" horiz-adv-x="494" 
d="M-12 163q-5 0 0 48q6 49 17 49q-3 0 32 51q0 13 35 34q36 22 36 40q-3 8 -8.5 14t-13.5 13t-18.5 16t-22.5 23q-18 10 -30 57q-3 16 -5 32t-2 32q0 54 10 88t30 54q11 9 20 20.5t20 25.5q15 21 50 35q28 12 28 14q0 -3 23 5q13 3 19 6l6 2h25h16.5t18.5 1q22 3 54 -12
q22 -11 34.5 -17t15.5 -8q20 -5 44 -32q46 -56 46 -102q0 -8 -1.5 -22t-3.5 -36q-1 -12 -23 -39q-14 -17 -21.5 -27.5t-9.5 -12.5q-1 -1 -5.5 -5t-15.5 -12q-20 -14 -20 -15q-4 -8 -6 -14t-2 -12q0 -9 7 -9.5t21 -10.5q16 -11 20 -14q3 -5 9 -11.5t17 -14.5q3 0 8 -5.5
t10 -13t9.5 -15.5t6.5 -12q3 -6 9.5 -21.5t11.5 -58.5q1 -4 1.5 -8.5t0.5 -11.5v-33q0 -46 -5 -46q2 0 -1.5 -8t-9.5 -26q0 -19 -24 -47q-12 -15 -21.5 -24.5t-17.5 -11.5q-9 -3 -24.5 -15t-24.5 -15q-14 -5 -38.5 -11t-47.5 -11q-21 -4 -36.5 -6t-26.5 -2q-21 0 -23 8
q-2 2 -7.5 3.5t-17.5 2.5q-27 3 -29 3q-23 7 -37 22q-26 29 -46 29q-9 0 -17 11.5t-14 20.5q-1 2 -6.5 10.5t-13.5 25.5q-17 32 -15 32zM131 535q6 -10 38 -30q17 -8 29 -12.5t20 -6.5q3 0 12 -1t25 -5q24 -8 36 -3q5 2 13.5 6t16.5 9t13.5 10t5.5 10l25 30q13 40 18 40
t5 20q0 18 -2 39.5t-6 46.5q0 4 -3 11t-6.5 14.5t-8 14t-7.5 9.5q-32 31 -97 31q-52 0 -89 -20q-17 -17 -54 -42q-2 -6 -3 -10q-2 -5 -4 -12.5t-6 -17.5q-13 0 -14 -54q0 -1 2 -7t5 -17q10 -22 14 -22q6 0 22 -31zM69 208q-1 -2 -1 -14q0 -22 9.5 -50t22.5 -41q6 -6 15 -13
t22 -18q1 -1 21 -10q10 -5 15 -6q2 -1 3 -1t2 -1q0 -6 25 -6q66 0 115 12t67 38q0 2 4.5 6.5l10 10t10 11t4.5 9.5q0 10 6 26t6 25q0 2 -1.5 9t-3.5 14.5t-4 13t-3 5.5q-3 12 -11 32q-1 2 -8 7t-20 16q-23 21 -23 25q0 3 -29 12t-29 14t-43 14q-17 3 -29 5t-20 4
q-51 5 -73 -20q-18 -17 -27 -29q-8 -11 -13.5 -19.5t-6.5 -16.5q-2 -11 -5 -26.5t-8 -37.5z" />
    <glyph glyph-name="nine" unicode="9" horiz-adv-x="495" 
d="M15 103q0 -2 -0.5 2.5t-1 11t-1 14t-0.5 12.5q3 12 11 12q6 14 12.5 25.5t13.5 11.5q32 13 37 13t5 -3q0 3 4 3t11.5 -2.5t14.5 -6.5t12.5 -7.5t6.5 -5.5q14 -23 14 -43q0 -2 -3.5 -12.5t-8.5 -27.5q-12 -35 -8 -35q33 -11 46 -11q51 4 51 9q0 -3 1 -3q11 0 51 28
q5 1 14 12t11 17q12 15 24 37q5 8 9 13t7 10t4.5 11.5t1.5 16.5q6 20 10 46t5 58q1 7 0 16.5t-4 17t-7 12.5t-9 3q-7 -3 -17 -8.5t-21 -11.5t-22.5 -11.5t-20.5 -8.5q-10 -3 -26 -4.5t-40 0.5q-43 1 -99 40q-21 14 -39.5 33.5t-33 43t-23 48.5t-9.5 50q-2 42 4 54q1 7 6 48
q3 8 6.5 19.5t8.5 27.5q2 8 11.5 21t13.5 18q14 35 26 35q1 0 6.5 5.5t11.5 12t11 12t6 6.5q7 5 18.5 13t26.5 17q7 5 41 11q22 4 37 6t25 2q18 0 18 -6q0 -4 30 -11q29 -5 29 -17q15 -11 23.5 -15.5t10.5 -5.5q10 0 32 -28q25 -28 25 -39q0 -2 4 -7t8.5 -10.5t8.5 -10.5
t5 -7q3 -9 7.5 -21.5t9.5 -29.5q5 -22 10.5 -56t10.5 -79q2 -6 0.5 -28.5t-4.5 -60.5q-5 -77 -7 -77q-1 0 -10 -39q-5 -18 -7.5 -28.5t-3.5 -14.5q0 -6 -15 -40q-15 -35 -17 -35q-1 0 -13 -17l-14 -23q-7 -8 -15 -19t-18 -26q-4 -6 -20 -15.5t-25 -13.5q-8 -2 -18 -12.5
t-16 -12.5q-14 -3 -27.5 -7.5t-26.5 -9.5q-47 -14 -47 -9q0 -4 -13 -4q-8 0 -21.5 2t-30.5 5q-17 5 -27.5 8.5t-15.5 5.5q-9 4 -20 13.5t-20.5 21t-15.5 24t-6 21.5zM369 468q4 0 6 63v71q1 8 -2 19t-7 22.5t-7.5 22t-3.5 17.5q0 10 -6 22.5t-16 23.5t-21.5 19t-22.5 10
q-4 1 -11.5 5t-16 8t-17 7.5t-15.5 3.5q-25 -3 -55 -20q-7 -4 -14.5 -12.5t-14 -19t-11 -21.5t-5.5 -20q-2 -20 -5.5 -48t-8.5 -66q-1 -7 -0.5 -23t2.5 -43q1 -60 9 -60q4 -14 9 -25.5t8 -14.5l19 -18q18 -20 18 -17q0 -11 42 -11q66 0 83 15q1 1 29 25q18 14 24 29
q13 36 11 36z" />
    <glyph glyph-name="colon" unicode=":" horiz-adv-x="171" 
d="M71 514q11 0 35 -11q1 0 1.5 -0.5t1.5 -0.5q23 -11 25 -16q24 -38 24 -60q0 -13 -6.5 -26.5t-17 -25t-23.5 -18.5t-26 -7q-84 0 -94 76q-1 1 -1 5q0 12 9 24t9 20q0 10 27 21q15 5 21 8.5t8.5 6t3 3.5t3.5 1zM157 109q-2 -8 -2.5 -17.5t-2.5 -20.5q0 -5 -4 -10t-9.5 -9.5
t-10 -8t-5.5 -5.5q-7 -15 -40 -18h-7q-26 0 -61 20q-18 12 -18 65q0 73 74 73q28 0 49 -10q9 -6 13.5 -9.5t6.5 -3.5q9 -4 17 -46z" />
    <glyph glyph-name="semicolon" unicode=";" horiz-adv-x="177" 
d="M69 506q26 3 53 -8q35 -11 35 -36q0 -50 -8 -74q-14 -33 -57 -36q-13 0 -27.5 8t-19.5 8q-6 2 -16 21q-3 0 -6 6t-5.5 14.5t-4 18t-1.5 17.5q0 5 2 5t6 13q4 7 5 10.5t1 4.5q0 4 5 9t12 9t14 7t12 3zM92 185q5 0 31 -17q7 -4 11.5 -7.5t7.5 -5.5l6 -4q3 0 6.5 -5.5
t7.5 -12.5l4.5 -9t4.5 -10q6 0 6 -28t-6 -64q-5 -36 -9 -36q-3 0 -17 -26q-8 -14 -11 -22t-5 -12q0 -4 -3 -11t-7.5 -13.5t-9 -11.5t-6.5 -5t-4.5 -5t-5 -11t-5 -11t-3.5 -6q-15 -14 -27 -27q0 -16 -26 -16q-30 0 -30 23q1 19 32 50q36 30 41 47q11 29 15.5 47t4.5 24
q0 33 -38 35q-47 3 -54 63q-1 27 11 39q20 17 20 21q0 9 28 16q21 6 24.5 8.5t5.5 2.5z" />
    <glyph glyph-name="less" unicode="&#x3c;" horiz-adv-x="1011" 
d="M1083 389q-43 -49 -143 -49q-9 0 -24.5 1t-32 1.5t-31.5 1.5t-24 1q-116 0 -170 -70q-11 -3 -22.5 -5t-23.5 -2q-23 0 -47 9t-48 29q-13 11 -33.5 30.5t-49.5 51.5q-25 27 -45 45t-34 27q-4 7 -4 14q0 4 3.5 12.5t7.5 18.5t6.5 20.5t0.5 19.5q-35 6 -74 6q-99 0 -166 -34
q-30 -9 -58 -9q-66 0 -99 44q-4 9 -4 23q0 20 20 40q9 8 18 14.5t17 13.5q64 24 128 47.5t127 46.5q75 24 141 36.5t124 12.5q114 0 215 -43q30 -12 67 -12q10 0 24 1t34 3t34.5 3.5t24.5 1.5q57 0 92 -32q-29 -8 -59.5 -11t-62.5 -3q-37 0 -91 6.5t-127 19.5
q-72 13 -127.5 19.5t-97.5 6.5q-33 0 -64 -3q-67 -39 -196 -69q-142 -34 -194 -59q7 -84 59 -84q30 0 89 29q32 15 52.5 23t33.5 9q71 23 166 30q54 3 88 7t49 8q-30 -36 -90 -65q-29 -14 -50.5 -27.5t-36.5 -27.5q11 -59 37 -59q16 0 56 28t60 28q10 0 18 -5q-7 -7 -54 -35
q-38 -23 -38 -57q11 -22 22.5 -33.5t26.5 -11.5q11 0 26.5 7t38.5 19q43 28 69 28h8q5 0 7 -1q-5 -5 -16.5 -10.5t-26.5 -12.5q-15 -6 -24.5 -11.5t-15.5 -10.5q-20 -17 -23 -40q5 -7 9.5 -13.5t10.5 -14.5q13 -18 29 -18q8 0 14 3q38 71 156 71h17q5 0 11 -0.5t13 -1.5h43
q110 0 149 65l8 -6q-5 -33 26 -34h25q7 0 13 -0.5t13 -1.5z" />
    <glyph glyph-name="equal" unicode="=" horiz-adv-x="346" 
d="M323 394q2 -5 1.5 -12.5t-3.5 -14t-7.5 -11t-8.5 -4.5h-16h-27t-42 -1q-8 -3 -38 0h-39q-37 0 -35 -2q-10 2 -17 2h-10t-10 1q-8 5 -17.5 10t-21.5 10q-9 3 -9 10q0 10 11 22.5t20 12.5q5 0 14 2.5t15 2.5t20.5 -2t22.5 -2h19q7 0 16.5 0.5t21.5 1.5q11 1 19.5 1.5
t15.5 0.5h22h8h6.5t8.5 1h26q14 -1 20 -6.5t14 -22.5zM323 265q2 -5 1.5 -12.5t-3.5 -14t-7.5 -11t-8.5 -4.5h-16h-27t-42 -1q-8 -3 -38 0h-39q-37 0 -35 -2q-10 2 -17 2h-10t-10 1q-7 5 -16.5 9.5t-22.5 10.5q-9 3 -9 9q0 11 11 23.5t20 12.5q5 0 14 2t15 2t20.5 -1.5
t22.5 -1.5h19q7 0 16.5 0.5t21.5 1.5q11 1 19.5 1h15.5h22h8q3 0 6.5 0.5t8.5 1.5h26q14 -2 20 -7t14 -22z" />
    <glyph glyph-name="greater" unicode="&#x3e;" horiz-adv-x="1014" 
d="M1080 552q-30 -44 -98 -44q-27 0 -57 9q-68 34 -167 34q-39 0 -73 -6q-2 -9 0.5 -19.5t6 -20.5t7 -18.5t3.5 -12.5q0 -7 -4 -14q-15 -9 -34.5 -27.5t-43.5 -44.5q-29 -32 -49.5 -51.5t-33.5 -30.5q-47 -38 -97 -38q-11 0 -22 2t-24 5q-51 70 -168 70q-9 0 -24 -1
t-31.5 -1.5t-32 -1.5t-24.5 -1q-100 0 -143 49q7 1 13 1.5t12 0.5h24q17 1 23.5 10t4.5 24l7 6q41 -65 150 -65h41q8 1 14 1.5t11 0.5h18q115 0 156 -71q6 -3 12 -3q16 0 31 18q5 8 10 14.5t10 13.5q-3 23 -23 40q-11 10 -42 22q-15 7 -25.5 12.5t-15.5 10.5q2 1 7 1h8
q25 0 68 -28q23 -12 39 -19t25 -7q28 0 51 45q0 34 -38 57q-53 32 -54 35q8 5 17 5q20 0 60 -28q41 -28 57 -28q27 0 35 59q-28 27 -86 55q-58 29 -91 65q15 -4 49.5 -8t88.5 -7q96 -7 167 -30q13 -1 33.5 -9t52.5 -23q59 -29 89 -29q52 0 58 84q-26 13 -74.5 27.5
t-120.5 31.5q-129 30 -194 69q-32 3 -66 3q-42 0 -97 -6.5t-128 -19.5q-72 -13 -126.5 -19.5t-89.5 -6.5q-32 0 -62.5 3t-59.5 11q35 32 91 32q10 0 25.5 -1.5t33 -3t33 -3t25.5 -1.5q37 0 67 12q102 43 216 43q58 0 123.5 -12.5t140.5 -36.5q64 -23 128 -46.5t128 -47.5
q8 -7 17 -13.5t17 -14.5q21 -21 21 -40q0 -13 -6 -23z" />
    <glyph glyph-name="question" unicode="?" horiz-adv-x="368" 
d="M354 712q4 0 -5 -21q-5 -13 -9.5 -26.5t-10.5 -46.5q-1 -3 -6 -9.5t-6 -10.5q-9 -35 -26 -49q-11 -8 -21 -20t-18 -29q-3 -4 -9.5 -10.5t-14.5 -17.5q-2 -5 -4 -11l-4 -12q-8 -18 -12 -18q-8 0 -15.5 -9.5t-18.5 -27.5q-8 -15 -13 -27.5t-7 -21.5q-5 -20 -7 -36.5
t-1 -30.5q0 -18 19 -18q15 0 25.5 6t18.5 17q14 17 14 43q2 9 5 16.5t6 16.5t4.5 20t-0.5 26q3 17 6 22t6 5h5q20 0 20 -37q0 -11 -2 -27t-2 -20q0 -6 -3.5 -18t-9.5 -32q-11 -38 -18 -38l-40 -40q-3 -9 -23 -9q-40 0 -48 17l-14 23q-11 23 -10 23q-8 0 9 101q1 0 7.5 12.5
t16.5 38.5q11 22 16.5 35.5t7.5 18.5q1 5 6.5 15.5t13.5 27.5q7 13 10 23.5t5 21.5q1 15 18 57q19 41 19 60q0 22 -6 61q-2 21 -3.5 32t-1.5 13q0 13 -7.5 21.5t-18 14t-20.5 8t-15 2.5q-40 0 -70 -34q-7 -5 -15.5 -14.5t-19.5 -22.5q-1 -3 -4.5 -8.5t-7 -12t-6 -13
t-2.5 -10.5q0 -3 -6 -25q-4 -22 -2 -22q-3 0 -3 -10q0 -6 1 -16t2 -24l5 -28q0 -6 21 -22q2 -1 5 -2t5 -1q3 0 8 3t9 3q25 0 30 87q2 30 2.5 49.5t-0.5 30.5q-8 36 0 57q4 10 14 10q15 0 24 -17q22 -40 22 -103q0 -66 -26 -90q-2 -6 -5.5 -13t-8.5 -18q-1 -2 -4.5 -5.5
t-7.5 -8t-7.5 -8.5t-3.5 -6q0 -5 -5 -8.5t-11.5 -6t-14 -4t-12.5 -1.5q-29 0 -48 22.5t-23 51.5q-4 31 -6 48.5t-2 20.5q2 5 3 14.5t5 24.5q2 11 2.5 19t1.5 15t4 15t10 20q14 22 14 34q0 11 34 32q32 19 42 34q14 20 49 20q11 0 51 -8q34 -6 47 -6q8 0 15.5 -4.5
t18.5 -12.5q21 -21 35 -47t16 -51q0 -2 1 -9.5t5 -20.5q8 -23 11 -23zM237 40q-19 -28 -66 -28q-29 0 -46 14q-30 24 -39 59v20q1 5 1.5 8t0.5 4v5q14 17 14 20q0 12 24 26q26 14 37 14q20 1 36.5 -8t31.5 -19q21 -14 21 -53q0 -20 -3.5 -35.5t-11.5 -26.5z" />
    <glyph glyph-name="at" unicode="@" horiz-adv-x="752" 
d="M734 297q11 -11 11 -26q0 -39 -76 -94q-31 -22 -62.5 -40t-63.5 -31q-75 -29 -160 -29q-69 0 -130 18.5t-115 53.5q-146 101 -146 305q0 29 3.5 58.5t9.5 59.5q43 204 247 319q66 20 118 30.5t92 10.5q122 0 193 -83q77 -92 77 -226q0 -140 -77 -277q-65 -89 -143 -89
q-8 0 -17 1t-17 4q-21 1 -38 36q-17 36 -31 36q-10 0 -23 -9q-17 -34 -47.5 -56.5t-66.5 -22.5q-20 0 -41 9q-52 13 -85 113q0 106 59 207q57 94 153 154q6 2 15 4.5t22 8.5q21 9 36 9q14 0 25.5 -8t29.5 -40q16 -25 36 -25q5 6 15 28q4 12 17 12q7 0 18 -3l26 -15
q-3 -24 -13 -53.5t-25 -63.5q-19 -43 -30 -71.5t-16 -42.5q-21 -71 -14 -137q13 -27 38 -27q20 0 54 20q107 135 96 350q-42 192 -180 216q-38 6 -74 6q-180 0 -302 -140q-86 -119 -86 -282q0 -73 16 -150q24 -71 98 -133q73 -58 149 -72q17 -4 32.5 -5t32.5 -1
q186 0 360 183zM478 623q4 9 4 17q0 28 -22.5 44t-51.5 16q-45 0 -63 -35q-19 -32 -37.5 -62t-35.5 -60q-40 -74 -40 -131q0 -48 28 -94q13 -12 25 -12q5 0 12 2.5t14.5 6t14.5 6.5t11 4q114 73 141 298z" />
    <glyph glyph-name="A" unicode="A" horiz-adv-x="783" 
d="M794 22q-21 -8 -36 -8q-10 0 -58 3q-39 1 -58 0q-7 4 -17 1h-3h-7t-13 -1q-3 1 -5.5 2t-5.5 1q-1 -1 -3 -2l-6 -3l-20 2q-6 -2 -5 -2l-2 2h-21h-20.5t-28.5 1q-46 0 -70 10l-6 15q2 2 3 5.5t5 6.5q6 2 11.5 3.5t29.5 3.5q21 1 33 0l3 1q32 -5 38 9q5 10 6 17.5t5 8.5
q-1 6 -3.5 15t-5.5 22q-8 28 -12 30q-2 8 -3.5 13.5t-4.5 7.5q-2 8 -3 14t-5 8q-1 12 -3.5 19t-5 12l-4.5 9t-2 9l-13 14q-2 1 -3 2t-3 2l-17 7h-20q-12 0 -15 -5q-11 0 -11 -2q-26 2 -51.5 2.5t-48.5 -0.5h-24q-11 0 -21 -9t-12 -13q0 -12 -4 -15q-3 -9 -6 -12
q0 -7 -1.5 -20.5t-3.5 -28.5t-3.5 -29t-1.5 -22q0 -14 3 -17v-5l14 -23q7 -1 15 -5.5t16 -11.5q7 0 12 -3h25q5 1 8.5 1.5t6.5 0.5h11q3 0 23 -14l5 -13q-8 -14 -19 -21h-32q-5 1 -10 1h-9h-13h-117q-13 0 -32 -1t-45 -5q-51 -6 -77 -6q-4 0 -19 5l-13 9l-3 23l18 19l12 4
q14 0 17 3h5h3q28 -1 34 6q5 0 7 2q5 1 8 1h5h3q5 3 10.5 6t13.5 7l4 4q6 4 18 16.5t14 17.5l4 5q4 5 11 21q0 25 11 33q6 18 8.5 27.5t3.5 10.5q2 14 4.5 17.5t6.5 13.5q2 2 3 4.5t3 4.5q0 14 5 19q0 19 6 24q2 6 3 13t3 16q5 11 11 20q1 13 6 16q2 5 4 10.5t4 12.5l4 5
q2 10 5 21t5 22q6 30 12 35l1 6q0 3 4 8q6 39 16 46q3 7 5 9q2 10 3 22t5 29q9 42 15 45q0 3 1.5 12t3.5 23q5 30 7 32q3 17 10 31q1 4 2 6.5t2 4.5q0 17 16 49q10 0 15 6q5 0 12.5 1t12.5 2q9 -5 24 -9q2 -4 4.5 -8t6.5 -9q17 -72 23 -78q0 -4 6 -34q4 -15 5 -23t3 -9
q0 -14 11 -25l6 -17q0 -23 8 -29q9 -43 17 -51l12 -34q0 -7 9 -32q13 -27 15 -29q3 -11 6 -22.5t8 -24.5q2 -11 17 -40q2 -6 5 -22t11 -22q0 -11 4 -14q3 -27 9 -32q3 -32 10 -36q0 -4 2.5 -11.5t5.5 -15t6.5 -14t5.5 -8.5q2 -16 7 -21q0 -11 1.5 -14t5.5 -16q1 -1 5.5 -8
t15.5 -21l23 -15q4 -2 8 -5q5 2 9.5 1t10.5 -2q5 -2 8.5 -1t5.5 2q8 -1 14 -1h11h13q22 -7 22 -25zM458 334q0 24 -6 26q-1 9 -2.5 13.5t-3.5 6.5q-2 6 -4.5 14.5t-6.5 19.5l-6.5 13t-6.5 15q0 5 -0.5 7.5t-2 5.5t-3.5 8.5t-5 16.5q-6 22 -7.5 25.5t-3.5 6.5q0 8 -3.5 15.5
t-8.5 18.5q-8 14 -12.5 22t-6.5 12h-6l-8 -6q-9 -27 -13.5 -42t-6.5 -17q-1 -1 -7 -30q-4 -14 -5 -21t-3 -9q-3 -15 -8 -17q-5 -36 -12 -43q-2 -15 -5.5 -20t-5.5 -9q0 -19 -6 -23l2 -12l10 -9q17 -3 19 -8q17 0 61 3q10 1 18.5 1h16.5h27q5 0 9 2.5t9 5.5z" />
    <glyph glyph-name="B" unicode="B" horiz-adv-x="706" 
d="M712 220q0 -5 -2 -13t-5 -16.5t-5 -16t-2 -11.5l-6 -9q-3 -7 -7.5 -14.5t-9.5 -16.5q-5 -5 -13.5 -13t-21.5 -19q-2 -2 -5 -2q-4 -2 -10 -7t-14 -13l-13 -3l-9 -8q-3 -1 -8.5 -2.5t-11.5 -3.5q-17 -7 -34 -15q-7 -2 -17.5 -3t-25.5 -5l-1 -1q-12 0 -25.5 -1t-28.5 -2
q-30 0 -62.5 -1t-68.5 -2v1h-9q-26 -9 -48 0q-14 2 -33 0.5t-45 -3.5l-2 -2q-5 0 -13.5 2t-13.5 2q-9 0 -23 -1t-29 -2.5t-29.5 -2.5t-23.5 -1t-17.5 2.5t-19.5 11.5l-2 11l2 8q9 5 19.5 6.5t15.5 5.5h51q37 3 45 9q3 0 15 6q4 21 6 47.5t2 60.5v101q0 31 -0.5 66t-1.5 76
q-1 42 -1 77v66v102q0 35 -17 41q-7 9 -20 11q-5 1 -9.5 1.5t-6.5 0.5h-6h-27q-39 -3 -50 4h-1q-22 19 -22 22q0 7 13 29l7 3l33 2q14 -2 34.5 -3.5t46.5 -3.5l3 -1q4 0 12.5 1.5t12.5 1.5q-6 0 5.5 -1.5t40.5 -3.5h3h5q6 0 9 -1h15h12h17t24 1q43 3 47 0l6 2l4 1h35
q7 1 17.5 0.5t21.5 -2t21.5 -3t16.5 -1.5h20q17 -3 35.5 -8t42.5 -16q5 0 5 -2q20 -6 31 -20h3q6 -4 14.5 -10.5t16.5 -12.5t14 -11t9 -7q5 -8 9.5 -17.5t10.5 -21.5q1 -3 3 -8.5t7 -11.5l1.5 -4.5t0.5 -3.5v-3v-23q0 -7 -2 -17l-1 -1l-2 -11q-2 -4 -4 -9.5t-3 -15.5
q-4 -5 -8 -11t-9 -13q-3 -3 -6 -7.5t-7 -9.5l-37 -22q-32 -20 -33 -23q-14 -4 -43 -18h-12q-4 0 -8 -2q-3 -4 -10 -4l-4 -6l6 -11q4 0 4 -2q19 -1 37 -9l11 -3l2 -2l24 -4q4 0 22 -8q1 -1 11 -6q14 -5 20 -14l4 -1q2 -2 17 -16.5t42 -40.5q7 -23 15 -30q9 -26 9 -55z
M537 597q0 4 -1.5 15t-3.5 30q-1 1 -7.5 10.5t-19.5 29.5q-22 31 -50 35l-3 1q-39 10 -117 10q-13 0 -24.5 -1.5t-22.5 -3.5l-14 -12l-8 -14q-1 -14 -2 -52.5t-1 -104.5q0 -6 -1 -11q-1 -6 -2 -14.5t-3 -19.5q1 -7 3.5 -13.5t5.5 -13.5l9 -28l28 -9h39q51 0 69 7q5 2 15 3.5
t23 4.5q5 4 14 10t32 19q2 2 5 3t6 5q4 6 8.5 14t10.5 17q1 2 3 11.5t4 21.5t3.5 25.5t1.5 24.5zM577 218q0 52 -29 110q-4 5 -12 12t-22 15l-2 2q-5 0 -13.5 6t-13.5 6l-3 3l-10 3q-2 2 -4.5 3t-5.5 4q-26 1 -51 9q-25 2 -41 3t-24 1q-41 0 -43 2q-7 -2 -17 -5t-23 -9
q0 -8 -3 -11q-2 -4 -2 -27v-68q0 -24 -4 -35q4 -15 1 -48q-1 -33 0 -46q5 -13 10 -31t10 -40q10 -5 27 -15q26 -3 41.5 -4t21.5 -1q78 0 87 9q3 0 5 2l14 1q1 2 2.5 2.5t3.5 2.5q8 2 17 5.5t18 6.5l5 3q6 4 13.5 10.5t17.5 15.5l6 11q2 4 4.5 8.5t6.5 10.5l1 1q0 4 5 19h1
q2 20 3.5 33t1.5 20z" />
    <glyph glyph-name="C" unicode="C" horiz-adv-x="637" 
d="M632 282q0 -18 -10 -59q-12 -43 -13 -43q-1 -4 -3 -9t-4 -11q0 -2 -5 -10t-5 -10q-1 -4 -4 -7.5t-6 -9.5q0 -3 -2 -3q-8 -13 -21 -29.5t-33 -36.5q-2 0 -3 -1t-3 -2q-19 -7 -35 -31q-8 -3 -10 -3q-5 -6 -32 -12q-2 0 -4 -1t-5 -1.5t-8 -2.5q-1 -3 -51 -11l-3 -1
q-6 -2 -10 -2h-8l-29 2h-2q-8 -3 -20 1l-1 2h-13q-5 3 -22.5 8.5t-43.5 11.5h-1q-1 0 -1.5 0.5t-2.5 0.5q-33 19 -98 79l-3 1q-5 8 -13 17.5t-19 22.5q0 3 -8 11l-6.5 13t-18.5 24q-3 8 -7.5 19.5t-9.5 28.5q-10 19 -18 47q-5 8 -10 19.5t-5 22.5l1 1q-8 18 -8 105
q0 17 5 37h2q4 7 4 17l2 1q1 3 1 19q2 2 2.5 5.5t2.5 6.5q1 2 3 7t6 18h2q3 6 8.5 15.5t12.5 22.5q2 4 3 8t3 9l2 4q2 2 4 5t4 7q1 1 4 4.5t8 8.5q1 2 2.5 7t5.5 12q14 12 18.5 18t7.5 11.5t9 13.5t23 25q5 13 18 20l4 3q10 8 27 17.5t40 22.5q0 1 4 3t19 7l2 2q4 3 46 9
q22 4 34.5 5t17.5 1q6 0 16.5 -1.5t20.5 -4t18 -5.5t10 -6l9 -3q3 -1 6 -4l10 -4l10 -4q8 -6 16.5 -12t19.5 -14v-3q3 -4 9 -8.5l14 -10.5q10 -18 29 -18h6q5 5 11 13.5t14 21.5q1 2 2 4.5t2 6.5q8 11 15.5 25.5t18.5 31.5q25 -12 25 -65q0 -9 -1 -21.5t-2 -24.5t-2 -22.5
t-1 -14.5q0 -43 4 -52q-1 -11 -2 -26t1 -32q1 -14 1 -24.5v-18.5v-16q0 -37 -6 -41l-12 -5l-14 1l-2 4l-6 4q-1 4 -2.5 7.5t-3.5 8.5l-1 1q-5 19 -8.5 35t-5.5 31q-1 0 -3 7t-16 33q-2 2 -5.5 10t-8.5 21q-1 4 -4 7.5t-8 9.5q0 3 -4 11t-9.5 16t-10.5 14.5t-8 7.5
q-21 33 -37 42l-5 1l-6 5l-1 3q-4 1 -7.5 3t-8.5 3q-4 12 -43 19q-14 2 -25.5 3t-20.5 1q-5 0 -20 -1t-42 -5q-1 -2 -5.5 -3t-12.5 -5q-23 -14 -52 -37q-2 -1 -4 -2.5t-4 -1.5l-6 -8q-2 -4 -4.5 -7.5t-6.5 -9.5l-9 -11l-2 -4q0 -7 -6 -17q0 -4 -1 -5q-7 -9 -19 -57l-1 -1
q-2 -8 -2.5 -18.5t-2.5 -24.5q-4 -8 -5 -34t-1 -71v-28v-17.5t1 -20.5q3 -44 3 -63q0 -24 7 -51q3 -17 5 -29.5t4 -19.5q1 -6 6 -19q2 -2 3 -7q2 -6 6.5 -14t10.5 -19q6 -15 19 -31t29 -29t33.5 -22.5t33.5 -12.5l3 -3q17 -5 76 -9q0 -1 23 1q8 2 17 5.5t20 7.5q3 1 6.5 4
t7.5 6l12 3q2 2 7.5 5.5t12 8t12 9t6.5 8.5q2 2 10 5l9 9l1 3q4 4 8.5 9t11.5 11l2 5l6 6q7 8 14 29l2 2l12 41q2 0 6 16l2 1q0 3 9 60q6 5 9 23l9 9q5 0 14 -7.5t9 -25.5z" />
    <glyph glyph-name="D" unicode="D" horiz-adv-x="749" 
d="M742 392q1 -5 0 -12t-5 -12q-3 -76 -12 -88q0 -8 -10 -31q-3 -3 -6.5 -9.5t-6.5 -14.5t-5.5 -15.5t-2.5 -11.5q-2 -3 -4 -8.5t-7 -11.5l-2.5 -7.5t-5.5 -10.5q-1 -4 -5.5 -9t-12.5 -19q-5 -6 -6 -10l-3 -5q-2 -2 -4 -2q-3 0 -4 -1q-8 -6 -19 -16t-26 -23h-3
q-15 -9 -21 -9q-14 -11 -28 -20.5t-29 -13.5q-1 -1 -4 -1q-1 0 -5 -2l-2 -1q-8 -4 -18 -8t-19 -8q-36 -9 -88 -4q-7 -4 -13.5 -5t-12.5 -1q-9 0 -24 1t-31 2.5t-31 2.5t-24 1q-7 0 -18 -1t-23 -2t-22.5 -2t-16.5 -1q-9 0 -42 9q-4 -1 -16.5 -3t-34.5 -4q-44 -3 -37 -3
q-3 0 -9 2q-5 2 -12 4t-17 4l-8 10l-1 3l1 1v6q8 8 16 12t13 5q-5 -1 -5.5 -1t3.5 0h35h30h13t11 1q9 2 20 10.5t16 17.5q0 4 1 12.5t3 21.5q1 5 1 10v9v15q0 3 -3 24v2q-2 -10 -2 40v62t-1 92q-3 147 5 180l-4 15q4 12 4 18q0 107 -17 119l-11 12q-17 5 -45 5q-54 0 -77 20
l-3 1l-3 10v4l14 14q9 2 15 2.5t11 1.5q3 1 8 1h25q8 0 16.5 -0.5t18.5 -1.5q11 -1 19.5 -1h16.5h27q14 0 12 -2q23 -7 133 -1q99 5 115 -7q5 0 6 -1q12 -3 45 -9q9 0 23 -7q48 -15 55 -23l14 -6q2 -2 6 -5.5t9 -8.5l3 -1q17 -14 33 -28t32 -29q45 -45 45 -65
q5 -8 13.5 -18.5t12.5 -16.5l3 -2l3 -6q0 -1 1.5 -10t3.5 -25q0 -4 3 -8q5 -29 8.5 -52t5.5 -42zM603 317q4 54 -3 113.5t-23 126.5q-6 6 -10 18t-5 17h-2q-2 2 -3 7t-3 12q-8 8 -17 21.5t-31 32.5q-21 19 -29 21q-5 8 -49 16q-11 2 -19.5 3.5t-13.5 3.5q-8 2 -10 2
q-34 2 -54.5 3t-27.5 1q-20 0 -26 -6l-3 -4l-6 -5q0 -10 -6 -14q-4 -26 -5.5 -55.5t-2.5 -61.5q-3 -44 0 -118q1 -23 1 -41.5v-33.5v-44q0 -74 -4 -77q1 -3 1 -22v-48q0 -8 1 -20t1.5 -25.5t1.5 -26t1 -21.5q0 -15 8 -23v-3l3 -3l4 -1q15 -19 68 -19q4 0 15 1t28 2
q35 4 39 8q35 2 44 8q3 1 6 4l16 5q4 5 15 7l3 4q21 8 26 20q2 0 2 3q3 3 8.5 7.5t11.5 12.5l8 17l1 1q2 4 4 9t4 11q3 4 6.5 12t7.5 22q1 11 2.5 20t3.5 18q0 7 4 14q0 7 1.5 18.5t3.5 26.5l2 1z" />
    <glyph glyph-name="E" unicode="E" horiz-adv-x="738" 
d="M723 249q-2 -5 -3 -9t-2 -7t-1 -5q0 -93 5 -96v-35q1 -5 1 -10.5v-10.5v-14q0 -20 -8 -44q-10 -13 -83 -13h-29h-16.5t-18.5 1q-45 3 -46 2l-7 1h-10v-1l-5 1l-12 -1h-6q-2 0 -10 -2h-15q-5 0 -14 0.5t-19.5 1l-21 1t-17.5 0.5q-11 -1 -19.5 -3t-14.5 -4l-16 3
q-4 4 -150 4q-26 0 -74 -3q-25 -1 -43 -2t-31 -1l-6 -1l-19 7l-3 2l-6 1l-5 8l2 11q5 1 10 3l10 4h6l2 2h49q28 0 45 14q1 1 4.5 3.5t8.5 8.5l2 5q12 9 12 55q0 7 -0.5 18t-1.5 23t-2 23t-2 18q4 5 6 20.5t0 42.5v100q-1 2 -2 13t-2 31q-2 21 -2.5 35t-2.5 19q6 27 8.5 41
t2.5 18q0 13 -6 54q-2 16 -2.5 34t0.5 38q1 8 0.5 12t-2 8t-3.5 9t-4 15q-21 29 -92 24l-10 -2q-2 2 -21 5q-6 3 -10 6t-4 21q30 14 88 14q2 0 3 -1t5 -1t7 -1h2q22 -5 95 -5q14 0 29 1t32 3l4 -4h50l2 2l11 2q6 -2 11 -2h13q6 0 15.5 1t24.5 2q13 2 22 2.5t17 -0.5l9 -2h1
l5 2q72 1 219 0l21 -2l8 -5q9 -23 9 -58v-31l-2 -3v-58q0 -13 0.5 -25t1.5 -23l-2 -2q0 -24 -1 -43.5t-5 -36.5l-9 -3l-15 5q-2 5 -4.5 11.5t-6.5 16.5q-2 2 -5 16.5t-14 49.5q-1 1 -4.5 6.5t-8.5 25.5q-4 4 -6.5 11t-6.5 20q-9 10 -20 18q0 3 -10 13l-2 4q-5 4 -14 10
t-20 15q-6 1 -11 8q-17 1 -27 9h-25q-3 0 -6 1t-6.5 2t-8.5 3q-8 2 -18.5 3.5t-23.5 -0.5q-22 -1 -32 -2t-8 -1q-6 0 -17.5 3t-16.5 3h-1q-16 -4 -34 -1q-8 -2 -17 -4t-17 -6q-15 -14 -15 -23q-7 -4 -10 -40q-1 -7 -1 -13.5v-11.5v-18q4 -7 1 -43q-1 -24 -2 -36t-1 -10v-9
q0 -2 0.5 -4.5t1.5 -6.5v-20q2 -4 2.5 -13t1.5 -19t3 -19.5t7 -14.5q1 0 4 -3q12 -3 22 -3q12 0 27 4l2 2q5 1 16.5 5.5t31.5 11.5q5 5 12 7q4 4 5 4q12 4 15 18q5 4 9 9.5t8 16.5q8 8 11.5 28t5.5 54q0 2 1 3l-1 1q1 30 15 30l11 -2l5 -3q0 -5 1 -5q3 -14 2 -30
q-1 -8 -1.5 -14.5t-0.5 -10.5v-6q0 -4 2 -31t6 -78l-2 -4q-1 -10 -2 -24t1 -31q1 -21 2 -34.5t1 -20.5q0 -5 -1 -15.5t-2 -22l-2 -23t-1 -18.5q0 -18 -2.5 -27t-5.5 -13q-4 -4 -8 -4h-4q-4 3 -7 11t-4 21l-5 37l-1 3q-2 6 -5 15.5t-8 22.5q-2 8 -6 17l-3 14q-1 2 -13 12.5
t-34 29.5l-14 1q-3 5 -23 8l-2 1q-18 7 -46 7q-15 0 -20 -11q-4 -9 -5 -58t-1 -139l4 -23v-3v-31q0 -2 1.5 -13.5t3.5 -31.5q4 -7 8 -13.5t7 -13.5q2 -2 11 -3t28 -5q1 0 4 -3l4 1q24 6 160 0l3 2q5 2 15.5 2.5t24.5 2.5q8 2 16 5.5t17 9.5q21 11 36 29.5t26 42.5q2 0 7 9
t5 13q5 5 9 14.5t7 20t5.5 20t4.5 13.5q0 4 4 4q3 21 9.5 47.5t14.5 58.5q4 2 7.5 4t9.5 6l11 -8q2 -4 3 -14.5t3 -27.5q1 -8 1.5 -15.5t0.5 -12.5q0 -12 1 -15z" />
    <glyph glyph-name="F" unicode="F" horiz-adv-x="683" 
d="M695 709q3 -17 3 -40q0 -11 -1 -30.5t-3 -47.5q-2 -27 -3.5 -47t-1.5 -33q0 -26 5 -48q-2 -5 -3 -8t-2 -5t-1 -5q-4 -10 -16 -11q-18 5 -23 23q-1 1 -1 10q0 4 -0.5 9.5t-1.5 12.5q-6 3 -20 69q-11 29 -26 57q-5 6 -12.5 18t-21.5 27v3l-8 9v3q-3 4 -26 19
q-1 3 -12.5 7.5t-16.5 4.5l-1 2q-8 1 -14.5 3t-13.5 4l-28 5q-2 3 -6 3q-29 0 -68.5 -1t-91.5 -5l-14 -8q-5 -5 -8.5 -12t-6.5 -14l-2 -1q-1 -4 -2 -13t-2 -23l-2 -1q-2 -6 -2.5 -17t-0.5 -23t-0.5 -23.5t-2.5 -18.5q1 -8 2 -17t1 -17q0 -3 -1 -9t-2 -14q0 -26 3 -78
q8 -10 14.5 -18t23.5 -8h24q12 5 26.5 13t31.5 16l5 1l9 11q2 4 6 7.5t9 9.5q2 5 4.5 10t4.5 10q2 2 2 3q0 -1 2 5q5 5 10.5 23.5t9.5 50.5q0 2 3 7q2 17 17 28l4 -2q5 -6 6 -10v-42q0 -17 1.5 -44.5t3.5 -63.5q4 -35 5 -62.5t1 -44.5q0 -141 -12 -150l-19 -1q-17 17 -17 52
q0 22 -1 36.5t-5 20.5l-1 3l-5 9q-1 8 -3.5 14.5t-5.5 12.5l-2.5 2.5t-1.5 2t-4 5l-9 10.5q-8 1 -15 12q-6 2 -14.5 4.5t-19.5 6.5q-4 1 -11 7l-12 2l-3 1l-25 5l-2 2h-13q-25 -19 -25 -85q0 -7 0.5 -18.5t1 -24.5t1 -24.5t0.5 -18.5q0 -22 -5 -42q2 -14 3.5 -27.5
t3.5 -26.5q4 -45 12 -47q6 -25 43 -29h55q51 0 48 -22v-12q-13 -4 -15 -11l-4.5 -1.5t-3.5 -0.5h-3h-16l-1 2h-12h-6.5t-7.5 1l-2 2q-8 0 -20 1.5t-29 3.5q-11 -2 -23.5 -3.5t-27.5 0.5l-1 1q-6 2 -45 2h-10q-6 0 -12.5 -1t-28.5 -4q0 -2 -4 -2h-7q-2 0 -5 0.5t-8 1.5
q-6 2 -66 5q-54 1 -54 12q0 16 20 21h30q19 0 31.5 2.5t19.5 5.5q0 2 19 6q13 29 18.5 53t5.5 44v239q0 10 -1 26t-2 33t-2 33t-1 26v83q0 32 -1 53t-5 29l-5 14q-4 12 -15 20h-3q-6 4 -28 10q-11 -1 -21.5 -2t-18.5 -2l-21 3l-16 11l-3 4q0 1 -3 6v7q10 13 40 21l9 -1
q17 -3 47 0q7 -4 35 -4l1 2l13 -3q8 1 16 2.5t18 3.5l20 -2.5t29 -5.5q19 -2 21 3q23 4 44.5 5t43.5 -3q11 2 17 3.5t8 1.5q311 0 314 -5l3 3q2 -2 4 0l6 -1q5 -6 9.5 -11t9.5 -11q1 -4 2 -11t1 -20h-2z" />
    <glyph glyph-name="G" unicode="G" horiz-adv-x="671" 
d="M718 357v-9q0 -6 -1 -11q-8 -5 -19 -5q-8 0 -23.5 1.5t-20.5 1.5q-22 0 -35.5 -11t-26.5 -24l-4 -6q-2 -14 -3.5 -51t-1.5 -98q0 -28 -3 -34q0 -4 1 -7l2 -6q-1 -8 -1 -17.5v-20.5t-0.5 -24t-1.5 -28q-2 -2 -2 -6q-3 -5 -7 -9.5t-9 -9.5l-16 5l-4 6q-3 8 -5.5 20.5
t-5.5 28.5q-1 0 -5 4l-8.5 8.5t-9 8.5t-6.5 4l-10 -2q-3 -2 -8.5 -6.5t-12.5 -10.5h-3q-19 -10 -19 -17l-11 -9q-10 -10 -40 -21l-6 -5h-4q0 -2 -8 -5l-6 -1q-2 0 -3.5 -1t-5 -2t-11 -2t-20.5 -1q-7 -7 -43 -7q-2 0 -4 1t-4.5 1.5l-7.5 1.5l-3 1q-10 2 -20.5 4.5t-22.5 4.5
l-3 3l-9 5q-11 5 -26 13.5t-34 20.5q-2 1 -4 2.5t-5 1.5q-4 9 -16 16q-3 5 -9 11.5t-17 14.5q-2 5 -5.5 11.5t-6.5 14.5q-4 4 -9 8.5t-11 10.5q-4 9 -17 24.5t-17 35.5l-2 2q-2 2 -3.5 4t-3.5 4q-4 11 -8 21.5t-9 23.5q-2 2 -5 20v6l-1 2l-8 30l-2 2q-7 18 -7 78
q0 32 3.5 59.5t11.5 51.5q3 3 9 19q2 0 4 3.5t6 20.5q2 8 3 13.5t3 6.5q6 9 15 33q4 6 6 17q13 11 17 24q2 2 2 2.5t1 2.5q6 9 23 27q2 3 3.5 6t3.5 8l4 5q1 1 4 1q2 0 4 2l3 5q4 5 12 12t20 18q3 2 6.5 4t7.5 4q3 3 19 11q3 4 8.5 9.5t13 10.5t14.5 9t13 5l18 3l2 1l11 3
l3 3q9 3 16 4t13 1q9 0 27.5 -1.5t29.5 -1.5v2q19 -3 47 -19q13 -8 22.5 -15t17.5 -14q4 -6 19 -14q8 -11 17.5 -19t19.5 -13q15 1 22.5 9t12.5 17l2 2q0 1 1 1q2 4 2.5 8.5t2.5 11.5q0 8 2.5 11t8.5 21q4 9 12 9q10 0 23 -4l5 -6q1 -4 2 -6.5t2 -4.5l2 -6q0 -20 -1.5 -49
t-3.5 -68q-1 -38 -2 -67t-1 -49q0 -65 -9 -90l-14 -6h-12q-8 5 -10.5 17.5t-3.5 23.5q-4 11 -9 23t-10 23q-1 15 -23 63q0 2 -1.5 4t-1.5 4q-3 3 -6.5 10.5t-7 15.5t-7.5 16t-8 12q0 6 -5.5 14t-12 15.5t-13 14t-7.5 8.5v2q-26 26 -37 26q-3 6 -31 12q-32 8 -35 8l-17 -2
q-2 0 -5.5 -1t-10.5 -5l-7 2q-11 0 -34 -10l-22 -16q-2 0 -12 -10q0 -1 -6 -9.5t-6 -10.5q-6 -3 -12 -12.5t-10 -13.5l-2 -4q0 -1 -2 -5t-3.5 -9t-3 -9.5t-1.5 -6.5q-6 -6 -13 -58l-1 -2q-2 -2 -5 -21q-5 -10 -9.5 -47t-5.5 -106l1 -1q3 -21 3 -94q0 6 2.5 -20t7.5 -83
q1 -2 2 -5.5t2 -6.5l2 -2q1 -6 4 -15t10 -22q2 -2 4 -9q1 -1 1 -2t1 -3q1 -5 6 -15q16 -15 26 -37q6 -6 15.5 -13.5t24.5 -17.5q0 -2 69 -18q12 1 27 6q3 2 7 3t9 3l13 3v2l21 6q2 2 10 9t23 20q10 9 17 17.5t9 16.5q3 2 5 9.5t4 16t3.5 15.5t2.5 8q3 24 3 66v40q0 17 -1 20
q-4 14 -11 26.5t-20 23.5q-10 0 -14 7l-11 3q0 2 -5 2.5t-11 0.5h-11q-6 0 -10 -3h-10q-11 0 -20.5 1t-29.5 7q0 2 -0.5 3t-0.5 2v1q0 23 40 23q4 0 28 -3q1 -1 5.5 -2t12.5 1q5 1 9.5 1h6.5h4l3 2q21 0 42 -6q5 2 65.5 4t177.5 3q5 -5 7.5 -9.5t2.5 -5.5z" />
    <glyph glyph-name="H" unicode="H" horiz-adv-x="831" 
d="M842 745q0 5 -1.5 -1t-5.5 -21l-9 -6q-11 -3 -26 0q-11 1 -17 2t-8 1q2 0 -40 -6q-2 -2 -18 -5q-26 -29 -26 -100q0 -16 1 -30t5 -25q-6 -11 -6 -54q-3 -30 0 -78q1 -14 1 -24.5v-18.5v-17q0 -26 -3 -47q2 -8 3.5 -26t-0.5 -44q-1 -52 -6 -73q2 0 5 -46q2 -44 23 -64
l3 -2q4 -2 7 -3t8 -3q17 -2 33 -3.5t33 -1.5h5h7.5t11.5 -1l10 -10l-3 -21q-8 -11 -38 -11q-35 0 -54.5 1t-24.5 2h-7v-1q-8 1 -14.5 2t-12.5 -1q-8 5 -18 5q-6 0 -19 -3t-21 -3q-42 0 -46 4h-19h-3h-4q-7 -1 -19 0l-9 -3l-2 2q-4 -1 -7 -1.5t-7 -0.5h-15q-35 0 -40 23
q8 11 25 11q8 0 23.5 1.5t20.5 1.5q3 6 25 5q8 3 15 8t13 10q0 1 9 22q2 5 3.5 17.5t-0.5 33.5q-1 31 -2 44.5t-1 8.5q0 -2 6 70q-3 5 -4 46q-1 7 -1.5 13t-0.5 13v26q-6 7 -23 19l-2 1q-7 0 -18 1t-26 2h-2l-11 2q-11 1 -43 0.5t-84 -2.5q-104 -2 -108 -4l-6 -2
q-12 -9 -12 -34v-211q0 -21 17 -64l15 -13l1 -1q10 -9 82 -9q14 0 25 -11q1 -1 1 -6v-2q0 -10 -9 -17h-8q-5 0 -6 -1q-12 -3 -32 -3l-2 1h-4l-10 -1q-5 3 -17.5 2t-31.5 2q-36 -6 -200 -6q-13 0 -26.5 1t-28.5 2q-6 5 -11 7.5t-5 15.5q6 8 12.5 11t14.5 5h9q4 0 9.5 -0.5
t13.5 -1.5l3 2l7.5 -1.5t4.5 -0.5h3h8l2 2q5 1 11 2t13 2q7 6 14 6q16 12 22 93v104q0 20 -3.5 48.5t-9.5 64.5q6 17 8.5 29.5t2.5 19.5q0 6 -2.5 17.5t-2.5 16.5l2 1v165q0 37 -5 54q-6 22 -30 43q-28 12 -84 4l-18 5q-11 3 -11 17q0 12 9 26q10 2 22.5 2.5t27.5 2.5h6
q3 0 7.5 -0.5t9.5 -1.5h1q51 3 133 0q28 -1 49.5 -1h37.5h43h24q10 0 12 -2q18 -5 18 -24q0 -3 -1 -5q-1 -1 -1 -6q0 -3 -2 -9q-4 -3 -11 -3.5t-14 -0.5t-13 -0.5t-9 -2.5q-11 3 -18 3l-29 -1q-4 -3 -9 -11.5t-11 -18.5t-12.5 -18.5t-12.5 -11.5q-2 -3 0 -9q2 -4 2 -8
q0 -82 -6 -137q6 -23 6 -26q0 -4 -1.5 -9t-3.5 -13q13 -33 100 -30l6 -3q5 -4 10 -2q4 3 73 3l25 -3q14 -4 23 2h8l1 -2q8 -2 16 -2h26q26 0 35.5 7t15.5 35v122q0 84 -11 112q-11 11 -19.5 16t-14.5 7h-40q-60 0 -60 23q0 20 29 25q5 1 15 1q6 0 16 2q21 -8 89 -8
q17 0 41 1.5t58 3.5q33 2 58.5 3t42.5 1l36 -3q1 -1 10.5 -7t9.5 -14z" />
    <glyph glyph-name="I" unicode="I" horiz-adv-x="431" 
d="M437 732l-11 -7l-32 -3l-2 1l-9 3q-24 0 -42.5 -1t-31.5 -5q-40 -31 -40 -80q0 -13 1.5 -31.5t3.5 -42.5t3 -41.5t1 -29.5l-1 -1q-2 -6 -2 -9v-11q0 -136 5 -151q-4 -31 -5 -49t-1 -22q0 -21 3 -64q1 -21 2 -37t1 -26q0 -32 9.5 -45.5t41.5 -25.5q74 -3 86 0l15 -9
q2 -11 3.5 -15.5t1.5 -6.5l-2 -5q-6 -6 -13 -7l-2 -2q-3 -1 -23 -1h-32q-13 0 -16 1q-5 -2 -26 0q-27 3 -31 3h-17h-12t-15 -1h-45l-1 -2q-11 -1 -21.5 -2t-23.5 -1q-5 0 -15 1t-25 2v2l-11 1q-21 -6 -64 -6q-4 0 -10 1.5t-12 4.5t-10 6.5t-4 7.5q0 17 23 17q3 3 8 5l6 -2
q5 -1 17 -1h25l1 1q7 0 14 1l14 2q3 0 10 1.5t16 11.5l3 1q2 4 6 7.5t9 9.5q2 2 2 4t2 4q7 11 7 181q0 24 -3 71q-1 24 -2 41.5t-1 29.5q0 17 -1 30.5t-5 24.5q4 9 5 18.5t1 17.5v3v5q0 4 -1 7l-2 1q-2 8 -2.5 20.5t0.5 32.5q2 28 3 41q1 4 1 7.5v6.5q0 -1 -1 12t-3 40l-1 2
l-3 9q-5 3 -5 5l-7 8q-7 4 -20 10l-2 2q-10 2 -15 2q-8 0 -11 1t-9 1l-5 -1h-15h-10t-12 1l-1 2q-15 0 -37 9q-8 -2 -8 19q0 17 35 17q32 0 52 1t25 5l11 -2q0 2 3 2q1 1 5 -2h4l3 2q12 0 14 -2l5 2q9 -3 44 -3h50l3 -2l6 2h1q4 1 21.5 2t49.5 2q64 3 68 3l37 -9l3 -29v-5z
" />
    <glyph glyph-name="J" unicode="J" horiz-adv-x="571" 
d="M569 709q0 -14 -37 -15q-5 1 -10.5 1h-10.5h-20q-15 0 -26 -7q-6 -4 -10 -7t-7 -5l-6 -4q-12 -6 -14 -35v-39q0 -45 -1 -111t-2 -156q1 -8 1 -17v-20v-51q-6 -65 -6 -61q0 -6 -9 -45q-9 -37 -13 -37q-2 0 -5.5 -5t-7.5 -12t-8 -13l-6 -9q-4 -4 -12.5 -14.5t-21.5 -22.5
t-30.5 -23.5t-40.5 -17.5q-77 -21 -81 -21q-8 0 -8 1q-82 0 -82 12q-24 13 -35.5 20t-10.5 7q-4 0 -8.5 5t-8.5 11.5t-7 11.5t-5 5q-27 21 -29 74q0 -2 1 11.5t5 42.5q0 5 7.5 15.5t7.5 15.5q0 2 5 7t11.5 10t13 8.5t10.5 3.5q46 7 60 -5q23 -18 33 -35t10 -32
q0 -21 -13 -44.5t-31 -29.5q-15 -5 -25 -9.5t-14 -10.5q-1 -2 -6.5 -4.5t-5.5 -7.5q3 -25 15 -25q3 0 8.5 -3t11.5 -7t11.5 -7t8.5 -3q1 0 10 -1.5t21 -3t24.5 -2.5t20.5 -1q20 0 20 6q2 1 3.5 2t3.5 2q3 2 8 4t11 5q27 13 29 18q6 11 12.5 20t12.5 19q8 13 11.5 23t3.5 18
q0 11 1 30.5t2 48.5q3 48 3 78q0 58 -3 172q-1 33 0 97q2 32 2.5 56.5t-0.5 39.5q-7 20 -11.5 33t-10.5 19q0 9 -54 9q-35 3 -55 3q-13 0 -20 7q-13 16 -9 16q-3 0 7 10q6 1 11 6q3 9 56 9q17 0 45.5 -1t67.5 -5q62 -5 62 -2q0 2 46 2h35q11 0 19 -2q12 3 34 3
q5 -1 11.5 -2.5t17.5 -3.5q6 -2 6 -23z" />
    <glyph glyph-name="K" unicode="K" horiz-adv-x="811" 
d="M823 752q6 -2 6 -12q0 -21 -11 -23q-3 -2 -11 -4t-13 -2q-45 0 -45 -6q0 -5 -21 -14q-11 -4 -15.5 -6t-6.5 -2q-5 0 -12 -5t-15 -11t-14.5 -11.5t-9.5 -6.5q-17 -8 -38.5 -23.5t-47.5 -39.5q-28 -26 -49.5 -43t-36.5 -25q-2 0 -7 -4t-11 -9.5t-11.5 -9.5t-8.5 -4
q-13 0 -13 -19q0 -26 6 -26q7 0 34 -52q2 -2 6.5 -7.5t12.5 -15.5q18 -20 18 -25q0 -4 13 -17q6 -5 8 -8.5t3.5 -7.5t4 -9t8.5 -12q7 -5 10.5 -9.5t5.5 -5.5q8 -14 19.5 -32t27.5 -40q10 -9 14.5 -16t7 -13.5l5 -13t9.5 -14.5q8 -8 13 -12.5t7 -7.5q4 -9 11 -20t16 -21.5
t18 -18.5t16 -10q11 -3 20 -5.5t19 -6.5q32 -9 32 -6q0 4 25 -8q26 -11 26 -18q0 -14 -46 -14q-45 0 -45 2q-101 0 -219 3q-43 4 -58 1q-25 -1 -37 2q-14 2 -14 10q0 13 20 16q60 6 60 3q0 2 26 0q10 1 28 15q8 8 8 16q0 10 -20 35q-19 25 -19 35q0 8 -40 48q-3 7 -9.5 16
t-14.5 20q-6 3 -12 16.5t-11 16.5q-2 2 -6.5 8t-9.5 12.5t-8.5 13t-3.5 8.5t-4.5 7.5t-10 11t-10 11t-4.5 7.5q0 7 -25 35q-2 2 -7.5 6t-12 8.5t-12.5 7.5t-9 3q-2 0 -2 -1q0 -2 -3.5 -6.5t-16.5 -12.5q-9 -6 -14.5 -9.5t-7.5 -7.5q-1 -12 -26 -34q-9 -8 -9 -31q2 -10 2 -17
v-9t1 -8q0 -25 1 -63t2 -89q2 -26 17.5 -47t38.5 -21h6q3 0 7 2q8 -2 20 -3t27 -3q15 -3 7 -20q-1 -4 -10 -5t-24 -3q-30 3 -92 0q-21 -2 -77 0q-51 3 -78 -6q-8 2 -19.5 1t-26.5 -3q-39 -9 -57 13q-5 5 -5 7q0 14 69 20q70 10 70 28q5 14 9 30t6 36q0 3 -1 10t-1.5 15
t-1.5 15t-1 10q3 52 0 150q-1 28 -1 50.5v41.5v61v59v40.5t1 46.5q-11 89 -58 80q-9 -3 -28 0q-11 1 -18 2t-11 1q-37 0 -37 28q0 15 45 15q10 0 24 -1t27.5 -2t23.5 -2t12 -1q2 1 60 -2q54 -2 54 0q0 -1 46 0q7 1 13.5 1.5t13.5 0.5h13.5t13.5 1q54 0 54 -18q0 -3 -1 -6.5
t-6.5 -6.5t-17 -5t-32.5 -2q-24 0 -48 -9q-27 -12 -27 -34v-41q0 -11 -0.5 -24.5t-1.5 -27.5q-1 -19 -1 -34.5v-26.5t-0.5 -19t-1.5 -13v-8v-6t-1 -9v-34q0 -60 20 -60q12 0 29 17q5 7 12 13.5t12 13.5q36 36 40 36q7 0 13 6l12 12q14 14 49 40q5 7 13.5 15t19.5 16
q2 0 5.5 5t7 11t6.5 11t4 5q25 0 55 60q4 7 5 14t1 12q0 26 -28 47q-3 1 -10 3t-20 4q-23 5 -23 2q-39 6 -34 24q1 10 14.5 14.5t37.5 4.5q169 -3 169 3q0 -3 80 0q36 1 59 0t32 -5z" />
    <glyph glyph-name="L" unicode="L" horiz-adv-x="654" 
d="M-3 708q-14 5 -14 24q0 25 72 19q5 -1 12.5 -1.5t15.5 -0.5h40q4 1 7 1.5t7 0.5q9 0 14 1q27 3 43 3q23 0 24 -4h6.5t8.5 1q4 1 9 1h10h11.5t13.5 1q0 4 25 4q8 -1 14 -1h10h3q30 1 43 -3q23 -8 22 -29q-3 -19 -31 -20q-28 -3 -28 0q0 1 -29 1q-15 2 -23 1t-9 -2
q-7 -7 -17 -11q-2 0 -6 -19q-2 -3 -6.5 -11t-4.5 -13v-51v-21q0 -8 0.5 -19.5t1.5 -25.5q0 -44 -7 -66v-9q0 -4 0.5 -9t1.5 -13q1 -5 1 -15v-13q5 0 2 -40q-1 -8 -1.5 -15.5t-0.5 -13.5q0 -13 -1 -17q-3 -23 0 -132q2 -113 11 -113q-3 0 15 -30q0 -2 4.5 -5t10.5 -5t12 -3.5
t8 -0.5q25 0 60.5 2t83.5 6q56 9 56 12t14 12q16 9 19 9q5 3 10.5 9t10 12.5t8 12t5.5 6.5q4 9 9.5 18.5t13.5 20.5q15 6 20 80q2 6 4.5 14t4.5 20q0 24 9 63q7 15 16 15q22 0 24 -41q-1 5 -1 4.5v-7.5t-0.5 -19.5t-1.5 -31.5q-1 -118 0 -142q5 -66 -1 -89q-3 -18 -47 -18
q-11 0 -26.5 -1t-31.5 -1.5t-30.5 -1.5t-24.5 -1h-127l-80 3h-90q-68 -3 -153 -3q-7 0 -15 1t-19 4q-27 6 -27 13q0 5 12 13q21 10 54 9q46 -3 61 32q12 24 10 77q-2 20 -2.5 49t0.5 67q2 39 1 67.5t-2 48.5q-4 60 -5 123.5t3 132.5q-4 14 -5 27t-9 21q-7 10 -7 13
q0 7 -48 10q-28 1 -42 2t-15 1z" />
    <glyph glyph-name="M" unicode="M" horiz-adv-x="868" 
d="M865 720q0 -8 -47 -11q-6 -1 -12.5 -1h-13.5t-13.5 -0.5t-13.5 -1.5q-36 -6 -36 -34q0 -7 -4 -24q-1 -3 -1 -9q0 -5 -1 -7q-1 -3 -1 -6q2 -284 -2 -284q2 -34 3.5 -63t1.5 -53v-18q0 -6 -0.5 -13.5t-1.5 -17.5q-1 -31 0 -49q0 -27 6 -48q8 -26 45 -35q15 -5 30 -6.5
t31 -0.5q8 2 14 1t9 -2q14 -3 13 -19q-3 -18 -34 -18q-8 0 -23 1.5t-19 1.5q-15 0 -45 1t-75 2q-37 2 -67 2.5t-53 -0.5q-7 -2 -14 -2.5t-15 -2.5q-19 -1 -28 2q-13 9 -13 20q0 8 27 10h36q5 0 13.5 1t20.5 2q5 0 11.5 7t8.5 7q7 0 12 20q3 6 4.5 16.5t2 22.5t1 23.5
t1.5 20.5q1 6 1 14.5t-0.5 17t-0.5 16.5v12q3 21 0 60q-2 23 -3.5 38.5t0.5 26.5q3 21 0 62q-2 23 -2.5 39t0.5 25q0 28 -3 82q2 -8 2 4v37q0 13 -2 22.5t-6 17.5q-2 2 -3 2q-2 0 -5.5 -4t-6.5 -10t-5.5 -12.5t-2.5 -10.5q-3 -24 -10 -42t-13 -38q-9 -34 -12 -34
q-4 0 -16 -42q-13 -42 -13 -47q-3 -6 -5.5 -15t-5.5 -21q0 -5 -7 -15t-7 -15q0 -8 -2 -17.5t-6 -21.5q-5 -16 -8.5 -25t-3.5 -10q-4 -20 -9.5 -49.5t-15.5 -67.5q-2 -11 -4.5 -21.5t-4.5 -21.5q-9 -39 -11 -39q-9 -26 -9 -30q0 -17 -20 -17q-8 0 -10.5 3.5t-4.5 11t-5 18.5
t-11 25q-17 30 -18 46q-2 8 -4 21t-7 33q-12 46 -17 46q-6 0 -24 62q-8 31 -12.5 48.5t-4.5 23.5q0 12 -10 31q-4 10 -6.5 16.5t-4.5 13t-4.5 13.5t-7.5 18q-10 19 -10 33q0 7 -25 70q-23 68 -22 68q-5 0 -12 28q-2 12 -12 12q-7 0 -9 -8q-4 -9 -4 -64q1 -14 1.5 -32
t0.5 -40v-100q-4 -22 2 -157q5 -134 7 -134q10 -16 20 -37q2 -3 6.5 -8t10.5 -9.5t12 -8t10 -3.5q30 -8 50.5 -11t32.5 -3q4 0 4 -5q0 -11 -13 -14q-23 -2 -54 -3t-73 -1h-79q-16 0 -28 -0.5t-20 -1.5q-45 -2 -45 11q0 5 3 10.5t3 9.5q0 5 45 5q30 1 44 18q4 4 9 9.5
t10 13.5q2 2 4 9.5t3 15.5q2 10 3 14q1 7 4 7t3 71q0 23 -1 53.5t-2 72.5q-3 78 -2 79q-1 54 3 163q1 5 1.5 10t0.5 10v17q0 90 -52 106q-4 1 -16 2t-32 -1q-32 0 -40.5 8.5t-8.5 13.5q1 6 2 9t1 2q0 10 163 9q14 1 34.5 0.5t49.5 -2.5q11 -2 27 -37q0 -2 2 -8q1 -2 3 -8.5
t4 -16.5q5 -18 8 -26t4 -10q2 -8 6.5 -30.5t15.5 -60.5q22 -78 27 -78q5 -14 9 -21t8 -12.5t6.5 -11.5t4.5 -18q4 -14 6 -22.5t3 -11.5q19 -47 26 -70t13 -42q6 -34 10 -34q2 0 10 -11q6 -11 12 -11q4 0 6.5 3t10.5 25q15 43 25 77t13 58q1 7 5 17.5t8 22.5t7 23t3 19
q1 2 3.5 10t6.5 22q6 29 9 29l23 68q0 18 9 48q14 47 14 49q2 8 2 11q0 7 1 11q3 20 5 20q-3 0 11 15q15 16 15 11q0 3 55 3h66q11 1 21 1h21h42h29q18 -2 18 -13q0 -4 -2 -11t-2 -11z" />
    <glyph glyph-name="N" unicode="N" horiz-adv-x="692" 
d="M363 488q19 -25 19 -31q0 -7 9 -32q10 -24 17 -27q11 -5 19 -16t16 -30l4.5 -4.5t7.5 -8.5t7.5 -9.5t3.5 -7.5q0 -7 9 -17q11 -11 11 -17q0 -9 28 -43q11 -14 15.5 -21.5t6.5 -12t3 -7t6 -7.5q11 -8 15 -8q10 0 6 54l-4 157q1 0 -2 71q-3 70 -3 78q4 23 -0.5 46.5
t-14.5 47.5q-26 57 -70 57q-5 0 -15.5 2.5t-17.5 4.5q-5 2 -5 4t-8 7.5t-8 10.5q0 18 47 20q44 1 79.5 1.5t64.5 0.5h89h17q9 0 10 -2t7 -9q11 -8 11 -14q0 -5 -6 -9q-11 -7 -40 -11q-29 -2 -39 -14l-30 -30q-19 -19 -22 -37q-2 -17 -4.5 -33t-4.5 -34q-8 -56 -5 -56v-139
q1 -45 1.5 -77.5t0.5 -53.5v-37q0 -21 3 -64q1 -21 2 -36.5t1 -26.5v-37q0 -20 -11 -36q-4 -4 -11 -4q-19 0 -33 20q-1 0 -13 31q-11 24 -17 24q-7 11 -15.5 24t-19.5 27q-6 8 -13 19.5t-18 26.5q-8 10 -13 17.5t-9 12.5q-3 4 -7 10q-1 1 -3 5q-2 2 -4 5.5t-5 8.5
q-13 20 -13 24q0 33 -53 86q-11 11 -23.5 26t-26.5 36q-19 27 -30 43.5t-16 22.5q-9 11 -13 18.5t-7 14.5t-6.5 13.5t-11.5 15.5q-8 8 -12 14.5t-5 9.5q-14 30 -33 36q-8 2 -10 -22v-31q0 -5 1 -40t3 -104q3 0 0 -59v-69q1 -5 1.5 -12t0.5 -18v-23t1 -29q0 -22 10 -41.5
t21 -38.5l5 -13q2 -5 3 -7t3.5 -3.5t6 -3.5t11.5 -8q9 -4 12 -7l4 -2q0 -8 26 -11q7 -1 11.5 -1.5t7.5 -0.5q8 0 9 -1q3 -2 7.5 -5.5t10.5 -8.5q3 -5 3 -8q0 -11 -17 -13q-7 -1 -19 -1.5t-31 -0.5h-101h-81q-14 0 -24 0.5t-15 1.5q-27 4 -27 12t58 29q4 2 9.5 3t12.5 5
q1 2 4 4.5t7 6.5q1 1 5.5 9t14.5 24q7 14 10 24t3 12q7 10 0 54l-2 16t-1 19q0 7 1.5 23t3.5 40q2 38 0 62q-4 34 3 141q7 148 -2 148q-3 6 -7 13t-8 15q-2 5 -8 12t-14 13t-16 10.5t-13 4.5q-80 0 -72 33q4 13 42 16q36 1 36 0q13 -1 26 -1.5t26 -0.5h55q25 -1 53 -49
q6 -13 13 -27.5t18 -29.5q3 -1 16 -28q10 -24 18 -24q5 0 17 -23q6 -12 10 -17.5t5 -7.5q2 0 5 -4t6.5 -9t6 -9t3.5 -4t4.5 -4.5t8 -10t8.5 -10t6 -4.5z" />
    <glyph glyph-name="O" unicode="O" horiz-adv-x="682" 
d="M668 411q2 -12 0 -71q-3 -69 -13 -69q3 0 -6 -29q-5 -26 -15.5 -42.5t-16.5 -25.5q-12 -36 -25 -42q-7 -13 -12.5 -22.5t-11.5 -9.5q2 0 -10 -14q-2 -2 -4.5 -5t-5.5 -7q-3 -5 -10.5 -12.5t-16 -14.5t-17 -11.5t-13.5 -4.5q1 0 -40 -23q-40 -22 -40 -16q0 -2 -10 -4.5
t-25 -4.5t-32.5 -3.5t-32.5 -1.5q-25 0 -25 4t-38 10q-37 7 -37 13q-13 9 -22 14.5t-15 6.5q-2 0 -7.5 4.5t-11.5 9.5q-3 2 -6 5l-5 5q-4 4 -4 7q0 4 -28 32q-26 33 -30 33q-5 0 -19 23t-17 24l-5.5 11t-9.5 26q-10 21 -22 65q-1 31 -7 31q-4 0 -5 36v42q-5 62 5 62
q3 8 5 14.5t4 11.5q5 50 9 50q5 0 9 19q2 5 3 8.5t2 5.5t1 4q2 6 6 10q3 5 7 11.5t9 15.5q7 13 11.5 22t8.5 14q8 11 15.5 18.5t12.5 11.5q18 21 60 51q8 1 40 26q25 20 43 20q5 0 15 2.5t21.5 5.5t22.5 5t18 1q25 -5 78 -12q6 -2 17.5 -5.5t30.5 -11.5q43 -16 43 -26
q0 -4 41 -39q7 -1 19 -12q4 -7 8 -11t8 -7.5t9.5 -9.5t12.5 -17q8 -10 13.5 -19t6.5 -14l9.5 -19t7.5 -17q14 -32 13 -32q10 0 26 -106zM537 322q0 8 -2.5 53.5t-8.5 130.5q1 0 -3 31q-1 8 -3 16t-3 16q0 4 -3.5 13t-8.5 24q-12 31 -14 31q-2 2 -4 4.5t-4 5.5
q-4 5 -9.5 12.5t-13.5 17.5q-2 2 -8 7.5t-12.5 11t-12.5 9.5t-9 4t-8 2t-10.5 4.5t-10.5 4.5t-7 2q-21 5 -37.5 6t-27.5 0q-19 -3 -89 -26q-9 -3 -19 -11t-18.5 -18.5t-14 -21t-5.5 -19.5q-26 -47 -19 -47q-9 -39 -7 -39q-7 0 -10 -64l-3 -57q-1 -5 -1 -10v-9q-3 -21 -3 -41
q0 -32 12 -99q12 -65 12 -98q0 -5 3.5 -14t8.5 -18.5t9.5 -18t6.5 -12.5q3 -17 22 -36q12 -13 19 -20t8 -11q6 -6 42 -16q38 -12 38 -14q0 -4 48 -2q48 3 48 11q15 11 32 22t37 24q29 32 37 71q0 1 4.5 25t12.5 69q9 55 9 94z" />
    <glyph glyph-name="P" unicode="P" horiz-adv-x="622" 
d="M3 720q-14 3 -14 17q0 16 39 18q7 -1 14.5 -1h16.5h43q15 -2 35.5 -1t48.5 2q1 0 25 -3q11 -1 19 -2t12 -1t5.5 1t3.5 2t6.5 2t13.5 1h14h10.5t10.5 -1h25q177 2 264 -71q53 -41 53 -74q1 -2 1 -4t1 -4q1 -4 2 -10t3 -14q10 -30 10 -48q0 -14 -8 -14q-1 0 -3 -5t-4 -11
t-4 -11t-3 -5q-8 -14 -15 -24t-10 -10q-4 0 -9 -5t-10.5 -11t-11 -11.5t-9.5 -6.5q-5 -5 -14.5 -9.5t-21.5 -10.5q-91 -15 -91 -29l-125 -9h-6q-5 0 -23 1.5t-29 1.5q-41 0 -39 -26q-2 -8 -3 -21.5t-3 -32.5q1 -5 1.5 -10t0.5 -10v-22v-35q0 -10 -0.5 -22.5t-1.5 -26.5
q-1 -21 -0.5 -37t3.5 -28q9 -30 9 -27q0 -21 54 -24q12 2 28 3t37 1q5 -3 11.5 -6t14.5 -8q3 -3 3 -5q-4 -13 -13.5 -17t-26.5 -9q-6 0 -20.5 4.5t-22.5 4.5h-13q-4 0 -9 0.5t-12 1.5q-10 2 -18 1.5t-18 -0.5h-22q-6 0 -13.5 0.5t-17.5 1.5q-11 1 -27.5 0.5t-37.5 -2.5
q-24 -2 -40 -3t-24 -1q-53 0 -53 13q0 18 33 20h2h6t9 -1h27q7 0 10 1t4.5 2.5t3.5 4.5t7 7l9 7.5t4.5 7t3.5 12t6 21.5q7 19 5 29q-8 37 -5 128q7 145 0 145q3 0 3 69q1 20 1.5 34t0.5 24v22q1 5 1 9v9v20q0 34 -5.5 62.5t-15.5 51.5q-8 11 -48 14q-7 1 -13.5 1h-13.5
t-13.5 0.5t-13.5 1.5zM225 502q-1 -9 -1.5 -16t-0.5 -12v-12q0 -73 40 -77q5 -1 12.5 -1.5t17.5 -0.5h45q86 -2 99 19q0 1 6.5 5t14.5 8.5t15.5 7.5t9.5 3q6 0 15 14q5 7 7.5 9.5t4 4.5t2.5 5t3 10q7 16 8 16q9 0 6 70q-1 100 -35 116q-19 13 -39 25t-40 13q-45 4 -70.5 5
t-35.5 0q-5 0 -12 1.5t-11 1.5q-3 0 -9 -3t-9 -5q-11 -1 -22.5 -11t-13.5 -20q-6 -35 -6 -89q-1 -22 -1 -38v-27v-22z" />
    <glyph glyph-name="Q" unicode="Q" horiz-adv-x="671" 
d="M655 440q0 -136 -3 -158q-1 -10 -9.5 -28t-8.5 -31q0 -12 -17 -35q-15 -20 -15 -33q0 -9 -27 -43q-13 -16 -21.5 -25t-11.5 -10q-4 -2 -9.5 -5.5t-10.5 -11.5q-11 -15 -19 -15q-6 0 -34 -25q-16 -13 -18 -28q1 1 1 -34q0 -4 3 -9.5t6.5 -11.5t6.5 -11.5t3 -8.5
q0 -6 4.5 -11.5t10.5 -10t13 -7.5t12 -3q10 -3 40 -3q3 0 13 5.5t25 18.5q8 5 17 17q3 20 5 20q1 0 9 35q8 36 17 30q15 -8 15 -33q0 -26 -18 -78q-3 -8 -4.5 -13.5t-3.5 -9.5q-1 -2 -1.5 -4t-1.5 -4q-6 0 -12 -20q-8 -24 -11 -24q-13 -15 -32.5 -24t-45.5 -10
q-111 -8 -111 21q0 2 -5.5 8.5t-12 14t-12 14.5t-6.5 12q0 2 -2 7t-5 10t-5.5 9l-2.5 4q0 7 -1 11q-1 5 -1.5 13.5t-2.5 19.5q-5 45 -26 45q-11 0 -29 2t-45 6q-48 6 -103 53q-11 8 -21.5 16.5t-21.5 16.5q-27 26 -32 41q-1 4 -3.5 10t-6 12t-7.5 10t-8 4q-5 0 -17 27
q-10 28 -13 28q-2 0 -10 32q-6 34 -12 34q-7 0 -9 59q-3 44 0 67q1 24 9 54q4 13 8 26.5t7 26.5q8 38 26.5 69.5t44.5 57.5q13 14 26.5 30t27.5 19q4 1 22 22q8 11 13.5 15.5t10.5 6.5q5 1 12 5t17 10q21 12 33 12q7 0 44 14q0 -1 71 -1q7 0 17.5 -4t21.5 -8.5t20.5 -8.5
t14.5 -4q17 -2 37 -16t31 -29q1 -7 35 -27q28 -16 28 -33q0 -3 4.5 -8t10.5 -11t10.5 -12t4.5 -10t11 -28q6 -11 11.5 -16.5t8.5 -9.5q10 -8 19 -71q0 -5 3.5 -13t3.5 -13zM534 294q0 8 -1.5 22.5t-1.5 20.5q-2 13 -1 21t2 13q4 8 -1.5 21.5t-4.5 21.5q3 9 3 21q0 7 -1 18.5
t-2.5 24t-2.5 24t-1 18.5t-2.5 17t-6 20t-6 18.5t-2.5 12.5q-2 7 -5 15t-6 19q-9 27 -19 27q-2 4 -4.5 7.5t-4.5 6.5q-4 5 -8 9.5t-6 4.5q-3 0 -18 12q-14 16 -27.5 17.5t-23.5 7.5q-5 0 -13 1t-16.5 2t-16 2t-11.5 1q-10 3 -44 -5q-37 -6 -37 -13q0 -6 -34 -22
q-33 -17 -33 -28l-16 -40q-17 -37 -17 -43q0 -1 1 -1q-3 0 -7.5 -12t-7.5 -36q-4 -20 -5 -32.5t-1 -18.5v-18q0 -11 -0.5 -27t-1.5 -39q-2 -74 0 -74q-1 -1 -1 -9q0 -11 1 -27.5t5 -40.5q3 -23 6 -37t4 -19q5 -15 13 -37.5t20 -52.5q5 -10 7 -16q4 -3 7.5 -6t8.5 -4
q11 -3 11 12q0 28 -3 28q2 5 4 9t3 9q4 9 5.5 14t3 8t3.5 6.5t7 9.5q5 8 10 12.5t8 6.5q41 23 76 23q19 0 30 -11q11 -8 21 -17t21 -17q13 -10 20 -21t11 -22q10 -54 33 -54q3 0 5.5 2.5l5.5 5.5l14 20q0 2 9 23q12 23 13 23t3 6.5t3.5 14.5t2.5 15.5t1 9.5q2 8 4 23t7 36
q4 19 6 32.5t2 24.5zM362 52q4 0 4 8q0 11 -5.5 33.5t-15.5 54.5q-8 24 -36 24q-18 0 -38 -12.5t-28 -27.5q-9 -27 -9 -57q0 -13 4 -13q5 0 20 -25q16 -25 24 -25q9 0 23 -4.5t20 -4.5q7 0 21 8q2 2 5 8.5t5.5 13.5t4 13z" />
    <glyph glyph-name="R" unicode="R" horiz-adv-x="718" 
d="M726 206q3 -17 0 -48q-2 -10 -3 -20t-3 -21q-1 -4 -3.5 -12l-5 -16t-5.5 -14t-6 -6q-4 0 -23 -24l-16.5 -21t-6.5 -9q-6 -9 -36 -12q-48 -1 -70 3q-5 2 -12.5 5.5t-18.5 8.5q-21 5 -34 35q-6 13 -8.5 25.5t-3.5 24.5l-4 18q-2 7 -3 13.5t-1 9.5q0 5 3 5v74
q-8 43 -12.5 65.5t-5.5 26.5q-19 50 -66 55q-5 2 -17.5 3t-32.5 5q-15 2 -26.5 3.5t-22.5 1.5q-35 0 -41 -20q-8 -17 -5 -56q1 -17 0.5 -37t-2.5 -43q8 -60 5 -64q-5 -59 3 -83q2 -5 7.5 -10.5t12.5 -11t12.5 -10t7.5 -7.5q2 -5 28 -8q16 -1 46 0q4 1 7.5 1h6.5q7 0 10 1
t8 1q17 0 17 -16q0 -25 -54 -17q-30 2 -41 0q-25 -5 -51 -5q-9 0 -25.5 1t-39.5 2q-39 3 -61 3q-4 -1 -18 -2t-41 -2q-35 -3 -57 0q-3 0 -7.5 2.5t-9.5 6t-8.5 7t-3.5 5.5q0 4 8 6q14 2 24 3.5t17 2.5q4 1 7.5 1t6.5 1q8 0 8.5 -4t5.5 -4q14 0 49 26q20 15 17 39
q-1 128 -6 341q-2 165 2 165q2 0 0 26q-1 8 -2 13.5t-2 9.5q-1 3 -1 8q0 6 -7.5 16.5t-7.5 15.5q0 3 -6.5 6t-14.5 5q-5 2 -10.5 3t-10.5 2q0 -4 -35 -2q-35 3 -40 8q-13 10 -13 18q0 15 50 20q8 1 15 1.5t14 0.5h14t15 1q13 3 36 0q15 -1 24 -2t11 -1h89q11 0 31.5 2.5
t34.5 2.5q13 -1 22 -1.5t14 -0.5h10q11 0 23.5 -1t29.5 -3q39 -5 51 -6q11 -4 28.5 -8t41.5 -9q49 -11 86 -51q39 -39 47 -89q2 -21 -3.5 -43t-16 -42t-26 -36.5t-34.5 -25.5q-12 -5 -27 -12q0 -2 -5 -3t-11.5 -1.5t-12.5 -2t-7 -2.5q-1 -3 -44 -11q-40 -6 -40 -14
q0 -4 28 -20q30 -14 32 -17q16 -11 27 -21q20 -17 20 -25t12 -26q7 -9 9.5 -15t4 -10.5t2.5 -9t4 -11.5q7 -15 8 -25.5t4 -22.5q0 -7 1.5 -18.5t4 -23.5t4 -23.5t1.5 -18.5q0 -29 15 -36q28 -11 31 -11q7 0 9 5q10 7 25 25q8 17 13.5 32t8.5 26v66q1 22 10 22q14 0 14 -28z
M469 440q31 24 48 68q7 20 5 50t-3 43t-1 10q0 17 -23 46q-20 29 -37 29q-40 25 -40 20q0 3 -50 3q-6 0 -25 1.5t-32 1.5q-61 0 -76 -35q-5 -12 -3 -80q3 -59 3 -80q0 -56 2 -62q-3 -11 1 -27q12 -19 56 -19q12 0 77 6q66 7 66 9q0 1 5 3.5l11 5.5q6 4 16 7z" />
    <glyph glyph-name="S" unicode="S" horiz-adv-x="569" 
d="M483 785q3 9 15 9q24 1 24 -34q0 -21 -1.5 -54t-3.5 -81t-3.5 -82t-1.5 -58q0 -23 -14 -23q-17 0 -20 23l-9 35q-3 0 -15 34q-7 22 -14 38q-8 12 -19 29.5t-24 40.5q-2 5 -10 11.5t-21 17.5q-26 21 -37 21q-4 0 -11.5 4.5t-16 10.5t-16 10.5t-11.5 4.5q1 0 -6.5 1
t-22.5 5q-30 6 -47 6q-12 0 -12 -5q0 1 -5 -0.5t-11 -3.5t-11.5 -3.5t-6.5 -1.5q-13 0 -21 -10t-16 -19q-35 -30 -35 -51q0 -54 15 -88q1 -3 4.5 -8.5t8 -11.5t9.5 -10.5t8 -4.5t8.5 -5t12.5 -10.5t13 -10.5t9 -5q26 0 83 -28q62 -29 83 -30q6 -2 18 -5t30 -11
q35 -11 35 -20q0 -5 31 -17q32 -9 32 -17q5 -3 11.5 -7.5t14.5 -10.5q11 -8 21 -21.5t18 -33.5q10 -23 15.5 -41.5t5.5 -31.5q0 -78 -28 -134q0 -2 -3 -6t-7 -8.5t-8 -8t-5 -3.5t-6.5 -10t-5.5 -11q-6 -4 -13 -8.5t-16 -10.5q-15 -8 -31 -15t-31 -15q0 -10 -46 -11h-25
q-5 0 -11 -0.5t-13 -1.5q-5 0 -14.5 1.5t-24.5 3.5q-34 4 -36 11q-3 6 -27 18q-11 6 -19.5 8.5t-13.5 3.5q-16 3 -44 25q-14 13 -22.5 20t-13.5 9t-8.5 3.5t-7.5 1.5q-9 0 -24 -17q-13 -13 -17 -25q-3 -18 -14 -47q-20 -14 -26 -14q-11 0 -10 64q0 6 1 17t2 28q2 17 3 28.5
t1 19.5q0 13 -1.5 22.5t-3.5 17.5q-2 5 -3.5 18t0.5 34q1 8 1 18.5v22.5v59q0 6 7.5 11.5t12.5 5.5q4 0 4 -3q0 -4 6 -14q3 -4 4 -5.5t2 -4.5t3 -8.5l6 -16.5q8 -20 11.5 -33.5t3.5 -19.5q0 -2 3 -9.5t7 -16.5t8.5 -16.5t6.5 -9.5q3 -2 7 -10t8.5 -17.5t9.5 -18t10 -11.5
q4 -5 8.5 -11.5t11.5 -14.5l14 -10.5t9 -8.5q23 -29 79 -50q59 -25 106 -25q5 1 11 1.5t11 0.5h12t11 1q3 0 10.5 3t15.5 7t14.5 8.5t6.5 6.5q0 4 13 18q7 7 10.5 10t5.5 5.5t3.5 5t3.5 10.5q2 17 7 17q-2 0 4 21q2 11 3 17.5t1 7.5q-4 8 -7 18.5t-7 23.5q-3 17 -18.5 36
t-30.5 24q-2 0 -8 3.5t-12 7.5t-10.5 8t-4.5 5q0 3 -19 9q-15 7 -18 10q-2 1 -10.5 5t-25.5 10q-34 14 -40 14t-16.5 4t-22 9t-22 9t-16.5 4q-29 3 -32 12q0 2 -5.5 5.5t-12 6.5t-13 5.5t-9.5 2.5t-38 19q-33 21 -33 24q0 7 -13 17q-15 14 -16 19q-3 6 -8.5 15.5t-12.5 22.5
q-16 45 -8 103q8 60 17 65l6 6t10 11t9 11t4 6q6 6 13 14t16 20q1 2 6.5 5t12 6t12 5.5t5.5 3.5q0 2 5.5 5t12.5 6.5t13.5 6.5t9.5 5q30 9 88 3q5 0 18.5 -4t18.5 -4q3 0 10.5 -1.5t15 -3.5t13 -4.5t5.5 -4.5q30 -15 27 -15q3 0 10 -4t13.5 -9t12.5 -9.5t8 -6.5
q2 -1 6.5 -5.5l10 -10t11.5 -10t11 -4.5q21 -1 30 14q2 2 3.5 5.5t3.5 8.5q-2 0 4 39q2 3 5.5 7.5t8.5 12.5z" />
    <glyph glyph-name="T" unicode="T" horiz-adv-x="666" 
d="M671 771q-3 0 -3 -165q0 -5 1 -24t3 -54q2 -25 1 -45t-2 -35q-3 -16 -20 -16q-13 0 -20 6.5t-13 29.5q3 10 0 34q-1 10 -3.5 22.5t-8.5 29.5q-3 5 -5.5 11.5t-3.5 17.5q-4 27 -6 29q-5 16 -15 32t-20.5 29t-20 22.5t-13.5 12.5q-23 19 -42 21q-3 0 -28 6q-18 3 -29 2
q-6 -2 -8 -2h-9q-3 -3 -6 -13q-4 -12 -5 -27t-3 -33q-5 -72 0 -162q-1 -26 -0.5 -66t2.5 -94q1 -13 0.5 -34.5t-2.5 -53.5q-1 -29 -0.5 -50.5t2.5 -36.5q5 -29 8 -45.5t4 -21.5q12 -32 51 -32l37 -4q31 -3 31 0q0 4 21 1q19 -1 26.5 -3.5t7.5 -17.5q3 -15 -5 -20
q-11 -8 -30 -8q-6 0 -17 1l-22 2t-21.5 2t-15.5 1q-23 4 -69 0q-6 -1 -16 -0.5t-20.5 2t-20 2.5t-14.5 1q-12 -1 -27 -1.5t-32 -0.5h-82q-6 0 -45 -3q-10 0 -17 3q-6 2 -11 5.5t-4 8.5q0 4 4 8t9.5 7t9.5 4t4 -1q0 35 71 5q3 5 20 5q21 -3 23 0q8 3 12.5 11t9.5 12q5 2 8 27
q1 27 6 27q-2 0 -6 33q-5 36 -2 39q2 29 1 52t-3 42q2 14 0.5 33t-3.5 44q-4 9 -1 37q1 16 2 26t1 14q-1 8 -1.5 18.5t-0.5 23.5v62v9q0 5 0.5 14.5t1.5 22.5q1 23 2 40.5t-1 30.5q-1 37 -6 37q-1 0 -12 8q-8 7 -12 7q-34 0 -50 -3q-3 0 -10.5 -4.5t-9.5 -4.5q-32 0 -86 -75
q-27 -39 -27 -77q0 -7 -3 -18t-7 -22.5t-7 -22t-3 -17.5v-18q0 -5 -0.5 -11t-1.5 -13q-2 -18 -26 -18q-20 0 -20 38q0 8 1 22t5 34q2 17 3.5 30t-0.5 23q-1 13 -3 55.5t-5 115.5q-1 37 62 37h15h10t12 -1h43q13 0 28.5 -0.5t33.5 -1.5q19 -2 72 3q26 2 45 2.5t32 -0.5
q5 -2 28.5 -1t68.5 2h9h11q10 0 15 -1q27 -3 32 3q5 2 22 0q5 -1 9 -1.5t6 -0.5h6q13 1 22 1.5t15 0.5h14h28q14 0 21 -3.5t13 -16.5z" />
    <glyph glyph-name="U" unicode="U" horiz-adv-x="748" 
d="M592 63q-8 -5 -26.5 -16.5t-47.5 -31.5q0 -10 -41 -15q-10 -2 -17.5 -3t-12.5 -2q-4 -1 -10 -1q0 -5 -19 -5q-18 0 -63 6q-20 2 -30.5 3.5t-9.5 1.5q-7 0 -17.5 4.5t-21.5 9.5t-21.5 9.5t-16.5 4.5q-28 0 -67 61q-39 63 -39 99q0 7 -1 12q-1 4 -1 14v10t-1 11
q-1 25 -2 42t-1 28q0 17 2 17l1 149q0 54 -3 158q-1 19 -2 31.5t-2 19.5q-8 25 -24 45q-4 6 -41 9q-5 1 -8.5 1h-7.5h-12h-9q-2 0 -4 1t-5 2t-8 2q-15 6 -16.5 11.5t-1.5 11.5q0 24 27 26h154q11 1 25.5 1.5t31.5 0.5h38t44 1q3 0 10 1t20 2q22 3 31 2q13 -4 18.5 -5.5
t10.5 -9.5q8 -18 5 -25q0 -2 -6 -9t-6 -11t-48 -2q-26 2 -41 1t-19 -2q-17 -6 -27 -26t-11 -56q1 -51 0.5 -124.5t-2.5 -173.5q-9 -98 3 -165q12 -66 17 -66q6 0 40 -49q21 -30 103 -42q22 -2 54 0q15 0 43 11q15 6 25 11.5t13 11.5q11 13 20 23.5t17 18.5q18 18 25 70
q3 28 3 73v71q1 15 1.5 33.5t0.5 41.5v105v49v31t1 36q2 13 0.5 26t-4.5 27q-11 34 -27 44q-4 2 -13 5.5t-24 8.5q-15 6 -26 8.5t-17 2.5t-6 -3q0 -7 -31 18q-3 4 -5 6.5t-2 6.5q0 9 12 16t22 7q-7 0 73 3q64 1 64 0h53h62q8 0 23 -2.5t23 -2.5q19 0 19 -26q0 -11 -7 -15
q-10 -7 -57 -10q0 2 -18 -4q-5 -2 -10 -3.5t-10 -4.5t-11.5 -10.5t-14.5 -21.5q-5 -14 -10 -22q-1 -2 -2 -3.5t-2 -3.5q-5 0 -8 -128v-25q0 -11 0.5 -28t1.5 -39v-137q0 -73 -2 -73l-7 -80q0 -5 -5.5 -14.5t-7.5 -12.5q0 -2 -9 -14q-4 -6 -5.5 -9t-2.5 -6t-3 -7.5t-7 -13.5
q-12 -15 -13 -15z" />
    <glyph glyph-name="V" unicode="V" horiz-adv-x="757" 
d="M789 748q2 0 -1 -3.5t-9 -8t-12.5 -8.5t-11.5 -6q-31 -10 -50 -18t-27 -13q-1 -3 -4 -4.5t-7.5 -5.5t-11 -11t-15.5 -21q-17 -26 -17 -38q0 -1 -14 -34q-5 -15 -9.5 -22t-5.5 -7q-4 0 -17 -40q-6 -20 -9 -31.5t-5 -14.5q0 -4 -3.5 -13t-8.5 -24q-12 -31 -14 -31
q-6 0 -15 -34q-8 -32 -13 -32q-6 0 -21 -60q-4 -6 -6.5 -12t-6.5 -11q-9 -20 -7 -20q-10 0 -28 -85q-17 -68 -26 -72q-9 -5 -16 -36q-6 -31 -16 -37.5t-19 -6.5q-13 0 -25 18q-1 2 -3 10t-6 21q-6 28 -9 28q-7 0 -14 37q-6 36 -12 36q-4 0 -8 19q-2 9 -2.5 14.5t-1.5 9.5
t-2.5 7.5t-5.5 9.5q-8 14 -8 19q0 8 -2 17.5t-6 22.5q4 0 -20 37q0 9 -4 21t-9 24.5t-9 24t-4 19.5l-4 6l-4 6q-3 5 -6.5 11t-5.5 12q-3 6 -8.5 24t-11.5 47q-1 17 -9 31q-6 11 -9 18.5t-5 10.5q-23 67 -23 83q0 20 -14 40q-7 8 -13.5 17t-13.5 17q-8 10 -63 14
q-47 5 -39 31q7 29 48 34q4 1 69 0q17 0 40 -1t52 -2q26 2 76 0q17 -6 46 -2q34 3 44 3q22 -1 22 -31q0 -16 -11 -21q-8 -4 -25.5 -5t-45.5 -1q-46 0 -46 6q-2 -5 -4.5 -10t-4.5 -10q-1 -1 -1 -7q0 -2 -0.5 -6.5t-1.5 -9.5q-3 -22 2 -22t18 -43q8 -21 11.5 -34.5t5.5 -19.5
q2 -8 5.5 -20t8.5 -29q3 -6 6.5 -14t8.5 -20q0 -8 2.5 -21.5t8.5 -30.5l8 -26q6 -26 10 -26q11 0 20 -65q4 -5 8 -13t9 -19q2 -13 4 -28.5t10 -21.5q2 -3 4 -7.5t7 -10.5q5 -5 14 -5q17 0 17 17q0 -2 3 8.5t11 34.5q24 55 24 65q0 5 4 13t5 12q5 29 7 35q6 18 24 25
q2 0 3 6.5t2 14t1.5 14t1.5 6.5q-2 0 0 5t5 12t6.5 13t5.5 9q11 11 14 49q0 3 2.5 9.5t5.5 13.5t6.5 12.5t5.5 5.5q4 0 4 39q0 18 -0.5 28t-2 15.5t-4.5 8.5l-8 8q-4 5 -6 9t-4.5 7t-7 5t-13.5 2q0 2 -31 8q-19 2 -35 6q-8 3 -14 14.5t-6 20.5t9 9q2 0 12.5 5t16.5 5
q4 1 9 1h10h29q4 0 12 1t22 2q24 3 35 0h34h22.5t25.5 -1q5 -1 13.5 -0.5t17.5 1.5t17 2t13 1q13 0 21 -3t21 -8q4 -1 9 -11.5t5 -15.5q0 -3 -2 -3z" />
    <glyph glyph-name="W" unicode="W" horiz-adv-x="1072" 
d="M337 740q-4 0 -17.5 -5.5t-21.5 -5.5q-1 0 -8 2.5t-8 2.5q-36 0 -44 -32q-5 -19 11 -48q16 -31 16 -43q1 -24 24 -77q11 -26 17 -44.5t8 -31.5q0 -8 24 -92q25 -81 28 -81q4 0 11 -28q8 -26 18 -26q20 -3 27 40q6 43 10 43t11 34q1 3 4.5 8.5t7.5 12t7 12.5t3 8q0 4 1 13
t5 26q-3 0 14 41q0 2 3.5 8.5t5.5 10.5q1 5 2 12.5t2 17.5q0 27 10 34q4 3 10 37q5 0 5 8q0 5 -2.5 14t-5.5 19q-5 10 -9 24q0 11 -5 24t-13 24t-18.5 18.5t-20.5 8.5q-22 -1 -58 3q-4 2 -12 13t-8 17q0 1 1 1q2 4 3.5 8t5.5 7t11.5 5t21.5 2q45 1 87 2t84 -1q8 -1 16 -1h17
h42h37q25 -3 28 -20q3 -20 -5 -28.5t-28 -8.5q-41 2 -49 0q-28 -7 -28 -33q0 -18 6 -36.5t11 -18.5q21 -85 26 -85q2 0 11 -35q4 -11 6.5 -21.5t6.5 -21.5q1 -8 3 -15.5t4 -15.5q8 -29 11 -29q5 0 9 -25q7 -25 11 -27q6 -3 15 -40q10 -39 14 -39q4 -8 7 -17.5t7 -20.5
q7 -16 11 -16q2 0 4.5 4t5 8.5t4.5 8.5t3 4t18 72q4 17 9.5 40.5t12.5 55.5q1 3 3.5 11t8.5 21q9 21 9 34q0 9 17 55q10 22 14.5 36.5t4.5 20.5v12v10t1 12q3 21 0 35q-2 21 -24 37q-10 10 -30 14q0 4 -41 6q-40 4 -40 31q0 5 3 17q1 13 81 11q17 2 39 2.5t51 -1.5
q2 -1 12 -1q5 0 11.5 -0.5t14.5 -1.5q32 -2 32 2l67 -3q35 -5 35 -33q0 -9 -8 -17q-9 -13 -23 -13h-29q-43 -3 -62 -40q-8 -11 -16 -28t-19 -42q-1 -5 -3.5 -13t-5.5 -19q-5 0 -17 -37q-6 -19 -10 -28.5t-5 -11.5q-2 -2 -8 -37q-7 -34 -9 -34q-3 0 -17 -44q-7 -23 -10 -37.5
t-4 -19.5q-2 -15 -9 -38t-19 -53q-11 -31 -17.5 -54t-8.5 -38q-3 -17 -18 -51q-14 -33 -14 -54q0 -11 -17 -37q-17 -24 -29 -24q-13 0 -25 38q-4 13 -6.5 25.5t-5.5 25.5q-16 45 -25 98q0 2 -6.5 19.5t-19.5 53.5q-26 66 -20 66q-4 0 -16 37q-10 36 -10 44q0 7 -3.5 17.5
t-7.5 22t-7.5 22t-3.5 17.5t-2.5 16.5t-6.5 18t-9 14.5t-10 6q-14 0 -18 -43q-2 -13 -7 -32t-16 -43q-11 -25 -16.5 -42.5t-6.5 -30.5q-2 -11 -8 -33t-17 -56q-5 0 -17 -41q-10 -37 -10 -47q0 -2 -3.5 -13.5t-9.5 -33.5q-10 -43 -9 -43q3 0 -12 -37q-17 -38 -22 -39
q-4 -4 -14 -4q-16 0 -23 30q-6 31 -12 31q2 0 -11 42q-12 40 -12 43q0 15 -16 43q-13 27 -13 43q0 7 -3 16t-7 18.5t-7 18t-3 13.5q0 24 -25 77q-8 20 -14.5 41t-10.5 44q-4 40 -9 40q-6 0 -12 26q-8 26 -3 26q-2 0 -7.5 20.5t-18.5 60.5q-11 27 -15.5 41t-6.5 18
q0 6 -14 26q-11 20 -17 20q-1 0 -10 1.5t-25 3.5q-15 2 -25.5 3t-16.5 1q-7 0 -7 -1q-17 4 -20 7q-21 8 -23 14q-7 25 9 25q26 17 26 12q0 3 85 2q20 -1 36 -1.5t28 -0.5q28 0 33 -1q75 -8 127 1q15 4 27.5 -10t12.5 -28q0 -11 -12 -11z" />
    <glyph glyph-name="X" unicode="X" horiz-adv-x="780" 
d="M403 762q9 -8 9 -14q0 -14 -50 -23q-58 -12 -62 -16q-3 -2 -3 -12q0 -13 15 -35q8 -14 12.5 -23l6.5 -13q1 -3 5.5 -13t14.5 -27q5 -5 12 -17.5t11 -16.5q2 -1 7 -8.5t13 -20.5q17 -26 20 -26t12 -6q10 -6 19 -3q8 1 10.5 5.5t4.5 6.5q9 8 17 20q7 8 10 16q1 3 4 6
q6 6 17 27q0 2 3.5 5.5t7 7.5t6.5 8t3 7q0 5 10 14q11 8 12.5 19.5t1.5 22.5q0 5 0.5 8.5t1.5 7.5q0 17 -17 34q-6 6 -15 9.5t-20 7.5q-14 0 -51 8q-14 6 -14 17q0 4 5 9t12.5 8.5t16 5.5t15.5 1h166q3 0 11 0.5t18.5 1t21.5 1t20 0.5q69 0 69 -30q0 -8 -3 -14
q-22 -8 -47 -15.5t-54 -17.5q-26 -16 -46 -31t-33 -29l-10 -10t-10 -11q-14 -17 -14 -25q-11 -15 -17 -23t-9 -11q-5 -7 -13.5 -17t-21.5 -23q-29 -26 -29 -33q0 -5 -14 -28q-6 0 -6 -11q0 -6 1 -13t5 -18q6 -26 29 -49q29 -29 29 -41q0 -2 2.5 -7t6.5 -10t7.5 -9t5.5 -4
q-11 0 24 -32q0 -6 9 -24t31 -50q9 -5 20 -31q4 -8 8 -16.5t9 -16.5q19 -34 68 -62q12 -7 35 -9q15 -2 24.5 -2.5t11.5 -2.5q21 -5 20 -20q0 -5 -4.5 -8.5t-9.5 -5.5t-9.5 -2.5t-4.5 1.5l-49 3q-48 0 -48 -3q0 7 -135 7q-138 0 -137 -1q-8 8 -8 11q0 8 11.5 12.5t20.5 4.5
h19q5 0 11.5 -0.5t14.5 -1.5q6 0 16 6t13 6q17 0 17 27q0 23 -7 38q-8 8 -15.5 19.5t-18.5 26.5q-32 63 -42 77q-13 22 -24.5 39t-24.5 30q-13 10 -20 10q-15 0 -34 -27q-6 -10 -12.5 -20t-12.5 -21q-20 -30 -23 -32q-15 -8 -23 -25q0 -2 -5.5 -10t-9.5 -13q-3 -3 -3 -7
t-8 -15t-9 -15q-3 -9 -3 -19q0 -6 3 -18q4 -8 5 -13t3 -7q5 -23 30 -29q22 -4 43 -6q10 0 39 -8q8 -3 8 -6q0 -7 -48 -19q-17 -4 -60 -4q-12 1 -21.5 1h-17.5h-23q-75 -6 -130 0h-25q-7 0 -15.5 0.5t-18.5 1.5q-9 0 -16.5 6t-7.5 14t7 12q1 1 48 12q41 12 41 14q0 5 13 8
q6 2 8 3.5t4 4t6.5 6t15.5 9.5l16.5 10.5t9 6t7 6t10.5 9.5q17 17 17 19q0 -4 49 61q2 0 7.5 5t11.5 12t11.5 14t7.5 12t9.5 15.5t20.5 27.5q13 15 36 45q8 14 5 49q-2 7 -20 25q-3 0 -26 35q-11 18 -16.5 28.5t-6.5 13.5q-12 23 -27.5 43t-34.5 48q-5 3 -10.5 15t-9.5 15
q-4 15 -15 30q-2 0 -5.5 5t-7 11t-7 11t-5.5 5q-3 0 -40 37q-5 3 -13 5.5t-19 2.5h-20q-10 -2 -13 -2h-9q-38 0 -38 29q0 31 77 31q31 0 85 -6q27 -2 43 -3.5t21 -1.5q9 0 9 3q155 0 168 -10z" />
    <glyph glyph-name="Y" unicode="Y" horiz-adv-x="718" 
d="M748 732q0 -20 -28 -23q-58 -1 -86 -35q-8 -12 -19.5 -24.5t-26.5 -27.5q-2 -2 -7 -9t-12 -21q-11 -26 -15 -26q-7 0 -19 -28q-5 -12 -8 -19.5t-7 -9.5q-5 -2 -9 -18q-2 -7 -4 -10.5t-4.5 -6t-4.5 -6t-4 -11.5q-5 -14 -6 -14q-7 0 -19 -29q-9 -26 -14 -31
q-15 -8 -26 -30.5t-18 -64.5q-2 -15 -2.5 -34t0.5 -42q3 -71 3 -74q0 -53 2 -53q-2 0 -2 -2t4.5 -7.5t10.5 -11t10.5 -9t4.5 -1.5q0 -9 44 -9q6 1 12 1h11h25q35 -2 35 -23q0 -3 -0.5 -6.5t-3.5 -7t-10.5 -5.5t-22.5 -2q-16 0 -58 3q-4 1 -7.5 1h-6.5q-6 0 -9 1t-8 1
q0 1 -52 0q-53 -3 -53 -1t-64 1q-70 -3 -71 -2q-2 2 -45 2h-2q-2 0 -3.5 0.5t-4.5 0.5q-7 0 -10 8q-3 3 0 6q0 5 7 8q1 34 37 34q32 0 80 -23q30 13 36 43q1 8 1.5 15t0.5 15t0.5 16.5t1.5 16.5q1 29 0.5 65.5t-4.5 81.5q0 4 -3.5 10.5t-8 13t-8 12t-3.5 7.5q-3 18 -11 30
t-26 37q-2 3 -3 8t-3 11t-4 11t-5 7q-5 5 -17 35q-12 31 -17 31t-17 29q-11 29 -14 29q-2 0 -13 29q-12 30 -19 33q-12 6 -26 38q-12 34 -32 39q-5 2 -14.5 2.5t-19.5 0t-19 -1t-13 -0.5q-10 4 -17 6t-8 10q-3 14 0 20q2 6 17 10q4 2 28 2t24 -5t57 0h83q76 0 76 2
q0 -3 41 0q43 1 43 3l9 -9q9 -9 10 -14q1 -8 -7.5 -14t-17.5 -6h-9h-7.5t-9.5 1q-7 1 -12.5 1.5t-10.5 0.5h-16q-49 0 -50 -22q-2 -5 -0.5 -11.5t3.5 -14.5q4 -10 5.5 -15.5t3 -9.5t4 -8t7.5 -10q10 -10 10 -18q0 -5 22 -37q2 0 6 -5.5t7.5 -12.5t6.5 -13.5t3 -8.5
q2 -10 8.5 -22.5t14 -25t14 -24t8.5 -19.5l5 -10t12 -22q13 -25 18 -25t9.5 -2.5t9.5 -2.5q1 2 4 4.5t8 8.5q-2 0 1.5 3.5t9.5 11.5q5 8 8.5 11.5t3.5 2.5q0 13 23 51q13 18 19.5 29.5t8.5 16.5q9 10 23 37q13 35 18.5 61.5t5.5 41.5q0 7 -1 9.5t-3.5 4.5t-6.5 4.5t-9 10.5
q-4 9 -7 12q-2 2 -2 3q-5 5 -14.5 7.5t-20 4t-22 3t-20.5 4.5q0 1 -6 7t-6 11t3.5 9.5t22.5 6.5q25 4 66 3q8 -1 15.5 -1h13.5q16 0 21 -1t9 -1h7q4 0 67 3q17 1 32 2t26 1q0 3 5 3q7 -1 16 -4.5t16 -8t10.5 -9t0.5 -6.5z" />
    <glyph glyph-name="Z" unicode="Z" horiz-adv-x="640" 
d="M600 682q-13 -23 -28 -42.5t-27.5 -33.5t-21 -23t-8.5 -12q0 -6 -10 -15.5t-11 -15.5q-4 -10 -20 -35q-1 -3 -5 -8.5t-9 -11t-9 -9.5t-5 -4q-6 0 -21 -27q-16 -29 -20 -31q-6 -4 -13 -19q-8 -14 -15 -16.5t-17 -16.5q-6 -6 -9 -11.5t-5 -8.5q-5 -8 -9 -15t-8 -15
q-6 0 -24 -26q-6 -8 -11 -16t-11 -16q-11 -15 -26 -36t-37 -49q-34 -37 -35 -44q-12 -12 -25 -40q0 -7 -10 -19.5t-10 -19.5q0 -14 29 -14q8 0 21 1.5t15 1.5q10 0 26 1t33.5 1.5t34 1.5t26.5 1q85 0 109 18q11 6 22.5 15t26.5 22q5 4 10.5 8t11.5 9q2 8 7 14q2 2 10 15.5
t21 38.5q7 0 19 38q6 17 9.5 28t5.5 18.5t3 13t3 11.5q-3 0 3 26q9 28 20 28q3 0 8 -5q12 -18 12 -47q0 -10 -3 -37q-1 -22 0 -34q7 -81 0 -172q-1 -43 -60 -43h-14q-10 0 -15 1q-21 3 -137 3h-55q-17 0 -36 0.5t-41 1.5h-131h-19q-5 0 -12 -0.5t-15 -1.5q-31 -1 -46 0
q-13 0 -23.5 1.5t-20.5 3.5q-10 1 -10 12q0 8 26 46q6 17 28 39q1 1 5 5.5t10 15.5q7 8 10 16q1 3 4 6q12 0 31 31q18 32 26 35q8 5 11.5 17.5t6.5 16.5q21 16 25 37q1 7 8.5 15.5t20.5 19.5q13 12 20.5 21.5t8.5 17.5q1 1 28 40q2 0 6 4.5t8.5 10.5t8 12.5t5.5 10.5t8 12.5
t13 17.5t13 18t7 15q3 12 25 31q21 21 21 29q0 4 5 10t10.5 12t10.5 11.5t5 9.5q8 6 14.5 15.5t19.5 29.5q26 35 26 49q0 19 -66 19q-142 0 -142 -5q0 1 -1 1q-16 0 -77 -40q-8 0 -29 -26q-20 -25 -20 -38q0 -6 -4.5 -17t-9.5 -22.5t-9.5 -22.5t-4.5 -18q0 -2 -2 -13l-6 -33
q-5 -14 -18 -30q-22 -1 -23 17q-9 88 0 174q1 17 2 35.5t2 35.5q4 37 45 37h30h19.5t21.5 1h67h68q42 -2 68 0q8 -1 17 -1h20h51q8 0 24.5 3t25.5 3q4 -1 18 -1q7 0 15 -0.5t18 -1.5q8 -1 15 -1.5t14 -0.5q20 0 31 -2t11 -13q0 -12 -14 -35q-6 -6 -10.5 -12.5t-9.5 -13.5z
" />
    <glyph glyph-name="bracketleft" unicode="[" horiz-adv-x="243" 
d="M254 820l-22 -2l-1 -4q-3 0 -5 -2q-1 0 0 -1l-9 3q-6 -2 -10 -2h-6.5t-9.5 -1l-22 -3h-3l-3 -5h-6l-3 -5l-5 -3v-6h-3l-1 -15h-2v-8h-3v-4l3 -705q-2 -39 14 -46q7 -6 46 -6q19 0 28 -7t20 -15q0 -21 -8 -26h-11q-6 -7 -14 -9q-15 7 -29 7h-27h-5v2q-8 0 -19 2.5t-16 2.5
v-4l-10 -1v-2q-2 -2 -21 2l-6 -2q-6 2 -8 2h-5h-11q-3 0 -13 -2q-5 -1 -9.5 -1h-7.5q-5 0 -9 -2q-2 10 1 23t3 19q0 8 -3 26t-3 26l-5 776h2v12q6 6 11 13t10 15h23h19.5t25.5 1t26.5 1.5t23.5 0.5h36q23 -2 39.5 -2.5t26.5 -2.5l4 -23z" />
    <glyph glyph-name="backslash" unicode="\" horiz-adv-x="715" 
d="M738 63q2 -5 0 -11.5t-6 -17.5q-14 -23 -40 -23q-6 0 -10 4q-13 12 -30.5 29t-42.5 39q-33 45 -70 91.5t-76 97.5q-4 4 -58 70t-162 201q-106 135 -160 202t-55 70q-6 6 -13 14.5t-17 19.5q-2 10 -5.5 21.5t-9.5 26.5l-2 4t-1 4q0 18 35 18q15 0 24.5 -6t28.5 -20
q73 -96 149 -192.5t157 -198.5q73 -90 149.5 -183t161.5 -195q8 -8 16 -15t16 -15q21 -20 21 -35z" />
    <glyph glyph-name="bracketright" unicode="]" horiz-adv-x="288" 
d="M260 46q0 -8 -3 -26t-3 -26q0 -7 3 -20q1 -13 0 -22q-2 1 -8.5 2t-14 1.5l-15 1t-11.5 0.5h-6q-2 0 -8 -2l-6 2q-18 -4 -20 -2v2l-11 1v4q-4 0 -15 -2.5t-19 -2.5v-2h-5h-29q-7 0 -14 -2t-15 -5q-7 2 -14 9h-9q-9 4 -9 26q11 8 20 15t29 7q18 0 30 1t18.5 6.5t9 16
t2.5 28.5v45l1 664h-1v8h-3l-2 15h-1v6l-5 3l-3 5h-8l-1 5h-5l-20 3q-5 0 -26 3l-11 -3l-3 3l-3 4l-20 2l-8 17l4 23q10 2 26 2.5t38 2.5h36q11 0 23.5 -0.5t26.5 -1.5t26 -1h20h24q5 -8 10 -15t10 -13v-12h3v-8z" />
    <glyph glyph-name="asciicircum" unicode="^" horiz-adv-x="548" 
d="M586 997q0 -13 -7.5 -25t-16.5 -12q-2 0 -3.5 1t-3.5 2q-15 4 -35.5 12.5t-48.5 22.5q-17 20 -36.5 40.5t-42.5 43.5q-32 24 -72 60q-4 3 -7.5 7.5t-9.5 10.5q-8 -9 -16 -19.5t-19 -22.5q-38 -44 -63 -66l-42.5 -51t-47.5 -56q-8 -11 -15.5 -21t-17.5 -10q-13 0 -25 7.5
t-12 15.5q0 1 0.5 3t2.5 3q1 14 12 40q9 8 23 26q2 2 11.5 14t28.5 34q37 43 43 49q13 17 28 35t32 39q6 6 15 13.5t21 18.5q1 18 18 30q4 1 9.5 2t13.5 2q13 0 26 -15t26 -28q29 -20 80 -61q55 -51 120 -111q10 -8 20.5 -15.5t10.5 -18.5z" />
    <glyph glyph-name="underscore" unicode="_" horiz-adv-x="375" 
d="M354 51q0 -6 -1 -14.5t-4 -16t-7.5 -13t-10.5 -5.5h-17q-13 0 -33.5 -0.5t-49.5 -1.5h-46h-47q-45 0 -43 -2q-10 2 -19 2q-5 0 -11 0.5t-13 1.5q-17 12 -46 23q-11 2 -11 12q0 13 12 27t25 14q6 0 17 3.5t17 3.5q8 0 25.5 -2.5t26.5 -2.5q5 0 21.5 1t45.5 2
q13 1 23.5 1.5t18.5 0.5h25h11h8.5t10.5 1q19 3 30 0q17 -1 24.5 -8t17.5 -27z" />
    <glyph glyph-name="grave" unicode="`" horiz-adv-x="418" 
d="M448 606q-14 -24 -39 -24q-23 0 -47.5 11.5t-49.5 20.5l-1 9q-3 4 -11 -1q-4 1 -11 7q-5 7 -111 51l-4 9q-21 11 -39 18t-33 13l-8 8q-17 0 -52 29q-36 29 -44 46q-1 2 -4.5 12.5t-8.5 30.5q6 10 18 45q8 18 42 43q19 1 30 9q11 -4 25 -8t31 -9q4 3 9 3q11 0 32 -32
l22 -8q8 -8 12 -17l12 -9l7 -14l13 -3q11 -11 23 -26t27 -35q10 -7 15 -19q13 -11 30 -27t39 -41q50 -53 60 -73q9 -7 16 -19z" />
    <glyph glyph-name="a" unicode="a" horiz-adv-x="462" 
d="M465 125q3 0 -3 -39q-7 -39 -11 -43l-22 -22t-17 -15q-5 -6 -19 -7.5t-35 -0.5q-9 1 -20.5 6.5t-22 14t-19 18.5t-11.5 20q-2 1 -2.5 2t-2.5 1q-5 0 -11 -3t-12 -7t-10 -8.5t-4 -7.5q0 -6 -21 -12q-11 -5 -15 -6q-2 -1 -3 -1t-2 -1q0 -11 -40 -12q-39 -3 -39 -5
q0 -3 -5 -3t-17.5 5.5t-29.5 15.5q-34 23 -29 23q-10 0 -22 25q-12 26 -15 26q-2 0 -5 26q0 27 5 27q7 0 13 32q3 7 9.5 15.5t15 16.5t17 14t15.5 8q10 3 26.5 13t27.5 11q8 4 14 6.5t9 6.5q40 5 59.5 7.5t20.5 2.5q2 0 9.5 5t12.5 5q24 0 29 30v47q0 8 -7 18t-8 15
q0 5 -13 19q-6 7 -7.5 11.5t-4.5 7.5t-9.5 4t-21.5 1q8 0 -8 -1t-58 -3q-21 -3 -21 -14q0 -4 4 -12t9.5 -16t9.5 -15.5t4 -10.5q6 -23 2.5 -37.5t-11 -23t-17 -12.5t-15.5 -7q-1 -1 -11 -1q-9 0 -19 3t-18.5 8.5t-14 12t-5.5 13.5q0 3 -5.5 13.5t-6.5 13.5q1 -3 1 43
q0 5 6.5 14t6.5 14q0 14 29 31q32 17 46 17q8 0 25.5 3.5t25.5 3.5h6h13t19 -1q27 -2 50 -6t43 -11q55 -21 55 -60q0 -3 2 -9t4 -12.5l4 -13t2 -10.5q3 -44 3 -66q2 -51 0.5 -93t-3.5 -78q0 -8 2.5 -17t6.5 -16.5t9.5 -13t12.5 -5.5q2 0 4.5 1t6.5 2q13 6 16 20.5t7 28.5v5
q0 3 -2 9q-1 10 5 13t9 3q8 0 11.5 -10t7.5 -10zM286 217q0 38 -26 38q-6 0 -23 -5.5t-46 -18.5q-70 -30 -79 -99q-6 -47 34 -78q12 -9 22 -9q5 0 13 2.5t16 6t15 7t10 4.5q7 2 15 10t15 19t12.5 22.5t6.5 20.5q9 19 11.5 39.5t3.5 40.5z" />
    <glyph glyph-name="b" unicode="b" horiz-adv-x="457" 
d="M462 254q4 0 1 -45q-1 -46 -5 -46q-2 0 -9 -25q-5 -23 -6 -23q-2 -3 -4 -6.5t-4 -8.5q-5 -8 -11 -18.5t-15 -24.5q-3 -4 -8.5 -9t-12 -9.5t-12 -9.5t-8.5 -9q-2 -3 -8.5 -7.5t-14.5 -8.5t-15.5 -7t-11.5 -3q-69 -9 -86 -9q-33 11 -43 18q-13 8 -23 16t-15 15
q-5 3 -9.5 13t-9.5 10t-12 -6q-5 -10 -8 -17.5t-4 -15.5q-8 -24 -25 -24q-26 0 -26 35q0 7 0.5 18t1 22.5t1 22t0.5 16.5q0 4 1 11.5t1.5 15.5t1 15.5t-0.5 12.5q-1 21 -0.5 55.5t2.5 83.5v189q0 4 0.5 14t1.5 21.5t1.5 22.5t0.5 19q0 22 -5.5 37.5t-13.5 25t-17.5 14
t-18.5 4.5q-15 2 -29 10.5t-14 18.5q0 5 1 10t8.5 9t24 6.5t46.5 2.5q5 1 10.5 1.5t12.5 0.5h34q0 -3 34 -2l15 -26q1 -9 0.5 -22t-2.5 -30q-9 -107 0 -179q4 -43 20 -37q37 23 51 37q20 11 79 11q3 0 12 -2.5t23 -8.5q29 -9 29 -15q0 1 6 -5t17 -21q24 -28 22 -28
q12 0 29 -57q4 -9 6.5 -18.5t5.5 -18.5q12 -32 7 -32zM366 220q-6 73 -11.5 113t-11.5 45q-20 20 -34 29.5t-23 10.5q-31 5 -59 -8t-41 -41q-27 -55 -29 -91q0 -5 -1 -18.5t-2 -33.5q-1 -8 -1.5 -15.5t-0.5 -14.5v-24q0 -58 8 -63q11 -15 18 -31q6 -9 10.5 -15.5t8.5 -10.5
q11 -8 19.5 -13t14.5 -7q4 -4 32 -4q28 -3 28 3q34 24 40 24q13 7 24 87q3 20 5 34.5t4 24.5q1 5 1.5 10t0.5 9z" />
    <glyph glyph-name="c" unicode="c" horiz-adv-x="398" 
d="M348 422q5 -2 20 -33q4 -8 6 -13t4 -9q1 -2 2 -3.5t2 -3.5q7 0 7 -12t-9 -42q-4 -15 -6 -22t-2 -9q0 -6 -5.5 -12t-14.5 -10.5t-19.5 -7.5t-20.5 -3q-14 0 -23 6.5t-14 15.5t-8 19.5t-5 19.5q1 6 4.5 15t8.5 20q3 3 8 7.5t10 10t9 11t4 10.5q-2 38 -58 45q-40 0 -59 -16
q-65 -50 -71 -166q-5 -114 7 -114l16 -30t19 -30q11 -18 33.5 -24t44.5 -11q10 -3 27 0q17 4 24 4q4 0 10 4t11.5 8.5t10.5 8.5t8 4q9 0 20 26q7 13 10 21t4.5 13.5t2 9t2.5 8.5q4 9 4 19q0 15 11 15q8 0 14.5 -9t2.5 -23q-4 -17 -6.5 -29t-4.5 -20q-9 -32 -21 -40
q-5 -1 -30 -28q-20 -23 -38 -23q4 0 -51 -9q-1 -1 -47 3q-36 1 -36 9q-48 19 -44 19q-8 0 -30 24l-32 32l-3 4t-6.5 9t-6 10t-2.5 7q-6 10 -10 35q0 1 -2 7q-2 4 -3.5 9t-3.5 13q-8 34 -8 39q0 4 2 4q4 0 1 34q0 36 4 36t10 26q2 8 11.5 23t25.5 37l9 14q9 12 11 12
q-1 0 28 20q0 2 18 14q11 5 15.5 8t6.5 3q5 0 32 13q9 3 49 3q54 0 110 -36z" />
    <glyph glyph-name="d" unicode="d" horiz-adv-x="482" 
d="M491 29q14 3 14 -18q0 -11 -5 -16q-9 -3 -16 -5t-12 -2q-4 0 -14 -1t-22 -2l-24 -2t-20 -1q-54 0 -54 26v10q2 6 2 7v6q0 20 -17 20q-5 0 -10.5 -9.5t-10.5 -15.5q-35 -42 -70 -44q-22 -2 -36.5 -3t-21.5 1q-4 0 -14 3t-15 3q-15 0 -40 16q-26 16 -33 27q-22 40 -32 40
q-2 0 -5 4.5t-5.5 10t-5 10t-4.5 4.5q-6 4 -9.5 18t-7.5 38q-1 9 -2 21.5t-3 27.5q-2 86 11 86q2 0 4.5 5.5t4.5 12.5q4 9 5 18l9 13q5 7 8 11t5 7t5.5 7t9.5 11q7 12 15 17l19 18q14 13 20 13q10 5 17 9t9 4q11 4 20 7.5t18 5.5q0 1 50 -2q21 -4 30 -8q5 -1 11 -6.5
t11.5 -12t10 -11.5t7.5 -5q13 -19 14.5 -28t9.5 -9t17.5 9t9.5 14q0 1 -1 0.5t-2.5 2t-2.5 10t-1 23.5q-1 5 -1.5 12t-0.5 15v36q1 10 1.5 17.5t0.5 12.5v11q-3 64 -19 100q-4 13 -23 16h-29h-37q-27 2 -29 13q-2 6 -2 11q0 19 28 20h44q25 2 44 2.5t32 -0.5t22 -1h15
q20 0 26 -2.5t14 -13.5q5 -15 6 -27t0 -22q-5 -30 -6 -42q-9 -300 -3 -300q1 -60 0.5 -99t-2.5 -58q-1 -37 11 -68q17 -35 57 -29zM345 200l-6 27q-3 14 -7 34t-9 47q-4 11 -6.5 17.5t-4.5 11.5q0 5 -6 14.5t-6 14.5q0 14 -32 31q-23 11 -38.5 17t-26.5 4q-48 -6 -48 -15
q-8 -11 -13.5 -19t-9.5 -13q-13 -8 -20 -62.5t-7 -137.5q0 -135 67 -148q15 -4 27.5 -5t20.5 -1q27 0 38 14q10 8 17 13t13 8q5 8 9 14t8 11q6 4 23 63q15 60 17 60z" />
    <glyph glyph-name="e" unicode="e" horiz-adv-x="394" 
d="M312 411q21 -11 36 -39t24.5 -58t13 -53t2.5 -23q0 -29 -23 -29q-82 -1 -82 2q-141 6 -149 6q-37 -3 -37 -51q0 -41 25 -84q12 -23 26 -34.5t29 -15.5q57 -9 60 -9q6 0 6 2q9 4 16 5.5t13.5 3t14.5 5t19 12.5q16 14 22.5 27t10 24t7 19t14.5 13q15 4 15 -9q0 -5 -1 -12
t-3 -14l-2 -8t-3 -9q0 -12 -41 -56q-41 -41 -111 -41q-30 0 -69 9q-5 1 -14.5 6t-24.5 14q-29 17 -29 24t-20 24q-19 20 -20 26l-8.5 17t-10.5 17q-3 10 -5.5 19t-4.5 17q-2 0 -5 31q-1 17 -2 27t-1 13q0 12 2 26t6 31q6 41 17 46q4 2 9 9t9.5 15t8 15.5t5.5 10.5
q13 12 19.5 19.5t8.5 9.5q2 4 32 20q31 16 31 20q0 6 43 7q43 3 43 -1q0 -3 20 -9q5 -2 9.5 -3.5t10.5 -2.5q13 -11 23 -18.5t15 -12.5zM291 303q0 41 -14 74q-18 43 -55 43q-44 0 -62 -6q-10 -7 -16.5 -11t-11 -8.5t-8 -10t-6.5 -15.5q-6 -21 -6 -31q0 -5 -2 -14.5t-4 -20
t-3.5 -21t-0.5 -17.5q2 -36 29 -27q5 0 17 -3q13 -1 18.5 2t16.5 3q4 0 11.5 -1t15.5 -1.5t15.5 -1.5t11.5 -1q20 0 29 10q25 25 25 58z" />
    <glyph glyph-name="f" unicode="f" horiz-adv-x="365" 
d="M283 617q21 34 17 34l-5 12q0 5 -21 8q-23 2 -25 -3q-5 -4 -13 -9.5t-16 -10.5q-4 -4 -8.5 -11t-9.5 -17q-7 0 -7 -105q0 -8 3.5 -19.5t3.5 -17.5q1 -2 5.5 -7t9.5 -10q3 -3 6.5 -6t7.5 -6q0 -6 12 -6q5 0 12 1l14 2t12.5 2t6.5 1q26 0 34 -3q15 -6 15 -21q0 -14 -29 -14
h-42q-58 0 -58 -25q0 -21 -1.5 -58t-3.5 -91q1 -8 1.5 -17t0.5 -20v-54q-8 -81 9 -81q31 -28 31 -20q0 -3 30 0h22q11 0 11.5 -2.5t6.5 -8.5q11 -8 10 -14q-5 -17 -31 -20q-63 3 -63 2h-56q-55 -3 -55 1q0 -3 -14 -3q-10 0 -23 1.5t-25 3.5t-21.5 4.5t-11.5 4.5q-3 4 -3 8
q0 12 38 20q22 3 34 6t14 4q13 12 15 53v57v28q0 11 0.5 24.5t1.5 30.5q1 49 0 81q-2 24 -3 40t-3.5 25.5t-8 13t-15.5 3.5q-76 -3 -73 20q0 4 3.5 7.5t7.5 6.5q5 5 10 6q7 1 13 1h12q7 0 13.5 0.5t13.5 1.5q18 4 20 27q1 5 1.5 9.5t0.5 9.5v20q0 6 1 16t4 27q5 38 9 38
l23 37q13 20 18.5 29.5t5.5 10.5q21 30 85 39q38 6 46 1q30 -13 28 -13q3 0 8.5 -4.5t11.5 -10.5t10 -11.5t4 -7.5l5.5 -11t6.5 -11q9 -21 6 -21q6 0 -4 -42q-12 -41 -31 -41q-5 0 -17 -2.5t-20 -2.5q-17 0 -28.5 18.5t-11.5 36.5q0 6 1 12t5 13z" />
    <glyph glyph-name="g" unicode="g" horiz-adv-x="502" 
d="M482 437q1 -2 3 -5.5t7 -11.5q5 -6 8 -9t5 -4.5t2.5 -3t0.5 -5.5q0 -5 -2.5 -14t-5.5 -18t-6 -16.5t-5 -9.5q-21 -18 -37 -17q-23 3 -26 29v42q0 17 -6 17t-23 -23q-4 -5 -7 -9t-5 -7l-3 -6q3 0 3 -14q0 -8 -1.5 -21t-3.5 -33q-3 -39 -3 -40q0 -26 -20 -46l-28 -27
q-19 -19 -34 -19q-5 0 -18.5 -4.5t-18.5 -6.5q-22 -4 -40 -9q-11 4 -15 6q-5 3 -40 0q-35 -2 -35 -4h-39q-38 -3 -38 -23q0 -8 3 -17q9 -20 48 -26q6 -2 18 -2q7 0 16.5 -0.5t21.5 -1.5q42 -2 68 -3t37 -1q4 0 11 -1t14 -1.5t13.5 -1.5t9.5 -1t11 -1t16.5 -3t15.5 -4t8 -4
q13 -10 26 -12q20 -20 29 -33t17 -26q7 0 4 -38q-1 -8 -1 -13.5v-10.5q0 -9 -2 -15q-3 -11 -6.5 -17.5t-6.5 -11.5q-16 -36 -87 -71q-22 -9 -51.5 -10.5t-57.5 -1.5q-9 0 -23.5 1t-29.5 1.5t-28 1.5t-20 1t-16.5 3.5t-19.5 8t-18.5 8t-13.5 3.5q-3 0 -8 3t-10.5 6.5t-10 7.5
t-6.5 6q-4 5 -8 9t-8 9q-14 17 -12 17q-3 0 -3 6q0 7 2.5 18.5t5.5 23.5t6.5 21.5t6.5 12.5q7 4 42 21t35 19q0 7 -24 18q-13 6 -19 8.5t-8 3.5q-19 23 -24.5 37t-4.5 33q3 22 11 30q33 30 66 30q11 0 11 6q0 8 -23 34q-11 13 -19 22t-12 15q-14 24 -9 92q0 23 20 43l35 35
q40 40 77 39q2 0 9.5 0.5t17 1t19.5 1t16 0.5q19 -3 20 -6q0 -2 6.5 -4t15 -4t15 -4t6.5 -4q0 5 37 -29q5 -8 10.5 -15.5t13.5 -7.5q17 -3 23 17q12 27 17 32q25 20 42 20q33 3 48 -12zM106 -9q0 1 -1 1q-8 0 -34 -17q-25 0 -25 -60q0 -30 6 -40q26 -39 82 -46q4 -1 11 -1
q4 0 10 -2q12 -1 27 2q6 1 26 -2q17 -4 27 -4q6 -2 17.5 -0.5t30.5 3.5q45 1 45 6q0 1 20 18q11 7 16 11.5t7 5.5q15 22 20 40q4 14 -14 40q-13 15 -21 21.5t-16 7.5q-1 2 -7.5 3.5t-14.5 3.5q-4 1 -7 1.5t-7 1.5q-6 1 -6 7t-96 3q-96 -2 -96 -4zM291 295q0 134 -88 130
q-48 -3 -65 -45q-3 -11 -6.5 -32t-5.5 -54q-6 -122 103 -122q62 0 62 123z" />
    <glyph glyph-name="h" unicode="h" horiz-adv-x="495" 
d="M195 357q3 0 5.5 5t5 10.5t4.5 10.5t4 5q3 0 18 18q8 11 13 15.5t7 6.5q8 5 22 9.5t32 10.5h49q32 0 70 -39q2 -2 13 -32q3 -7 5.5 -12l4.5 -9q1 -3 3 -7q2 0 0 -74q-2 -48 -3.5 -82.5t-1.5 -55.5q0 -74 9 -74q2 -5 5 -8.5t5 -7.5q5 -6 9 -11t9 -5q2 0 9.5 -1t22.5 -2
q13 -3 13 -17q0 -19 -66 -19q-8 0 -26 1.5t-47 3.5q-5 1 -10 1h-12t-14.5 0.5t-15.5 1.5q-4 0 -11 0.5t-14 2t-12 3.5t-5 6q0 10 20 13q29 5 41 18t13 42v51q0 16 0.5 34t1.5 39v26q0 8 -0.5 16.5t-1.5 19.5q2 4 2 10v9t1 10v31q0 54 -27 80q-8 5 -18 8.5t-21 3.5
q-15 0 -31 -6.5t-29.5 -17.5t-23 -24.5t-11.5 -28.5q-1 -4 -3.5 -12.5t-5.5 -18.5t-5.5 -19.5t-2.5 -15.5q0 -11 -1.5 -26.5t-3.5 -35.5q-5 -35 -6 -51t-1 -25v-10q-1 -5 -1.5 -9t-0.5 -8v-15q0 -68 29 -68q13 0 28 -5t15 -15q0 -5 -5 -7.5t-12 -4t-14.5 -2t-12.5 -0.5
q-6 0 -46 -3q-10 0 -24 2.5t-20 2.5q-3 0 -12 1t-24 2q-23 3 -36 0q-5 -1 -16.5 2.5t-12.5 8.5q0 13 17 15q0 -3 23 3q13 4 19.5 7t8.5 4q18 13 18 43q0 6 -1.5 24t-1.5 27q1 8 1.5 20.5t0.5 29.5v91q0 139 4 139q-4 0 -1 69v53v18t1 11q3 51 3 40q0 33 -17 38
q-13 2 -31.5 6t-43.5 11q-8 5 -8 15q0 15 11 20q1 1 6 1.5t11 1.5q4 1 10 1q3 1 101 1q5 1 9.5 1.5t6.5 0.5h7q3 -2 11 -8t12 -6t4 -36q-3 0 -6 -32v-20v-9t-1 -9q-9 -59 -9 -99t10 -41z" />
    <glyph glyph-name="i" unicode="i" horiz-adv-x="269" 
d="M144 723q29 0 65 -41q5 -9 8 -30q4 -15 4 -21q0 -2 -1 -2t-4.5 -5t-8.5 -12q-6 -9 -12 -17q-17 -17 -46 -17q-26 0 -46.5 16.5t-22.5 42.5l-1 9q0 26 17.5 49t43.5 28h4zM186 438q20 -6 20 -53q0 -9 -1 -22.5t-2.5 -26.5t-2.5 -23t-2 -13v-238q3 -16 25 -25q12 -5 28 -5
h9h6q23 0 23 -21q0 -11 -12 -16.5t-26 -5.5q-4 0 -14 2q-17 3 -42 3h-17q-12 -1 -21 -1.5t-17 -0.5t-12.5 0.5t-7.5 1.5q-91 1 -91 20q0 3 4 7t19 5q8 2 12 2q8 0 11 1q20 4 33 19q6 6 9 23q1 3 1 13v7q0 6 -1 9q-1 5 -1.5 9.5t-0.5 8.5v8v95q0 22 0.5 41t1.5 36v32
q0 50 -5 50q-3 0 -14 11q-9 11 -18 11.5t-22 2.5q-16 1 -16 7q0 2 -4.5 4t-4.5 5q0 1 1 2q4 4 18 9q8 4 31.5 5t61.5 1q3 0 20 4q12 0 21 -4z" />
    <glyph glyph-name="j" unicode="j" horiz-adv-x="305" 
d="M265 709q5 -4 8.5 -7t6.5 -7l10 -12t5 -9q2 -6 2 -9q0 -6 1 -11q2 -8 -3.5 -22.5t-5.5 -20.5q0 -5 -7.5 -11t-17.5 -10.5t-20 -6.5t-15 0q-32 9 -46.5 24.5t-14.5 49.5q0 8 4 8q4 9 10.5 19.5t14.5 21.5q21 11 52 11q18 0 16 -8zM49 -185q-5 2 -11 9.5t-11 16.5t-9 18
t-4 15q0 1 -1.5 16t-1.5 24q0 47 23 52q4 2 19.5 6.5t23.5 4.5q9 0 17.5 -3t16.5 -16q8 -12 14.5 -15.5t6.5 -14.5q0 -9 -4 -19t-10 -18.5t-12.5 -14t-11.5 -5.5q-2 0 -4 -2.5t-4 -4.5l-4 -6q-7 -4 -7 -9q0 -1 5 -5.5t5 -9.5q23 -14 26 -14q38 0 56 10.5t27 47.5
q3 13 5.5 57t0.5 119q-3 141 0 141v71q3 84 -8 114q-6 16 -57 28h-23l-18 -1.5t-9 -0.5t-5.5 -0.5t-7.5 -0.5h-12q-14 1 -18 4t-5 22q8 0 22.5 6t20.5 6h29q10 0 20.5 0.5t22.5 1.5q4 0 11 -3.5t12 -3.5q7 7 45 7h21q5 0 11 -0.5t11 -1.5q12 0 17 -9q2 -2 5 -20q1 -26 0 -69
q-3 -49 0 -70q1 -11 0.5 -30.5t-2.5 -46.5q-1 -51 0 -76q7 -52 -5 -179q-3 -31 -12.5 -54.5t-27.5 -40.5q-5 -6 -11.5 -12.5t-12.5 -13.5q-9 -9 -15 -13t-11 -5.5t-11 -2.5t-15 -4q-8 -4 -14.5 -6t-12.5 -2q-19 0 -49 6q-6 4 -15 8.5t-22 11.5z" />
    <glyph glyph-name="k" unicode="k" horiz-adv-x="485" 
d="M171 249q4 -12 14 -12q12 0 40 28q26 29 30 29q5 0 19 12q8 7 11.5 12t6.5 8.5t6.5 7.5t10.5 9q7 4 9 34q0 37 -38 40q-6 2 -15 5.5t-22 6.5q-6 1 -6 6q2 4 4 7t7 5t14 3.5t26 1.5q5 1 9.5 1.5t8.5 0.5h14q7 -1 18 -1.5t25 -0.5h77q30 0 32 -1q22 -3 25 -17
q5 -22 -23 -23q-58 -5 -83 -39q-20 -25 -37 -29q-4 0 -10.5 -4t-13 -9.5t-11.5 -10.5t-7 -8q0 -2 -4 -5.5t-8.5 -8.5t-7.5 -11t-1 -14q1 -3 9 -12.5t8 -14.5q0 -6 10.5 -15t10.5 -15q0 -3 5.5 -13.5t10.5 -13.5t21 -28q17 -26 17 -32q0 -14 19 -33q5 -7 12.5 -14.5
t20.5 -15.5q3 -1 8.5 -4.5t11.5 -7.5t12 -7.5t11 -3.5q20 -3 20 -16q0 -19 -24 -17q-4 0 -19.5 1t-43.5 2q-20 2 -35 1t-27 -2q-11 -2 -28.5 -1t-42.5 2q-1 2 -5 6q-5 5 -5 8q0 6 6 8l20 4q18 4 22 7.5t6 23.5q0 17 -24 40l-9 15q-5 8 -11 19.5t-15 27.5q-31 49 -48 49
q-11 0 -20 -8t-15.5 -19.5t-10 -25t-3.5 -24.5q0 -54 22 -94q1 -1 27 -7q27 -8 22 -17q-8 -17 -48 -17q-15 0 -49 3q-17 1 -27 2t-15 -1q-51 -6 -75 2q-9 1 -9 12q0 13 17 16q6 -2 23 -2q37 4 40 62q5 120 3 170q1 54 0.5 130.5t-2.5 182.5v13v10t-1 12q0 1 -2 3t-3.5 4.5
t-3.5 4.5q0 4 -5.5 8t-11.5 7.5t-11.5 6t-5.5 3.5t-14 6q-14 4 -21 4t-2 13q2 14 9 14q14 0 14 3q0 4 51 6h55q31 3 34 -8q8 -18 3 -44q-5 -14 -9 -36q-3 -6 0 -18q1 -5 1 -12v-7q0 -29 -3 -90q-1 -14 -1 -26.5v-23.5v-40q0 -7 -0.5 -20t-1 -28t-1 -29.5t-0.5 -23.5
q0 -14 1 -25.5t5 -22.5z" />
    <glyph glyph-name="l" unicode="l" horiz-adv-x="258" 
d="M277 5q-3 -6 -20 -8h-28q-13 0 -18 1l-133 4q-24 0 -40 9q-6 4 -6 7q0 5 6 9t14 7t16 4.5t12 1.5q29 0 35 35q1 7 1.5 13t0.5 13v14t1 14q-1 13 -2 31.5t-2 42.5q2 32 4.5 80t6.5 114q1 51 2 80t-1 40q-1 15 -2 36t-2 50q0 4 -2.5 9t-2.5 6q0 14 -25 20q-17 5 -30.5 11
t-24.5 14q-9 9 -9 12t3 3q-3 0 0 3.5t8.5 8t11.5 8.5t9 4q4 0 7 -1t25 -4q8 -1 13 -1.5t9 -0.5h9q33 3 42 3q41 0 47 -21q2 -4 2 -34q0 -29 -5 -29q-3 0 -3 -74q0 -21 -3 -72q-1 -25 -2 -44t-1 -33q2 -51 1.5 -90t-3.5 -70q-1 -5 -1 -45q0 -18 -0.5 -43.5t-1.5 -57.5
q0 -25 10 -31q32 -22 40 -22q1 0 3 2q5 0 12 -0.5t12 -3t7 -8.5t-2 -17z" />
    <glyph glyph-name="m" unicode="m" horiz-adv-x="760" 
d="M577 451q1 0 51 -6q5 0 15 -8t15 -8q3 0 7.5 -4.5t9 -10.5t8 -11.5t5.5 -7.5q11 -5 14 -52q3 -45 4.5 -83.5t-0.5 -70.5q-2 -24 -3 -41.5t-1 -33.5q0 -73 32 -76q4 0 12 -2t15.5 -5t13 -6t5.5 -5q0 -5 -4 -12t-4 -3q0 -4 -35 -7h-65q-17 0 -34 0.5t-36 1.5q-45 3 -50 17
q-5 15 13 15q5 0 9 -2t8 -2q3 0 9.5 3.5t10.5 3.5q33 0 33 68q0 7 -0.5 17.5t-1 20.5t-1 17.5t-0.5 9.5v118q7 43 -18 100q-8 21 -26 25q-5 1 -13 2t-20 2q-27 3 -27 -3q0 2 -20 -9q-10 -6 -14.5 -8.5t-5.5 -3.5q-9 -13 -12.5 -19.5t-5 -10t-3 -6.5t-5.5 -9t-5.5 -10.5
l-2.5 -7.5q-2 -11 -5.5 -26t-6.5 -36q-4 -31 -6 -74.5t-2 -97.5q0 -56 40 -57q40 -3 40 -20q0 -8 -6 -13.5t-14 -0.5q-7 3 -52 0q-32 -1 -51 -2t-25 -1q-23 0 -23 3q0 -1 -25 0q-3 1 -10 1q-5 0 -7 1q-3 1 -6 1q-5 0 -11.5 5.5t-6.5 10.5q0 2 5 4q24 7 24 6q8 2 16.5 4.5
t17.5 6.5q9 9 11.5 13.5t3.5 14.5q2 32 3.5 62.5t1.5 60.5t0.5 59t1.5 58q-6 75 -40 100q-6 3 -15.5 5t-23.5 2q-38 0 -45 -15q-6 -16 -27 -29q-1 -1 -4 -6.5t-7 -11.5q-4 -8 -6 -11q-3 -5 -4 -5t-10 -31q-9 -30 -9 -34q-4 -46 -5 -88t0 -84q0 -32 11.5 -49t44.5 -17
q8 0 15.5 -8.5t7.5 -16.5q0 -5 -7.5 -5.5t-12.5 -6.5q0 1 -36 3q-17 0 -47.5 -1t-73.5 -5q-4 0 -14 1t-26 4q-5 1 -15 6t-10 10t4.5 6.5t24.5 4.5q22 4 22 6q0 -7 17 13q17 23 17 27q0 3 -3 3q1 0 0 139q-2 72 -3 111t-5 47q-4 15 -29 22q-10 1 -19 3.5t-18 4.5
q-13 4 -13 17q0 15 19 15l23 5q23 5 23 1q38 3 49 0q0 -1 22 -1q15 0 21 -8t10 -31q2 -23 7 -23t34 29q6 6 16 14t23 19q19 10 55 10q84 0 105 -46q3 -5 7 -11.5t10 -14.5q1 -2 4 -5.5t6 -6.5q0 -2 2 -2q3 0 10 4.5t4 4.5q5 0 21 22q10 14 21 27t39 21q15 3 27 5t21 1z" />
    <glyph glyph-name="n" unicode="n" horiz-adv-x="529" 
d="M309 17q3 11 23 14q15 1 22.5 2t8.5 1q16 6 19 29v11v11.5t1 14.5q2 48 1 83t-2 57q0 6 0.5 15.5t1.5 19.5t1.5 18.5t0.5 12.5q0 22 -17 76q-5 14 -23 21q-2 2 -17 2q-15 1 -15 -2q-53 -17 -57 -29q-1 -2 -5.5 -7t-9 -11t-8.5 -12t-5 -10l-14 -37q-6 0 -9 -126
q0 -3 -0.5 -11t-1.5 -17.5t-1.5 -19.5t-0.5 -17q0 -71 47 -71q33 -2 33 -20q0 -3 -2.5 -7.5t-5.5 -9.5q-2 -1 -6.5 -2.5t-12.5 -3.5q-17 -2 -17 2l-155 -2q-17 0 -45 16q-6 1 -6 6q0 9 28 18q29 12 29 5q11 10 18.5 15.5t9.5 9.5q8 13 1 92q-2 30 0 78q2 32 3 51.5t1 27.5
q0 74 -36 77q-1 0 -7 2t-19 5q0 -2 -5 -1t-11 3.5t-11.5 5.5t-7.5 5q-3 6 -3 14q0 17 16 20q96 4 96 3q0 2 14 0q5 -1 8.5 -1.5t5.5 -0.5h4q32 0 43 -26q2 -3 2.5 -8t1 -10.5t1.5 -9t3 -3.5q4 0 13.5 8.5t18.5 17.5q7 8 11.5 11.5t8.5 5l8 3t9 5.5q12 9 19 9q49 7 49 5
q0 3 4 3q8 0 44 -17q16 -8 25 -14t11 -8q36 -44 36 -130q0 -10 -1 -23.5t-2 -33.5q-3 -38 0 -54q-1 -8 -1.5 -17t-0.5 -19v-18t-1 -17q1 -57 18 -57q2 0 10 -4.5t13 -4.5q6 -2 15 -3t21 -3q10 -4 10 -17q0 -11 -9 -17t-23 -8q-9 -2 -26 0q-5 1 -8.5 1.5t-6.5 0.5h-8
q-23 0 -23 1q0 3 -17 0l-19 -4q-5 3 -57 6q-51 0 -49 23z" />
    <glyph glyph-name="o" unicode="o" horiz-adv-x="452" 
d="M429 252v-43q0 -18 -1 -23q0 -3 -1.5 -9.5t-3.5 -13.5t-3.5 -14t-1.5 -11q0 -5 -6 -16.5t-7 -16.5q0 -4 -8.5 -11.5t-8.5 -13.5q0 -3 -3.5 -7.5t-8.5 -9t-9.5 -8.5t-6.5 -6q-8 -8 -15 -14.5t-13 -9.5q-1 -1 -32 -20l-31 -16q0 -4 -47 -4q-50 0 -54 7q-1 2 -7 4t-13.5 4
t-13.5 4t-6 4t-4.5 6t-10 8t-11 7t-7.5 3q-10 3 -29 34q-16 31 -26 31q-8 0 -18 46q-4 20 -6 31.5t-4 13.5q-6 85 37 161q14 25 28 39t29 20q6 3 14 12.5t14 13.5l24 9q6 2 8 2l28 4l24.5 3.5t18.5 1.5q18 0 18 -6q0 5 33 -11q16 -8 25.5 -13t11.5 -7l69 -72q35 -47 35 -93z
M332 198q-3 57 -5 85.5t-2 30.5q0 9 -10 29q-6 25 -13 25q-11 13 -16.5 18.5l-7.5 7.5q-5 11 -35 12q-43 4 -61 -3q-18 -6 -34 -26t-17 -39q-2 -5 -4.5 -14.5t-8.5 -23.5q-3 -11 -5 -20t-2 -17v-17t-0.5 -20t-1 -19t-0.5 -15q0 -15 1 -30.5t2 -32.5q0 -3 3.5 -14.5
t7.5 -11.5q-3 0 5 -23q10 -25 14 -26q58 -43 58 -34q0 -3 8 -3q12 0 32 5q5 1 11 2t11 2q13 0 29 22q26 30 27 64q2 5 4 15.5t6 27.5q3 14 4.5 24.5t-0.5 18.5z" />
    <glyph glyph-name="p" unicode="p" horiz-adv-x="520" 
d="M83 380q-1 9 -34 15q-8 2 -14 3t-10 2q-2 1 -4 1t-4 1l-2.5 2.5t-5.5 6.5t-5 8.5t-2 8.5q2 17 47 17q36 0 36 -5q0 1 38 3q35 3 40 0q14 -2 14 -20v-29q-3 -22 8 -22q6 0 32 30q26 29 31 29t17 7.5t20 7.5q15 0 15 5q0 4 28 3q60 -3 60 -12q0 -2 6 -4.5t13 -5.5t13 -5.5
t6 -4.5q8 -10 16 -16.5t15 -11.5q9 -12 16 -21t12 -15q3 -3 12 -32q12 -29 14 -29q3 0 4 -34q3 -26 0 -63q-1 -11 -1 -19.5v-13.5v-4q0 -5 -8 -35q-6 -26 -11 -26q-2 0 -17 -24q-5 -10 -9 -16.5t-6 -7.5q-11 -9 -19.5 -16t-14.5 -10q-39 -39 -75 -39q-7 -1 -16.5 -2t-20.5 1
q0 -1 -5 0t-11 3l-16 4q-22 0 -56 33q-34 34 -43 34q-8 0 -8 -16q0 -9 2.5 -23.5t1.5 -14.5v-79q0 -51 4 -60q9 -26 17 -26l11 -5q0 -3 3 -3q6 -1 13 -2t16 1q4 0 6 0.5t4 0.5h4q0 -1 7.5 -4.5t9.5 -7.5q5 -20 -8.5 -25.5t-33.5 -5.5q-6 0 -18.5 1.5t-26 3.5t-26 3.5
t-18.5 1.5q-7 0 -21.5 -1t-36.5 -3q-17 -1 -32 -2t-27 1q-12 1 -12 15q0 11 8 17q2 2 18 5q17 2 17 1q0 -2 29 10q19 0 19 63q0 -2 -1.5 17.5t-3.5 57.5q-2 30 -3 63.5t-1 70.5q0 75 3 168q2 21 -19 95zM189 277q-2 -10 -4 -17t-4 -12q-1 -4 -3 -10v-7q0 -8 3.5 -25.5
t9.5 -45.5q5 -28 8.5 -43t3.5 -19q0 -5 9 -17t17 -21q4 -5 33 -22q30 -15 30 -18t10 -3q15 0 27.5 2t25.5 6q11 3 26.5 16t20.5 24q16 47 16 77v13q0 7 0.5 17t1.5 23q3 54 3 80q0 30 -3 30q5 0 -20 63q-9 21 -15 27q-5 8 -33 17q-27 12 -35 6q-3 -1 -9 -3.5t-13 -5
t-13 -4.5t-8 -2q-11 0 -22 -11q-17 -14 -18 -15q-4 -2 -9.5 -9t-10.5 -15t-9 -16.5t-5 -13.5q0 -1 -2.5 -12.5t-8.5 -33.5z" />
    <glyph glyph-name="q" unicode="q" horiz-adv-x="449" 
d="M405 -146q1 -22 33 -25q16 0 25 -2.5t13.5 -6t5 -7.5t0.5 -7q0 -18 -37 -17q-25 2 -43 2.5t-31 -0.5h-58q-12 0 -22.5 -0.5t-18.5 -1.5q-18 2 -27.5 5t-13.5 6.5t-3.5 7t1.5 6.5q5 8 11 8q22 3 36 4t19 -1q12 -8 23 21q3 8 5.5 17t5.5 17q1 8 1.5 14.5t0.5 12.5v22v27
q0 8 -0.5 18.5t-1.5 22.5q-2 51 -21 51q-3 0 -7 -3.5t-7.5 -8t-6 -8.5t-2.5 -5q-11 -7 -19 -11.5t-14 -8.5q-16 -13 -26 -15q-2 -8 -18 -8q-82 0 -116 43q-8 10 -14.5 16.5t-11.5 9.5q-6 12 -11.5 18.5t-11 11.5t-10.5 10.5t-10 15.5q-4 11 -5.5 18.5t-3 16t-3 20t-5.5 29.5
q-3 15 -3.5 27.5t0.5 23.5q12 86 75 146q67 64 147 60q18 0 36 -5.5t33 -15.5t26 -23.5t15 -29.5q3 -14 13 -14q8 0 14.5 8.5t6.5 18.5q4 52 11 52q2 0 7 2.5t7 2.5q12 0 12 -57q0 -10 -4 -30q-3 -18 0 -27q1 -59 0 -90v-75q-3 -54 -3.5 -94.5t1.5 -66.5q-2 -48 -0.5 -84
t5.5 -64zM329 175v17v20v14.5t-1 15.5q-3 66 -8 66q2 0 -11 27q-6 16 -10 23q-1 2 -2 3.5t-2 3.5q0 11 -26 23q-26 14 -26 20t-25 6q-47 0 -53 -11q-8 -5 -14.5 -9t-13.5 -8q-2 0 -4.5 -4t-5 -8.5t-5 -8t-4.5 -3.5q-8 0 -15 -45q-4 -15 -5 -27.5t-1 -23.5q-3 -74 0 -109
q0 -4 1 -12.5t2.5 -18t3 -18t1.5 -13.5t3 -14t7 -18t8.5 -16.5t7.5 -8.5q26 -10 37 -21q11 -2 20 -3.5t18 -1.5q22 0 38.5 7t29.5 19q38 40 38 59q0 1 2.5 12t8.5 31q8 35 6 35z" />
    <glyph glyph-name="r" unicode="r" horiz-adv-x="397" 
d="M211 328q-8 -29 -8 -39q0 -3 -9 -54q-7 -49 -5 -49t5 -81q0 -50 6 -51q31 -31 31 -23q0 -1 6.5 -1.5t14 -1.5t14 -2.5t6.5 -3.5q0 -4 1.5 -9t1.5 -7q-1 -3 -6 -4.5t-20 -1.5q-17 -3 -17 0l-64 -3q-12 0 -42 1t-78 4q-13 0 -13 7q0 10 14 13.5t40 6.5q20 3 20 36
q0 7 0.5 18t1 22.5t1 21t0.5 13.5v9v17.5t-1 24.5q0 15 1 27.5t3 21.5q1 3 0 9.5t-2.5 14t-2.5 14t-1 8.5q0 5 -1.5 18.5t-1.5 21.5q2 36 -20.5 53.5t-59.5 17.5q-5 -2 -9.5 6t-4.5 14q0 5 2 5q25 9 64 9h12h13t19 1q33 3 33 0q0 5 14 0q6 -2 9 -2.5t4 -3t2 -8.5t4 -20
q3 -12 5 -21t2 -12q0 -5 -1 -5q7 0 21 20q17 23 17 26q0 7 31 23q32 17 42 17q49 0 73 -24q17 -17 22 -42q8 -38 -2 -38q-4 -10 -13 -22l-6 -2q-3 -2 -7 -3.5t-9 -3.5q-15 -5 -23 -5q-46 0 -46 63q0 2 8 28q4 15 -5 15q-4 0 -9.5 -2t-13.5 -5q-22 -10 -25 -20
q-6 -23 -18 -23q-11 0 -20 -34z" />
    <glyph glyph-name="s" unicode="s" horiz-adv-x="355" 
d="M263 397q9 0 9.5 8.5t5.5 17.5q6 11 10.5 13t9.5 2q20 0 20 -56q0 -59 -6 -59q5 0 -3 -26q-6 -26 -14 -26q-2 0 -2 -0.5t-2 2.5t-6.5 10.5t-13.5 24.5q-1 0 -16 29q-13 31 -20 31q7 0 -29 17q-31 19 -31 15q0 9 -40 6q-12 0 -27 -3q-4 0 -10 -5.5t-7 -5.5q-17 0 -26 -40
q-1 -3 -0.5 -10.5t2 -15.5t4 -14.5t6.5 -6.5q3 -1 9 -5q5 -3 11.5 -6.5t14.5 -8.5q37 -19 37 -16q0 -2 43 -15q48 -14 53 -14q25 0 70 -45q28 -25 28 -70v-41q0 -15 -1 -18q-4 -12 -7.5 -20t-5.5 -8q6 0 -26 -26q-29 -26 -29 -20q-8 -4 -14.5 -6.5t-11.5 -3.5q-48 -8 -63 -5
q-4 1 -8.5 2t-11.5 3l-23 9q-3 0 -9.5 2.5t-14 6t-14 7.5t-9.5 7q-14 16 -27 9q-8 -4 -13 -16.5t-10 -15.5q-17 -5 -20 -3q-4 0 -7.5 4.5t-5.5 10.5t-2.5 10.5t1.5 4.5q1 0 1 62v66q3 33 22 26q3 -1 7 -10t10 -24q0 -3 6 -12t6 -14q0 -15 20 -35q27 -30 28 -32
q2 -5 10 -10.5t18.5 -10t21 -7.5t16.5 -3l25 -5q4 -1 7.5 -1h6.5h12q9 2 13 3t7 2.5t6.5 4l10.5 7.5q8 0 16 11.5t10 20.5q2 8 3 14t2 10q1 3 1 8q0 13 -9.5 23t-33.5 33q-4 4 -31 10q0 6 -35 11q-34 7 -34 12q-86 24 -92 40q-1 1 -2 1.5t-3 2.5l-12 12q-17 17 -14 17
q-6 0 -14 32q-4 14 -5 22t-1 12q1 16 11 37l11 22t5 12q7 15 22 26q13 7 20 11.5t9 6.5q13 16 69 8q6 -1 15.5 -2.5t19 -3.5t17 -5t8.5 -6q6 -6 20.5 -16t24.5 -10z" />
    <glyph glyph-name="t" unicode="t" horiz-adv-x="308" 
d="M148 672q6 2 10 2q24 0 24 -48q0 -5 -1.5 -18.5t-3.5 -36.5q-4 -29 -5 -51.5t-3 -39.5v-20q2 -5 6.5 -9.5t22.5 -5.5q0 -4 27 -2q8 1 13.5 1.5t9.5 0.5h6q7 -1 12 -1.5t9 -0.5q9 0 10 -1q13 -7 10 -24q-2 -25 -43 -23q-3 0 -8.5 1t-12.5 1.5t-13 1.5t-10 1q-22 -3 -22 0
q0 -2 -12 -6q-4 -3 -6 -11v-14q-4 -13 -5 -31t0 -41q1 -17 1.5 -30t0.5 -22v-20q-4 -157 4 -157q-8 0 16 -26q0 -14 46 -14q13 0 29 34q16 33 14 33l9 48q0 6 7.5 11.5t12.5 3.5q15 -5 11 -43q-2 -17 -8.5 -36t-16.5 -42q-3 -5 -9 -11.5t-14 -17.5q-1 -2 -7.5 -5.5
t-16.5 -8.5q-12 -4 -15 -7q-4 -2 -5 -2q0 -6 -45 -3q-45 1 -45 10q0 -1 -29 22q-4 0 -10.5 13t-6.5 19q-3 27 -4.5 66t0.5 93t1 93.5t-5 66.5q-1 3 -1 9v8q-4 10 -8 13t-15 7q-12 1 -12 0l-42 4v12q-2 6 -2 7v6q0 3 20 11q11 5 16.5 7t7.5 3q16 9 36 36q22 42 28 61
q6 15 9.5 31.5t6.5 33.5q1 17 4 35t22 23z" />
    <glyph glyph-name="u" unicode="u" horiz-adv-x="486" 
d="M162 406q1 -28 -1 -66t-6 -89q-1 -5 -1 -15.5v-27.5v-90v-46q0 -5 6 -14.5t6 -12.5q0 -5 5 -8t11 -5.5t11 -4t5 -2.5q6 -8 16 -8q5 0 15 3t14 3q5 0 16.5 3.5t12.5 7.5q16 13 37 43q2 4 4 11t7 18q9 25 14 25t8 66q1 10 1 19v18t0.5 18t1.5 19q6 114 -79 118
q-5 1 -8.5 1.5t-6.5 0.5q-7 0 -9 1q-8 2 -11 7t-5 10q-1 9 8 15q6 2 8 3q5 2 86 3q42 1 62 1.5t19 0.5q22 -1 22 -38q0 -9 -1.5 -25t-1.5 -21q-3 -134 -5 -134q-1 0 0 -76q4 -71 6 -84q5 -19 22.5 -24.5t34.5 -9.5q6 -2 12.5 -12t6.5 -16q0 -7 -7 -7t-19.5 -1t-26.5 -2.5
t-27.5 -2.5t-22.5 -1q-32 0 -53 10q-15 7 -12 46q0 9 -3.5 15.5t-11.5 2.5q-3 -1 -6 -5.5t-5.5 -9.5l-4.5 -9t-3 -5q-37 -46 -108 -46q-41 0 -77 18q-26 17 -26 23q-4 15 -9 23q-1 3 -3 7q2 17 1.5 59t-3.5 111q2 23 0.5 53t-3.5 72q-1 4 -6.5 12t-5.5 11q0 14 -28 23
q-18 6 -35.5 11.5t-17.5 13.5q0 3 4.5 7t10 7t10 4.5t4.5 -0.5q70 4 81 6q11 4 22 4q45 0 48 -36z" />
    <glyph glyph-name="v" unicode="v" horiz-adv-x="529" 
d="M94 449q11 -1 25.5 -1h31.5t38 -0.5t45 -1.5q48 3 48 -14q0 -4 -2 -10q-7 -10 -35 -11h-39q-14 -3 -14 -22q0 -5 2.5 -17.5t8.5 -34.5q9 -20 18.5 -45t20.5 -54q3 -3 13 -30q12 -26 14 -26q3 0 9 -24q7 -21 17 -21q5 0 8 3t11 17q3 7 5.5 10.5t0.5 3.5l18 29
q0 5 5.5 16.5t8.5 12.5q3 3 11 29q7 28 11 28q5 0 17 36q9 32 -6 58q-10 15 -33 23q-28 9 -36 18t-8 14q0 14 46 14h14q10 0 15 -1l102 3q47 2 47 -19q0 -15 -20 -23q-51 -18 -64 -51q-3 -6 -42 -69q-5 0 -17 -29q-11 -30 -11 -34q0 -8 -3.5 -18.5t-11.5 -24.5
q-8 -17 -13 -28.5t-7 -16.5q-5 -9 -12.5 -24t-15.5 -37q-3 -13 -6.5 -24.5t-6.5 -24.5q-12 -30 -34 -30q-5 0 -11 2q-26 8 -32 62q-1 4 -4.5 10t-7.5 13t-7.5 14t-3.5 12q0 20 -51 143q-3 0 -19 31q-14 32 -15 41q-9 64 -85 89q-9 3 -9 11q0 15 15 18.5t56 4.5z" />
    <glyph glyph-name="w" unicode="w" horiz-adv-x="694" 
d="M9 445q7 22 96 10q-8 2 10 2h54q58 0 56 -17q-3 -16 -11 -18l-6 -2q-4 -2 -8 -3t-9 -3q-13 -3 -16 -29q-1 -25 2 -25q5 0 17 -35q13 -33 15 -43q4 -19 11 -38.5t18 -41.5q3 -5 8.5 -13.5t11.5 -16l10 -12.5t4 -2q7 7 12 12.5t5 9.5t9 34q12 31 13 31q3 0 7.5 11t7.5 33
q2 19 3.5 30.5t-0.5 17.5q0 9 -8.5 25t-9.5 24q-5 13 -29 28q-27 19 -27 26q0 18 43 18q5 0 13.5 -0.5t18 -1.5t18 -1.5t12.5 -0.5q23 2 55 0q50 -3 50 -17q0 -15 -45 -22q-4 0 -14 -10q-4 0 -4 -11q0 -41 10 -48q2 0 36 -94t46 -94q7 0 14 22q1 2 5 11.5t12 25.5
q10 20 10 37q0 8 8 20.5t9 17.5q5 31 16 59q3 11 1.5 21.5t-9.5 21.5q-4 6 -9 9.5t-11 7.5q-13 1 -26.5 9.5t-13.5 16.5q0 15 54 23q54 4 54 0q0 -1 41 -3q43 0 43 -8q0 -24 2 -18q-3 -7 -19 -14q-5 -2 -12.5 -5.5t-17.5 -6.5q-6 -4 -14.5 -16t-12.5 -15q-4 -2 -7.5 -10
t-7.5 -17t-8 -17t-9 -10q-1 -2 -3 -9t-6 -22q-8 -27 -11 -27q-6 0 -12 -44q-1 -4 -4.5 -10t-7.5 -13t-7.5 -14t-3.5 -12q0 -3 -5 -16q-4 -8 -6 -13l-2 -6q-1 -3 -2.5 -7t-3.5 -10q-3 -11 -5 -18t-2 -8q-12 -83 -51 -83q-14 0 -28 86q0 9 -7.5 21.5t-9.5 18.5q-7 16 -17 40
q-1 7 -5 16.5l-8 19t-8 18.5t-5 14q-4 16 -17 16q-21 0 -21 -24q0 -2 -2.5 -12.5t-8.5 -27.5q-14 -36 -12 -36q-1 0 -7 -32q-5 -32 -9 -32q-3 0 -15 -40q-14 -42 -19 -46q-8 -5 -15 -5q-24 0 -31 42q0 1 -12 37q-8 0 -28 83q-1 5 -5.5 13.5t-9 18.5t-8.5 19t-4 15
q-1 6 -6 16t-10 20.5t-9.5 20t-4.5 14.5t-4 13t-9 16.5t-9 17t-4 13.5q0 4 -4 12t-10 15.5t-12.5 13t-11.5 5.5q-40 0 -40 27q0 8 1 10z" />
    <glyph glyph-name="x" unicode="x" horiz-adv-x="505" 
d="M503 38q4 -12 -6.5 -17.5t-24.5 -5.5h-40q-5 -1 -10 -1h-9q-5 0 -13 -2q-26 4 -45 5t-32 0q-7 0 -15 1t-17 4q-26 5 -26 12q0 4 13 11q4 1 12 1q5 0 13 2q19 1 19 9q0 17 -5 35q-5 8 -10 15.5t-10 14.5q-1 0 -4 4.5t-6.5 10.5t-7 10.5t-5.5 4.5q-1 2 -4 6.5t-7.5 9.5
t-9 8.5t-8.5 3.5q-10 0 -22.5 -13t-16.5 -24q-1 -2 -6.5 -9t-11.5 -15.5t-11 -17t-5 -13.5q0 -11 6 -17q18 -16 44 -23q5 0 14.5 -7t9.5 -12q0 -2 -5 -4t-11.5 -4.5t-12.5 -4t-9 -1.5q-23 0 -38.5 1t-26.5 2h-7q-4 0 -11 0.5t-17 1.5q-21 1 -36.5 1.5t-25.5 0.5h-18
q-6 0 -13.5 7t-3.5 13q1 3 7.5 7.5t6.5 1.5q67 13 73 26q11 10 21.5 17t20.5 11q17 18 26 26q2 2 9 12.5t22 27.5q23 32 23 46q0 4 -0.5 6.5t-3.5 7.5t-8 15l-14 28q-7 15 -14 23.5t-12 11.5q-2 1 -5 5.5t-6.5 9.5t-6.5 9.5t-4 6.5q-5 23 -23 31q-21 10 -37 34
q-11 7 -20.5 10t-14.5 5q-25 12 -25 23q0 5 9 5q5 0 11 2t11 2q12 -2 32 0q25 3 34 3q34 2 60 1.5t46 -2.5q57 -8 60 -6q6 0 19 4q13 3 20 2q81 -7 124 -3h22q9 0 17 -11q1 -2 1 -8q0 -10 -18 -17q-17 -6 -17 -4q0 3 -31 -19q-17 -11 -34 -19t-37 -31q-13 -21 -29 -39
q-21 -26 -21 -38q0 -24 26 -50q5 -4 11 -13.5t12.5 -20t12 -20t10.5 -13.5t10.5 -13t12 -19.5t13 -20.5t12.5 -15q8 -6 17 -14.5t18 -11.5q42 -12 43 -16zM286 295q11 0 21.5 8.5t10.5 19.5q0 4 9.5 14t10.5 15q4 23 4 30q0 22 -16 29q-17 5 -30 8.5t-21 5.5q2 0 -5 -1.5
t-21 -3.5q-26 -3 -26 0q0 2 -2.5 -1t-5 -8.5t-5 -12t-2.5 -10.5q0 -10 7 -10q1 0 4 -6.5t7 -14t8.5 -14t7.5 -6.5q7 0 20 -22q14 -20 24 -20z" />
    <glyph glyph-name="y" unicode="y" horiz-adv-x="517" 
d="M437 362q-6 -6 -13 -20t-21 -36q-6 -6 -13 -23t-7 -28l-17 -46q-16 -43 -18 -43t-14 -32q-11 -28 -11 -36q0 -2 -5.5 -13.5t-15.5 -33.5q-2 -3 -3.5 -6.5t-3.5 -8.5q-4 -8 -9 -18.5t-12 -25.5q-8 -20 -15.5 -40t-15.5 -40q2 0 -21 -32q-22 -34 -22 -31q0 -7 -6 -14.5
t-15 -14t-19 -10.5t-17 -4q-9 -5 -29 -8q-7 2 -17 5.5t-20.5 11t-20 19.5t-14.5 31q-3 6 0 17q1 3 1 9v6q0 9 10 23t18 15q17 5 27 5q51 0 60 -54q6 -24 13 -24q6 0 23 30q8 14 13 22.5t7 10.5q1 0 4.5 5t7.5 11t6.5 11.5t2.5 7.5q0 6 2.5 16t5.5 21t5.5 21t2.5 17
q0 9 -8 28q-12 25 -12 28q-5 13 -7 20t-3 10t-1.5 5t-2.5 5q-3 6 -3 9q0 2 -2.5 7t-6 10.5t-6 11t-2.5 8.5l-14 34q-12 34 -15 34t-13 24q-5 13 -7.5 20t-4.5 9q-12 44 -41 73q-3 5 -7.5 12t-12.5 15q-10 3 -17.5 5t-12.5 4q-6 2 -9 2q-27 0 -34 9q-4 4 -4 10q0 18 63 18
h126q13 2 29.5 2.5t36.5 -0.5q15 -4 14 -17q-1 -2 -5 -6.5t-8.5 -8t-8 -5.5t-3.5 0q-60 1 -60 -23q0 -6 8 -17q1 -2 5.5 -12.5t11.5 -30.5q13 -37 15 -37q4 0 11 -28q5 -14 8 -21.5t4 -9.5q4 -1 16 -27q2 -5 4.5 -10t4.5 -10q1 -3 3 -7t4.5 -7.5t4.5 -6.5q4 -5 6.5 -9.5
t2.5 -2.5q0 -1 3.5 0t8 3.5t8.5 5.5t4 5q0 1 10 28q8 14 16.5 30t8.5 25q0 13 25 66q9 4 10 34q3 28 -20 49q-5 5 -13 8t-15.5 6t-13 7.5t-5.5 12.5q0 13 15 14.5t60 1.5h9h7.5t9.5 1q16 3 26 0q5 -1 10 -1h10t10 -0.5t10 -1.5q30 -5 30 -17q0 -17 -33 -20q-18 -2 -24 -15
q-14 -9 -28 -32z" />
    <glyph glyph-name="z" unicode="z" horiz-adv-x="405" 
d="M266 246q0 -9 -12 -19.5t-16 -18.5q-1 -7 -16 -25q-7 -9 -10.5 -14.5t-6 -10.5l-5.5 -11t-9 -16t-9.5 -14t-6 -6.5t-5 -4.5t-7.5 -8q-8 -11 -8 -16q0 -3 -2 -8t-4.5 -11t-4.5 -11t-2 -7q0 -13 21 -16q11 -1 24 0t30 5q42 9 52 9q28 3 54 42q11 17 18.5 32.5t9.5 30.5
q1 11 9 37q3 18 11 18q6 4 10 -12.5t4 -36.5q6 -72 6 -103q0 -30 -25 -43q-44 -26 -144 -8h-122q-12 1 -24.5 1.5t-23 2t-17.5 5t-7 11.5q0 7 7 20q11 11 23.5 28.5t27.5 42.5q7 20 19 29q2 6 7.5 13t13.5 18q2 0 4.5 5.5t5.5 12t6 12t6 5.5q30 34 30 40q0 4 5 12.5t14 23.5
q20 29 23 29q5 0 17 29t17 29q4 0 4 11q0 25 -13 25q-60 0 -62 -2q-5 -1 -14 -3.5t-21 -7.5q-30 -11 -30 -18q0 -13 -27 -34q-12 -10 -19 -48q-5 -18 -9 -18q-5 0 -10.5 10t-10.5 11q-3 2 -4 7t-3 13q0 5 0.5 14l1 18t1 16t0.5 8v34q2 8 5.5 15.5t11.5 13.5l4 2t6 1
q5 0 18 -3t19 -3q7 2 17.5 2.5t21.5 0.5h21q12 0 16 1q18 2 33.5 2.5t30.5 -0.5q18 -3 44 1q19 2 31.5 3t17.5 1q48 0 48 -20q0 -5 -3.5 -12t-7 -14.5t-7 -13t-3.5 -7.5q-1 -1 -4.5 -5t-7.5 -8.5t-7 -8.5t-3 -7t-5 -8t-10.5 -10t-10.5 -9.5t-5 -6.5q0 -4 -21 -34
q-22 -28 -22 -32z" />
    <glyph glyph-name="braceleft" unicode="{" horiz-adv-x="277" 
d="M297 825l-6 -10l-11 -3l-6 -4l-5 3h-6l-5 -3q-1 1 -3.5 2.5t-3.5 1.5l-40 -12l-3 -6l-8 -2l-5 -7l-6 -3q-4 -7 -4 -14l-5 -5l2 -6l-4 -3q-1 -12 -9 -32q4 -8 0 -42h3q-1 -4 -2 -6.5t-1 -5.5l3 -11q-1 -1 -1 -6q0 -2 -2 -6q2 -5 1.5 -14.5t-1 -20.5t-1 -21.5t0.5 -16.5
l-1 -4l1 -8l-3 -5v-23q0 -6 2 -10q-4 -10 -8 -23.5t-9 -30.5l-6 -3v-7q-12 -6 -23 -23q-9 -2 -22 -13q-8 -5 -17 -7t-32 -7l9 -6l3 3l3 -2l19 -5l7 -7l26 -13l7 -9q9 -4 10 -14l7 -7v-6l4 -7l-1 -6l6 -15l-2 -9q0 -4 1.5 -11t1.5 -12l3 -7l-1 -6l3 -7l-2 -10q3 -14 3 -17
q0 -5 -3.5 -13.5t-3.5 -13.5l6 -13l-3 -6q0 -12 4 -27l-4 -11l3 -14v-46l3 -6v-14q4 -5 7 -10.5t7 -11.5q4 -4 8 -15l6 -6t9 -11h8l3 -5q3 -1 7 -2t8 -1l5 -3l6 2q2 -2 5.5 -2.5t8.5 -2.5q4 2 9 2h6.5t8.5 1l-3 -3q0 2 5 2l8 -8l1 -8l2 -1l-2 -3q-2 -9 -11 -11v3l-6 -2l-6 2
l-22 -3q-7 7 -29 4q-5 2 -15.5 4t-27.5 6q-3 3 -9 6t-14 4q-1 2 -2 3.5t-1 3.5l-17 9q-2 6 -12 18q-4 10 -7.5 23.5t-9.5 30.5l1 8q-4 7 -4 61v68q-2 6 -2 8v6q0 4 1 9t2 11q-1 1 -1 5v7l1 6l-3 7q12 69 -35 95h-6l-3 5q-4 1 -13 3t-24 7l-10 -1l-3 -2q-5 4 -9 7.5t-6 9.5
l6 11l9 6v3l8 -3l11 5q22 -4 57 17q8 10 15 21t12 22l-1 3q0 11 1 12q3 39 0 42l5 12q-2 11 -5 14l4 11q-3 28 1 38q-4 10 -1 23l-2 6l3 6l-3 5q2 11 2.5 23t-0.5 25l6 21l-2 5l2 8l-2 4q4 13 16 31q0 9 10.5 21t19.5 16q4 2 10 8l6 1h6q6 7 6 6h17l3 5l12 3l10 -2l12 5
q11 -2 18.5 -3.5t13.5 0.5l6 3q11 0 25 -8v-7z" />
    <glyph glyph-name="bar" unicode="|" horiz-adv-x="502" 
d="M506 665q2 -10 2 -15v-13q0 -81 -51 -106q-2 2 -11 69q-6 44 -32 65q-60 -19 -92 -77q15 -35 15 -71q0 -9 -1.5 -22.5t-3 -27.5t-2.5 -27.5t-1 -22.5q7 -15 17 -15q4 0 10 2.5l12 5t11 5t7 2.5l20 29q19 -16 19 -43q0 -21 -11 -35q-8 -36 -48 -36q-15 0 -29 8
q-31 13 -39 65q-6 52 -26 61q-18 -21 -18 -49q0 -23 17 -69q8 -23 12.5 -37t4.5 -22q0 -37 -57 -49q-31 40 -31 74q0 18 9 32q19 25 19 66q0 35 -13 54q-9 -11 -23 -49q-5 -20 -12 -33t-12 -21q-22 -28 -51 -31q-62 47 -62 73q0 13 13 26l14 21q2 -11 35 -41q7 -3 12 -3
q7 0 15 5.5t15 13t11 16.5t4 17q-25 16 -25 49q0 6 1 11t2 11q23 11 23 40q0 16 -9 31q-8 20 -24.5 36.5t-33.5 16.5q-20 0 -34 -26q-25 -6 -25 -37v-27q0 -20 -11 -28q-18 -5 -36 29q-19 34 -19 63l23 65q16 40 54 49q24 -4 52 -25.5t62 -59.5q16 -20 18 -60q3 -39 17 -53
q23 34 23 78q0 34 -21 102q-11 33 -15.5 58t-4.5 42q0 58 46 101q12 3 18 3q24 0 34 -37q12 -44 26 -50q0 -23 -5.5 -53t-18.5 -69t-19 -68t-6 -47q0 -30 14 -60l22 52t23 52q30 62 81 80q57 9 100 -64z" />
    <glyph glyph-name="braceright" unicode="}" horiz-adv-x="277" 
d="M297 406q-2 -6 -6 -9.5t-9 -7.5l-2 2l-11 1q-5 -2 -14.5 -4.5t-22.5 -5.5l-1 -5h-6q-49 -25 -37 -95l-3 -7l1 -6v-7q0 -4 -1 -5q0 -11 4 -20q-4 -17 -4 -60q1 -12 1 -22v-18v-23q-1 -7 -2 -12t-2 -8l1 -8q-4 -8 -7 -21.5t-8 -32.5q-6 -2 -13 -18l-17 -9q-1 -2 -2 -3.5
t-2 -3.5q-8 -1 -14 -4t-9 -6q-8 -2 -18.5 -4t-23.5 -6q-23 3 -31 -4l-20 3l-6 -2l-6 2v-3q-10 1 -12 11v3l1 1v8q8 8 10.5 8t2.5 -2l-2 3q8 0 25 -3l14 5l6 -2l3 3q3 0 7.5 1t7.5 2l5 5h6q4 4 7 7.5t8 9.5q3 11 10 15q5 15 12 22l1 14l4 6v46l3 14l-5 11q0 5 1 11.5t2 15.5
l-1 6l4 13q0 5 -3 13.5t-3 13.5q0 2 1 6t2 11l-1 10l1 7l-1 6l3 7q0 5 1.5 12t1.5 11l-2 9l6 15v6l3 7l2 6l5 7q1 9 12 14l4 9q5 2 11.5 5.5t16.5 7.5l6 7l19 5l3 2l4 -3l8 6q-4 1 -12.5 3t-21.5 6q-3 0 -7 1t-8 4q-4 6 -20 13q-13 18 -25 23v7l-6 3l-15 54q1 2 1 10
q0 24 -1 23l-2 5v8l-1 4q2 6 1.5 16t-1.5 21t-1.5 21t1.5 15q0 3 -1 6.5t-2 5.5l4 11q-1 2 -1 5q0 1 -2 7h3q-6 34 -1 42q-2 5 -4 13t-4 19l-3 3v6l-3 5q-2 3 -3 6.5t-3 7.5l-5 3l-6 7l-6 2l-5 6l-40 12q-1 0 -3.5 -1.5t-4.5 -2.5l-4 3h-5l-4 -3l-8 4l-11 3l-6 10v7
q14 8 26 8l6 -3q6 -2 13 -0.5t18 3.5l14 -5l9 2l11 -3l3 -5h17q1 1 6 -6h6l8 -1q0 -1 5.5 -4.5t12.5 -9.5t13 -14t7 -17q6 -4 10 -15t6 -16v-4l1 -8l-1 -5l4 -21q2 -10 2 -21v-27l-2 -5l3 -6l-3 -6q3 -11 0 -23q3 -12 0 -38l3 -11q-1 -2 -2 -5.5t-2 -8.5l4 -12q-2 -3 0 -42
q4 -1 4 -12l-2 -3q5 -11 11.5 -22t14.5 -21q35 -21 59 -17l10 -5l8 3l-1 -3l10 -6z" />
    <glyph glyph-name="asciitilde" unicode="~" horiz-adv-x="569" 
d="M572 705q0 -43 -29 -74q-14 -19 -17 -29q-3 -4 -8 -9.5t-10 -12.5l-4.5 -4.5l-6.5 -6.5q-2 -1 -3.5 -2t-3.5 -2q-7 -3 -7 -8q3 -11 -9 -11q-11 -6 -25 -12.5t-32 -13.5h-5q-2 0 -4 -0.5l-6 -1.5q-15 -1 -21 -2t-1 -2l-31 3q-7 -4 -15 1q-4 3 -10 5l-4 2q-9 0 -23 2t-31 5
q-19 4 -26 6t-3 2q-2 0 -26 8q-5 0 -14.5 1t-20 2.5t-20.5 2.5t-16 1t-19.5 -4.5t-18.5 -4.5q-12 0 -19 -21q-9 -4 -18 -16q-2 -4 -5 -20q-1 -1 -4 -1q-2 0 -4 -2q-5 -3 -11.5 -6.5t-17.5 -7.5q-8 -1 -18.5 2t-22.5 11l6 12q-2 2 -2 5v7q9 35 11 29q-3 3 14 33q4 4 9 14
q-2 6 2 13q4 3 10 5q0 3 28 28q8 14 26 24q2 2 5 4t7 4q12 4 24.5 7t26.5 8q6 -1 13 -0.5t16 2.5q10 9 34 6q4 0 17 -5t19 -4q8 2 19.5 1t26.5 -4q7 -4 18.5 -8t29.5 -8q6 3 16 0q2 -1 3.5 -3t3.5 -4q2 2 7 4l6 -3t10 -4q2 1 15 1q13 -2 12 -3q2 2 5 4l6 4q8 -5 28 -5
q3 4 8 9.5t13 10.5q2 2 16 28q2 8 14 18q6 7 10 7q1 -1 1.5 -2t1.5 -2q2 -2 4 -3.5t3 -2.5q10 -1 20 4.5t13 5.5q5 0 9.5 -3.5t4.5 -13.5z" />
    <glyph glyph-name="exclamdown" unicode="&#xa1;" horiz-adv-x="175" 
d="M91 654q0 -5 -20 3t-20 15q0 5 -3 7.5t-6 7t-5 12.5t0 24q1 4 3.5 9t5.5 13l20 20q0 6 11 6q-6 0 3.5 -2t33.5 -6q9 0 16 -5.5t12 -13.5t7 -17.5t0 -18.5q0 -5 -2 -12t-5 -18q-1 -1 -1.5 -1t-1.5 -1q-2 -1 -6 -5l-10 -6zM75 578q3 8 11 8q23 0 23 -18q0 -2 1.5 -10.5
t3.5 -22.5q1 -8 2 -15t2 -12q1 -8 2 -16.5t2 -19.5q2 -18 4 -44.5t5 -62.5q1 -4 1 -26q0 -10 0.5 -23t1.5 -30q3 -15 7 -37t10 -52l9 -55q2 -17 2.5 -30.5t-0.5 -25.5q-2 -6 -4 -15t-6 -20q0 -3 -4.5 -8t-10.5 -10.5t-10.5 -9.5t-4.5 -5q0 -18 -36 -18q-45 0 -54 18
q-5 14 -20 34q-3 4 -6 13t-4 24q-6 31 0 31q0 6 1 11q1 6 2 14.5t3 19.5q6 46 10 46q6 0 19 91q6 42 9 67t5 33q6 87 6 89q7 51 18 87z" />
    <glyph glyph-name="cent" unicode="&#xa2;" horiz-adv-x="435" 
d="M435 311q-6 -40 -32 -82q-15 -23 -32 -35.5t-36 -16.5q-13 -4 -24.5 -7t-24.5 -7q-30 -7 -52 -3q-12 2 -28 4t-38 5q-2 -5 -3 -11t-3 -12q-2 -5 -7 -20t-10 -35q-2 -6 -5.5 -14t-7.5 -19q-5 -5 -11 -12t-13 -18q-3 -5 -8 -5q-8 0 -15 12.5t-3 22.5q1 10 5 25t13 42
q2 8 6.5 21.5t10.5 33.5q1 1 1 6q0 3 2 11q-8 7 -16 13.5t-15 14.5q-29 26 -29 29q0 1 -3.5 6.5t-8.5 13.5q-5 2 -10.5 11t-10 20t-7.5 22.5t-3 18.5q0 5 -4 17.5t-4 18.5q0 5 1 13.5t1.5 18t1.5 18.5t1 14q0 32 32 88q74 119 177 131q2 3 2.5 9.5t2.5 17.5q1 4 3 10t4 15
q2 6 3 13.5t4 18.5q2 15 9 34q10 11 21 32q3 7 8 7q8 0 16 -11.5t4 -22.5q0 -10 -3.5 -25t-8.5 -41q-2 -8 -4.5 -22.5t-6.5 -34.5l-2 -5q4 -2 8 -2.5t9 -2.5q4 -1 37 -20q27 -13 40 -13q5 0 10.5 6t10.5 13t10 13t9 6q8 0 15 -7t8 -21q3 -9 0 -24q-1 -10 -2 -15.5t-1 -7.5
v-37q0 -12 -0.5 -20.5t-0.5 -16.5t-0.5 -16.5t-2.5 -22.5q-7 -34 -14 -34q-2 0 -5 4t-5.5 9.5t-5 10.5l-3.5 7q0 6 -7 17t-7 17t-4 16t-10 19.5t-12.5 17.5t-11.5 10q-9 6 -18 12.5t-17 12.5q-35 23 -42 23q-3 0 -3 -3q0 4 -11 4h-11q-8 0 -12 -1t-7.5 -1t-7.5 -1
q-9 0 -23 -8.5t-20 -8.5q-5 -5 -9.5 -12t-9.5 -14q0 -2 -4 -9t-8.5 -14.5t-8.5 -13.5t-5 -6q-10 0 -12 -74q-3 -74 0 -74l17 -86q4 -20 43 -58q11 -12 32.5 -20t53.5 -14q25 -5 54 9q12 7 23.5 13t22.5 13q15 6 27.5 28t13.5 42q10 61 20 61q4 0 8 -6t6.5 -14.5t3.5 -18
t-1 -16.5z" />
    <glyph glyph-name="sterling" unicode="&#xa3;" horiz-adv-x="486" 
d="M495 243q-6 -86 -7 -86q-7 0 -19 -51q-1 -7 -7.5 -18t-16.5 -26q-22 -31 -33 -31q-1 0 -5 -2q-3 -3 -15 -7q-18 -8 -18 -5q0 -6 -52 -3q-25 0 -49.5 15.5t-47.5 30.5q-15 8 -27.5 11.5t-23.5 3.5q-10 0 -20 -15q-4 -5 -8 -9.5t-8 -10.5q-20 -17 -43 -25t-52 -6
q-24 2 -39 21t-15 45q0 15 7 29t18 25.5t25 19t29 9.5q13 4 31 7.5t43 6.5q3 0 6.5 3t7.5 7q6 6 9 10q2 0 -10 79q-11 80 -30 80q-2 0 -12.5 7t-15.5 7h-31q-16 -2 -26.5 -1t-16.5 2q-4 3 -10.5 5.5t-11.5 4.5t-8 3.5t-1 2.5q0 14 11 21.5t20 7.5h9q4 0 9.5 -0.5t12.5 -1.5
q20 -2 32 0q18 5 23 22v34q0 30 6 80q2 5 4 15t6 23q11 32 18 32q-1 0 11 17q6 10 10 14.5t5 5.5q22 24 34 26q12 7 33.5 14t52.5 14q5 1 9.5 1.5t9.5 0.5h9t9 1q27 3 34 -9q12 -2 19 -4q19 -5 19 -8q10 -6 19 -13t20 -15q4 -6 8.5 -12t12.5 -14q8 -4 10.5 -20t-2.5 -48
q-3 -26 -23 -44.5t-48 -18.5q-24 0 -42.5 17t-20.5 42q-1 18 17 41q19 22 19 37q0 11 -33 23q0 3 -17 3q-11 0 -24 -1.5t-24.5 -3.5t-19 -4.5t-7.5 -5.5q0 3 -8 -2.5t-24 -22.5q-7 -7 -10.5 -11t-5 -7t-2.5 -6t-4 -8q-2 0 2 -40q0 -7 3 -19.5t7 -26t7 -26t3 -19.5
q0 -4 3.5 -9.5l7 -11t7 -10t3.5 -6.5q0 -4 11 -9q12 -5 12 -6q0 -2 63 -2h12q4 0 8.5 0.5t9.5 1.5h30q8 0 15 -11.5t7 -21.5q0 -4 -3 -4q1 0 -3 -1.5t-10.5 -3t-14 -3t-12.5 -1.5q-6 0 -6 3h-19q-9 0 -22.5 -0.5t-32.5 -1.5q-42 0 -42 -91v-9q0 -28 -3 -38q0 -3 -9 -28
q-7 -16 -3 -28q5 -19 28 -24q3 -3 37 -10q22 -5 45.5 -6t49.5 0q42 5 68 74q1 8 2.5 15.5t3.5 15.5q3 13 5 18.5t4 8t4 2.5t5 2q7 4 10 4t5 -4t4 -9t3 -10t1 -6zM120 94q2 6 2 12q0 16 -24 16q-10 0 -22 -3.5t-22.5 -9.5t-17.5 -14t-7 -18q0 -13 22 -19q23 -5 23 -3
q20 13 31 23t15 16z" />
    <glyph glyph-name="currency" unicode="&#xa4;" horiz-adv-x="452" 
d="M232 380q10 -2 17.5 -2.5t14 -1.5t13.5 -4t17 -10l12 -17l12 12q5 2 11.5 6t14.5 10q6 5 16.5 12.5t26.5 18.5q2 2 12 11t16 12q2 2 4 2h5q7 0 23 -11q1 -2 5 -8q1 -1 1 -5q0 -2 2 -6q2 -6 2 -11q0 -8 -6.5 -10t-17.5 -7l-26 -18q-8 -4 -13.5 -13t-9.5 -11l-21 -17
q0 1 -2 1l-2 -1l-7 -5q12 -16 16 -33t4 -35v-45q0 -2 -2.5 -10t-6 -17.5t-6 -18t-2.5 -11.5v-1q4 -3 9 -9t13 -14q13 -11 39 -36q2 -1 13 -9t15 -13l1 -1q4 -4 4 -12t-7 -21q-1 -4 -6 -7q-1 -1 -4 -2.5t-6 -3.5q-7 -4 -12 -4q-6 0 -9.5 6t-9.5 14q-4 5 -11 11t-12 12
t-14.5 9.5t-13.5 6.5q-9 8 -16 21t-9 14q0 -1 -4.5 -4.5t-11 -8t-13.5 -9t-12 -7.5q-22 -12 -22 -13t-17 -6t-35 -5q-9 0 -21 4t-23 8.5t-19 9t-9 6.5q-4 -2 -11.5 -8t-15 -13t-14 -12.5t-8.5 -6.5q-5 -5 -9.5 -8l-7.5 -5t-5 -4h-5q-1 -2 -2.5 -3t-3.5 -3q-7 -3 -9 -8
l-23 -3q-7 0 -16 14q-5 10 -5 20q0 8 5 10q3 7 13 15q5 3 11.5 7.5t14.5 10.5q7 5 13 10.5t20 16.5q8 5 13 7.5l9 4.5q5 1 5 3.5t-2 5.5t-5 5.5t-5 3.5q-7 0 -14 31q-2 14 -4 22t-3 10q-1 3 -1 15q0 23 5 44t14 41v6l-22 22q-5 7 -15 10.5t-13 6.5q-10 8 -14.5 12.5
l-5.5 5.5v1q0 1 -0.5 1.5t-0.5 2.5q-2 2 -3.5 2.5t-3.5 2.5q-5 6 -10 8l-6 20q-1 1 -1 4q0 7 10 17q13 9 21 9q5 0 8 -3q7 -3 17 -10q3 -4 8.5 -9.5t12.5 -13.5q8 -5 17 -14l22 -22q2 -1 7.5 -4.5t10.5 -8.5q3 2 5.5 3t5.5 3l21 18l18 6q3 1 6 1l19 3q17 4 32 4zM140 197
q0 -12 4 -24q2 -13 4 -20t3 -10q0 -23 19 -45q15 -15 21 -15q5 -1 9 -1.5t8 -1.5q7 -2 13.5 -3t9.5 -1q6 0 6 2q8 0 42 25q2 0 10 17q4 9 4 15v1q3 0 5.5 8t2.5 10q1 11 1.5 22t0.5 22q0 6 -0.5 18t-0.5 23v8q0 6 -1.5 12l-3.5 14q-5 10 -6.5 16.5t-3.5 10.5q0 12 -12 26
t-25 19q-4 1 -9.5 2t-13.5 1q-5 0 -10 -0.5t-11 -1.5q-23 0 -26 -8q-1 -1 -5.5 -5t-12.5 -13q-4 0 -9 -17q-8 -18 -8 -20t-1 -22t-4 -58v-6z" />
    <glyph glyph-name="yen" unicode="&#xa5;" horiz-adv-x="720" 
d="M748 732q0 -20 -28 -23q-58 -1 -86 -35q-8 -12 -19.5 -24.5t-26.5 -27.5q-2 -1 -7.5 -5.5t-11.5 -9.5t-11 -9t-7 -4q-7 0 -19 -28q-10 -27 -15 -29q-5 -3 -9 -19q-2 -7 -3.5 -10t-3.5 -5.5t-4.5 -6t-5.5 -11.5q-5 -14 -6 -14q-7 0 -19 -29q-7 -25 -14 -30
q-31 -15 -43 -97q-1 -5 -2 -11t-1 -12q7 -1 25.5 0.5t39.5 -0.5q14 0 20 -4t14 -17q1 -8 -3.5 -20.5t-15.5 -12.5h-19h-25.5t-35.5 -1q2 -8 2 -17v-12.5t1 -15.5h13h7q3 0 7 0.5t9 1.5h26q14 -2 20 -5.5t14 -17.5q1 -8 -3.5 -19.5t-13.5 -11.5h-23q-10 0 -23 -0.5t-30 -1.5
q0 -53 2 -53q-2 0 -2 -2t4.5 -7.5t10.5 -11t10.5 -9t4.5 -1.5q0 -9 44 -9q6 1 12 1h11h25q35 -2 35 -23q0 -3 -0.5 -6.5t-3.5 -7t-10.5 -5.5t-22.5 -2q-16 0 -58 3q-4 1 -7.5 1h-6.5q-6 0 -9 1t-8 1q0 1 -52 0q-53 -3 -53 -1t-64 1q-70 -3 -71 -2q-2 2 -45 2h-2
q-2 0 -3.5 0.5t-4.5 0.5q-7 0 -10 8q-3 3 0 6q0 5 7 8q1 34 37 34q32 0 80 -23q30 11 36 40q2 4 2 17q0 7 0.5 16.5t1.5 21.5q-17 0 -47 3q-7 4 -16 7t-22 7q-9 1 -9 9t10.5 17t19.5 9q5 0 14 1.5t14 1.5h15h10t11 -1v46q-8 -2 -20 -0.5t-27 3.5q-7 4 -16 7t-22 7q-9 1 -9 8
q0 8 10.5 17t19.5 9q5 0 14 2t14 2q4 -1 14 -1h18l-3 32q0 4 -3 10.5t-7 13t-8 12t-5 7.5q-3 19 -11.5 31t-23.5 35q-2 2 -4 7.5t-4 12t-4 11.5t-5 6q-3 3 -17 36q-12 30 -15 30q-7 0 -17 30q-12 29 -16 29q-3 0 -13 28q-12 29 -19 32q-6 3 -12.5 10.5t-13 15.5t-13.5 15
t-16 10q-5 2 -14.5 2.5t-19.5 0t-19 -1t-13 -0.5q-10 4 -17 6t-8 10q-3 14 0 20q2 6 17 10q4 2 28 2t24 -5t57 0h83q76 0 76 2q0 -3 41 0q43 1 43 3l9 -9q9 -9 10 -14q1 -8 -7.5 -14t-17.5 -6h-9h-7.5t-9.5 1q-7 1 -12.5 1.5t-10.5 0.5h-16q-49 0 -50 -22q1 -7 3 -10t4.5 -6
t6 -8t7.5 -17q9 -12 9 -19q0 -3 22 -37q2 0 6 -5.5t7.5 -12t6.5 -13t3 -9.5q2 -8 7 -19.5t15 -26.5q20 -33 24 -44q2 -4 5 -12t11 -21q13 -24 18 -24q2 0 4.5 -1t4.5 -2q4 -3 9 0q4 0 13 10q2 2 3 4q2 2 3.5 5t4.5 7q5 8 8.5 12.5t3.5 2.5q0 13 24 49q13 19 20.5 30.5
t9.5 17.5q3 6 7.5 14.5t12.5 20.5q3 10 7 19t8 20q12 30 12 41q0 5 -1 6.5t-3.5 3t-6.5 4.5t-9 11q-4 9 -7 12q-2 2 -2 3q-5 5 -14.5 7.5t-20 4t-22 3t-20.5 4.5q0 1 -6 7t-6 11t3.5 9.5t22.5 6.5q25 4 66 3q8 -1 15.5 -1h13.5q16 0 21 -1t9 -1h7q4 0 67 3q17 1 32 2t26 1
q0 3 5 3q7 -1 16 -4.5t16 -8t10.5 -9t0.5 -6.5z" />
    <glyph glyph-name="brokenbar" unicode="&#xa6;" horiz-adv-x="131" 
d="M100 685q0 -10 -2.5 -26.5t-2.5 -26.5q0 -5 1 -21.5t2 -45.5q1 -13 1.5 -23.5t0.5 -18.5v-26v-9q0 -4 0.5 -8.5t1.5 -10.5v-31q-4 -17 -10 -24.5t-26 -16.5q-6 -1 -14.5 0t-16 4t-13 8t-5.5 11v17q0 13 -0.5 33.5t-1.5 49.5q-1 9 0 46v46q0 44 -1 43q1 5 1 18
q0 5 0.5 11.5t1.5 13.5q6 8 11.5 20t11.5 27q3 10 12 10q13 0 27.5 -12t14.5 -25q0 -5 3 -16.5t3 -16.5zM100 298q0 -8 -2.5 -25.5t-2.5 -26.5q0 -6 1 -22.5t2 -45.5q1 -12 1.5 -22.5t0.5 -18.5v-26v-10q0 -4 0.5 -8.5t1.5 -9.5v-31q-4 -17 -10 -24.5t-26 -16.5
q-6 -1 -14.5 0t-16 4t-13 8t-5.5 11v17q0 13 -0.5 33.5t-1.5 49.5q-1 9 0 46v46q0 44 -1 43q1 5 1 18q0 5 0.5 11.5t1.5 13.5q6 8 11.5 19.5t11.5 26.5q3 11 12 11q13 0 27.5 -12t14.5 -25q0 -5 3 -16.5t3 -17.5z" />
    <glyph glyph-name="section" unicode="&#xa7;" horiz-adv-x="325" 
d="M315 448q-30 -95 -49 -85q24 -45 36.5 -86t12.5 -79q0 -14 -2 -27.5t-5 -27.5q-16 -43 -30.5 -71t-29.5 -44t-32 -21.5t-38 -3.5q-23 2 -38 3t-23 5q-23 6 -54 37q-35 38 -35 92q0 19 5 38.5t14 35t22 25t29 9.5q25 0 40 -26q6 -34 -15 -53q-6 -5 -18.5 -11.5
t-29.5 -14.5q-6 -5 -6 -17t6 -18q23 -23 45 -33t46 -10q18 0 36 7q35 29 53.5 62t18.5 75q0 34 -16 62q-33 42 -120 91q-45 25 -74.5 45.5t-41.5 37.5q-45 56 -11 137q32 59 32 96q0 12 -4.5 27.5t-9.5 32t-9.5 32t-4.5 27.5q0 29 17 68q47 101 133 98q38 0 68 -24t39 -67
v-45q0 -19 -1 -22q-4 -20 -14 -32.5t-26 -20.5q-43 -6 -49 28q-7 10 -7 23q0 19 23 45q25 25 25 35q0 17 -35 31q-12 4 -30 4q-33 0 -61 -18t-37 -49q-1 -4 -1.5 -7t-0.5 -7v-12q0 -76 70 -131q31 -21 62.5 -42t63.5 -43q69 -48 69 -114q0 -18 -8 -47zM271 472
q-13 82 -82 114q-15 8 -46.5 15.5t-82.5 15.5q-2 -6 -2 -15q0 -27 10 -60q5 -20 24.5 -42t50.5 -46q67 -47 95 -40q38 23 33 58z" />
    <glyph glyph-name="dieresis" unicode="&#xa8;" horiz-adv-x="435" 
d="M462 1057q4 0 4 -6t-2.5 -16t-5.5 -19.5t-6.5 -17.5t-5.5 -10q-25 -31 -74 -31q-2 0 -7.5 2t-11.5 4.5t-11 4.5t-5 3q-17 22 -24 33l-4 6t-4 5v27q1 28 3 30q22 25 21 25l19 11q11 5 15.5 8.5t4.5 1.5q0 5 32 -3q33 -6 37 -15q30 -43 25 -43zM246 1057q5 0 5 -6t-2.5 -16
t-5.5 -19.5t-6.5 -17.5t-5.5 -10q-25 -31 -74 -31q-2 0 -7.5 2t-11.5 4.5t-11 4.5t-5 3q-8 11 -14 19.5t-11 13.5q-6 8 -8 11v27q1 7 1.5 12t0.5 9q0 8 1 9q24 25 22 25t18 11q11 5 15.5 8.5t4.5 1.5q0 4 33 -3q31 -6 37 -15q30 -43 24 -43z" />
    <glyph glyph-name="copyright" unicode="&#xa9;" horiz-adv-x="546" 
d="M542 555q0 -113 -82 -195q-80 -80 -194 -80q-115 0 -195 80t-80 195q0 114 80 194q82 82 195 82q112 0 194 -82t82 -194zM486 555q0 92 -64 156t-156 64q-91 0 -155 -64q-65 -65 -65 -156q0 -90 65 -155t155 -65q88 0 156 65q64 64 64 155zM394 483q-2 -14 -8 -29
t-15 -27.5t-20 -22t-23 -12.5q-17 -3 -34.5 -7.5t-35.5 -2.5q-17 3 -35.5 6t-31.5 12q-8 7 -15 13.5t-13 11.5q-20 14 -20 18q-4 9 -8.5 13.5t-12.5 21.5q-8 22 -8 28q0 4 -2.5 12t-2.5 11q0 8 2.5 22.5t2.5 22.5q0 11 4.5 25.5t15.5 31.5q44 74 103 84q31 7 61 -3
q8 -3 14.5 -7t13.5 -8q19 -10 28 -6q2 0 4.5 3.5t5.5 8t6.5 8.5t6.5 4q13 0 15 -18q0 -6 -1.5 -17.5t-1.5 -13.5v-51q0 -8 -3 -24q-2 -23 -9 -23q-7 3 -9.5 14t-7.5 18q-5 8 -5 13q0 6 -9 21q-9 16 -17 18q-7 5 -13 10t-13 10q-26 17 -26 11q0 3 -15 3q-13 -1 -17.5 -2
t0.5 -1q-6 0 -15.5 -5.5t-14.5 -5.5q-3 -3 -5.5 -7.5t-6.5 -9.5q0 -2 -2.5 -6.5t-5.5 -9.5t-6.5 -9t-5.5 -4q-1 0 -3 -23.5t-3 -74.5l11 -59q1 -5 8.5 -14.5t20.5 -23.5q15 -13 57 -23q18 -4 35.5 5.5t32.5 18.5q22 9 27 48q8 38 14 38q5 0 8.5 -13t2.5 -22z" />
    <glyph glyph-name="ordfeminine" unicode="&#xaa;" 
 />
    <glyph glyph-name="guillemotleft" unicode="&#xab;" horiz-adv-x="609" 
d="M635 120q5 -5 5 -15q0 -15 -9 -31t-22 -16q-2 0 -7 4q-10 2 -21.5 5.5t-26.5 9.5q-6 6 -14.5 13.5t-19.5 15.5q-4 2 -19 14t-41 35q-26 25 -42 38.5t-20 17.5q-20 16 -42.5 34.5t-49.5 40.5q-6 7 -16 18t-24 25q-21 5 -35 23q-6 6 -6 30q0 14 21 35q8 7 15.5 13.5t17 15
t23 20t32.5 28.5q37 48 77 98.5t83 104.5q5 6 11.5 14.5t14.5 19.5q7 4 15 4q15 0 31 -8.5t16 -21.5q0 -3 -4 -8q-1 -9 -5 -21t-10 -27q-7 -6 -14 -14.5t-15 -19.5q-2 -3 -14 -18t-35 -42q-23 -26 -37 -42t-19 -19q-16 -20 -34.5 -43t-40.5 -49q-4 -4 -9 -9.5t-13 -10.5
l27.5 -32.5t38.5 -43.5q48 -37 98.5 -77t105.5 -83q5 -5 14 -11.5t19 -14.5zM392 120q6 -5 6 -15q0 -15 -9.5 -31t-20.5 -16q-4 0 -8 4q-11 2 -22.5 5.5t-26.5 9.5q-6 6 -14 13.5t-19 15.5q-3 2 -18 14t-42 35q-26 25 -42 38.5t-21 17.5q-41 31 -90 75q-15 13 -40 43
q-24 5 -37 23q-5 8 -5 30q-2 15 20 35q9 7 17 13.5t17.5 15t22.5 20t32 28.5q38 48 77.5 98.5t82.5 104.5q5 6 11.5 14.5t14.5 19.5q4 4 16 4q14 0 29 -8.5t15 -21.5q0 -6 -1 -8q-2 -9 -6.5 -21t-10.5 -27q-12 -10 -28 -34q-2 -6 -50 -60q-23 -26 -37 -42t-17 -19
q-17 -20 -35 -43t-41 -49q-5 -4 -10.5 -9.5l-10.5 -10.5l27.5 -32.5t38.5 -43.5q48 -37 97.5 -77t103.5 -83q8 -5 15.5 -11.5t18.5 -14.5zM635 120q5 -5 5 -15q0 -15 -9 -31t-22 -16q-2 0 -7 4q-30 10 -48 15q-12 9 -20 16t-14 13q-4 2 -19 14t-41 35q-26 25 -42 38.5
t-20 17.5q-25 22 -48 40.5t-44 34.5l-40 43q-21 5 -35 23q-4 11 -6 18t0 12q0 14 21 35q16 13 32 29q20 17 34 29.5t22 18.5q43 54 83 104.5t77 98.5q8 11 14.5 19.5t11.5 14.5q7 4 15 4q15 0 31 -8.5t16 -21.5q0 -3 -4 -8q-5 -15 -9 -26.5t-6 -21.5q-9 -11 -16 -19.5
t-13 -14.5q-2 -3 -14 -18t-35 -42q-23 -26 -37 -42t-19 -19q-22 -26 -40.5 -49t-34.5 -43q-4 -4 -9 -9.5t-13 -10.5q65 -72 66 -76q55 -43 105.5 -83t98.5 -77q10 -8 19 -14.5t14 -11.5zM392 120q6 -5 6 -15q0 -15 -9.5 -31t-20.5 -16q-4 0 -8 4q-15 5 -26.5 9t-22.5 6
q-11 9 -19 16t-14 13q-3 2 -18 14t-42 35q-26 25 -42 38.5t-21 17.5q-50 43 -90 75l-40 43q-24 5 -37 23q-7 18 -5 30q-2 15 20 35q16 13 32 29q20 17 34 29.5t23 18.5q43 54 83 104.5t77 98.5q8 11 14.5 19.5t11.5 14.5q4 4 16 4q14 0 29 -8.5t15 -21.5q0 -6 -1 -8
q-6 -15 -10.5 -26.5t-6.5 -21.5q-19 -23 -28 -34q-2 -6 -50 -60q-23 -26 -37 -42t-17 -19q-23 -26 -41 -49t-35 -43q-5 -4 -10.5 -9.5l-10.5 -10.5q31 -36 47.5 -55t18.5 -21q54 -43 103.5 -83t97.5 -77q11 -8 20 -14.5t14 -11.5zM635 120q5 -5 5 -15q0 -15 -9 -31t-22 -16
q-2 0 -7 4q-10 2 -21.5 5.5t-26.5 9.5q-6 6 -14.5 13.5t-19.5 15.5q-4 2 -19 14t-41 35q-26 25 -42 38.5t-20 17.5q-20 16 -42.5 34.5t-49.5 40.5q-6 7 -16 18t-24 25q-21 5 -35 23q-6 6 -6 30q0 14 21 35q8 7 15.5 13.5t17 15t23 20t32.5 28.5q37 48 77 98.5t83 104.5
q5 6 11.5 14.5t14.5 19.5q7 4 15 4q15 0 31 -8.5t16 -21.5q0 -3 -4 -8q-1 -9 -5 -21t-10 -27q-7 -6 -14 -14.5t-15 -19.5q-2 -3 -14 -18t-35 -42q-23 -26 -37 -42t-19 -19q-16 -20 -34.5 -43t-40.5 -49q-4 -4 -9 -9.5t-13 -10.5l27.5 -32.5t38.5 -43.5q48 -37 98.5 -77
t105.5 -83q5 -5 14 -11.5t19 -14.5zM392 120q6 -5 6 -15q0 -15 -9.5 -31t-20.5 -16q-4 0 -8 4q-11 2 -22.5 5.5t-26.5 9.5q-6 6 -14 13.5t-19 15.5q-3 2 -18 14t-42 35q-26 25 -42 38.5t-21 17.5q-41 31 -90 75q-15 13 -40 43q-24 5 -37 23q-5 8 -5 30q-2 15 20 35
q9 7 17 13.5t17.5 15t22.5 20t32 28.5q38 48 77.5 98.5t82.5 104.5q5 6 11.5 14.5t14.5 19.5q4 4 16 4q14 0 29 -8.5t15 -21.5q0 -6 -1 -8q-2 -9 -6.5 -21t-10.5 -27q-12 -10 -28 -34q-2 -6 -50 -60q-23 -26 -37 -42t-17 -19q-17 -20 -35 -43t-41 -49q-5 -4 -10.5 -9.5
l-10.5 -10.5l27.5 -32.5t38.5 -43.5q48 -37 97.5 -77t103.5 -83q8 -5 15.5 -11.5t18.5 -14.5z" />
    <glyph glyph-name="logicalnot" unicode="&#xac;" horiz-adv-x="380" 
d="M357 160q-2 -10 -2 -19v-11t-1 -13q-12 -16 -23 -46q-3 -11 -13 -11q-12 0 -26.5 12t-14.5 25q0 6 -3 17t-3 17q0 8 2 25.5t2 26.5q-1 9 -2 23t-2 32l-46 -1h-48q-11 1 -19.5 1h-13.5h-12q-44 0 -43 -1q-14 0 -44 3q-8 6 -19.5 11.5t-25.5 11.5q-11 3 -11 12
q0 13 12 26.5t25 13.5q5 0 16.5 4t17.5 4q8 -1 25.5 -3t26.5 -2h21q8 0 19.5 0.5t25.5 1.5q26 2 43 2.5t25 -0.5q15 0 33 3t26 4q6 1 14.5 0t16 -4t13 -8t5.5 -11v-17v-33.5t1 -49.5v-1v-2q0 -45 2 -43z" />
    <glyph glyph-name="uni00AD" unicode="&#xad;" horiz-adv-x="371" 
d="M342 412q0 -6 -1 -14.5t-4 -16t-7.5 -13t-11.5 -5.5q15 0 -100 -3h-46h-46h-43q-8 0 -18.5 1t-24.5 2q-8 5 -19.5 10.5t-26.5 12.5q-11 3 -11 12q0 13 12 26.5t25 13.5q6 0 17 3.5t17 3.5q8 0 25.5 -1.5t26.5 -1.5h21h19.5t25.5 1q26 2 43 2.5t25 -0.5h11h8.5t9.5 1
q20 3 31 0q17 -1 24.5 -7.5t17.5 -26.5z" />
    <glyph glyph-name="registered" unicode="&#xae;" horiz-adv-x="546" 
d="M542 555q0 -113 -82 -195q-80 -80 -194 -80q-115 0 -195 80t-80 195q0 114 80 194q82 82 195 82q112 0 194 -82t82 -194zM486 555q0 92 -64 156t-156 64q-91 0 -155 -64q-65 -65 -65 -156q0 -90 65 -155t155 -65q88 0 156 65q64 64 64 155zM128 418q-3 6 0 10l14 3
q9 0 26 3q1 4 9 9q4 0 6 23v26q2 8 3.5 19.5t-0.5 26.5q-2 23 -3 35t-1 13v20q0 8 -0.5 18t-1.5 24v5q0 3 2 13q0 5 -2.5 11.5t-2.5 10.5q0 12 -25 12q-26 3 -27 9q-7 16 21 16q-6 0 2 -1t30 -2h10h9.5t13.5 1q29 3 29 0h6.5t8.5 -1t18 -1h11.5t13.5 -1q8 -1 13.5 -1.5
t10.5 -0.5q11 0 13 -1q28 -3 33 -14q1 -5 24 -15q22 -9 22 -28q0 -3 -1.5 -11.5t-3.5 -22.5q-1 -6 -5.5 -12t-12.5 -14q-5 -4 -17.5 -7.5t-35.5 -9.5q-9 -2 -9 -5q0 -1 4 -3.5t9 -5t9 -5t4 -4.5q23 -20 23 -32q17 -26 11 -26q4 -14 11 -31t15 -17q1 -3 4.5 0t6.5 8t5 10.5
t0 7.5q-3 0 -3 5t5 15.5t9 10.5q3 0 3 -6q6 -68 -17 -83q-30 -21 -39 -17q-9 1 -18 3t-13 10q-7 8 -16 34q-1 5 -1.5 12t-0.5 15t-0.5 17.5t-1.5 20.5q-1 30 -15 41q-23 17 -23 11q0 3 -25 2q-23 -5 -27 -6q-11 -11 -10 -48q-2 -20 0 -57q3 -13 10 -18q1 -2 9.5 -4.5
t8.5 -3.5h11q4 1 8 1h4q5 2 14 -2.5t9 -9.5q0 -3 -3.5 -6t-8 -5t-8 -2.5t-3.5 1.5h-78q-79 0 -79 1q0 2 -4 6zM235 657q0 -6 1.5 -15.5t3.5 -19t3.5 -18t1.5 -12.5q0 -7 47 -7q20 1 37 12q2 5 14 18q2 1 4.5 5.5t4.5 10.5t3.5 11.5t1.5 8.5t-3 3q-7 16 -19 32q-2 4 -23 11
q0 2 -6.5 3.5t-14.5 2.5t-15.5 1.5t-10.5 0.5q-17 -3 -25 -17q-2 -6 -5 -31z" />
    <glyph glyph-name="degree" unicode="&#xb0;" horiz-adv-x="178" 
d="M154 737q1 -5 1.5 -11t0.5 -11q0 -26 -10 -53q-3 -8 -11.5 -22t-25.5 -20q-5 -2 -10 -5.5t-13 -3.5h-4q-8 1 -16.5 1.5t-25.5 13.5q-12 12 -12.5 14t-4.5 8q-4 5 -6.5 9t-4.5 9q-4 11 -5.5 20t-1.5 12v9q0 10 -2 10v21q0 18 6 39l5 14q1 5 4 11t11 12q4 3 5.5 6t4.5 6.5
t9.5 7.5t20.5 8q2 1 9 1q15 0 28 -11q13 -9 20 -17.5t12 -16.5q5 -9 12 -24q0 -1 0.5 -1t0.5 -1q1 -5 1 -16q0 -4 0.5 -9t1.5 -10zM38 757v-26q0 -9 0.5 -20t1.5 -25q0 -24 2 -24q8 -16 10.5 -22.5t12.5 -14.5q4 0 9.5 -1.5t7.5 -1.5h1q4 1 8 3t9 4q5 5 11.5 12t6.5 16
q4 0 4 17v52q0 6 -2 21.5t-2 23.5q0 3 -12 38q-3 8 -9 10t-14 6h-9q-2 0 -4.5 -0.5t-6.5 -1.5q-6 0 -13.5 -10t-9.5 -27v-7q0 -4 -0.5 -9t-1.5 -13z" />
    <glyph glyph-name="plusminus" unicode="&#xb1;" horiz-adv-x="242" 
d="M258 326q2 -9 -2.5 -22t-12.5 -13h-35q-7 -1 -12 -1.5t-10 -0.5h-14h-6v-29v-13v-8.5t-1 -9.5q-8 -12 -17 -32q-2 -6 -8 -6q-13 2 -19.5 8.5t-9.5 14t-3.5 15t-1.5 11.5q0 5 1.5 17t1.5 20q0 12 -1 12h-30h-12q-4 0 -8.5 0.5t-9.5 1.5q-6 3 -14 7.5t-19 9.5q-7 1 -7 7
q0 10 8.5 20t17.5 10q3 0 11 2t12 2q6 0 18.5 -1.5t18.5 -1.5h14q-3 16 0 25v6q0 4 -2 14q-2 15 0 21q2 11 5.5 16.5t17.5 11.5q10 2 23 -2t13 -13v-36q1 -7 1 -12v-9v-14v-5q15 -1 30.5 0.5t32.5 -0.5q13 -1 18.5 -5t10.5 -18zM252 137q2 -8 -2 -21t-13 -13h-12h-24t-35 -1
h-34h-30h-30h-13h-8t-9 1q-10 6 -33 17q-6 3 -6 8q2 13 8.5 19.5t14 9.5t15 3.5t11.5 1.5q5 -2 17 -3t20 -1h15q5 0 13 0.5t18 1.5q36 3 48 0h7q3 0 13 2q14 2 22 0q10 -2 16 -6.5t11 -18.5z" />
    <glyph glyph-name="uni00B2" unicode="&#xb2;" horiz-adv-x="231" 
d="M208 591q0 -10 -2.5 -26t-2.5 -25q0 -10 -0.5 -14t-1.5 -5.5t-2.5 -2.5t-3.5 -4q0 -1 -0.5 -2t-0.5 -2v-1h-8q-3 -1 -8 -1q-41 -3 -69 0q-9 1 -24 0q-20 -3 -25 -3h-28q-21 2 -18 13q1 4 6 9t5 7q0 -4 9 17q6 6 17 23q3 6 12.5 16t31.5 28q10 6 16.5 11t10.5 11q1 6 9 15
q4 4 18 36q9 0 6 44q0 15 -3.5 26.5t-3.5 16.5q0 9 -6 14q-6 4 -10.5 7.5t-9.5 6.5q0 3 -17 3h-14q-5 0 -8 -1.5t-12 -9.5q-6 -5 -17 -9q-4 -5 -8 -12.5t-3 -18.5q3 -1 9 -7q2 -2 5 -2.5t17 -10.5q3 -3 5.5 -6.5t2.5 -8.5q0 -14 -8.5 -24.5t-21.5 -10.5q-12 0 -20 7
q-14 16 -17 33q-2 13 0 27q4 6 7 18.5t12 20.5q13 11 18.5 17t5.5 4q0 6 33 17q3 0 47 -3q19 -1 36 -16.5t23 -34.5q8 -30 8 -36q0 -26 -17 -57q-2 -4 -3 -6.5t-3 -6.5q-5 -1 -7.5 -4t-2.5 -6q0 -2 -6 -7.5t-8 -6.5q-7 -1 -15 -13q-8 -5 -17 -11.5t-18 -14.5q-4 -6 -13 -11
q-3 0 -15 -12q-2 -3 -5.5 -7t-6.5 -10q-6 -5 -6 -9q0 -12 40 -12q15 1 22.5 2t6.5 1q37 0 49 9q1 1 2.5 5.5t3 10t3 9.5t3.5 4q-3 0 6 26q3 3 7 0q3 -3 3 -6v-18z" />
    <glyph glyph-name="uni00B3" unicode="&#xb3;" horiz-adv-x="225" 
d="M197 558q1 0 -1.5 -4t-4.5 -9l-6 -14q0 1 -11 -13q0 -1 -7 -4.5t-7 -7.5q-13 -5 -22.5 -8.5t-9.5 -5.5q0 -7 -34 -4q-14 0 -22.5 1t-14.5 2.5t-12 4t-13 6.5q-7 7 -7 4q0 9 -9.5 17t-9.5 17q-1 47 23 52q6 0 20 -3q2 0 16 -14q1 0 1 -10q0 -9 0.5 -10t-9.5 -12
q-4 -1 -7.5 -4t-9.5 -8q-3 -12 12 -17q22 -9 22 -6q0 -3 20 -3q21 0 21 3q8 3 17.5 9t15.5 25q4 7 4 56q0 28 -17 36q-9 6 -13 14q-2 1 -6.5 2t-12.5 2q-4 -1 -9 -1h-11q-5 0 -11.5 -0.5t-14.5 -1.5q-8 0 -8 3q0 1 9 13l34 3q19 0 19 3l11 4q8 0 15.5 11.5t7.5 19.5
q1 11 2 23.5t-1 28.5q-1 18 -19 29t-36 10q-6 -2 -12 -3t-14 -5q-5 -2 -5 -11q0 -4 2 -6t5 -4.5t5 -6t2 -10.5q2 -16 -5 -20q-20 -16 -38 -8q-12 4 -14 20q1 -4 1 -4.5t0 2.5v28q0 5 5 12t13 14t17.5 12.5t18.5 7.5q6 2 15 2h28q5 0 13.5 -2.5t13.5 -2.5q13 0 36 -24
q21 -21 16 -57q-3 -26 -25 -42q-8 -11 -15 -12q0 -4 -16 -8q-7 0 -4 -7q1 -6 5 -7t7 -3q6 -3 9 -4t5.5 -2t6 -4t10.5 -10q7 -6 12 -20q8 0 11 -26q3 -28 -3 -28z" />
    <glyph glyph-name="acute" unicode="&#xb4;" horiz-adv-x="409" 
d="M440 1138q-2 -8 -5.5 -17t-6.5 -18q-4 -12 -34 -37q-32 -23 -42 -23l-6 -6q-13 -5 -27 -11t-31 -14l-3 -7q-21 -8 -43 -18.5t-47 -23.5q-5 -5 -7 -5q-6 2 -10 2l-1 -8q-19 -9 -38.5 -17.5t-38.5 -8.5q-20 0 -31 20q2 4 5.5 7t7.5 7q6 16 47 60q32 34 56 54l5 7.5t7 7.5
q9 11 19 22.5t21 26.5l11 2l4 11l10 7q1 4 4 7.5t6 6.5l17 6q16 25 26 25q6 0 8 -1q7 3 17.5 6.5t25.5 6.5q9 -6 25 -7q27 -21 34 -34q5 -15 9 -23.5t6 -12.5z" />
    <glyph glyph-name="mu" unicode="&#xb5;" horiz-adv-x="486" 
d="M71 -137q-10 2 -24 8.5t-14 14.5v1l14 61l13 58q2 10 3.5 16t1.5 9q0 2 -1 2q2 4 4 10.5t5 14.5q2 2 4 3t4 3v30q0 44 -3 124q1 4 1 13v15q0 20 -1 44t-3 53q-1 4 -6.5 12t-5.5 11q0 14 -28 23q-18 6 -35.5 11.5t-17.5 13.5q0 3 3.5 6t8 6t9 5t6.5 2t2 -1q70 4 81 6
q11 4 22 4q45 0 48 -36v-15q0 -27 -2 -62t-5 -78q-1 -5 -1 -15.5v-27.5v-90v-46q0 -5 6 -14.5t6 -12.5q0 -5 5 -8t11 -5.5t11 -4t5 -2.5q6 -8 16 -8q5 0 15 3t14 3q5 0 16.5 3.5t12.5 7.5q16 13 37 43q2 4 4 11t7 18q9 25 14 25t8 66q1 10 1 19v18t0.5 18t1.5 19v15
q0 99 -79 103l-24 3q-8 2 -11 7t-5 10v3q0 9 10 13t10 7h163q22 -1 22 -38q0 -9 -1.5 -25t-1.5 -21q-3 -134 -5 -134v-3q0 -2 -0.5 -4t-0.5 -6q0 -9 0.5 -24.5t1.5 -38.5q1 -37 2.5 -57.5t2.5 -26.5q5 -19 22.5 -24.5t34.5 -9.5q6 -2 12.5 -12t6.5 -16q0 -7 -7 -7t-19.5 -1
t-26.5 -2.5t-27.5 -2.5t-22.5 -1q-32 0 -53 10q-12 4 -12 35v11q0 19 -10 19q-4 0 -5 -1q-3 -1 -6 -5.5t-5.5 -9.5l-4.5 -9t-3 -5q-37 -46 -108 -46q-32 0 -68 14q-2 -11 -6 -30q-2 -16 -4 -26.5t-3 -15.5q-1 -1 -4 -18v-5q0 -9 -4 -14q-3 -11 -10.5 -14t-24.5 -5z" />
    <glyph glyph-name="paragraph" unicode="&#xb6;" horiz-adv-x="462" 
d="M435 0q-22 7 -48 9.5t-56 1.5q-42 -5 -82 -6l-32 9q2 17 40 38q42 23 52 46q-1 12 0 34q3 28 3 36q0 41 -38 58q-29 2 -58.5 4t-58.5 4q-69 6 -95 57q-49 37 -64 132q-2 32 -4 64.5t-3 64.5q-7 48 34 130q23 45 51.5 74t61.5 44q53 38 150 38q18 0 78 -3q46 -2 69 0
q-5 -85 -7.5 -186t-2.5 -221q0 -121 2.5 -226t7.5 -202zM383 766q-8 31 -40 26q-4 -52 -6 -103.5t-2 -103.5q0 -42 2 -104t6 -147t6 -152t2 -119h27q4 49 6 100.5t4 108.5q1 81 0 213q-1 45 -1.5 81t-0.5 64v79q0 45 -3 57zM294 283q-3 64 0 255q1 81 -1 143.5t-5 110.5
q-19 11 -40 11q-32 0 -66 -25l-8 -453q8 -23 31.5 -37t51.5 -14q20 0 37 9z" />
    <glyph glyph-name="periodcentered" unicode="&#xb7;" horiz-adv-x="751" 
d="M743 597q-8 -41 -38.5 -79t-70.5 -56q-15 -3 -30 -4t-29 -1q-67 0 -104 28q-46 52 -46 109v20q0 14 10 32.5t40 41.5q11 3 20.5 5t18.5 2q46 0 61 -35q10 -10 10 -25q0 -16 -31 -38q-29 -17 -29 -31q0 -15 23 -32q18 -5 32 -5q51 0 72 46q-1 4 -3 14.5t-7 27.5
q-4 17 -6 30t-2 22q0 37 28 56q1 13 -4 25.5t-18 26.5l-42 41q-41 19 -109 19q-17 -14 -27 -48q-15 -49 -19 -55q-16 -30 -49 -37q-10 -7 -45 -17q-28 -13 -41 -28q9 -26 4 -46q-5 -11 -27 -11q-18 0 -40 7q-20 15 -27.5 42t-12.5 53q-25 -28 -25 -75q0 -31 11 -51
q13 4 35 4q60 0 74 -50q2 -2 6.5 -13t15.5 -34q7 -15 15 -24.5t17 -15.5h28q11 -20 -10 -50q-26 -35 -26 -42q0 -17 40 -29q16 4 16 25v13q0 22 20 25q52 7 63 -28q1 -5 2 -10.5t1 -10.5q0 -61 -66 -86q-42 -19 -105 -19q-62 0 -103 23q-4 -1 -12.5 -6.5t-23.5 -14.5
q-10 -8 -19 -11t-17 -3q-13 0 -23.5 7.5t-10.5 20.5q0 5 5 18.5t5 19.5q-90 76 -90 166q0 24 9 48q7 16 31 20q25 6 27 24q-3 8 -5 15.5t-2 17.5q0 21 12 60q14 42 14 54q0 32 -46 32h-13q-3 0 -6 -0.5t-7 -1.5q-20 0 -20 17q0 20 20 37q8 8 19 11.5t16 7.5q11 20 20 38.5
t18 38.5q24 44 62 53q24 7 48 7q58 0 75 -47q11 3 23.5 7.5t27.5 12.5q19 10 31.5 16.5t20.5 8.5q-8 32 -8 45q0 22 13 41q6 3 14 3q27 0 41 -35q11 0 26.5 1t35.5 4q23 2 39 3t24 1q62 0 92 -44q4 -10 5 -18t1 -15q0 -23 -20 -40q83 -85 83 -206q0 -16 -1 -32.5t-5 -33.5z
M675 678q-10 -6 -10 -15q0 -6 4.5 -17t5.5 -12v44zM543 648q-5 21 -45 21q-40 -10 -40 -72l27 46q6 2 12 -2t12 -9t11.5 -9.5t10.5 -2.5q12 4 12 28zM694 783q-12 37 -57 57q-60 29 -71 38q10 11 26 11h8h6.5t7.5 -1q12 -3 20 0q2 9 3 17t1 13q0 45 -44 45q-11 0 -54 -8
q-39 -6 -58 -6q-40 0 -60 23q5 -35 49 -72q-28 -6 -55.5 -12.5t-55.5 -13.5q-65 -18 -102 -60q-9 6 -9 18q0 6 5.5 20t3.5 22q-26 17 -49 17q-31 0 -61 -34q-8 -8 -19 -25t-27 -43q-28 -42 -37 -47q15 -16 32 -16t46 20q30 21 43 23q5 0 5 -7q-3 -10 0 -11q-57 -53 -57 -156
q0 -71 24 -138q-11 -15 -20 -15q-5 0 -16 26q-12 26 -27 26q-30 -26 -30 -56q0 -14 10 -35.5t33 -50.5q44 -59 44 -87q0 -9 -3 -16q14 5 25 20q7 12 11 17.5t6 7.5q7 2 16.5 -1.5t18.5 -9t16.5 -10.5t11.5 -7q33 -11 69 -11q73 0 122 43q7 13 7 28q0 19 -12 22
q-12 -12 -9 -17q4 -3 4 -8q0 -6 -18 -25q-21 -6 -37 -6q-33 0 -54 30q-17 15 -17 43q0 43 31 43q-36 10 -62 70q-24 63 -60 70q-24 -15 -24 -39q0 -7 2.5 -18t6 -22.5t7 -22.5t4.5 -18q1 -13 20 -39q20 -25 20 -40q0 -11 -9 -23q-62 49 -96 171q-6 39 -6 77q0 151 111 232
q3 -3 6 -3q6 0 13 6t12 6q6 0 10 -4q0 -2 -32 -54q-21 -35 -21 -63q0 -13 3 -25q11 -38 32 -44q-4 24 4.5 42t30.5 28q20 8 40 16.5t40 16.5q45 25 39 78q-10 17 -27.5 24.5t-35.5 15.5q42 11 76 15.5t62 4.5q116 0 169 -78q15 -55 23 -90.5t8 -52.5q0 -23 -5.5 -41
t-15.5 -33q-35 -71 -107 -71q-20 0 -38 6q-55 28 -55 60q0 8 4 12q-3 0 -9.5 -4.5t-10.5 -4.5q-3 0 -6 6v-13q7 -19 18.5 -34.5t26.5 -27t32 -17t35 -3.5q80 8 114 68q31 56 31 120q0 55 -26 115z" />
    <glyph glyph-name="periodcentered" unicode="&#x2219;" horiz-adv-x="751" 
d="M743 597q-8 -41 -38.5 -79t-70.5 -56q-15 -3 -30 -4t-29 -1q-67 0 -104 28q-46 52 -46 109v20q0 14 10 32.5t40 41.5q11 3 20.5 5t18.5 2q46 0 61 -35q10 -10 10 -25q0 -16 -31 -38q-29 -17 -29 -31q0 -15 23 -32q18 -5 32 -5q51 0 72 46q-1 4 -3 14.5t-7 27.5
q-4 17 -6 30t-2 22q0 37 28 56q1 13 -4 25.5t-18 26.5l-42 41q-41 19 -109 19q-17 -14 -27 -48q-15 -49 -19 -55q-16 -30 -49 -37q-10 -7 -45 -17q-28 -13 -41 -28q9 -26 4 -46q-5 -11 -27 -11q-18 0 -40 7q-20 15 -27.5 42t-12.5 53q-25 -28 -25 -75q0 -31 11 -51
q13 4 35 4q60 0 74 -50q2 -2 6.5 -13t15.5 -34q7 -15 15 -24.5t17 -15.5h28q11 -20 -10 -50q-26 -35 -26 -42q0 -17 40 -29q16 4 16 25v13q0 22 20 25q52 7 63 -28q1 -5 2 -10.5t1 -10.5q0 -61 -66 -86q-42 -19 -105 -19q-62 0 -103 23q-4 -1 -12.5 -6.5t-23.5 -14.5
q-10 -8 -19 -11t-17 -3q-13 0 -23.5 7.5t-10.5 20.5q0 5 5 18.5t5 19.5q-90 76 -90 166q0 24 9 48q7 16 31 20q25 6 27 24q-3 8 -5 15.5t-2 17.5q0 21 12 60q14 42 14 54q0 32 -46 32h-13q-3 0 -6 -0.5t-7 -1.5q-20 0 -20 17q0 20 20 37q8 8 19 11.5t16 7.5q11 20 20 38.5
t18 38.5q24 44 62 53q24 7 48 7q58 0 75 -47q11 3 23.5 7.5t27.5 12.5q19 10 31.5 16.5t20.5 8.5q-8 32 -8 45q0 22 13 41q6 3 14 3q27 0 41 -35q11 0 26.5 1t35.5 4q23 2 39 3t24 1q62 0 92 -44q4 -10 5 -18t1 -15q0 -23 -20 -40q83 -85 83 -206q0 -16 -1 -32.5t-5 -33.5z
M675 678q-10 -6 -10 -15q0 -6 4.5 -17t5.5 -12v44zM543 648q-5 21 -45 21q-40 -10 -40 -72l27 46q6 2 12 -2t12 -9t11.5 -9.5t10.5 -2.5q12 4 12 28zM694 783q-12 37 -57 57q-60 29 -71 38q10 11 26 11h8h6.5t7.5 -1q12 -3 20 0q2 9 3 17t1 13q0 45 -44 45q-11 0 -54 -8
q-39 -6 -58 -6q-40 0 -60 23q5 -35 49 -72q-28 -6 -55.5 -12.5t-55.5 -13.5q-65 -18 -102 -60q-9 6 -9 18q0 6 5.5 20t3.5 22q-26 17 -49 17q-31 0 -61 -34q-8 -8 -19 -25t-27 -43q-28 -42 -37 -47q15 -16 32 -16t46 20q30 21 43 23q5 0 5 -7q-3 -10 0 -11q-57 -53 -57 -156
q0 -71 24 -138q-11 -15 -20 -15q-5 0 -16 26q-12 26 -27 26q-30 -26 -30 -56q0 -14 10 -35.5t33 -50.5q44 -59 44 -87q0 -9 -3 -16q14 5 25 20q7 12 11 17.5t6 7.5q7 2 16.5 -1.5t18.5 -9t16.5 -10.5t11.5 -7q33 -11 69 -11q73 0 122 43q7 13 7 28q0 19 -12 22
q-12 -12 -9 -17q4 -3 4 -8q0 -6 -18 -25q-21 -6 -37 -6q-33 0 -54 30q-17 15 -17 43q0 43 31 43q-36 10 -62 70q-24 63 -60 70q-24 -15 -24 -39q0 -7 2.5 -18t6 -22.5t7 -22.5t4.5 -18q1 -13 20 -39q20 -25 20 -40q0 -11 -9 -23q-62 49 -96 171q-6 39 -6 77q0 151 111 232
q3 -3 6 -3q6 0 13 6t12 6q6 0 10 -4q0 -2 -32 -54q-21 -35 -21 -63q0 -13 3 -25q11 -38 32 -44q-4 24 4.5 42t30.5 28q20 8 40 16.5t40 16.5q45 25 39 78q-10 17 -27.5 24.5t-35.5 15.5q42 11 76 15.5t62 4.5q116 0 169 -78q15 -55 23 -90.5t8 -52.5q0 -23 -5.5 -41
t-15.5 -33q-35 -71 -107 -71q-20 0 -38 6q-55 28 -55 60q0 8 4 12q-3 0 -9.5 -4.5t-10.5 -4.5q-3 0 -6 6v-13q7 -19 18.5 -34.5t26.5 -27t32 -17t35 -3.5q80 8 114 68q31 56 31 120q0 55 -26 115z" />
    <glyph glyph-name="cedilla" unicode="&#xb8;" horiz-adv-x="402" 
d="M431 -146q0 -20 -14 -56l-9 -18q-20 -27 -23 -28q-13 -11 -30 -14l-12 -6q-4 -1 -10 -1.5t-10 -8.5l-18 -4h-17q2 0 -2 -0.5t-10 -0.5q-13 0 -21 -2q-8 2 -22 4.5t-19 2.5l-8 4l-11 3q-2 2 -6.5 4t-11.5 7q-3 -3 -19 0l-10 6q-11 3 -13 2q-26 1 -27 9q-89 23 -86 58v20
q10 10 19.5 17.5t27.5 9.5q7 -14 48 -30l55 -23q2 1 8 -0.5t12.5 -3.5t12 -3.5t6.5 -1.5h15q8 2 9 2h7q11 1 18 4t13 6.5t13 8.5t17 10l2 27q2 12 -5 19q0 19 -19.5 28.5t-43.5 9.5q-12 0 -22 -3q-6 2 -17 2q0 2 -13 24l-2 13l9 18q5 3 5 8q0 4 -4.5 11t-4.5 10q3 2 5 5l4 6
l54 -1q4 -17 0 -36q3 2 7.5 4t9.5 4q12 -3 20 2q6 -7 10 0q10 -4 11 -10q4 2 11 2q12 0 20 -6l8 1q14 -8 30 -15.5t17 -22.5q2 0 3 -1.5t5 -3.5q0 -1 7 -9t8 -14l5.5 -11t4.5 -10q2 -11 0 -20q3 0 3 -8z" />
    <glyph glyph-name="uni00B9" unicode="&#xb9;" horiz-adv-x="206" 
d="M191 488q9 -3 9 -10q0 -6 -12 -9h-6q-2 0 -8 2h-14q-47 1 -63 0q-82 -7 -82 9q0 8 16 9q3 -1 9 -1h9q6 0 13 0.5t13 4.5t9.5 13t1.5 26v93q-1 45 0 61q0 10 -3 31q0 4 -5.5 7.5t-5.5 4.5q0 3 -21 3h-23q-17 3 -20.5 8t-1.5 5q2 2 2.5 4t3 4t8 3t17.5 1q12 2 23 0l14 3
q7 0 11.5 3.5t8 8t6 8.5t5.5 5q5 5 6.5 7t3 3t3.5 0.5t7 -0.5q1 -1 3 -2.5l6 -4.5l-2 -74q-1 -67 0 -200q0 -9 11 -20q7 -4 23 -6h25z" />
    <glyph glyph-name="ordmasculine" unicode="&#xba;" horiz-adv-x="977" 
d="M954 498q9 -39 9 -69q0 -42 -15 -72q-21 -42 -79 -52q-24 -2 -49 -4t-49 -4q-52 12 -68 57q-1 3 -2 6.5t-1 7.5q0 5 3.5 13t8.5 16q9 12 13.5 18.5t7.5 10t7 5l12 4.5q11 4 16 17q-15 3 -28 3q-19 0 -40.5 -7t-44.5 -13q-24 -14 -24 -40q0 -10 9 -17l11 -7
q-26 -48 -77 -48q-16 0 -29 6q-13 13 -31 13q-4 0 -12.5 -1t-17.5 -2.5t-18 -2.5t-14 -1q-15 -20 -46 -20q-6 0 -11 1l-10 2l-3 7q-7 -14 -19 -21t-27 -11t-31 -5t-30 -3q-27 -3 -55 -3q-117 0 -171 75q-26 44 -26 94q0 121 174 121q55 -10 55 -66q0 -51 -29 -71v-4
q26 3 46 7.5t31 7.5q44 14 68 42q4 7 4 18q0 14 -9 25t-20 11q9 12 29 12q7 0 42 -6q6 -5 12 -6q7 -3 12 0q7 10 22 10q5 0 13.5 -2t17 -5t16 -5t11.5 -2q19 0 27 24q9 -16 24 -16q16 0 54 20q40 22 60 22q8 0 20 -5q37 14 75 14q55 0 103.5 -25.5t72.5 -73.5zM918 498
q-44 74 -149 74q-18 0 -37 -3q-4 1 -7 1.5t-7 0.5h-12q-15 0 -36 -4.5t-47 -15.5q-51 -20 -86 -20q-3 -25 14 -25q4 0 12.5 2.5t17.5 6t17.5 6t13.5 2.5q8 0 14 -3q-2 -5 -21 -14q9 2 26.5 5t43.5 11q41 10 71 10q11 0 20 -1t19 -5v-6q-6 2 -10 2h-10q-11 0 -23.5 -2.5
t-29.5 -5.5q-22 -6 -34.5 -8.5t-15.5 -3.5q-8 -2 -18.5 -5.5t-21.5 -11.5q-18 -11 -26 -16.5t-10 -5.5q8 2 21 7t19 5q9 0 17 -9l-14 -11q-4 1 -11 -2t-14 -7t-13 -7.5t-9 -3.5q-9 0 -20 17l10 11q-15 0 -30.5 -8t-29.5 -13q-10 10 -10 18q9 12 40 20q30 7 38 18l-65 -21
q-9 4 -9 8q0 3 6 8.5t6 9.5t-3 6q-2 11 -18 17q-23 10 -23 11q-3 -14 0 -39q2 -16 3 -26t1 -14q0 -16 -4 -23q12 3 21 3q25 0 49.5 -18t47.5 -35l-6 -16q-16 5 -49 34q-14 12 -26 12q-6 0 -14.5 -3.5t-16.5 -7t-15.5 -7t-12.5 -3.5q-11 0 -21 9q2 5 -1.5 10.5t-8 11.5
t-9 11.5t-4.5 9.5q0 8 6 14l17 -15q9 27 7 32q-15 55 -46 54q7 -14 0 -36q-21 -46 -89 -75q-57 -25 -117 -25q-27 0 -38 8q-37 18 -37 54q0 12 6 20q12 38 60 38q23 -5 23 -20q0 -16 -11 -22.5t-27 -12.5q-1 -7 15 -25q24 0 49 25q4 8 5 16.5t1 18.5q0 45 -27 60
q-21 3 -42 3q-115 0 -115 -96q0 -27 6.5 -49t19.5 -42q44 -62 134 -62q20 0 63.5 8t113.5 23q23 0 40.5 13t19.5 36q4 -5 5.5 -11t3.5 -11t5 -8t10 -2q17 0 40 38q11 0 18 -11t13 -24q16 -12 65 -3l-8 46q2 35 37 48q14 3 27.5 7.5t27.5 7.5q4 2 14 2.5t25 2.5q7 1 12 1h10
h18q66 0 95 -47q8 -54 -29 -68q-14 -2 -22 -3.5t-10 -1.5q-22 0 -31 16q-3 24 14 24h4q4 0 6 -1h11q14 0 22 12q-4 25 -30 25q-3 0 -6.5 -1t-6.5 -2q-59 -26 -59 -54q0 -5 2 -11q11 -26 40 -42q111 0 147 50q17 23 17 64q0 40 -14 66zM418 414q0 -20 -21 -20q-20 0 -20 20
t20 20q21 0 21 -20zM375 394q0 -17 -18 -17q-17 0 -17 17q0 18 17 18q18 0 18 -18zM334 377q0 -15 -16 -15q-15 0 -15 15t15 15q16 0 16 -15zM286 365q0 -11 -11 -11q-12 0 -12 11q0 12 12 12q11 0 11 -12zM238 357q0 -11 -10 -11q-11 0 -11 11q0 12 11 12q10 0 10 -12z
M202 354q-14 -11 -37 -11q-51 0 -48 35q16 -18 37 -18q9 0 22 4t16 4q7 0 10 -14z" />
    <glyph glyph-name="guillemotright" unicode="&#xbb;" horiz-adv-x="634" 
d="M640 382q2 -5 -0.5 -12t-5.5 -18q-11 -18 -36 -23l-40 -43q-20 -16 -42.5 -34.5t-49.5 -40.5q-3 -4 -19 -17.5t-42 -38.5q-27 -23 -42 -35t-18 -14q-6 -6 -14 -13t-19 -16q-11 -2 -22.5 -6t-26.5 -9q-1 -4 -8 -4q-10 0 -20 16t-10 31q0 11 4 15q7 5 15 11.5t19 14.5
q48 37 98.5 77t104.5 83q2 2 18.5 21t47.5 55l-10.5 10.5t-10.5 9.5q-17 20 -35 43t-41 49q-3 3 -17 19t-38 42q-47 55 -49 60q-9 11 -28 34q-2 10 -6.5 21.5t-10.5 26.5q-1 2 -1 8q0 13 14.5 21.5t29.5 8.5q12 0 16 -4q5 -6 11.5 -14.5t14.5 -19.5q37 -48 77 -98.5
t83 -104.5q9 -6 23 -18.5t34 -29.5q15 -16 32 -29q20 -20 20 -35zM398 382q2 -5 0 -12t-6 -18q-14 -18 -35 -23l-42 -43q-41 -32 -90 -75q-11 -8 -60 -54q-55 -49 -62 -51q-6 -6 -14.5 -13t-19.5 -16q-9 -2 -21.5 -6t-27.5 -9q-4 -4 -8 -4q-11 0 -20 16t-9 31q0 10 5 15
t14 11.5t20 14.5q48 37 97.5 77t103.5 83q2 2 19 21t49 55q-7 5 -12.5 10.5l-9.5 9.5q-16 20 -34.5 43t-40.5 49q-5 3 -19 19t-37 42q-23 27 -35 42t-14 18q-5 6 -12.5 14.5t-16.5 19.5q-2 10 -6 21.5t-9 26.5q-3 4 -3 8q0 13 15.5 21.5t30.5 8.5q8 0 15 -4q8 -15 26 -34
q37 -48 77 -98.5t83 -104.5q8 -6 22 -18.5t34 -29.5q15 -16 32 -29q21 -21 21 -35zM640 382q0 -23 -6 -30q-11 -18 -36 -23q-24 -30 -40 -43q-25 -22 -48 -40.5t-44 -34.5q-3 -4 -19 -17.5t-42 -38.5q-27 -23 -42 -35t-18 -14q-11 -8 -19.5 -15t-13.5 -14q-15 -6 -27.5 -9.5
t-21.5 -5.5q-1 -4 -8 -4q-10 0 -20 16t-10 31q0 11 4 15q11 8 19.5 14.5t14.5 11.5q54 43 104.5 83t98.5 77q22 24 38.5 43.5l27.5 32.5l-10.5 10.5t-10.5 9.5q-22 26 -40.5 49t-35.5 43q-3 3 -17 19t-38 42q-47 55 -49 60q-16 24 -28 34q-6 15 -10.5 27t-6.5 21q-1 2 -1 8
q0 13 14.5 21.5t29.5 8.5q12 0 16 -4q8 -11 14.5 -19.5t11.5 -14.5q43 -54 83 -104.5t77 -98.5q19 -17 32 -28.5t23 -20t17.5 -15t16.5 -13.5q20 -20 20 -35zM398 382q-2 -23 -6 -30q-14 -18 -35 -23q-14 -15 -24 -25.5t-18 -17.5q-50 -44 -90 -75q-11 -8 -60 -54
q-55 -49 -62 -51q-11 -8 -19.5 -15.5t-14.5 -13.5q-15 -6 -26.5 -9.5t-22.5 -5.5q-4 -4 -8 -4q-11 0 -20 16t-9 31q0 10 5 15q11 8 18.5 14.5t15.5 11.5q54 43 103.5 83t97.5 77q22 24 39 43.5t29 32.5q-7 5 -12.5 10.5l-9.5 9.5q-22 26 -41 49t-34 43q-5 3 -19 19t-37 42
q-23 27 -35 42t-14 18q-20 27 -29 34q-6 15 -10 27t-5 21q-3 4 -3 8q0 13 15.5 21.5t30.5 8.5q8 0 15 -4q8 -11 14.5 -19.5t11.5 -14.5q43 -54 83 -104.5t77 -98.5q18 -17 31.5 -28.5t23.5 -20t18 -15t15 -13.5q21 -21 21 -35zM640 382q2 -5 -0.5 -12t-5.5 -18
q-11 -18 -36 -23l-40 -43q-20 -16 -42.5 -34.5t-49.5 -40.5q-3 -4 -19 -17.5t-42 -38.5q-27 -23 -42 -35t-18 -14q-6 -6 -14 -13t-19 -16q-11 -2 -22.5 -6t-26.5 -9q-1 -4 -8 -4q-10 0 -20 16t-10 31q0 11 4 15q7 5 15 11.5t19 14.5q48 37 98.5 77t104.5 83q2 2 18.5 21
t47.5 55l-10.5 10.5t-10.5 9.5q-17 20 -35 43t-41 49q-3 3 -17 19t-38 42q-47 55 -49 60q-9 11 -28 34q-2 10 -6.5 21.5t-10.5 26.5q-1 2 -1 8q0 13 14.5 21.5t29.5 8.5q12 0 16 -4q5 -6 11.5 -14.5t14.5 -19.5q37 -48 77 -98.5t83 -104.5q9 -6 23 -18.5t34 -29.5
q15 -16 32 -29q20 -20 20 -35zM398 382q2 -5 0 -12t-6 -18q-14 -18 -35 -23l-42 -43q-41 -32 -90 -75q-11 -8 -60 -54q-55 -49 -62 -51q-6 -6 -14.5 -13t-19.5 -16q-9 -2 -21.5 -6t-27.5 -9q-4 -4 -8 -4q-11 0 -20 16t-9 31q0 10 5 15t14 11.5t20 14.5q48 37 97.5 77
t103.5 83q2 2 19 21t49 55q-7 5 -12.5 10.5l-9.5 9.5q-16 20 -34.5 43t-40.5 49q-5 3 -19 19t-37 42q-23 27 -35 42t-14 18q-5 6 -12.5 14.5t-16.5 19.5q-2 10 -6 21.5t-9 26.5q-3 4 -3 8q0 13 15.5 21.5t30.5 8.5q8 0 15 -4q8 -15 26 -34q37 -48 77 -98.5t83 -104.5
q8 -6 22 -18.5t34 -29.5q15 -16 32 -29q21 -21 21 -35z" />
    <glyph glyph-name="onequarter" unicode="&#xbc;" horiz-adv-x="486" 
d="M185 454q-2 -6 -136 -6q-1 0 -12 -5.5t-19 -5.5q-14 0 -16 23q-3 9 15 9q-7 -1 -8.5 -1t0.5 0h29q27 0 37 10.5t10 36.5q0 84 -1.5 136t-5.5 75l-12 14q-48 0 -69 8l-5 9q12 17 23 17q-2 0 5 -1t22 -2q12 1 29 6q23 8 23 14q6 10 18 21l13 2l10 -9q-1 -36 -2 -88.5
t-1 -124.5v-95q0 -19 14 -19q4 0 10.5 2t11.5 2q17 0 17 -28zM494 797q-2 -11 -6.5 -22.5t-10.5 -26.5q-6 -6 -13 -14.5t-16 -19.5q-84 -161 -127 -243t-50 -89q-32 -57 -67 -115t-73 -121q-9 -9 -42 -77q-25 -58 -41 -58q-26 0 -40 23q-6 5 -6 29t61 91q6 6 27 44t59 110
t59.5 110.5t26.5 43.5q4 3 24.5 44t62.5 122q40 81 62 122.5t25 44.5q4 8 10.5 15.5t15.5 18.5q5 5 14 5q15 0 30.5 -9.5t15.5 -19.5q0 -7 -1 -8zM491 112l-13 -15h-38q-17 -5 -17 -29q0 -46 22 -46h26q18 -3 18 -11q0 -11 -21 -11h-130q-38 0 -38 9q0 11 25 11q36 0 41 6
q5 8 8 51l-8 18l-17 2h-11q-6 0 -16.5 -0.5t-24.5 -1.5q-39 -1 -46 7l-3 9q1 3 2.5 9l3.5 14q23 38 58 93.5t83 130.5l16 8q14 0 14 -20q0 -11 -1 -27t-2 -41q-2 -23 -3 -40t-1 -29q0 -41 7 -63q2 -10 12.5 -11.5t22.5 -2t21.5 -3.5t9.5 -15v-2zM375 192q0 73 -10 73
q-5 0 -14 -16q-73 -104 -73 -107q0 -11 77 -11q18 0 20 24v37z" />
    <glyph glyph-name="onehalf" unicode="&#xbd;" horiz-adv-x="522" 
d="M186 454q-2 -6 -134 -6q-3 0 -14 -5.5t-16 -5.5q-16 0 -19 23q-2 9 15 9q-6 -1 -7.5 -1t0.5 0h31q26 0 35 10.5t9 36.5q0 84 -1 136t-5 75l-12 14q-48 0 -70 8l-4 9q12 17 23 17q-2 0 4.5 -1t21.5 -2q15 1 29 6q23 8 23 14q8 12 19 21l12 2l11 -9q-1 -18 -1.5 -40.5
t-0.5 -48.5v-124v-95q0 -19 13 -19q3 0 10.5 2t10.5 2q17 0 17 -28zM495 797q-2 -11 -6.5 -22.5t-10.5 -26.5q-5 -6 -12 -14.5t-15 -19.5q-164 -318 -179 -332q-31 -57 -66.5 -115t-73.5 -121q-10 -10 -40 -77q-27 -58 -43 -58q-23 0 -40 23q-2 3 -3 10.5t-3 18.5
q0 24 62 91q12 14 86 154q38 72 59 110t27 44q4 3 24 44t62 122q83 163 88 167q5 8 11.5 15.5t14.5 18.5q5 5 15 5q14 0 29.5 -9.5t15.5 -19.5q0 -6 -2 -8zM509 106q0 -42 -9 -91l-8 -10q-38 -7 -174 -7q-30 0 -27 14v3q8 10 18 25t23 37q9 17 45 46q17 15 28.5 26t17.5 19
q7 2 20 40q6 0 6 50q0 39 -15 65l-22 15l-40 2l-35 -22q-14 -26 -14 -30v-3q2 -2 7.5 -5.5t18.5 -11.5q17 -12 17 -25q0 -14 -9 -26t-23 -12q-20 0 -31.5 18t-11.5 40q0 19 9 38t23 34t32.5 24t36.5 9q51 0 82 -25.5t31 -76.5q0 -59 -50 -103q-15 -13 -30 -24.5t-30 -23.5
q-50 -41 -50 -53q6 -14 32 -14q83 0 100 12q6 6 21 63q0 2 4 2q7 0 7 -19z" />
    <glyph glyph-name="threequarters" unicode="&#xbe;" horiz-adv-x="485" 
d="M214 543q0 -58 -82 -92q0 -5 -23 -5q-63 0 -94 22q-3 5 -7.5 12t-9.5 14q-4 5 -4 29q0 11 4 20q6 6 11.5 13t16.5 7q5 0 17 -3l17 -17l2 -20q-2 -3 -7 -8l-10 -10t-9 -9.5t-4 -6.5q0 -9 14 -15t25 -6l47 1q42 21 42 68q0 19 -1 31t-4 20.5t-10 16.5t-19 20q-11 3 -20 5
t-17 1q-5 -1 -15 -1q-8 0 -11 -1t-9 -1q-9 0 -9 3q0 6 9 15h20q5 0 9 0.5t8 1.5q23 2 35 9q28 0 28 63q0 74 -59 74q-38 0 -38 -22l5 -10q10 -6 10 -24q0 -8 -6 -18q-17 -14 -29 -14q-29 0 -29 31q0 38 23.5 59t65.5 21q109 0 109 -85q0 -34 -26 -60q-2 -1 -7 -4.5t-16 -9.5
q-19 -10 -19 -13t28 -25q29 -18 36 -34q12 0 12 -43zM492 797q-2 -11 -6.5 -22.5t-10.5 -26.5q-5 -6 -12 -14.5t-15 -19.5q-165 -318 -179 -332q-31 -57 -66.5 -115t-73.5 -121q-10 -10 -40 -77q-27 -58 -43 -58q-23 0 -40 23q-2 3 -3 10.5t-3 18.5q0 24 62 91q12 14 86 154
q75 142 86 154q3 3 23.5 44t62.5 122q83 163 88 167q5 8 11.5 15.5t14.5 18.5q5 5 15 5q14 0 29.5 -9.5t15.5 -19.5q0 -6 -2 -8zM489 112l-12 -15h-37q-18 -5 -18 -29q0 -46 23 -46h24q19 -3 19 -11q0 -11 -22 -11h-128q-38 0 -38 9q0 11 23 11q37 0 42 6q6 9 7 51l-7 18
l-16 2h-11q-7 0 -17 -0.5t-24 -1.5q-39 -1 -46 7l-5 9q4 6 6 23q25 38 60 93.5t83 130.5l16 8q12 0 12 -20q0 -11 -0.5 -27t-2.5 -41q-3 -45 -3 -69q0 -20 1 -35t5 -28q3 -11 22 -14q14 0 29 -1.5t15 -16.5v-2zM374 192q0 73 -9 73q-4 0 -16 -16q-35 -52 -53.5 -79
t-18.5 -28q0 -11 78 -11q16 0 19 24v37z" />
    <glyph glyph-name="questiondown" unicode="&#xbf;" horiz-adv-x="314" 
d="M102 652q-20 11 -20 50q0 36 13 55q17 26 60 26q26 0 43 -12q13 -11 22 -24.5t12 -29.5v-17q0 -4 -0.5 -7.5t-0.5 -5.5v-4q-13 -17 -13 -21q0 -2 -7 -8q-9 -9 -24.5 -17.5t-23.5 -8.5q-19 0 -33 8zM320 188q0 -5 -1.5 -14t-4 -19t-4 -19t-1.5 -14q0 -13 -14 -33
q-5 -11 -8.5 -17.5t-3.5 -11.5q0 -7 -31 -29q-15 -11 -24 -18t-13 -13q-14 -20 -44 -20q-9 0 -22 2t-26.5 5t-24.5 5t-16 2q-31 0 -54 44q-8 14 -15.5 28.5t-7.5 31.5q0 3 -2 10.5t-5 16t-5.5 15t-3.5 6.5q-4 0 5 20q5 11 9 24t9 41q0 5 5 10.5t5 9.5q5 15 12.5 25t15.5 19
t16.5 19t15.5 26q3 4 8 9.5t13 15.5q4 10 9 23.5t10 13.5q13 0 30 33q7 14 12 25t7 20q3 19 5 34t2 28q-1 16 -16 16q-28 0 -41 -19t-13 -42q0 -6 -7 -19t-7 -23q2 -8 -2 -29q0 -11 -1.5 -16t-4 -7t-5 -1.5t-3.5 0.5q-18 0 -18 33q0 10 2.5 25t2.5 18q0 14 10 45
q12 35 17 35l36 36q6 8 23 8q36 0 43 -16q3 -5 6 -9.5t6 -10.5q11 -20 9 -20q8 0 -7 -94q-3 0 -23 -44q-10 -23 -15 -35t-7 -16q-2 -10 -18 -39q-12 -18 -14 -41q0 -10 -17 -52q-17 -40 -17 -54q0 -10 1 -23.5t4 -33.5q6 -38 6 -39q0 -11 7.5 -19t17 -13.5t18.5 -8t12 -2.5
q38 0 63 31q7 6 15 14.5t17 20.5q1 3 4 8.5t6.5 11.5t6 11.5t2.5 8.5l9 42q2 0 2 9t-2 27.5t-5 27.5q-1 4 -1 6.5t-1.5 5t-5.5 6t-13 9.5q-7 4 -14 1q-7 -4 -11 -4q-23 0 -27 -79q-3 -54 0 -72q5 -37 -2 -52q-1 -10 -11 -10q-14 0 -23 16q-20 34 -20 94q0 58 25 83
q2 5 5.5 11.5t6.5 15.5l4 4t6.5 7t6.5 8.5t3 7.5q0 7 17 13q14 5 23 3q27 0 44 -19.5t21 -47.5q3 -28 5.5 -44t0.5 -19z" />
    <glyph glyph-name="Agrave" unicode="&#xc0;" horiz-adv-x="783" 
d="M489 871q-9 -19 -27 -19t-36 7.5t-35 15.5l-2 8q-5 0 -7 -1l-4 2l-4 2q-5 5 -82 39l-4 6q-15 8 -28.5 13.5t-24.5 9.5l-6 6q-8 -4 -38 20q-27 24 -31 35q-2 2 -4.5 9t-6.5 22q4 6 14 34q4 10 31 31q15 1 21 7q8 -3 18.5 -5.5t23.5 -6.5q2 2 3 2h3q8 0 25 -23l15 -7
q7 -6 9 -12l10 -6l4 -11l9 -3q16 -16 37 -44q4 -4 7 -7.5t4 -6.5q9 -8 22 -20t30 -30q36 -36 43 -55q4 -4 7 -6.5t4 -5.5zM794 22q-21 -8 -36 -8q-10 0 -58 3q-39 1 -58 0q-7 4 -17 1h-3h-7t-13 -1q-3 1 -5.5 2t-5.5 1q-1 -1 -3 -2l-6 -3l-20 2q-6 -2 -5 -2l-2 2h-21h-20.5
t-28.5 1q-46 0 -70 10l-6 15q2 2 3 5.5t5 6.5q6 2 11.5 3.5t29.5 3.5q21 1 33 0l3 1q32 -5 38 9q5 10 6 17.5t5 8.5q-1 6 -3.5 15t-5.5 22q-8 28 -12 30q-2 8 -3.5 13.5t-4.5 7.5q-2 8 -3 14t-5 8q-1 12 -3.5 19t-5 12l-4.5 9t-2 9l-13 14q-2 1 -3 2t-3 2l-17 7h-20
q-12 0 -15 -5q-11 0 -11 -2q-26 2 -51.5 2.5t-48.5 -0.5h-24q-11 0 -21 -9t-12 -13q0 -12 -4 -15q-3 -9 -6 -12q0 -7 -1.5 -20.5t-3.5 -28.5t-3.5 -29t-1.5 -22q0 -14 3 -17v-5l14 -23q7 -1 15 -5.5t16 -11.5q7 0 12 -3h25q5 1 8.5 1.5t6.5 0.5h11q3 0 23 -14l5 -13
q-8 -14 -19 -21h-32q-5 1 -10 1h-9h-13h-117q-13 0 -32 -1t-45 -5q-51 -6 -77 -6q-4 0 -19 5l-13 9l-3 23l18 19l12 4q14 0 17 3h5h3q28 -1 34 6q5 0 7 2q5 1 8 1h5h3q5 3 10.5 6t13.5 7l4 4q6 4 18 16.5t14 17.5l4 5q4 5 11 21q0 25 11 33q6 18 8.5 27.5t3.5 10.5
q2 14 4.5 17.5t6.5 13.5q2 2 3 4.5t3 4.5q0 14 5 19q0 19 6 24q2 6 3 13t3 16q5 11 11 20q1 13 6 16q2 5 4 10.5t4 12.5l4 5q2 10 5 21t5 22q6 30 12 35l1 6q0 3 4 8q6 39 16 46q3 7 5 9q2 10 3 22t5 29q9 42 15 45q0 3 1.5 12t3.5 23q5 30 7 32q3 17 10 31q1 4 2 6.5t2 4.5
q0 17 16 49q10 0 15 6q5 0 12.5 1t12.5 2q9 -5 24 -9q2 -4 4.5 -8t6.5 -9q17 -72 23 -78q0 -4 6 -34q4 -15 5 -23t3 -9q0 -14 11 -25l6 -17q0 -23 8 -29q9 -43 17 -51l12 -34q0 -7 9 -32q13 -27 15 -29q3 -11 6 -22.5t8 -24.5q2 -11 17 -40q2 -6 5 -22t11 -22q0 -11 4 -14
q3 -27 9 -32q3 -32 10 -36q0 -4 2.5 -11.5t5.5 -15t6.5 -14t5.5 -8.5q2 -16 7 -21q0 -11 1.5 -14t5.5 -16q1 -1 5.5 -8t15.5 -21l23 -15q4 -2 8 -5q5 2 9.5 1t10.5 -2q5 -2 8.5 -1t5.5 2q8 -1 14 -1h11h13q22 -7 22 -25zM458 334q0 24 -6 26q-1 9 -2.5 13.5t-3.5 6.5
q-2 6 -4.5 14.5t-6.5 19.5l-6.5 13t-6.5 15q0 5 -0.5 7.5t-2 5.5t-3.5 8.5t-5 16.5q-6 22 -7.5 25.5t-3.5 6.5q0 8 -3.5 15.5t-8.5 18.5q-8 14 -12.5 22t-6.5 12h-6l-8 -6q-9 -27 -13.5 -42t-6.5 -17q-1 -1 -7 -30q-4 -14 -5 -21t-3 -9q-3 -15 -8 -17q-5 -36 -12 -43
q-2 -15 -5.5 -20t-5.5 -9q0 -19 -6 -23l2 -12l10 -9q17 -3 19 -8q17 0 61 3q10 1 18.5 1h16.5h27q5 0 9 2.5t9 5.5z" />
    <glyph glyph-name="Aacute" unicode="&#xc1;" horiz-adv-x="783" 
d="M674 1046q-2 -7 -3.5 -13.5t-6 -14t-12 -17t-21.5 -21.5q-26 -22 -37 -20l-6 -6q-11 -4 -24.5 -9.5t-28.5 -13.5l-4 -6q-19 -8 -39.5 -17.5t-42.5 -21.5q-5 -2 -7 -4q-3 1 -8 1l-2 -8q-17 -8 -35 -15.5t-35 -7.5q-19 0 -28 19q1 3 4 5.5t7 6.5q7 19 43 55q17 18 30 30
t22 20q3 6 11 14q8 9 17 20t20 24l9 3l5 11l9 6q1 6 9 12l15 7q17 23 25 23q4 0 6 -2q7 2 17.5 5.5t24.5 6.5q6 -6 21 -7q27 -21 31 -31q10 -28 14 -34zM794 22q-21 -8 -36 -8q-10 0 -58 3q-39 1 -58 0q-7 4 -17 1h-3h-7t-13 -1q-3 1 -5.5 2t-5.5 1q-1 -1 -3 -2l-6 -3l-20 2
q-6 -2 -5 -2l-2 2h-21h-20.5t-28.5 1q-46 0 -70 10l-6 15q2 2 3 5.5t5 6.5q6 2 11.5 3.5t29.5 3.5q21 1 33 0l3 1q32 -5 38 9q5 10 6 17.5t5 8.5q-1 6 -3.5 15t-5.5 22q-8 28 -12 30q-2 8 -3.5 13.5t-4.5 7.5q-2 8 -3 14t-5 8q-1 12 -3.5 19t-5 12l-4.5 9t-2 9l-13 14
q-2 1 -3 2t-3 2l-17 7h-20q-12 0 -15 -5q-11 0 -11 -2q-26 2 -51.5 2.5t-48.5 -0.5h-24q-11 0 -21 -9t-12 -13q0 -12 -4 -15q-3 -9 -6 -12q0 -7 -1.5 -20.5t-3.5 -28.5t-3.5 -29t-1.5 -22q0 -14 3 -17v-5l14 -23q7 -1 15 -5.5t16 -11.5q7 0 12 -3h25q5 1 8.5 1.5t6.5 0.5h11
q3 0 23 -14l5 -13q-8 -14 -19 -21h-32q-5 1 -10 1h-9h-13h-117q-13 0 -32 -1t-45 -5q-51 -6 -77 -6q-4 0 -19 5l-13 9l-3 23l18 19l12 4q14 0 17 3h5h3q28 -1 34 6q5 0 7 2q5 1 8 1h5h3q5 3 10.5 6t13.5 7l4 4q6 4 18 16.5t14 17.5l4 5q4 5 11 21q0 25 11 33q6 18 8.5 27.5
t3.5 10.5q2 14 4.5 17.5t6.5 13.5q2 2 3 4.5t3 4.5q0 14 5 19q0 19 6 24q2 6 3 13t3 16q5 11 11 20q1 13 6 16q2 5 4 10.5t4 12.5l4 5q2 10 5 21t5 22q6 30 12 35l1 6q0 3 4 8q6 39 16 46q3 7 5 9q2 10 3 22t5 29q9 42 15 45q0 3 1.5 12t3.5 23q5 30 7 32q3 17 10 31
q1 4 2 6.5t2 4.5q0 17 16 49q10 0 15 6q5 0 12.5 1t12.5 2q9 -5 24 -9q2 -4 4.5 -8t6.5 -9q17 -72 23 -78q0 -4 6 -34q4 -15 5 -23t3 -9q0 -14 11 -25l6 -17q0 -23 8 -29q9 -43 17 -51l12 -34q0 -7 9 -32q13 -27 15 -29q3 -11 6 -22.5t8 -24.5q2 -11 17 -40q2 -6 5 -22
t11 -22q0 -11 4 -14q3 -27 9 -32q3 -32 10 -36q0 -4 2.5 -11.5t5.5 -15t6.5 -14t5.5 -8.5q2 -16 7 -21q0 -11 1.5 -14t5.5 -16q1 -1 5.5 -8t15.5 -21l23 -15q4 -2 8 -5q5 2 9.5 1t10.5 -2q5 -2 8.5 -1t5.5 2q8 -1 14 -1h11h13q22 -7 22 -25zM458 334q0 24 -6 26
q-1 9 -2.5 13.5t-3.5 6.5q-2 6 -4.5 14.5t-6.5 19.5l-6.5 13t-6.5 15q0 5 -0.5 7.5t-2 5.5t-3.5 8.5t-5 16.5q-6 22 -7.5 25.5t-3.5 6.5q0 8 -3.5 15.5t-8.5 18.5q-8 14 -12.5 22t-6.5 12h-6l-8 -6q-9 -27 -13.5 -42t-6.5 -17q-1 -1 -7 -30q-4 -14 -5 -21t-3 -9
q-3 -15 -8 -17q-5 -36 -12 -43q-2 -15 -5.5 -20t-5.5 -9q0 -19 -6 -23l2 -12l10 -9q17 -3 19 -8q17 0 61 3q10 1 18.5 1h16.5h27q5 0 9 2.5t9 5.5z" />
    <glyph glyph-name="Acircumflex" unicode="&#xc2;" horiz-adv-x="783" 
d="M658 917q0 -11 -6.5 -22.5t-16.5 -11.5q-2 0 -4 2q-14 1 -37 12q-17 10 -42 21q-16 18 -34 37.5t-38 39.5q-15 12 -31.5 25.5t-36.5 30.5q-3 4 -14 15q-8 -8 -16 -17t-16 -20q-36 -39 -58 -61q-19 -23 -39.5 -47.5t-43.5 -51.5q-6 -9 -14 -19t-17 -10q-11 0 -22.5 7
t-11.5 16q0 3 2 5q1 14 12 37q7 7 21 24q2 2 10.5 12.5t25.5 30.5t27.5 31.5t13.5 14.5q12 15 25.5 31.5t30.5 36.5q5 5 13 12t19 17q3 18 15 27q7 4 22 4q11 0 26 -15q6 -6 11 -12.5t11 -12.5q15 -11 34 -24.5t41 -30.5q26 -25 53 -50t56 -53q10 -6 19.5 -14t9.5 -17z
M794 22q-21 -8 -36 -8q-10 0 -58 3q-39 1 -58 0q-7 4 -17 1h-3h-7t-13 -1q-3 1 -5.5 2t-5.5 1q-1 -1 -3 -2l-6 -3l-20 2q-6 -2 -5 -2l-2 2h-21h-20.5t-28.5 1q-46 0 -70 10l-6 15q2 2 3 5.5t5 6.5q6 2 11.5 3.5t29.5 3.5q21 1 33 0l3 1q32 -5 38 9q5 10 6 17.5t5 8.5
q-1 6 -3.5 15t-5.5 22q-8 28 -12 30q-2 8 -3.5 13.5t-4.5 7.5q-2 8 -3 14t-5 8q-1 12 -3.5 19t-5 12l-4.5 9t-2 9l-13 14q-2 1 -3 2t-3 2l-17 7h-20q-12 0 -15 -5q-11 0 -11 -2q-26 2 -51.5 2.5t-48.5 -0.5h-24q-11 0 -21 -9t-12 -13q0 -12 -4 -15q-3 -9 -6 -12
q0 -7 -1.5 -20.5t-3.5 -28.5t-3.5 -29t-1.5 -22q0 -14 3 -17v-5l14 -23q7 -1 15 -5.5t16 -11.5q7 0 12 -3h25q5 1 8.5 1.5t6.5 0.5h11q3 0 23 -14l5 -13q-8 -14 -19 -21h-32q-5 1 -10 1h-9h-13h-117q-13 0 -32 -1t-45 -5q-51 -6 -77 -6q-4 0 -19 5l-13 9l-3 23l18 19l12 4
q14 0 17 3h5h3q28 -1 34 6q5 0 7 2q5 1 8 1h5h3q5 3 10.5 6t13.5 7l4 4q6 4 18 16.5t14 17.5l4 5q4 5 11 21q0 25 11 33q6 18 8.5 27.5t3.5 10.5q2 14 4.5 17.5t6.5 13.5q2 2 3 4.5t3 4.5q0 14 5 19q0 19 6 24q2 6 3 13t3 16q5 11 11 20q1 13 6 16q2 5 4 10.5t4 12.5l4 5
q2 10 5 21t5 22q6 30 12 35l1 6q0 3 4 8q6 39 16 46q3 7 5 9q2 10 3 22t5 29q9 42 15 45q0 3 1.5 12t3.5 23q5 30 7 32q3 17 10 31q1 4 2 6.5t2 4.5q0 17 16 49q10 0 15 6q5 0 12.5 1t12.5 2q9 -5 24 -9q2 -4 4.5 -8t6.5 -9q17 -72 23 -78q0 -4 6 -34q4 -15 5 -23t3 -9
q0 -14 11 -25l6 -17q0 -23 8 -29q9 -43 17 -51l12 -34q0 -7 9 -32q13 -27 15 -29q3 -11 6 -22.5t8 -24.5q2 -11 17 -40q2 -6 5 -22t11 -22q0 -11 4 -14q3 -27 9 -32q3 -32 10 -36q0 -4 2.5 -11.5t5.5 -15t6.5 -14t5.5 -8.5q2 -16 7 -21q0 -11 1.5 -14t5.5 -16q1 -1 5.5 -8
t15.5 -21l23 -15q4 -2 8 -5q5 2 9.5 1t10.5 -2q5 -2 8.5 -1t5.5 2q8 -1 14 -1h11h13q22 -7 22 -25zM458 334q0 24 -6 26q-1 9 -2.5 13.5t-3.5 6.5q-2 6 -4.5 14.5t-6.5 19.5l-6.5 13t-6.5 15q0 5 -0.5 7.5t-2 5.5t-3.5 8.5t-5 16.5q-6 22 -7.5 25.5t-3.5 6.5q0 8 -3.5 15.5
t-8.5 18.5q-8 14 -12.5 22t-6.5 12h-6l-8 -6q-9 -27 -13.5 -42t-6.5 -17q-1 -1 -7 -30q-4 -14 -5 -21t-3 -9q-3 -15 -8 -17q-5 -36 -12 -43q-2 -15 -5.5 -20t-5.5 -9q0 -19 -6 -23l2 -12l10 -9q17 -3 19 -8q17 0 61 3q10 1 18.5 1h16.5h27q5 0 9 2.5t9 5.5z" />
    <glyph glyph-name="Atilde" unicode="&#xc3;" horiz-adv-x="783" 
d="M794 22q-21 -8 -36 -8q-10 0 -58 3q-39 1 -58 0q-7 4 -17 1h-3h-7t-13 -1q-3 1 -5.5 2t-5.5 1q-1 -1 -3 -2l-6 -3l-20 2q-6 -2 -5 -2l-2 2h-21h-20.5t-28.5 1q-46 0 -70 10l-6 15q2 2 3 5.5t5 6.5q6 2 11.5 3.5t29.5 3.5q21 1 33 0l3 1q32 -5 38 9q5 10 6 17.5t5 8.5
q-1 6 -3.5 15t-5.5 22q-8 28 -12 30q-2 8 -3.5 13.5t-4.5 7.5q-2 8 -3 14t-5 8q-1 12 -3.5 19t-5 12l-4.5 9t-2 9l-13 14q-2 1 -3 2t-3 2l-17 7h-20q-12 0 -15 -5q-11 0 -11 -2q-26 2 -51.5 2.5t-48.5 -0.5h-24q-11 0 -21 -9t-12 -13q0 -12 -4 -15q-3 -9 -6 -12
q0 -7 -1.5 -20.5t-3.5 -28.5t-3.5 -29t-1.5 -22q0 -14 3 -17v-5l14 -23q7 -1 15 -5.5t16 -11.5q7 0 12 -3h25q5 1 8.5 1.5t6.5 0.5h11q3 0 23 -14l5 -13q-8 -14 -19 -21h-32q-5 1 -10 1h-9h-13h-117q-13 0 -32 -1t-45 -5q-51 -6 -77 -6q-4 0 -19 5l-13 9l-3 23l18 19l12 4
q14 0 17 3h5h3q28 -1 34 6q5 0 7 2q5 1 8 1h5h3q5 3 10.5 6t13.5 7l4 4q6 4 18 16.5t14 17.5l4 5q4 5 11 21q0 25 11 33q6 18 8.5 27.5t3.5 10.5q2 14 4.5 17.5t6.5 13.5q2 2 3 4.5t3 4.5q0 14 5 19q0 19 6 24q2 6 3 13t3 16q5 11 11 20q1 13 6 16q2 5 4 10.5t4 12.5l4 5
q2 10 5 21t5 22q6 30 12 35l1 6q0 3 4 8q6 39 16 46q3 7 5 9q2 10 3 22t5 29q9 42 15 45q0 3 1.5 12t3.5 23q5 30 7 32q3 17 10 31q1 4 2 6.5t2 4.5q0 17 16 49q10 0 15 6q5 0 12.5 1t12.5 2q9 -5 24 -9q2 -4 4.5 -8t6.5 -9q17 -72 23 -78q0 -4 6 -34q4 -15 5 -23t3 -9
q0 -14 11 -25l6 -17q0 -23 8 -29q9 -43 17 -51l12 -34q0 -7 9 -32q13 -27 15 -29q3 -11 6 -22.5t8 -24.5q2 -11 17 -40q2 -6 5 -22t11 -22q0 -11 4 -14q3 -27 9 -32q3 -32 10 -36q0 -4 2.5 -11.5t5.5 -15t6.5 -14t5.5 -8.5q2 -16 7 -21q0 -11 1.5 -14t5.5 -16q1 -1 5.5 -8
t15.5 -21l23 -15q4 -2 8 -5q5 2 9.5 1t10.5 -2q5 -2 8.5 -1t5.5 2q8 -1 14 -1h11h13q22 -7 22 -25zM458 334q0 24 -6 26q-1 9 -2.5 13.5t-3.5 6.5q-2 6 -4.5 14.5t-6.5 19.5l-6.5 13t-6.5 15q0 5 -0.5 7.5t-2 5.5t-3.5 8.5t-5 16.5q-6 22 -7.5 25.5t-3.5 6.5q0 8 -3.5 15.5
t-8.5 18.5q-8 14 -12.5 22t-6.5 12h-6l-8 -6q-9 -27 -13.5 -42t-6.5 -17q-1 -1 -7 -30q-4 -14 -5 -21t-3 -9q-3 -15 -8 -17q-5 -36 -12 -43q-2 -15 -5.5 -20t-5.5 -9q0 -19 -6 -23l2 -12l10 -9q17 -3 19 -8q17 0 61 3q10 1 18.5 1h16.5h27q5 0 9 2.5t9 5.5zM660 1074
q2 -14 -2.5 -26.5t-12.5 -22.5q-6 -6 -12.5 -16t-14.5 -24q-8 -10 -23.5 -24t-32.5 -27q-38 -22 -73 -22h-11q-4 0 -12 2l-63 14l-78 15l-48 6q-44 3 -65 -32q-3 -4 -7.5 -7.5t-10.5 -9.5q-26 -23 -45 -9q50 114 137 144l16 7q1 1 30 1q23 0 59 -14q23 -11 38.5 -17.5
t27 -9.5t20.5 -4t18 -1q58 0 102 35q7 18 29 43q7 10 16 10q7 0 18 -11z" />
    <glyph glyph-name="Adieresis" unicode="&#xc4;" horiz-adv-x="783" 
d="M552 972q5 0 5 -6q0 -5 -2.5 -14t-5.5 -18t-6.5 -16.5t-4.5 -8.5q-23 -29 -67 -29q-2 0 -7.5 2t-11.5 4.5t-10.5 4.5t-4.5 3q-8 10 -13 17.5t-9 12.5q-3 4 -7 10v24q1 26 3 28q20 23 19 23q1 1 4 3q2 2 5.5 3.5t8.5 4.5q18 12 18 9q0 5 29 -3q32 -7 34 -14q31 -40 23 -40
zM355 972q3 0 3 -6q0 -5 -2 -14t-5 -18t-6 -16t-5 -9q-23 -29 -68 -29q-2 0 -7 2t-10.5 4.5t-10 4.5t-4.5 3q-31 40 -29 40q-3 0 0 24q0 27 1 28q22 23 20 23l17 11q20 11 20 9q0 5 29 -3q30 -6 33 -14q31 -40 24 -40zM794 22q-21 -8 -36 -8q-10 0 -58 3q-39 1 -58 0
q-7 4 -17 1h-3h-7t-13 -1q-3 1 -5.5 2t-5.5 1q-1 -1 -3 -2l-6 -3l-20 2q-6 -2 -5 -2l-2 2h-21h-20.5t-28.5 1q-46 0 -70 10l-6 15q2 2 3 5.5t5 6.5q6 2 11.5 3.5t29.5 3.5q21 1 33 0l3 1q32 -5 38 9q5 10 6 17.5t5 8.5q-1 6 -3.5 15t-5.5 22q-8 28 -12 30q-2 8 -3.5 13.5
t-4.5 7.5q-2 8 -3 14t-5 8q-1 12 -3.5 19t-5 12l-4.5 9t-2 9l-13 14q-2 1 -3 2t-3 2l-17 7h-20q-12 0 -15 -5q-11 0 -11 -2q-26 2 -51.5 2.5t-48.5 -0.5h-24q-11 0 -21 -9t-12 -13q0 -12 -4 -15q-3 -9 -6 -12q0 -7 -1.5 -20.5t-3.5 -28.5t-3.5 -29t-1.5 -22q0 -14 3 -17v-5
l14 -23q7 -1 15 -5.5t16 -11.5q7 0 12 -3h25q5 1 8.5 1.5t6.5 0.5h11q3 0 23 -14l5 -13q-8 -14 -19 -21h-32q-5 1 -10 1h-9h-13h-117q-13 0 -32 -1t-45 -5q-51 -6 -77 -6q-4 0 -19 5l-13 9l-3 23l18 19l12 4q14 0 17 3h5h3q28 -1 34 6q5 0 7 2q5 1 8 1h5h3q5 3 10.5 6
t13.5 7l4 4q6 4 18 16.5t14 17.5l4 5q4 5 11 21q0 25 11 33q6 18 8.5 27.5t3.5 10.5q2 14 4.5 17.5t6.5 13.5q2 2 3 4.5t3 4.5q0 14 5 19q0 19 6 24q2 6 3 13t3 16q5 11 11 20q1 13 6 16q2 5 4 10.5t4 12.5l4 5q2 10 5 21t5 22q6 30 12 35l1 6q0 3 4 8q6 39 16 46q3 7 5 9
q2 10 3 22t5 29q9 42 15 45q0 3 1.5 12t3.5 23q5 30 7 32q3 17 10 31q1 4 2 6.5t2 4.5q0 17 16 49q10 0 15 6q5 0 12.5 1t12.5 2q9 -5 24 -9q2 -4 4.5 -8t6.5 -9q17 -72 23 -78q0 -4 6 -34q4 -15 5 -23t3 -9q0 -14 11 -25l6 -17q0 -23 8 -29q9 -43 17 -51l12 -34q0 -7 9 -32
q13 -27 15 -29q3 -11 6 -22.5t8 -24.5q2 -11 17 -40q2 -6 5 -22t11 -22q0 -11 4 -14q3 -27 9 -32q3 -32 10 -36q0 -4 2.5 -11.5t5.5 -15t6.5 -14t5.5 -8.5q2 -16 7 -21q0 -11 1.5 -14t5.5 -16q1 -1 5.5 -8t15.5 -21l23 -15q4 -2 8 -5q5 2 9.5 1t10.5 -2q5 -2 8.5 -1t5.5 2
q8 -1 14 -1h11h13q22 -7 22 -25zM458 334q0 24 -6 26q-1 9 -2.5 13.5t-3.5 6.5q-2 6 -4.5 14.5t-6.5 19.5l-6.5 13t-6.5 15q0 5 -0.5 7.5t-2 5.5t-3.5 8.5t-5 16.5q-6 22 -7.5 25.5t-3.5 6.5q0 8 -3.5 15.5t-8.5 18.5q-8 14 -12.5 22t-6.5 12h-6l-8 -6q-9 -27 -13.5 -42
t-6.5 -17q-1 -1 -7 -30q-4 -14 -5 -21t-3 -9q-3 -15 -8 -17q-5 -36 -12 -43q-2 -15 -5.5 -20t-5.5 -9q0 -19 -6 -23l2 -12l10 -9q17 -3 19 -8q17 0 61 3q10 1 18.5 1h16.5h27q5 0 9 2.5t9 5.5z" />
    <glyph glyph-name="Aring" unicode="&#xc5;" horiz-adv-x="782" 
d="M469 1000q1 -2 1 -7v-6q0 -22 -12 -44q-1 -5 -6.5 -9t-14.5 -12q-3 -7 -17 -10l-14 -4q0 -1 -8 -1h-11h-6.5t-8.5 1q-9 0 -27 9q-6 4 -9 6.5t-4.5 4l-2 2t-3.5 2.5q-6 8 -8.5 11t-3.5 4.5t-2 3.5t-3 7q-1 6 -2 9.5t-1 4.5q1 2 1 7q0 7 -4 7q0 2 1 15.5t7 30.5
q3 11 6.5 15t14.5 11q5 3 7 5.5t5 5.5t10 5.5t21 5.5q4 1 7 1.5t7 0.5q14 0 28 -8q11 -6 15 -8.5t10 -8.5q0 -2 3.5 -5t5.5 -4q3 -4 7.5 -10.5t7.5 -15.5q2 -8 2 -12q0 -7 1 -10zM794 22q-21 -8 -36 -8q-10 0 -58 3q-39 1 -58 0q-7 4 -17 1h-3h-7t-13 -1q-3 1 -5.5 2t-5.5 1
q-1 -1 -3 -2l-6 -3l-20 2q-6 -2 -5 -2l-2 2h-21h-20.5t-28.5 1q-46 0 -70 10l-6 15q2 2 3 5.5t5 6.5q6 2 11.5 3.5t29.5 3.5q21 1 33 0l3 1q32 -5 38 9q5 10 6 17.5t5 8.5q-1 6 -3.5 15t-5.5 22q-8 28 -12 30q-2 8 -3.5 13.5t-4.5 7.5q-2 8 -3 14t-5 8q-1 12 -3.5 19t-5 12
l-4.5 9t-2 9l-13 14q-2 1 -3 2t-3 2l-17 7h-20q-12 0 -15 -5q-11 0 -11 -2q-26 2 -51.5 2.5t-48.5 -0.5h-24q-11 0 -21 -9t-12 -13q0 -12 -4 -15q-3 -9 -6 -12q0 -7 -1.5 -20.5t-3.5 -28.5t-3.5 -29t-1.5 -22q0 -14 3 -17v-5l14 -23q7 -1 15 -5.5t16 -11.5q7 0 12 -3h25
q5 1 8.5 1.5t6.5 0.5h11q3 0 23 -14l5 -13q-8 -14 -19 -21h-32q-5 1 -10 1h-9h-13h-117q-13 0 -32 -1t-45 -5q-51 -6 -77 -6q-4 0 -19 5l-13 9l-3 23l18 19l12 4q14 0 17 3h5h3q28 -1 34 6q5 0 7 2q5 1 8 1h5h3q5 3 10.5 6t13.5 7l4 4q6 4 18 16.5t14 17.5l4 5q4 5 11 21
q0 25 11 33q6 18 8.5 27.5t3.5 10.5q2 14 4.5 17.5t6.5 13.5q2 2 3 4.5t3 4.5q0 14 5 19q0 19 6 24q2 6 3 13t3 16q5 11 11 20q1 13 6 16l8 23l4 5q2 10 5 21t5 22q6 30 12 35l1 6q0 3 4 8q6 39 16 46q3 7 5 9q2 10 3 22t5 29q9 42 15 45q0 3 1.5 12t3.5 23q5 30 7 32
q3 17 10 31q1 4 2 6.5t2 4.5q0 17 16 49q10 0 15 6q5 0 12.5 1t12.5 2q9 -5 24 -9q2 -4 4.5 -8t6.5 -9q17 -72 23 -78q0 -4 6 -34q4 -15 5 -23t3 -9q0 -14 11 -25l6 -17q0 -23 8 -29q9 -43 17 -51l12 -34q0 -7 9 -32q13 -27 15 -29q3 -11 6 -22.5t8 -24.5q2 -11 17 -40
q2 -6 5 -22t11 -22q0 -11 4 -14q3 -27 9 -32q3 -32 10 -36q0 -4 2.5 -11.5t5.5 -15t6.5 -14t5.5 -8.5q2 -16 7 -21q0 -11 1.5 -14t5.5 -16l21 -29l23 -15q4 -2 8 -5q1 1 6 1q3 0 6 -0.5t8 -1.5q1 -1 5 -1q2 0 8 2h1q8 -1 14 -1h11h13q22 -7 22 -25zM354 1006v-11v-9t1 -11
q0 -10 2 -11.5t6 -5.5q0 -6 11 -9q7 0 8 -1h6q2 1 6 1q2 0 8 2q7 3 11 5.5t4 14.5v31q-1 3 -1 6q0 2 -1.5 6.5t-9.5 14.5q-2 4 -7 4.5t-10 1.5q-19 0 -26 -5t-8 -24zM458 334q0 24 -6 26q-1 9 -2.5 13.5t-3.5 6.5q-2 6 -4.5 14.5t-6.5 19.5l-6.5 13t-6.5 15q0 5 -0.5 7.5
t-2 5.5t-3.5 8.5t-5 16.5q-6 22 -7.5 25.5t-3.5 6.5q0 8 -3.5 15.5t-8.5 18.5q-8 14 -12.5 22t-6.5 12h-6l-8 -6q-9 -27 -13.5 -42t-6.5 -17q-1 -1 -7 -30q-4 -14 -5 -21t-3 -9q-3 -15 -8 -17q-5 -36 -12 -43q-2 -15 -5.5 -20t-5.5 -9q0 -19 -6 -23l2 -12l10 -9q17 -3 19 -8
q17 0 61 3q10 1 18.5 1h16.5h27q5 0 9 2.5t9 5.5z" />
    <glyph glyph-name="AE" unicode="&#xc6;" horiz-adv-x="1338" 
d="M1334 211q0 -14 -1.5 -38t-1.5 -41h1v-35q1 -7 1.5 -12t0.5 -10v-13q0 -21 -8 -45q-12 -14 -83 -14h-26h-21t-28 -1q-14 -1 -25.5 -1.5t-21.5 -0.5h-29q-5 0 -15.5 1t-22 2t-22.5 2t-17 1q-10 0 -19.5 -1t-17.5 -5l-32 3q-9 3 -31 2q-15 -2 -23.5 -3.5t-9.5 -1.5h-60
l-19 8q-19 -8 -34 -8q-3 0 -19 1t-45 2q-20 2 -35.5 1t-27.5 -2q-6 0 -10 -1q-11 -1 -29 -3q-19 -1 -36 -2t-32 -1q-80 0 -109 19q-12 5 -8 15l8 13q14 11 26 9h10q7 0 16.5 -0.5t23.5 -1.5l20 2q6 -2 8 -2h7q15 0 14 13q-5 14 0 16q1 2 1 6v2q0 5 -2 15.5t-5 21t-6.5 19
t-6.5 10.5q-5 11 -9.5 22.5t-10.5 22.5q-5 15 -7.5 26.5t-4.5 21.5q-18 23 -55 23h-33q-9 0 -19.5 -0.5t-23.5 -1.5q-26 -1 -45 -2t-30 -1l-20 -5q-5 0 -7 -7.5t-5 -8.5q-3 -19 -10 -28q0 -9 -1.5 -22.5t-3.5 -27.5t-3.5 -27.5t-1.5 -22.5q0 -4 1.5 -11t1.5 -11l15 -21
q12 -3 29 -17q12 -5 22 -5h20q10 2 13 2h8q6 0 23 -14l5 -12q-8 -17 -17 -22h-35q-11 0 -25 0.5t-31 1.5h-90q-13 0 -33 -1.5t-46 -3.5q-26 -4 -45 -5t-32 -1q-8 0 -18 3l-14 11l-3 21q1 11 7 14t11 5q77 2 103 17l26 15q15 7 19 22l12 18q2 5 4 10.5t5 11.5q6 2 13 41
q3 9 8.5 24t12.5 38l8 29l15 52q2 9 5.5 18.5t7.5 17.5l14 23l4 30q9 46 22 53q0 3 2 10.5t5 19.5q8 26 13 28l4 9q7 87 23 96q3 58 13 67q1 13 8 31.5t21 59.5l17 6q4 2 9 2h6.5t7.5 1l25 -9q3 -5 5.5 -10t4.5 -7q6 -11 12 -30.5t13 -46.5q17 -83 25 -90q5 -23 12 -47.5
t18 -51.5q4 -17 10 -38t16 -45q2 -4 8 -18t17 -40q2 -8 5 -17.5t10 -22.5q4 -17 10.5 -40t17.5 -53q26 -77 31 -83q6 -13 9.5 -25.5t5.5 -25.5q0 -10 7 -17l12 -12q5 -3 9 -12t9 -12l19 4q3 4 7.5 7.5t10.5 9.5l8 14q3 1 6 12q1 2 1 9v11q0 8 -1 13q0 7 -1 18t-2 23t-2 23.5
t-1 18.5q0 4 1 12.5t2 18t2 18.5t1 14v100q1 7 -1 20t-4.5 27.5t-4 28t0.5 22.5q11 55 11 57q0 104 -17 172q-26 26 -102 22q-2 2 -8 2h-5.5t-7.5 1q-6 5 -10 8t-4 21q30 14 87 14q2 0 4 -1q1 -1 5 -1t7 -1l1 -1q11 -3 25 -4t31 -1h40h15t12 1q22 -4 37 0l22 2h31
q10 2 18 3.5t15 -0.5q15 -1 25 -2t15 1q4 1 12 1h15q3 -1 23 -1q22 -8 34 4q46 2 79.5 2t53.5 -3h63q13 4 24 -8q9 -21 9 -46l-2 -43q-6 -32 0 -48q3 -18 0 -60l2 -20q0 -20 -8 -63q-2 -2 -14 -3q2 -2 -12 -2q-9 0 -6 19q0 3 -8 21q-2 59 -28 94q-13 7 -12 29q-2 8 -20 19
q-1 5 -9 14.5t-17 13.5q-7 10 -14 12q-7 3 -11 5.5t-6 3.5q-12 12 -28 11h-26q-8 0 -23.5 4.5t-23.5 4.5q-7 0 -28 -3q-16 -3 -28 0q-2 2 -8.5 3t-17.5 3h-20q-6 -1 -11 -2t-10 1q-8 -2 -17 -5t-17 -5q-31 -44 -26 -107q4 -12 3 -43l-5 -47v-8q0 -2 2 -12v-18q1 -4 2 -13.5
t1 -26.5q0 -32 37 -32q14 0 27 4l2 2q76 16 97 72q14 16 17 82q0 32 15 32h11l4 -3q5 -17 5 -34q-3 -42 -3 -34q0 -3 2 -29.5t6 -77.5v-22q-3 -13 0 -62q1 -16 1 -29v-24v-30q0 -53 -8 -64q-1 -6 -4 -7.5t-6 -1.5q-1 1 -4 1h-1q-14 3 -14 14q-2 18 -6 57l-8 24
q-1 11 -7 22.5t-8 25.5q-5 5 -16.5 15t-31.5 25l-14 8q-2 1 -4.5 2t-5.5 1h-13l-24 3q-20 5 -23 3q-4 -1 -7 -2t-4 -1l-9 -8q-4 -9 -5 -45.5t-1 -100.5q0 -67 9 -152q17 -26 21 -29q10 -10 37 -10l3 2q17 4 37 5t43 0q10 -1 20 -1.5t20 -0.5t20 -0.5t20 -1.5l2 2
q83 12 120 58q28 34 48 105q16 60 24.5 91t10.5 37q4 2 7.5 4.5t9.5 4.5l11 -6q6 -12 6 -42q1 -8 1 -15.5v-12.5q0 -9 2 -15v-38zM468 320q0 11 -7 27.5t-15 52.5q-18 16 -37 98q-3 8 -8 20.5t-12 30.5q-6 15 -17 17l-7 -6q-8 -22 -17 -50.5t-20 -63.5q-29 -96 -36 -117
l2 -12q17 -17 29 -17q125 0 142 14z" />
    <glyph glyph-name="Ccedilla" unicode="&#xc7;" horiz-adv-x="638" 
d="M634 671q-2 -35 -3 -55.5t-1 -42.5v-14.5t1 -16.5q1 -27 2 -42t1 -17q0 -38 -6 -45l-13 -1l-13 1l-2 4l-6 4l-6 16l-8 27q-2 5 -3 15t-5 25q-5 9 -18 40q-7 5 -14 31q-2 4 -4.5 7.5t-7.5 9.5q-5 8 -12 21.5t-18 30.5q-2 5 -7.5 12t-16.5 16l-17 12l-11 9l-12 8l-17 8
q-26 12 -77 12q-23 0 -39.5 -1.5t-31 -6.5t-28.5 -14.5t-33 -25.5q-4 -5 -10 -13t-15 -19l-20 -34q-1 -1 -14 -47l-4 -37q-2 -2 -2 -7v-5.5t-1 -7.5q-7 -14 -7 -105q0 -212 30 -255q2 -6 6.5 -14t10.5 -19q24 -69 86 -81l32 -17q20 -6 39 -8.5t39 -2.5q7 0 18 2.5t21.5 6.5
t19.5 8.5t12 8.5l13 3q4 5 18.5 14t19.5 17q13 3 18 14l44 54q3 6 6.5 15.5t5.5 22.5q2 8 4 15t4 15v1q1 3 9 60q8 6 11 23l9 9l15 -6q8 -11 8 -27q0 -34 -16 -73q-5 -17 -11.5 -34.5t-14.5 -34.5q-5 -6 -11.5 -16.5t-17.5 -25.5t-20 -26t-17 -17q-17 -11 -41 -35
q-29 -13 -53 -20t-44 -9l-2 -17q4 2 7.5 4t8.5 4q11 -3 18 1l29 -8q12 0 19 -4l18 -8q2 -1 6.5 -3.5t13.5 -5.5q11 -5 12 -17q6 -4 12.5 -12t11 -17.5t6.5 -19t0 -16.5h1l2 -6q-6 -24 -10.5 -40t-9.5 -24q-14 -29 -49 -42q-8 -2 -15 -6.5t-15 -10.5q-28 -5 -63 -5
q-3 0 -12.5 2.5t-14.5 2.5h-11q-12 3 -34 19l-6 -2l-11 2l-9 4q-26 0 -68 20q-49 21 -49 43v20q11 8 20 15t24 8q15 -28 131 -57q3 -1 13 -1q11 0 27.5 8t22.5 12q4 1 9.5 3.5t12.5 7.5l1 24q0 16 -4 17q0 17 -18 26.5t-41 9.5h-10q-4 0 -10 -2h-15q-2 2 -12 23l-2 12l9 17
q3 3 3 5q0 4 -3 9l-60 9q-11 8 -25 10t-22 6q-17 5 -42.5 25.5t-60.5 54.5l-27 35q-18 27 -43 54q-3 8 -6.5 19.5t-8.5 28.5q-5 10 -10 21.5t-9 25.5q-10 8 -11 9.5t-1 10.5l-1 23q-4 8 -6 23.5t-2 40.5q0 63 5 78l4 17l6 21q-1 4 1 10.5t5 14.5q2 3 4.5 8.5t6.5 13.5l11 27
q3 12 10.5 24.5t16.5 24.5l16.5 22t10.5 17q7 6 18.5 17t29.5 28q2 13 18 20l22 17q10 5 27.5 14.5t44.5 21.5q2 5 48 11q20 4 33 5t19 1q37 0 64 -10q18 -5 27 -14q9 -8 15 -13.5t8 -6.5l21 -17q8 -8 23 -19q6 -10 10 -13.5t13 -3.5l13 -1q13 15 28.5 41t34.5 62
q23 -12 23 -65v-64z" />
    <glyph glyph-name="Egrave" unicode="&#xc8;" horiz-adv-x="729" 
d="M465 871q-12 -19 -30 -19q-17 0 -34.5 7.5t-35.5 15.5l-2 8q-5 0 -8 -1q-1 2 -7 4q-3 5 -82 39l-3 6q-15 8 -28.5 13.5t-25.5 9.5l-4 6q-10 -4 -40 20q-27 24 -31 35q-2 2 -4.5 9t-6.5 22q4 6 14 34q4 10 31 31q14 1 23 7q8 -3 17.5 -5.5t22.5 -6.5q4 2 7 2q9 0 24 -23
l15 -7q4 -3 6.5 -6t4.5 -6l7 -6l5 -11l11 -3q7 -8 15.5 -18.5t19.5 -25.5q3 -3 6 -6.5t6 -7.5q10 -8 22.5 -20t28.5 -30q38 -39 45 -55q3 -4 6 -6.5t5 -5.5zM723 249q-2 -5 -3 -9t-2 -7t-1 -5q0 -93 5 -96v-35q1 -5 1 -10.5v-10.5v-14q0 -20 -8 -44q-10 -13 -83 -13h-29
h-16.5t-18.5 1q-45 3 -46 2l-7 1h-10v-1l-5 1l-12 -1h-6q-2 0 -10 -2h-15q-5 0 -14 0.5t-19.5 1l-21 1t-17.5 0.5q-11 -1 -19.5 -3t-14.5 -4l-16 3q-4 4 -150 4q-26 0 -74 -3q-25 -1 -43 -2t-31 -1l-6 -1l-19 7l-3 2l-6 1l-5 8l2 11q5 1 10 3l10 4h6l2 2h49q28 0 45 14
q1 1 4.5 3.5t8.5 8.5l2 5q12 9 12 55q0 7 -0.5 18t-1.5 23t-2 23t-2 18q4 5 6 20.5t0 42.5v100q-1 2 -2 13t-2 31q-2 21 -2.5 35t-2.5 19q6 27 8.5 41t2.5 18q0 13 -6 54q-4 15 -4 34q0 9 0.5 18.5t1.5 19.5q3 15 -5 20q0 9 -4 24q-21 29 -92 24l-10 -2q-2 2 -21 5
q-6 3 -10 6t-4 21q30 14 88 14q2 0 3 -1t5 -1t7 -1h2q22 -5 95 -5q14 0 29 1t32 3l4 -4h50l2 2l9 2q8 -2 12 -2h14q6 0 15.5 1t24.5 2q13 2 22 2.5t17 -0.5l9 -2h1l5 2q72 1 219 0l21 -2l8 -5q9 -23 9 -58l-2 -31v-3v-106v-2q0 -24 -1 -43.5t-5 -36.5l-9 -3l-15 5
q-2 5 -4.5 11.5t-6.5 16.5q-2 2 -5 16.5t-14 49.5q-1 1 -4.5 6.5t-8.5 25.5q-4 4 -6.5 11t-6.5 20q-9 10 -20 18q0 3 -10 13l-2 4q-5 4 -14 10t-20 15q-6 1 -11 8q-17 1 -27 9h-26q1 0 -5 1t-17 5q-7 2 -17 3.5t-23 -0.5q-22 -1 -32.5 -2t-9.5 -1q-5 0 -16 3t-16 3h-1
q-16 -4 -34 -1q-8 -2 -17 -4t-17 -6q-18 -16 -15 -23q-7 -4 -10 -40q-1 -7 -1 -13.5v-11.5v-18q4 -7 1 -43q-1 -24 -2 -36t-1 -10v-9q0 -2 0.5 -4.5t1.5 -6.5v-20q2 -4 2.5 -13t1.5 -19t3 -19.5t7 -14.5q1 0 4 -3q12 -3 22 -3q12 0 27 4l2 2q5 1 16.5 5.5t31.5 11.5
q5 5 12 7q4 4 5 4q12 4 15 18q5 4 9 9.5t8 16.5q8 8 11.5 28t5.5 54q0 2 1 3l-1 1q1 30 15 30l11 -2l5 -3q0 -5 1 -5q3 -14 2 -30q-1 -8 -1.5 -14.5t-0.5 -10.5v-6q0 -4 2 -31t6 -78l-2 -4q-1 -10 -2 -24t1 -31q1 -21 2 -34.5t1 -20.5q-1 -5 -2 -15.5t-2 -22t-1.5 -23
t-0.5 -18.5q0 -18 -2.5 -27t-5.5 -13q-4 -4 -8 -4h-4q-4 3 -7 11t-4 21l-5 37l-1 3q-2 6 -5 15.5t-8 22.5q-2 8 -6 17l-3 14q-2 2 -13.5 12.5t-33.5 29.5l-14 1q-3 5 -23 8l-2 1q-18 7 -46 7q-15 0 -20 -11q-4 -9 -5 -58t-1 -139l4 -23v-3v-31q0 -2 1.5 -13.5t3.5 -31.5
q4 -7 8 -13.5t7 -13.5q2 -2 11 -3t28 -5q1 0 4 -3l4 1q24 6 160 0l1 2q7 2 17.5 2.5t24.5 2.5q8 2 16 5.5t17 9.5q21 11 36 29.5t26 42.5q2 0 7 9t5 13q5 5 9 14.5t7 20t5.5 20t4.5 13.5q0 4 4 4q3 21 9.5 47.5t14.5 58.5q4 2 7.5 4t9.5 6l11 -8q2 -4 3 -14.5t3 -27.5
q1 -8 1.5 -15.5t0.5 -12.5q0 -12 1 -15z" />
    <glyph glyph-name="Eacute" unicode="&#xc9;" horiz-adv-x="729" 
d="M620 1046q-2 -7 -3.5 -13.5t-6 -14t-12 -17t-21.5 -21.5q-26 -22 -37 -20l-6 -6q-11 -4 -24 -9.5t-28 -13.5l-5 -6q-19 -8 -39 -17.5t-43 -21.5q-3 -3 -7 -4q-2 1 -8 1l-2 -8q-17 -8 -35 -15.5t-35 -7.5q-19 0 -28 19q3 4 11 12q7 19 43 55q17 18 30 30t22 20q3 6 11 14
q8 9 17 20t20 24l9 3l5 11l9 6q1 4 3.5 6.5l5.5 5.5l16 7q15 23 24 23q4 0 6 -2q8 2 18 5.5t24 6.5q6 -6 21 -7q27 -21 31 -31q10 -28 14 -34zM723 249q-2 -5 -3 -9t-2 -7t-1 -5q0 -93 5 -96v-35q1 -5 1 -10.5v-10.5v-14q0 -20 -8 -44q-10 -13 -83 -13h-29h-16.5t-18.5 1
q-45 3 -46 2l-7 1h-10v-1l-5 1l-12 -1h-6q-2 0 -10 -2h-15q-5 0 -14 0.5t-19.5 1l-21 1t-17.5 0.5q-11 -1 -19.5 -3t-14.5 -4l-16 3q-4 4 -150 4q-26 0 -74 -3q-25 -1 -43 -2t-31 -1l-6 -1l-19 7l-3 2l-6 1l-5 8l2 11q5 1 10 3l10 4h6l2 2h49q28 0 45 14q1 1 4.5 3.5
t8.5 8.5l2 5q12 9 12 55q0 7 -0.5 18t-1.5 23t-2 23t-2 18q4 5 6 20.5t0 42.5v100q-1 2 -2 13t-2 31q-2 21 -2.5 35t-2.5 19q6 27 8.5 41t2.5 18q0 13 -6 54q-4 15 -4 34q0 9 0.5 18.5t1.5 19.5q3 15 -5 20q0 9 -4 24q-21 29 -92 24l-10 -2q-2 2 -21 5q-6 3 -10 6t-4 21
q30 14 88 14q2 0 3 -1t5 -1t7 -1h2q22 -5 95 -5q14 0 29 1t32 3l4 -4h50l2 2l9 2q8 -2 12 -2h14q6 0 15.5 1t24.5 2q13 2 22 2.5t17 -0.5l9 -2h1l5 2q72 1 219 0l21 -2l8 -5q9 -23 9 -58l-2 -31v-3v-106v-2q0 -24 -1 -43.5t-5 -36.5l-9 -3l-15 5q-2 5 -4.5 11.5t-6.5 16.5
q-2 2 -5 16.5t-14 49.5q-1 1 -4.5 6.5t-8.5 25.5q-4 4 -6.5 11t-6.5 20q-9 10 -20 18q0 3 -10 13l-2 4q-5 4 -14 10t-20 15q-6 1 -11 8q-17 1 -27 9h-26q1 0 -5 1t-17 5q-7 2 -17 3.5t-23 -0.5q-22 -1 -32.5 -2t-9.5 -1q-5 0 -16 3t-16 3h-1q-16 -4 -34 -1q-8 -2 -17 -4
t-17 -6q-18 -16 -15 -23q-7 -4 -10 -40q-1 -7 -1 -13.5v-11.5v-18q4 -7 1 -43q-1 -24 -2 -36t-1 -10v-9q0 -2 0.5 -4.5t1.5 -6.5v-20q2 -4 2.5 -13t1.5 -19t3 -19.5t7 -14.5q1 0 4 -3q12 -3 22 -3q12 0 27 4l2 2q5 1 16.5 5.5t31.5 11.5q5 5 12 7q4 4 5 4q12 4 15 18
q5 4 9 9.5t8 16.5q8 8 11.5 28t5.5 54q0 2 1 3l-1 1q1 30 15 30l11 -2l5 -3q0 -5 1 -5q3 -14 2 -30q-1 -8 -1.5 -14.5t-0.5 -10.5v-6q0 -4 2 -31t6 -78l-2 -4q-1 -10 -2 -24t1 -31q1 -21 2 -34.5t1 -20.5q-1 -5 -2 -15.5t-2 -22t-1.5 -23t-0.5 -18.5q0 -18 -2.5 -27
t-5.5 -13q-4 -4 -8 -4h-4q-4 3 -7 11t-4 21l-5 37l-1 3q-2 6 -5 15.5t-8 22.5q-2 8 -6 17l-3 14q-2 2 -13.5 12.5t-33.5 29.5l-14 1q-3 5 -23 8l-2 1q-18 7 -46 7q-15 0 -20 -11q-4 -9 -5 -58t-1 -139l4 -23v-3v-31q0 -2 1.5 -13.5t3.5 -31.5q4 -7 8 -13.5t7 -13.5
q2 -2 11 -3t28 -5q1 0 4 -3l4 1q24 6 160 0l1 2q7 2 17.5 2.5t24.5 2.5q8 2 16 5.5t17 9.5q21 11 36 29.5t26 42.5q2 0 7 9t5 13q5 5 9 14.5t7 20t5.5 20t4.5 13.5q0 4 4 4q3 21 9.5 47.5t14.5 58.5q4 2 7.5 4t9.5 6l11 -8q2 -4 3 -14.5t3 -27.5q1 -8 1.5 -15.5t0.5 -12.5
q0 -12 1 -15z" />
    <glyph glyph-name="Ecircumflex" unicode="&#xca;" horiz-adv-x="729" 
d="M605 917q0 -11 -7 -22.5t-16 -11.5q-3 0 -5 2q-14 1 -37 12q-17 10 -42 21q-16 18 -34 37.5t-38 39.5q-15 12 -31.5 25.5t-36.5 30.5q-3 4 -6 7.5t-7 7.5q-9 -9 -17 -18t-16 -19q-36 -39 -58 -61q-19 -23 -39.5 -47.5t-43.5 -51.5q-6 -9 -14 -19t-17 -10q-11 0 -22.5 7
t-11.5 16q0 3 2 5q1 14 12 37q8 5 22 24q1 5 35 43q17 20 27.5 31.5t13.5 14.5q12 15 25.5 31.5t30.5 36.5q6 5 13.5 12t18.5 17q3 18 16 27q4 4 21 4q11 0 26 -15q6 -6 11 -12.5t11 -12.5q15 -11 34 -24.5t41 -30.5q26 -25 53 -50t56 -53q10 -6 20 -14t10 -17zM723 249
q-2 -5 -3 -9t-2 -7t-1 -5q0 -93 5 -96v-35q1 -5 1 -10.5v-10.5v-14q0 -20 -8 -44q-10 -13 -83 -13h-29h-16.5t-18.5 1q-45 3 -46 2l-7 1h-10v-1l-5 1l-12 -1h-6q-2 0 -10 -2h-15q-5 0 -14 0.5t-19.5 1l-21 1t-17.5 0.5q-11 -1 -19.5 -3t-14.5 -4l-16 3q-4 4 -150 4
q-26 0 -74 -3q-25 -1 -43 -2t-31 -1l-6 -1l-19 7l-3 2l-6 1l-5 8l2 11q5 1 10 3l10 4h6l2 2h49q28 0 45 14q1 1 4.5 3.5t8.5 8.5l2 5q12 9 12 55q0 7 -0.5 18t-1.5 23t-2 23t-2 18q4 5 6 20.5t0 42.5v100q-1 2 -2 13t-2 31q-2 21 -2.5 35t-2.5 19q6 27 8.5 41t2.5 18
q0 13 -6 54q-4 15 -4 34q0 9 0.5 18.5t1.5 19.5q3 15 -5 20q0 9 -4 24q-21 29 -92 24l-10 -2q-2 2 -21 5q-6 3 -10 6t-4 21q30 14 88 14q2 0 3 -1t5 -1t7 -1h2q22 -5 95 -5q14 0 29 1t32 3l4 -4h50l2 2l9 2q8 -2 12 -2h14q6 0 15.5 1t24.5 2q13 2 22 2.5t17 -0.5l9 -2h1l5 2
q72 1 219 0l21 -2l8 -5q9 -23 9 -58l-2 -31v-3v-106v-2q0 -24 -1 -43.5t-5 -36.5l-9 -3l-15 5q-2 5 -4.5 11.5t-6.5 16.5q-2 2 -5 16.5t-14 49.5q-1 1 -4.5 6.5t-8.5 25.5q-4 4 -6.5 11t-6.5 20q-9 10 -20 18q0 3 -10 13l-2 4q-5 4 -14 10t-20 15q-6 1 -11 8q-17 1 -27 9
h-26q1 0 -5 1t-17 5q-7 2 -17 3.5t-23 -0.5q-22 -1 -32.5 -2t-9.5 -1q-5 0 -16 3t-16 3h-1q-16 -4 -34 -1q-8 -2 -17 -4t-17 -6q-18 -16 -15 -23q-7 -4 -10 -40q-1 -7 -1 -13.5v-11.5v-18q4 -7 1 -43q-1 -24 -2 -36t-1 -10v-9q0 -2 0.5 -4.5t1.5 -6.5v-20q2 -4 2.5 -13
t1.5 -19t3 -19.5t7 -14.5q1 0 4 -3q12 -3 22 -3q12 0 27 4l2 2q5 1 16.5 5.5t31.5 11.5q5 5 12 7q4 4 5 4q12 4 15 18q5 4 9 9.5t8 16.5q8 8 11.5 28t5.5 54q0 2 1 3l-1 1q1 30 15 30l11 -2l5 -3q0 -5 1 -5q3 -14 2 -30q-1 -8 -1.5 -14.5t-0.5 -10.5v-6q0 -4 2 -31t6 -78
l-2 -4q-1 -10 -2 -24t1 -31q1 -21 2 -34.5t1 -20.5q-1 -5 -2 -15.5t-2 -22t-1.5 -23t-0.5 -18.5q0 -18 -2.5 -27t-5.5 -13q-4 -4 -8 -4h-4q-4 3 -7 11t-4 21l-5 37l-1 3q-2 6 -5 15.5t-8 22.5q-2 8 -6 17l-3 14q-2 2 -13.5 12.5t-33.5 29.5l-14 1q-3 5 -23 8l-2 1
q-18 7 -46 7q-15 0 -20 -11q-4 -9 -5 -58t-1 -139l4 -23v-3v-31q0 -2 1.5 -13.5t3.5 -31.5q4 -7 8 -13.5t7 -13.5q2 -2 11 -3t28 -5q1 0 4 -3l4 1q24 6 160 0l1 2q7 2 17.5 2.5t24.5 2.5q8 2 16 5.5t17 9.5q21 11 36 29.5t26 42.5q2 0 7 9t5 13q5 5 9 14.5t7 20t5.5 20
t4.5 13.5q0 4 4 4q3 21 9.5 47.5t14.5 58.5q4 2 7.5 4t9.5 6l11 -8q2 -4 3 -14.5t3 -27.5q1 -8 1.5 -15.5t0.5 -12.5q0 -12 1 -15z" />
    </font>
</defs>
</svg>
