<?xml version="1.0" standalone="no"?>
<!DOCTYPE svg PUBLIC "-//W3C//DTD SVG 20010904//EN"
 "http://www.w3.org/TR/2001/REC-SVG-20010904/DTD/svg10.dtd">
<svg version="1.0" xmlns="http://www.w3.org/2000/svg"
 width="16.000000pt" height="16.000000pt" viewBox="0 0 16.000000 16.000000"
 preserveAspectRatio="xMidYMid meet">
<metadata>
Created by potrace 1.11, written by Peter Selinger 2001-2013
</metadata>
<g transform="translate(0.000000,16.000000) scale(0.002286,-0.002286)"
fill="#000000" stroke="none">
<path d="M1695 5788 c-109 -12 -275 -64 -275 -86 0 -5 -24 -22 -54 -38 -56
-29 -66 -44 -66 -102 0 -74 66 -155 153 -187 53 -20 166 -25 253 -11 146 24
246 -97 282 -339 9 -63 8 -308 -2 -835 -17 -840 -10 -1320 23 -1655 8 -80 7
-173 -3 -230 -2 -16 -10 -66 -16 -110 -6 -44 -13 -91 -15 -105 -2 -14 -9 -63
-15 -110 -6 -47 -15 -103 -20 -125 -5 -22 -12 -55 -15 -73 -8 -45 -78 -136
-121 -157 -42 -20 -123 -48 -228 -81 -128 -39 -164 -60 -176 -102 -40 -135 -5
-207 115 -237 51 -13 1022 -4 1174 10 29 3 88 8 130 10 89 7 109 12 135 34 50
44 70 164 34 213 -21 30 -46 39 -178 63 -124 24 -270 63 -294 79 -12 8 -40 31
-62 53 -40 36 -54 62 -104 183 -27 65 -33 71 -72 59 l-29 -8 7 45 c3 25 2 50
-3 57 -36 44 -43 249 -29 737 4 135 9 272 11 305 1 33 6 115 9 183 4 67 8 148
11 180 2 31 7 98 10 147 6 82 7 506 1 1102 -1 204 0 231 13 218 8 -8 18 -43
22 -78 4 -36 23 -118 42 -183 19 -66 56 -191 81 -279 26 -88 53 -182 61 -208
8 -26 22 -89 30 -140 9 -51 36 -150 60 -222 24 -71 50 -159 59 -195 8 -36 28
-108 45 -160 16 -52 37 -138 46 -190 42 -249 190 -715 259 -815 11 -16 21 -36
23 -45 2 -17 11 -87 18 -140 2 -19 7 -66 10 -105 3 -38 8 -83 10 -100 2 -16 7
-63 10 -103 3 -40 10 -84 15 -97 5 -14 8 -25 5 -25 -3 0 38 -125 103 -310 17
-47 33 -111 36 -143 10 -111 64 -156 169 -143 28 4 58 11 68 17 54 28 82 129
57 204 -13 38 -12 42 28 122 41 82 79 200 90 284 3 24 10 62 14 84 4 22 22
108 38 190 28 137 44 228 88 505 8 52 28 160 45 240 16 80 31 154 33 165 7 39
27 111 57 205 41 132 46 150 54 190 4 19 30 121 57 225 45 172 50 198 46 273
-4 81 -4 84 26 116 17 18 43 66 58 107 22 60 91 308 103 369 33 171 49 240 52
236 3 -3 7 -200 9 -438 4 -545 14 -1243 19 -1328 6 -125 6 -337 0 -605 -7
-336 -7 -309 -5 -380 3 -60 0 -92 -21 -227 -6 -40 -11 -83 -10 -95 0 -16 -5
-23 -17 -23 -19 0 -62 -34 -62 -49 0 -19 -225 -51 -362 -51 -176 0 -218 -65
-144 -225 57 -122 106 -143 291 -119 170 22 1089 5 1334 -25 162 -20 246 8
293 96 28 54 36 131 18 178 -6 17 -26 45 -43 63 -48 50 -110 64 -290 64 -153
1 -211 12 -245 45 -7 7 -17 13 -22 13 -17 0 -60 86 -70 141 -17 89 -25 243
-21 429 8 472 9 464 -44 855 -24 178 -25 197 -3 345 16 107 25 181 35 305 2
28 5 331 8 675 3 554 6 666 21 745 2 11 6 45 10 75 8 71 24 93 87 120 41 18
75 24 162 26 89 2 168 10 205 19 31 7 64 22 107 47 63 38 94 89 94 155 0 26 0
64 0 85 1 59 -25 96 -89 126 l-57 27 -445 -3 c-427 -2 -506 -6 -587 -35 -23
-8 -35 -8 -45 1 -44 36 -153 -55 -206 -173 -20 -43 -42 -149 -48 -225 -3 -36
-23 -128 -44 -205 -58 -205 -69 -262 -75 -366 -3 -52 -7 -107 -9 -124 -3 -16
-10 -82 -16 -145 -10 -94 -19 -131 -50 -206 -65 -153 -104 -271 -125 -378 -13
-58 -70 -306 -92 -391 -14 -55 -27 -113 -30 -130 -2 -16 -11 -59 -19 -95 -18
-78 -18 -74 -48 -225 -13 -66 -45 -198 -72 -293 -46 -169 -48 -173 -62 -146
-16 31 -51 63 -68 64 -9 0 -9 12 -2 43 5 23 7 58 3 77 -3 19 -8 49 -11 65 -3
17 -9 46 -14 65 -5 19 -12 51 -15 70 -3 19 -10 49 -15 65 -57 179 -85 276
-124 425 -57 221 -118 422 -146 487 -18 43 -26 51 -43 47 -12 -2 -28 -11 -34
-21 -12 -15 -13 -13 -14 13 -1 16 0 42 1 57 1 15 -3 34 -9 41 -7 8 -22 63 -36
122 -24 110 -29 137 -40 229 -4 28 -8 57 -10 65 -3 8 -7 32 -11 54 -6 42 -9
58 -18 96 -3 14 -8 41 -11 60 -2 19 -7 46 -10 60 -12 60 -25 139 -31 190 -4
30 -12 66 -19 80 -7 14 -16 41 -20 60 -4 19 -11 41 -16 50 -5 8 -24 54 -43
102 -98 242 -229 424 -330 458 -38 12 -632 19 -731 8z"/>
</g>
</svg>
