<?xml version="1.0" standalone="no"?>
<!DOCTYPE svg PUBLIC "-//W3C//DTD SVG 1.1//EN" "http://www.w3.org/Graphics/SVG/1.1/DTD/svg11.dtd" >
<svg>
<metadata>
Created by FontForge 20120731 at Wed Sep  7 06:34:33 2016
 By www
Copyright (c) Baseline Fonts www.baselinefonts.com * Not freely distributable * Licensed Font Visit us on the web for updates and purchasing options, 2004. All rights reserved.
</metadata>
<defs>
<font id="OldTimesAmericanW00-Italic" horiz-adv-x="238" >
  <font-face 
    font-family="OldTimesAmericanW00-Italic"
    font-weight="400"
    font-style="italic"
    font-stretch="normal"
    units-per-em="1000"
    panose-1="2 0 5 3 6 0 0 9 0 4"
    ascent="800"
    descent="-200"
    x-height="458"
    cap-height="775"
    bbox="-43 -285 1465 1265"
    underline-thickness="50"
    underline-position="-125"
    slope="-12"
    unicode-range="U+0005-2122"
  />
<missing-glyph horiz-adv-x="500" 
d="M63 846h374v-846h-374v846zM375 63v720h-250v-720h250z" />
    <glyph glyph-name=".notdef" horiz-adv-x="500" 
d="M63 846h374v-846h-374v846zM375 63v720h-250v-720h250z" />
    <glyph glyph-name="glyph1" horiz-adv-x="0" 
 />
    <glyph glyph-name="glyph1" horiz-adv-x="0" 
 />
    <glyph glyph-name="glyph2" 
 />
    <glyph glyph-name="uni0005" horiz-adv-x="500" 
d="M420 943q0 -3 7 -9t15 -13t15 -13.5t7 -10.5q0 -5 -6 -16.5t-7 -16.5q0 -4 -8.5 -11.5t-8.5 -13.5q0 -3 -3.5 -7.5t-8.5 -9t-9.5 -8.5t-6.5 -6q-8 -8 -15 -14.5t-13 -9.5q-1 -1 -32 -20l-31 -16q0 -4 -47 -4q-50 0 -54 7q-1 2 -7 4t-13.5 4t-13.5 4t-6 4t-4.5 6t-10 8
t-11 7t-7.5 3q-10 3 -29 34q-16 31 -26 31q-8 0 -18 46v3q0 9 8.5 17.5t18.5 14.5t18.5 10t7.5 5q0 -7 6 -15t12.5 -16t12.5 -16.5t6 -16.5q0 -3 3.5 -14.5t7.5 -11.5v-1q0 -2 1 -7.5t4 -14.5q10 -25 14 -26q47 -35 57 -35q-2 0 7.5 0.5t22 1t23 2t10.5 3.5q13 0 29 22
q26 30 27 64q2 5 3.5 14t5.5 25l1 4q2 7 9.5 11t15.5 6.5t14.5 5t6.5 5.5v1z" />
    <glyph glyph-name="uni0006" horiz-adv-x="500" 
d="M487 833q-2 -8 -2.5 -17.5t-2.5 -20.5q0 -5 -4 -10t-9.5 -9.5t-10 -8t-5.5 -5.5q-7 -15 -40 -18h-7q-26 0 -61 20q-18 12 -18 65q0 73 74 73q28 0 49 -10q9 -6 13.5 -9.5t6.5 -3.5q9 -4 17 -46z" />
    <glyph glyph-name="uni0008" horiz-adv-x="500" 
d="M469 972q1 -2 1 -7v-6q0 -22 -12 -44q-1 -5 -6.5 -9t-14.5 -12q-3 -7 -17 -10l-14 -4q0 -1 -8 -1h-11h-6.5t-8.5 1q-9 0 -27 9q-6 4 -9 6.5t-4.5 4l-2 2t-3.5 2.5q-6 8 -8.5 11t-3.5 4.5t-2 3.5t-3 7q-1 6 -2 9.5t-1 4.5q1 2 1 7q0 7 -4 7q0 2 1 15.5t7 30.5q3 11 6.5 15
t14.5 11q5 3 7 5.5t5 5.5t10 5.5t21 5.5q4 1 7 1.5t7 0.5q14 0 28 -8q11 -6 15 -8.5t10 -8.5q0 -2 3.5 -5t5.5 -4q3 -4 7.5 -10.5t7.5 -15.5q2 -8 2 -12q0 -7 1 -10zM354 978v-11v-9t1 -11q0 -10 2 -11.5t6 -5.5q0 -6 11 -9q7 0 8 -1h6q2 1 6 1q2 0 8 2q7 3 11 5.5t4 14.5
v31q-1 3 -1 6q0 2 -1.5 6.5t-9.5 14.5q-2 4 -7 4.5t-10 1.5q-19 0 -26 -5t-8 -24z" />
    <glyph glyph-name="uni000A" unicode="&#xa;" horiz-adv-x="500" 
d="M47 697q-6 9 -6 17q0 6 2 12q5 13 16.5 24t22.5 23l5 -1q2 2 2 7q3 3 5 4q4 1 53 53l6 1q10 10 17.5 18.5t14.5 15.5l5 3q2 5 8.5 11t20.5 13q11 7 19.5 11t14.5 5l26 -2q2 -2 8 -7t14 -13q8 -6 14 -32q-1 -5 -1.5 -8.5t-0.5 -5.5q0 -4 1 -5l-22 -28q1 -1 1 -3t-1 -3
q-1 -6 -23 -12l-11 -11q-2 -2 -5 -2q-4 0 -7 -1l-7 -5l-9 -2l-5 -6q-8 -4 -19 -7.5t-25 -8.5q-5 -4 -14 -5q-8 -5 -21 -11.5t-32 -13.5q-39 -19 -52 -19q-3 -2 -6.5 -3t-8.5 -3zM231 652q-6 9 -6 17q0 6 2 12q5 13 16.5 24t22.5 23l5 -1q2 2 2 7q3 3 5 4q4 1 53 53l6 1
q10 10 17.5 18.5t14.5 15.5l5 3q2 5 8.5 11t20.5 13q11 7 19.5 11t14.5 5l26 -2q2 -2 8 -7t14 -13q8 -6 14 -32q-1 -5 -1.5 -8.5t-0.5 -5.5q0 -4 1 -5l-22 -28q1 -1 1 -3t-1 -3q-1 -6 -23 -12l-11 -11q-2 -2 -5 -2q-4 0 -7 -1l-7 -5l-9 -2l-5 -6q-8 -4 -19 -7.5t-25 -8.5
q-5 -4 -14 -5q-8 -5 -21 -11.5t-32 -13.5q-39 -19 -52 -19q-3 -2 -6.5 -3t-8.5 -3z" />
    <glyph glyph-name="uni000B" horiz-adv-x="500" 
d="M327 -12l12 -22h2q1 0 1 -3t-4 -11.5t-18 -26.5q-12 -16 -16 -31.5t-4 -28.5q0 -7 1 -12.5t2 -9.5q1 -2 1 -4t1 -4l78 -6q4 -8 6 -11q2 -5 4 -9.5t2 -7.5q0 -7 -12 -14q-2 -2 -5.5 -4t-7.5 -4l-134 13q-2 5 -4 9t-4 9q-4 8 -7.5 16.5t-5.5 17.5q-4 12 -4 19q0 3 0.5 7
t0.5 12q0 9 0.5 14t2 9.5t4 9.5t5.5 13q4 8 11.5 22t15.5 28q5 8 10 16.5t10 17.5l49 -6z" />
    <glyph glyph-name="uni000C" horiz-adv-x="500" 
d="M88 916q0 8 5.5 16.5t12.5 8.5q2 0 4 -2q5 0 11.5 -2.5t14.5 -6.5q6 -4 13.5 -8.5t17.5 -9.5q11 -14 23.5 -28t26.5 -29q11 -9 22.5 -19.5t24.5 -22.5q1 -3 11 -13q5 5 11.5 12t14.5 15q27 27 44 41q14 16 31 32.5t35 34.5l2 3q5 6 10 11.5t11 5.5q8 0 16.5 -5t8.5 -11
l-2 -6q-1 -5 -3.5 -10.5t-6.5 -13.5l-11.5 -11.5t-7 -7.5t-9 -10t-17.5 -18q-28 -28 -31 -32q-10 -11 -21 -21.5t-23 -24.5q-8 -8 -24 -21q-4 -8 -14 -18q-4 -2 -17 -2q-8 0 -16.5 9.5t-16.5 20.5l-3 3q-10 8 -23 17.5t-27 22.5q-18 17 -37.5 37t-40.5 41l-1 1l-2 1
q-6 5 -11.5 9.5t-5.5 10.5z" />
    <glyph glyph-name="uni000D" unicode="&#xd;" 
d="M291 438q19 -6 8 -53q-2 -9 -6 -22.5t-8.5 -26.5t-9 -23.5t-5.5 -12.5l-58 -238q0 -16 19 -25q12 -5 27 -5h9h6q22 0 18 -21q-2 -11 -15.5 -16.5t-27.5 -5.5q-4 0 -14 2q-15 3 -41 3h-17q-12 -1 -21 -1.5t-17 -0.5t-12.5 0.5t-7.5 1.5q-91 1 -86 20q1 3 6 7t20 5
q8 2 12 2q8 0 12 1q22 4 37 19q7 6 15 23q1 2 2 5.5t2 7.5t1.5 7.5t1.5 8.5q1 11 2.5 18t1.5 8q13 52 23.5 95.5t20.5 76.5l7 32q12 50 7 50q-3 0 -11 11q-7 11 -15.5 11.5t-21.5 2.5q-16 2 -14 7q1 2 -3.5 4t-3.5 5l2 2q9 5 20 9q9 4 32.5 5t61.5 1q4 0 21 4q11 0 20 -4z
" />
    <glyph glyph-name="uni001A" horiz-adv-x="501" 
d="M426 617q13 15 18.5 23t6.5 10v1q-2 2 -2 12q2 5 -19 8q-4 0 -7 0.5t-5 0.5q-11 0 -14 -4q-6 -4 -15 -9.5t-19 -10.5q-9 -7 -25 -28q-7 0 -32 -105q-2 -8 -1 -19.5t-1 -17.5q0 -6 11 -17q2 -3 5 -6l6 -6q-2 -6 11 -6q4 0 11.5 1l15 2t13 2t6.5 1h15q9 0 12 -1h38
q1 0 21 4q11 0 20 -4q19 -6 7 -53q-2 -9 -6 -22.5t-8.5 -26.5t-9 -23.5t-5.5 -12.5l-57 -238q-1 -16 19 -25q12 -5 27 -5h15q22 0 18 -21q-3 -11 -16.5 -16.5t-27.5 -5.5q-3 0 -13 2q-17 3 -42 3h-17q-12 -1 -21 -1.5t-17 -0.5t-12.5 0.5t-7.5 1.5h-18q-7 -4 -16 -4
q-23 1 -37.5 1.5t-20.5 0.5h-61q-4 -1 -8 -1h-8h-13q-26 0 -26 2q0 -3 -14 -3q-10 0 -22.5 1.5t-24.5 3.5t-20.5 4.5t-10.5 4.5q-2 7 -1 8q2 5 12 10.5t31 9.5q23 3 35.5 6t14.5 4q18 13 28 53l14 57q2 8 7 28.5t15 54.5q4 13 6.5 23.5t5.5 21.5q2 11 4 19.5t3 16.5
q4 24 7 40t3 25.5t-5 13t-15 3.5h-19q-55 0 -49 18v2q1 7 14 14q4 4 12 6q7 1 13 1h13t13.5 0.5t13.5 1.5q8 2 15.5 9t10.5 18q4 10 6.5 19t5.5 20q2 6 5 16t10 27q14 38 18 38l32 37q18 20 26 29.5t8 10.5q27 28 94 39q22 3 34 3q10 0 12 -2q26 -13 25 -13q3 0 8 -4.5
t9.5 -10.5t7 -11.5t1.5 -7.5q2 -5 3.5 -10.5t3.5 -11.5q1 -8 2 -13t0 -7q0 -1 -1 -1q2 0 1 -6q-1 -5 -5 -13.5t-10 -22.5q-23 -41 -41 -41q-5 0 -18 -2.5t-21 -2.5q-17 0 -24 18.5t-2 36.5q2 6 4.5 12t7.5 13zM397 401q-3 4 -11 10h-27q-58 0 -64 -25q-5 -21 -15.5 -58
t-25.5 -91q-2 -15 -7 -37t-13 -54q-5 -13 -8 -23.5t-5 -19.5q-9 -38 2 -38q18 -22 24 -22q2 0 2 1h2q1 0 1.5 -0.5t2.5 -0.5q4 0 10 0.5t14 1.5h25q10 4 20 13q6 6 14 23q1 2 2 5.5t2 7.5t2 7.5t1 8.5q2 11 3 18t1 8q13 52 24.5 95.5t19.5 76.5l8 32q12 50 7 50q-3 0 -11 11
z" />
    <glyph glyph-name="uni001B" horiz-adv-x="498" 
d="M493 9q-4 -6 -22 -8h-28q-13 0 -18 1l-112 3q-5 -2 -9.5 -3t-9.5 -2q-63 3 -63 2h-56q-55 -3 -55 1q0 -3 -14 -3q-10 0 -22.5 1.5t-24.5 3.5t-20.5 4.5t-10.5 4.5q-2 7 -1 8q2 5 12 10.5t31 9.5q23 3 35.5 6t14.5 4q16 10 28 53l14 57q2 8 7 28.5t15 54.5q7 25 12 45.5
t7 35.5q4 24 7 40t3 25.5t-5 13t-15 3.5q-77 -3 -68 20q1 7 14 14q4 4 12 6q7 1 13 1h13t13.5 0.5t13.5 1.5q8 2 15.5 9t10.5 18q4 10 6.5 19t5.5 20q2 6 5 16t10 27q14 38 18 38l32 37q18 20 26 29.5t8 10.5q27 28 94 39q41 6 46 1q26 -13 25 -13q3 0 6 -3q27 3 36 3
q42 0 42 -21q1 -3 -6 -34q-8 -29 -12 -29q-3 0 -21 -74q-2 -11 -7 -28.5t-13 -43.5q-7 -25 -13 -44t-9 -33q-11 -51 -20 -90t-20 -70q-2 -8 -12 -44t-27 -102q-6 -26 3 -31q26 -22 34 -22l4 2h1q9 0 19.5 -2t7.5 -14q-1 -7 -6 -13zM432 617q8 9 13.5 15.5t7.5 11.5
q-13 5 -23.5 10t-17.5 13q-1 0 -1 0.5t-1 0.5q-6 -4 -15 -9.5t-19 -10.5q-9 -7 -25 -28q-7 0 -32 -105q-2 -8 -1 -19.5t-1 -17.5q0 -6 11 -17q2 -3 5 -6l6 -6q-2 -6 11 -6q4 0 11.5 1l15 2t13 2t6.5 1q27 0 33 -3q14 -6 10 -21q-3 -14 -32 -14h-42q-58 0 -64 -25
q-5 -21 -15.5 -58t-25.5 -91q-2 -15 -7 -37t-13 -54q-27 -81 -11 -81q22 -28 26 -21q2 -2 30 1q23 0 26 -1q23 5 37 35q5 13 8 26.5t8 27.5q2 13 5.5 31.5t8.5 42.5q10 32 24 80t34 114q12 51 20 80t10 40q0 7 3 18q-6 -1 -12 -1.5t-11 -0.5q-17 0 -24 18.5t-2 36.5
q2 6 4.5 12t7.5 13z" />
    <glyph glyph-name="uni001C" horiz-adv-x="654" 
d="M413 395q0 -10 -1 -13q-1 -4 -2.5 -7.5t-3.5 -8.5q-3 -11 -9 -16.5t-12 -6.5q-12 -2 -29 -4.5t-39 -5.5l-2 -10q-2 -5 -6.5 -19.5t-9.5 -37.5q-4 -15 -8 -33.5t-9 -41.5q-14 -57 -17 -85t1 -28v-1q0 -2 1.5 -9t6.5 -20q-1 -4 11 -9t19 -5h2q25 0 60 2t86 6q58 9 59 12
q0 2 16 12q19 9 22 9q6 3 12.5 9t12.5 12.5t11 12t7 6.5q10 16 33 39q16 6 39 80q4 5 8 14t9 20q6 27 25 63q10 15 19 15q22 0 15 -40q0 1 -1 1v1v1q-1 0 -16 -58q-14 -61 -24 -95q-5 -18 -6.5 -29.5t-3.5 -17.5l-5.5 -27.5t-4.5 -23.5q-3 -12 -6 -21.5t-7 -16.5
q-8 -18 -51 -18q-11 0 -26.5 -1t-31.5 -1.5t-31 -1.5t-25 -1h-127q0 3 -79 3h-90q-69 -3 -154 -3q-7 0 -15 1t-18 4q-24 6 -23 13q2 6 14 13q21 9 48 9h15q41 0 62 32q8 11 14.5 27.5t11.5 37.5l3 12q2 12 5 27.5t8 35.5q3 12 6 25.5t8 27.5l13 54q-13 -1 -13 -3q-6 2 -8 2
q-3 0 -6.5 -0.5t-8.5 -1.5l-23 -3l-30 9q-17 3 -11 27q10 36 30 38l36 11h20q7 0 14.5 0.5t15.5 1.5q5 31 12.5 63t15.5 66q6 26 13.5 53t15.5 55q-1 14 1.5 27t-4.5 21q-5 11 -3 13q2 8 -46 9q-28 2 -41.5 3t-14.5 1q-13 4 -8 24t51 20h12q8 0 13 -1t12.5 -1.5t15.5 -0.5
h40q4 1 7 1.5t7 0.5q9 0 14 1q28 3 44 3q23 0 23 -4l60 3q0 3 15 3h52q17 0 28 -3q20 -8 16 -26l-1 -3q-7 -18 -36 -20q-5 -1 -12 -1h-9q-7 0 -7 1t-29 1q-3 1 -8 1h-7q-15 0 -17 -2q-9 -6 -20 -11q-1 0 -10 -19q-2 -3 -9 -11t-8 -13l-12 -51q-2 -5 -5.5 -21t-8.5 -45
q-5 -21 -10.5 -37t-12.5 -29q-1 -2 -2.5 -9t-3.5 -22l-3 -19q10 2 21 4t17 2q15 0 21.5 -5.5t14.5 -23.5z" />
    <glyph glyph-name="uni001D" horiz-adv-x="300" 
d="M384 392q1 -10 -6 -26q-6 -20 -18 -22q-12 -1 -29 -4t-39 -6q-2 -1 -6 -1q-3 0 -5 -1q-7 -29 -14 -54.5t-14 -46.5q-2 -8 -11.5 -44t-26.5 -102q-6 -25 3 -31q26 -22 34 -22l4 2h1q9 0 19.5 -2t7.5 -14q-1 -7 -6 -13q-5 -7 -22 -8q-17 0 -28 0.5t-17 4.5h-133
q-23 0 -38 9q-4 4 -4 7q1 5 8 9t15.5 7t17 4.5t12.5 1.5q29 0 44 35q5 13 8 26.5t8 27.5q2 13 5.5 31.5t8.5 42.5q7 22 15 51t19 65q-2 0 -4 -0.5t-4 -0.5t-2 -1q-1 1 -8 1q-9 0 -12 -1q-7 -1 -12 -2t-8 -1l-27 8q-13 3 -9 25q10 33 27 35q7 2 14 4.5t18 5.5q6 0 18.5 0.5
t27.5 2.5q3 0 4 1l1 1q9 35 15 59l10 40q5 17 5 21q4 30 16 86q2 4 0.5 9t-1.5 6q5 14 -20 20q-16 5 -28.5 11t-20.5 14q-4 5 -5 8t-1 4t3 3v1q0 1 4.5 5t10.5 8t11.5 7t8.5 3h2q1 0 5.5 -1.5t23.5 -3.5q8 -1 13 -1.5t9 -0.5h9q33 3 42 3q42 0 42 -21q1 -3 -6 -34
q-8 -29 -12 -29q-3 0 -21 -74q-2 -11 -7 -28.5t-13 -43.5q-5 -18 -9.5 -32.5t-8.5 -26.5q3 1 10 2.5t15.5 3t16.5 3t13 1.5q14 0 19 -5t12 -22z" />
    <glyph glyph-name="uni001E" horiz-adv-x="640" 
d="M361 708q-2 0 -8.5 -6.5t-15 -15.5t-17 -18.5t-15.5 -15.5q-26 -24 -29 -38q-1 -6 -8 -17t-15 -22.5t-15 -22.5t-9 -18q-1 -2 -5.5 -13l-13.5 -33q-7 -13 -26 -30h-3q-18 0 -16 17q7 42 18 88q5 22 11.5 43.5t13.5 42.5l21 71q13 37 54 37q13 0 30.5 0.5t40.5 0.5l66 -5
l137 5q8 -1 17 -1h20h51q8 0 25 3t26 3q6 -1 18.5 -1.5t31.5 -2.5q8 -1 14.5 -1h13.5q20 0 31 -2t8 -13q-3 -12 -22 -35q-8 -6 -14 -12.5t-13 -13.5q-19 -23 -38.5 -42t-35.5 -33.5t-26.5 -23.5t-10.5 -12q-1 -3 -5.5 -7t-9 -8.5t-9 -8.5t-5.5 -7q-3 -6 -10 -14t-18 -21
q-1 -3 -6.5 -8.5t-12 -11t-12 -9.5l-5.5 -4q-6 0 -28 -27q-23 -29 -27 -31q-8 -3 -18 -19q-5 -7 -9.5 -10.5t-9 -6.5t-9.5 -6t-12 -10q-8 -6 -12.5 -11.5t-6.5 -8.5q-6 -8 -12 -15t-12 -15q-6 0 -30 -26l-30 -32q-14 -15 -34.5 -36t-49.5 -49q-20 -19 -31.5 -29.5
t-13.5 -14.5q-7 -6 -15.5 -16t-19.5 -24l-29 -39q-5 -14 25 -14q4 0 10 0.5l12 1t10 1t5 0.5l121 5q85 0 114 18q11 6 25 15t32 22q6 4 12.5 8t14.5 9q3 7 10 14q2 2 13 15t31 39q6 0 29 38q10 17 15.5 28t9.5 18.5t6.5 13t5.5 11.5v3l3 9t7 14q15 28 26 28q5 0 7 -5
q8 -21 1 -47q-2 -5 -4.5 -14t-7.5 -23l-6 -19q-1 -3 -1 -9q0 -4 -1 -6q-3 -22 -8 -44t-10 -45q-5 -20 -10.5 -41t-12.5 -42q-13 -43 -71 -43h-14q-10 0 -15 1q-21 3 -136 3q-22 0 -54.5 1t-77.5 1h-131h-19q-5 0 -12 -0.5t-15 -1.5l-28 -1q-6 0 -10 0.5t-8 0.5q-21 0 -43 5
q-9 1 -6 12q1 10 36 46q10 16 37 39q2 1 7 5.5t13 15.5q12 13 17.5 17.5t10 7.5t10.5 8t20 20q26 32 35 35q8 5 15 17.5t11 16.5q25 16 34 37q2 7 12 15.5t25 19.5q16 12 26 21.5t13 17.5q2 1 11 11t26 29q2 0 7 4.5t11 10.5t11.5 12.5t8.5 10.5q3 5 11 13l17 17t17 18
t11 15t11.5 14t20.5 17q26 20 28 29q1 5 7.5 10.5t13.5 11.5t13.5 11.5t7.5 9.5q10 6 18.5 15.5t26.5 29.5q33 35 38 49q3 19 -62 19h-96zM353 1029q3 11 12 21t17 10q2 0 4 -2q13 -2 30 -12q11 -10 31 -22q10 -17 21 -35t23 -37q10 -11 21 -24t23 -28q2 -4 4.5 -7.5
t5.5 -8.5q16 13 39 33q22 17 38 30t29 22q22 20 47.5 40.5t52.5 43.5l3 3q7 8 15 15t16 7q9 0 18 -6.5t7 -14.5q0 -3 -4 -7q-2 -5 -7.5 -13t-12.5 -17q-5 -4 -11 -9t-14 -13q-2 -1 -12 -10.5t-32 -26.5q-21 -17 -32 -26.5t-15 -13.5q-15 -13 -31.5 -26.5t-35.5 -30.5
q-6 -5 -15 -11.5t-21 -14.5q-8 -12 -22 -23q-6 -3 -21 -3q-10 1 -17.5 13t-13.5 25q-10 11 -23 24t-29 30q-17 22 -34 46.5t-36 50.5l-1 1q-7 6 -13 12.5t-4 14.5z" />
    <glyph glyph-name="uni001F" horiz-adv-x="405" 
d="M438 196q-2 -12 -5 -26l-6 -28q-7 -29 -14.5 -54.5t-9.5 -36.5q-7 -29 -36 -43q-29 -15 -75 -15q-16 0 -33.5 1.5t-36.5 5.5h-122q-12 1 -24.5 1.5t-22.5 2t-16 5t-5 11.5q3 10 12 20q13 11 30 28.5t38 42.5q13 22 26 29q4 6 11 13l18 18q2 0 5.5 5.5t8 12t9 12t7.5 5.5
q39 34 40 40q1 4 8 12.5t20 23.5q29 29 30 29q4 0 24 29t24 29q3 0 6 11q7 25 -7 25q-60 0 -62 -2q-5 -1 -14.5 -3.5t-23.5 -7.5q-33 -11 -34 -18q-3 -13 -35 -34q-15 -10 -31 -48q-9 -18 -13 -18q-5 0 -8 10t-8 11q-3 1 -3 7v5.5t1 7.5q1 5 3.5 14.5t5.5 18.5t5 16l2 7
l8 34q8 17 24 29q2 1 4.5 2t6.5 1q5 0 17.5 -3t18.5 -3q7 2 16 2.5t20 0.5h20h11q7 0 10 1q22 3 42 3l22 -1q2 -1 7 -1h9h13q5 0 15 2q20 2 32.5 3t17.5 1q49 0 44 -20q-1 -5 -6 -12t-10.5 -14.5t-10.5 -13.5t-6 -7q-2 -2 -6 -5.5t-9 -7.5t-9 -8.5t-5 -7.5t-7.5 -8
t-13.5 -10t-12.5 -9.5t-5.5 -6.5q-2 -5 -29 -34q-28 -27 -30 -32q-1 -5 -6 -10t-11 -10t-11.5 -9.5t-8.5 -8.5q-4 -10 -22 -25q-9 -9 -14 -14.5t-8.5 -10.5t-8 -11t-13.5 -16t-13.5 -14t-7.5 -6.5t-6 -4.5t-9 -8q-11 -11 -12 -16q0 -2 -3 -7.5t-7 -11.5t-7.5 -11t-4.5 -7
q-3 -13 18 -16h10q9 0 20 1t25 4q43 9 54 9q13 2 29.5 12t34.5 30q33 36 43 63q2 6 15.5 17.5t19.5 24.5zM205 678q2 8 9.5 16.5t14.5 8.5q1 0 3 -2q5 0 11 -2.5t13 -6.5q5 -4 11.5 -8.5t15.5 -9.5q7 -14 16 -28t20 -29q8 -9 17 -19.5t20 -22.5q1 -3 3 -6t4 -7q13 10 33 27
q17 14 30.5 24t23.5 17q35 31 82 67l3 3q6 6 12.5 11.5t12.5 5.5q8 0 15.5 -5t5.5 -11q0 -2 -1 -3t-2 -3q-2 -5 -6.5 -10.5t-9.5 -13.5q-9 -8 -14 -11.5t-9.5 -7.5t-11.5 -10t-22 -18q-17 -14 -26.5 -21.5t-11.5 -10.5q-13 -11 -26.5 -21.5t-28.5 -24.5q-5 -4 -12.5 -9
t-16.5 -12l-9.5 -9.5t-9.5 -8.5q-4 -2 -17 -2q-8 0 -14.5 9.5t-11.5 20.5q-2 2 -2 3q-8 8 -19 17.5t-22 22.5q-14 17 -28.5 37t-30.5 41l-1 1l-1 1l-9.5 9.5t-2.5 10.5z" />
    <glyph glyph-name="space" unicode=" " 
 />
    <glyph glyph-name="space" unicode="&#xa0;" 
 />
    <glyph glyph-name="exclam" unicode="!" horiz-adv-x="315" 
d="M334 729q-2 0 -20 -51q-16 -49 -22 -49q-3 0 -40 -100q-16 -46 -25.5 -73.5t-12.5 -35.5l-29 -98q-8 -29 -18 -53t-21 -44q-5 -8 -14 -8t-16 6t-5 14l4 65q-2 0 19 158l4.5 27t10.5 59q2 9 2.5 23t0.5 28v28v20q2 29 2.5 62t11.5 59q2 7 6.5 16.5t10.5 22.5q2 3 7 8.5
t15 11.5q21 13 21 15q3 20 42 20q50 0 55 -18q4 -17 15 -39q5 -5 5 -23q0 -51 -9 -51zM154 65q-3 -6 -16 -23q-2 -1 -7 -6q-6 -6 -19 -16q-2 -6 -14 -6q-7 0 -23 3q-3 1 -7.5 2t-9.5 3q-27 4 -27 41q0 11 2.5 20t15.5 32q6 4 12 7.5t11 5.5q0 3 23 15q25 12 27 14
q0 1 15 -12q16 -14 14 -20q-2 -4 1 -10.5t5 -6.5q9 -7 -3 -43z" />
    <glyph glyph-name="quotedbl" unicode="&#x22;" horiz-adv-x="477" 
d="M474 611q-17 -32 -29 -39q-2 0 -7 -4t-10.5 -9.5t-10 -11t-5.5 -7.5q0 -4 -18 -17q-19 -13 -19 -17q-1 -5 -8 -11t-16 -11.5t-18.5 -9t-15.5 -3.5q-12 0 -12 11q0 13 37 47q39 33 41 42q2 5 7.5 14t14.5 21q8 11 12.5 19.5t4.5 16.5t-4.5 15.5t-32.5 13.5q-27 6 -27 29
q-1 4 -3 8.5t-4 9.5q-3 15 14 50q3 6 8.5 11t11.5 9t11 7.5t7 6.5q12 13 37 13q22 0 43 -8.5t25 -21.5q9 -35 9 -56q0 -28 -14.5 -59t-28.5 -59zM271 611q-17 -32 -28 -39q-2 0 -7.5 -4.5t-11 -10t-10 -10.5t-5.5 -7q0 -4 -18 -17q-19 -12 -19 -17q-1 -5 -7.5 -11
t-15.5 -11.5t-18.5 -9t-16.5 -3.5q-12 0 -12 11q0 12 36 47q20 17 30 27.5t12 14.5q2 5 7 13.5t16 21.5q17 23 17 36q0 8 -6 15t-34 15q-22 7 -25 28q-1 4 -3 8.5t-4 9.5q0 8 3 20.5t11 29.5q2 5 7.5 10t12.5 9.5t12.5 8t7.5 6.5q9 13 35 13q23 0 43.5 -8.5t24.5 -21.5
q9 -35 9 -56q0 -28 -14.5 -59t-28.5 -59z" />
    <glyph glyph-name="numbersign" unicode="#" horiz-adv-x="575" 
d="M615 486q0 -5 -3 -11.5t-7.5 -12.5t-10 -10t-11.5 -4q6 0 -13 -1t-67 -2h-26l-39 -110q8 1 14 1.5t11 0.5h17h8h6.5t8.5 1h26q12 -1 16 -7q3 -6 5 -11.5t1 -8.5q-5 -16 -11 -23q-12 -17 -22 -17h-14q-10 0 -26.5 -0.5t-40.5 -1.5h-23q-8 -20 -12 -31.5t-5 -12.5l-15 -36
q-8 -7 -15.5 -16l-17.5 -21q-4 -7 -12 -7q-11 0 -19 10t-3 19q0 5 1.5 11.5t3.5 16.5l26 67l-118 -1q-8 -20 -12 -31t-5 -12q-2 -6 -6 -15t-10 -21q-5 -7 -13 -16t-19 -21q-4 -7 -12 -7q-10 0 -17.5 10t-4.5 19q0 5 1.5 11.5t3.5 16.5l26 66h-35q-4 1 -15 1q-5 0 -10 0.5
t-11 1.5q-5 3 -11.5 8t-17.5 10q-6 1 -6 6t5 11.5t11.5 12t14 9.5t12.5 4t14.5 2.5t14.5 2.5l60 -2l40 110h-37q-3 1 -14 1q-5 0 -10 0.5t-10 1.5q-11 6 -30 18q-5 3 -5 6q0 4 4.5 10.5t11 12t14 9.5t12.5 4t14.5 3t14.5 3l58 -2q10 32 16 47t12 35q7 21 18 29q7 7 25 14
q11 1 24 -4t10 -15q-5 -14 -12 -33.5t-16 -46.5q-1 -3 -4 -9t-7 -17l119 -1q6 16 10 27.5t7 20.5t5.5 17.5t5.5 17.5q6 20 20 29q5 7 24 14q6 0 12.5 -1t11.5 -3.5t8 -6t0 -8.5q-5 -14 -11.5 -33.5l-15.5 -46.5q-5 -8 -9 -26q8 1 15 1.5t12 0.5h17q1 -1 8 -1q6 0 13.5 0.5
t14.5 0.5h12q6 -2 10 -3t5 -5q9 -14 6 -20zM291 445l-39 -110l119 -1l41 112z" />
    <glyph glyph-name="dollar" unicode="$" horiz-adv-x="571" 
d="M478 97q-25 -27 -52 -34q-1 0 -7 -2q-2 -1 -6.5 -3t-12.5 -4q-6 -2 -11 -4t-11 -4q-1 -7 -32 -9q-4 -1 -7.5 -1h-6.5q-6 0 -9 -1t-8 -1q-2 -2 -6 -2.5t-9 -4.5t-10 -12.5t-10 -26.5q-2 -2 -3 -11.5t-3 -24.5q-5 -32 -2 -32q2 0 0 -5t-6 -11.5l-8 -13t-6 -8.5
q-6 -10 -27 -10q-18 0 -20 8q-8 14 0 49q9 49 9 62q0 21 -8 27q-4 7 -115 37q-1 1 -2 1.5t-3 2.5l-15 12q-11 8 -15.5 12.5t-6.5 5.5q-3 11 -8 22t-12 24q-6 3 -6 16q0 5 3.5 16t8.5 28q16 45 60 59q31 9 45 -5q18 -21 18 -47q0 -30 -9 -30q-2 0 -31 -29q-12 -15 -19 -22
t-8 -9q-1 -4 2 -9t7.5 -9.5t10 -8t9.5 -3.5q34 -20 46 -20q5 0 5 3q0 -5 21 -5q34 0 40 15q16 38 28 102q17 90 18 101q4 11 4 20q0 43 -54 48q-13 0 -43 11q-38 12 -36 20q-28 13 -35 38q-23 26 -20 43q1 26 12 85q4 8 7.5 19t8.5 26q1 13 23 35l30 31q4 7 54 28
q51 19 51 24q3 11 52 14q39 3 42 25q4 43 9 84q12 57 51 54q40 -1 40 -29q0 -13 -17 -56q-8 -20 -11.5 -32.5t-3.5 -20.5q0 -9 3 -16q7 -15 60 -21q5 -4 14.5 -7.5t20.5 -8.5q25 -10 39 -21.5t21.5 -23.5t9.5 -24t2 -23q0 -28 -20.5 -50t-53.5 -22q-45 0 -49 34q-1 10 2 22
t11 27q16 29 16 38q0 16 -27 25q-11 5 -23.5 9.5t-21.5 2.5q-15 -2 -24 -28l-10 -36q-3 -11 -8 -33.5t-13 -57.5q-17 -77 -16 -77q2 0 5.5 -4.5t7.5 -9.5t8.5 -9.5t8.5 -4.5q3 0 9.5 -1t14.5 -5q9 -3 15.5 -3.5t13 -2t13.5 -5t17 -12.5q11 -8 18 -11.5t12 -5.5
q11 -2 20.5 -11.5t17 -22t11.5 -26.5t4 -25q-3 -48 -3 -50q1 -43 -24.5 -78.5t-65.5 -69.5zM360 669q2 0 -2 6.5t-9 9.5q-2 1 -7.5 0t-12 -2.5t-12.5 -3.5t-8 -2q-11 0 -28 -4.5t-39 -15.5q-47 -21 -54 -39l-8 -16t-9 -16q-13 -23 -13 -35q0 -5 2.5 -8.5t5.5 -7t5.5 -8
t2.5 -12.5q0 -4 3 -9t7.5 -9.5t9.5 -8t9 -3.5q8 0 40 -17q37 -17 49 -17q29 0 31 38q2 14 6 33.5t11 43.5q14 57 18 80t2 23zM332 255q-3 -30 -8.5 -58t-11.5 -54q-5 -22 -7.5 -36t-2.5 -19q0 -30 29 -30q5 0 14.5 3.5t19.5 8t19 8.5t13 4q10 0 34 9q22 9 31 19t26 27
q6 4 9 28q5 23 9 26q5 2 5 9q0 15 -13 38q-3 4 -9 10.5t-14 16.5q-3 5 -9.5 10.5t-14 10.5t-15 8t-11.5 3q-10 0 -28 5.5t-28 6.5q-7 0 -12.5 -5.5t-10 -14t-8 -18t-6.5 -16.5z" />
    <glyph glyph-name="percent" unicode="%" horiz-adv-x="671" 
d="M411 760q-2 -32 -13 -65t-30 -67q-6 -11 -17 -22t-29 -31q-5 -5 -13 -10.5t-20 -9.5q-5 -1 -18.5 -8t-22.5 -7q-6 0 -19 2.5t-18 3.5q-15 0 -40 22q-14 14 -14.5 18.5t-5.5 8.5q-6 6 -3 8q-15 35 -11 35q-3 0 -3 25q-3 26 0 31q9 32 3 32q2 9 4.5 18.5t6.5 20.5
q2 15 7.5 32t16.5 35q6 12 9 17.5t4.5 7.5t2.5 3.5t3 5.5q6 9 7 9q7 10 20 23q18 8 24 17q4 15 58 30q3 1 14 1q15 0 26.5 -4.5t22.5 -12.5q7 -6 10 -9t4.5 -5l3 -4t5.5 -6q9 -8 8 -12.5t4 -12.5q13 -13 16 -46q0 1 3 -9q2 -5 0 -17q-2 -14 -3.5 -25.5t-2.5 -22.5zM714 858
q-4 -9 -10.5 -20.5t-15.5 -26.5q-8 -6 -16.5 -14.5t-19.5 -21.5t-49.5 -65.5t-110.5 -146.5q-155 -207 -161 -212q-45 -51 -92.5 -103.5t-98.5 -109.5q-12 -9 -51 -72q-34 -55 -49 -55q-24 0 -35 23q-5 6 0 29q2 15 37 59q15 17 26.5 30.5t20.5 21.5q6 6 32 37t71 91
t71.5 91.5t31.5 37.5q81 105 163.5 210.5t170.5 216.5l34 34q8 5 15 5q14 0 27 -8.5t13 -19.5q0 -4 -4 -11zM618 228q-5 -63 -44 -133q-6 -10 -17 -21t-29 -31q-7 -12 -33 -20q-3 -3 -20 -9q-5 -4 -10 -5t-10 -1q-8 0 -20.5 2t-16.5 2q-15 3 -41 23q-7 7 -10 11.5t-4 7.5
t-1.5 5t-3.5 4q-4 4 -4 8l-5 15t-4 11q-2 6 -3 8v7q0 3 -0.5 8t-1.5 11v31q9 32 5 32q4 14 9 38q6 30 24 68q6 12 9 17l4.5 7.5t2.5 4t3 5.5q6 9 8 9q3 4 9 9.5t13 10.5t13 10t8 10q5 15 58 29q6 2 14 2q16 0 28 -4.5t20 -10t12 -11t3 -6.5q0 -2 9.5 -9.5t9.5 -12.5t5 -12
t5 -11t5 -15.5t3 -19.5q2 2 5 -10v-7q0 -2 -2 -10q-1 -14 -2 -25t-3 -22zM215 797q-3 -15 -9.5 -46t-14.5 -79q-8 -41 -5 -41l8 -29q-1 -8 6 -21t12 -15q8 -1 19 -5.5t12 -0.5q7 2 15 5.5t17 6.5q5 2 11 7t14 12q2 1 4 4t4 7l9 20q6 0 12.5 30l19.5 90q2 12 5.5 32t7.5 46
q1 3 1 25q-2 18 -5 18q-1 2 -2.5 7.5t-3.5 18.5q-1 12 -15 17q-4 4 -19 11q-5 0 -12.5 -1t-20.5 -2q-8 -2 -14.5 -5.5t-13.5 -11.5q-19 -19 -29 -49q-1 -3 -3 -13q-4 -11 -10 -38zM422 265q-4 -15 -10 -46t-15 -79q-8 -42 -3 -42q6 -24 6 -29q-1 -9 2.5 -16.5t9.5 -12.5
t12.5 -8t10.5 -3q14 -5 14 -1q13 4 34 12q5 2 11 6.5l14 10.5q1 2 3 5t4 7q0 4 10 20q5 0 11.5 30t20.5 90q1 25 12 79q3 6 0 23q-2 20 -4 20q-2 2 -5 26q-3 12 -15 17q-5 2 -10 4.5t-10 4.5t-13 1t-21 -2q-14 -3 -26 -17q-10 -10 -17 -22.5t-13 -27.5z" />
    <glyph glyph-name="ampersand" unicode="&#x26;" horiz-adv-x="762" 
d="M763 251q-26 -119 -38 -119q5 0 -9 -23t-45 -71q-2 -3 -7.5 -9.5t-17.5 -14.5q-19 -15 -29 -19q-8 -1 -24 -6.5t-25 -5.5q-23 0 -39 2t-27 6q-27 10 -54 40q-6 5 -11 12t-11 12q-16 14 -28 14q-16 0 -26 -15q-23 -30 -109 -62q-32 -10 -103 -7q-7 0 -17.5 3t-21.5 7.5
t-20.5 9.5t-14.5 10q-11 11 -24.5 25t-15.5 31q0 6 -2.5 16.5t-6 22t-6 22.5t-2.5 19q0 52 33 120q17 33 35.5 57.5t40.5 40.5q14 13 30.5 25.5t26.5 16.5q6 2 15 7t18 10.5t16 11.5t10 11q5 8 7 16t2 19q0 7 -3 36q-2 11 -2.5 20t0.5 16q5 21 7.5 34t3.5 19q4 14 9 27
t10 24q3 5 7.5 13t10.5 19q2 5 8.5 14t14.5 19t16 18.5t13 12.5l32.5 19.5l17.5 10.5q31 13 54 18q18 7 38 9q22 -4 43 -10q2 -4 12.5 -8t13.5 -8q40 -40 36 -40q10 0 7 -46q-1 -23 -11.5 -41.5t-23.5 -36.5q-4 -6 -9.5 -14t-13.5 -16q-23 -20 -29 -20q-3 0 -22 -13
q-18 -16 -20 -17q-8 -12 -38 -23q-31 -12 -37 -24q-11 -15 -11 -43q0 -41 20 -58q4 -4 11 -57q6 -52 18 -52q7 -20 5 -31q5 -7 10.5 -15t10.5 -16q7 -9 19 -9q31 0 66 71q1 1 4.5 6.5l10.5 16.5q15 21 17 21q4 0 11 31q9 32 8 32q4 0 4 8q0 13 -14 43q-11 34 -13 23
q-11 4 -22.5 8t-22.5 9q-5 5 -5 9q0 6 10 12.5t18 6.5q154 0 157 4q0 -3 8 -3q3 0 10.5 1t17 1.5t19.5 1.5t16 1q27 0 24 -11q-6 -35 -30 -35q-1 0 -5.5 -1.5t-9.5 -3.5t-9 -3.5t-4 -2.5q-1 0 -5 -2q-3 -3 -15 -7q-10 -4 -14.5 -8t-7 -7.5t-5.5 -7.5t-10 -9q-7 -4 -10.5 -7
t-4.5 -4q-5 -8 -19 -17t-20 -17q-10 -10 -29 -40q-5 -12 -26 -37q-21 -24 -23 -38q0 -1 -8 -9l-8 -8q-3 -4 -5.5 -7.5t-4.5 -7.5q-4 -6 -7 -11t-4 -7q-28 -18 -28 -50q0 -5 1 -8.5t2 -5.5q11 -19 24 -40.5t28 -27.5q3 -2 8.5 -4.5t13.5 -7.5q13 -10 25 -10q31 0 52 24
q22 26 35.5 53.5t16.5 53.5q2 13 4 22t4 15q8 28 15 32q5 4 6.5 8.5t10.5 4.5q4 0 9 -7.5t5 -12.5zM517 631q17 39 17 64q0 23 -14 40q-4 5 -8.5 10.5t-9.5 11.5q-7 2 -12 3t-9 2q-3 1 -7 1q-9 -1 -17 -3.5t-15 -4.5q-30 -9 -33 -18q-4 -3 -12 -14q-7 -19 -11.5 -34
t-7.5 -26q-6 -30 -6 -58q0 -79 45 -73q6 2 14 8t21 17q25 25 33 25q10 0 32 49zM385 120q-2 6 -5.5 16t-11.5 22q-17 26 -14 40q0 3 -2 10t-4.5 14.5t-5.5 13.5t-5 6q-3 0 -9 21q-2 7 -4 13.5t-4 11.5l-18 37q-11 26 -8 41q2 27 -23 43q-6 6 -14 6q-5 0 -28 -17
q-39 -30 -60 -129q-2 -18 0 -44q1 -8 1.5 -14.5t0.5 -11.5q0 -15 1.5 -25.5t10.5 -30.5q14 -28 23 -32q5 -6 9 -12t8 -11q20 -23 20 -17q0 -5 26 -13q26 -5 26 -3q0 -3 7 -3q16 0 52 16q7 0 12.5 6t9.5 14.5t6.5 17.5t2.5 14z" />
    <glyph glyph-name="quotesingle" unicode="'" horiz-adv-x="305" 
d="M100 446q0 16 42 52q20 19 31.5 30.5t12.5 16.5q2 5 7 13.5t16 21.5q20 25 20 42q0 4 -0.5 8.5t-4.5 8.5t-13 8t-25 8q-25 7 -28 31q-1 4 -3 8.5t-4 11.5q-2 8 2.5 21t12.5 33q3 6 9 12t12.5 10.5t12.5 8t9 6.5q12 17 40 17q25 0 47.5 -10.5t26.5 -23.5q6 -20 8.5 -35
t2.5 -27q0 -31 -16.5 -65t-31.5 -65q-16 -34 -31 -42q-2 0 -8 -5t-12 -11t-11 -12t-6 -7q0 -3 -20 -20q-10 -7 -15 -11.5t-6 -5.5q-1 -6 -8 -13t-16.5 -13t-20 -10t-18.5 -4q-14 0 -14 12z" />
    <glyph glyph-name="parenleft" unicode="(" horiz-adv-x="463" 
d="M443 780q-16 -14 -26 -23t-15 -12q-1 -2 -8 -6.5t-15.5 -10t-15 -11t-6.5 -9.5q-1 -5 -4.5 -12l-7 -14t-7.5 -12t-6 -5q-13 -23 -25.5 -46t-26.5 -50q-7 -15 -16.5 -38t-21.5 -54q-30 -96 -51 -203q-5 -17 -7 -40t-4 -49q-2 -23 -2.5 -45t-2.5 -45q-2 -15 0 -38
q3 -34 10 -34q5 0 10 -29q8 -30 5 -37q0 -4 3.5 -9.5t7.5 -11t7 -10t2 -6.5q-1 -6 5.5 -17.5t6.5 -14.5q1 -2 4.5 -6.5t7.5 -10t6.5 -10.5t1.5 -7q-1 -9 3.5 -21.5t4.5 -17.5q0 -12 -17 -26q-7 -4 -12 -4q-4 0 -8.5 4t-8.5 9t-7.5 9t-6.5 4q-4 0 -34 44q-28 46 -28 51
q2 8 -0.5 15t-6.5 13l-7 10.5t-2 9.5v17q0 2 -1 2.5t-3.5 4t-6 13.5t-8.5 31q-3 11 -4.5 19t-3.5 13q-2 8 -3 11q-6 0 -10 37q-6 35 -4 44v12v14v10t-1 10q-3 39 5 39q-4 1 -4 6q0 9 5 32.5t14 61.5q6 20 10.5 38.5t9.5 38.5q5 24 18 52q11 22 16.5 34.5t6.5 16.5
q4 13 7.5 22t6.5 15q14 29 20 30q18 8 34 56q2 5 8 14t13 18t14.5 17t12.5 12q1 2 4.5 8t10.5 17q4 4 9.5 10t13.5 15q24 19 50 61q5 15 36 40q15 13 34 28t34 15q31 0 31 -29q0 -22 -13 -40t-41 -40z" />
    <glyph glyph-name="parenright" unicode=")" horiz-adv-x="343" 
d="M322 234q-5 -14 -30 -72q-27 -64 -34 -64q-6 0 -24 -36q-17 -36 -25 -36l-27 -41q-35 -59 -96 -110q-6 -7 -14 -15t-21 -18q-2 -1 -8 -6t-12.5 -11l-13 -12t-8.5 -8q-4 -7 -20 -7q-24 0 -23 13q3 17 22 41q18 26 30 26q3 3 5 6t5.5 7.5t8.5 11.5l13.5 19.5t6.5 8.5
q4 21 43 60q23 24 43.5 64t38.5 94q5 20 15.5 49t24.5 68q7 17 13.5 51t12.5 86q0 2 2.5 19t7.5 50q8 49 5 70q-1 11 -1 19.5v13.5v10q0 5 -4 15t-3 15q2 6 -7 28q-4 10 -5 16.5t-1 12.5q0 7 -1.5 14.5t-6.5 18.5q-6 10 -10.5 17t-8.5 10q0 2 -2 8.5t-4.5 13t-5.5 12t-6 5.5
q-4 9 -9 18t-10 19q-9 10 -9 21q0 15 16.5 26t36.5 11q33 0 33 -31q1 -1 6 -9.5t14 -25.5q5 0 9 -5.5t7 -12.5t5 -13.5t4 -8.5q7 -5 17 -51q12 -46 17 -46q7 0 11 -43q6 -42 9 -42q11 0 14 -96q1 -26 -3.5 -57t-12.5 -67q-8 -31 -15 -62t-15 -62z" />
    <glyph glyph-name="asterisk" unicode="*" horiz-adv-x="511" 
d="M546 726q0 -3 -4 -8.5t-9 -10.5t-10 -9t-8 -4q-1 0 -13.5 -2t-35.5 -6q-11 -1 -22 -2.5t-24 -5.5q-2 -2 -2 -5t-1 -4q-3 -6 0 -7l18 -5q0 3 23 -5q20 -4 24 -4q17 0 28.5 -11.5t11.5 -28.5q0 -40 -37 -40q-33 0 -50 20q-1 2 -7.5 7t-15 10t-17 9t-12.5 4q-5 0 -6 -4
q6 -12 9.5 -20t5.5 -14q3 0 7 -4.5t7.5 -11t5.5 -13.5t2 -11q12 -33 3 -35l-4 -6t-4 -5q-8 -11 -9 -11q-13 -11 -23 -11q-6 0 -29 10q-14 5 -6 44q6 42 -4 42v18q-2 17 -10 17q-17 0 -33 -78q-2 -8 -8.5 -17.5t-15.5 -18.5t-18.5 -15t-18.5 -6q-20 0 -20 24q0 -4 9 40
q1 5 6.5 11t11.5 12t11.5 11t7.5 9q5 8 11 18.5t6 15.5q0 6 -9 5q-19 -3 -48 -28q-6 -6 -16 -9.5t-22 -7.5q-12 -2 -17.5 -0.5t-8.5 4.5t-4.5 7t-3.5 9q-8 14 -5 14q3 3 6 5t16 15q10 11 18 15.5t14 6.5q5 0 17.5 3t20.5 3q4 0 10.5 2.5t12 5.5t8 6t-0.5 4q0 4 -5.5 6
t-12.5 3t-12.5 2t-5.5 3q0 -2 -21 3q-11 4 -15.5 5t-6.5 3q-5 3 -9.5 6.5t-10.5 7.5q-5 0 -3 17q3 16 9 18l4.5 4.5t8 7.5t9.5 7.5t9 3.5q28 0 48 -18q1 -2 8 -6.5t19 -15.5q25 -18 25 -17q11 5 11 14q0 12 -23 35q-12 13 -17.5 20t-7.5 8q-1 2 -1 11q0 12 5.5 22.5t14.5 19
t20 13.5t23 5q4 0 10 -2q21 -5 14 -60q-4 -54 2 -57q14 -2 26 36q14 38 12 38q15 21 31 37q3 18 49 11q5 0 9.5 -10.5t4.5 -15.5q-2 -15 -15 -39q-17 -27 -26 -27q-12 0 -28 -30q-17 -27 -3 -27q4 0 17 7q54 31 55 39l26 12q9 3 14 0q9 -4 11 -6q18 -4 9 -37z" />
    <glyph glyph-name="plus" unicode="+" horiz-adv-x="372" 
d="M400 382q-1 -5 -4 -12.5t-6.5 -14t-8 -11t-9.5 -4.5q-7 0 -19 -0.5t-24.5 -1t-24 -1t-18.5 -0.5h-8q0 -6 -1 -15t-5 -20q-1 -6 -4 -15t-6 -21q-6 -8 -13 -17.5t-15 -20.5q-3 -10 -12 -10q-10 0 -20 10t-7 21q-1 9 0 28q4 11 7.5 26t8.5 35h-2q-36 0 -35 -1q-12 0 -37 3
q-13 8 -34 18q-8 3 -8 8q0 6 4 12.5t10 12t13 9t13 3.5q4 0 14 3t16 3q5 0 20 -2t23 -1h15q5 19 6 28q2 11 3.5 20t2.5 18q4 25 16 33q7 7 23 13q10 2 25 -3t13 -15q-2 -14 -5.5 -35t-9.5 -50l-2 -6h27h9t13.5 0.5t14.5 0.5t12 -1q12 -1 18 -7t8.5 -11.5t2.5 -8.5z" />
    <glyph glyph-name="comma" unicode="," horiz-adv-x="225" 
d="M191 -12q-2 -6 -8 -15t-15 -22l-28 -33q-13 -16 -20.5 -24.5t-8.5 -10.5q-14 -13 -36 -30.5t-53 -41.5q-8 -5 -14 -5q-16 0 -16 22q0 12 6 21q3 2 10 8t18 14q22 15 25 24q0 3 4.5 7.5l10 10l10.5 10.5t7 9q4 8 15 21t14 21q4 9 5 16t1 13q0 19 -27 28q-28 9 -37 29
q-4 7 -5 13.5t-1 12.5q0 3 9 45q0 4 4.5 9t10 10.5l10 10t4.5 7.5q1 3 7 6.5t13.5 7.5t14.5 6.5t10 2.5q20 2 71 -13q26 -6 26 -56q0 -25 -9.5 -58t-27.5 -76z" />
    <glyph glyph-name="hyphen" unicode="-" horiz-adv-x="342" 
d="M349 294q0 -6 -1.5 -14t-5 -16t-8.5 -14t-12 -8q-13 -2 -31.5 -5t-44.5 -6q-24 -4 -43 -6.5t-32 -4.5q-23 -4 -34 -5t-9 -3q-8 3 -22 0q-9 -1 -15 -2t-8 -1q-6 0 -16.5 4.5t-15.5 4.5q-13 0 -13 17q4 27 19 41t46 18q19 0 54 3q15 4 38 7t54 8q2 1 10 2.5t17.5 3.5
t19.5 3.5t16 1.5q17 0 26.5 -9t10.5 -20z" />
    <glyph glyph-name="period" unicode="." horiz-adv-x="182" 
d="M180 103q3 0 3 -3q0 -9 -14 -35q-7 -13 -11.5 -21t-8.5 -10q-31 -31 -80 -31l-32 14q-23 45 -22 45q-3 0 5 26q7 28 9 30q28 25 26 25q-1 0 5 3.5t17 8.5l23 10q0 3 31 -3q31 -7 34 -16q10 -22 14.5 -32.5t0.5 -10.5z" />
    <glyph glyph-name="slash" unicode="/" horiz-adv-x="689" 
d="M737 897q-2 -9 -6.5 -21t-10.5 -27q-12 -10 -28 -34q-2 -3 -55.5 -70t-161.5 -202q-106 -135 -160 -201t-58 -70q-34 -45 -70.5 -91.5t-75.5 -97.5q-13 -11 -30.5 -28t-42.5 -40q-4 -4 -10 -4q-26 0 -40 23q-6 5 -6 29q0 15 20 35q8 8 16 15t16 15q145 177 312 378
q73 96 149 192.5t157 198.5q5 6 11.5 14.5t14.5 19.5q4 4 16 4q14 0 29 -9t15 -20q0 -7 -1 -9z" />
    <glyph glyph-name="zero" unicode="0" horiz-adv-x="406" 
d="M435 446q0 -154 -15 -154q4 0 -17 -52q-11 -26 -16.5 -40.5t-9.5 -16.5q-5 -2 -22 -32q-16 -29 -23 -36l-21 -21q-11 -11 -17.5 -19t-11.5 -13q-24 -15 -25 -22q-3 -7 -32 -18q-31 -12 -31 -14q0 -1 -6.5 -2t-15.5 -2.5t-17.5 -2.5t-12.5 -1q-6 0 -21 5.5t-21 5.5
q-16 0 -40 24q-23 26 -23 40q0 3 -2 7.5t-5 10t-6 10t-4 6.5q-2 17 -2.5 31t-2.5 23q-2 63 0 80q2 15 4.5 30.5t8.5 32.5q5 15 10.5 30t10.5 32q14 34 20 35q7 3 13 20q4 18 10 22q6 1 23 33q16 31 27 31q17 15 29 31t37 29q15 10 31 20.5t30 10.5q6 0 20 4t23 2
q4 0 12.5 -2t16.5 -5t14.5 -6t6.5 -5q29 -29 30 -34q7 -16 10 -16q15 -6 16 -33q1 -5 4 -12.5t6 -16t5 -16.5t2 -14zM351 468q1 3 1 17q0 37 -26 63q-10 10 -48 10q-3 0 -15 -3.5t-12 -6.5q-44 -53 -49 -53q-4 0 -13 -29t-12 -29q-7 0 -22 -45q-5 -22 -8.5 -35.5t-3.5 -19.5
q0 -9 -6 -21.5t-8 -18.5q-6 -43 -9 -43q-10 0 -15 -65q0 -4 -1 -12.5t-2.5 -18t-2.5 -18.5t-1 -14q0 -4 -3 -20q-2 -12 0 -18q13 -37 56 -45q7 -2 17.5 1t20.5 9t18.5 13.5t10.5 13.5q11 15 20.5 29.5t19.5 28.5q7 0 16 33q9 32 11 32q3 11 7 20t8 20q8 42 14 43q8 6 12 40
q2 5 2.5 15t2.5 27q3 11 5.5 21.5t5.5 19.5q3 0 6 28q1 5 1 15q0 6 2 16z" />
    <glyph glyph-name="one" unicode="1" horiz-adv-x="403" 
d="M414 48q11 -3 11 -14q0 -9 -7 -19t-16 -12q-10 2 -23.5 2.5t-32.5 2.5q-9 0 -22 -1t-30 -2q-10 -3 -26 0q-6 1 -10.5 1h-8.5h-9q-6 0 -9.5 -0.5t-7.5 -2.5h-5q-2 0 -6 0.5t-9 1.5q-17 2 -17 -2q-11 -1 -22 -1h-22t-23 -0.5t-25 -1.5q-43 -3 -51 -2q-34 3 -34 24
q0 27 20 27q17 0 40 1t54 2q6 0 18.5 7t18.5 7q13 0 25 43q3 11 5 19t4 14l3 12l3 9q2 5 3.5 12t4.5 16q10 36 10 41q1 5 4.5 13.5t7 18t6 18.5t2.5 15q0 4 5 21.5t14 49.5q21 64 23 64t-9 23q-9 23 -16 23q-3 0 -11 -1t-21 -5q-21 -5 -32 -3q-24 -2 -68 0q-14 3 -14 23
q0 31 60 31q9 0 22.5 2t27.5 4.5t26 6t18 6.5q28 9 42 23q12 2 26 17q6 19 35 30q15 5 22 5q35 0 34 -43q-2 -6 -4 -14.5t-6 -19.5q-1 -4 -6.5 -21.5t-14.5 -49.5q-19 -61 -20 -61q-2 0 -11 -28q-2 -8 -4 -19.5t-5 -28.5q0 -1 -3.5 -10.5t-9.5 -29.5q-10 -37 -12 -37l-3 -15
q-2 -8 -4.5 -18.5t-6.5 -24.5q-3 -17 -7.5 -33t-9.5 -33q-3 -13 -5 -23t-2 -17q0 -28 23 -36q13 -5 37.5 -5h44.5q11 0 21 -2z" />
    <glyph glyph-name="two" unicode="2" horiz-adv-x="432" 
d="M395 597q7 -1 28 -25q19 -22 19 -29q0 -8 8 -20.5t10 -17.5q2 -30 3.5 -49t-0.5 -27q-4 -22 -12.5 -45t-21.5 -46q-13 -24 -27 -29q-3 -1 -9.5 -6.5t-17.5 -13.5q-10 -8 -15.5 -11.5t-5.5 -5.5q0 -1 -34 -20q-33 -18 -37 -18q-6 0 -15.5 -5t-20 -11t-20 -11t-15.5 -5
q-5 -2 -16.5 -6.5t-26.5 -12.5q-28 -15 -26 -26q2 -2 7.5 -6t15.5 -9q22 -13 22 -7q0 -6 24 -7q27 -3 28 -6q3 -6 37 -10q35 -5 35 -1q8 1 16.5 4t17.5 7q5 7 12.5 18t15.5 28q16 61 37 61q9 0 16.5 -9t7.5 -18q0 -5 -3 -13l-6 -16t-6 -15.5t-3 -12.5q0 -4 -3 -11t-7 -14
t-7.5 -13.5t-4.5 -9.5q-11 -35 -37 -51q-3 0 -18 -15q-16 -16 -25 -16q-4 0 -12.5 -2t-18.5 -4t-19.5 -4t-15.5 -2q-10 0 -17 2.5t-13.5 7.5t-14.5 13.5t-19 19.5q-14 18 -28.5 36t-36.5 18t-34 -9q-20 -15 -21 -48q-4 -17 -20 -26.5t-33 -5.5q-20 4 -12 54q3 30 29 53
l19 24q7 9 11.5 12t8 4.5t7 2.5t8.5 5q9 5 14 12q2 3 8.5 7.5t14.5 9t15 8t10 3.5t7 3t8.5 7t9 7t7.5 3t8.5 3t11 7t10.5 7.5t7 4.5q17 7 44 35l25 25t15 14q21 11 31 38q7 14 11.5 23.5t7.5 16.5q4 7 6 14q18 0 18 60q0 75 -29 81q-46 12 -51 10q-8 -2 -18.5 -3t-25.5 -5
q-8 0 -34 -22q-13 -10 -19 -19t-6 -14q0 -6 5 -8q5 -6 10.5 -13t12.5 -15q19 -15 12 -72q0 -3 -11 -20q-1 -2 -8.5 -6t-7.5 0q0 -7 -24 -5q-25 3 -27 8q-4 3 -7 7.5t-7 9.5q-14 17 -11 17q-5 0 -8 49q0 6 5 23q3 10 4.5 15.5t3 9.5t4 8t7.5 10q4 6 6 10.5l4 9t7.5 10.5
t17.5 15q9 5 20.5 12t11.5 12t40 17q39 12 53 12q10 0 25 -1t35 -5q10 -6 33 -15z" />
    <glyph glyph-name="three" unicode="3" horiz-adv-x="412" 
d="M315 338q-12 -2 -12 -9q0 -14 29 -31q8 -5 15.5 -16t12.5 -16q13 -9 21 -32.5t8 -45.5q0 -11 -2 -18t-6 -13t-8.5 -14t-9.5 -21t-9.5 -22t-10.5 -14q-41 -35 -41 -38q0 -5 -20 -13q-19 -6 -19 -12q0 -3 -37 -12q-32 -7 -44 -9q-6 -2 -13 -2q-4 0 -8.5 -0.5t-9.5 -1.5
q-6 2 -14.5 3t-21.5 2q-21 -2 -42.5 6t-39.5 24t-29.5 39t-11.5 51q0 40 25 59q17 8 45 4q33 -5 30 -63q0 -10 -21 -25q-20 -14 -20 -15q0 -15 10.5 -29t27.5 -14q6 0 16.5 -3t16.5 -3q5 -2 12 -1t15 2q12 2 27 6.5t29 11t24.5 13.5t13.5 14q0 2 3 6l6 8q2 2 3.5 4t3.5 4
q4 4 5 4q2 0 8 34q8 14 14 46q2 22 3.5 39t-0.5 29q0 14 -8 24t-20 16t-27 8.5t-29 0.5q-8 -1 -17 -3.5t-17 -4.5q-29 -6 -45 -6q-28 0 -28 25q0 32 65 32h16h9t9 -1q8 -1 19 0.5t22.5 3.5t22 4t16.5 2q9 0 20 7t20 17.5t16 22t9 21.5q3 5 4 15t5 33q5 45 -19.5 70.5
t-69.5 20.5q-47 -3 -47 -7q0 3 -3 1t-7 -6t-7 -8.5t-3 -7.5q0 -2 2 -2q4 0 10.5 -6t14.5 -29q4 -7 1 -31q-2 -23 -14 -23q-2 -1 -5.5 -4t-8.5 -7q0 -5 -30 0q-23 5 -31 22t-8 35q0 19 7.5 37.5t20 33.5t29.5 25t35 12q5 0 14.5 1t24.5 5q11 2 21.5 3.5t18.5 -0.5
q28 0 54 -10.5t46.5 -29t32.5 -43t12 -52.5q0 -29 -11 -57q-25 -55 -116 -76z" />
    <glyph glyph-name="four" unicode="4" horiz-adv-x="434" 
d="M382 478q-3 -5 -10 -10t-14 -9.5t-13.5 -8t-9.5 -5.5q-1 -2 -8.5 -10.5t-20.5 -25.5q-6 0 -11.5 -10t-11.5 -10q-2 0 -8 -5t-12.5 -11t-12 -11t-7.5 -5q-6 -5 -14.5 -12t-16.5 -14.5t-16 -14.5t-14 -11t-17.5 -13t-27.5 -26q-40 -35 -29 -40q21 -11 55 -14
q-11 1 -12.5 1.5t6.5 0.5h66q43 0 49 35q0 5 5 14t5 14q0 13 9 60q10 52 18 52q-6 0 25 22q21 30 32 27q1 0 4 2t6.5 4.5t6.5 5t5 2.5q13 0 17 -10.5t3 -24.5q-9 -75 -11 -75q-6 0 -20 -47q-12 -44 -12 -53q1 -30 30 -30q6 0 19.5 1.5t19.5 1.5q23 0 26 -21q3 -17 -14 -25
q-6 -1 -13.5 -2t-18.5 -1q-7 1 -12 1.5t-10 0.5h-15q-39 -3 -39 -16q0 -3 -1 -8.5t-2.5 -12t-2.5 -12t-1 -7.5q0 -5 -4 -11.5t-4 -11.5q0 -6 7.5 -16.5t7.5 -14.5q0 -9 40 -9h40q25 -1 25 -23q0 -11 -9 -14t-19 -4q-2 -2 -18 -1t-48 2q-57 3 -57 0q0 -5 -50 -3
q-11 1 -20.5 1.5t-17.5 0.5q-17 0 -21 1q-8 2 -24 0.5t-39 -3.5q-19 -3 -32 3.5t-13 21.5q0 10 8 12q7 4 21 5t34 3q45 1 60 9q30 12 34 45q0 5 6.5 17t6.5 21q0 26 -23 26q-5 0 -17 -1.5t-17 -1.5q0 1 -59 3q-14 1 -24.5 1.5t-18.5 0.5h-14q0 -3 -10 -3q-15 0 -33 6t-20 15
q-1 5 3 13.5t10 16.5t13 13.5t13 5.5q12 0 24 17q15 20 26.5 29.5t16.5 9.5l16 18q2 3 7 7.5t11 9.5t11 10t6 9q2 4 7.5 9.5t11.5 10.5t11 9t6 5q8 11 17 22t19 22q7 3 20 31q17 29 20 29q8 0 14 23q7 25 13 25q4 0 12 32q9 32 21 32q8 0 19 1t28 3q27 5 44 3q23 -3 23 -25
q0 -35 -24 -51q-13 -8 -24.5 -20.5t-21.5 -30.5z" />
    <glyph glyph-name="five" unicode="5" horiz-adv-x="432" 
d="M465 620q6 -3 6 -18q0 -36 -13 -39q-1 0 -6 -4t-11 -9.5t-11 -10.5l-7 -7q-1 -4 -25 -14q-21 -6 -21 -13q-4 -2 -7 -3q-8 -5 -22 -10q-12 -3 -28 -4.5t-38 0.5q-48 1 -67 0q-5 -1 -9 -8.5t-7.5 -17.5t-5.5 -21.5t-2 -20.5q0 -14 4 -17q7 -1 13 -1h12h25q0 -3 41 -5
q6 0 23.5 -6.5t48.5 -19.5q6 -2 13.5 -9.5t14 -16.5t10.5 -18.5t4 -15.5t7.5 -17t7.5 -16q0 2 1.5 -6.5t3.5 -25.5q4 -34 2 -34q-2 -4 -3 -7q-2 -4 -3.5 -9t-3.5 -13q-9 -29 -12 -29l-54 -76q-4 -8 -35 -30q-29 -19 -42 -20q-3 -1 -11.5 -5t-19 -8.5t-20.5 -7.5t-15 -2
q-5 2 -14 2t-19 -1t-19 -2t-13 -1q-5 0 -21.5 4t-24.5 4q-16 0 -32 21q-22 29 -29 31q-16 12 -16 43q0 14 5 39q3 18 22 37q9 9 21 11t25 4q7 2 14 -2.5t12 -13t8 -19.5t3 -22q0 -18 -11 -23q-4 -4 -13 -18.5t-9 -24.5q0 -4 3 -5t20 -14q13 -7 25 -4h25q20 -3 20 1
q0 -6 38 14q16 0 55 51q25 30 30 86q1 4 2.5 14t3.5 26q4 17 4 39q0 33 -21.5 59.5t-59.5 26.5q-9 0 -21.5 -3t-24.5 -8t-21 -12t-12 -14q-1 -8 -6 -17t-12 -17.5t-14.5 -14t-14.5 -5.5q-29 0 -36 15q-1 4 -2 9.5t1 10.5q0 7 2 9.5t5.5 4t7.5 4t8 10.5q6 8 8.5 12.5t3.5 5.5
q4 4 9.5 12.5t12.5 23.5l12 29q12 29 14 29q23 80 15 80q5 0 8 43q2 2 2 6q0 6 1 10q8 5 11.5 11.5t13.5 8.5q8 0 18.5 -3.5t24.5 -9.5l41 -20q0 -7 45 -7q8 0 21 2.5t31 8.5q10 2 34 26q19 16 42 12z" />
    <glyph glyph-name="six" unicode="6" horiz-adv-x="395" 
d="M420 523q5 0 5 -6q0 -3 -5 -20q-5 -8 -6 -14q-4 -14 -15.5 -26t-26.5 -12q-54 0 -54 53q0 10 7 23.5t7 18.5q0 11 -12 20q-8 3 -17 3q-36 0 -65 -26q-10 -9 -18 -16t-14 -10q-6 -7 -10.5 -11.5t-8 -10t-7.5 -12.5t-9 -19q-6 -11 -8.5 -19t-2.5 -11q0 -8 -7.5 -20
t-7.5 -20q0 -6 4.5 -11.5t21.5 -7.5q9 0 12 1.5t5 4t5 4t12 1.5q25 0 43 -4t32.5 -11.5t27 -18t26.5 -23.5q3 -4 7.5 -11.5t9.5 -20.5q8 -20 9 -28.5t1 -18.5v-7t1 -9q1 -16 0 -26q-6 -26 -11 -41.5t-10 -25.5t-11.5 -16.5l-15.5 -15.5q-8 -8 -11.5 -13l-7 -10t-7.5 -10.5
t-13 -14.5t-14.5 -12t-10 -4.5t-9.5 -2.5t-12 -5q-9 -5 -14.5 -7t-6.5 -4q-22 -8 -43.5 -11.5t-41.5 -2.5q-31 3 -65 34q-22 21 -34 39t-13 33q0 2 -2.5 15t-8.5 38q-8 32 -3 53q1 6 3.5 20t5.5 37q9 47 11 47q9 0 15 30q9 31 14 36q4 4 16 29q11 20 20 25q13 13 21 29
q79 108 162 127q16 4 28.5 6t23.5 2q22 0 48 -9q32 -9 32 -22q0 6 14 -24q13 -28 9 -28zM149 314q-1 -2 -4 -6.5t-8 -13.5q-9 -17 -12 -17q-5 0 -30 -69q-8 -25 -12.5 -47.5t-2.5 -45.5q4 -63 35 -66q2 0 15.5 -2t21.5 -2q15 0 19 7q0 1 5 4.5t11.5 7.5t12 7.5l5.5 3.5
q2 0 9 13q6 14 9 14q6 1 12 30q4 12 7 20t4 14q2 11 4.5 21.5t6.5 21.5q6 17 7.5 26.5t0.5 9.5q7 0 4 27q-1 12 -2 19.5t-2 11.5q-1 2 -4 7.5t-6.5 11.5t-6 12t-2.5 9q-9 1 -12.5 2t-4.5 2l-1.5 1.5t-2.5 0.5q-11 0 -45 -12q-11 -7 -18.5 -12.5t-12.5 -10.5z" />
    <glyph glyph-name="seven" unicode="7" horiz-adv-x="428" 
d="M305 560q19 -49 37 -49q27 0 35 9.5t9 33.5q4 24 11 41t29 17q17 0 23 -14q9 -23 9 -49q0 -7 -3 -7q2 0 1 -4.5t-3 -9.5q-1 -4 -5 -14q0 -8 -11.5 -20t-22.5 -22q-22 -22 -54 -55.5t-74 -81.5q-8 -13 -24 -29q-3 -1 -7.5 -6t-8.5 -10.5t-7 -11t-4 -7.5q0 -5 -4 -13
t-9.5 -16.5t-9.5 -16t-4 -11.5q-2 -4 -4 -9.5t-6 -13.5q-6 -16 -9 -16q-1 0 -7 -21t-8 -23q-2 0 -14 -25q-6 -11 -9 -19t-5 -12q0 -4 -3.5 -10t-7.5 -13t-7.5 -13.5t-4.5 -10.5q-5 -15 -37 -30q-12 -5 -23 -3q-20 5 -21 5q-14 0 -19 23q-2 18 0 32q9 40 9 36q0 6 10 29
q9 25 12 25q5 0 17 27q13 30 20 31q6 2 32 45q3 5 11.5 13t18.5 17t18.5 17.5t11.5 13.5q6 12 19 17q2 4 5 7.5t7 8.5q8 8 21.5 20t32.5 27q13 10 23 20t20 22q4 4 9 14q3 7 -5 10.5t-13 5.5l-3 1.5t-4.5 2t-10.5 5l-21 10.5q-17 8 -26 11.5t-11 3.5q-4 2 -12 6.5t-17 9.5
t-18 8.5t-16 3.5q-31 0 -61 -35t-30 -45q-4 -8 -7 -13t-5 -9q-2 -2 -3 -3.5t-2 -3.5q-18 -29 -18 -31q0 -12 -19 -12q-3 0 -6 1t-4 3q-2 2 -1 8t2 17q0 3 3 8.5t6.5 11.5t6.5 11.5t3 8.5q0 8 4.5 24t4.5 24t1 19.5t1.5 24t1.5 24t1 18.5q0 4 2.5 10t7 11t9.5 9t10 4t9.5 -5
t10.5 -25q6 -18 4 -18q5 0 11.5 3.5t13 8t12 8t8.5 3.5q20 10 25 17q1 6 32 12q31 7 31 3q16 -7 27.5 -11.5t20.5 -9.5t15.5 -13t13.5 -21z" />
    <glyph glyph-name="eight" unicode="8" horiz-adv-x="431" 
d="M462 512v-81q0 -6 -8 -14.5t-8 -13.5t-5.5 -12.5t-12.5 -15t-14.5 -13.5t-11.5 -8q-2 -2 -9.5 -12t-12.5 -10q2 0 5.5 -10.5t11.5 -30.5q5 -12 10 -21.5t7 -9.5q1 -4 2 -13t2 -24q2 -13 0.5 -28.5t-4.5 -34.5q-1 -2 -3.5 -8t-5.5 -12t-5 -12t-2 -8t-4.5 -8.5t-10 -13.5
t-11.5 -13t-9 -7q-15 -10 -26 -19t-19 -17q-30 -20 -30 -17q-10 -4 -16.5 -6.5t-12.5 -4.5t-8 -2q-3 0 -15 -3t-18 -3h-46q-7 0 -26 4.5t-51 15.5q-18 7 -37 28q-12 13 -18 21q-5 5 -6 7q-7 15 -11.5 29t-8.5 27q-8 0 -2 53q4 13 7 23t7 18q0 6 8 17q5 5 6.5 8.5t3.5 7.5
t6 9.5t15 14.5q7 5 13.5 10t13.5 10q4 2 9 9t13 17q16 22 12 22q-9 0 -18 77q0 6 1 10q1 5 2 12.5t3 17.5q6 40 17 40q1 9 14 24t27 30q15 11 33 21.5t32 12.5q43 3 69 5t34 1q2 -2 8 -3t15 -3q19 -6 19 -7q4 -2 8 -5t10.5 -7t14.5 -9q7 0 27 -26t20 -36zM349 165
q-17 61 -35 72q-5 1 -29 26q-18 18 -33 20q-6 1 -14.5 5t-17.5 8.5t-17.5 8t-14.5 3.5q-18 1 -53 -20q-32 -21 -32 -40q0 -3 -2.5 -8t-6 -10.5t-6.5 -11.5t-3 -10q0 -48 -5 -56q-1 -2 1 -8t4.5 -13t4.5 -13t2 -7q0 -11 33 -36q26 -20 41 -20q5 -1 10 -1.5t10 -1.5
q8 -2 16 -3t13 -1q8 0 8 2t14 5q16 -1 27.5 7t23.5 15q23 7 40 37zM408 452q2 26 -6 46.5t-23.5 34t-37 20.5t-46.5 7q-48 0 -83 -26q-36 -30 -29 -79q3 -24 37 -49q34 -22 63 -29q51 -9 49 -9q21 0 42 21q31 34 34 63z" />
    <glyph glyph-name="nine" unicode="9" horiz-adv-x="408" 
d="M437 451q0 -114 -26 -186q-26 -63 -31 -68q-4 -4 -9.5 -14t-13.5 -25q-16 -31 -31 -36q-3 -2 -7.5 -7t-9 -10.5t-8.5 -10.5t-7 -8q-12 -8 -20 -15.5t-14 -13.5q-11 -8 -18.5 -13l-10.5 -7q-12 -4 -23 -6q-20 -8 -20 -14t-100 -6q-13 0 -26 10.5t-24 20.5q-18 10 -18 43
q0 6 1 10q1 5 1.5 12.5t0.5 18.5q3 25 42 42q4 0 7 -1t8 -1q7 0 12 -1q3 0 8 -5q4 -2 5 -2q5 0 7 -5.5t2 -30.5q0 -51 -22 -51q-8 0 5 -13q12 -11 12 -6q0 -4 19 -1q13 0 26 1t21 6q11 8 22 14.5t21 13.5q31 22 31 37q0 4 7 15t7 14q6 13 11.5 25.5t11.5 24.5q2 0 5.5 7
t6.5 15.5t4.5 16.5t-0.5 10q-2 1 -3 2t-2 1q-3 0 -9 -3t-13 -7t-12.5 -7.5t-7.5 -4.5q-50 -9 -75 0q-11 5 -20.5 8.5t-14.5 7.5q-65 21 -65 134v19q0 5 0.5 9.5t1.5 9.5t4 18.5t3 21.5q0 4 2.5 9.5t6 11.5t6.5 11t4 8q9 21 18 32t17.5 17.5t16.5 10t15 8.5q62 52 150 44
q46 -4 80 -58q16 -27 24 -52t8 -51zM365 491q2 2 0.5 7.5t-4.5 11.5l-2 6t-2 5q-2 7 -5 22q-3 19 -61 20q-23 3 -40 -8q-28 -28 -39 -46q-18 -16 -26 -66q0 -9 -9 -52q-8 -37 -8 -54q0 -33 2 -39q4 -27 21 -27q2 0 6 -2.5t5 -2.5q5 1 9.5 1.5t8.5 0.5q9 0 13 1q11 4 19 6.5
t13 4.5q11 7 18.5 12.5t12.5 10.5q19 7 31 60q1 6 9.5 17t8.5 17q0 8 5.5 26t5.5 26q2 17 4 27t4 15z" />
    <glyph glyph-name="colon" unicode=":" horiz-adv-x="232" 
d="M180 514q6 0 15 -3t18 -7.5t16 -9.5t8 -8q14 -34 14 -43q0 -29 -31 -63q-31 -31 -62 -31q-81 0 -78 76q2 13 14 26.5t14 22.5q1 6 10 11t24 10t22 8.5t9.5 6t3 3.5t3.5 1zM180 109q-4 -8 -6.5 -17.5t-5.5 -20.5q-4 -10 -18.5 -19.5t-18.5 -13.5q-12 -15 -45 -18
q-29 -3 -61 20q-4 4 -6 12t-2 23q0 41 18 68q26 35 73 35q12 0 27 -3q13 -2 20 -7q9 -5 13 -9q2 -1 2.5 -2t1.5 -2q11 -5 8 -46z" />
    <glyph glyph-name="semicolon" unicode=";" 
d="M177 506q26 3 51 -8q31 -11 27 -36q-11 -53 -24 -74q-20 -33 -63 -36q-13 0 -25 6q-9 5 -13.5 6.5t-7.5 4t-5 6.5t-5 14q-7 0 -7 31q0 15 0.5 21.5t2 9t4 4.5t6.5 8q10 13 10 15q0 4 6 9t14 9t16 7t13 3zM131 185q7 0 27 -17q5 -4 9 -7.5t7 -5.5l6 -4q3 0 5.5 -6t4.5 -13
q1 -7 2.5 -10l2.5 -5t2 -4.5t1 -6.5q0 -20 -16 -71q-16 -49 -22 -49q-4 0 -25 -26q-21 -29 -23 -34q0 -4 -4.5 -11t-10 -13.5t-11 -11.5t-8.5 -5q-2 0 -5.5 -5t-7.5 -11t-8 -11t-5 -6l-32 -27q-3 -16 -28 -16q-31 0 -26 23q4 19 45 51q42 31 49 46q35 68 35 80q0 24 -30 26
q-47 3 -40 63q1 27 18 39q24 17 25 21q1 8 30 16q11 3 17.5 4.5t9.5 3.5q4 2 5 3h1z" />
    <glyph glyph-name="less" unicode="&#x3c;" horiz-adv-x="1105" 
d="M1166 389q-56 -49 -154 -49q-9 0 -24 1t-31 1.5t-31 1.5t-24 1q-118 0 -185 -70q-13 -3 -24.5 -5t-23.5 -2q-47 0 -87 38q-11 11 -27 30.5t-38 51.5q-20 26 -36 44.5t-29 27.5q-5 15 14 40q19 28 19 45q-33 6 -73 6q-48 0 -92 -8.5t-82 -25.5q-30 -9 -58 -9q-68 0 -89 44
q-7 31 20 56q13 9 24.5 18t22.5 17q70 24 139 47.5t138 46.5q81 24 148.5 36.5t125.5 12.5q117 0 206 -43q25 -12 65 -12q11 0 25.5 1t34.5 3t34.5 3.5t23.5 1.5q57 0 87 -32q-32 -8 -62.5 -11t-62.5 -3q-37 0 -90 6.5t-122 19.5q-70 13 -124 19.5t-96 6.5q-32 0 -66 -3
q-71 -38 -210 -69q-75 -17 -126 -31.5t-80 -27.5q-1 -5 -1 -15v-12q0 -57 43 -57q13 0 36.5 7t57.5 22q35 15 57.5 23t34.5 9q38 11 80.5 18.5t93.5 11.5q54 3 88.5 7t51.5 8q-20 -19 -46 -35t-57 -30q-64 -28 -99 -55q-5 -59 23 -59q15 0 62 28q46 28 66 28q6 0 9.5 -1.5
t7.5 -3.5q-2 -2 -17.5 -11t-44.5 -24q-41 -22 -49 -57q9 -45 40 -45q9 0 26 7t43 19q49 28 76 28h6q5 0 8 -1l-70 -33q-42 -16 -54 -52l14 -28q12 -18 26 -18q8 0 14 3q56 71 170 71h18q5 0 11.5 -0.5t13.5 -1.5h43q109 0 163 65l4 -6q-1 -4 -2 -7.5t-1 -6.5q0 -19 31 -20
q5 -1 10.5 -1.5t10.5 -0.5h22z" />
    <glyph glyph-name="equal" unicode="=" horiz-adv-x="380" 
d="M408 394q0 -5 -2.5 -12.5t-6.5 -14t-9 -11t-10 -4.5h-15h-28t-42 -1q-6 -3 -38 0h-39q-38 0 -36 -2q-8 2 -15 2h-10t-11 1q-12 9 -35 20q-6 1 -6 8q0 4 4 10.5t10 12.5t12.5 10t11.5 4t14.5 2.5t14.5 2.5q6 0 20.5 -2t22.5 -2h18q8 0 17.5 0.5t21.5 1.5q11 1 20 1.5
t16 0.5h21h8h7.5t9.5 1h26q6 -1 10.5 -3.5t7.5 -5.5q5 -6 7.5 -11.5t2.5 -8.5zM380 265q0 -5 -2.5 -12.5t-6.5 -14t-9 -11t-10 -4.5h-15h-28t-41 -1q-8 -3 -39 0h-38q-39 0 -37 -2q-8 2 -15 2h-10t-11 1q-5 5 -14.5 9.5t-20.5 10.5q-6 1 -6 8q0 4 4 10.5t10 12.5t12.5 10
t11.5 4t15 2t15 2q8 0 21.5 -1.5t21.5 -1.5h18q7 0 16.5 0.5t22.5 1.5q11 1 19.5 1h15.5h22h7q3 0 7.5 0.5t9.5 1.5h26q15 -3 19 -9q9 -12 9 -20z" />
    <glyph glyph-name="greater" unicode="&#x3e;" horiz-adv-x="1128" 
d="M1198 552q-41 -44 -107 -44q-31 0 -56 9q-61 34 -160 34q-41 0 -75 -6q-7 -13 -2 -34q3 -14 4 -21t1 -8q0 -6 -1 -11.5t-5 -10.5q-17 -9 -40.5 -27.5t-54.5 -44.5q-35 -32 -60 -51.5t-40 -30.5q-58 -38 -105 -38q-11 0 -21.5 2t-21.5 5q-37 70 -156 70q-9 0 -24 -1
t-31.5 -1.5t-32 -1.5t-24.5 -1q-100 0 -134 49q7 1 13 1.5t12 0.5h26q33 2 35 34l8 6q26 -65 136 -65h43q8 1 14 1.5t11 0.5h18q114 0 140 -71q6 -3 12 -3q16 0 34 18q7 8 13.5 14.5t12.5 13.5q3 23 -14 40q-5 5 -15.5 10.5t-21.5 11.5t-21.5 12t-15.5 11q3 1 8 1h8
q24 0 61 -28q20 -12 34.5 -19t25.5 -7q30 0 59 45q6 27 -10 43q-4 5 -13 11.5t-19 13.5t-19 13t-12 11q13 5 19 5q20 0 54 -28q35 -28 50 -28q29 0 50 59q-23 27 -76 55q-52 28 -77 65q15 -4 48.5 -8t87.5 -7q95 -7 160 -30q23 -2 78 -32q55 -29 83 -29q51 0 77 84
q-48 25 -183 59q-121 30 -178 69q-33 3 -66 3q-42 0 -99 -6.5t-132 -19.5t-130.5 -19.5t-91.5 -6.5q-31 0 -61 3t-59 11q44 32 100 32q9 0 24.5 -1.5t32 -3t32 -3t25.5 -1.5q38 0 71 12q108 43 224 43q58 0 121.5 -12.5t132.5 -36.5q60 -23 118 -46.5t118 -47.5
q5 -6 12 -12.5t14 -12.5q15 -15 15 -33q0 -17 -11 -33z" />
    <glyph glyph-name="question" unicode="?" horiz-adv-x="472" 
d="M505 712q1 0 1 -1q0 -4 -11 -20q-8 -12 -15 -25.5t-20 -47.5q-2 -3 -8 -9.5t-7 -10.5q-16 -34 -37 -49q-13 -8 -25 -20t-25 -29q-5 -4 -11.5 -10.5l-17.5 -17.5l-14 -23q-11 -18 -15 -18q-14 0 -42 -37q-11 -15 -19 -27.5t-11 -21.5q-10 -20 -15.5 -36.5t-7.5 -30.5v-5
q0 -13 15 -13q30 0 51 23q8 8 13 19t8 24q1 4 5 10l8 12t7 12t3 11q2 5 4 13.5t6 20.5q7 20 11.5 23.5t9.5 3.5h1h1q14 0 14 -18q0 -6 -2.5 -15t-5.5 -22l-3.5 -14t-4 -14.5t-8 -20t-16.5 -30.5q-20 -38 -27 -38l-47 -40q-8 -9 -26 -9q-40 0 -45 17q-2 7 -4 12.5t-4 10.5
q-4 9 -5 14.5t-1 7.5v1q-1 0 -1 3q0 7 7.5 31.5t24.5 66.5q3 0 36 50q14 23 22.5 36.5t10.5 18.5t10 15.5t21 27.5q8 13 14.5 23.5t9.5 21.5q0 3 25 46q25 46 23 46q11 0 19 60q2 37 6 71l1 5q0 12 -10.5 23t-23.5 15q-3 1 -7.5 2t-10.5 1q-40 0 -77 -34q-18 -12 -43 -37
q-7 -8 -15 -19t-16 -25q0 -3 -9 -25t-8 -22q-6 0 -9 -37q-1 -5 -1 -10v-10v-21v-2q0 -7 15 -20q2 -1 4.5 -2t4.5 -1l19 6q25 0 49 87q3 14 7.5 33.5t8.5 46.5q4 25 9.5 44.5t20.5 22.5q15 0 21.5 -16.5t6.5 -44.5q0 -54 -20 -99q-6 -13 -19.5 -32.5t-33.5 -48.5
q-7 -6 -14 -13l-15 -15q0 -4 -5 -7.5t-12.5 -6.5t-15.5 -4.5t-13 -1.5h-2q-28 0 -41.5 21t-13.5 50v3q0 11 2 28t6 41q5 13 12 31.5t15 42.5q2 6 7.5 14t14.5 20q17 22 20 34q3 13 42 32q20 11 31.5 19.5t17.5 14.5q17 20 52 20q9 0 23 -2t28.5 -5t27 -5t18.5 -2
q14 0 28.5 -16t19.5 -33t8.5 -30.5t3.5 -23.5q0 -4 -2 -12v-10q0 -4 0.5 -8.5t1.5 -11.5v-1q3 -22 5 -22zM246 40q-25 -28 -72 -28q-28 0 -45 14q-22 24 -24 59q0 4 5 19l4 18q17 17 18 20q3 13 30 26q30 14 40 14q26 -3 48.5 -16t24.5 -43q0 -49 -29 -83z" />
    <glyph glyph-name="at" unicode="@" horiz-adv-x="815" 
d="M797 297q6 -6 6 -19q0 -38 -91 -96q-35 -25 -72 -43.5t-75 -32.5q-80 -29 -167 -29q-138 0 -229 72q-91 73 -91 211q0 99 48 212q89 206 316 319q143 41 218 41q122 0 175 -83q39 -59 39 -141q0 -87 -42 -186q-40 -94 -103 -176q-86 -89 -163 -89q-17 0 -32 5
q-20 2 -29 36q-11 36 -25 36q-9 0 -25 -9q-57 -79 -130 -79q-22 0 -40 9q-49 15 -60 113q23 108 101 207q74 92 188 154q5 1 15 4.5t21.5 7.5t22.5 7t18 3q14 0 22.5 -8t21.5 -40q10 -25 31 -25q3 3 8 10t12 18q9 12 20 12q7 0 19 -3l23 -15q-10 -24 -25.5 -53.5
t-37.5 -63.5q-28 -43 -45.5 -71.5t-25.5 -42.5q-17 -35 -28.5 -69t-14.5 -68q6 -27 32 -27q19 0 59 20q135 135 169 350q0 192 -134 216q-35 6 -72 6q-179 0 -333 -140q-155 -164 -161 -432q10 -72 71 -133q61 -59 132 -72q16 -4 32 -5t32 -1q189 0 399 183zM611 623
q3 8 5 15t2 14q0 23 -17.5 35.5t-43.5 12.5q-45 0 -71 -35l-111 -139q-60 -83 -60 -149q0 -15 3.5 -29.5t9.5 -29.5q10 -12 21 -12q5 0 13 2.5t16.5 6t16 6.5t11.5 4q129 74 205 298z" />
    <glyph glyph-name="A" unicode="A" horiz-adv-x="775" 
d="M797 22q-21 -8 -35 -8q-11 0 -59 3q-38 1 -57 0q-7 5 -17 1h-4h-7t-13 -1l-4 2t-6 1q-2 -2 -4.5 -2.5t-5.5 -2.5l-20 2q-2 -2 -4 -2h-1l-2 2h-21h-20.5t-28.5 1q-45 0 -66 10l-4 15q2 2 4 5.5t6 6.5q4 1 6.5 2t6.5 1.5t11 1.5t20 2q21 1 33 0l3 1q28 -4 40 9q3 5 5.5 9.5
t6.5 9.5l2 4q0 2 1 3q2 8 2 14v22q-3 29 -8 31q1 16 -3 21q2 17 -3 22q2 20 -3 23q-2 6 -2 11q0 10 -1 15l-10 14l-4 4l-16 7h-21q-13 0 -16 -5q-10 0 -10 -2q-27 2 -51.5 2.5t-48.5 -0.5h-25q-9 -3 -12 -6q-7 0 -14 -6q-3 -2 -4.5 -4t-3.5 -4t-3 -2q-2 -12 -8 -15
q-4 -9 -7 -12q-6 -17 -14 -42t-19 -58q-2 -15 0 -17v-5l10 -23q5 -1 12 -5.5t14 -11.5q8 0 11 -3h26q5 1 8.5 1.5t6.5 0.5h11q3 0 20 -14l1 -13q-5 -8 -11 -12.5t-12 -8.5h-30q-5 1 -10 1h-9h-14h-117q-13 0 -32.5 -1t-45.5 -5q-53 -6 -79 -6q-3 0 -18 5l-11 9l2 23
q3 4 8.5 8.5t12.5 10.5l14 4q7 0 12 1t7 2h4h2q28 -1 35 6q6 0 8 2q5 1 8.5 1h5.5h3q4 2 10.5 5.5t16.5 7.5l4 4q4 2 10 6.5t12 9.5t11 10t7 8l6 5q1 7 14 21q6 25 18 33q19 37 20 38q5 14 9 17.5t8 13.5q1 3 9 9q3 14 8 19q4 19 11 24q2 6 5.5 13.5t7.5 15.5q6 10 13 22
t11 14q3 5 6.5 10.5t6.5 12.5l5 5q5 10 9 21t9 22l2 4q16 30 20 31l2 6l2 4l2 4q14 39 28 46q1 7 6 9q2 10 6.5 22t11.5 29q17 42 25 45q2 3 4.5 12t7.5 23q12 30 14 32q2 8 6.5 15.5t9.5 15.5l7 11q3 14 26 49q11 0 17 6q5 0 13 1t12 2q7 -4 23 -9q2 -4 3 -8t5 -9
q0 -74 6 -78q-2 -4 -2 -34t2 -32l-1 -7q0 -5 2 -9t5 -9l2 -17q-1 -5 -1.5 -9.5t-0.5 -8.5q0 -8 3 -11v-11q0 -33 6 -40l6 -34v-5q0 -5 0.5 -11.5t1.5 -15.5q5 -27 8 -29q0 -11 1 -22.5t5 -24.5l-1 -7q0 -12 9 -33q-1 0 -1 -5q0 -8 1 -11q0 -16 1 -16l5 -12q-1 -3 -1 -9
q0 -4 1 -5q-1 -3 -1 -13q0 -15 4 -19q-1 -4 -1 -11v-9q0 -13 4 -16v-6q0 -10 2.5 -24.5t5.5 -18.5q0 -17 4 -21l-1.5 -6t-0.5 -4q0 -4 1 -8t1 -12q3 -3 14 -29l20 -15q4 -2 8 -5q1 1 6 1q2 0 12 -2q1 -1 5 -1q3 0 11 2q8 -1 14 -1h11h11q18 -6 18 -19q0 -5 -1 -6zM529 334
q5 23 0 26q2 9 1 13.5t-2 6.5q-2 6 -2.5 14.5t-2.5 19.5q-5 5 -6 16q-1 3 -1 6t-1 6q1 3 1 7q0 5 -1 9.5t-3 21.5q-1 22 -2 25.5t-2 6.5q1 8 0.5 15.5t-3.5 18.5q-6 14 -8.5 22t-4.5 12h-6l-9 -6q-16 -28 -23.5 -42.5t-8.5 -16.5q-2 -1 -16 -30q-5 -14 -8 -21t-4 -9
q-4 -12 -12 -17q-12 -35 -20 -43q-6 -15 -10.5 -20t-8.5 -9q-1 -9 -4 -15t-7 -8v-12l10 -9q12 -3 15 -8q9 0 25.5 0.5t34.5 1.5t35.5 1.5t29.5 0.5q5 0 9.5 2.5t10.5 5.5z" />
    <glyph glyph-name="B" unicode="B" horiz-adv-x="754" 
d="M758 220q0 -5 -4 -13t-8.5 -16.5t-8 -16t-3.5 -11.5l-9 -9q-6 -6 -12 -13.5t-11 -17.5q-6 -6 -16.5 -13.5t-25.5 -18.5q-2 -2 -6 -2q-12 -4 -28 -20l-12 -3l-11 -8q-9 -1 -24.5 -6.5t-35.5 -14.5q-8 -2 -19 -3t-26 -5l-1 -1q-11 0 -25 -1t-30 -2q-30 0 -63 -1t-68 -2v1
h-9q-9 -4 -25 -4q-15 0 -23 4q-3 1 -16 1q-12 0 -27.5 -1t-35.5 -3l-1 -2q-6 0 -14.5 2t-13.5 2q-9 0 -23 -1t-29.5 -2.5t-30 -2.5t-23.5 -1t-17 2.5t-17 11.5v11l5 8q11 5 21.5 6.5t15.5 5.5h50q40 3 47 9q5 0 17 6q8 21 15.5 47.5t14.5 60.5q16 81 51 243q17 82 30 142.5
t21 102.5q1 5 1.5 9t0.5 8q0 19 -11 24q-3 9 -17 11q-5 1 -9.5 1.5t-6.5 0.5h-6h-28q-3 -1 -10 -1h-9q-23 0 -28 5h-3q0 1 -1 1v1q-16 19 -16 20q2 7 18 29l9 3l34 2q13 -2 33.5 -3.5t46.5 -3.5l2 -1l26 3h-2q0 -2 47 -5h3h5q6 0 9 -1h15h15h16.5t22.5 1q11 1 18.5 1.5
t13.5 0.5q12 0 14 -2l8 2l1 1h37h7q14 0 36 -3t32 -3h19q8 -1 17 -4t20 -6q8 -2 17.5 -5.5t20.5 -8.5q3 0 3 -2q11 -3 17.5 -8.5t10.5 -11.5h2q5 -4 12 -10t13.5 -12t12 -11.5t6.5 -7.5q4 -8 6.5 -17.5t6.5 -21.5q1 -3 2.5 -8.5t3.5 -11.5q0 -24 -10 -51l-7 -12
q-2 -4 -5.5 -9.5t-7.5 -15.5q-3 -5 -8.5 -11t-12.5 -13q-2 -2 -6 -6.5t-9 -10.5q-2 0 -42 -22q-37 -20 -38 -23q-8 -2 -20.5 -6.5t-27.5 -11.5q-14 0 -18.5 -3t-12.5 -3l-5 -6l4 -11q2 0 4 -2q17 -1 34 -9l11 -3v-2l24 -4q4 0 7.5 -1.5t12.5 -6.5q5 -1 10 -6q14 -5 18 -14
l3 -1q2 -2 13 -16.5t33 -40.5q3 -23 10 -30q1 -3 1 -8v-9q0 -9 -1.5 -18t-3.5 -20zM665 597q1 3 1 15q0 5 0.5 12.5t1.5 17.5q-4 10 -8 19.5t-9 18.5q-17 33 -43 37l-3 1q-39 10 -116 10q-11 0 -23 -1.5t-24 -3.5l-17 -12l-11 -14q-5 -14 -14 -52.5t-22 -104.5
q-3 -8 -6.5 -19t-8.5 -26q0 -7 1 -13.5t2 -13.5l3 -28l25 -9h40q51 0 69 7q7 2 17 3.5t23 4.5q6 4 17 10t37 19l11 8q5 6 11.5 14t14.5 17q2 3 4.5 7.5t6.5 9.5q3 11 8.5 27.5t11.5 38.5zM628 263q0 11 -2.5 27.5t-8.5 37.5q-4 3 -10.5 13.5t-17.5 13.5l-1 2q-6 0 -13 6
t-12 6l-1 3l-10 3q-2 2 -4.5 3t-4.5 4q-24 2 -49 9q-23 2 -39 3t-26 1q-39 0 -41 2q-8 -2 -18.5 -5t-24.5 -9q-2 -4 -3 -6.5t-4 -4.5q-1 -3 -5.5 -26.5t-14.5 -68.5q-4 -21 -13 -35v-4q0 -14 -8 -46q-9 -30 -9 -44q1 -13 2 -31t1 -40q3 -2 9.5 -6t14.5 -9q26 -3 40.5 -4
t19.5 -1q79 0 91 9q4 0 6 2l14 1q2 2 3.5 2.5t2.5 2.5q10 2 19 5.5t20 6.5l6 3q5 4 14 10t21 16l10 11q2 4 5.5 9t7.5 10l2 1q1 4 3.5 8.5t5.5 10.5h2q11 33 15.5 57.5t4.5 40.5z" />
    <glyph glyph-name="C" unicode="C" horiz-adv-x="740" 
d="M692 282q-1 -7 -6.5 -21.5t-16.5 -37.5q-21 -43 -23 -43q-1 -4 -4 -9t-7 -11q0 -2 -8 -12.5t-19 -24.5l-3 -3q-11 -13 -27.5 -29.5t-40.5 -36.5q-3 0 -6 -3q-19 -7 -43 -31q-5 -3 -8 -3q-6 -6 -35 -12q-2 0 -6.5 -1.5t-13.5 -3.5q-4 -4 -53 -11l-1 -1q-8 -2 -12 -2h-8
l-29 2q-1 -1 -8 -1h-7q-1 0 -7 2l-2 2h-12q-5 3 -20 8.5t-41 11.5h-1q-1 0 -1 0.5t-1 0.5q-30 19 -82 79l-3 1q-4 8 -9.5 17.5t-15.5 22.5q0 4 -4 11q-2 4 -5 13t-12 24q-3 15 -5 26t-2 17q0 2 0.5 3t0.5 2q-7 18 -10 47q-1 4 -3 8.5t-4 10.5v11q0 8 1 12l2 1q-1 1 -1 9
q0 28 16 96q2 11 4.5 20t6.5 17h1q6 7 10 17l1 1q5 8 6 19q3 4 7 12q4 1 15 25h1q6 6 13 15.5t17 22.5q2 8 9 17q2 2 3 4q4 4 9 12q1 1 5 4t11 9q3 4 5.5 8.5t6.5 10.5q12 9 18 14t9 8.5t5 7t5 8.5q6 5 15 12t20 18q8 13 23 20l3 3q12 7 31.5 17t45.5 23q2 1 5 3t21 7l2 2
q3 2 48 10q22 3 35 4t19 1t16 -1.5t20 -4t17.5 -5.5t7.5 -6l8 -3q4 -1 23 -12q6 -6 13.5 -12l17.5 -14v-3q3 -4 18 -19q7 -18 26 -18h5q6 5 14 13.5t20 21.5q1 1 6 11q3 8 6 17.5t7.5 17.5t12 13.5t18.5 6.5v2q16 -7 16 -32q0 -11 -3.5 -26.5t-8.5 -35.5q-4 -14 -8 -27.5
t-8 -26.5q-3 -15 -5 -26t-2 -18q0 -2 0.5 -4t0.5 -4q-5 -12 -8.5 -26.5t-5.5 -31.5q-6 -28 -8.5 -42.5t-2.5 -16.5q-1 -8 -5 -18.5t-10 -22.5l-14 -5l-12 1l-2 4l-4 4q-3 7 -3 16l-2 1l-1 35q0 8 0.5 15.5t0.5 15.5v2q0 2 -1.5 10t-7.5 28q-5 5 -8 31l-2.5 7.5t-5.5 9.5
q0 4 -2.5 11.5t-6 15.5t-7.5 14.5t-7 7.5q-14 33 -27 42l-5 1l-5 5l-1 3l-14 6q-2 12 -38 19q-14 2 -25.5 3t-21.5 1q-5 0 -20 -1t-41 -5q-2 -2 -7 -3t-15 -5q-13 -7 -28 -16t-32 -21q-1 -1 -4 -2.5t-5 -1.5l-8 -8q-3 -4 -6.5 -7.5t-6.5 -9.5l-14 -15l-3 -6t-6 -11l-4 -5
q-5 -5 -12 -19.5t-18 -37.5l-2 -1q-2 -8 -5.5 -18.5t-8.5 -24.5q-4 -7 -11 -33t-17 -72q-8 -36 -11.5 -55.5t-4.5 -24.5q-5 -26 -7.5 -46t-3.5 -35v-29q0 -8 -0.5 -18t-1.5 -21v-9q0 -2 2 -10q2 -2 2 -4t-1 -3q2 -6 4 -14t7 -19q2 -15 11.5 -31t23 -29t29.5 -22.5t32 -12.5
l1 -3q17 -5 74 -9q1 -1 3 -1q3 0 7.5 0.5t12.5 1.5l40 13q4 1 7.5 4t9.5 6l12 3q8 4 19.5 12t25.5 19q1 2 4 2.5t7 2.5l10 9l2 3q4 4 10 8.5t15 11.5l1 5l9 6q0 1 0.5 1t0.5 1q4 5 9 11t10 16l2 2q2 2 21 41q2 2 3 4q2 2 3.5 5l3.5 7l1 1q0 3 22 60q3 2 7.5 8t7.5 15l9 9
q5 0 11.5 -5.5t6.5 -17.5q0 -7 -1 -10z" />
    <glyph glyph-name="D" unicode="D" horiz-adv-x="777" 
d="M825 392q-2 -5 -4 -12t-6 -12q-19 -76 -30 -88q-2 -2 -5.5 -10t-11.5 -21q-3 -3 -7.5 -10t-9 -14.5l-9 -15t-7.5 -11.5q-1 -4 -4.5 -8.5t-8.5 -11.5l-5 -7.5t-8 -10.5l-24 -28q-7 -1 -8 -10l-5 -5q0 -2 -7 -3q-10 -6 -23 -16t-30 -23h-4q-20 -9 -23 -9
q-15 -11 -31.5 -20.5t-31.5 -13.5q-2 -1 -6 -1q-1 0 -5 -2l-3 -1q-6 -4 -17.5 -8t-22.5 -8q-27 -6 -55 -6q-8 0 -16.5 0.5t-16.5 1.5q-7 -4 -13.5 -5t-12.5 -1l-111 7q-7 0 -18 -1t-23 -2t-23 -2t-17 -1q-9 0 -39 9q-24 -10 -41 -10q-8 0 -11 3h-2l-38 -3h1q-3 0 -9 2
q-5 2 -11.5 4t-16.5 4l-6 10l5 10q20 16 32 17h-5q-1 0 -2 -1h39h30h13t11 1q9 7 30 14q4 3 12 14q6 15 11.5 38t11.5 54l-2 2q11 48 20.5 96.5t19.5 97.5q14 75 25 120t17 60v15q1 4 3.5 8.5t4.5 9.5q15 67 15 93q0 21 -8 26l-7 12q-18 5 -45 5q-52 0 -72 20l-2 1l-3 10
l2 4q13 12 18 14q9 2 15 2.5t11 1.5q3 1 8 1l121 -3q13 0 13 -1v-1q11 -4 50 -4q33 0 84 3h37q32 0 51 -1t24 -6q5 0 6 -1q6 -2 17 -4t26 -5q8 0 22 -7q45 -15 50 -23l13 -6q2 -2 5 -5.5t7 -8.5l3 -1q13 -14 26.5 -28t25.5 -29q32 -41 32 -60l-1 -5q0 -1 4 -8.5t4 -11.5
q8 -8 11 -15l3 -2l1 -6q0 -4 -3 -35q0 -4 2 -8q-2 -29 -3 -52t-3 -42zM671 317q12 42 18.5 86.5t6.5 95.5v19l-1 39q-5 6 -6 18t-3 17q0 5 -3 19q-6 8 -12 21.5t-23 32.5q-17 20 -25 21q-1 7 -46 16l-42 9q-33 2 -53.5 3t-26.5 1q-20 0 -27 -6l-11 -9q-3 -9 -9 -14
q-13 -36 -24.5 -80.5t-21.5 -96.5q-8 -45 -17.5 -88.5t-19.5 -88.5q-15 -75 -20 -77q0 -5 -3.5 -22t-9.5 -48q-1 -7 -3 -19.5t-4 -26t-4 -26t-4 -19.5q-1 -3 -1 -12t4 -13v-3l2 -3l3 -1q10 -19 64 -19q4 0 15 1t28 2q38 5 40 8q36 2 48 8q2 1 3 2t3 2l17 5q7 6 17 7l3 4
q23 7 31 20q1 0 1 3q5 3 12 7.5t15 12.5l10 18q8 8 14 20q10 8 20 34q7 22 14 38q4 5 8.5 16.5t14.5 42.5l2 1z" />
    <glyph glyph-name="E" unicode="E" horiz-adv-x="795" 
d="M777 249q-2 -5 -4.5 -9.5t-4.5 -10.5q-2 -5 -7 -28.5t-13 -66.5l1 -2q-2 -15 -4.5 -29t-6.5 -29q-6 -35 -18 -56q-16 -13 -86 -13h-29h-17t-19 1q-45 3 -46 2l-6 1h-9l-2 -1l-4 1l-13 -1h-6q-1 0 -9 -2h-16q-5 0 -14 0.5t-19.5 1l-21 1t-17.5 0.5q-22 -2 -35 -7l-14 3
q-7 4 -149 4q-25 0 -76 -3q-26 -1 -44 -2t-31 -1l-6 -1l-17 7l-2 2l-6 1l-3 8l5 11q4 1 8.5 3t11.5 4h7l2 2q2 2 13 2q6 0 15.5 -0.5t20.5 -1.5q29 0 46 14q2 1 6 3.5t11 8.5l3 5q14 8 23 55q2 14 5 34.5t8 47.5q8 10 20 63l20 100q-1 1 -1 5q0 5 1.5 15t3.5 24q4 21 6 35
t2 19q5 11 10.5 25t12.5 34q2 8 2.5 21t2.5 33q1 16 4 34t10 38q2 6 2 8v6q0 5 -1 6v24q-13 25 -70 25l-19 -1l-9 -2q-2 2 -20 5q-2 1 -4.5 3t-5.5 4q0 1 -0.5 1.5t-0.5 2.5q0 4 3 16q16 8 39 11t52 3q2 0 3 -1t5 -1t7 -1q22 -5 95 -5q14 0 29.5 1t32.5 3l3 -4h51l1 2l11 2
q8 -2 12 -2h13q5 0 15.5 1t22.5 1.5t23.5 1.5t18.5 1l9 -2l6 2q9 1 19 1h21h51h60h33t35 -1l20 -2l7 -5q1 -5 1.5 -9.5t0.5 -9.5q0 -14 -5 -39l-7 -31l-2 -3l-2 -8q-6 -29 -11 -53.5t-9 -44.5l-1 -2q-5 -24 -10.5 -43.5t-12.5 -36.5l-9 -3l-14 5q-5 11 -6 28l-3 6v9v6.5
t1 7.5q-1 4 -1 8v9v20q-4 1 -4 5v3q-1 2 -2 7.5t-2 16.5q-4 7 -6 31q-2 4 -6.5 8.5l-9.5 9.5q-1 2 -3 4.5t-6 8.5v4l-12.5 10t-16.5 15q-7 1 -9 8q-17 1 -27 9h-24q-3 0 -5 1t-6 2t-9 3q-9 4 -27 4q-10 0 -13 -1q-22 -1 -32.5 -2t-9.5 -1q-5 0 -16 3t-16 3h-2q-6 -2 -10 -2
h-9q-10 0 -13 1q-21 -3 -37 -10q-19 -13 -21 -23q-7 -5 -17 -40q0 -2 -0.5 -2.5t-0.5 -2.5q-3 -12 -5.5 -21t-4.5 -17q1 -1 1 -7q0 -15 -7 -36l-14 -46q-2 -7 -3 -17t-5 -23q2 -6 2 -9t-0.5 -6t-1.5 -8q-4 -17 -4 -26q0 -13 6 -17q3 0 3 -3q12 -3 20 -3q14 0 29 4l2 2
q5 1 17.5 5.5t32.5 11.5q4 2 7.5 4t6.5 3q4 4 6 4q16 6 19 18q6 4 11.5 9.5t11.5 16.5q9 8 18 28t17 54l2 3l-2 1q7 30 23 30l10 -2l3 -3q0 -5 1 -5q0 -13 -4.5 -29.5t-9.5 -31.5q-2 -8 -15 -109l-1 -4q-4 -10 -7.5 -24t-5.5 -31q-3 -21 -6 -34.5t-5 -20.5l-21 -79
q-7 -31 -14 -37.5t-10 -6.5h-1h-4q-5 5 -5 21v11q1 5 1.5 9t0.5 9v9.5t1 9.5v3l-4 38q0 8 -4 17v14q-5 14 -17 23t-21 19l-14 1q-2 5 -21 8l-2 1q-15 7 -45 7q-13 0 -21 -11q-6 -9 -17.5 -58t-31.5 -139v-26q0 -5 -1 -8q-1 -4 -2 -9.5t-3 -13.5q-3 -3 -5 -45l9 -27
q2 -2 11 -3t26 -5q2 0 2 -1t1 -2l5 1q13 3 53 3q41 0 107 -3l1 2q8 2 18 2.5t24 2.5q8 2 17.5 5.5t20.5 9.5q45 22 77 72q2 2 4 4.5t4 4.5q3 4 5.5 7.5t2.5 5.5q6 5 11.5 15t11 20.5t10 19.5t8.5 13q0 4 3 4q8 21 20.5 47.5t27.5 58.5q7 3 20 10l9 -8q1 -1 1 -6
q0 -4 -1.5 -13t-3.5 -23q-3 -17 -4 -28t-1 -15z" />
    <glyph glyph-name="F" unicode="F" horiz-adv-x="791" 
d="M846 709v-5q0 -14 -7 -42t-20 -73q-25 -82 -25 -119v-7q-12 -18 -15.5 -23t-13.5 -6q-19 4 -19 26q0 1 1.5 8t3.5 21q-6 1 -6 69q-2 14 -5.5 28t-8.5 29q-4 6 -9 18t-14 27v3l-6 9v3q-4 4 -9 8.5t-13 10.5q-2 3 -12.5 7.5t-15.5 4.5v2q-7 1 -13.5 3t-12.5 4l-28 5
q0 3 -4 3q-29 0 -68.5 -1t-93.5 -5l-15 -8q-6 -5 -11.5 -12t-10.5 -14l-1 -1q-3 -8 -12 -36l-2 -1q-2 -6 -4.5 -17t-5.5 -23t-7 -23.5t-8 -18.5v-9q0 -25 -10 -48q-4 -14 -7.5 -33.5t-6.5 -44.5q5 -10 10 -18t22 -8h23q15 5 31.5 13t34.5 16l3 1l13 11q5 6 20 17q2 4 5 9
t7 11h1q3 2 5 8q15 12 36 74q0 3 4 7q3 16 22 28l6 -2q0 -8 1 -10v-2q0 -10 -7 -44.5t-18 -103.5q-5 -35 -9.5 -62.5t-8.5 -44.5l-18 -80q-17 -64 -26 -70l-17 -1q-9 12 -9 28q0 5 1 15.5t5 25.5q4 13 4 29l-1 11l-3 3q0 5 -2 9q0 15 -3 27l-2.5 2.5t-1 2t-3 4.5t-7.5 11
q-6 1 -12 12q-5 2 -12.5 4.5t-18.5 6.5q-4 1 -11 7l-37 8v2h-15q-29 -20 -44 -99q-10 -51 -16.5 -78.5t-10.5 -35.5q0 -5 -3 -35q-2 -17 -3 -29.5t-1 -19.5q0 -16 3 -17q2 -25 38 -29h56q44 0 44 -18l-1 -4l-3 -12q-15 -4 -17 -11q-10 -2 -9 -2h-4h-15l-2 2h-10h-6.5t-7.5 1
l-2 2q-8 0 -19.5 1.5t-27.5 3.5q-15 -4 -35 -4h-8q-5 0 -8 1l-3 1q-6 2 -15 2h-28h-14q-2 0 -5.5 -0.5t-9.5 -1.5q-5 -1 -10.5 -1.5t-13.5 -1.5q0 -2 -6 -2h-6q-2 0 -12 2q-4 2 -61 5h-5q-51 1 -51 11v1q4 16 24 21h33q17 0 29.5 2.5t20.5 5.5q2 2 6.5 3l13.5 3l28 46
q5 11 10 24t9 27l50 239q2 19 7 47t11 64q0 2 0.5 3.5t0.5 3.5l2 10q13 64 20 102.5t7 49.5v3q-1 3 -1 14q-3 14 -13 20h-1q-8 4 -26 10q-12 -1 -22.5 -2t-19.5 -2l-20 3l-14 11l-1 4q0 2 -1 3t-2 3l1 7q15 13 45 21l9 -1q3 -1 9 -1h11h13q10 0 15 1q7 -4 33 -4l2 2l12 -3
q16 1 34 6q8 -1 20.5 -2.5t27.5 -5.5h8q12 0 15 3q14 2 27.5 3.5t26.5 1.5q17 0 34 -3l24 5q312 0 314 -5l3 3l3 -1q1 0 1.5 0.5t1.5 0.5l5 -1q15 -23 15 -27q0 -9 -4 -26h-2z" />
    <glyph glyph-name="G" unicode="G" horiz-adv-x="742" 
d="M795 357q-1 -4 -3 -9t-4 -11q-8 -5 -19 -5q-8 0 -24 1.5t-20 1.5q-22 0 -38 -10.5t-30 -22.5l-2 -2l-4 -6q-5 -14 -14.5 -51t-22.5 -98q-5 -25 -8 -32.5t-3 -12.5v-2q-4 -15 -8.5 -37.5t-12.5 -52.5q-4 -4 -4 -6q-3 -4 -7.5 -8t-10.5 -9l-2 -2l-15 5l-3 6v49q-1 0 -4 4
t-6.5 8.5t-7 8.5t-5.5 4l-9 -2q-5 -2 -11.5 -6.5t-14.5 -10.5h-4q-21 -11 -23 -17l-10 -9q-16 -10 -47 -21l-6 -5h-4q-2 -2 -11 -5l-5 -1q-3 0 -9 -2.5t-32 -3.5q-10 -7 -45 -7q-2 0 -3 1q-3 1 -11 3l-3 1q-18 5 -41 9l-2 3l-9 5q-21 9 -52 34q-2 1 -4.5 2.5t-3.5 1.5
q-4 8 -10.5 16.5t-23.5 25.5q-1 5 -3.5 11.5t-4.5 14.5q-2 4 -5.5 8.5t-9.5 10.5q-2 8 -11 22.5t-9 33.5v4q-1 0 -8 10q-2 11 -4 21.5t-3 23.5q-1 1 -1 7v5q0 5 1 8l1 6l-1 2l-2 30l-1 2q0 2 -0.5 4t-0.5 4q0 11 3 28t8 42q12 66 37 111q2 2 5 6.5t9 12.5q2 0 2 3q3 2 6 8
t6 13t6 13t5 7l23 33q1 6 9 17q8 5 13 11.5t9 12.5l4 5q5 5 12 11.5t17 15.5q2 3 5 6t5 8l6 5l6 3l6 5q6 5 16 12.5t23 17.5q4 4 15 8q1 2 6.5 4.5t13.5 6.5q4 5 11.5 10.5t16 10.5t16.5 8.5t13 4.5q1 1 6 1q4 0 14 2l1 1l11 3l3 3q11 3 18.5 4t12.5 1l57 -3v2q20 -3 43 -19
q24 -17 34 -29q3 -7 15 -14q6 -11 13 -19t18 -13q15 1 23.5 8.5t18.5 15.5q0 4 2.5 7.5t7.5 17.5q2 5 3 7t3 4t5 6.5t9 14.5q4 9 14 9q9 0 22 -4l3 -6q0 -7 3 -11l-2 -6q-6 -41 -28 -117q-20 -77 -27 -114q-4 -17 -6.5 -29.5t-4.5 -18.5q-5 -20 -16 -40q-1 -1 -1 -2t-1 -2
l-16 -6h-10q-7 6 -7 20v21q-2 21 -9 46q0 2 0.5 4t0.5 4q0 9 -2.5 23t-7.5 32q-2 2 -2 8q-2 3 -4 10.5t-4 15.5l-4 16t-5 12q0 12 -10 28q-16 17 -17 24v2q-21 26 -31 26q-3 6 -28 12q-29 8 -35 8l-17 -2q-2 0 -4 -1t-5 -2t-8 -3l-8 2q-8 0 -35 -10l-25 -16q-8 0 -20 -16
t-37 -40l-3 -4q-3 -2 -9.5 -14t-10.5 -17q-1 -2 -6.5 -16.5t-14.5 -40.5l-2 -2q-1 -1 -3 -6.5t-6 -14.5q-9 -10 -21.5 -47t-27.5 -106l1 -1q-1 -11 -5 -34t-12 -60l-13 -103q1 -1 1 -6q0 -2 2 -6l1 -2q0 -7 1.5 -16l3.5 -21l3.5 -7t1.5 -7l3 -15q11 -12 18 -37q7 -12 32 -31
q0 -2 66 -18q12 1 27 6q5 2 9.5 3t10.5 3l12 3l1 2l22 6q3 3 38 29q13 9 22 17.5t12 16.5q4 2 8 9.5t7 16t5.5 15.5t4.5 8q5 12 9 28t9 38q6 25 8.5 40.5t2.5 21.5q0 28 -20 48q-11 0 -12 7l-9 3q-1 2 -7 2.5t-13 0.5h-11h-3l-3 -3h-11q-13 0 -21 1t-27 7q-1 2 -1 6
q5 23 46 23q3 0 26 -3q2 -2 10 -2q6 0 8 1l20 1l5 2q18 0 39 -6q6 2 66.5 4t177.5 3q4 -3 6.5 -6t2.5 -9z" />
    <glyph glyph-name="H" unicode="H" horiz-adv-x="934" 
d="M989 723l-11 -6q-2 -1 -11 -1h-7q-5 0 -8 1q-11 1 -16.5 2t-7.5 1l-40 -6q-2 -2 -7 -2.5t-13 -2.5q-25 -21 -42 -74q-12 -41 -12 -71v-10q-6 -8 -12 -31t-14 -61q-5 -26 -9.5 -51t-9.5 -49q-2 -13 -5.5 -24.5t-8.5 -22.5v-6q0 -20 -10 -64q-6 -27 -11.5 -44.5
t-10.5 -28.5q1 0 1 -6v-8q0 -2 -2 -10q-7 -25 -7 -45q0 -25 13 -41l3 -2q2 -2 5.5 -3t8.5 -3q15 -2 36.5 -3t50.5 -3l10 -10l-10 -21q-11 -11 -41 -11q-34 0 -53 1t-23 2h-7l-2 -1q-5 1 -9 1.5t-9 0.5q-7 0 -8 -1q-4 2 -7.5 3.5t-9.5 1.5t-19.5 -3t-21.5 -3q-41 0 -45 4h-26
q-2 0 -4 -0.5t-4 -0.5l-11 1l-9 -3l-3 2q-4 -1 -7 -1.5t-7 -0.5h-15q-36 0 -36 23q11 11 28 11q4 0 11 0.5t13.5 1t12.5 1t8 0.5q3 5 17 5h9q9 3 17 8t15 10q0 2 3.5 6.5t10.5 15.5q6 7 12 51q4 26 10 50.5t18 66.5l2 6l-1 2q0 4 2 13t4 23l1 8l9 52l-1 2q-4 8 -7 11.5
t-11 5.5l-1 1q-7 0 -18.5 1t-26.5 2l-12 2h-17q-17 0 -44.5 -0.5t-66.5 -1.5q-52 -1 -79.5 -2t-29.5 -2l-5 -2q-12 -8 -20 -34l-46 -211q-1 -3 -1 -16q0 -20 6 -48l12 -13l2 -1q6 -9 78 -9q15 0 23 -11v-8q-2 -9 -14 -17h-7q-5 0 -5 -1q-14 -3 -32 -3l-3 1l-14 -1
q-6 2 -18 2h-14q-4 0 -7.5 0.5t-8.5 1.5q-39 -6 -203 -6q-13 0 -26 1t-28 2q-4 4 -7 6.5t-3 10.5v6q7 8 14.5 11t15.5 5h8q4 0 9.5 -0.5t13.5 -1.5l3 2l7.5 -1.5t4.5 -0.5h4h9l1 2q11 3 23 6.5t17 3.5q21 12 42 93q1 3 6 28t15 76q5 20 8 48.5t5 64.5q5 8 9.5 20t10.5 29
q1 4 1 14q0 4 0.5 9t1.5 11l3 1q7 35 15 76t18 89q8 40 8 48q0 26 -23 49q-13 7 -41 7q-18 0 -40 -3q-2 0 -4 1t-5 2t-8 2q-8 3 -8 12v5q3 12 16 26q9 2 21.5 2.5t27.5 2.5h6q3 0 7.5 -0.5t9.5 -1.5h1q8 1 16.5 1h16.5h38h62q28 -1 50 -1.5t38 -0.5h42h24q10 0 12 -2
q14 -5 14 -20v-4q0 -1 -2 -5q-2 -2 -3.5 -6t-4.5 -9q-4 -3 -10.5 -3.5t-14.5 -0.5q-7 0 -13 -0.5t-9 -2.5q-5 1 -8.5 1.5t-5.5 0.5h-3h-31l-32 -19q-9 -5 -25 -41v-8q0 -5 -1 -9q-8 -42 -17 -75.5t-20 -61.5q1 -8 1.5 -14t0.5 -9t-1 -3q0 -6 -9 -22q7 -30 79 -30h15l6 -3
q5 -3 5 -4q10 5 77 5q-2 0 24 -3q2 -1 9 -1q5 0 8.5 1t5.5 2h8l1 -2q8 -2 15 -2h25q15 0 23.5 1.5t15 6t11.5 13t12 21.5q0 3 6 33.5t19 88.5q15 64 15 95q0 7 -2 17q-8 11 -15.5 16t-13.5 7h-40q-55 0 -55 19l1 4q7 28 65 28h2q18 -8 86 -8q16 0 41 1.5t59 3.5q33 2 58.5 3
t42.5 1l36 -3q0 -2 10 -9q6 -3 6 -9q0 -2 -1 -3z" />
    <glyph glyph-name="I" unicode="I" horiz-adv-x="555" 
d="M592 732l-10 -7l-34 -3l-2 1q-1 1 -3 1l-2 1q-1 1 -3 1q-24 0 -43 -1t-32 -5q-48 -30 -57 -78q-3 -25 -9 -61.5t-14 -85.5l-1 -1q-2 -4 -3.5 -9t-3.5 -11q-14 -66 -20 -103t-6 -46v-2q-3 -13 -8.5 -30.5t-12.5 -40.5q-2 -11 -4.5 -26.5t-6.5 -37.5q-4 -21 -6.5 -37
t-4.5 -26q-1 -8 -2 -14.5t-1 -12.5q0 -28 40 -44q9 -1 17 -1h15h26h18q8 0 10 1l14 -9v-9v-5.5t-1 -7.5l-2 -5l-8 -4t-9 -3l-1 -2q-3 -1 -24 -1h-32q-13 0 -15 1q-1 0 -3 -0.5t-6 -0.5t-8 0.5t-9 0.5q-26 3 -30 3q-7 0 -18 -0.5t-26 -0.5h-46l-2 -2q-11 -1 -21.5 -2
t-23.5 -1l-38 3l-2 2l-9 1q-21 -6 -66 -6q-8 0 -19.5 5.5t-11.5 13.5v1q3 17 26 17q2 2 10 5l6 -2q4 -1 16 -1h24l1 1q8 0 15 1t15 2q1 0 8.5 1.5t20.5 11.5l1 1q4 4 8.5 7.5t11.5 9.5q2 2 2.5 4t2.5 4q11 10 46 181q4 13 6.5 30.5t5.5 40.5q4 24 6.5 41.5t6.5 29.5
q6 34 6 55q11 24 14 51v1q0 2 -0.5 3.5t-0.5 3.5q0 16 10 46q5 14 7.5 24t4.5 17q2 10 3 14q2 9 3 22t4 30l-2 11q-3 3 -3 5l-6 8q-4 2 -8.5 4.5t-10.5 5.5v2q-10 2 -15 2q-8 0 -11 1t-9 1l-5 -1h-15h-10t-10 1l-3 2q-13 0 -34 9q-2 0 -2.5 1t-2.5 2v16q5 17 39 17
q32 0 51.5 1t26.5 5l11 -2q2 2 5 2h1q2 0 2 -2h6l1 2q12 0 14 -2l6 2q7 -3 44 -3h49l3 -2l8 2q3 1 20.5 2t51.5 3l49.5 1.5t18.5 0.5l33 -9l-1 -29z" />
    <glyph glyph-name="J" unicode="J" horiz-adv-x="672" 
d="M720 709q-3 -14 -40 -15q-5 1 -10.5 1h-10.5h-21q-12 0 -27 -7q-6 -4 -11 -7t-8 -5t-7 -4q-15 -8 -22 -35q-2 -9 -4 -18.5t-4 -20.5q-20 -90 -60 -267q-2 -14 -6.5 -36.5t-11.5 -51.5q-4 -11 -8.5 -26l-10.5 -35q-2 -8 -16 -40q-1 -1 -1 -3l-1 -2q-16 -37 -20 -37
q-3 0 -17 -17t-15 -18l-3 -3q-8 -8 -19.5 -19t-27 -22.5t-34.5 -21.5t-41 -16q-81 -21 -88 -21q-6 0 -6 1q-82 0 -80 12q-20 13 -30.5 20t-9.5 7q-4 0 -7.5 5t-6.5 11q-4 8 -5 11q-1 5 -11 13q-8 8 -8 39q0 13 3 28q3 10 7 23.5t10 30.5q5 6 11 13t12 18q0 2 5.5 7t13 10
t15 8.5t12.5 3.5q18 3 30 3q22 0 28 -8q31 -31 31 -56q0 -21 -17 -44q-9 -12 -19 -24t-25 -17q-35 -9 -43 -20q-4 -2 -8 -4.5t-8 -7.5v-5q0 -20 11 -20q6 0 16.5 -10t18.5 -10q2 0 9 -1t21 -2h2q14 -2 23.5 -3.5t17.5 -1.5q19 0 21 6q15 6 30.5 13t32.5 18q8 11 16.5 20
t16.5 19q10 13 16.5 24t7.5 19q2 9 12.5 49.5t28.5 113.5q12 51 20 91t12 73q5 34 21 97q8 32 14 56.5t8 39.5q-2 10 -2 15v10t-1 10v1q0 4 -4 9.5t-4 6.5q1 9 -51 9q-35 3 -54 3q-13 0 -20 7q-6 9 -6 14q0 2 2 2h-1q0 3 10 10l11 6q6 9 57 9q17 0 45.5 -1t67.5 -5
q40 -3 54 -3q2 0 3.5 0.5t2.5 0.5h2q0 2 46 2h35q11 0 19 -2q12 3 34 3l27 -6q7 -1 7 -8v-2z" />
    <glyph glyph-name="K" unicode="K" horiz-adv-x="922" 
d="M983 752q5 -2 5 -7q-4 -23 -16.5 -28t-26.5 -6q-44 0 -47 -6q0 -5 -23 -14q-26 -8 -29 -8t-26 -17q-11 -8 -17.5 -11.5t-8.5 -5.5q-39 -16 -103 -65q-32 -24 -56 -41t-41 -25q-2 0 -8 -4t-13.5 -9.5t-14.5 -9.5t-10 -4q-17 0 -17 -33q0 -12 3 -12q6 0 21 -52q1 -2 5.5 -9
t9 -14.5t8.5 -14.5t4 -10q0 -5 9 -17q5 -5 6.5 -9t2.5 -7.5t2.5 -8.5t6.5 -12q6 -5 8.5 -9.5t2.5 -5.5q11 -32 34 -72q3 -4 7.5 -14.5t4.5 -15.5v-1v-1q0 -5 4 -12t9 -13.5t9 -11.5t4 -8q2 -8 7 -19.5t11.5 -22t14 -19t15.5 -10.5t17 -4.5t17 -6.5q19 -6 27 -6q5 0 5 2
q1 1 3 1q5 0 20 -9q22 -12 22 -19v-1q-3 -14 -49 -14h-23q-5 0 -11 0.5t-11 1.5q-101 0 -219 3q-6 1 -11.5 1.5t-10.5 0.5h-17q-15 0 -17 -1h-10q-22 0 -30 3t-8 8q0 14 23 17l30 2t30 1q0 1 7 1h8q7 0 11 -1q10 1 31 15q11 8 11 20q0 5 -3.5 13.5t-8 18t-8 18.5t-3.5 14v2
v1q0 8 -30 47q-5 13 -18 36q-5 3 -7.5 16.5t-6.5 16.5q-2 2 -5.5 8t-7.5 12.5t-6.5 13t-2.5 8.5v1q0 3 -3 8t-7 10.5t-7 10.5t-3 7v2q0 7 -16 33q-2 2 -6.5 6t-10 8.5t-11 7.5t-9.5 3q-2 0 -2 -1t-4.5 -6t-20.5 -13q-10 -6 -15.5 -9.5t-7.5 -7.5q-3 -6 -12 -14.5t-21 -19.5
q-12 -7 -16 -31q-1 -8 -2 -17t-2 -17q-6 -25 -13 -63t-17 -89q-1 -3 -1 -14q0 -22 11 -38t32 -16q6 0 12 2q8 -2 19 -3t26 -3q9 -2 9 -8q0 -4 -5 -12q-2 -4 -9.5 -5t-21.5 -3h-2h-2q-8 1 -17.5 1.5t-20.5 0.5t-24.5 -0.5t-29.5 -1.5q-5 0 -12.5 -0.5t-17.5 -0.5t-22 0.5
t-27 0.5l-20 1q-17 0 -31.5 -2t-26.5 -5q-2 1 -11 1q-7 0 -15.5 -1t-19.5 -2q-6 -2 -8 -2h-9h-9q-2 0 -8 2q-23 3 -23 19q0 14 75 23q15 2 24.5 2.5t15.5 2.5q31 6 32 21q9 10 20 40q2 5 4 11.5t6 14.5q2 3 2.5 10t1 15t1 15t1.5 10q7 26 15 64t17 86l18.5 92.5t12.5 60.5
t13 59t19 87q1 5 1 15v13v14q0 4 -2 12q-9 27 -30 27q-7 0 -9 -1q-3 -1 -13 -1h-8q-5 0 -8 1q-11 1 -18.5 2t-9.5 1q-17 0 -25 3t-8 15q0 7 1 10q1 15 49 15q9 0 22 -1t30 -2q30 -3 33 -3q14 -1 28.5 -1.5t28.5 -0.5h57h47q7 1 13 1.5t13 0.5h14t14 1q51 0 51 -17
q0 -3 -2 -6.5t-8.5 -6.5t-19 -5.5t-32.5 -2.5q-25 0 -50 -9q-32 -14 -36 -34q-7 -32 -17.5 -77.5t-25.5 -108.5q-2 -11 -4.5 -20.5t-6.5 -19.5q-9 -35 -9 -54q0 -23 14 -23q10 0 34 18q7 6 14 12.5t15 13.5q21 17 32.5 26.5t15.5 9.5q8 0 14 6l13 12q11 8 25 17.5t34 22.5
q7 7 16.5 15t21.5 16q3 0 7.5 5t9.5 11t8.5 11t4.5 5q25 0 69 60q12 19 12 36q0 20 -18 37q-2 1 -9.5 3t-20.5 4q-15 3 -20 3h-2q-1 0 -1 -1q-14 2 -21 7.5t-7 11.5q0 4 1 5q6 19 55 19q16 -1 30.5 -1h27.5h47q65 0 66 4h80h30q47 0 59 -5z" />
    <glyph glyph-name="L" unicode="L" horiz-adv-x="686" 
d="M146 708q-8 2 -8 18q0 26 51 26h11q9 0 14 -1t12.5 -1.5t15.5 -0.5h40q10 2 15 2q9 0 14 1q27 3 43 3q23 0 24 -4l59 3q1 4 26 4l26 -1l15 1q45 0 45 -25q0 -6 -1 -8q-2 -8 -10.5 -14t-23.5 -6h-29q-5 1 -14 1h-15h-16q-10 0 -15 -1q-6 -4 -10.5 -6.5t-9.5 -4.5
q-2 0 -11 -19q-4 -3 -7.5 -9.5t-8.5 -14.5q-1 -8 -4 -21t-6 -30q-2 -4 -5 -20.5t-9 -45.5q-4 -21 -9 -37t-11 -29q-3 -26 -9 -59v-2q0 -3 -1 -11.5t-6 -24.5q-5 -19 -7.5 -30.5t-4.5 -17.5q-5 -11 -11.5 -44t-17.5 -90q-8 -42 -12 -67.5t-4 -36.5q0 -7 2 -7q-1 0 11 -30v-1
q0 -4 10.5 -8.5t18.5 -4.5h3q24 0 60 2t85 6q58 9 58 12q2 1 6.5 4t12.5 8q15 9 20 9q10 5 21 19q8 9 13.5 14.5l6.5 6.5q6 8 14 18t19 21q16 6 36 80q6 11 14 35t23 62q6 8 11.5 11.5t8.5 3.5q6 -5 12.5 -6.5t7.5 -13.5q0 -13 -9 -43l-9 -32q-6 -25 -14 -59.5t-17 -82.5
q-1 -15 -6.5 -37.5t-13.5 -51.5q-5 -17 -51 -18l-113 -5h-128q-19 1 -39 1h-42q-21 0 -43 0.5t-45 1.5q-68 -3 -153 -3q-7 0 -15 1t-17 4q-25 4 -25 13q0 5 14 13q18 9 48 9h8h4q74 0 89 109q4 20 10 49t14 67q9 39 15 67.5t9 48.5q8 60 21.5 123.5t30.5 132.5v15
q0 5 0.5 10t1.5 10l-11 26v1q0 6 -44 8q-28 2 -42.5 3t-16.5 1z" />
    <glyph glyph-name="M" unicode="M" horiz-adv-x="958" 
d="M1018 720q-2 -8 -49 -11q-7 -1 -14 -1h-14t-13 -0.5t-13 -1.5q-37 -6 -44 -34q0 -2 -9 -24l-7 -22q-57 -284 -63 -284q-5 -34 -9.5 -63t-10.5 -53q-3 -18 -7.5 -36.5t-9.5 -37.5q-9 -38 -9 -64v-8q0 -26 37 -35q11 -5 23 -6t24 -1h13l11 1q21 0 21 -13q0 -6 -1 -8
q-8 -18 -37 -18q-9 0 -23 1.5t-19 1.5l-118 3q-27 1 -50 1.5t-43 0.5h-27q-8 -2 -15 -2.5t-14 -2.5h-10q-8 0 -18 2q-11 6 -11 18t29 12h36q6 0 15 1t22 2q3 0 11 7t13 7t14 20q5 6 9 16.5t7 22.5t5.5 23.5t4.5 20.5q3 6 5 14.5t3.5 17t2.5 16.5t3 12q4 11 6.5 26t4.5 36
q4 21 6.5 36.5t5.5 26.5q8 25 14 62q4 23 6.5 39t4.5 25q4 14 7 34.5t8 47.5q0 2 8 32q5 25 5 34q0 17 -5 17q-2 0 -6.5 -4t-9 -10t-8 -12.5t-4.5 -10.5q-8 -24 -19 -42t-21 -38q-15 -34 -21 -34q-1 -4 -6 -10q-6 -10 -16 -32q-22 -45 -24 -47q-4 -6 -8.5 -15l-10.5 -21
q-5 -5 -16 -24q-1 -1 -1 -2l-1 -1q-1 -1 -1 -2l-1 -1q-1 -8 -5.5 -17.5t-9.5 -21.5q-10 -16 -15 -25t-7 -10q-7 -20 -19.5 -49.5t-29.5 -67.5l-18 -43q-17 -39 -19 -39q-7 -13 -10.5 -20t-4.5 -10q-5 -17 -25 -17q-7 0 -8.5 3.5t-1.5 11t-1 18.5t-6 25q-9 30 -9 45v13v42
q0 46 -6 46t-11 62q-2 23 -3 38t-1 24t1 10l1 8q0 12 -4 23q-2 10 -2.5 16.5t-0.5 12.5q0 7 -1 14t-5 18t-4 22q0 9 1 11v2q0 6 -2.5 23t-7.5 45l-1 8q-8 60 -9 60t-4 28q0 12 -10 12q-6 0 -11 -8q-4 -5 -7.5 -21.5t-9.5 -42.5q-5 -29 -13.5 -72t-21.5 -100
q-5 -18 -12.5 -49t-18.5 -79q-13 -57 -19 -94t-6 -55q0 -14 3 -14q4 -8 6.5 -17t6.5 -20q0 -3 4 -8t9.5 -9.5t10.5 -8t8 -3.5q29 -8 49 -11t31 -3q5 0 5 -3q0 -13 -17 -16q-15 -1 -23 -2t-10 -1q-172 0 -223 -3h-10q-31 0 -31 9q0 5 4.5 11.5t4.5 10.5q2 5 46 5q15 0 26.5 5
t21.5 13q5 4 10.5 9.5l13.5 13.5q2 2 5 8t8 17q4 8 5 13t1 7v1q8 0 34 129q7 36 13.5 72.5t12.5 74.5q6 28 15 68t23 95q16 45 16 78q0 51 -36 65q-2 1 -15 1h-31h-4q-26 0 -33 7t-7 12v3l2 6t2 5q3 9 127 9h38h18q14 0 30 -0.5t36 -1.5q10 -1 19 -37q-1 0 -1 -3t0.5 -10.5
t1.5 -19.5l5 -36q-1 -2 -1 -13q0 -12 1.5 -31t3.5 -47q6 -78 10 -78q2 -14 4.5 -21t5 -12.5t4 -11.5t1.5 -18v-34l14 -72v-20q0 -5 0.5 -10t1.5 -10q1 -34 3 -34q3 0 6 -11q5 -11 11 -11q3 0 7 3.5t16 24.5q25 45 41.5 78.5t25.5 56.5q8 13 17.5 33.5t22.5 48.5q2 2 5.5 10
t10.5 22q14 29 15 29q3 0 20 33q16 34 19 35q1 18 18 48q13 22 19 34.5t7 14.5q2 6 3.5 11t2.5 11q8 20 10 20q-1 0 8 8.5t15 14.5q1 1 4 1t5 2q0 3 55 3h66q11 1 22 1h21h42q43 0 43 -9q0 -5 -4 -14.5t-4 -11.5z" />
    <glyph glyph-name="N" unicode="N" horiz-adv-x="837" 
d="M468 488q9 -17 10 -25t1 -19q0 -7 3 -19q6 -26 12 -27q3 -2 7 -7.5t7.5 -12.5t6 -14t2.5 -12q1 -3 9.5 -13t8.5 -16v-1v-3q0 -7 5 -14q7 -10 7 -14l-1 -3q0 -8 20 -43q8 -14 11 -21.5t4 -11.5t2 -7t5 -8q6 -8 14 -8q10 0 16 54l28 157q2 0 14 71q6 35 9 55t5 23
q9 25 9 57q0 94 -61 94q-3 0 -9 1t-12.5 2.5t-11 3.5t-4.5 4q-7 5 -11 18q5 19 49 20t80 1.5t65 0.5h90h16q8 0 10 -3q1 -1 2 -2.5t3 -3.5q8 -8 8 -14t-8 -11q-11 -8 -43 -11q-15 -1 -24.5 -4.5t-15.5 -9.5q-9 -8 -18 -15t-20 -15q-23 -20 -28 -37q-6 -17 -11.5 -33
t-11.5 -34q-17 -48 -17 -55v-1q-15 -69 -31.5 -144t-33.5 -163q-2 -10 -4.5 -26t-6.5 -38q-6 -42 -10 -62t-8 -39.5t-18 -34.5q-4 -4 -13 -4q-18 0 -29 20q0 1 -1 8.5t-5 22.5q-3 24 -9 24q-6 12 -12.5 24.5t-13.5 26.5q-4 8 -9 19.5t-13 26.5q-11 19 -15 30q-2 3 -3 5.5
t-2 4.5l-9 19q-3 8 -5 13t-2 8l1 3q1 2 1 10q0 16 -8.5 34.5t-28.5 41.5q-9 11 -18 26.5t-19 35.5q-13 26 -20 43t-10 23q-7 11 -10 18.5t-4.5 14.5t-3.5 13.5t-7 15.5q-6 8 -8.5 14.5t-3.5 9.5q-9 28 -26 36h-1q-6 0 -10.5 -13.5t-10.5 -39.5q-2 -5 -7.5 -40t-18.5 -104v-1
q0 -6 -12 -58q-8 -32 -11 -49.5t-3 -19.5q-2 -9 -6 -29.5t-10 -52.5q-1 -5 -1.5 -8.5t-0.5 -7.5q0 -17 5.5 -33t10.5 -31q2 -4 2 -7v-6q0 -5 1 -7t3 -3.5t6 -4t10 -7.5q10 -9 14 -9v-2q0 -6 23 -9q28 -3 29 -4q2 -1 5.5 -4.5l8.5 -8.5q1 -1 1 -3v-3q0 -13 -20 -15
q-7 -1 -19 -1.5t-31 -0.5h-101h-81q-27 0 -37 2q-28 4 -28 12t66 29q4 2 10 3t14 5q1 3 12 11q1 1 8 9t20 24q9 14 15 24t6 12q11 11 11 54q1 14 5 34.5t12 46.5q8 28 13 47.5t7 31.5q1 17 9 52t22 89q32 122 32 143q0 5 -2 5q-1 6 -3 13t-4 15q-2 5 -7 12t-11.5 13
t-13 10.5t-11.5 4.5q-68 0 -68 24q0 3 3 9q7 12 45 16h36q13 -1 26 -1.5t26 -0.5h55q24 -2 43 -49q4 -23 17 -57q6 -2 10 -28q7 -24 13 -24t14 -23q3 -12 5 -17.5t4 -7.5q1 0 3 -4l4.5 -9l4.5 -9t3 -4q2 0 5 -4.5t6 -10t6 -10t5 -4.5z" />
    <glyph glyph-name="O" unicode="O" horiz-adv-x="705" 
d="M755 411q-1 -6 -5 -23.5t-12 -47.5q-16 -69 -24 -69q3 0 -14 -29l-18 -33q-4 -11 -14.5 -20t-13.5 -15q-18 -34 -32 -42q-2 0 -6 -5t-8.5 -11t-9.5 -11t-10 -5q3 0 -11 -14l-14 -12q-4 -5 -13 -12.5t-19 -14t-19.5 -11.5t-14.5 -5l-6 -3q-6 -5 -17 -10q-28 -14 -41 -18
t-24 -8q-2 -5 -37 -9q-17 -2 -34 -3.5t-32 -1.5q-24 0 -24 4q1 1 -8 4t-28 6q-34 7 -34 12v1q-12 9 -20.5 14.5t-11.5 5.5q-3 1 -17 15q-12 13 -12 15v1q0 5 -19 33q-21 33 -24 33q-5 0 -14 23l-12 24t-3 11t-4 26q-2 11 -5.5 24.5t-3.5 26.5q0 4 2 14v12q0 19 -5 19v1
q0 5 6 35l9 42q11 62 19 62q11 17 12 26q17 50 22 50t12 19q9 18 12 18q-1 0 27 37q10 13 17.5 22t11.5 14q11 11 18.5 18t15.5 12q25 23 70 51q13 5 47 26q26 20 46 20q6 0 15.5 2t20.5 5t21.5 5t18.5 2h4q13 -2 31.5 -5t45.5 -7q5 -2 17 -6.5t29 -12.5q34 -15 34 -23v-1
q0 -4 35 -39q4 -1 7 -4l8 -8q3 -7 6 -11t6.5 -7.5t8 -9.5t9.5 -17q5 -10 7.5 -19t4.5 -14q4 -20 9 -36q3 -12 4 -19.5t1 -10.5v-2q9 0 9 -37zM606 322q2 8 8.5 53.5t19.5 130.5l3 31v16v8t1 8q0 4 -1 13t-5 24q-4 31 -6 31l-23 40q0 2 -4.5 7.5t-10 11t-11 9.5t-8.5 4
l-34 13q-15 4 -28 5t-24 1h-11q-13 -2 -36 -8.5t-59 -17.5q-8 -4 -19 -11t-24 -19q-13 -11 -20.5 -21.5t-8.5 -18.5q-31 -43 -31 -46l1 -1q-4 -10 -6.5 -17.5t-4.5 -12.5q-2 -3 -4 -9q-7 0 -23 -64q-18 -76 -20 -76q-8 -23 -13.5 -53t-6.5 -67v-10q-2 -42 -3 -68t-5 -40
q0 -1 -0.5 -2t-0.5 -3q0 -13 7 -32t7 -26q0 -18 15 -36q9 -13 14.5 -20t6.5 -11q3 -6 37 -16l36 -14q0 -2 24 -2q12 0 25 0.5t23.5 2t17.5 3.5t7 5q18 11 37.5 22t40.5 24q38 32 52 71q2 1 11 25t27 69q11 28 19 51t11 43z" />
    <glyph glyph-name="P" unicode="P" horiz-adv-x="726" 
d="M155 720q-9 3 -9 12q0 11 9.5 17t32.5 6q7 -1 14.5 -1h16.5h43q3 -1 9 -1h11q13 0 28.5 0.5t35.5 1.5q2 0 9 -1t16 -2t17.5 -2t13.5 -1q4 0 5.5 1t3.5 2t6.5 2t13.5 1h14h10.5t10.5 -1h25h7q171 0 242 -71q38 -36 38 -65q0 -7 -1 -9v-6v-5.5t1 -8.5t1.5 -10t0.5 -10v-15
q0 -39 -12 -39q-2 0 -5 -5t-6.5 -11t-6.5 -11t-5 -5t-16 -17q-11 -17 -15 -17t-10.5 -5t-13.5 -11t-13.5 -11.5t-10.5 -6.5q-7 -5 -17 -9.5t-23 -10.5q-92 -15 -97 -29l-127 -9h-7q-3 0 -9 0.5t-13.5 1l-15 1t-12.5 0.5q-40 0 -45 -26q-4 -8 -8 -21.5t-9 -32.5
q-1 -9 -3.5 -19.5t-4.5 -22.5q-6 -27 -18 -84q-11 -41 -11 -60v-5q1 -8 1.5 -13t0.5 -9q0 -6 1 -5v-3q0 -18 49 -21q12 2 28 3t37 1q7 -5 23 -14q1 -1 1 -3q0 -5 -6 -12t-10 -7t-12 -4.5t-14 -4.5h-2q-16 2 -29 6.5t-39 4.5h-6q-6 1 -11 1.5t-10 0.5l-30 -1h-18
q-5 0 -10 0.5t-12 1.5h-13q-10 0 -23 -0.5t-28 -1.5q-24 -2 -41 -3t-25 -1q-48 0 -48 12q0 8 10.5 14.5t24.5 6.5h5q9 0 12 -1h28q14 2 14 5q13 6 31 24q1 2 5 10.5t12 23.5l2 3q4 8 6.5 13.5t2.5 9.5q0 1 -0.5 1.5t-0.5 1.5v4q0 39 22 124q32 130 32 142q0 3 -1 3
q1 0 18 69q9 39 14 58.5t5 21.5q18 52 18 104q0 27 -6 48q-3 11 -45 14q-7 1 -13.5 1h-13.5t-13.5 0.5t-13.5 1.5zM331 502q-16 -55 -16 -76q0 -40 30 -41q5 -1 12.5 -1.5t17.5 -0.5h45h12q75 0 90 19q3 3 24 13q24 11 28 11q7 0 18 14l8.5 8.5l4 4t3 4l4.5 7.5q2 2 3 5
q10 16 11 16q7 0 22 70q3 20 5 36t2 29q0 20 -5 32t-12.5 19.5t-16.5 12.5t-18 11q-15 12 -37 14q-33 3 -56 4t-37 1h-13q-5 0 -11.5 1.5t-10.5 1.5q-3 0 -9.5 -3t-10.5 -5q-10 -1 -23.5 -11t-17.5 -20q-7 -17 -14 -39t-12 -50q-11 -43 -15.5 -64.5t-4.5 -22.5z" />
    <glyph glyph-name="Q" unicode="Q" horiz-adv-x="698" 
d="M749 440q-5 -26 -14 -65t-24 -93q-6 -10 -13.5 -24.5t-15.5 -34.5q-3 -12 -25 -35q-21 -21 -23 -33q-2 -5 -10 -15.5t-26 -27.5q-16 -16 -26 -25t-14 -10t-10.5 -6t-13.5 -11t-13 -10.5t-9 -4.5q-4 0 -38 -25q-19 -14 -23 -29t-8 -33v-1q0 -8 4.5 -19.5t4.5 -18.5v-2v-1
q0 -11 12.5 -20.5t21.5 -10.5q12 -3 39 -3q3 0 14.5 5.5t29.5 18.5q9 5 20 17q9 20 11 20q1 0 15 35q13 31 20 31q2 0 3 -1q11 -5 11 -20q0 -24 -36 -91q-4 -8 -7.5 -13.5t-5.5 -9.5q-2 -2 -3 -4l-2 -4q-6 0 -17 -20q-4 -7 -6.5 -11.5t-4.5 -6.5l-4 -6q-16 -15 -38 -24
t-48 -10q-8 -1 -16 -1.5t-16 -0.5t-15 0.5t-15 1.5q-44 2 -44 18v3q0 2 -4 8.5t-9 14t-9 14.5t-4 12q0 2 -1 7t-2.5 10t-3.5 9t-3 4q3 19 5 34t2 26q0 24 -30 32l-60 5q-47 6 -92 53q-8 8 -17 16.5t-18 16.5q-23 25 -23 41l-2.5 10t-4 12t-4.5 10t-5 4q-10 0 -14 27
q-4 28 -7 28t-3 32v14q0 20 -4 20q-3 0 -3 13q0 22 5 50t14 63q6 24 21 54q8 13 14.5 26.5t12.5 26.5q34 75 98 127q1 1 2 1.5t3 2.5q14 14 30 28t30 17q4 1 26 22q9 11 17 15.5t14 6.5q4 2 12.5 6.5t18 9t19 8t14.5 3.5q6 0 17.5 3.5t30.5 10.5q0 -1 71 -1q7 0 16.5 -4
t19.5 -8.5t19 -8.5t14 -4q17 -2 34 -16t23 -29q1 -7 31 -27q20 -14 20 -31v-2l21 -40v-1v-2q0 -4 2 -10.5t4 -15.5q7 -20 14 -26q5 -5 5 -31q0 -8 -0.5 -18t-1.5 -22q3 -9 3 -26zM597 294q1 13 4 32t10 45q3 4 3 14v7q-1 3 -1 13q0 8 1 9q5 11 8 24t4 30q2 20 3.5 34t2.5 20
q1 3 1.5 6t0.5 8t-0.5 9.5t-1.5 9.5l-3 33q0 7 -1 17.5t-2.5 20t-4.5 16.5t-7 7q-4 10 -7 14q-3 5 -6 9.5t-6 4.5q-2 0 -5.5 3.5t-9.5 8.5q-12 16 -24 17.5t-22 7.5l-56 6q-1 1 -7 1q-12 0 -37 -6q-38 -6 -42 -13q0 -6 -37 -22q-17 -8 -27 -15t-11 -13q0 -2 -43 -72
q-42 -69 -51 -111q-9 -41 -18 -84q-17 -74 -18 -74q-2 0 -9 -60q-1 -8 -1.5 -15t-0.5 -14v-22v-14q0 -6 1 -8q1 -30 12 -90q5 -15 5 -16q2 -3 5.5 -6t6.5 -4q1 -1 4 -1q9 0 12 17q1 4 1 12v12q4 5 6.5 9t4.5 9q6 9 8.5 14t4.5 8t5 6.5t10 9.5l12 12t9 7q49 23 80 23
q23 0 29 -11l34 -34q22 -19 22 -43q1 -54 23 -54q5 0 12.5 7.5t18.5 20.5q0 4 13 23l17 23q2 0 5.5 6.5t6.5 14.5t6 15.5t4 9.5q8 20 19 49t24 67zM372 52q8 0 8 30q0 12 -1 28.5t-4 37.5q-2 24 -29 24q-20 0 -42 -12.5t-32 -27.5q-24 -38 -24 -64l18 -31q12 -25 19 -25
q9 0 21 -4.5t20 -4.5q12 0 23 8q2 1 5 6.5t9 14.5q10 17 10 19z" />
    <glyph glyph-name="R" unicode="R" horiz-adv-x="737" 
d="M769 206q-2 -14 -9 -48q-10 -21 -15 -41l-6 -12t-8.5 -16t-8.5 -14t-7 -6q-1 0 -8.5 -5.5t-20.5 -18.5l-29 -30q-6 -9 -37 -12q-50 -2 -71 3q-3 3 -27 14q-20 5 -27 35q-3 13 -3.5 25.5t0.5 24.5v12q0 6 2 12q0 22 4 22q4 17 8 35.5t8 38.5q0 4 0.5 12t1 17.5l1 19
t0.5 15.5q0 78 -57 83q-4 2 -16 3t-32 5q-14 2 -25.5 3.5t-21.5 1.5q-35 0 -47 -20q-5 -8 -8 -21.5t-7 -34.5q-4 -17 -8.5 -37t-11.5 -43q-1 -15 -3.5 -31t-4.5 -33q-16 -60 -13 -83q0 -5 4.5 -10.5t10.5 -11t10.5 -10t4.5 -7.5q2 -5 26 -8q17 -2 47 0q34 3 32 3
q15 0 15 -13q0 -14 -16 -19t-44 -1q-28 1 -40 0q-11 -2 -24 -3.5t-28 -1.5q-9 0 -24 1t-38 2q-41 3 -64 3q-2 -1 -17 -2t-42 -2q-35 -3 -57 0q-5 0 -14 7.5t-9 13.5q0 4 8 6q29 4 43 6t16 2q5 0 5 -4t5 -4q15 0 56 26q19 13 24 39q13 66 29.5 150.5t36.5 190.5
q33 165 36 165t6 26q2 10 2 15v8t1 8q2 6 -3.5 16.5t-5.5 15.5q1 6 -19 11q-5 2 -9 2.5t-6 1.5t-5 1q0 -4 -35 -2q-33 4 -39.5 10t-6.5 13q0 17 51 23q8 1 15 1.5t15 0.5h15.5t15.5 1q13 3 36 0q15 -1 23 -2t10 -1h91q4 0 13 1t18.5 1.5t19 1.5t15.5 1q13 -1 22 -1.5
t14 -0.5h10q11 0 23.5 -1t27.5 -3q20 -2 32 -3t20 -2t15 -3t18 -6q23 -8 32 -9q23 -5 43 -18t34 -32t21 -42t5 -48q-2 -21 -12 -43t-25.5 -42t-34.5 -36.5t-39 -25.5q-7 -2 -14 -5t-15 -7q-1 -2 -6.5 -3t-11.5 -1.5t-12 -1.5t-8 -3q-2 -4 -45 -11q-40 -6 -43 -14
q-2 -6 23 -20q13 -7 19.5 -11t8.5 -6l21 -21q9 -7 12 -12.5t4 -11t1.5 -12t4.5 -15.5q9 -20 8 -26q-2 -6 2 -19.5t2 -19.5q0 -5 1 -14.5t-1 -14.5q-1 -7 -1.5 -18.5t-1 -23.5t-1 -23.5t-2.5 -18.5q-4 -15 -1.5 -23.5t7.5 -12.5q28 -11 29 -11q6 0 11 5q6 4 13 9.5t16 15.5
q13 17 21.5 32t14.5 26q1 12 4.5 28t9.5 38t15 22q13 0 6 -28zM528 423l16 8t19 9q19 13 34 30t28 38q10 21 15 50q2 13 4 26.5t4 26.5q1 8 -2 19.5t-11 26.5q-14 29 -32 29q-34 23 -35 20q1 3 -50 3q-3 0 -10 0.5t-15.5 1t-16.5 1t-13 0.5q-64 0 -85 -35q-6 -12 -18 -80
q-2 -13 -6 -33.5t-9 -48.5q-6 -26 -8.5 -41t-2.5 -19q-5 -12 -5 -27q7 -19 53 -19q143 0 146 14z" />
    <glyph glyph-name="S" unicode="S" horiz-adv-x="638" 
d="M651 785q4 9 17 9q13 1 15 -6q4 -9 0 -28q-11 -45 -28 -113t-40 -162q-5 -23 -18 -23q-18 0 -15 23v9q0 5 -0.5 11.5t-1.5 14.5q-4 0 -8 34q-1 11 -2.5 20t-3.5 18q-6 12 -13.5 29.5t-15.5 40.5q-3 10 -25 29q-21 21 -30 21q-5 0 -12 4.5t-14 10.5t-13.5 10.5t-11.5 4.5
q1 0 -6 1t-22 5q-30 6 -45 6q-11 0 -13 -5l-8 -2l-8 -2q-9 -2 -13.5 -3.5t-6.5 -1.5q-13 0 -22.5 -10t-18.5 -19q-42 -31 -46 -51q-12 -55 -5 -88q0 -3 2.5 -8.5t6 -11.5t7 -10.5t5.5 -4.5q3 0 8 -5l10.5 -10.5l10.5 -10.5t8 -5q22 0 77 -28q58 -28 77 -30q6 -2 17 -5
t28 -11q33 -10 31 -20q-3 -5 27 -17q31 -9 28 -17q16 -11 29.5 -27t21.5 -46q9 -45 4 -73q-15 -75 -55 -134q-2 -1 -6 -5.5t-8.5 -9t-8.5 -8t-6 -3.5q-1 0 -3.5 -3t-5.5 -7t-5.5 -7.5l-2.5 -3.5q-6 -4 -14 -8.5t-18 -10.5q-18 -8 -35.5 -15t-34.5 -15q-2 -9 -47 -11h-25
q-6 0 -12 -0.5t-13 -1.5q-5 0 -14.5 1.5t-23.5 3.5q-31 4 -34 11q-2 7 -23 18q-11 6 -18.5 8.5t-12.5 3.5q-8 2 -16 7.5t-19 15.5q-24 27 -33 31.5t-15 4.5q-8 0 -28 -17q-7 -6 -12 -11.5t-9 -13.5q-4 -11 -10 -22.5t-16 -24.5q-25 -14 -29 -14q-8 0 -5 9q4 19 12 54t17 69
q12 44 9 65q0 13 10 52q3 17 9 41.5t14 58.5q2 17 23 17q3 0 2.5 -3t3.5 -14q2 -5 3 -6.5t1.5 -4t1 -8t2.5 -16.5q6 -41 4 -53q0 -2 1.5 -9.5t3.5 -16.5t4.5 -16.5t4.5 -9.5t4 -10t4.5 -17.5t6 -18t8.5 -11.5q2 -5 5 -11.5t9 -14.5q15 -15 18 -19q16 -28 68 -50
q57 -25 103 -25q6 1 11.5 1.5t10.5 0.5h10.5t10.5 1q9 0 30 9q23 12 24 16q2 2 5.5 6.5t11.5 11.5q7 7 11.5 10.5t7 5.5t4.5 5t5 10q6 17 12 17l2 6q1 3 2.5 6.5t3.5 8.5q9 21 9 25q-2 7 -2.5 17.5t-2.5 24.5q2 18 -9.5 36t-25.5 24q-2 0 -7 3.5t-10.5 7.5t-9.5 8t-4 5
q3 3 -15 9q-8 4 -12.5 6.5t-6.5 3.5q0 3 -30 15q-33 14 -37 14q-7 0 -17.5 4t-21 9t-20 9t-14.5 4q-26 3 -29 12q0 2 -4.5 5.5t-10.5 6.5t-11.5 5.5t-8.5 2.5q-4 0 -12.5 5t-23.5 14q-27 21 -27 24q1 7 -10 17q-10 10 -10 19q-4 7 -7.5 16t-6.5 22q-4 25 -0.5 50.5
t14.5 54.5t18 45t12 18q2 1 7.5 6t11.5 11l11 11l6 6q16 12 37 34q11 3 20 8.5t20 11.5q0 2 6 5t14 6.5t15.5 6.5t10.5 5q32 9 88 3q16 -4 28 -6t32 -8q9 -2 12.5 -3t5.5 -2.5t4 -3.5t7 -6q6 -5 9 -6t5.5 -2.5t6.5 -4t11 -9.5q7 -6 11.5 -10t5.5 -5q2 -1 5.5 -5.5t8 -10
t9 -10t9.5 -4.5q24 -1 36 14q1 2 3 5.5t4 8.5l14 39q4 4 9 8.5t10 11.5z" />
    <glyph glyph-name="T" unicode="T" horiz-adv-x="778" 
d="M835 771q-4 0 -38 -165q-4 -26 -11 -66t-20 -92q-6 -16 -23 -16q-13 0 -17.5 6.5t-8.5 29.5q5 14 8 34v16q0 9 1 13q4 13 -1 22.5t-3 29.5v29q-2 16 -9 32t-15 29t-15.5 22.5t-10.5 12.5q-17 20 -37 21q-2 0 -27 6q-19 3 -28 2q-9 -2 -15.5 -2.5t-12.5 -12.5
q-5 -12 -9.5 -27t-10.5 -33q-9 -36 -17.5 -76.5t-16.5 -85.5q-5 -26 -13 -66t-19 -94q-5 -26 -24 -111q-16 -65 -16 -114t46 -49q-1 0 8 -1t26 -3q31 -3 31 0q1 4 23 1q19 -1 24 -3.5t5 -13.5q0 -18 -10.5 -25t-30.5 -7q-6 0 -17 1l-22 2t-21 2t-14 1q-21 4 -69 0
q-6 -1 -16.5 -0.5t-21 2t-20 2.5t-13.5 1q-12 -1 -27 -1.5t-32 -0.5h-83q-5 0 -44 -3q-9 0 -16 3q-6 2 -11 5.5t-3 8.5q5 11 17 15q6 2 8 2q5 0 8 1q0 3 34 2q33 -3 37 3q5 5 21 5q21 -3 23 0q8 3 14.5 11t11.5 12q8 2 14 27q7 27 12 27q-2 0 0 33q3 17 4 27t3 12
q14 59 18 94q2 3 4 13l5 25q2 12 2.5 20.5l1 17t2 17.5t5.5 21q6 16 8.5 26t2.5 14q3 17 8 42.5t13 61.5q7 32 17 65q16 57 16 80q2 8 -6.5 13.5t-16.5 10.5q-33 0 -51 -3q-4 0 -12 -4.5t-10 -4.5q-35 0 -101 -75q-37 -40 -45 -77q-1 -7 -6.5 -18t-11.5 -22.5t-11.5 -22
t-7.5 -17.5q-1 -7 -4 -17.5l-7 -24.5q-5 -18 -29 -18q-15 0 -15 12q0 13 3.5 30t11.5 39q8 23 13.5 40t6.5 28q2 11 8.5 53.5t19.5 115.5q7 37 71 37h14h10.5t12.5 -1h42q13 0 28.5 -0.5t32.5 -1.5q22 -2 75 3q24 2 43.5 2.5t31.5 -0.5q5 -2 28.5 -1t68.5 2q14 -1 31 -0.5
t37 2.5q5 2 22 0q5 -1 9 -1.5t6 -0.5h6q12 1 21 1.5t15 0.5h15h28q14 0 19.5 -3.5t10.5 -16.5z" />
    <glyph glyph-name="U" unicode="U" horiz-adv-x="900" 
d="M605 63q-10 -5 -30.5 -16.5t-52.5 -31.5q-3 -11 -45 -15q-11 -2 -21 -3.5t-21 -2.5q-2 -5 -20 -5q-19 0 -61 6q-20 2 -30 3.5t-9 1.5q-7 0 -16.5 4.5t-19.5 9.5l-19 9.5t-15 4.5q-29 0 -54 60q-20 51 -20 80v10q0 7 1 10l10 69q9 65 13 65l34 149q6 26 11 52t11 52
q8 34 11.5 59.5t3.5 42.5q0 28 -14 48q-2 6 -40 9q-5 1 -15 1h-11h-9l-15 6q-6 2 -11 5t-5 5q-2 37 34 38h154q11 1 25.5 1.5t31.5 0.5h38t45 1q3 0 10.5 1t20.5 2q23 3 30 2q6 -2 10 -2.5t6 -2.5q5 -1 7 -4l4 -6q5 -17 0 -25q-8 -8 -17 -20q0 -4 -51 -2q-26 2 -40.5 1
t-18.5 -2q-18 -6 -32 -26t-23 -56q-8 -51 -24 -124.5t-41 -173.5q-15 -49 -22.5 -90t-9.5 -75q-2 -66 3 -66q7 0 29 -49q15 -30 94 -42q24 -2 54 0q7 0 20 3.5t26.5 8.5t25.5 11t17 11q14 13 25.5 23.5t20.5 18.5q21 15 39 70q6 14 10.5 32.5t9.5 40.5q7 32 10.5 49.5
t4.5 21.5q6 30 16 75t24 105q4 20 10 49t16 67q3 11 4 22.5t1 24.5q0 39 -15 50q-4 2 -12 5.5t-21 8.5q-15 6 -26 8.5t-17 2.5t-6 -3q-2 -8 -28 18q-4 4 -4 11q0 9 13.5 17t26.5 8h12h13t18 1q39 3 61 3h16h9t8 -1h52h62q9 0 23.5 -2.5t22.5 -2.5q14 0 14 -20q0 -8 -2 -13
t-9.5 -8.5t-21 -5.5t-37.5 -4q-9 -1 -19.5 -4.5t-21.5 -7.5q-12 -2 -32 -32q-5 -8 -9 -13t-6 -9q-2 -2 -3 -3.5t-2 -3.5q-7 0 -36 -128l-32 -162q-30 -140 -32 -140l-24 -80q-5 -9 -16.5 -23.5t-24.5 -33.5q-1 -1 -5.5 -6.5t-10 -12t-10 -11.5t-6.5 -5z" />
    <glyph glyph-name="V" unicode="V" horiz-adv-x="886" 
d="M948 748q2 0 -1.5 -3.5t-10 -8t-14.5 -8.5t-14 -6q-32 -10 -53 -18t-30 -13q-3 -2 -6.5 -4t-9 -5.5t-13 -11t-19.5 -21.5q-22 -25 -25 -38q0 -5 -20 -34q-17 -29 -23 -29q-5 0 -24 -40q-11 -20 -16.5 -31.5t-6.5 -14.5l-6.5 -13t-15.5 -24q-19 -31 -20 -31q-6 0 -22 -34
q-15 -32 -20 -32q-3 0 -33 -60l-8 -12t-9 -11q-17 -20 -13 -20q-9 0 -46 -85q-28 -64 -41 -72q-13 -5 -23 -36q-13 -31 -24.5 -37.5t-20.5 -6.5q-13 0 -20 18q-2 2 -2 10v9t-1 12q-3 28 -6 28t-3 27v36q-1 5 -2.5 7t-2.5 3.5t-2 5.5t-1 14v20q0 8 -4.5 20.5t-3.5 18.5
q3 16 0 40q5 0 -10 37q2 9 0 21t-4.5 24.5t-4 24t0.5 19.5l-6 12q-2 5 -5 11t-5 12q-1 6 -2 24t1 47q0 8 -1 16t-2 15q-4 11 -5 18.5t-3 10.5q-9 65 -6 83q5 22 -5 40q-5 8 -10 17t-10 17q-5 11 -52 14q-45 3 -45 18q0 6 4 13q13 30 56 34q3 1 70 0q17 0 39 -1t51 -2
q28 1 76 0q15 -5 46 -2q37 3 45 3q17 -2 17 -23q0 -12 -3.5 -18.5t-13.5 -10.5t-27.5 -5t-45.5 -1q-46 0 -44 6q-4 -5 -7.5 -10t-6.5 -10q-2 -2 -3 -8t-5 -17q-6 -20 -3 -20q5 0 9 -43q4 -21 5 -34.5t1 -19.5v-11q0 -6 0.5 -15.5t1.5 -22.5q2 -6 5.5 -17t3.5 -17
q-1 -5 -1 -14q0 -4 -2 -14q-2 -12 3 -24v-7q0 -3 0.5 -7.5t1.5 -11.5q2 -26 4 -26q13 0 8 -65q0 -6 5.5 -16.5t5.5 -15.5q0 2 -1 -5t-2 -22q-3 -14 4 -23q2 -3 3 -7.5t4 -10.5q8 -5 13 -5q17 0 22 17q6 11 11.5 21.5t11.5 21.5q19 28 28.5 44t11.5 19q3 10 12 27
q6 15 9.5 23t4.5 12q11 17 29 25q2 0 10 20q6 21 7 21q-2 0 1.5 5t8 12t9.5 13t7 9q12 11 24 49q2 3 5.5 9.5t8 13.5t8.5 12.5t7 5.5q5 0 12 37q4 20 6 31.5t2 14.5q-2 6 -9.5 15.5t-9.5 15.5q0 8 -17 8q0 2 -29 8q-9 2 -17.5 3t-15 4t-11 9.5t-4.5 18.5q0 15 13 15
q1 0 13 5t18 5q5 1 18 1h29q4 0 12.5 1t23.5 2q22 3 33 0h35h22.5t24.5 -1q5 -1 14 -0.5t18.5 1.5t18 2t12.5 1q13 0 20 -3t20 -8q8 -6 8 -26q0 -4 -3 -4z" />
    <glyph glyph-name="W" unicode="W" horiz-adv-x="1177" 
d="M495 740q-5 0 -19 -5.5t-22 -5.5q-4 0 -10 2.5t-7 2.5q-34 0 -49 -32q-5 -13 -5 -19q0 -5 2 -15t4 -21t4 -21t2 -15q-1 -13 0.5 -32t7.5 -45t7.5 -44.5t0.5 -31.5q-2 -5 0 -27.5t6 -64.5q7 -81 11 -81q3 0 3 -31q2 -23 14 -23q18 -3 33 40q16 43 22 43q5 0 17 34
q7 8 15 18.5t16 24.5q1 1 15 37q-3 0 20 41q6 6 12.5 16.5t12.5 32.5q6 27 15 33q9 5 20 38q8 0 8 17q0 6 -1 13.5l-2 15t-2 13t-1 6.5q2 10 0 23t-7 24t-13.5 19t-19.5 9q-21 -2 -59 3q-3 2 -8.5 12.5t-5.5 15.5q0 3 2 3q6 8 14 15t32 7q45 1 87.5 2t84.5 -1q8 -1 16 -1h17
h41h39q23 -3 23 -20q-3 -37 -40 -37h-14q-13 0 -27.5 -1.5t-20.5 -1.5q-24 0 -24 -56q0 -29 7 -29q3 -85 5 -85q3 0 6 -35q1 -5 1.5 -11t0.5 -11v-10.5t1 -10.5v-16q0 -5 2 -15q2 -29 4 -29q3 0 3 -25q3 -26 6 -27q5 -2 5 -40q3 -39 8 -39q1 -8 2 -17.5t2 -20.5q3 -16 8 -16
q2 0 5.5 4t7 8.5t7 8.5t5.5 4q-3 0 32 72q13 33 42 96q8 11 16 27.5t19 36.5q0 6 4.5 15.5t10.5 19t11 17.5t6 13q6 8 12.5 20t13.5 29q4 11 8 28t9 41q3 21 -15 37q-1 1 -5.5 3.5t-9.5 5.5q-5 4 -13 7q0 3 -37 4q-37 3 -37 25q0 8 7 21q6 15 84 13q17 2 38.5 2.5t50.5 -1.5
q3 -1 13 -1q5 0 10.5 -0.5t13.5 -1.5q32 -2 34 2l65 -3q29 -3 29 -28q0 -12 -6.5 -18.5t-16.5 -10.5t-21.5 -5t-21.5 -1q-46 -3 -71 -40q-11 -11 -22.5 -28t-26.5 -42q-2 -5 -6 -13t-11 -19q-4 0 -25 -37q-11 -19 -16 -28.5t-7 -11.5t-17 -37q-5 -17 -9.5 -25.5t-5.5 -8.5
q-3 0 -26 -44q-11 -23 -17.5 -37.5t-8.5 -19.5q-6 -15 -17.5 -38t-30.5 -53q-17 -30 -29 -53t-17 -39l-10.5 -21t-17.5 -30t-17 -30t-8 -24q-2 -13 -26 -37q-20 -24 -35 -24q-13 0 -15 38q-1 7 -1.5 13t-0.5 12v26q-4 24 -5 48t0 50q0 2 -2.5 19.5t-7.5 53.5q-11 66 -5 66
q-4 0 -8 37q-1 20 -2 30.5t1 13.5q2 6 1 17t-2.5 22.5t-3 22.5t-0.5 18q1 5 0.5 14t-3 18t-6 15.5t-8.5 6.5q-13 0 -26 -43q-10 -27 -40 -75q-15 -25 -25 -42.5t-13 -30.5q-8 -21 -45 -89q-4 0 -25 -41q-9 -20 -13.5 -31.5t-6.5 -15.5q-1 -2 -6.5 -13.5t-16.5 -33.5
q-19 -43 -18 -43q2 0 -20 -37q-12 -17 -19.5 -27t-12.5 -12q-7 -4 -13 -4q-17 0 -17 30q0 31 -6 31q3 0 -1 42q-3 40 -3 43q1 7 -0.5 17.5t-6.5 25.5q-3 15 -4.5 26t0.5 17q2 7 1 16t-3 18.5t-3.5 18t-0.5 13.5q4 19 -8 77q-9 39 -6 85q1 40 0 40q-5 0 -8 26q-2 26 2 26
q-1 5 -1 10t-1 11q-2 21 -6 60q-9 54 -9 59q1 6 -8 26t-14 20q-1 0 -10 1.5t-24 3.5t-25.5 3t-15.5 1q-8 0 -8 -1q-8 2 -13 4t-7 3q-18 7 -18 14q0 25 13 25q30 16 30 12q0 3 84 2q20 -1 36.5 -1.5t28.5 -0.5h20t12 -1q74 -8 128 1q14 2 23 -9t9 -25q0 -15 -14 -15z" />
    <glyph glyph-name="X" unicode="X" horiz-adv-x="888" 
d="M565 762q3 -4 5 -6.5t2 -6.5q0 -14 -55 -24q-61 -12 -63 -14q-9 -8 -9 -20q0 -5 3 -14.5l6 -19t6 -18.5t3 -13q2 -3 4 -13t7 -27q8 -5 10.5 -17.5t6.5 -16.5q0 -1 14 -29q11 -26 13 -26q4 0 13 -6q8 -8 17 -3q8 1 12.5 5.5t5.5 6.5q6 4 11 9l11 11q16 22 18 22q8 6 23 27
q6 5 12.5 11.5t12.5 14.5q0 3 4.5 7.5t10 9t10 9t4.5 7.5q2 3 3 9t5 17q6 16 6 24q0 14 -10 25t-33 17q-15 0 -49 8q-11 6 -11 14q0 6 6 11.5t14.5 9t18 5.5t16.5 1h168q2 0 10.5 0.5t19 1t21.5 1t18 0.5q65 0 65 -26q0 -8 -6 -18q-25 -8 -52 -15.5t-56 -17.5
q-67 -34 -94 -60q-11 -8 -21.5 -19.5t-21.5 -26.5q-12 -15 -21 -23.5t-13 -10.5q-7 -7 -17.5 -17t-25.5 -23q-8 -5 -17 -14t-18 -19q-2 -7 -20 -28q-15 0 -10 -42q3 -29 19 -49q24 -32 21 -41q0 -2 1.5 -7t3.5 -10t4.5 -9t4.5 -4q-5 0 6 -17q6 -8 8.5 -12.5t2.5 -2.5
q0 -6 5.5 -24t19.5 -50q7 -7 14 -31l9 -33q10 -33 57 -62q12 -7 32 -9q15 -2 24 -2.5t12 -2.5q19 -4 15 -20q-3 -7 -19 -14q-2 -1 -7 -1h-6l-48 3q-46 0 -49 -3l-136 3q-133 2 -137 4l-2 4t-1 4q0 8 13 13.5t23 5.5h18q5 0 11.5 -0.5t14.5 -1.5q6 0 17.5 6t15.5 6
q15 0 21 27q4 22 0 38q-5 8 -10.5 19.5t-12.5 26.5q-9 30 -15 49.5t-10 27.5q-8 22 -16 39t-19 30q-7 10 -17 10q-15 0 -40 -27q-8 -10 -17 -20t-17 -21q-24 -30 -30 -32q-15 -7 -28 -25q-6 -6 -12 -12.5t-13 -13.5q-1 -8 -11 -19t-12 -15q-10 -15 -8 -31q1 -4 1.5 -7
t0.5 -7t2 -12q0 -23 24 -29q11 -2 21 -3.5t21 -2.5q10 0 37 -8q6 -3 6 -6q0 -7 -51 -19q-10 -2 -25.5 -3t-36.5 -1q-12 1 -21.5 1h-17.5h-22q-77 -6 -131 0h-25q-7 0 -15 0.5t-18 1.5q-20 0 -20 17q0 8 10 15q23 6 47.5 13t48.5 15q0 2 4.5 3.5t9.5 3t9.5 3.5t4.5 4q1 1 7 5
t17 10q13 7 19.5 11t8.5 6q21 12 43 34q16 15 31 30.5t30 30.5q3 0 10 5t14 12t14 14.5t10 11.5q4 5 14 15.5t26 27.5q16 15 45 45q5 7 9.5 19.5t5.5 29.5q0 8 -15 25q-2 0 -5.5 9t-11.5 26q-7 17 -10.5 27.5t-5.5 14.5q-7 23 -18 43t-25 48q-3 3 -5.5 15t-6.5 15
q-1 8 -3.5 15t-5.5 15q-2 0 -4 5t-4.5 11t-4.5 11t-4 5q-4 0 -34 37q-4 3 -11 5.5t-18 2.5h-22q-10 -2 -12 -2h-8q-40 0 -32 29q7 31 83 31q30 0 83 -6q27 -2 42.5 -3.5t20.5 -1.5q11 0 11 3q155 0 165 -10z" />
    <glyph glyph-name="Y" unicode="Y" horiz-adv-x="843" 
d="M902 743q5 -13 -6 -23.5t-25 -10.5q-60 -1 -94 -35q-11 -12 -24.5 -24.5t-32.5 -27.5q-2 -2 -8 -9t-17 -21q-18 -26 -21 -26q-9 0 -25 -28l-13 -19.5t-8 -9.5q-5 -1 -13 -18q-3 -7 -5.5 -10.5t-5 -6t-5.5 -6t-7 -11.5q-6 -14 -10 -14q-8 0 -25 -29q-17 -30 -20 -31
q-17 -8 -33.5 -30.5t-31.5 -64.5q-5 -15 -10 -34t-8 -42q-12 -71 -12 -74q-3 -12 -4.5 -21t-3.5 -15q-1 -5 -3 -13q0 -3 1 -4q-1 0 -1 -2q0 -3 3.5 -8.5l7 -11t7 -8.5t3.5 -1q-2 -9 43 -9q7 1 13 1h12h25q29 -2 29 -18q0 -26 -40 -26q-19 0 -59 3l-30 1q-7 1 -13.5 1.5
t-13.5 0.5h-26q-13 -1 -22.5 -1.5t-16.5 -0.5q-14 0 -15 -1q-4 1 -8 1h-8q-6 0 -16 2h-31q-8 0 -16 -0.5t-16 -1.5q-36 0 -40 2h-43h-2q-2 0 -4 0.5t-5 0.5q-5 0 -7 2q0 3 1 10.5t9 9.5q7 34 43 34q33 0 74 -23q37 13 48 43q4 15 8 30.5t7 32.5q8 29 15 65.5t15 81.5
q0 4 -2 10.5t-5 13.5t-5 12.5t-2 6.5q1 14 -8 28q-5 6 -7.5 19.5t-6.5 17.5q-1 2 -2 9t-2 19q0 5 -1.5 6.5t-3.5 5t-4.5 11t-4.5 23.5q-4 31 -10 31q-4 0 -10 29q-8 29 -10 29q-1 0 -7 29q-7 31 -11 33q-12 6 -18 38q-6 34 -24 39q-5 2 -14.5 2.5t-19.5 0t-19 -1t-14 -0.5
q-8 4 -15 6t-5 10q0 15 4 20t19 10q26 2 51.5 -0.5t57.5 -2.5h78q20 0 40.5 0.5t40.5 1.5h41q43 1 43 3q6 -4 14 -23q-3 -19 -28 -20q-2 0 -10 0.5t-18 1l-20 1t-16 0.5q-49 0 -56 -22q-4 -10 -3 -26q1 -5 1.5 -9t0.5 -7q0 -8 1 -13.5t6 -13.5q11 -12 8 -18q0 -6 16 -37
q7 -14 10 -25t3 -15q0 -9 4 -21.5t8.5 -25.5t9 -24.5t5.5 -19.5q0 -7 9 -32t12 -25q5 0 9.5 -2.5t9.5 -2.5q1 2 5 4.5t10 8.5q-1 0 14 15q3 4 7.5 7t7.5 7q3 13 34 51q17 18 26 29.5t11 16.5q11 11 31 37q47 85 47 111q0 5 -2.5 5.5t-10.5 15.5l-8 15q-6 10 -34 13
q-11 0 -20 1t-18 5q0 1 -5 6.5t-5 8.5q0 5 8 13q1 3 23 6q26 5 68 3q8 -1 15.5 -1h12.5h11t9 -1q5 -1 9 -1h7q6 0 68 3q17 1 32 2t27 1q0 3 4 3t10 -2t12 -4.5t10 -5.5t4 -5z" />
    <glyph glyph-name="Z" unicode="Z" horiz-adv-x="740" 
d="M745 682q-18 -23 -37 -42.5t-35 -33.5t-26.5 -23t-11.5 -12q-1 -6 -12.5 -15.5t-14.5 -15.5q-2 -6 -9 -14t-17 -21q-2 -3 -7 -8.5t-11 -11t-11.5 -9.5t-7.5 -4q-6 0 -27 -27q-19 -29 -26 -31q-5 -7 -13.5 -16t-21.5 -20q-23 -10 -37 -36q-6 -8 -12.5 -15t-12.5 -15
q-3 0 -29 -26q-16 -16 -29 -32q-13 -15 -33.5 -36t-48.5 -49q-20 -18 -31 -29.5t-13 -14.5q-14 -13 -33 -40q-5 -5 -10.5 -12t-13.5 -18q-5 -8 -5 -12q0 -11 26 -11q10 0 23 1.5t14 1.5h25q8 0 16.5 0.5t18.5 1.5q21 1 36 2t26 1q85 0 114 18q11 6 24.5 15t32.5 22
q4 3 9.5 7.5t13.5 9.5q2 4 4.5 7.5t5.5 6.5q8 8 18.5 21.5t25.5 32.5q6 0 26 38q10 17 16 28t9.5 18.5t6 13t5.5 11.5q-5 0 9 26q13 28 24 28q13 0 13 -29q0 -18 -9 -48q-6 -17 -8.5 -28.5t-4.5 -17.5q-5 -42 -13.5 -84.5t-21.5 -87.5q-10 -43 -69 -43h-14h-8t-8 1
q-20 3 -137 3h-54q-16 0 -35 0.5t-41 1.5h-133h-18q-5 0 -12.5 -0.5t-15.5 -1.5q-29 -2 -44 0q-21 0 -43 5q-10 1 -10 9q0 9 37 49q6 8 14.5 18t21.5 21q1 1 6.5 5.5t13.5 15.5q19 22 20 22q10 0 35 31q26 32 34 35q9 5 15 17.5t11 16.5q24 17 32 37q7 15 37 35
q15 12 24.5 21.5t12.5 17.5q2 1 11 11t26 29q12 0 35 38q3 5 11 13l17 17t16.5 18t9.5 15q10 15 33 31q25 21 27 29q3 9 22 22q9 7 13.5 12.5t6.5 8.5q8 6 17 15.5t26 29.5q37 37 37 52q0 16 -65 16q-139 0 -141 -5q1 1 -2 1q-14 0 -84 -40q-10 0 -36 -26
q-13 -13 -20.5 -22.5t-8.5 -15.5q-2 -6 -6.5 -16t-15.5 -24q-9 -13 -14.5 -23t-6.5 -17q-3 -3 -19 -46q-3 -8 -9 -15t-14 -15q-13 -1 -17 1.5t-3 15.5q5 45 14 88t23 86q4 17 8 35t9 36q16 37 56 37h28h19.5t21.5 1h69h68q41 -2 67 0q8 -1 17 -1h20h51q8 0 25.5 3t26.5 3
q4 -1 18 -1q6 0 14 -0.5t18 -1.5q7 -1 13.5 -1.5t12.5 -0.5q20 0 30.5 -1t10.5 -9q0 -12 -20 -37q-7 -8 -13.5 -15t-13.5 -14z" />
    <glyph glyph-name="bracketleft" unicode="[" horiz-adv-x="412" 
d="M428 820l-22 -2l-3 -4q0 -1 -5 -3l-9 3q-4 -2 -9 -2h-7.5t-9.5 -1l-21 -3h-4l-4 -5h-6l-5 -5l-5 -3l-1 -6h-3l-5 -15h-1l-2 -8h-3l-1 -4l-147 -705q-4 -13 -4 -26q0 -18 14 -23q9 -3 40 -3q18 0 25.5 -7t17.5 -15q-5 -21 -14 -26h-11q-8 -8 -15 -9q-15 7 -28 7h-28h-6
l2 2q-8 0 -18.5 2.5t-15.5 2.5v-4l-11 -1v-2q-3 -3 -21 2l-7 -2q-4 2 -7 2h-5q-4 0 -12 -0.5t-16 -1.5t-15 -1.5t-8 -1.5q2 8 5.5 18t7.5 24q0 9 1 22t3 30l160 776h3l2 12l28 28h23h21t26 1q55 3 85 0q44 0 65 -3l-4 -23z" />
    <glyph glyph-name="backslash" unicode="\" horiz-adv-x="714" 
d="M751 63q0 -9 -11 -29q-20 -23 -46 -23q-8 0 -9 4q-11 12 -25 29t-34 39q-24 45 -50.5 91.5t-55.5 97.5q-2 4 -42.5 70t-119.5 201q-78 135 -117 202t-41 70q-4 6 -9 14.5t-13 19.5q0 10 -1 21.5t-3 26.5q-5 13 8 19.5t30 6.5q15 0 23 -6t23 -20q54 -96 109 -192.5
t115 -198.5q54 -90 110.5 -183t119.5 -195q6 -8 12.5 -15t13.5 -15q17 -21 13 -35z" />
    <glyph glyph-name="bracketright" unicode="]" horiz-adv-x="411" 
d="M269 46q-3 -9 -7 -22t-10 -30q0 -7 -1 -17.5t-3 -24.5q-6 2 -23 3.5t-27 1.5h-5q-2 0 -8 -2l-7 2q-20 -5 -20 -2v2l-9 1v4h-1h-7t-13 1q-12 0 -14 -8h-5h-29q-13 0 -31 -7q-5 1 -12 9h-9q-8 5 -3 26q13 8 23 15t29 7q37 0 48 6q8 5 14.5 16t9.5 30l9 45l144 664h-2l2 8
h-4l2 15h-2l2 6l-5 3l-1 5h-8l-1 5h-3l-20 3q-6 0 -27 3l-10 -3q1 1 0 1q-2 2 -3 2l-2 4l-20 2l-3 17l6 23q21 3 68 3q30 3 83 0q14 -1 26 -1h21h24q6 -16 15 -28l-3 -12h1l-1 -8z" />
    <glyph glyph-name="asciicircum" unicode="^" horiz-adv-x="746" 
d="M798 1002q0 -5 -3 -12.5t-7.5 -14t-10.5 -11t-11 -4.5q-1 0 -2.5 1t-3.5 2q-28 7 -77 35q-14 20 -28.5 40.5t-31.5 43.5q-27 24 -60 60q-6 4 -14 18l-19.5 -19.5t-23.5 -22.5q-24 -22 -43.5 -38t-33.5 -28q-26 -24 -54 -51t-60 -56q-9 -11 -19 -21t-21 -10q-10 0 -20 6
t-10 15q0 6 3 8q3 8 8 17.5t13 22.5q8 5 28 26q4 4 51 48q23 22 36.5 34t17.5 15q16 17 34.5 35t40.5 39q7 6 17 13.5t24 18.5q4 10 10.5 17t14.5 13q4 1 10.5 2t14.5 2q13 0 23 -15t20 -28q14 -11 30.5 -26t36.5 -35q45 -51 96 -111q1 -1 4.5 -4t10.5 -10q9 -8 9 -15z" />
    <glyph glyph-name="underscore" unicode="_" horiz-adv-x="388" 
d="M365 51q-1 -6 -4 -14.5t-7.5 -16t-10.5 -13t-12 -5.5h-17q-13 0 -33.5 -0.5t-49.5 -1.5h-46h-47q-45 0 -43 -2q-10 2 -19 2q-5 0 -11 0.5t-13 1.5q-6 4 -15 8.5t-17.5 9t-13.5 8.5t-3 6q0 6 4.5 14t11.5 14.5t15 11t15 4.5q5 0 17.5 3.5t18.5 3.5q8 0 24.5 -2.5
t25.5 -2.5q6 0 22.5 1t45.5 2q13 1 24 1.5t19 0.5h25h10h9t10 1q20 3 31 0q16 -2 21 -9q13 -17 13 -26z" />
    <glyph glyph-name="grave" unicode="`" horiz-adv-x="538" 
d="M577 606q-20 -24 -45 -24q-23 0 -45 11.5t-44 20.5v9q-1 4 -11 -1q-3 1 -9 7q-2 8 -100 51l-3 9q-19 11 -35 18t-30 13l-6 8q-17 0 -46 29q-31 31 -34 46q-2 4 -4 43q3 5 9.5 16.5t17.5 28.5q12 18 51 43q21 1 32 9q10 -4 23 -8t30 -9q6 3 9 3q12 0 26 -32l20 -8
q7 -6 9 -17l10 -9l3 -14l13 -3q8 -11 16.5 -26t19.5 -35q11 -9 12 -19q11 -11 24.5 -27t31.5 -41q39 -53 43 -73q3 -4 6.5 -8.5t5.5 -10.5z" />
    <glyph glyph-name="a" unicode="a" horiz-adv-x="468" 
d="M489 208q3 -5 3 -10t-3.5 -13.5t-7 -17.5t-7 -17t-3.5 -12t-3 -10.5t-7 -14t-7 -15t-3 -12.5q0 -2 -4 -8.5t-10 -14t-11.5 -14t-8.5 -9.5q-22 -20 -37 -29t-23 -11q-39 -3 -59 17q-8 13 -13 23t-7 17q-6 14 -15 14q-5 0 -10.5 -6.5t-11.5 -14t-12 -13.5t-11 -6
q-1 0 -5 -2.5t-8.5 -6t-8 -6t-4.5 -2.5q-10 -7 -34 -9q-49 -7 -49 0q-11 8 -23 16.5t-23 16.5q-2 1 -6 5.5t-7.5 10.5t-7 11.5t-4.5 8.5q-5 11 -8 19.5t-5 14.5q-4 18 -6 37.5t-4 39.5q0 55 17 104q11 30 11 26q0 3 3.5 8.5t8 11t8.5 9.5t5 4q11 16 16.5 25.5t9.5 11.5
l11 11t20 21q18 21 33 28q3 2 10.5 6.5l15 9t13 8t5.5 5.5t4 4l8 4q6 4 8 5t3 3t3.5 3.5t7.5 3t15 1.5q9 0 24 -2t19 -2q15 0 31 -16q9 -9 24 -9q5 0 14.5 2t19.5 5t19 5t13 2q37 0 37 -41q0 -19 -20 -64q-20 -40 -20 -56q0 -8 -5.5 -32t-17.5 -67q-21 -85 -27 -85t-11 -35
q-3 -36 0 -38q6 -10 14 -10q10 0 26 28q17 29 21 29l23 56q25 55 40 55q8 0 14 -15zM323 372q0 73 -69 66q-37 -1 -79 -78q-3 -9 -6.5 -18.5t-6.5 -19.5q-12 -30 -17 -30q-2 0 -5.5 -6t-6.5 -13.5t-5.5 -14.5t-2.5 -10q-3 -24 -10 -31q-13 -25 -13 -59q0 -66 4 -66
q8 -15 14 -22.5t8 -9.5q4 -2 24 -5q23 -2 23 3q0 7 45 40q6 6 16 20.5t10 21.5q0 1 8 12q3 6 5.5 10t3.5 6q2 2 7.5 15t17.5 37q18 39 18 49q0 12 11 39q4 11 5 26.5t1 37.5z" />
    <glyph glyph-name="b" unicode="b" horiz-adv-x="394" 
d="M420 312v-7q0 -3 0.5 -7.5t1.5 -11.5q1 -28 0 -28q1 0 1 -3q0 -7 -14 -49t-14 -41q0 -3 -3 -9.5t-7 -13t-8.5 -13t-7.5 -9.5q-7 -8 -11.5 -15t-8.5 -13l-37 -37q-13 -10 -23 -17t-20 -10q-5 -4 -17.5 -12t-20.5 -10q-42 -9 -42 -14q0 -6 -24 -6q-56 0 -71 12
q-6 4 -12.5 8t-13.5 8q-19 12 -19 21q0 3 -3.5 7.5t-8 9.5t-8 9.5t-3.5 6.5q0 5 -3 13t-5 11q-1 17 -2 27t-1 15q0 4 1 12t1.5 17t1.5 17.5t1 13.5t3.5 15t8 20.5t8 20.5t3.5 15q7 31 12.5 54t10.5 38q21 85 22 85q4 0 10 33q10 31 10 40q0 6 3 15.5t6 19.5t6 19.5t3 15.5
q0 5 4.5 18.5t4.5 19.5q0 37 -29 54q-11 1 -24 0q-5 -1 -9 -1.5t-7 -0.5h-8q-10 0 -22.5 5.5t-12.5 14.5t12 17t20 10q6 0 15.5 -1.5t20 -3t20 -2t15.5 1.5q13 1 38.5 3t67.5 3q0 1 8 -5.5t8 -9.5q1 -6 2 -14t-1 -16q-1 -5 -4 -15.5t-3 -16.5t-8 -19t-8 -21q0 2 -3 -8
t-11 -33q-4 0 -14 -34q-3 -17 -5 -27t-2 -15q0 -8 -6 -29q-6 -20 -8 -28.5t-3 -14.5q-3 -17 -3 -22q0 -6 3 -6q1 0 3 2q12 11 21 17q16 13 16 18q0 3 5.5 8.5t13 10.5t14.5 9t10 4q17 5 30 8t21 5q8 1 19 -3.5t16 -4.5q7 -2 16 -8.5t16.5 -14.5t13.5 -17.5t8 -16.5
q4 -11 6.5 -20t5.5 -18q6 -20 9.5 -32t3.5 -18t-2 -6zM355 340q0 35 -12 58q-16 31 -41 31q-17 0 -24 -9q-12 -7 -27 -5q-15 -6 -34 -29q-11 -15 -18.5 -23.5t-9.5 -10.5q-5 -2 -18 -30l-5.5 -11l-4.5 -9q-1 -2 -2 -3.5t-2 -3.5q-3 0 -20 -35q-13 -33 -15 -43q0 -5 -16 -46
q-9 -29 -9 -49q0 -4 -2.5 -13t-2.5 -15q4 -9 6 -15t4 -10q7 -12 11.5 -20t10 -13t13.5 -7.5t21 -2.5q23 0 37 6q2 0 6.5 4t9.5 8.5t9 8.5t5 4q8 0 24 28q15 24 19 38q9 20 17 34t13 23q3 3 34 78q11 25 16.5 45t6.5 37z" />
    <glyph glyph-name="c" unicode="c" horiz-adv-x="355" 
d="M334 462q0 2 24 -20q10 -10 22 -37q8 -17 0 -62q-4 -19 -15.5 -31t-26.5 -12q-10 0 -46 17q-10 4 -10 17q0 21 24 48q6 4 9 7q8 8 8 9q0 11 -3 19q0 2 -14 11q0 2 -32 4q-32 0 -32 -7q0 -1 -3.5 -3.5t-8 -5.5t-9 -5t-7.5 -2q-5 0 -20 -15q-5 -5 -8.5 -9t-5.5 -7t-5 -6
q-18 -14 -26 -35q0 -1 -2.5 -5.5t-5 -10l-5 -11t-2.5 -7.5t-4.5 -17t-15.5 -44q-5 -14 -9 -25t-6 -18q-4 -10 -5 -14q-6 0 -6 -28q0 -18 3 -51q1 -4 1 -7.5v-6.5q0 -6 1 -9t1 -8t4.5 -13.5t6.5 -13.5q0 -2 4.5 -6t10.5 -7.5t10.5 -6t4.5 -0.5q0 -8 34 -8q9 0 24.5 5.5
t21.5 5.5q9 0 31 20q25 21 25 29q57 106 69 106q7 0 9 -24q3 -22 -11 -33q-2 -1 -4.5 -6.5t-5 -11.5t-5 -11.5t-5.5 -7.5q-14 -6 -21 -34q-4 -8 -17 -19t-17 -16q-1 -2 -5.5 -5.5t-9.5 -6.5q-11 -8 -15 -8q-2 0 -19 -5q-13 -6 -16 -9q-4 -7 -23 -7q-15 0 -67 12
q-16 3 -32 13.5t-29 25t-22 31.5t-11 33q-2 9 -4 18.5t-4 19.5q-6 37 -6 50q0 6 2 6q1 0 10 37q3 10 5 17t4 12q2 6 2 9q2 4 7.5 12.5t11.5 18.5t11 19.5t5 15.5q0 5 8 14t14 9t18 17q12 19 16 19q5 0 52 38q3 6 11.5 11.5t18 10t19 8t14.5 6.5q16 5 19.5 6t6.5 1h7
q33 0 72 -10z" />
    <glyph glyph-name="d" unicode="d" horiz-adv-x="478" 
d="M506 711q6 1 6 -11q0 -17 -3.5 -36t-11.5 -41q-11 -26 -15.5 -43t-4.5 -23q-5 -20 -9.5 -36t-10.5 -27q-4 -17 -7 -31t-5 -25q0 -4 -2.5 -11.5t-6 -16t-6 -17.5t-2.5 -15q0 -3 -2 -8.5t-4.5 -12.5t-4.5 -13t-2 -9q-3 -15 -6 -25.5t-4 -18.5q-2 -5 -4 -14.5t-6 -24.5
q-6 -27 -10 -27q-5 0 -20 -57q-17 -59 -17 -65q-4 -20 -6.5 -34.5t-4.5 -25.5q-3 -23 11 -23q3 0 12.5 2.5t14.5 2.5q11 0 34 32q25 29 28 46q1 6 18 35q-1 0 7 20q9 21 9 24q0 10 15 10q2 0 5 -3q7 -11 7 -18q0 -3 -3 -3q-2 -6 -4 -10.5t-4 -8.5l-2 -6q-1 -4 -4 -8
q-2 -4 -4.5 -9.5t-7.5 -13.5q-7 -15 -10.5 -22t-4.5 -8q-3 -17 -20 -42q-8 -9 -15.5 -18t-15.5 -17q-20 -23 -37 -26t-24 -4q-10 0 -20 7q-5 2 -8.5 2t-6.5 1.5t-5.5 5t-6.5 12.5q-6 17 -10 17q-5 0 -11 32q-4 34 -14 34q-2 0 -5.5 -5.5t-6.5 -11.5t-6 -11.5t-5 -5.5t-6 -6
t-8.5 -12.5t-8.5 -12.5t-6 -6t-7.5 -2.5t-11.5 -6.5t-10.5 -7.5t-4.5 -4.5q-3 -5 -19 -8q-14 -4 -14.5 -7.5t-8.5 -3.5q-15 0 -41 8q-17 6 -32 21t-26 34t-17.5 40t-6.5 40q0 110 13 110q4 0 12 27q9 30 17 30q1 0 18 26q19 25 19 31q0 3 18 23q21 21 25 24q22 16 29 29
q1 3 6 6.5t11 7t12 6.5t9 5q20 6 33 8.5t21 3.5h8q7 0 11 -1h17q5 0 10 -4.5t9.5 -9.5t7.5 -10t4 -6q1 0 4 -3.5l6 -7t6.5 -7t6.5 -3.5q5 0 10 11q8 23 13 40.5t7 30.5q7 17 12 34.5t7 35.5q1 4 3.5 12.5t8.5 23.5q9 25 9 38t-7 23q-17 17 -36 17q-5 0 -20 -2t-26 -1
q-11 2 -23 12t-12 20q0 11 11 19t35 6q5 -1 10 -1h10t10 -0.5t10 -1.5q94 -3 94 0q0 2 38 -9zM312 335q-1 20 -3 34t-4 22q-12 31 -39 31q-20 0 -37 -8t-17 -22q0 7 -38 -43q-37 -49 -37 -81q0 -2 -3.5 -10.5t-8.5 -22.5q-12 -27 -14 -27q-3 0 -13 -39q-9 -38 -12 -38
q-8 0 -8 -23q0 -8 1 -18t3 -24l3 -21t1 -8q0 -26 51 -26q11 0 46 26q4 4 10.5 12t17.5 22q8 13 15 20t12 11q6 2 19 36q13 37 18 37t22 74q8 37 12.5 59t2.5 27z" />
    <glyph glyph-name="e" unicode="e" horiz-adv-x="375" 
d="M389 374q0 -57 -11 -63l-13 -19q-13 -16 -13 -15q0 -7 -24 -17q-25 -12 -25 -15q0 -5 -25 -11q-14 -5 -27 -6q-3 -1 -21 -3.5t-50 -6.5q-48 -1 -62 -24q-23 -41 -23 -86q0 -37 16 -62q22 -40 72 -35q15 0 45 9q0 -3 30 14q6 0 20 12l19 19q2 2 7 8.5t10.5 13.5t11 13
t9.5 8q4 3 10 16.5t12 17.5q16 10 21 10q8 0 8 -15q0 -19 -18 -37q-24 -21 -26 -29q-16 -37 -33 -37l-32 -28q0 -1 -20 -9t-20 -11q0 -2 -45 -9q-63 -8 -97 23q-33 28 -38 37q-11 13 -18 24t-8 22q-6 43 -9.5 65t-3.5 24q0 42 28 108q29 45 49 68q23 35 61.5 62t98.5 45
q15 5 28 5q20 0 39 -6.5t34 -18t24 -27.5t9 -34zM331 358q4 9 4 20q0 23 -18.5 34t-42.5 11q-16 0 -27 -5t-19.5 -11.5t-16.5 -14.5t-17 -14q-2 -1 -5.5 -5.5t-7.5 -10.5t-7.5 -11.5t-5.5 -7.5q-3 -3 -14 -25q-11 -19 -11 -23q-1 -5 -3.5 -10t-4.5 -10q-5 0 -3 -15
q2 -8 2 -11q0 -5 1 -6q8 -11 20 -11q3 0 3 3q0 5 37 11q39 8 40 12q10 5 17.5 8.5t15.5 7.5q21 21 29 21t34 63z" />
    <glyph glyph-name="f" unicode="f" horiz-adv-x="412" 
d="M349 675q-13 4 -24 -32q-6 -13 -8.5 -23l-4.5 -18q-9 -84 -9 -93q0 -8 1 -15.5t2 -15.5q3 -18 56 -18q10 0 10 2q25 -2 29.5 -8t4.5 -14q0 -22 -26 -25h-63q-35 -5 -35 -38q0 -9 -9.5 -40t-26.5 -85q-2 0 -24 -84q-3 0 -10 -25q-6 -25 -9 -25q-2 0 -5 -26q-2 -24 -6 -24
q-8 -15 -13 -25.5t-5 -16.5q0 -7 -6 -41q-7 -37 -10 -37q-6 0 -18 -45q-12 -47 -15 -49q-5 -4 -11 -15t-6 -16q0 -6 -7 -11.5t-16.5 -9.5t-20 -6t-16.5 -2q-40 1 -40 37q3 7 4.5 16.5t3.5 17t5.5 13t9.5 5.5q4 0 10 -0.5l12 -1t10 -1t5 -0.5q21 3 27 25q2 3 16 104
q5 48 9.5 71t5.5 23q4 0 16 46q10 39 10 51q0 21 10 48q5 17 8.5 29.5t4.5 17.5q0 7 11 40q8 34 8 47q0 31 -32 29q-11 0 -31 3.5t-31 3.5q-9 0 -9 24q0 8 4.5 11t22.5 9h7q5 0 11.5 -0.5t14.5 -1.5q31 0 31 2q0 -2 1 -2q5 0 22 14q2 2 5.5 5t7.5 6q10 6 19 75q0 3 2.5 10
t6 15t6 16t2.5 13t5.5 13.5t5.5 14.5q0 3 3.5 11t8 16.5t9.5 15.5t9 9q15 15 45 32q12 3 45 3q14 0 25.5 -7t19 -18.5t11 -25.5t1.5 -29q-2 -16 -5.5 -25t-7.5 -14t-8 -8t-7 -7q-14 -11 -14 -10q0 -5 -17 0q-15 1 -20 6q-17 18 -14 18q-3 0 -3 6q0 3 1 10t2 14.5l2 15
t1 11.5q0 7 -3 9z" />
    <glyph glyph-name="g" unicode="g" horiz-adv-x="491" 
d="M526 435q4 -15 0 -32.5t-9 -36.5q-8 -24 -17 -41q-12 -96 -25 -96q-6 0 -15 -41q-2 -11 -4.5 -22t-4.5 -21q-5 -15 -10 -28l-10 -26q-15 -35 -23 -53.5t-10 -22.5q-6 -27 -35 -69q-11 -15 -22 -30.5t-23 -30.5q-2 -5 -7.5 -9.5t-12 -8.5t-12 -7.5t-8.5 -5.5
q-1 -2 -24 -16q-20 -11 -20 -15q0 3 -20 -6q-11 -6 -15 -9q-4 -2 -5 -2q-17 -3 -31 -6.5t-23 -5.5h-58q-39 1 -54 21q-8 13 -12.5 19t-6.5 8q-7 11 -4 30q4 61 46 54q26 -6 34 -23q1 -2 0 -18q0 -9 -1 -13t-2.5 -6t-2 -5t0.5 -10q3 -18 6 -19q28 -20 76 -14q31 8 49 22
q2 2 12.5 11t27.5 26q8 8 16 18.5t16 24.5q0 1 14 18q7 12 9 20q14 53 25 77q6 16 6 27q0 6 -5 6q-1 -1 -2 -2.5t-3 -3.5q-3 -3 -7.5 -7t-10.5 -9q-11 -12 -15 -18q-18 -20 -29 -26q-2 -3 -10.5 -6t-20 -5t-24.5 -3.5t-24 -1.5q-23 0 -23 6q-7 1 -14 5q-5 2 -9.5 4.5
t-5.5 4.5q-4 9 -25 29q-23 23 -24 100q-3 54 13 93q28 70 114 172q5 5 15.5 10t21.5 10.5t20.5 10.5t12.5 9q4 4 13.5 8.5t21.5 7.5t25 5t23 2q7 0 10 -0.5t5.5 -2t5 -4.5t9.5 -8q8 -5 11 -9.5t4.5 -8.5t2.5 -6t5 -2q8 0 17.5 7.5t9.5 13.5q0 14 49 14q28 0 32 -22zM408 334
q-5 75 -39 81q-17 3 -31 3q-49 0 -58 -35q-1 -5 -5 -12.5t-8.5 -15.5t-9.5 -14.5t-8 -8.5q-13 -9 -18 -29q-2 -6 -11 -18.5t-11 -18.5q0 -2 -3.5 -12.5t-11.5 -28.5q-17 -36 -14 -36q-6 0 -12 -35q-7 -34 -11 -34q-3 0 -3 -46q0 -48 14 -48q2 -2 6 -4.5t9 -6.5q0 -3 11 -3
q8 0 21.5 1.5t12.5 1.5q3 0 8 3.5t10.5 8t10 8t6.5 3.5q21 11 37 36q7 11 13.5 22t14.5 22q27 38 38 67q44 104 42 149z" />
    <glyph glyph-name="h" unicode="h" horiz-adv-x="474" 
d="M440 82q2 5 8.5 15t6.5 18q0 4 2.5 12.5t8.5 21.5q16 37 23 36q6 -2 6 -13q0 -8 -6 -21.5t-6 -16.5q0 -7 -4.5 -17t-10.5 -20t-11.5 -18.5t-7.5 -13.5q-1 -8 -12 -16t-11 -12q0 -2 -4 -8t-9.5 -12.5t-11 -11.5t-7.5 -5q-4 0 -14.5 -5.5t-16.5 -5.5q-10 0 -31 6
q-24 7 -24 17q-8 11 -14.5 25t-10.5 31v54q0 14 17 53q8 19 12.5 30.5t4.5 17.5q1 10 20 66q6 14 11.5 34.5t13.5 48.5q0 4 -0.5 11t-2 14t-3.5 12t-4 5q-3 0 -13 5.5t-16 3.5q-6 -4 -16 -7.5t-27 -20.5q-8 -8 -11.5 -14.5t-3.5 -9.5q0 -4 -4 -9t-9 -9.5t-9 -8.5t-5 -7
q-8 -17 -15 -32.5t-14 -30.5q-6 -11 -12 -19.5t-8 -8.5q-1 0 -7 -20q-6 -18 -10 -18q-1 0 -14 -36q-9 -34 -10 -34q-2 0 -14 -35t-14 -35q-1 0 -6 -17l-5 -19q-17 -35 -47 -35h-6h-9t-12 1q-20 3 -20 7q-6 13 -4 13l12 42l12 42q1 2 1 4.5t1 4.5q1 8 6 26q8 35 11 35
q2 0 8 30q6 29 10 29q5 0 13 35q6 37 9 37q2 0 9 37q8 37 11 40q3 5 6 13t5 21l4 37q4 5 6.5 11.5t6.5 15.5q1 10 5.5 29.5t15.5 49.5q17 48 12 80q-6 31 -44 31h-20q-8 -2 -11 -2h-8q-38 0 -38 20q0 6 8 14q10 13 55 11q8 -2 21.5 -1t30.5 2q37 3 53 3q39 0 60 -10
q7 -3 7 -16q0 -15 -12 -51q-12 -39 -12 -43q-1 -4 -4.5 -12.5t-8 -17.5t-8 -17.5t-4.5 -13.5q-7 -23 -18 -74q0 -3 -20 -83q-20 -75 -17 -75q6 0 18 30q7 22 29 33q4 2 9 8.5t9.5 14t8.5 13.5t7 8l32 28q23 17 39 17q76 0 88 -66q5 -30 3 -62q-5 -51 -11 -51q-5 0 -8 -29
q-1 -30 -9 -32q-4 -1 -15 -25q-10 -19 -10 -26t-13 -45q-15 -38 -13 -38q-4 0 -3 -22q2 -20 6.5 -26t15.5 -6q20 0 52 26q9 8 13.5 16t6.5 14z" />
    <glyph glyph-name="i" unicode="i" horiz-adv-x="274" 
d="M251 723l7 -7t10 -11q3 -2 5.5 -5t4.5 -5q5 -4 6.5 -4t1.5 -14q0 -7 -1 -15.5t-2.5 -15.5t-3.5 -12t-4 -5q-3 0 -10.5 -10t-12.5 -10q7 0 -23 -3q-21 -2 -21 2q0 -4 -22 15q-8 6 -12.5 20t-2.5 39q1 17 21 30.5t42 13.5q9 0 17 -3zM85 405q0 1 2 3t3.5 5l3.5 7q4 5 6.5 7
t4.5 3t5.5 2.5t9.5 5.5q14 8 14 7q0 7 15 7q5 0 13.5 -0.5t16.5 -2.5q5 -1 9.5 -2t9.5 -2q17 0 27 -31q3 -12 5 -22t2 -21q0 -22 -3 -46t-11 -50q-1 -9 -30 -92q-6 -13 -12 -26.5t-11 -27.5q-19 -41 -19 -66q0 -29 28 -29q13 0 24 14q8 10 12.5 14.5t8 7.5t7 7.5t8.5 13.5
q11 17 11 21q0 7 3.5 17.5t8.5 20t10.5 16t10.5 6.5q13 0 13 -24q0 -45 -17 -45q-6 0 -31 -60q-4 -9 -13.5 -19t-21 -19t-24 -14.5t-21.5 -5.5q-17 -3 -28.5 0.5t-19.5 10t-13.5 15t-10.5 15.5q-16 35 -16 51q0 4 1.5 13.5t3.5 26.5q5 35 6 35q9 27 14 43t6 22q3 27 28 72
q25 49 28 77q1 24 -11 36q-7 4 -13 3q-1 -1 -4 -1t-4 -1l-2 -1q-3 0 -8.5 -4t-11.5 -9.5t-10 -11t-4 -9.5q0 -8 -11 -19q-5 -5 -7 -8.5t-4 -9t-6 -13.5t-14 -23q-2 -10 -14 -26q-7 -7 -12 -7q-2 0 -2.5 3.5t-0.5 7.5q0 5 0.5 8.5t-1.5 3.5q5 15 8.5 25t4.5 18
q4 18 15.5 37.5t34.5 39.5z" />
    <glyph glyph-name="j" unicode="j" horiz-adv-x="345" 
d="M357 622q-5 -14 -25 -14q-12 0 -24.5 4t-22.5 11.5t-16.5 17.5t-6.5 21q0 20 23 40q10 10 38 10q23 0 31 -12q8 -13 11.5 -23.5t3.5 -18.5q0 -10 -3 -20q-6 -13 -9 -16zM69 -182q3 -9 11 -9q6 0 16.5 4.5t15.5 4.5q3 0 7 4.5t8 10.5q2 4 4 7.5t4 7.5q11 0 17 43
q3 25 3 44q0 8 2.5 31t8.5 60q14 80 19 80q4 0 21 69q8 35 12.5 55.5t4.5 26.5q3 3 19 55q16 48 16 73q0 17 -9 20q-18 6 -43 -19q-13 -11 -20 -21.5t-11 -19.5q-1 -5 -11 -16t-10 -17q0 -5 -8.5 -11.5t-8.5 -11.5q0 -15 -22 -43q-20 -29 -32 -21q-8 5 -8 13q0 20 47 82
q24 32 35.5 48t13.5 18q3 9 11.5 19t19.5 19t22.5 15t20.5 6q72 0 72 -45q12 -32 9 -32q3 0 0 -28q-1 -17 -2 -25t-1 -6q0 -2 -9 -41q-9 -37 -8 -37t-11 -39q-3 -11 -6.5 -21.5t-6.5 -21.5q-4 -15 -6.5 -29t-6.5 -29q-11 -54 -18 -54q-5 0 -22 -65q-14 -66 -21 -66l-34 -69
q-31 -40 -34 -40q-1 0 -9 -5q-2 -2 -3 -3.5t-4.5 -2.5t-13.5 -1h-30q-41 -5 -54 12q-18 21 -18 57q0 23 14.5 42t37.5 19t32 -29q2 -9 -2 -18t-9 -18t-9 -17.5t-3 -14.5z" />
    <glyph glyph-name="k" unicode="k" horiz-adv-x="446" 
d="M320 363q8 23 25 48q11 16 20.5 24t18 11t15 2.5t12.5 -0.5q54 0 55 -43q2 -31 -6.5 -43t-19 -15t-20 -1t-9.5 -1q-6 5 -10 7t-13 19q-8 15 -11 17.5t-8 2.5q-4 0 -8 -6.5t-7.5 -14t-6 -13.5t-4.5 -6q-1 -2 -3.5 -5.5t-7.5 -11.5q-4 -7 -6 -10t-3.5 -4.5l-4.5 -4.5
t-9 -10q-11 -15 -14 -17q-3 -4 -5.5 -7.5t-4.5 -6.5q-11 -13 -11 -20q0 -2 1 -2.5t3 -2t6.5 -5t10.5 -12.5q14 -17 16 -17q29 0 15 -89q-1 0 -4.5 -10t-3.5 -11v-50q6 -27 33 -26q23 3 43 29q15 20 23 31.5t8 16.5q15 25 13 25q-3 0 -3 3q0 4 3 10.5t7.5 12.5t9 10.5
t7.5 4.5t3 -3q0 -21 -16 -52q-22 -42 -24 -49q-4 -10 -40 -45q-5 -2 -27 -18q-20 -15 -20 -13t-29 -6q-2 -2 -38 12q-10 3 -28 33q-8 0 -8 31q0 12 1 27t3 28t4.5 22t4.5 9q4 0 4 34q0 56 -23 56q-5 0 -15 5.5t-16 5.5q-4 -1 -7.5 -1h-6.5q-5 0 -7 -2q-6 -1 -9.5 -4t-5.5 -7
q-2 -2 -11 -33q-14 0 -39 -150q-10 -61 -54 -61q-33 0 -38 20q-4 19 14 72q5 20 9.5 40t10.5 40q17 68 23 68q3 0 20 75q16 69 18 83q5 14 10 35t10 50q1 5 4 13.5t7 17.5t7 17t4 13q1 6 3.5 16.5t7.5 26.5q10 28 7 45q-1 20 -14 33.5t-32 8.5q-18 -7 -43 -2q-3 2 -8.5 3
t-11.5 3q-1 2 -2.5 6.5t-3.5 13.5q2 0 9 7t11 7q6 2 15 2.5t20 2.5q25 1 79 0h54q29 -3 29 -33q0 -10 -8 -37q-11 -33 -12 -38q-2 -4 -4 -13.5t-7 -24.5q-12 -39 -15 -39t-20 -77q-8 -38 -12.5 -58.5t-4.5 -25.5t-2.5 -13t-5.5 -17t-5.5 -17t-2.5 -12q0 -16 13 -23
q16 -10 44 0q47 17 45 20q0 4 14 15q15 10 15 14q0 6 11 34z" />
    <glyph glyph-name="l" unicode="l" horiz-adv-x="225" 
d="M191 165q11 45 29 52q2 1 8 1q10 0 10 -13q0 -8 -2 -18t-2 -13q-8 0 -16 -32q-1 -4 -2.5 -10.5t-4.5 -14.5q-2 -2 -4 -4.5t-4 -4.5l-6 -8t-3 -6q0 -1 -23 -36q-21 -30 -25 -30t-9.5 -4.5t-10.5 -9.5t-10 -9.5t-8 -4.5q-6 0 -22.5 -3t-25.5 -2q-14 3 -38 33q-1 0 -3 5.5
t-5 12t-5 12t-3 5.5q-6 0 -6 19q0 8 1.5 20t3.5 27q2 10 2 13q0 7 1 10t1 8q0 9 17 71q8 30 12.5 47.5t4.5 23.5t2.5 15t6 18.5t6 18t2.5 12.5q2 11 6 29.5t11 47.5q17 65 25 65q-1 0 10 44q8 23 11 34.5t3 13.5q3 12 3 22q0 50 -69 50q-28 0 -22 31q3 17 71 17h83
q50 0 50 -22q0 -21 -17 -60q-13 -25 -23 -89q-1 -4 -4.5 -13.5t-7.5 -20.5t-7 -21.5t-3 -16.5q0 -5 -3.5 -14t-8 -18.5t-8 -18.5t-3.5 -14q0 -25 -19 -70l-9 -51q-6 -42 -14 -42q-6 0 -24 -80q-8 -38 -12.5 -58.5t-4.5 -24.5q0 -35 20 -35q10 0 24 14q7 4 19 17
q8 11 14 17.5t9 6.5z" />
    <glyph glyph-name="m" unicode="m" horiz-adv-x="737" 
d="M188 442q24 -17 24 -68v-14v-8t-1 -9q-1 -7 -1.5 -11.5t-0.5 -7.5v-7q-5 -20 -6.5 -38.5t-5.5 -35.5q8 3 25 26q14 23 16 34q2 6 4.5 11.5t8.5 13.5q10 15 12.5 23t10.5 21l17 20q18 32 40 47t46 15q23 0 42.5 -16.5t23.5 -40.5q3 -23 3 -72q0 -67 -8 -67q16 0 28 25
q5 8 9.5 17t9.5 18q8 11 14.5 21t9.5 21q6 14 11 21.5t9.5 12t8.5 8t8 9.5q6 5 10.5 11t9.5 12q17 20 59 20q30 0 45.5 -27t15.5 -64q3 -89 -43 -203q-1 -4 -6.5 -20t-16.5 -45q-5 0 -6 -18q-3 -18 0 -23q4 -16 17 -16q3 0 35 16q4 2 8 7t7.5 11t6 10.5t4.5 6.5q25 21 26 39
q1 4 5 10.5t8.5 13t8 12t3.5 7.5q0 3 8 6q8 2 11 -3q5 -13 -4 -30t-15 -30q-3 -6 -9 -14.5t-12.5 -17t-12 -16t-7.5 -12.5q-3 -7 -7.5 -14t-12.5 -12q-6 -5 -11 -9t-8 -6t-6 -5q-4 -4 -8.5 -7t-10.5 -4q-6 -3 -21 0q-5 1 -8.5 1h-5.5h-6q-6 0 -15 7t-13 7q-1 0 -17 34
q-6 0 -7 60q3 23 5 35.5t2 13.5q0 13 11 34q4 8 8 17t7 17q30 89 37 89q2 0 6.5 10.5t4.5 14.5q2 17 3.5 27t1.5 11q0 20 -11 31t-34 3q-5 0 -11 -4t-12 -9t-10 -11t-4 -10q0 -3 -4.5 -8.5t-10 -11.5t-10.5 -11.5t-7 -8.5q-5 -5 -9.5 -12.5l-10.5 -17.5q-2 -2 -8.5 -17
t-20.5 -43q-2 0 -5.5 -8t-11.5 -25q-8 -16 -12 -25.5t-5 -11.5q-5 -10 -10.5 -25t-12.5 -36q-2 -2 -5 -12.5t-11 -27.5q-13 -34 -15 -34q-8 -14 -17 -28.5t-28 -14.5q-33 0 -49 25q-1 3 0 12t6 26q12 32 14 32q3 0 11 30q9 30 9 40q1 5 4 14t7 19t7 18.5t4 12.5t4 13.5
t10 26.5q5 14 6.5 23t2.5 17l2 16t5 20q8 27 8 32q5 20 -2.5 31.5t-26.5 8.5q-18 -3 -29 -23q-2 -4 -8 -7.5t-14 -9.5q-8 0 -26 -36q-6 -10 -11.5 -21t-11.5 -22q0 -2 -15 -33q-16 -31 -19 -31q-4 0 -17 -33q-7 -16 -11 -26l-6 -15q-1 -5 -3.5 -14t-8.5 -23q-9 -26 -12 -26
t-14 -29q-11 -28 -11 -36q0 -11 -14.5 -18.5t-27.5 -7.5q-3 0 -9 1.5t-17 3.5q-3 0 -7 4.5t-7 10t-4.5 10t0.5 4.5q6 0 15 46q9 48 14 48q13 48 19 71t6 20q0 5 3.5 13.5t8 18t8.5 18.5t4 14q8 37 12 57.5t5 24.5q2 0 2 4q0 11 -5.5 24t-13.5 15q-6 2 -20 0q-5 0 -9.5 -6.5
t-5.5 -6.5q-3 0 -8 -6t-10.5 -13.5t-9 -15.5t-3.5 -12q0 -3 -3.5 -9.5t-7.5 -13t-7.5 -12.5t-4.5 -8q-1 -7 -4 -16t-10 -20q-13 -24 -23 -20q-8 5 -8 16t7 27.5t20 38.5q10 18 19.5 31t17.5 21q5 4 10 9l11 11q2 9 11.5 21.5t22.5 23.5q0 1 5.5 2.5t12.5 2.5t13.5 1.5
t8.5 0.5q6 0 14.5 -5.5t16.5 -10.5z" />
    <glyph glyph-name="n" unicode="n" horiz-adv-x="477" 
d="M172 226q9 -2 39 59q11 23 20 41t15 32q13 13 29 39q14 30 23 35l31 25q0 1 23 1q21 3 28 0q39 -2 51 -56q4 -20 4 -45q0 -20 -3.5 -39t-11.5 -36q-4 -8 -8 -20.5t-7 -29.5q-6 -11 -15.5 -34t-24.5 -73q-5 -36 -10 -36q-4 0 -4 -20q0 -29 15 -29q5 0 16 8q11 11 19 17.5
t11 11.5q8 10 14 18.5t8 16.5q3 6 7.5 14t9.5 19q6 58 34 55q9 -3 9 -14q0 -6 -4.5 -23t-15.5 -43q-8 -22 -17.5 -41t-22.5 -36q-34 -45 -65 -49q-41 -5 -61 4q-8 4 -19 15.5t-11 17.5q0 8 -2 22.5t-2 20.5q0 11 2 30t2 30q0 6 4 16.5t9.5 22t9.5 22t4 17.5t4.5 16.5
t10.5 19t11 17.5t6 12q1 3 4 13t8 27q12 32 14 32q9 0 5 54q-3 11 -16 11q-11 0 -20.5 -4.5t-9.5 -7.5q0 3 -28 -22q-2 -2 -7 -11.5t-16 -26.5q-9 -6 -20 -27q-2 -5 -11 -16.5t-9 -24.5q0 -5 -8.5 -14t-10.5 -12q-3 -5 -7 -12t-8 -16q-2 -2 -5 -9t-9 -20q-11 -23 -14 -23
l-12 -40q-9 -39 -14 -39q3 0 -15 -41q-19 -37 -19 -42q0 -11 -27 -11q-36 0 -47.5 8.5t-11.5 18.5q0 5 3 13.5t3 16.5q0 7 4 19t9 24.5t9 24t4 17.5q8 9 16 32q2 8 4.5 21.5t6.5 32.5q3 11 7.5 24.5t10.5 32.5q4 11 7 28t8 40q3 29 0 40q-5 20 -26 14q-9 -4 -19.5 -18
t-20.5 -27q-30 -37 -37 -71q-6 -57 -29 -57q-15 0 -12 26q0 5 12 37q12 34 14 34q4 0 15 32q12 32 17 34q25 15 25 26q0 3 3 7.5t6.5 9t7.5 8t6 3.5t9 3t15.5 7t16.5 7t13 3q12 0 17 -11q1 -2 6.5 -9t13.5 -20q5 -8 7.5 -15.5t4.5 -15.5q4 -32 -2 -87q-2 -11 -4 -22.5
t-3 -22.5q-8 -38 -3 -38q3 0 4 1z" />
    <glyph glyph-name="o" unicode="o" horiz-adv-x="398" 
d="M406 303q2 -22 0.5 -46t-4.5 -51q-5 -17 -9.5 -30.5t-7.5 -23.5q-4 -30 -51 -77q-2 -3 -4.5 -7t-4.5 -8q-11 -12 -14 -12q-14 -11 -21.5 -17.5t-9.5 -8.5q-2 -3 -9 -8t-16 -10.5t-17.5 -9t-12.5 -3.5q-17 -4 -29.5 -6.5t-20.5 -4.5h-47q-28 0 -65 37q-24 24 -37 61
q-17 49 -11 116q2 6 6 23.5t4 27.5q0 3 4.5 10.5t5.5 12.5q3 16 28 54q25 40 39 40q3 0 9 5.5t12.5 12.5t12 12.5t7.5 5.5q15 11 31 21t31 21q37 22 70 22q48 0 90 -54q39 -54 41 -105zM340 323q0 49 -20 74q0 1 -7 5.5t-7 8.5q0 1 -7 3t-16.5 3.5t-19 2.5t-14.5 0
q-25 0 -37 -14q-3 -5 -15 -12t-15 -12q-8 -17 -13 -22q-3 -3 -5.5 -9t-6 -12.5t-7 -12.5t-7.5 -9q-8 -3 -18 -37q-11 -32 -11 -42q0 -4 -2 -10.5t-5 -13.5t-5.5 -13t-3.5 -9q-3 -14 -6.5 -24t-5.5 -17q-5 -38 -3 -66q3 -30 3 -27q0 -3 4 -6.5t4 -6.5q0 -28 55 -37
q11 -2 25.5 1.5t28.5 10t26.5 15t19.5 17.5q2 2 5 10t11 23q11 26 13 26q3 0 14 24q6 13 8.5 22t2.5 12q0 4 3 12t7 17t7 18.5t3 15.5t2.5 17.5t6 25t6 26.5t2.5 22z" />
    <glyph glyph-name="p" unicode="p" horiz-adv-x="480" 
d="M488 343q11 -128 -5 -128q-18 -60 -18 -63q-8 -30 -45 -64q-15 -17 -26.5 -29.5t-19.5 -20.5t-18.5 -16t-21.5 -13q-6 -3 -12.5 -6t-13.5 -6q-28 -12 -28 -9q0 2 -20 0q-3 -1 -10 -1q-5 0 -7 -1q-3 -1 -6 -1q-15 5 -26 12t-19 12q-20 16 -27 28q-8 4 -14.5 -8t-10.5 -21
q-1 -4 -4 -12t-6 -17t-5 -18t-2 -15q0 -5 -11 -37q-10 -29 -10 -46q0 -11 4 -12q20 -20 52 -20q5 0 17.5 1.5t18.5 1.5q22 0 29 -16q3 -6 3 -10q0 -19 -38 -19q-7 0 -17.5 1t-20.5 1.5t-17.5 1.5t-9.5 1q-4 0 -12 0.5t-16.5 1t-16.5 1t-13 0.5q-8 -2 -15 -2.5t-15 -2.5
t-22 -1t-36 4q-20 5 -20 20q0 11 20 22q7 4 14 7t15 8q17 8 25 62q3 13 5.5 22t5.5 16q9 39 12 60q13 32 18.5 56.5t5.5 39.5q0 6 3.5 16.5t8 21.5t8.5 21.5t4 17.5q5 10 7.5 17.5t4.5 12.5q-1 0 1 5t4 12q2 4 3.5 8t3.5 9q0 19 9 54q8 24 11 37t5 17q3 17 5 24.5t2 6.5
q0 21 -26 21q-18 0 -18 -15q-11 -12 -18.5 -19t-10.5 -9q-8 -2 -16 -31q-11 -23 -19.5 -39.5t-15.5 -26.5q-12 -32 -29 -32q-7 0 -7 11q0 3 1 8.5t3 11.5q1 3 5.5 13t15.5 27q22 32 22 40q0 7 12 30q13 24 18 24t19 20t17 21q17 20 29 20h5q3 0 9 2q9 2 14 0q3 -2 6.5 -3
t7.5 -5q14 -14 18 -22l12 -33q2 -23 3.5 -34t2.5 -13q4 -1 7.5 -5.5t5.5 -4.5q3 0 6 4q5 7 7 10t4.5 5.5l5.5 5.5t9 10q12 16 12 20q0 3 4.5 7.5t9.5 9t9.5 9t4.5 6.5q8 15 26.5 23t50.5 8q34 0 46 -17q4 -6 18.5 -19t20.5 -24l4.5 -9t8.5 -20q10 -16 10 -31zM420 328
q0 45 -22 74q-14 18 -30 18q-14 0 -31 -11q-13 -8 -20.5 -11.5t-8.5 -5.5q-28 -10 -28 -26q0 -3 -4 -8t-9 -10t-9 -9.5t-4 -6.5q0 -4 -3.5 -11t-8 -14.5t-8 -14t-3.5 -10.5q-2 -4 -5 -12t-11 -22q-5 -13 -8.5 -23t-3.5 -17q0 -10 -17 -80q-4 0 -4 -43q1 -43 15 -43
q-2 0 2 -4t9 -8.5t10 -8t5 -1.5q0 -12 55 0q15 4 33 22.5t38 54.5q10 24 18 46.5t13 44.5q2 0 14 32q11 32 11 38q1 4 3 12.5t6 21.5q6 21 6 36z" />
    <glyph glyph-name="q" unicode="q" horiz-adv-x="435" 
d="M451 458q11 -1 14 -15.5t1 -24.5q-3 -8 -6.5 -14t-7.5 -22q-2 -6 -3 -11.5t-1 -8.5q0 -7 -7 -22.5t-7 -22.5q-5 -20 -8.5 -34.5t-7.5 -22.5q-14 -52 -24.5 -91.5t-18.5 -65.5q-5 -21 -21 -78q-7 -25 -12 -45t-7 -35q0 -5 -3 -14.5t-6 -20.5t-6 -21.5t-3 -17.5
q0 -23 3 -29q5 -4 8.5 -7t5.5 -4q17 -2 34.5 -3.5t34.5 -1.5q15 -8 18.5 -11t3.5 -9q0 -9 -8 -16.5t-37 -9.5q-28 0 -28 3t-132 0h-18q-9 0 -22.5 0.5t-31.5 1.5q-65 2 -65 0q0 -3 -2.5 -0.5t-6 7.5t-6 10.5t-2.5 9.5q0 5 8 5q4 0 12.5 1t18 2.5t18.5 3t14 1.5q39 -3 46 0
q26 1 37 21q6 20 12.5 39.5t12.5 39.5q-3 0 7 37q4 10 8 21l8 22q9 45 9 49q0 14 -8 14q-2 0 -5.5 -4t-7 -9t-6 -9.5t-2.5 -5.5l-14 -14t-16.5 -16t-16.5 -13.5t-12 -5.5q-11 -8 -20 -8q-1 0 -6.5 -3t-8.5 -3h-36q-16 0 -27 8q-7 2 -23 15q-57 42 -57 145q0 89 17 89
q6 0 15 32q12 32 15 32t6.5 6t6.5 13t6 13.5t5 7.5q9 5 15.5 12t12.5 14.5t13.5 14.5t18.5 12q33 16 33 27l42 25q30 12 46 9h5q4 0 9 0.5t12 1.5q20 2 20 -3q0 5 22 -11q23 -14 20 -14q1 0 5.5 -6t9 -13.5t8 -14.5t3.5 -9q0 -9 9 -9q23 0 23 20q1 2 2 5l2 6q4 9 10 32
q8 24 28 21zM346 315q3 0 -1 28q-3 28 -5 32q-9 12 -14.5 20.5t-11 13t-13.5 6.5t-21 2q-43 0 -49 -14q-3 -7 -17 -15q-7 -5 -10.5 -8.5t-6 -6.5t-4.5 -6.5t-7 -8.5t-8 -7.5t-4 -4.5q-3 0 -12 -24q-10 -25 -13 -25q-10 0 -35 -69q-6 -17 -10.5 -33.5t-8.5 -31.5
q-3 -22 -5 -34t-2 -14q0 -8 2 -21.5t5 -33.5q12 -50 63 -52q37 0 57 27q30 40 34 40q8 0 23 31q19 33 20 43q5 13 16 45q13 40 17 40q3 0 12 40z" />
    <glyph glyph-name="r" unicode="r" horiz-adv-x="377" 
d="M205 228q-8 -14 -11 -22.5t-5 -10.5q-1 -1 -7 -29q0 -3 -5.5 -10t-5.5 -8q0 -3 -2 -9t-5 -13t-5.5 -12.5t-3.5 -7.5q-5 -13 -10 -31t-11 -44q-3 -25 -19 -34q-5 -3 -32 -3q-28 -3 -28 3q0 -5 -13 11q-7 0 -7 6q0 5 3.5 14t3.5 10q0 2 2 9t5 22q5 0 14 31q5 17 7 26.5
t4 13.5q1 7 5 24t12 44q10 31 21 69q2 6 4 18.5t6 30.5q6 43 10 43q-2 13 -4 23t-8 10t-13.5 -6.5t-15.5 -23.5t-14 -21q-14 -10 -31 -66q-14 -50 -35 -50q-11 0 -11 13q0 8 5.5 19t5.5 16q21 42 18 42q5 0 22 32q16 28 18 35q4 12 13 23t21 20t25 14.5t24 5.5q31 0 40 -32
q2 -9 3 -23t3 -32q-2 -19 4 -37q1 -3 4 -3q4 0 8 7t6 7q1 0 12 23q12 22 17 24q3 9 16 22q5 2 7 14q1 1 6.5 7t16 12t27.5 10.5t40 2.5q5 -2 10.5 -3t9.5 -5q6 -6 10.5 -8.5t7.5 -5t4.5 -6t1.5 -9.5q3 -7 0 -23q-1 -8 -2 -12.5t-1 -6.5q0 -6 -18 -27q-11 -11 -23 -11
q-29 0 -44 32q-10 25 -20 25q-8 0 -19.5 -10.5t-26.5 -37.5q-14 -26 -14 -37q0 -5 -3.5 -12t-7 -14.5l-7 -15t-3.5 -12.5t-3.5 -12t-8.5 -18z" />
    <glyph glyph-name="s" unicode="s" horiz-adv-x="369" 
d="M320 368q12 9 12 18q0 26 -77 31q2 0 -7.5 -1.5t-30.5 -3.5q-11 0 -18.5 -6.5t-15.5 -14.5q0 -1 -3 -5.5t-7 -9.5l-10 -14q-6 0 -6 -8q0 -11 7 -26q2 -4 3.5 -8t3.5 -9q0 -8 10.5 -16.5t20.5 -14.5q3 -3 8.5 -4.5t11.5 -3t11 -3t7 -4.5q2 -2 9.5 -7t22.5 -10
q31 -12 31 -17l19 -22q18 -23 16 -23q10 0 10 -37q1 -22 -2 -41q-6 -52 -40 -80q-46 -43 -74 -43q-5 0 -15.5 -2.5t-22.5 -5t-23.5 -4t-19.5 0.5q-12 3 -29 8.5t-40 11.5q-9 0 -20 7t-20.5 17t-16 21t-7.5 19l-2 8l-2 8q-3 13 -3 21q0 3 0.5 4t1.5 2.5t2.5 5.5t2.5 13
q6 18 8 18q3 0 29 17q8 5 14 5q29 0 40 -29q4 -14 -3 -48q0 -2 -2.5 -7t-6 -11t-6 -12t-2.5 -10q0 -9 11.5 -14t25.5 -11q25 -10 25 -6q0 -6 15 -6h11q4 0 14 2q3 1 9 1q3 0 9 2q10 0 22 5t23 12.5t19 17t10 19.5q4 10 5 20t1 18q0 23 -12 40q-22 22 -31 22l-40 17
q-1 5 -11.5 6.5t-14.5 5.5q-1 1 -5.5 4t-10 6t-9.5 5.5t-4 4.5t-5.5 7t-11.5 10.5t-11.5 10.5t-5.5 7q0 6 -4.5 17t-4.5 16q-4 34 3 75q1 15 11 29t27 29q35 31 68 37q45 7 91 -3q9 -1 20.5 -6.5t22 -13t18.5 -16t9 -15.5q4 -8 5.5 -14.5t2.5 -11.5q8 -24 8 -30v-4
q0 -2 -3 -5t-11 -18q-9 -20 -20 -20h-15q-5 0 -13 2q-9 8 -19 14t-8 12q0 9 5.5 25t9.5 20z" />
    <glyph glyph-name="t" unicode="t" horiz-adv-x="265" 
d="M88 54q1 -6 9 -6q11 0 38 21q21 16 25 23q3 7 29 34q19 19 22 40q0 6 12 29q13 25 19 25q27 0 27 -15q0 -5 -4 -14.5t-9.5 -19.5t-9.5 -18t-4 -11l-4.5 -9l-6.5 -13q-5 -7 -8.5 -10t-7.5 -6.5t-9.5 -9t-14.5 -16.5t-12 -17l-5 -10t-4.5 -7t-9.5 -7q-14 -8 -14 -12
q0 -2 -5.5 -6.5t-13.5 -8.5q-5 -2 -9.5 -4.5t-9.5 -5.5q0 -8 -13 -8q-9 0 -20 3t-21.5 7.5t-18.5 9.5t-10 10q-1 4 -3.5 10t-6.5 14q-3 13 -4.5 27.5t0.5 31.5q1 27 18 75q16 45 19 74q5 15 9 30.5t9 30.5q4 10 7 20t7 20q7 12 0 45q-3 14 -43 15q-34 3 -34 28q0 23 29 20
q48 -1 68 8q4 1 6.5 7.5t4.5 16.5q6 22 7 22q3 0 10 37q3 16 5 25.5t2 12.5q4 70 40 70h8h6.5t8.5 1q14 3 25 0q19 -1 19 -25v-5q0 -2 -2 -8v-16q0 -5 -17 -54q-17 -46 -17 -63v-10q0 -6 10 -8.5t39 -10.5q31 -7 28 -29q0 -4 -5 -8.5t-11 -7.5t-11 -4t-5 1q0 3 -34 0
q-34 0 -37 -9q-4 -15 -10.5 -38t-14.5 -54q-3 -14 -5.5 -28t-6.5 -28q-12 -49 -15 -49q-2 0 -13 -32q-6 -31 -9 -31q-6 0 -14 -41q-3 -20 -4.5 -32.5t0.5 -18.5z" />
    <glyph glyph-name="u" unicode="u" horiz-adv-x="480" 
d="M405 32q5 2 11.5 9.5t12.5 17t10 18.5t4 14q2 5 5 12t9 15q8 12 11 23t5.5 20t6 14.5t12.5 7.5q11 0 8 -32q-7 -54 -22 -62q-2 -1 -3.5 -6t-3 -11t-3 -11t-3.5 -6q-5 -2 -30 -33q-35 -41 -73 -44q-53 -2 -62 88q-2 17 -2.5 40t0.5 49q-2 0 -23 -37q-10 -18 -16.5 -29.5
t-7.5 -14.5q-4 -24 -43 -63q-4 -4 -22 -16q-18 -11 -18 -10q0 -7 -28 -7t-28 7q-8 3 -13.5 6.5t-10.5 6.5q-1 0 -3.5 4.5t-5.5 10t-5.5 10t-2.5 5.5q0 2 -6 23q-5 21 -2 21q-2 0 0 33q3 39 3 38q0 4 26 91q11 0 17 32q8 32 9 32q4 0 7 14q2 14 4 14q4 0 6 29q2 15 2.5 25
t-0.5 14q-5 15 -20 15q-8 0 -16.5 -4t-16.5 -10.5t-13 -14t-5 -14.5q0 -2 -2.5 -8t-6.5 -12t-7.5 -11t-4.5 -6q-12 -6 -19 -40q-6 -40 -23 -43q-7 -4 -11 -4q-10 0 -10 16q0 9 3 20q7 0 23 37q4 18 17 42q3 4 7 8.5t10 9.5q2 7 6 14.5t12 17t21 21t33 26.5q2 1 6.5 2t11.5 2
q17 3 17 -4q0 6 19 -9q19 -16 15 -16q2 0 5.5 -5t7.5 -12t6.5 -13.5t2.5 -9.5q1 -8 2 -19t-1 -24q-1 -9 -1 -16.5v-12.5v-14q0 -9 -10 -38q-9 -31 -13 -31t-14 -34q-11 -33 -11 -38q0 -17 -15 -51q-14 -34 -11 -56q1 -37 23 -37q7 0 17 10q14 8 24 14.5t10 11.5q0 4 6 10.5
t13 13.5t13 13.5t6 10.5q5 10 11.5 25t14.5 35q1 2 6.5 11.5t15.5 28.5q18 36 20 36l14 27q5 14 8.5 22.5t3.5 12.5t3.5 13.5t8 20t8.5 20.5l6 15q2 6 4 14.5t5 21.5q8 50 36 47q11 0 23 -2t29 -5q8 -5 8 -16q0 -5 -3 -16t-3 -16q0 -9 -7 -24.5t-7 -23.5q-2 -8 -7 -21.5
t-13 -32.5q-16 -33 -16 -57q0 -9 -10 -50q-10 -46 -13 -46t-12 -31q-9 -30 -9 -51q0 -41 37 -28z" />
    <glyph glyph-name="v" unicode="v" horiz-adv-x="455" 
d="M298 75q0 1 4 5.5t9 9.5t9 9.5t5 5.5t5 6.5t12 13.5q15 18 15 21q0 5 8.5 13t8.5 12q0 1 2.5 7.5t5.5 13t6.5 12t5.5 5.5q8 5 11 31q2 28 12 32q9 4 9 28q0 12 -1 19.5t-6 13t-15 10.5t-29 12q-4 3 -18 23q-13 22 -11 22q-3 0 5 18l9 19q0 4 6 8.5t14.5 7.5t17 4.5
t13.5 -0.5q32 -8 41 -29q17 -43 16 -74q-3 -57 -5 -57q-6 0 -12 -29q-7 -28 -11 -28q-3 0 -12 -31t-16 -31q3 0 -24 -44q0 -6 -5.5 -14t-12.5 -15.5t-12.5 -14t-5.5 -10.5q0 -8 -12 -18q-13 -10 -22 -19t-26 -28q-5 -3 -12 -8.5t-14 -11.5q-5 -10 -63 -26q-7 -1 -31 0
q-26 3 -26 9q0 -5 -29 24q-29 30 -22 30q-7 0 -13 34q-6 28 4 71q12 51 12 68q0 5 5 13t10.5 16.5t10.5 16.5t5 12q2 4 4 13t7 24q12 31 14 31q5 0 9 31q5 28 -1 38q-3 3 -8 3t-32 -15q-2 -1 -6.5 -6.5t-9.5 -12t-9 -12t-5 -5.5q-4 0 -7.5 -4t-7 -9.5t-5.5 -9.5t-3 -4
q-8 0 -17 -31q-1 -5 -5.5 -12t-10.5 -14t-12 -12t-10 -5q-12 0 -12 26q0 36 15 41q4 2 10.5 12t6.5 15q0 4 17 24q9 9 13 12.5t6.5 5.5t4 4.5t5.5 8.5q8 14 11 15q8 8 13.5 15.5t17.5 9.5q5 3 7.5 5t5 3.5t6.5 3.5t13 6q17 8 17 5l18 -4q7 -2 12 -3.5t5 -3.5q0 -1 8 -12
q9 -7 13.5 -17.5t9.5 -27.5q1 -7 1 -13.5t1 -13.5q1 -5 1 -11v-12v-20q0 -22 -5 -22q-2 0 -23 -61q-5 -11 -11 -26.5t-13 -35.5q0 -6 -19 -57q-17 -56 -17 -69q0 -9 5 -9q5 -6 7.5 -11t5.5 -8t9.5 -4.5t20.5 -1.5q38 -3 38 5q0 4 30 21q30 16 30 29z" />
    <glyph glyph-name="w" unicode="w" horiz-adv-x="646" 
d="M542 77q5 11 26 37q5 5 21 44t19 39q4 0 12 29t9 29q4 6 6.5 12.5t6.5 12.5v34q-3 23 -16 26q-53 13 -51 66q2 4 3.5 9.5t3.5 13.5q1 6 6.5 8t6.5 6q12 12 43 12q7 0 10 -1t4.5 -4t4 -7.5t8.5 -11.5q13 -13 13 -20q4 -23 4 -66q0 -7 -10 -37q-2 -11 -4 -18t-3 -13
q-2 0 -11 -48q-7 -46 -12 -49q-3 -2 -7.5 -7.5t-9.5 -18.5q-11 -24 -11 -31q0 -10 -22 -32q-21 -21 -21 -33q0 -6 -14 -15q-8 -6 -18 -13t-25 -22q-2 -2 -5.5 -4t-6.5 -6q-4 -6 -13 -10.5t-19.5 -7.5t-21.5 -4t-20 -1q-56 8 -79 47q-5 11 -9.5 31.5t-5.5 49.5q-3 60 -9 60
q-5 0 -20 -34q-10 -20 -15 -29t-7 -11q-7 -7 -10 -13.5t-5.5 -13t-7 -14t-14.5 -16.5q-9 -8 -14.5 -13t-6.5 -8q-25 -38 -88 -34q-12 0 -23.5 7.5t-21.5 19t-17 24.5t-9 24q-6 52 9 99q26 71 31 71q7 0 19 41q13 39 13 48q0 4 2.5 13t5.5 18.5t5.5 18.5t2.5 14q0 22 -20 25
q-7 1 -17.5 -4.5t-20.5 -14.5t-18 -19t-10 -19q-2 -5 -5 -13t-9 -21q-12 -26 -19 -27q-2 -2 -4 -8.5t-5.5 -13.5t-8 -12.5t-11.5 -5.5q-9 -2 -12 7t-2 17q10 34 25 60t15 36q0 2 3 5.5t7 8t7 9t3 7.5q0 4 4.5 9t9.5 9.5t9.5 8.5t4.5 6q11 5 19 12t16 12q5 0 13.5 8t16.5 5
h12q6 0 12 -2q19 -3 19 -12q0 -1 3.5 -5.5t8 -10.5t8.5 -11t4 -7q3 -25 14 -49q5 -3 5 -14q0 -2 -2 -15t-6 -38q-5 -11 -9 -33q-2 -6 -4.5 -14t-6.5 -19q-1 -5 -8 -16.5t-7 -17.5q0 -5 -3 -14.5t-7 -19.5t-7.5 -18t-4.5 -11q-1 -2 -3.5 -11.5t-8.5 -26.5q-9 -29 -9 -43
q0 -29 26 -29q15 0 31 11.5t20 25.5q0 3 5 8.5t11 12t11 13t5 10.5q0 2 3.5 7t7.5 10.5t7.5 10.5t4.5 8q1 5 6.5 13t13.5 17q5 21 18 43q4 2 9 9.5t9 16t7.5 17t4.5 13.5q1 8 6.5 23t14.5 35q19 42 19 63q0 8 6.5 21t6.5 18q6 14 19 17h25q18 1 24.5 2t1.5 1q17 0 20 -9
t3 -17t-3 -22.5t-5 -19.5q0 -1 -3.5 -10.5t-8.5 -26.5q-12 -34 -8 -34q-9 0 -15 -38q-2 -13 -4.5 -24.5t-5.5 -23.5q-1 -2 -3 -12.5t-7 -27.5q-9 -35 -11 -35t-6 -49q-4 -27 7 -64q8 -20 30 -20q24 0 52 22z" />
    <glyph glyph-name="x" unicode="x" horiz-adv-x="495" 
d="M452 368q-2 5 -6 44q-2 33 -17 25q-18 -8 -26 -17t-23 -26q0 -4 -3.5 -9.5t-8 -11.5t-8.5 -10.5t-5 -7.5q0 -2 -3 -7.5t-6 -12l-6 -13t-3 -10.5q0 -7 -3.5 -17t-7.5 -21t-7.5 -21t-3.5 -16q-3 -17 -7 -44.5t-8 -63.5q0 -24 14 -45.5t34 -21.5q13 0 27 12q5 1 12 5.5
t15 9.5q3 4 18 19q5 3 11 15.5t12 16.5q7 4 19 38q13 36 16 36q2 1 6 7.5t8.5 13t9 10.5t7.5 1q7 0 9 -14q4 -13 -3.5 -28.5t-12.5 -29.5q-23 -57 -31 -57q-5 0 -22 -29q-13 -30 -20 -33q-6 -1 -35 -26q0 -5 -43 -17q-7 -1 -19.5 0.5t-29.5 7.5q-34 10 -34 28q0 5 -7 15
t-7 14q0 15 -11 15q-16 0 -31 -17q-41 -48 -77 -53q-3 -2 -14 -6.5t-16 -4.5q-20 3 -34 7.5t-22 7.5q-29 14 -29 43q0 4 1.5 14.5t3.5 27.5q1 13 15 22t28 9q7 0 15 -5q25 -22 25 -37q0 -6 -3 -17t-3 -17q0 -12 13 -9q14 2 14 0q0 1 4.5 5.5t10.5 9.5t11.5 9.5t7.5 6.5
q2 3 6 10t9 17q13 22 16 22q1 0 5.5 8.5t9.5 25.5q4 11 6.5 20t6.5 20q0 2 1 8.5t3 17.5q5 20 8 20q4 0 9 23q5 22 5 26q1 6 2.5 9t3 7t2.5 12t1 24q1 19 0 30q-3 15 -11 26q-16 22 -31 20q-3 -3 -21 -11q-4 0 -10.5 -5t-13 -10.5t-12 -10.5t-7.5 -5q-3 0 -22 -21l-17 -23
q0 -6 -7.5 -16.5t-10.5 -14.5q-4 -7 -9 -13.5t-10 -14.5q-2 -3 -4.5 -7.5t-5.5 -7.5q-8 -12 -16 -12q-12 0 -12 16q0 9 9 30q11 15 24.5 36t32.5 50q2 1 7 6.5t15 13.5q18 18 18 23t19 18q10 7 15.5 10t9.5 4.5t7 2t8 2.5q10 6 15 6q17 3 31 2q3 0 9 -3.5t9 -3.5
q5 0 15.5 -8t10.5 -13t4 -14t9.5 -19t12 -17t11.5 -7q2 0 5 3q14 14 18 23q4 0 48 42q21 18 49 18q42 0 63 -28q19 -19 19 -35q0 -8 -3 -21.5t-3 -21.5q0 -3 -5 -7t-11.5 -8t-14 -6.5t-11.5 -3.5q-14 -1 -31 16z" />
    <glyph glyph-name="y" unicode="y" horiz-adv-x="455" 
d="M488 454q0 -6 -2.5 -16t-8.5 -23q-12 -32 -12 -33q-8 -28 -18.5 -69.5t-24.5 -95.5q-2 -9 -7.5 -25.5t-14.5 -39.5q-9 -22 -14.5 -39t-7.5 -28q0 -4 -3.5 -12.5t-11.5 -23.5q-4 -12 -12.5 -27.5t-21.5 -35.5q-2 -2 -18 -37q-12 -27 -25 -27l-4 -4q-2 -2 -4.5 -5t-4.5 -5
q-2 -3 -5.5 -6.5l-7.5 -7.5q-8 -9 -16.5 -19t-18.5 -10q-21 -3 -33 -19q-4 -4 -43 -18q-15 -6 -26 -8.5t-17 -4.5q0 -4 -55 -3q-29 0 -71 48q-9 9 -9 28q0 20 9 46q7 18 45 18q27 0 27 -17q0 -8 2.5 -18.5t2.5 -16.5q0 -4 -1 -8t-2 -9q-4 -11 -5 -16t-1 -7q0 -8 12 -11
q75 -6 103 22q20 20 44 40.5t35 42.5q10 20 23.5 45t17.5 44l9 28q10 27 10 35q0 3 -2 3q4 0 6 29q3 30 5 30q-1 0 -4.5 -5t-7.5 -11t-7 -11t-3 -6q-3 -10 -7.5 -17.5t-7.5 -11.5q-11 -9 -16.5 -16t-9.5 -12t-8 -9.5t-12 -8.5q-15 -7 -17 -12q-21 -28 -54 -28q-18 0 -35.5 8
t-31 21t-22 30t-8.5 35q0 31 17 84q26 68 28 68q5 0 17 37q10 31 13.5 44.5t9.5 27.5q3 13 5 22.5t2 16.5q0 21 -21 20q-10 -2 -19 -11t-18 -17q-5 -3 -11.5 -10t-13 -14.5t-11 -14t-4.5 -9.5q-37 -61 -36 -61q2 0 -7 -9q-10 -10 -14 -10q-5 0 -5 11q0 6 1.5 14.5t4.5 16.5
t6.5 14t7.5 9q2 1 5.5 6t6.5 11l5.5 11t2.5 6q0 11 8 22.5t23 26.5q7 8 14 15.5t14 15.5q21 21 34 21q5 0 17.5 4t17.5 6q14 2 31 -14q4 -6 7 -9l8 -10q8 0 11 -43q1 -31 0 -43q-2 -14 -3 -24.5t-2 -18.5q-1 -5 -1 -8.5v-6.5q-6 0 -13 -25q-2 -5 -2.5 -9.5t-1.5 -7.5l-2 -6
q-3 0 -15 -25q-5 -12 -7 -19.5t-4 -10.5q0 -5 -12 -42t-11 -37q-9 0 -9 -44q0 -4 3.5 -8.5t8 -8.5t8 -7.5t3.5 -5.5q0 -1 5 -1q8 0 29 11q11 5 15.5 8.5t2.5 3.5q3 0 7 5t8 11t8 11t6 5q3 1 22 31q17 29 17 35q0 2 17 39q18 35 20 35q3 0 12 26q11 23 11 36q0 5 4.5 13
t9.5 17t9.5 17t4.5 13t2.5 11.5t6 13.5t6 13.5t2.5 10.5q0 16 12 46q6 11 16 16.5t27 5.5q19 0 35 -8.5t16 -25.5z" />
    <glyph glyph-name="z" unicode="z" horiz-adv-x="400" 
d="M363 414q8 0 8 9q1 1 1 23q0 48 23 48q14 0 22.5 -14.5t8.5 -28.5q0 -35 -24 -74q-8 -15 -17 -33.5t-23 -21.5q-3 -1 -6 -5t-6.5 -8.5t-6.5 -8t-6 -3.5q-2 -1 -8.5 -4t-13.5 -7q-5 -2 -13 -6q-5 -3 -5 -8q0 -4 -43 -20q-15 -5 -28.5 -10t-23.5 -8q-8 -4 -18.5 -7.5
t-25.5 -9.5q-5 -4 -15 -9t-23 -11q-14 -4 -28.5 -19.5t-14.5 -29.5q0 -17 26 -17q5 0 48 -8q41 -8 41 -11t8.5 -6t25.5 -4q23 -4 39 -4q11 4 21 5.5t20 2.5q0 2 10 8.5t16 8.5q7 4 16 16t14 15q11 5 13 32q2 9 12.5 19t20.5 10q9 0 9 -18q0 -34 -11 -34q-6 -11 -10.5 -20
t-4.5 -11q-2 -8 -11 -20q-6 -8 -9 -13t-5 -7q-27 -55 -69 -70q-3 -1 -14.5 -3.5t-31.5 -6.5q-39 -6 -39 -3q0 -3 -32 14q-8 5 -14 8l-10 5q-4 3 -8 4q-5 0 -36 31t-47 31q-7 0 -8 -7q-3 -6 0 -26q1 -13 2 -21.5t1 -12.5q0 -27 -22 -27q-5 0 -13.5 7.5t-13.5 10.5
q-11 3 -11 22q0 26 23 80q23 50 34 57q9 4 40 38q24 26 43.5 34t37.5 17l39 16q0 -1 61 27q62 30 62 43q0 8 -32 11q-6 0 -15.5 4t-19.5 9t-19 9t-14 4q-4 0 -12.5 1.5t-17.5 4t-18 4t-14 1.5q-20 0 -30 -16q-11 -11 -20 -21.5t-19 -21.5q-21 -26 -27 -51q-3 -12 -13 -12
q-16 0 -12 22q7 30 12 30q8 0 17 33q12 34 19 37q1 0 4 5t6.5 11t7 11t6.5 5q22 15 34 25t14 13q8 14 32 14q5 0 12 -0.5t14.5 -1.5t13.5 -1.5t9 -0.5q21 0 47 -33q13 -15 23 -24t17 -13q8 -4 18 -4z" />
    <glyph glyph-name="braceleft" unicode="{" horiz-adv-x="443" 
d="M472 825l-7 -10l-13 -3l-7 -4l-3 3h-7l-4 -3q-2 1 -4 2.5t-4 1.5l-41 -12l-7 -6l-6 -2l-7 -7l-7 -3q-6 -8 -7 -14l-6 -5v-6l-4 -3q-3 -6 -6.5 -14t-8.5 -18q3 -8 -9 -42h3q-2 -4 -3.5 -6.5t-2.5 -5.5l1 -11q-3 -5 -4.5 -14t-9.5 -34q-3 -13 -5 -22t-2 -15l-3 -4v-8l-3 -5
q-2 -3 -3.5 -9l-3.5 -14q-1 -6 0 -10q-9 -20 -27 -54l-8 -3v-7q-14 -5 -29 -23q-5 -1 -11 -4.5t-14 -8.5t-17 -7t-35 -7l8 -6l4 3l3 -2l8 -2t9 -3l6 -7q4 -2 9.5 -5.5t13.5 -7.5l5 -9q8 -5 8 -14l4 -7l-1 -6l3 -7l-2 -6l2 -15l-3 -9v-10q0 -3 -2 -13l2 -7l-3 -6l1 -7l-4 -10
q2 -14 0 -17t-5.5 -9.5t-7.5 -17.5l3 -13l-4 -6v-5q0 -1 -2 -9q-1 -6 0 -13l-6 -11l-1 -14l-10 -46l2 -6l-2 -14q6 -9 8 -22q4 -5 6 -15q3 -3 6 -7.5t7 -9.5h6l3 -5q3 -1 6.5 -2t7.5 -1l3 -3l7 2q2 -2 5.5 -2.5t7.5 -2.5q4 2 9 2h6.5t8.5 1l-3 -3q2 2 6 2l3 -3t4 -5l-2 -8
l2 -1l-2 -3q-2 -4 -5.5 -7t-8.5 -4v3l-6 -2l-6 2l-22 -3q-7 7 -29 4q-5 2 -15 4t-25 6q-2 8 -20 10q-1 2 -2 3.5t-1 3.5l-14 9q-2 7 -9 18q0 10 -2.5 27.5t-2.5 26.5l3 8q-2 15 10 66q13 59 13 77q2 4 4 9t6 11q-3 4 0 12l3 6l-2 7q9 24 9 46q0 35 -24 49h-6l-2 5
q-3 1 -11.5 3t-23.5 7l-9 -1l-4 -2q-5 4 -7.5 7.5t-4.5 9.5l8 11l12 6l-1 3l7 -3l13 5q22 -5 61 17q11 10 19.5 21t16.5 22l-2 3q2 2 3 5t3 7q9 41 8 42l8 12q0 10 -2 14l5 11q2 26 9 38q-2 11 4 23l-1 6l5 6l-2 5q1 2 3 9t4.5 15t4 15t0.5 9l10 21v5l3 8v4q3 6 8 14t13 17
q4 9 16.5 21t23.5 16q5 2 9 8l8 1h6q4 4 5 6t3 0h17l3 5l12 3l9 -2l14 5l17.5 -3.5t13.5 0.5l8 3q9 0 23 -8z" />
    <glyph glyph-name="bar" unicode="|" horiz-adv-x="605" 
d="M648 665q-9 -104 -79 -134q0 7 1 18.5t1.5 23.5t1.5 23t1 16q0 34 -19 53q-66 -21 -109 -77q5 -20 5 -34q0 -15 -3.5 -32t-9.5 -37q-9 -29 -13.5 -45.5t-6.5 -22.5q3 -15 14 -15q4 0 10.5 2.5l13 5t11.5 5t7 2.5l28 29q9 -12 9 -29q0 -30 -19 -49q-17 -36 -55 -36
q-18 0 -29 8q-23 12 -23 49v9v5.5t1 7.5v21q0 28 -14 34q-32 -30 -32 -72q0 -9 1.5 -21.5t4 -25.5t4 -24.5t1.5 -17.5q0 -52 -69 -65q-17 32 -17 57q0 28 18 49q35 38 35 96q0 8 -0.5 14.5t-2.5 9.5q-5 -6 -14 -17.5t-19 -31.5q-11 -20 -20 -33t-17 -21q-26 -28 -57 -31
q-46 42 -46 65q0 17 16 34l20 21q2 -13 9.5 -22.5t17.5 -18.5q4 -3 10 -3q9 0 18 5.5t16.5 13t13.5 16.5t8 17q-14 12 -14 34q0 13 8 37q33 16 33 51q0 12 -4 20q-4 20 -17.5 36.5t-30.5 16.5q-20 0 -38 -26q-28 -6 -34 -43q-7 -39 -20 -49q-9 -2 -16.5 3.5t-13 16t-8 24.5
t-2.5 28q0 11 3 20q9 17 18 32.5t17 32.5q25 40 66 49q44 -8 96 -85q3 -7 5.5 -15t2.5 -18t-2.5 -28t-2.5 -26q0 -15 8 -26q44 50 44 123q0 9 -1 24t-2.5 31.5t-2.5 32t-1 24.5q0 89 72 146q12 3 18 3q25 0 26 -37q3 -43 16 -50q-5 -21 -19.5 -55.5t-39.5 -83.5
q-43 -85 -43 -129q0 -8 1 -15l2 -14l34 52l34 52q44 62 99 80q56 9 86 -64z" />
    <glyph glyph-name="braceright" unicode="}" horiz-adv-x="358" 
d="M383 406q-4 -6 -8.5 -9.5t-9.5 -7.5l-2 2l-11 1q-5 -2 -15 -4.5t-23 -5.5l-3 -5h-6q-53 -26 -57 -95l-5 -7v-6q0 -3 -3 -11t-2 -21q-6 -14 -18 -77q-11 -53 -18 -66v-8q-5 -8 -12 -21.5t-16 -32.5q-6 -2 -16 -18l-20 -9q0 -4 -4 -7q-9 -1 -16 -4t-10 -6q-8 -2 -19 -4
t-26 -6q-21 3 -31 -4l-20 3l-6 -2l-6 2v-3q-8 2 -9 11v3l1 1l3 8q8 8 10 8q5 0 3 -2l-2 3q8 0 25 -3q5 2 8.5 2.5t6.5 2.5l5 -2l4 3q4 0 8 1t9 2l5 5h8q3 4 7.5 7.5t10.5 9.5q5 11 11 15q5 6 9 11.5t9 10.5l3 14l5 6l9 46l8 14l-3 11q1 9 9 27v6l8 13q-2 6 -2 11v16q2 2 3 6
t3 11l2 10l3 7v6l5 7l3 9t4 14v9l11 15v6l5 7l3 6l6 7q5 10 15 14l6 9q6 3 13 6t18 7l8 7l18 5l5 2l3 -3l9 6q-3 1 -11 3t-19 6q-9 0 -16 5q0 4 -17 13q-9 17 -18 23v7l-5 3q-1 9 -2 22.5t-2 31.5q1 5 2.5 14t4.5 19l-1 5l1 8v4q3 6 4.5 16.5l3 21t3.5 20.5t5 15q1 7 0 12
l6 11v12h3q0 13 8 42q-2 6 -2 13v19l-3 3l1 6l-1 5q0 3 -1 6.5t-2 7.5l-5 3l-3 7l-8 2l-1 6l-39 12q-1 0 -3.5 -1.5t-3.5 -2.5l-5 3h-4l-7 -3l-6 4l-9 3l-5 10l2 7q19 8 28 8l4 -3q6 -2 14 -0.5t19 3.5l12 -5l9 2l11 -3l3 -5h17q0 1 4 -6h7l6 -1q0 -1 5.5 -5t11.5 -10
t10.5 -13.5t3.5 -16.5q5 -4 5.5 -15t1.5 -16l-1 -4v-8l-3 -5l1 -21q-2 -20 -9 -48l-3 -5l1 -6l-3 -6q1 -10 -6 -23q3 -10 -8 -38l2 -11q-5 -5 -8 -14l2 -12q-2 -2 -3 -12t-5 -30q2 -1 1 -4t-2 -8l-2 -3q5 -23 17 -43q30 -21 55 -17l10 -5l7 3v-3l8 -6z" />
    <glyph glyph-name="asciitilde" unicode="~" horiz-adv-x="674" 
d="M722 705q-10 -42 -45 -74q-19 -19 -23 -29l-9.5 -9.5t-13.5 -12.5q-11 -5 -29 -23q-3 -11 -13 -11q-13 -6 -28 -12.5t-33 -13.5h-6q-1 0 -11 -2q-15 -1 -20 -2t-2 -2l-31 3q-8 -3 -13 1q-10 7 -14 7q-8 0 -21.5 2t-31.5 5q-40 8 -27 8q-1 0 -25 8q-5 0 -13.5 1t-18.5 2.5
t-20 2.5t-17 1q-6 0 -19 -4.5t-23 -4.5q-6 0 -21 -21q-11 -5 -22 -16q-1 -2 -3 -7t-6 -13q-1 -1 -4 -1q-2 0 -4 -2q-6 -4 -14 -7t-18 -7q-8 -1 -18 2t-20 11l7 12v5q0 3 2 7q17 37 17 29q-2 1 21 33q3 3 11 14q0 5 5 13q5 4 12 5q0 3 34 28q6 7 13 13t18 11q4 4 13 8
q13 4 26 7t28 8q6 -1 13 -0.5t18 2.5q12 9 34 6q5 0 16.5 -5t17.5 -4q8 2 19.5 1t26.5 -4q6 -4 17 -8t28 -8q6 3 16 0q0 -2 5 -7q2 1 3 2t5 2q2 -1 5.5 -3t8.5 -4q2 1 15 1q13 -2 12 -3q3 3 13 8q8 -5 26 -5q4 5 10 10t16 10q1 2 6.5 8.5t14.5 19.5l19 18q7 7 11 7
q1 0 3.5 -4t3.5 -6q11 -1 21.5 4.5t15.5 5.5q4 0 8.5 -3.5t1.5 -13.5z" />
    <glyph glyph-name="exclamdown" unicode="&#xa1;" horiz-adv-x="282" 
d="M231 654q-4 -4 -20 3q-21 8 -17 15q2 8 -6 14q-10 4 1 37q4 4 7.5 9t8.5 13q3 3 6 5q6 4 18 15q0 6 11 6q4 0 9 -1t13 -2q3 -2 7 -2.5t8 -2.5q26 -2 26 -38q0 -10 -3 -18.5t-14 -28.5q-6 -3 -11 -6.5t-10 -5.5q-1 -1 -2 -1t-3 -1t-5 -1.5t-7 -2.5t-8 -3t-9 -3zM198 578
q3 8 13 8q8 0 14 -6.5t4 -11.5q-1 -8 -1 -15v-15t-0.5 -15t-1.5 -15l-18 -143q-2 -6 -4.5 -25.5t-8.5 -53.5q0 -29 -3 -89q-1 -7 -1 -14v-14t-0.5 -13.5t-1.5 -13.5q-2 -32 -9 -56q-4 -6 -7.5 -15t-9.5 -20q-2 -3 -8 -8t-13 -10.5t-12 -9.5t-5 -5q-3 -18 -39 -18
q-44 0 -51 18q-1 8 -4 15.5t-8 18.5q-6 6 -3 37t8 31q2 6 3 11q2 6 5 14.5t7 19.5q16 46 20 46t37 91q15 42 24 67t11 33q13 45 20 66t7 23q8 26 17 47.5t19 39.5z" />
    <glyph glyph-name="cent" unicode="&#xa2;" horiz-adv-x="529" 
d="M502 311q-16 -43 -50 -82q-39 -45 -78 -52q-13 -4 -26.5 -7t-25.5 -7q-31 -8 -54 -3q-12 2 -28 4t-37 5l-9 -23q-5 -5 -12.5 -20t-18.5 -35q-8 -12 -18 -33q-6 -5 -14 -12t-17 -18q-5 -5 -9 -5q-14 0 -14 23q0 16 14 39q3 7 8.5 17t12.5 23q4 8 10.5 21.5t17.5 33.5
q1 2 2.5 6t5.5 11q-18 16 -27 28q-21 27 -21 29q2 2 -8 20q-5 2 -8 11t-5 20.5t-3 22.5t-1 18q2 5 1 17.5t-1 18.5q2 4 5.5 13t6.5 18.5t5.5 18.5t2.5 14q7 34 51 88q98 119 205 131q1 3 3 9.5t7 17.5l5 10t8 15q1 6 4 13.5t8 18.5q4 6 7.5 14.5t9.5 19.5q12 12 29 32
q3 7 8 7q15 0 15 -25q0 -16 -9 -35q-4 -8 -8.5 -18t-11.5 -22q-4 -8 -9.5 -22.5t-13.5 -34.5l-2 -5q4 -2 8 -2.5t9 -2.5t33 -20q25 -13 37 -13q4 0 10.5 6t13.5 13t13.5 13t11.5 6q17 0 17 -22q0 -11 -6 -27q-8 -29 -8 -26q-4 -13 -7.5 -31.5t-9.5 -44.5q-2 -5 -4.5 -14.5
t-7.5 -22.5q-12 -34 -20 -34q-3 0 -5 4t-4 9.5t-3 10.5t-1 7q-2 6 -4 14.5t-3 19.5q2 6 0 15.5t-6 19.5t-9.5 18t-9.5 10q-8 6 -15 12.5t-14 12.5q-32 23 -39 23q-1 0 -1 -3q0 4 -11 4h-11q-8 0 -12 -1t-7.5 -1t-7.5 -1q-4 0 -11 -2.5t-14 -6t-13 -6t-9 -2.5l-12 -12
t-12 -14q-2 -2 -6.5 -8t-12.5 -16q-15 -19 -18 -19q-8 0 -26 -74q-20 -74 -17 -74l-2 -86q0 -18 31 -58q16 -22 78 -34q27 -4 55.5 8.5t54.5 26.5q7 3 15.5 10.5t16.5 17.5t14 21t9 21q21 61 34 61q9 0 9 -29q0 -18 -4 -26z" />
    <glyph glyph-name="sterling" unicode="&#xa3;" horiz-adv-x="560" 
d="M548 243q-26 -86 -28 -86q-7 0 -28 -51q-9 -17 -34 -44q-28 -31 -40 -31l-21 -9q-8 -4 -20 -5q-2 -6 -52 -3q-25 0 -46.5 15.5t-41.5 30.5q-13 8 -24.5 11.5t-23.5 3.5q-8 0 -21 -15q-6 -5 -11 -9.5t-11 -10.5q-46 -35 -101 -31q-42 3 -42 49q0 27 15 48q17 22 37.5 35.5
t46.5 16.5q13 4 31.5 7.5t44.5 6.5q3 0 7.5 3t9.5 7q2 2 5 4.5t5 5.5q0 6 1 10l3 30q2 25 3.5 44t1.5 32q0 43 -14 43q-4 0 -12 7t-14 7h-31q-21 0 -33 1t-19 3t-10.5 5t-6.5 6q0 5 6 13.5t8 9.5q14 8 23 8h9q4 0 9.5 -0.5t12.5 -1.5q19 -2 30 0q21 5 28 22q2 1 8 32t23 82
q1 12 18 38q17 32 25 32q-3 0 14 17q16 19 20 20q24 24 40 26q27 14 92 28q5 1 9 1.5t9 0.5h10t10 1q27 3 30 -9q1 0 5.5 -1.5t14.5 -3.5q19 -5 17 -7q15 -11 32 -28q1 -6 5.5 -12t11.5 -14q6 -3 6 -16q0 -7 -3.5 -19.5t-8.5 -32.5q-10 -26 -34.5 -44.5t-50.5 -18.5
q-24 0 -40 17t-12 42q1 9 8 19.5t18 21.5q25 22 26 37q3 11 -28 23q3 3 -15 3q-28 0 -48 -4q-28 -6 -30 -11q-8 -6 -18 -12t-21 -13q-4 -3 -8 -8t-9 -10q-1 -2 -4 -5.5t-7 -8.5q-3 0 -7 -40q-2 -7 -1 -18.5t2 -27.5q3 -29 0 -45q0 -8 6.5 -20.5t6.5 -16.5q0 -5 10 -9
q5 -2 7 -3.5t3.5 -3t4.5 -2t10 -0.5h13h7.5t8.5 1h19h12q4 0 8.5 0.5t9.5 1.5h31q16 0 16 -28q0 -9 -5 -9q2 0 -3 -1.5t-12.5 -3t-15.5 -3t-12 -1.5q-7 0 -5 3h-20q-9 0 -22.5 -0.5t-31.5 -1.5q-36 0 -52 -55q-6 -21 -11 -42t-10 -41q-13 -20 -27 -56q0 -18 23 -24
q2 -1 11 -3.5t26 -6.5q21 -5 44 -6t49 0q44 5 84 74q4 8 6.5 15.5t6.5 15.5q6 13 9.5 18.5t5.5 8t3.5 2.5t4.5 2t6 3t4 1q6 0 8 -12.5t2 -16.5zM145 109q0 13 -20 13q-10 0 -21.5 -3t-22 -8t-19 -11t-11.5 -11q-5 -12 -5 -15q0 -6 6.5 -10t13.5 -6q8 -2 14 -2.5t17 6.5
q12 7 24.5 16t17.5 15t5.5 9.5t0.5 6.5z" />
    <glyph glyph-name="currency" unicode="&#xa4;" horiz-adv-x="452" 
d="M323 380q10 -2 17.5 -2.5t13.5 -1.5t12.5 -4t14.5 -10l8 -17l15 12l12 6t18 10q8 5 20.5 12.5t29.5 18.5q1 1 5 4t9.5 7t11 7.5t8.5 4.5q2 2 4 2h5q8 0 21 -11q0 -2 1 -3.5t2 -4.5q0 -2 -0.5 -5t0.5 -6t-1 -11t-9 -10t-19 -7l-30 -18q-8 -4 -16 -13t-13 -11
q-25 -16 -25 -17q0 1 -2 1l-2 -1l-8 -5q8 -18 8 -33t-5 -35l-11 -45q0 -2 -4.5 -10t-10.5 -17.5t-10.5 -18t-4.5 -11.5l-1 -1q3 -3 7 -9t10 -14q10 -11 30 -36q2 -1 11 -9t12 -13l1 -1q2 -6 1 -12q-2 -4 -4.5 -8.5t-7.5 -12.5q-2 -2 -3 -3.5t-5 -3.5q-1 -1 -4.5 -2.5
t-7.5 -3.5q-7 -4 -13 -4t-7.5 6t-6.5 14q-2 5 -8 11t-9 12t-12 9.5t-12 6.5q-8 8 -11.5 21t-5.5 14q0 -1 -5.5 -4.5t-13 -8t-15.5 -9t-14 -7.5q-25 -12 -25 -13t-18.5 -6t-36.5 -5q-9 0 -20 4t-21 8.5t-17 9t-7 6.5q-4 -2 -13 -8t-18.5 -13t-17.5 -12.5t-10 -6.5
q-7 -5 -12 -8t-8 -5l-6 -4q2 1 0 0.5t-5 -0.5q-1 -2 -2.5 -3l-4.5 -3q-10 -5 -11 -8l-24 -3q-7 0 -12 14q-2 6 -2 10q0 7 1 10q2 8 8 10q5 8 17 15l30 18q8 5 15 10.5t24 16.5q10 5 15.5 7.5t10.5 4.5q9 2 5 9t-8 9q-7 0 -7 31q2 14 1.5 22t-0.5 10q0 7 3 15q10 44 39 85
l2 6l-17 22q-4 7 -13 10.5t-11 6.5q-8 8 -11.5 12.5t-4.5 5.5v1q0 1 0.5 1.5t0.5 2.5q-2 2 -3.5 2.5t-2.5 2.5q-2 4 -4.5 5.5t-3.5 2.5l-1 20q-1 1 0 4q1 7 14 17q15 9 23 9q5 0 7 -3q4 -1 15 -10q2 -4 6 -9.5t9 -13.5q6 -5 13 -14t17 -22q2 -1 6.5 -4.5t8.5 -8.5q4 2 6.5 3
t6.5 3l25 18q15 5 19 6q3 1 7 1l19 3q17 4 33 4zM187 197q-1 -5 -1.5 -11t-0.5 -13q-1 -13 -0.5 -20t0.5 -10q-3 -13 -0.5 -23.5t8.5 -21.5q12 -15 18 -15q5 -1 8.5 -1.5t7.5 -1.5q6 -2 12.5 -3t9.5 -1q6 0 6 2q8 0 48 25q3 0 15 17q7 13 7 15v1q3 0 7.5 8t5.5 10
q3 11 6.5 22t5.5 22q2 6 4.5 18t4.5 23l2 8q2 8 2 12v14q-2 10 -2.5 16.5t-1.5 10.5q3 12 -5.5 26t-20.5 19q-4 1 -9 2t-13 1q-5 0 -10.5 -0.5t-11.5 -1.5q-23 0 -28 -8q-1 -1 -6 -5t-16 -13q-4 0 -13 -17q-12 -15 -13 -20q-1 -2 -6.5 -22t-17.5 -58z" />
    <glyph glyph-name="yen" unicode="&#xa5;" horiz-adv-x="843" 
d="M902 743q5 -13 -6 -23.5t-25 -10.5q-60 -1 -94 -35q-11 -12 -24.5 -24.5t-32.5 -27.5q-2 -1 -8 -5.5t-13.5 -9.5l-13.5 -9t-8 -4q-9 0 -25 -28q-16 -27 -21 -29q-6 -4 -13 -19q-3 -7 -5.5 -10t-5 -5.5t-5.5 -6t-7 -11.5q-6 -14 -10 -14q-8 0 -25 -29q-17 -28 -20 -30
q-35 -15 -65 -97q-1 -5 -3 -11l-4 -12h38q19 3 28 0q13 0 18 -4t10 -17q0 -8 -7 -20.5t-18 -12.5h-19h-25.5t-35.5 -1q-2 -6 -3 -17t-3 -28h12h8q3 0 6.5 0.5t8.5 1.5h26q13 -2 18.5 -5.5t11.5 -17.5q0 -8 -8 -19.5t-19 -11.5q2 0 -9 2t-35 6q-28 4 -29 -10q-3 -12 -4.5 -21
t-3.5 -15q-1 -5 -3 -13q0 -3 1 -4q-1 0 -1 -2q0 -3 3.5 -8.5l7 -11t7 -8.5t3.5 -1q-2 -9 43 -9q7 1 13 1h12h25q29 -2 29 -18q0 -26 -40 -26q-19 0 -59 3l-30 1q-7 1 -13.5 1.5t-13.5 0.5h-26q-13 -1 -22.5 -1.5t-16.5 -0.5q-14 0 -15 -1q-4 1 -8 1h-8q-6 0 -16 2h-31
q-8 0 -16 -0.5t-16 -1.5q-36 0 -40 2h-43h-2q-2 0 -4 0.5t-5 0.5q-5 0 -7 2q0 3 1 10.5t9 9.5q7 34 43 34q33 0 74 -23q35 11 46 40q2 3 6 17t10 38q-16 0 -46 3q-6 4 -15 7l-21 7q-6 1 -6 6q0 9 12.5 19t22.5 10q5 0 15 1.5t15 1.5h14h10.5t10.5 -1q2 5 3 17t5 29
q-8 -2 -19.5 -0.5t-25.5 3.5q-6 4 -15 7t-20 7q-8 2 -8 6t4 9t9.5 9t12 7t11.5 3t14.5 2t14.5 2q3 -1 12 -1h19l5 32q0 9 -7 25q-3 5 -4 9.5t-1.5 10t-2 12t-7.5 15.5q-4 5 -7 18.5t-7 17.5q-1 2 -2 9t-2 18q0 5 -1.5 7t-3.5 5.5t-4.5 11t-4.5 23.5q-5 30 -9 30q-5 0 -11 30
q-8 29 -9 29q-2 0 -8 28q-8 31 -12 32q-6 3 -10.5 10.5t-9 15.5t-10 15t-12.5 10q-10 4 -37 1q-29 -2 -41.5 3t-10.5 13q0 15 4 20t19 10q26 2 51.5 -0.5t57.5 -2.5h78q20 0 40.5 0.5t40.5 1.5h41q43 1 43 3q6 -4 14 -23q-3 -19 -28 -20q-2 0 -10 0.5t-18 1l-20 1t-16 0.5
q-49 0 -56 -22q0 -7 1 -10t2.5 -6l4 -8t5.5 -17q6 -13 4 -19q0 -6 16 -37q13 -27 13 -40q0 -9 4 -21t8.5 -25t9 -25t5.5 -19q0 -8 9 -33q7 -24 12 -24q2 0 4.5 -1t4.5 -2q5 -3 10 0q5 0 15 10q-3 0 14 17q3 4 7.5 7.5t7.5 6.5q3 12 34 49q33 37 37 47q6 5 13.5 14.5
t17.5 21.5q5 11 12 21t14 21q20 32 20 43q0 3 -3.5 4.5t-11.5 15.5l-8 15q-6 10 -34 13q-11 0 -20 1t-18 5q0 1 -5 6.5t-5 8.5q0 5 8 13q1 3 23 6q26 5 68 3q8 -1 15.5 -1h12.5h11t9 -1q5 -1 9 -1h7q6 0 68 3q17 1 32 2t27 1q0 3 4 3t10 -2t12 -4.5t10 -5.5t4 -5z" />
    <glyph glyph-name="brokenbar" unicode="&#xa6;" horiz-adv-x="231" 
d="M231 632q-5 -26 -11.5 -59.5t-14.5 -75.5q-2 -11 -3.5 -21.5t-3.5 -21.5q-3 -15 -6.5 -24t-9 -15t-13 -9.5t-18.5 -8.5q-13 -2 -29 4t-16 19q4 17 8.5 41.5t10.5 58.5q5 20 9.5 43t10.5 49q1 17 9 43q1 14 12 43q14 17 32 47q6 10 16 10q13 0 24.5 -12t7.5 -25
q3 -19 -15 -86zM163 298q-4 -9 -7 -22t-8 -30q-4 -26 -10.5 -59.5t-14.5 -75.5q-1 -11 -3.5 -21.5t-4.5 -21.5q-5 -30 -18 -40q-10 -10 -28 -17q-6 -1 -14.5 0t-16 4t-11.5 8t-2 11q3 17 7.5 41.5t10.5 58.5q5 20 9.5 43t10.5 49q2 8 3 19t5 24q2 8 5.5 18.5t8.5 24.5
q7 8 15 19.5t17 26.5q5 11 14 11q13 0 24 -12t10 -25v-14q0 -4 -0.5 -9t-1.5 -11z" />
    <glyph glyph-name="section" unicode="&#xa7;" horiz-adv-x="428" 
d="M411 448q-51 -97 -68 -85q11 -30 15.5 -57.5t4.5 -53.5q0 -60 -25 -109q-49 -83 -84 -115q-31 -27 -76 -25q-22 2 -36.5 3t-21.5 5q-12 4 -23.5 13t-21 22.5t-15.5 30t-6 34.5q0 53 38 103q25 34 59 34q29 0 35 -26q-1 -18 -8 -30.5t-20 -22.5q-7 -5 -20 -11.5t-33 -14.5
q-7 -5 -8 -17q-3 -13 1 -18q18 -23 38 -33t44 -10q9 0 18.5 2t18.5 5q48 32 76.5 77t28.5 88q0 14 -5 34q-23 42 -102 91q-80 50 -98 83q-35 56 18 137q54 70 54 121q0 13 -3.5 34.5t-3.5 34.5q0 40 35 93q65 98 152 98q38 0 63 -24t26 -67q-5 -28 -9.5 -45t-6.5 -22
q-8 -20 -21 -32.5t-30 -20.5q-25 -3 -34 2.5t-11 25.5q-1 3 -1 14q0 25 33 54q18 15 26 24t8 14q0 14 -29 28q-11 4 -29 4q-28 2 -51.5 -9.5t-40 -30.5t-25 -42.5t-6.5 -44.5q0 -59 52 -105q24 -17 47.5 -35.5t47.5 -36.5q53 -44 53 -92q0 -34 -20 -74zM371 472
q1 82 -57 114q-14 8 -44 15.5t-78 15.5q-11 -21 -9 -75q3 -39 57 -88q54 -48 86 -40q7 4 12 7t10 7q20 20 23 44z" />
    <glyph glyph-name="dieresis" unicode="&#xa8;" horiz-adv-x="645" 
d="M688 1057q1 0 1 -3q0 -5 -3 -14t-11 -22q-7 -12 -11.5 -20t-8.5 -10q-31 -31 -80 -31l-32 14q-23 44 -21 44q-2 0 4 27q7 28 9 30q28 25 27 25q-2 0 4 3.5t19 8.5q5 2 10 4.5t11 4.5q2 5 32 -3q30 -6 33 -15q21 -43 17 -43zM472 1057q2 0 2 -3q0 -10 -14 -36
q-7 -12 -11.5 -20t-8.5 -10q-31 -31 -80 -31l-32 14q-24 44 -22 44q-3 0 5 27q6 28 9 30q28 25 26 25q-1 0 4.5 3.5t18.5 8.5q6 2 11 4.5t11 4.5q1 4 32 -3q30 -6 32 -15q21 -43 17 -43z" />
    <glyph glyph-name="copyright" unicode="&#xa9;" horiz-adv-x="622" 
d="M660 555q-13 -57 -42.5 -105t-80.5 -90q-97 -80 -211 -80q-49 0 -90 16t-70.5 45t-46 69t-16.5 88q0 27 6 57q24 114 122 194q100 82 212 82q49 0 90 -16t70.5 -45.5t46 -69.5t16.5 -88q0 -14 -1 -28t-5 -29zM609 602q0 37 -13 69t-37 55t-56.5 36t-71.5 13
q-105 0 -189 -81t-84 -185q0 -38 13 -69.5t37 -55t57 -36.5t72 -13q102 0 188 80q84 79 84 187zM497 483q-5 -14 -14 -29t-21 -27.5t-25 -22t-26 -12.5q-17 -3 -36.5 -7.5t-34.5 -2.5q-17 3 -35.5 6t-27.5 12q-16 13 -25 25q-7 9 -10 13t-4 6.5l-2 5t-4 8.5q-3 2 -5 8
t-3.5 13.5t-2 15t0.5 11.5t0.5 12t-0.5 11q1 8 6.5 22.5t6.5 22.5q5 23 34 57q60 73 120 84q33 7 60 -3q7 -3 14 -7t12 -8q18 -11 27 -6q1 0 4.5 3.5t7.5 8t8 8.5t7 4q11 0 11 -15q0 5 -9 -34q-2 -8 -4.5 -21t-6.5 -30q-12 -47 -22 -47q-3 0 -6 8t-1 12q-2 3 -2.5 9t-2.5 14
q1 4 -0.5 10.5t-4 13t-6 11.5t-6.5 6q-5 5 -12 10t-12 10q-22 16 -23 11q1 3 -7 3h-7q-6 0 -9 -1q-2 -1 -5 -1t-5 -1q-5 0 -16 -5.5t-15 -5.5q-3 -3 -7 -7.5t-8 -9.5q0 -2 -4 -6.5t-8.5 -9.5t-8.5 -9l-4 -4q-5 0 -29 -98l-1 -59q1 -5 5.5 -14.5t15.5 -23.5q14 -14 53 -23
q17 -4 35 5.5t37 18.5q25 9 38 48q15 38 20 38q4 0 6 -12q2 -7 1 -12.5t-2 -10.5z" />
    <glyph glyph-name="ordfeminine" unicode="&#xaa;" 
 />
    <glyph glyph-name="guillemotleft" unicode="&#xab;" horiz-adv-x="683" 
d="M663 111q0 -7 -4 -16t-10 -17.5t-13 -14t-13 -5.5q-4 0 -8 4q-9 2 -20.5 5.5t-25.5 9.5q-3 6 -10 13.5t-16 15.5q-4 2 -16 14l-35 35q-22 25 -33.5 38.5t-15.5 17.5q-35 31 -75 75q-6 7 -13 17.5t-18 25.5q-22 4 -31 23q-5 7 0 30q3 16 28 35q10 7 19 13.5t20.5 14.5
t27 20t37.5 29q48 48 99.5 98.5t105.5 104.5q6 6 14 14.5t18 19.5q7 4 17 4q14 0 26.5 -8t12.5 -19q0 -2 -1 -4.5t-2 -6.5q-5 -9 -12 -21t-16 -27q-6 -5 -15 -13.5t-20 -20.5q-5 -6 -63 -60q-29 -26 -45.5 -42t-22.5 -19q-20 -20 -44 -43t-50 -49q-6 -4 -12 -9.5t-14 -10.5
q8 -13 21 -32.5t30 -43.5q39 -37 80.5 -77t86.5 -83q3 -1 19 -17q12 -12 12 -18zM422 111q0 -7 -4 -16t-10.5 -17.5t-14 -14t-13.5 -5.5q-4 0 -8 4q-8 2 -19 5.5t-25 9.5q-10 15 -28 29q-2 2 -14.5 14t-34.5 35q-22 25 -34 38.5t-15 17.5q-18 16 -36.5 34.5l-40.5 40.5
q-5 6 -12.5 16.5t-18.5 26.5q-22 4 -31 23q-2 7 0 30q3 14 29 35q9 7 18 13.5t20.5 15t27.5 20t39 28.5l203 203l34 34q4 4 15 4q14 0 27 -8t13 -19q0 -4 -4 -11q-8 -18 -27 -48q-12 -9 -35 -34q-5 -6 -63 -60q-29 -26 -46 -42t-22 -19q-40 -40 -95 -92q-5 -4 -11 -9.5
t-14 -10.5l20 -32.5t30 -43.5q40 -37 82 -77t87 -83l18 -17q13 -10 13 -18zM632 146q3 -1 19 -17q12 -12 12 -18q0 -7 -4 -16t-10 -17.5t-13 -14t-13 -5.5q-4 0 -9 4q-2 2 -8.5 4t-14 3.5t-14 3.5t-8.5 4q-8 9 -14.5 16t-11.5 13q-4 2 -16 14l-35 35q-22 25 -33.5 38.5
t-15.5 17.5q-21 22 -39.5 40.5t-35.5 34.5l-31 43q-22 4 -31 23q-5 7 0 30q3 16 28 35q21 13 38 29q23 17 39.5 29.5t26.5 18.5q55 54 106 104.5t99 98.5q11 11 19 19.5t13 14.5q7 4 17 4q14 0 26.5 -8t12.5 -19q0 -2 -1 -4.5t-2 -6.5q-10 -16 -17 -28t-11 -20
q-11 -11 -20.5 -19.5t-14.5 -14.5t-63 -60q-29 -26 -45.5 -42t-22.5 -19q-27 -26 -50.5 -49t-43.5 -43q-6 -4 -12 -9.5t-14 -10.5q24 -36 36.5 -55t14.5 -21q45 -43 86.5 -83t80.5 -77zM391 146l18 -17q13 -10 13 -18q0 -7 -4 -16t-10.5 -17.5t-14 -14t-13.5 -5.5q-4 0 -8 4
q-1 1 -7 3t-13.5 4t-14.5 4t-9 4l-17 17t-11 12q-2 2 -14.5 14t-34.5 35q-22 25 -34 38.5t-15 17.5q-23 22 -41.5 40.5t-35.5 34.5l-31 43q-22 4 -31 23q-2 7 0 30q3 14 29 35q9 6 18.5 13.5t20.5 15.5q23 17 39 29.5t27 18.5l203 203l34 34q4 4 15 4q14 0 27 -8t13 -19
q0 -4 -4 -11q-8 -15 -15 -26.5t-12 -21.5q-11 -11 -20 -19.5t-15 -14.5q-5 -6 -63 -60q-29 -26 -46 -42t-22 -19q-26 -26 -50 -49t-45 -43q-5 -4 -11 -9.5t-14 -10.5q47 -73 50 -76q45 -43 86 -83t83 -77zM663 111q0 -7 -4 -16t-10 -17.5t-13 -14t-13 -5.5q-4 0 -8 4
q-9 2 -20.5 5.5t-25.5 9.5q-3 6 -10 13.5t-16 15.5q-4 2 -16 14l-35 35q-22 25 -33.5 38.5t-15.5 17.5q-35 31 -75 75q-6 7 -13 17.5t-18 25.5q-22 4 -31 23q-5 7 0 30q3 16 28 35q10 7 19 13.5t20.5 14.5t27 20t37.5 29q48 48 99.5 98.5t105.5 104.5q6 6 14 14.5t18 19.5
q7 4 17 4q14 0 26.5 -8t12.5 -19q0 -2 -1 -4.5t-2 -6.5q-5 -9 -12 -21t-16 -27q-6 -5 -15 -13.5t-20 -20.5q-5 -6 -63 -60q-29 -26 -45.5 -42t-22.5 -19q-20 -20 -44 -43t-50 -49q-6 -4 -12 -9.5t-14 -10.5q8 -13 21 -32.5t30 -43.5q39 -37 80.5 -77t86.5 -83q3 -1 19 -17
q12 -12 12 -18zM422 111q0 -7 -4 -16t-10.5 -17.5t-14 -14t-13.5 -5.5q-4 0 -8 4q-8 2 -19 5.5t-25 9.5q-10 15 -28 29q-2 2 -14.5 14t-34.5 35q-22 25 -34 38.5t-15 17.5q-18 16 -36.5 34.5l-40.5 40.5q-5 6 -12.5 16.5t-18.5 26.5q-22 4 -31 23q-2 7 0 30q3 14 29 35
q9 7 18 13.5t20.5 15t27.5 20t39 28.5l203 203l34 34q4 4 15 4q14 0 27 -8t13 -19q0 -4 -4 -11q-8 -18 -27 -48q-12 -9 -35 -34q-5 -6 -63 -60q-29 -26 -46 -42t-22 -19q-40 -40 -95 -92q-5 -4 -11 -9.5t-14 -10.5l20 -32.5t30 -43.5q40 -37 82 -77t87 -83l18 -17
q13 -10 13 -18z" />
    <glyph glyph-name="logicalnot" unicode="&#xac;" horiz-adv-x="406" 
d="M391 160q-2 -8 -5.5 -18.5t-7.5 -24.5q-16 -20 -33 -46q-3 -11 -14 -11q-13 0 -24.5 12t-8.5 25q-2 11 0 34q4 11 8 26.5t9 37.5l3.5 24.5t3.5 18.5l-48 -1h-46q-11 1 -19.5 1h-13.5h-12q-44 0 -43 -1q-16 0 -43 3l-17 8.5l-17 8.5t-12.5 8t-2.5 7q0 6 4.5 13.5t11.5 14
t15 11t15 4.5q5 0 16.5 4t17.5 4q9 -1 26 -3t26 -2h22q8 0 20 0.5t26 1.5q26 2 42.5 2.5t24.5 -0.5q15 0 33 3t26 4q6 1 14.5 0t16 -4t11.5 -8t2 -11q-3 -17 -7.5 -41.5t-10.5 -58.5q2 4 1 3t-3 -6q-1 -8 -2.5 -19t-4.5 -24z" />
    <glyph glyph-name="uni00AD" unicode="&#xad;" horiz-adv-x="400" 
d="M429 412q0 -6 -3 -14.5t-8 -16t-11 -13t-12 -5.5q15 0 -100 -3h-47h-45h-43q-8 0 -18.5 1t-24.5 2q-3 0 -8.5 3.5t-12 8t-12.5 8t-10 3.5q-6 1 -6 9q0 5 4.5 12.5t11.5 14t15 11.5t15 5q5 0 17.5 3.5t17.5 3.5q8 0 25 -1.5t26 -1.5h22h20t26 1q26 2 42.5 2.5t24.5 -0.5
h10h8.5t9.5 1q21 3 32 0q15 -2 22 -9q12 -17 12 -25z" />
    <glyph glyph-name="registered" unicode="&#xae;" horiz-adv-x="622" 
d="M660 555q-13 -57 -42.5 -105t-80.5 -90q-97 -80 -211 -80q-49 0 -90 16t-70.5 45t-46 69t-16.5 88q0 27 6 57q24 114 122 194q100 82 212 82q49 0 90 -16t70.5 -45.5t46 -69.5t16.5 -88q0 -14 -1 -28t-5 -29zM609 602q0 37 -13 69t-37 55t-56.5 36t-71.5 13
q-105 0 -189 -81t-84 -185q0 -38 13 -69.5t37 -55t57 -36.5t72 -13q102 0 188 80q84 79 84 187zM220 414q-3 1 -2 14q2 1 12.5 1.5t29.5 4.5l4.5 4.5t6.5 4.5q3 0 11 23q3 14 8 28.5t10 43.5q4 23 5 35t1 13q2 13 6 32.5t11 47.5q-1 7 0 22q3 12 -21 12q-24 3 -27 9
q-4 16 25 16q-6 0 2 -1t30 -2h10h9.5t13.5 1h29q-2 0 58 -3q8 -1 13.5 -1.5t9.5 -0.5q10 0 13 -1q28 -3 30 -14q0 -4 20 -15q20 -9 16 -28q-2 -4 -4 -12.5t-7 -21.5q-4 -11 -25 -26q-5 -4 -19 -7.5t-36 -9.5q-11 -2 -11 -6t11 -8.5t12 -8.5q17 -23 14 -32q12 -26 8 -26
q0 -7 0.5 -15.5t2 -15.5t4 -12t7.5 -5q1 -3 5 0t8 8t6.5 10.5t1.5 7.5q-1 0 -1 3q0 6 7.5 17t12.5 11q1 0 1 -6q-9 -68 -35 -83q-33 -21 -42 -17q-8 1 -17 3t-10 10q-2 2 -3 5.5t-5 10.5q-3 6 -3 18q2 11 5.5 27t6.5 38q4 30 -7 41q-18 16 -20 11q-6 2 -7 2q-3 0 -6 1
q-11 -1 -24.5 -3.5t-16.5 -3.5q-14 -11 -20 -48q-2 -11 -4.5 -24.5t-6.5 -32.5q-3 -12 5 -18q0 -2 8 -4.5t8 -3.5h11q2 1 5 1h5h3q5 2 12.5 -2.5t7.5 -9.5t-10.5 -8.5t-16.5 -3.5h-77q-10 1 -19.5 1h-19.5t-19.5 0.5t-19.5 1.5zM375 657q-1 -6 -2 -13t-1 -15v-18
q0 -14 -3 -20q25 -5 48 -6q9 1 19 3.5t21 8.5q5 9 17 18q1 1 4.5 6.5t7.5 11.5t6.5 11.5t2.5 7.5q-2 2 -3 2q-2 9 -5 17t-5 15q-4 3 -20 11q0 2 -6 3.5t-14 2.5t-16 1.5t-12 0.5q-24 -3 -39 -48z" />
    <glyph glyph-name="macron" unicode="&#xaf;" horiz-adv-x="838" 
d="M869 597q-9 -21 -23.5 -41t-32.5 -38t-39 -32.5t-42 -23.5q-16 -3 -31 -4t-29 -1q-64 0 -98 28q-26 41 -26 81q0 32 17 68q5 11 18.5 25t38.5 29q10 3 20 5t20 2q44 0 53 -35q5 -12 5 -17q0 -25 -38 -45q-37 -19 -37 -35q0 -12 17 -29q17 -5 30 -5q52 0 83 46
q0 4 -0.5 13t-1 18.5t-1 18t-0.5 13.5q0 62 43 87q3 6 3 15q0 20 -18 43q-7 9 -13.5 18t-14.5 17q-37 19 -104 19q-18 -10 -53 -77q-26 -50 -72 -63q-5 -2 -17 -6.5t-32 -10.5q-16 -7 -27.5 -13.5t-18.5 -14.5q1 -14 0 -25.5t-6 -20.5q-11 -11 -31 -11q-17 0 -39 7
q-17 15 -18.5 42t-1.5 53q-43 -39 -43 -103q0 -7 1 -12.5t2 -10.5q15 4 36 4q60 0 63 -50q1 -2 3.5 -13t8.5 -34q4 -15 10.5 -24.5t14.5 -15.5h26q1 -2 2 -4.5t1 -5.5q0 -19 -29 -48q-28 -27 -28 -37q0 -14 32 -26q19 5 23 32q7 28 28 31q54 8 57 -28q2 -17 -4.5 -33
t-18.5 -30t-28.5 -25.5t-34.5 -18.5q-45 -19 -109 -19t-99 23q-3 -1 -13 -6.5t-27 -14.5q-25 -14 -38 -14t-21.5 6.5t-8.5 14.5q0 4 3 11t7 14t7 12.5t3 7.5q-58 64 -58 134q0 40 22 80q8 15 35 20q26 6 34 24q-3 7 -3 17q0 23 26 73q26 54 26 64q0 25 -40 25h-13
q-3 0 -6 -0.5t-7 -1.5q-17 0 -17 13q0 23 28 41q9 8 21.5 11.5t18.5 7.5q14 20 27.5 38.5t25.5 38.5q38 44 74 53q25 7 50 7q58 0 64 -47q11 3 25.5 7.5t31.5 12.5q21 11 35 17t22 8q-4 54 23 86q7 3 14 3q26 0 34 -35q11 0 26.5 1t37.5 4q23 2 38.5 3t23.5 1q62 0 83 -44
q5 -51 -29 -73q47 -59 47 -143q0 -63 -29 -129zM820 678q-8 -3 -11.5 -8.5t-3.5 -11.5q0 -5 2 -13t2 -11zM682 648q-3 21 -40 21q-44 -11 -57 -72l37 46q6 2 11 -2t10 -9.5t9.5 -9.5t9.5 -2q14 5 20 28zM860 783q-3 36 -45 57q-56 29 -63 38q11 11 30 11h7h5.5t7.5 -1
q13 -3 21 0q12 30 12 47q0 28 -35 28q-8 0 -22 -2t-35 -6q-39 -6 -60 -6q-40 0 -55 23q-3 -34 35 -72q-29 -6 -58.5 -12.5t-58.5 -13.5q-68 -20 -114 -60q-6 6 -6 14q0 4 3 10t6.5 12.5t6.5 13t3 10.5q-26 17 -47 17q-32 0 -69 -34q-8 -8 -23 -25t-37 -43q-32 -42 -47 -47
q10 -16 30 -16q18 0 50 20q34 21 47 23q7 0 3 -7q-2 -11 -1 -11q-99 -77 -99 -237q0 -15 1.5 -29t3.5 -28q-15 -15 -25 -15q-4 0 -12 26q-5 26 -20 26q-43 -30 -43 -68q0 -24 26 -74t26 -74q0 -8 -1 -15t-5 -14q15 4 28 20q11 12 16 17.5t7 7.5q7 2 15.5 -1.5t16.5 -9
t14.5 -10.5t10.5 -7q15 -6 32 -8.5t35 -2.5q72 0 130 43q15 16 15 36q0 11 -9 14q-15 -11 -12 -17q1 -2 2 -3.5t1 -2.5q0 -6 -25 -27q-23 -6 -37 -6q-32 0 -48 30q-10 10 -10 30t12 38t29 18q-33 10 -44 70q-12 63 -48 70q-34 -16 -34 -54q0 -4 1 -12.5t1.5 -18t1.5 -19
t1 -16.5q-1 -6 2.5 -15.5t8.5 -20t9 -20t4 -15.5q0 -16 -15 -31q-48 48 -59 171q3 97 43 172q43 82 127 137q3 -3 6 -3q5 0 13.5 6t12.5 6q7 0 11 -4q-13 -17 -26.5 -32.5t-26.5 -32.5q-30 -39 -27 -77q1 -36 21 -44q2 24 14.5 42t36.5 28l88 33q48 25 54 78q-5 17 -21 24.5
t-33 15.5q45 11 80 15.5t61 4.5q115 0 154 -78q2 -42 3.5 -63t1.5 -25q0 -83 -43 -129q-50 -71 -120 -71q-22 0 -37 6q-43 24 -43 56q0 9 7 16q-3 0 -10.5 -4.5t-10.5 -4.5q-5 0 -6 6l-3 -13q6 -37 32 -61.5t63 -20.5q81 8 128 68q31 42 47 84t16 90q0 27 -8 61z" />
    <glyph glyph-name="degree" unicode="&#xb0;" horiz-adv-x="294" 
d="M275 648q-5 -6 -12 -14.5t-21 -13.5q-6 -2 -13 -6.5t-17 -2.5q-8 1 -16 1.5t-22 13.5q-10 12 -10 14t-4 8q-2 5 -3.5 9t-2.5 9v4q0 1 -0.5 4t-1.5 8v16q7 19 3 19q2 9 5 23.5t14 36.5q3 7 6 10q2 2 2 4q3 5 6.5 11t13.5 12q5 3 7 6.5t6 7t11 7t22 7.5q18 4 35 -10
q11 -9 16 -17.5t9 -16.5q1 -8 6 -26q1 -2 0 -9q-4 -22 -6.5 -37.5t-4.5 -23.5q-7 -33 -28 -54zM198 757q-1 -8 -4.5 -26t-8.5 -45q-5 -24 -2 -24q5 -16 5.5 -22.5t8.5 -14.5q5 0 11 -2.5t7 -0.5q8 3 17 7t20 17q0 -1 5 11q4 0 7 16.5t11 52.5q2 7 4 18.5t4 26.5q0 1 -1 11
t-4 27q-1 8 -6.5 10t-13.5 6h-8q-2 0 -12 -2q-19 0 -32 -37q-1 -2 -1 -3.5t-1 -3.5q-1 -3 -2.5 -8.5t-3.5 -13.5z" />
    <glyph glyph-name="plusminus" unicode="&#xb1;" horiz-adv-x="306" 
d="M328 326q0 -9 -7 -22t-16 -13h-36q-7 -1 -12 -1.5t-9 -0.5h-14h-6q-2 -5 -3 -12.5t-3 -16.5q-4 -10 -8 -31q-12 -11 -23 -32q-2 -6 -11 -6t-17 8t-6 16v25q4 8 7 20t7 29h-2h-29h-13q-4 0 -8.5 0.5t-9.5 1.5l-12.5 7.5t-16.5 9.5q-5 2 -5 6t3.5 9.5t8.5 10t10.5 8
t10.5 3.5q3 0 11 2t13 2t17.5 -1.5t18.5 -1.5h12l3.5 14t2.5 11q4 28 9.5 46t27.5 23q9 1 21 -2.5t11 -12.5q-2 -12 -5 -29.5t-8 -41.5l-2 -5q17 -1 31.5 0.5t33.5 -0.5q10 -2 15 -6q4 -6 6 -9.5t2 -7.5zM282 137q0 -8 -7 -21t-17 -13h-12h-23t-35 -1h-34h-31h-29h-13h-8.5
t-9.5 1q-11 9 -28 17q-6 0 -6 6q0 4 3.5 9.5t8.5 10t10.5 8t10.5 3.5q3 0 11 2.5t13 2.5q6 -2 18 -3t18 -1h15q6 0 14 0.5t18 1.5q36 3 48 0h6q4 0 14 2q15 1 21 0q12 -3 16 -7q3 -5 5.5 -9.5t2.5 -8.5z" />
    <glyph glyph-name="uni00B2" unicode="&#xb2;" horiz-adv-x="338" 
d="M318 540q-2 -10 -3.5 -14t-2.5 -5.5t-2.5 -2.5t-3.5 -4q-2 -5 -4 -5h-8q-3 -1 -8 -1q-42 -3 -69 0q-9 1 -25 0q-18 -3 -24 -3h-30q-17 1 -13 13q10 11 19.5 22.5t29.5 33.5q3 6 15 16t39 28q11 6 17.5 11t11.5 11q2 4 5.5 7t8.5 8q2 2 8 10.5t16 25.5q11 0 17 44v13
q0 5 2 15v15q1 10 -5.5 16t-16.5 12q-4 2 -7 2q-5 0 -8 1h-14q-6 0 -8 -1.5t-12 -7.5t-21 -11q-5 -5 -10.5 -12.5t-6.5 -18.5q-4 -5 13 -10q2 0 4 -2t4 -3.5t5 -4.5q4 -4 4 -10q0 -14 -17 -31q-6 -9 -20 -9t-18 7q-12 17 -11 33q2 7 3 13.5t3 13.5q5 13 19 29t37 31
q2 7 37 17q2 0 46 -3q18 -1 33 -16.5t15 -34.5q1 -14 2 -22.5t-1 -13.5q-7 -28 -29 -57q-4 -6 -11.5 -10.5t-8.5 -12.5q0 -2 -8 -7.5t-9 -6.5q-12 -3 -19 -13q-9 -5 -19.5 -11.5t-21.5 -14.5q-2 -2 -6 -4.5t-9 -6.5q-4 0 -17 -12l-17 -17q-8 -5 -8 -11q0 -10 38 -10
q15 1 23 2t7 1q36 0 50 9q1 1 3.5 5.5t5.5 9.5l8 14q1 2 2 3.5t2 3.5q2 3 4.5 8l5.5 11q4 4 6 0q2 -2 2 -6q-4 -13 -8.5 -30t-10.5 -39z" />
    <glyph glyph-name="uni00B3" unicode="&#xb3;" horiz-adv-x="325" 
d="M315 558q1 0 -1.5 -4t-6.5 -9q-2 -3 -4.5 -6.5t-4.5 -7.5q-5 -5 -13.5 -11.5t-16.5 -11.5q-1 -2 -6.5 -4.5t-12 -4.5t-12 -4t-5.5 -3q-1 -7 -35 -4q-24 1 -34.5 3.5t-24.5 10.5q-6 6 -6 4q2 9 -6 17t-6 17q8 48 35 52q7 0 19 -3q1 0 12 -14q3 0 0 -10v-7q0 -2 -2.5 -4
t-11.5 -11q-6 -2 -18 -12q-7 -13 8 -17q17 -9 20 -6q-3 -3 20 -3q21 0 21 3q5 2 10.5 4.5t11.5 5.5q3 3 7.5 8.5t10.5 15.5q6 8 15 56q3 7 0 19q0 6 -2.5 10t-5.5 7l-6 6t-4 8q-4 2 -18 4q-4 -1 -9 -1h-11t-13 -0.5t-15 -1.5q-6 0 -6 3q0 1 12 13l34 3q9 0 18 3l14 4
q6 0 16 11.5t13 19.5q4 11 7 23.5t4 28.5q4 18 -11.5 29t-34.5 10q-6 -2 -13 -3t-15 -5q-2 -2 -6 -11q-1 -8 3.5 -10t4.5 -13q0 -19 -9 -24q-26 -17 -40 -8q-10 4 -10 15q0 -1 1.5 7t5.5 24q0 5 6.5 12t16 14t20.5 12.5t20 7.5q6 2 16 2h28q5 0 13 -2.5t12 -2.5q12 0 32 -24
q16 -19 2 -57q-8 -26 -31 -42q-12 -11 -19 -12q-1 -3 -18 -8q-5 0 -6 -7q0 -6 3.5 -7t7.5 -3q6 -3 9 -4t5 -2t4.5 -4t7.5 -10q6 -6 9 -20q6 0 6 -15q0 -39 -11 -39z" />
    <glyph glyph-name="acute" unicode="&#xb4;" horiz-adv-x="635" 
d="M682 1138l-8.5 -17t-10.5 -18q-9 -12 -43 -37q-35 -23 -46 -23l-8 -6q-13 -5 -28.5 -11t-34.5 -14l-5 -7q-22 -8 -47 -18.5t-51 -23.5q-8 -5 -9 -5q-4 2 -9 2l-4 -8q-20 -9 -41 -17.5t-40 -8.5q-20 0 -28 20q4 4 8 7t8 7q10 16 60 60q22 19 39 32.5t28 21.5q4 3 7.5 7.5
t8.5 7.5q11 11 23.5 22.5t26.5 26.5l11 2l8 11l11 7q5 9 14 14l18 6q21 25 31 25q5 0 7 -1q8 3 20 6.5t27 6.5q7 -5 23 -7q23 -23 26 -34q5 -30 8 -36z" />
    <glyph glyph-name="mu" unicode="&#xb5;" horiz-adv-x="486" 
d="M37 -137q-8 2 -20 7.5t-12 13.5v3q1 2 8 17t21 44l27 58q5 10 7.5 16t3.5 9q0 2 -1 2q4 4 7.5 10.5t8.5 14.5q2 2 4 3t5 3l7 30q5 23 12 53.5t15 70.5q5 16 8 28q5 20 9.5 44t9.5 53l-6 22v4q0 13 -22 20q-16 6 -31.5 10.5t-15.5 12.5v2q0 3 4 6t9.5 6t10.5 5t7 2t2 -1
q72 5 82 6q12 4 23 4q40 0 40 -29v-7l-4 -15q-7 -27 -17 -62t-24 -78q-8 -22 -33 -133l-11 -46v-3q0 -5 2.5 -12.5t2.5 -10.5v-3q0 -5 4.5 -7.5t9.5 -4.5t9.5 -3.5t4.5 -2.5q3 -8 14 -8q5 0 15.5 3t14.5 3q5 0 17.5 3.5t14.5 7.5q9 6 21 16.5t26 26.5q2 4 6.5 11t11.5 18
q15 25 20 25q4 0 24 66q5 19 10 37t11 37l4 15q6 24 6 41q0 59 -60 62l-24 3q-7 2 -9 7t-3 10l1 3q1 5 5 8t8.5 5.5t8 3.5t3.5 3h163q15 -2 15 -21q0 -4 -0.5 -8t-1.5 -9q-1 -4 -3.5 -11t-4.5 -14t-4 -13t-2 -8q-36 -134 -38 -134q0 -2 -1 -3q-2 -3 -3 -10q-2 -9 -5 -24.5
t-8 -38.5q-8 -37 -11.5 -57.5t-3.5 -26.5v-1q0 -9 4.5 -14.5t11.5 -8.5t15.5 -5t16.5 -5q5 -2 9 -10t4 -15v-3q-1 -7 -9 -7q-7 0 -20 -1t-27.5 -2.5t-28 -2.5t-22.5 -1q-33 0 -50 10q-7 3 -7 15q0 8 3 20l3 11q1 2 1 8q0 11 -7 11q-4 0 -5 -1q-3 -2 -7.5 -6t-8 -9t-6.5 -9
t-4 -5q-46 -46 -119 -46q-32 0 -65 14l-5 -12.5t-8 -17.5q-5 -16 -10 -26.5t-7 -15.5l-3 -6t-5 -12l-2 -5q-2 -9 -7 -14q-5 -11 -13.5 -14t-26.5 -5z" />
    <glyph glyph-name="paragraph" unicode="&#xb6;" horiz-adv-x="572" 
d="M435 0q-5 2 -23.5 2.5t-49.5 -0.5q-20 -1 -36 -1.5t-28 -0.5h-33q-50 3 -45 14q5 17 46 38q46 22 63 46q1 7 4.5 19t7 24.5t6 24.5t2.5 19q0 27 -27 41l-58 4l-58 4q-67 6 -83 57q-35 35 -35 107q0 18 2 39t7 48q6 33 8.5 49.5t2.5 17.5q4 49 61 130q65 87 140 118
q30 20 69.5 29t87.5 9q20 0 77 -3q46 -1 71 0q-54 -199 -99 -405.5t-80 -429.5zM546 763q0 33 -34 29q-23 -81 -43.5 -171t-37.5 -193q-26 -149 -42 -239t-24 -126h27q14 49 27 100.5t26 108.5q9 42 20.5 94.5t25.5 118.5q18 90 29.5 145t16.5 78q9 45 9 55zM354 283
q6 34 19.5 98.5t35.5 161.5q17 82 29 144t17 105q-14 11 -37 11q-32 0 -72 -25l-103 -453q4 -23 24 -37t48 -14q21 0 39 9z" />
    <glyph glyph-name="periodcentered" unicode="&#xb7;" horiz-adv-x="278" 
d="M295 417q3 0 3 -3q0 -5 -3.5 -14t-11.5 -22q-7 -12 -11.5 -20t-6.5 -10q-34 -31 -80 -31l-33 14q-23 44 -21 44q-2 0 4 27q7 27 10 30l25 25q-1 0 5 3.5t17 8.5q6 2 11 4.5t11 4.5q1 4 32 -3q30 -6 32 -15q21 -43 17 -43z" />
    <glyph glyph-name="periodcentered" unicode="&#x2219;" horiz-adv-x="278" 
d="M295 417q3 0 3 -3q0 -5 -3.5 -14t-11.5 -22q-7 -12 -11.5 -20t-6.5 -10q-34 -31 -80 -31l-33 14q-23 44 -21 44q-2 0 4 27q7 27 10 30l25 25q-1 0 5 3.5t17 8.5q6 2 11 4.5t11 4.5q1 4 32 -3q30 -6 32 -15q21 -43 17 -43z" />
    <glyph glyph-name="cedilla" unicode="&#xb8;" horiz-adv-x="374" 
d="M400 -146q-4 -23 -26 -56l-12 -18q-22 -22 -30 -28q-14 -11 -32 -14l-14 -6q-3 -1 -10.5 -1.5t-10.5 -8.5l-20 -4h-17q2 0 -2 -0.5t-10 -0.5q-13 0 -21 -2q-7 2 -21.5 4.5t-18.5 2.5l-7 4l-10 3q-3 2 -7 4t-9 7q-6 -3 -19 0l-9 6q-11 3 -12 2q-28 1 -25 9q-83 23 -75 58
l4 20q13 10 24 17.5t30 9.5q4 -14 42 -30l50 -23q2 1 7.5 -0.5t11.5 -3.5t11 -3.5t6 -1.5h15q8 2 9 2h6q13 1 21 4t14.5 6.5t14.5 8.5t20 10l7 27q3 12 -1 19q5 19 -13 28.5t-41 9.5q-14 0 -23 -3q-6 2 -8 2h-9l-8 24v13l14 18q6 1 6 9q0 4 -2 10.5t-2 9.5q9 5 10 11l54 -1
q3 -14 -7 -36l18 10q11 -6 22 0q1 -4 4 -4t6 4q7 -3 8 -10q6 2 11 2q15 0 20 -6l8 1q12 -8 26 -15.5t14 -22.5q1 0 6 -5q0 -1 4.5 -9t5.5 -14q2 -8 2 -11q0 -4 2 -10q1 -11 -4 -20q2 0 3 -2.5t-1 -5.5z" />
    <glyph glyph-name="uni00B9" unicode="&#xb9;" horiz-adv-x="282" 
d="M294 488q8 -5 8 -8q0 -8 -14 -11h-6q-2 0 -8 2h-14q-47 1 -63 0q-83 -8 -80 9q1 7 17 9q3 -1 9 -1h9q5 0 12.5 0.5t15 4.5t13 13t5.5 26q4 17 9.5 40t10.5 53q4 15 8 37.5t9 54.5q-6 6 -7 12q-8 2 -11 2q-7 0 -11 1h-23q-10 2 -13 2t-2 1q-4 10 -3 10q4 4 7.5 8t25.5 4
q13 1 22 0q1 1 5 1q2 0 4 0.5l6 1.5q24 0 27 15q1 7 9 10q6 5 8.5 7t4 3t3.5 0.5t7 -0.5q1 -1 3 -2.5t5 -4.5l-17 -74q-8 -34 -18.5 -83.5t-24.5 -116.5q-3 -7 7 -20q3 -5 22 -6h23z" />
    <glyph glyph-name="ordmasculine" unicode="&#xba;" horiz-adv-x="989" 
d="M1060 498q3 -88 -37 -141q-30 -41 -89 -52q-26 -2 -51 -4t-49 -4q-49 12 -56 57q-2 10 2 18.5t11 17t15.5 17.5t15.5 18q2 1 8 3.5t13 5.5t12.5 7.5t7.5 10.5q-12 3 -26 3q-19 0 -42.5 -7t-46.5 -13q-34 -18 -34 -44q0 -9 6 -13l9 -7q-33 -48 -87 -48q-15 0 -28 6
q-7 13 -28 13q-4 0 -12.5 -1t-18 -2.5t-18.5 -2.5t-14 -1q-23 -20 -51 -20q-5 0 -10 1l-10 2l-1 7q-25 -28 -61 -34t-69 -6q-22 0 -41 -3q-118 0 -155 75q-10 23 -10 57q0 64 40 104q51 54 165 54q42 -9 42 -49q0 -12 -4.5 -25.5t-11.5 -26.5t-15.5 -22.5t-15.5 -13.5l-1 -4
q29 3 48.5 7.5l32.5 7.5q46 13 76 42q11 11 11 26q0 28 -25 28q13 12 34 12q6 0 38 -6q8 -5 13 -6q4 -3 10 0q10 10 26 10q4 0 12 -2t16.5 -5t16 -5t11.5 -2q17 0 29 24q7 -16 23 -16q15 0 57 20q45 22 65 22q8 0 20 -5q20 7 38.5 10.5t38.5 3.5q55 0 97.5 -25.5t57.5 -73.5
zM1025 498q-30 74 -134 74q-18 0 -39 -3q-6 2 -12 2h-12q-15 0 -37 -4.5t-51 -15.5t-51.5 -15.5t-39.5 -4.5q-1 -3 -1 -14t10 -11q4 0 13 2.5t19.5 6t20 6t14.5 2.5q3 0 6 -0.5t4 -2.5q-2 -5 -23 -14q10 2 28 5t46 11q44 10 74 10q11 0 20 -1t17 -5l-2 -6q-6 2 -10 2h-10
q-10 0 -23 -2.5t-30 -5.5q-23 -6 -37 -8.5t-17 -3.5q-8 -2 -19 -5.5t-24 -11.5l-40 -22q8 2 21.5 7t21.5 5q7 0 15 -9l-17 -11q-5 1 -12.5 -2t-15 -7t-14.5 -7.5t-10 -3.5q-10 0 -16 17l13 11q-15 0 -32.5 -8t-32.5 -13q-3 5 -5.5 9.5t-0.5 8.5q12 12 45 20q32 8 41 18
l-69 -21q-8 2 -8 8q8 8 13 14t3 10q-3 10 -16 17q-9 5 -14.5 7t-6.5 4q-7 -13 -10 -52q-1 -19 -3.5 -31.5t-8.5 -18.5q12 3 23 3q25 0 45.5 -18t39.5 -35l-9 -16q-15 4 -42 34q-12 12 -25 12q-5 0 -13.5 -3.5t-17.5 -7t-17 -7t-13 -3.5q-13 0 -20 9q1 2 1 8q0 8 -7.5 17
t-7.5 15t8 17l15 -15q14 30 14 32q-5 30 -6 35q-7 20 -29 19q5 -15 -8 -36q-32 -47 -105 -75q-62 -25 -121 -25q-26 0 -37 8q-26 17 -26 43q0 17 9 31q20 38 69 38q20 -2 20 -15q0 -10 -6 -20q-11 -11 -21 -13.5t-19 -6.5q-2 -4 -2 -8q0 -3 11 -17q26 0 54 25q17 26 17 55
t-17 40q-21 3 -41 3q-38 0 -65.5 -10t-45.5 -33q-29 -34 -29 -87q0 -37 10 -57q30 -62 122 -62q20 0 65 8t118 23q55 0 71 49q3 -5 3 -11q0 -9 2 -16t12 -5q8 0 20 9t27 29q11 0 15.5 -11t9.5 -24q13 -12 63 -3l3 46q9 35 46 48q15 3 29.5 7.5t29.5 7.5q3 2 13 2.5t27 2.5
q7 1 12 1h10h18q68 0 84 -47q-5 -54 -41 -68q-14 -2 -23 -3.5t-13 -1.5q-22 0 -26 16q3 24 19 24h4q4 0 6 -1h11q17 0 23 12q3 25 -23 25q-3 0 -6.5 -1t-7.5 -2q-73 -30 -70 -65q6 -28 29 -42q112 0 160 50q35 38 35 100q0 9 -1 17t-3 13zM506 414q-5 -20 -24 -20
q-20 0 -17 20q5 20 24 20q22 0 17 -20zM458 394q-2 -17 -21 -17q-16 0 -14 17q4 18 22 18q16 0 13 -18zM414 377q-3 -15 -19 -15q-14 0 -12 15q3 15 19 15q13 0 12 -15zM363 365q-2 -11 -12 -11q-12 0 -9 11q1 12 13 12q11 0 8 -12zM315 357q-2 -11 -13 -11q-12 0 -10 11
q3 12 14 12q12 0 9 -12zM277 354q-16 -11 -39 -11q-22 0 -34 9t-7 26q13 -18 34 -18q9 0 22 4t16 4q10 0 8 -14z" />
    <glyph glyph-name="guillemotright" unicode="&#xbb;" horiz-adv-x="674" 
d="M722 382q0 -5 -3.5 -12t-9.5 -18q-15 -18 -40 -23l-51 -43q-23 -16 -49.5 -34.5t-56.5 -40.5q-5 -4 -22.5 -17.5t-49.5 -36.5q-34 -24 -51.5 -36.5t-20.5 -14.5q-8 -6 -17.5 -13t-22.5 -16q-11 -2 -23.5 -6t-29.5 -9q-1 -4 -7 -4q-22 0 -22 37q0 17 11.5 25.5t37.5 25.5
q57 37 115 77t121 83q3 2 24 21t59 55q-6 5 -9.5 10.5t-7.5 9.5q-13 20 -26.5 43t-30.5 49q-4 3 -14 19t-28 42q-35 54 -36 60q-4 6 -9.5 14.5t-12.5 19.5q0 18 -6 48q-2 6 2.5 13t12.5 12.5t18 9t19 3.5q13 0 20 -12.5t12 -25.5q27 -48 56.5 -98.5t60.5 -104.5
q8 -6 20 -18.5t27 -29.5q7 -8 13.5 -15t12.5 -14q15 -23 14 -35zM478 382q0 -11 -10 -30q-10 -9 -20 -15t-22 -8l-49 -43q-48 -32 -108 -75q-5 -4 -23.5 -17.5t-50.5 -38.5q-31 -23 -49 -35l-21 -14q-6 -6 -16 -13t-23 -16q-10 -2 -23 -6t-29 -9q-5 -4 -8 -4q-23 0 -23 37
q0 17 9 25q8 5 17.5 11.5t22.5 14.5q57 37 115.5 77t121.5 83q2 2 23 21t59 55q-6 5 -10 10.5t-7 9.5q-12 20 -25.5 43t-30.5 49q-3 3 -13.5 19t-27.5 42q-17 27 -26 42t-11 18q-4 6 -9 14.5t-13 19.5q-1 10 -2.5 21.5t-3.5 26.5q-3 6 1 13t12.5 12.5t18.5 9t19 3.5
q14 0 21 -12.5t13 -25.5q26 -48 55.5 -98.5t61.5 -104.5q8 -6 19.5 -18.5t26.5 -29.5q6 -8 12.5 -15t13.5 -14q18 -22 12 -35zM722 382q-6 -23 -13 -30q-15 -18 -40 -23q-17 -15 -30 -25.5t-21 -17.5q-30 -22 -56.5 -40.5t-49.5 -34.5q-5 -4 -22.5 -17.5t-49.5 -36.5
q-34 -24 -51.5 -36.5t-20.5 -14.5q-14 -9 -23.5 -16.5t-16.5 -12.5q-17 -6 -29.5 -9.5t-23.5 -5.5q-1 -4 -7 -4q-22 0 -22 37q0 17 9 25q13 8 22.5 14.5t17.5 11.5q63 43 121 83t115 77q28 24 48.5 43.5t34.5 32.5q-6 5 -9.5 10.5t-7.5 9.5q-17 26 -30.5 49t-26.5 43
q-4 3 -14 19t-28 42q-35 54 -36 60q-12 24 -22 34q-4 15 -5 27t-1 21q-2 6 2.5 13t12.5 12.5t18 9t19 3.5q13 0 20 -12.5t12 -25.5q32 -54 61.5 -104.5t55.5 -98.5q16 -17 27 -28.5t19 -20t14.5 -15t12.5 -13.5q15 -23 14 -35zM478 382q-5 -23 -10 -30q-10 -9 -20 -15
t-22 -8q-16 -15 -28.5 -25.5t-20.5 -17.5q-30 -22 -56.5 -40.5t-51.5 -34.5q-5 -4 -23.5 -17.5t-50.5 -38.5q-31 -23 -49 -35l-21 -14q-13 -8 -23 -15.5t-16 -13.5q-16 -6 -28.5 -9.5t-23.5 -5.5q-5 -4 -8 -4q-23 0 -23 37q0 17 9 25q13 8 22.5 14.5t17.5 11.5q64 43 122 83
t115 77q28 24 48.5 43.5t33.5 32.5q-6 5 -10 10.5t-7 9.5q-17 26 -30.5 49t-25.5 43q-3 3 -13.5 19t-27.5 42q-17 27 -26 42t-11 18q-12 24 -22 34q-6 30 -6 48q-3 6 1 13t12.5 12.5t18.5 9t19 3.5q14 0 21 -12.5t13 -25.5q31 -54 60.5 -104.5t56.5 -98.5q15 -17 25.5 -29
t18.5 -20l14.5 -14.5l13.5 -13.5q18 -22 12 -35zM722 382q0 -5 -3.5 -12t-9.5 -18q-15 -18 -40 -23l-51 -43q-23 -16 -49.5 -34.5t-56.5 -40.5q-5 -4 -22.5 -17.5t-49.5 -36.5q-34 -24 -51.5 -36.5t-20.5 -14.5q-8 -6 -17.5 -13t-22.5 -16q-11 -2 -23.5 -6t-29.5 -9
q-1 -4 -7 -4q-22 0 -22 37q0 17 11.5 25.5t37.5 25.5q57 37 115 77t121 83q3 2 24 21t59 55q-6 5 -9.5 10.5t-7.5 9.5q-13 20 -26.5 43t-30.5 49q-4 3 -14 19t-28 42q-35 54 -36 60q-4 6 -9.5 14.5t-12.5 19.5q0 18 -6 48q-2 6 2.5 13t12.5 12.5t18 9t19 3.5q13 0 20 -12.5
t12 -25.5q27 -48 56.5 -98.5t60.5 -104.5q8 -6 20 -18.5t27 -29.5q7 -8 13.5 -15t12.5 -14q15 -23 14 -35zM478 382q0 -11 -10 -30q-10 -9 -20 -15t-22 -8l-49 -43q-48 -32 -108 -75q-5 -4 -23.5 -17.5t-50.5 -38.5q-31 -23 -49 -35l-21 -14q-6 -6 -16 -13t-23 -16
q-10 -2 -23 -6t-29 -9q-5 -4 -8 -4q-23 0 -23 37q0 17 9 25q8 5 17.5 11.5t22.5 14.5q57 37 115.5 77t121.5 83q2 2 23 21t59 55q-6 5 -10 10.5t-7 9.5q-12 20 -25.5 43t-30.5 49q-3 3 -13.5 19t-27.5 42q-17 27 -26 42t-11 18q-4 6 -9 14.5t-13 19.5q-1 10 -2.5 21.5
t-3.5 26.5q-3 6 1 13t12.5 12.5t18.5 9t19 3.5q14 0 21 -12.5t13 -25.5q26 -48 55.5 -98.5t61.5 -104.5q8 -6 19.5 -18.5t26.5 -29.5q6 -8 12.5 -15t13.5 -14q18 -22 12 -35z" />
    <glyph glyph-name="onequarter" unicode="&#xbc;" horiz-adv-x="623" 
d="M145 448q-2 0 -14 -5.5t-19 -5.5q-16 0 -14 23q3 9 19 9q-7 -1 -8.5 -1t0.5 0h29q27 0 38.5 10.5t17.5 36.5q6 27 11.5 53t11.5 52q6 32 10 58t5 48l-9 14q-49 0 -68 8l-3 9q17 17 28 17q-2 0 4 -1t21 -2q8 1 15 2.5t15 3.5q24 8 27 14q5 5 11 10.5t12 10.5l12 2l9 -9
q-8 -34 -20.5 -87t-27.5 -126l-20 -95q-4 -19 10 -19q3 0 10.5 2t10.5 2q14 0 14 -16q0 -6 -3 -12q-2 -6 -135 -6zM663 797q-10 -21 -28 -49q-5 -6 -14.5 -14.5t-20.5 -19.5q-118 -161 -179 -243t-69 -89q-89 -112 -190 -236q-6 -6 -21 -24.5t-38 -52.5q-40 -58 -54 -58
q-23 0 -35 23q-4 6 1 29t80 91q6 6 35.5 44t83.5 110q104 139 120 154q3 3 33.5 44t87.5 122q115 162 122 167q6 8 14.5 15.5t19.5 18.5q8 5 17 5q14 0 26 -8.5t12 -17.5q0 -7 -3 -11zM514 112l-16 -15h-36q-18 -4 -25 -29q-9 -46 12 -46h26q18 -3 16 -11q-3 -11 -23 -11
h-130q-39 0 -36 9q2 11 27 11q34 0 42 6q3 4 8.5 16.5t11.5 34.5l-5 18l-15 2h-12q-7 0 -17.5 -0.5t-24.5 -1.5q-37 -1 -45 7l-1 9q2 3 4.5 9t6.5 14l190 224l17 8q7 0 9 -6q3 -5 0 -14l-27 -101q-8 -32 -12.5 -57t-3.5 -42q0 -10 10.5 -11.5t22.5 -2t21 -3.5t6 -15z
M415 192q6 23 8.5 38t2.5 22q0 13 -4 13q-6 0 -19 -16q-23 -26 -47 -52t-48 -55q-3 -11 75 -11q17 0 25 24q2 10 4 19t3 18z" />
    <glyph glyph-name="onehalf" unicode="&#xbd;" horiz-adv-x="625" 
d="M146 448q-1 0 -12.5 -5.5t-19.5 -5.5q-15 0 -12 23q0 9 16 9q-6 -1 -7.5 -1t0.5 0h29q28 0 39 10.5t16 36.5q6 27 12 53t11 52q6 32 10 58t6 48l-9 14q-49 0 -68 8l-2 9q15 17 27 17q-3 0 3 -1t21 -2q15 1 32 6q24 7 25 14q6 5 11.5 10.5t13.5 10.5l12 2l9 -9
q-8 -34 -20 -87t-29 -126l-20 -95q-3 -19 9 -19q4 0 11 2t11 2q14 0 14 -16q0 -2 -1 -5.5t-2 -6.5q-2 -6 -136 -6zM665 797q-4 -11 -10.5 -22.5t-16.5 -26.5q-7 -6 -16 -14.5t-20 -19.5q-231 -318 -248 -332q-45 -57 -92 -115t-99 -121q-6 -6 -20.5 -24.5t-36.5 -52.5
q-40 -58 -54 -58q-23 0 -35 23q-5 6 0 29q4 22 81 91q6 6 35.5 44t83.5 110t83.5 110t34.5 44q9 8 122 166q116 163 123 167q6 8 13.5 15.5l18.5 18.5q8 5 17 5q14 0 27 -8.5t13 -17.5q0 -7 -4 -11zM532 106q-5 -21 -11.5 -43.5t-17.5 -47.5l-9 -10q-38 -7 -176 -7
q-29 0 -24 14v3q11 11 24.5 26t30.5 36q15 21 54 46q21 15 34.5 26t20.5 19q6 1 28 40q7 0 19 50q3 19 2.5 35t-5.5 30l-19 15l-38 2l-42 -22q-8 -9 -18 -30l-2 -3q2 -2 23 -17q15 -11 12 -25t-15 -26t-26 -12q-32 0 -32 43q0 40 41 80q44 40 83 40q96 0 96 -77
q0 -6 -1 -12.5t-2 -12.5q-12 -60 -73 -103q-17 -13 -34.5 -24.5t-34.5 -23.5q-61 -40 -63 -53q2 -14 31 -14q83 0 101 12q6 6 36 63q2 2 3 2q7 0 4 -19z" />
    <glyph glyph-name="threequarters" unicode="&#xbe;" horiz-adv-x="622" 
d="M329 543q-11 -57 -101 -92q-3 -5 -23 -5q-64 0 -90 22q-1 3 -3 8.5t-6 11.5q-4 4 -4 15q0 22 12 40q8 6 14.5 13t17.5 7q5 0 17 -3l14 -17l-5 -20q-8 -7 -17 -15t-18 -19q-2 -9 11 -15t23 -6l47 1q46 21 57 68q7 29 7 41q0 21 -24 47q-10 3 -18.5 5t-16.5 1q-5 -1 -15 -1
q-8 0 -11 -1t-9 -1q-12 0 -10 3t4.5 6.5t8.5 8.5h22q7 0 15 2q25 1 37 9q29 0 41 63q5 20 5 31q0 43 -46 43q-41 0 -45 -22l5 -10q7 -7 4 -24q-1 -7 -11 -18q-17 -14 -30 -14q-30 0 -23 31q8 38 36 59t70 21q94 0 94 -65q0 -50 -43 -80q-11 -5 -22.5 -12t-24.5 -15
q0 -4 23 -25q27 -19 28 -34q12 0 3 -43zM662 797q-4 -11 -10.5 -22.5t-16.5 -26.5q-7 -7 -16.5 -15t-20.5 -19q-115 -159 -176.5 -241.5t-70.5 -90.5q-45 -57 -91.5 -115t-97.5 -121q-8 -6 -22.5 -24.5t-36.5 -52.5q-40 -58 -54 -58q-23 0 -35 23q-5 6 0 29q4 22 81 91
q6 6 35.5 44t83.5 110t83.5 110t34.5 44q6 5 122 166q116 163 123 167q6 8 14.5 15.5t19.5 18.5q5 5 15 5q14 0 27 -8.5t13 -17.5q0 -7 -4 -11zM514 112l-16 -15h-38q-18 -4 -23 -29q-12 -46 12 -46h25q18 -3 15 -11q-2 -11 -23 -11h-128q-39 0 -36 9q2 11 26 11q35 0 43 6
q3 4 8 16.5t10 34.5l-4 18l-16 2h-11q-6 0 -16.5 -0.5t-24.5 -1.5q-41 -2 -45 7l-1 9q2 3 4.5 9t6.5 14l189 224l17 8q7 0 9 -6q2 -5 0 -14q-7 -26 -14 -51t-12 -50q-20 -67 -17 -99q1 -10 11.5 -11.5t22 -2t20 -3.5t6.5 -15v-2zM415 192q10 41 10 60q0 13 -5 13t-17 -16
q-24 -26 -48.5 -52t-48.5 -55q-2 -11 77 -11q17 0 25 24q1 10 3 19z" />
    <glyph glyph-name="questiondown" unicode="&#xbf;" horiz-adv-x="358" 
d="M228 682q0 45 27 75q24 26 67 26q23 0 40 -12q20 -22 23 -54q0 -1 -1.5 -6.5t-3 -11.5t-3 -11t-2.5 -5q-15 -17 -15 -18q-3 -9 -29 -23q-13 -6 -21.5 -9.5t-14.5 -4.5q-11 0 -23 4t-21.5 11.5t-16 17t-6.5 21.5zM360 188q-6 -12 -11.5 -28t-13.5 -38q-1 -6 -7 -14.5
t-12.5 -17.5t-12.5 -17.5t-8 -12.5q-2 -8 -37 -29q-34 -21 -43 -31q-14 -20 -49 -20q-7 0 -19.5 2t-25 5t-24 5t-15.5 2q-15 0 -28.5 14.5t-18.5 29.5q-11 45 -9 60v10q0 11 -2 24.5t-4 13.5q-3 0 8 20q8 11 14.5 24t19.5 41q1 5 6.5 10.5t6.5 9.5q17 33 33 43q22 16 46 46
q3 4 10 9.5t16 15.5q6 10 14 23.5t14 13.5q13 0 37 33q10 14 17 25.5t10 19.5q8 19 13.5 34t6.5 28q3 16 -12 16q-28 0 -44.5 -19t-21.5 -42q-2 -6 -11 -19t-11 -23q-2 -8 -9 -29q-3 -11 -5.5 -16t-5 -7t-4.5 -1.5t-5 0.5q-12 0 -12 16q0 6 1 14t5 19l9 27q2 5 6.5 16.5
t13.5 28.5q18 35 25 35l43 36q8 8 24 8q36 0 40 -16q4 -9 8 -20q8 -20 5 -20q6 0 -28 -94q-1 0 -31 -44q-14 -23 -22 -35t-10 -16q-11 -11 -22.5 -31t-26.5 -49q-1 -4 -6 -10q-3 -5 -7.5 -13t-11.5 -19q-23 -41 -20 -41q-6 0 -9.5 -14t-7.5 -40l-4 -65q-3 -11 2.5 -19
t13.5 -13.5t17 -8t13 -2.5q35 0 69 31q8 6 18.5 14.5t21.5 20.5q6 8 12.5 17.5t13.5 22.5q0 1 2 5q2 2 3.5 6t3.5 9q10 22 8 22q5 0 8 34q1 5 1 9v9v19q4 7 -14 20q-7 5 -13 1q-9 -4 -13 -4q-23 0 -44 -79q-4 -11 -7.5 -29t-8.5 -43q-1 -8 -3.5 -21.5t-8.5 -30.5
q-4 -10 -14 -10q-14 0 -19 15.5t-5 41.5q0 49 18 88q6 11 17.5 30t30.5 45q5 5 12 11t14 14q0 4 5 8t12 6.5t14.5 3.5t11.5 0q26 0 39 -19.5t12 -47.5q0 -11 -2 -26t-6 -37z" />
    <glyph glyph-name="Agrave" unicode="&#xc0;" horiz-adv-x="775" 
d="M675 871q-13 -19 -32 -19q-17 0 -34 7.5t-32 15.5v8q-6 0 -8 -1q-3 1 -4.5 2t-8.5 5t-22.5 12.5t-45.5 23.5l-2 6q-14 8 -25.5 13.5t-22.5 9.5l-4 6h-3q-25 4 -42 29.5t-17 56.5q2 3 4.5 9t8 14.5t16 19t28.5 22.5q7 1 13.5 3t11.5 4q7 -3 16 -5.5t22 -6.5q2 2 6 2
q9 0 20 -23l14 -7l6 -12l8 -6l3 -11l9 -3q7 -9 16.5 -23.5t19.5 -34.5q7 -7 19 -22t24 -31.5t20.5 -31t8.5 -20.5q7 -8 9 -12zM797 22q-21 -8 -35 -8q-5 0 -32 2t-59 2h-14q-8 0 -11 -1q-3 3 -9 3l-8 -2h1h-6h-8q-6 0 -11 -1l-4 2t-6 1q-2 -2 -4.5 -2.5t-5.5 -2.5l-20 2
q-2 -2 -4 -2h-1l-2 2h-26q-26 0 -59.5 2.5t-50.5 8.5l-4 15q2 2 4 5.5t6 6.5q4 1 7 2.5t9 2.5t16.5 2t30.5 1q11 0 14 -1l3 1q3 -1 7 -1h7q14 0 22.5 6.5t13 16.5t6 23t1.5 26q-3 29 -8 31q0 2 0.5 3.5t0.5 3.5q0 10 -4 14q0 2 0.5 4t0.5 4q0 10 -4 14q0 3 0.5 5t0.5 4
q0 14 -2.5 20t-4.5 20l-14 18l-16 7h-21q-13 0 -16 -5q-10 0 -10 -2q-39 3 -74 3q-7 0 -13 -0.5t-13 -0.5h-25q-19 -6 -30.5 -17t-20 -28.5t-16 -43t-18.5 -60.5q0 -4 -0.5 -7t-0.5 -5t0.5 -3t0.5 -2v-5l10 -23q2 0 8 -3t12 -7q3 -2 5.5 -3.5t6.5 -3t11 -2.5t20 -1
q5 1 8.5 1.5t6.5 0.5h11q3 0 20 -14l1 -13q-5 -8 -11 -12.5t-12 -8.5h-30q-8 0 -15 0.5t-13 0.5h-5h-117q-10 0 -32 -2t-46 -4t-46.5 -4t-32.5 -2q-3 0 -18 5l-11 9l2 23q3 4 8.5 8.5t12.5 10.5l14 4q7 0 12 1t7 2h6q24 0 32.5 3t10.5 5q11 1 16 2.5t8.5 3t7.5 3.5t12 5l4 4
q4 2 10 6.5t12 9.5t11 10t7 8l6 5q0 1 4 9.5t9.5 18t11 17.5t7.5 9q11 22 17 35t9.5 20.5t7.5 12t12 10.5q4 16 10 28.5t9 14.5q9 24 16.5 37.5t13.5 22t11 14.5t9 14l5 5q5 10 9 21t9 22l4 7l10.5 19.5t7.5 8.5l2 6q23 45 48.5 95t44.5 99q8 20 11.5 29t5.5 13.5t4.5 8
t8.5 12.5l7 11q3 14 26 49q9 0 21 3.5t21 5.5q7 -4 23 -9q2 -4 3 -8t5 -9q0 -74 6 -78q-2 -4 -2 -34t2 -32l-1 -7q0 -5 2 -9t5 -9l2 -17q-1 -5 -1.5 -9.5t-0.5 -8.5q0 -8 3 -11v-11q0 -33 6 -40l6 -39q0 -5 0.5 -11.5t1.5 -15.5q3 -17 4.5 -26.5t2.5 -17t2.5 -14.5t4.5 -18
l-1 -7q0 -12 9 -33q-1 0 -1 -5q0 -23 2.5 -30t4.5 -9q-1 -3 -1 -9q0 -4 1 -5q-1 -3 -1 -13q0 -15 4 -19q-1 -4 -1 -11v-9q0 -13 4 -16v-6q0 -26 5.5 -44.5t6.5 -19.5q-2 -10 -2 -12v-5q0 -3 3 -9.5t13 -32.5l20 -15q4 -2 8 -5q1 1 6 1t9 -1.5t8 -1.5q3 0 11 2q18 -1 29 -2
t16.5 -2.5t7 -5t1.5 -10.5q0 -5 -1 -6zM529 334q2 8 2 10v8q0 6 -2 8q1 3 1 10q0 1 -1 8.5t-3 18.5t-4.5 23t-6.5 22q1 2 1 7t-1.5 9.5t-2.5 21.5q-1 22 -2 25.5t-2 6.5q0 2 0.5 5t0.5 5q0 9 -2.5 18.5t-6 18t-6 14.5t-2.5 7h-6l-9 -6q-22 -40 -35 -65.5t-20 -40.5
t-10.5 -21.5t-6.5 -8.5q-8 -24 -14 -37t-10.5 -19.5t-8 -9.5t-6.5 -6q-1 -9 -4 -15t-7 -8v-12l10 -9q12 -3 15 -8q14 0 35.5 0.5t43.5 2t40 4t26 5.5z" />
    <glyph glyph-name="Aacute" unicode="&#xc1;" horiz-adv-x="837" 
d="M897 1046q-1 -2 -10 -16t-22.5 -29.5t-31 -28t-36.5 -12.5l-6 -6q-13 -4 -27.5 -9.5t-31.5 -13.5l-4 -6q-21 -9 -46 -19t-53 -24q-2 1 -7 1l-4 -8q-18 -8 -38 -15.5t-37 -7.5q-18 0 -25 19q4 3 7.5 5.5t6.5 6.5q3 5 18 19.5t34 31t37.5 32t27.5 22.5l14 14q10 10 22 20
t24 24l11 3l8 11l9 6q2 4 5.5 6.5t6.5 5.5l17 7q21 23 29 23q5 0 7 -2q7 2 17.5 5.5t25.5 6.5q6 -6 21 -7q13 -12 19 -22.5t8 -19t2.5 -14.5t1.5 -9zM797 22q-21 -8 -35 -8q-5 0 -32 2t-59 2h-14q-8 0 -11 -1q-3 3 -9 3l-8 -2h1h-6h-8q-6 0 -11 -1l-4 2t-6 1
q-2 -2 -4.5 -2.5t-5.5 -2.5l-20 2q-2 -2 -4 -2h-1l-2 2h-26q-26 0 -59.5 2.5t-50.5 8.5l-4 15q2 2 4 5.5t6 6.5q4 1 7 2.5t9 2.5t16.5 2t30.5 1q11 0 14 -1l3 1q3 -1 7 -1h7q14 0 22.5 6.5t13 16.5t6 23t1.5 26q-3 29 -8 31q0 2 0.5 3.5t0.5 3.5q0 10 -4 14q0 2 0.5 4t0.5 4
q0 10 -4 14q0 3 0.5 5t0.5 4q0 14 -2.5 20t-4.5 20l-14 18l-16 7h-21q-13 0 -16 -5q-10 0 -10 -2q-39 3 -74 3q-7 0 -13 -0.5t-13 -0.5h-25q-19 -6 -30.5 -17t-20 -28.5t-16 -43t-18.5 -60.5q0 -4 -0.5 -7t-0.5 -5t0.5 -3t0.5 -2v-5l10 -23q2 0 8 -3t12 -7q3 -2 5.5 -3.5
t6.5 -3t11 -2.5t20 -1q5 1 8.5 1.5t6.5 0.5h11q3 0 20 -14l1 -13q-5 -8 -11 -12.5t-12 -8.5h-30q-8 0 -15 0.5t-13 0.5h-5h-117q-10 0 -32 -2t-46 -4t-46.5 -4t-32.5 -2q-3 0 -18 5l-11 9l2 23q3 4 8.5 8.5t12.5 10.5l14 4q7 0 12 1t7 2h6q24 0 32.5 3t10.5 5q11 1 16 2.5
t8.5 3t7.5 3.5t12 5l4 4q4 2 10 6.5t12 9.5t11 10t7 8l6 5q0 1 4 9.5t9.5 18t11 17.5t7.5 9q11 22 17 35t9.5 20.5t7.5 12t12 10.5q4 16 10 28.5t9 14.5q9 24 16.5 37.5t13.5 22t11 14.5t9 14l5 5q13 29 23.5 52.5t16.5 25.5l2 6q4 7 13 26t21 45t25.5 55t26 55.5t22.5 47
t15 28.5q6 10 10.5 22t22.5 38q9 0 21 3.5t21 5.5q7 -4 23 -9q2 -4 3 -8t5 -9q0 -74 6 -78q-2 -4 -2 -34t2 -32q0 -2 -0.5 -3.5t-0.5 -3.5q0 -8 7 -18l2 -17q-1 -5 -1.5 -9.5t-0.5 -7.5q0 -25 3.5 -43t5.5 -20l6 -34v-10q0 -4 0.5 -9.5t1.5 -12.5q3 -17 4.5 -26.5t2.5 -17
t2.5 -14.5t4.5 -18q0 -8 1.5 -17t6.5 -23q-1 0 -1 -5q0 -23 2.5 -30.5t4.5 -8.5q-1 -3 -1 -9q0 -4 1 -5q0 -4 -0.5 -7t-0.5 -6q0 -15 4 -19q-1 -4 -1 -11v-9q1 -22 4.5 -39.5t6.5 -29.5t4.5 -19.5t-1.5 -10.5v-4q0 -2 2.5 -9t13.5 -33l20 -15q4 -2 8 -5q1 1 6 1t8.5 -1.5
t8.5 -1.5q3 0 11 2q18 0 29 -1t16.5 -3.5t7 -6t1.5 -9.5q0 -5 -1 -6zM529 334q2 8 2 10v8q0 6 -2 8q1 3 1 10q0 1 -1 8.5t-3 18.5t-4.5 23t-6.5 22q1 2 1 7t-1.5 9.5t-2.5 21.5q-1 22 -2 25.5t-2 6.5q0 2 0.5 5t0.5 5q0 9 -2.5 18.5t-6 18t-6 14.5t-2.5 7h-6l-9 -6
q-22 -40 -35 -65.5t-20 -40.5t-10.5 -21.5t-6.5 -8.5q-8 -24 -14 -37t-10.5 -19.5t-8 -9.5t-6.5 -6q-1 -9 -4 -15t-7 -8v-12l10 -9q12 -3 15 -8q14 0 35.5 0.5t43.5 2t40 4t26 5.5z" />
    <glyph glyph-name="Acircumflex" unicode="&#xc2;" horiz-adv-x="797" 
d="M854 922q0 -11 -10 -25t-21 -14q-14 0 -31 11t-44 24q-13 18 -27 37.5t-29 39.5q-14 14 -33.5 31.5t-33.5 39.5q-15 -14 -31 -28t-31 -27t-27.5 -24.5t-21.5 -18.5q-14 -13 -35 -34.5t-42.5 -42.5t-39.5 -36t-25 -15q-9 0 -19 6t-10 14q0 5 7.5 18.5t15.5 26.5
q9 6 10.5 7.5t5.5 6.5t15.5 16t40.5 37q33 28 50 45l31 31t30 28.5t48 38.5q6 13 14 22t31 9q10 0 20 -13.5t18 -26.5q13 -11 28.5 -24.5t34.5 -30.5q20 -25 41.5 -50t46.5 -53q10 -8 16.5 -15t6.5 -11zM797 22q-21 -8 -35 -8q-5 0 -32 2t-59 2h-14q-8 0 -11 -1q-3 3 -9 3
l-8 -2h1h-6h-8q-6 0 -11 -1l-4 2t-6 1q-2 -2 -4.5 -2.5t-5.5 -2.5l-20 2q-2 -2 -4 -2h-1l-2 2h-26q-26 0 -59.5 2.5t-50.5 8.5l-4 15q2 2 4 5.5t6 6.5q4 1 7 2.5t9 2.5t16.5 2t30.5 1q11 0 14 -1l3 1q3 -1 7 -1h7q14 0 22.5 6.5t13 16.5t6 23t1.5 26q-3 29 -8 31
q0 2 0.5 3.5t0.5 3.5q0 10 -4 14q0 2 0.5 4t0.5 4q0 10 -4 14q0 3 0.5 5t0.5 4q0 14 -2.5 20t-4.5 20l-14 18l-16 7h-21q-13 0 -16 -5q-10 0 -10 -2q-39 3 -74 3q-7 0 -13 -0.5t-13 -0.5h-25q-19 -6 -30.5 -17t-20 -28.5t-16 -43t-18.5 -60.5q0 -4 -0.5 -7t-0.5 -5t0.5 -3
t0.5 -2v-5l10 -23q2 0 8 -3t12 -7q3 -2 5.5 -3.5t6.5 -3t11 -2.5t20 -1q5 1 8.5 1.5t6.5 0.5h11q3 0 20 -14l1 -13q-5 -8 -11 -12.5t-12 -8.5h-30q-8 0 -15 0.5t-13 0.5h-5h-117q-10 0 -32 -2t-46 -4t-46.5 -4t-32.5 -2q-3 0 -18 5l-11 9l2 23q3 4 8.5 8.5t12.5 10.5l14 4
q7 0 12 1t7 2h6q24 0 32.5 3t10.5 5q11 1 16 2.5t8.5 3t7.5 3.5t12 5l4 4q4 2 10 6.5t12 9.5t11 10t7 8l6 5q0 1 4 9.5t9.5 18t11 17.5t7.5 9q11 22 17 35t9.5 20.5t7.5 12t12 10.5q4 16 10 28.5t9 14.5q9 24 16.5 37.5t13.5 22t11 14.5t9 14l5 5q13 29 23.5 52.5t16.5 25.5
l2 6q4 7 13 26t21 45t25.5 55t26 55.5t22.5 47t15 28.5q6 10 10.5 22t22.5 38q9 0 21 3.5t21 5.5q7 -4 23 -9q2 -4 3 -8t5 -9q0 -74 6 -78q-2 -4 -2 -34t2 -32q0 -2 -0.5 -3.5t-0.5 -3.5q0 -8 7 -18l2 -17q-1 -5 -1.5 -9.5t-0.5 -7.5q0 -25 3.5 -43t5.5 -20l6 -34v-10
q0 -4 0.5 -9.5t1.5 -12.5q3 -17 4.5 -26.5t2.5 -17t2.5 -14.5t4.5 -18q0 -8 1.5 -17t6.5 -23q-1 0 -1 -5q0 -23 2.5 -30.5t4.5 -8.5q-1 -3 -1 -9q0 -4 1 -5q0 -4 -0.5 -7t-0.5 -6q0 -15 4 -19q-1 -4 -1 -11v-9q1 -22 4.5 -39.5t6.5 -29.5t4.5 -19.5t-1.5 -10.5v-4
q0 -2 2.5 -9t13.5 -33l20 -15q4 -2 8 -5q1 1 6 1t8.5 -1.5t8.5 -1.5q3 0 11 2q18 0 29 -1t16.5 -3.5t7 -6t1.5 -9.5q0 -5 -1 -6zM529 334q2 8 2 10v8q0 6 -2 8q1 3 1 10q0 1 -1 8.5t-3 18.5t-4.5 23t-6.5 22q1 2 1 7t-1.5 9.5t-2.5 21.5q-1 22 -2 25.5t-2 6.5q0 2 0.5 5
t0.5 5q0 9 -2.5 18.5t-6 18t-6 14.5t-2.5 7h-6l-9 -6q-22 -40 -35 -65.5t-20 -40.5t-10.5 -21.5t-6.5 -8.5q-8 -24 -14 -37t-10.5 -19.5t-8 -9.5t-6.5 -6q-1 -9 -4 -15t-7 -8v-12l10 -9q12 -3 15 -8q14 0 35.5 0.5t43.5 2t40 4t26 5.5z" />
    <glyph glyph-name="Atilde" unicode="&#xc3;" horiz-adv-x="829" 
d="M797 22q-21 -8 -35 -8q-5 0 -32 2t-59 2h-14q-8 0 -11 -1q-3 3 -9 3l-8 -2h1h-6h-8q-6 0 -11 -1l-4 2t-6 1q-2 -2 -4.5 -2.5t-5.5 -2.5l-20 2q-2 -2 -4 -2h-1l-2 2h-26q-26 0 -59.5 2.5t-50.5 8.5l-4 15q2 2 4 5.5t6 6.5q4 1 7 2.5t9 2.5t16.5 2t30.5 1q11 0 14 -1l3 1
q3 -1 7 -1h7q14 0 22.5 6.5t13 16.5t6 23t1.5 26q-3 29 -8 31q0 2 0.5 3.5t0.5 3.5q0 10 -4 14q0 2 0.5 4t0.5 4q0 10 -4 14q0 3 0.5 5t0.5 4q0 14 -2.5 20t-4.5 20l-14 18l-16 7h-21q-13 0 -16 -5q-10 0 -10 -2q-39 3 -74 3q-7 0 -13 -0.5t-13 -0.5h-25q-19 -6 -30.5 -17
t-20 -28.5t-16 -43t-18.5 -60.5q0 -4 -0.5 -7t-0.5 -5t0.5 -3t0.5 -2v-5l10 -23q2 0 8 -3t12 -7q3 -2 5.5 -3.5t6.5 -3t11 -2.5t20 -1q5 1 8.5 1.5t6.5 0.5h11q3 0 20 -14l1 -13q-5 -8 -11 -12.5t-12 -8.5h-30q-8 0 -15 0.5t-13 0.5h-5h-117q-10 0 -32 -2t-46 -4t-46.5 -4
t-32.5 -2q-3 0 -18 5l-11 9l2 23q3 4 8.5 8.5t12.5 10.5l14 4q7 0 12 1t7 2h6q24 0 32.5 3t10.5 5q11 1 16 2.5t8.5 3t7.5 3.5t12 5l4 4q4 2 10 6.5t12 9.5t11 10t7 8l6 5q0 1 4 9.5t9.5 18t11 17.5t7.5 9q11 22 17 35t9.5 20.5t7.5 12t12 10.5q4 16 10 28.5t9 14.5
q9 24 16.5 37.5t13.5 22t11 14.5t9 14l5 5q13 29 23.5 52.5t16.5 25.5l2 6q4 7 13 26t21 45t25.5 55t26 55.5t22.5 47t15 28.5q6 10 10.5 22t22.5 38q9 0 21 3.5t21 5.5q7 -4 23 -9q2 -4 3 -8t5 -9q0 -74 6 -78q-2 -4 -2 -34t2 -32q0 -2 -0.5 -3.5t-0.5 -3.5q0 -8 7 -18
l2 -17q-1 -5 -1.5 -9.5t-0.5 -7.5q0 -25 3.5 -43t5.5 -20l6 -34v-10q0 -4 0.5 -9.5t1.5 -12.5q3 -17 4.5 -26.5t2.5 -17t2.5 -14.5t4.5 -18q0 -8 1.5 -17t6.5 -23q-1 0 -1 -5q0 -23 2.5 -30.5t4.5 -8.5q-1 -3 -1 -9q0 -4 1 -5q0 -4 -0.5 -7t-0.5 -6q0 -15 4 -19
q-1 -4 -1 -11v-9q1 -22 4.5 -39.5t6.5 -29.5t4.5 -19.5t-1.5 -10.5v-4q0 -2 2.5 -9t13.5 -33l20 -15q4 -2 8 -5q1 1 6 1t8.5 -1.5t8.5 -1.5q3 0 11 2q18 0 29 -1t16.5 -3.5t7 -6t1.5 -9.5q0 -5 -1 -6zM529 334q2 8 2 10v8q0 6 -2 8q1 3 1 10q0 1 -1 8.5t-3 18.5t-4.5 23
t-6.5 22q1 2 1 7t-1.5 9.5t-2.5 21.5q-1 22 -2 25.5t-2 6.5q0 2 0.5 5t0.5 5q0 9 -2.5 18.5t-6 18t-6 14.5t-2.5 7h-6l-9 -6q-22 -40 -35 -65.5t-20 -40.5t-10.5 -21.5t-6.5 -8.5q-8 -24 -14 -37t-10.5 -19.5t-8 -9.5t-6.5 -6q-1 -9 -4 -15t-7 -8v-12l10 -9q12 -3 15 -8
q14 0 35.5 0.5t43.5 2t40 4t26 5.5zM889 1074q-2 -11 -19 -37.5t-44.5 -54.5t-64 -49t-78.5 -21h-12q-3 0 -11 2l-58 14l-77 15l-47 6q-21 0 -37.5 -10t-30.5 -21.5t-27 -21.5t-29 -10q-8 0 -16 5q73 114 168 144l17 7q1 1 31 1q27 0 55 -14q21 -10 35.5 -16.5t25 -10
t19 -4.5t19.5 -1q57 0 107 35q3 5 10.5 14t16 17.5t17 15t13.5 6.5q9 0 17 -11z" />
    <glyph glyph-name="Adieresis" unicode="&#xc4;" horiz-adv-x="775" 
d="M760 972q3 0 3 -3q0 -7 -14 -32q-20 -34 -40.5 -45.5t-51.5 -11.5q-8 4 -15 7t-14 7q-13 24 -17 32.5t-4 9.5q0 5 2.5 13t5.5 16q2 5 3.5 10.5t3.5 10.5q23 23 24 22q1 0 6 3.5t11.5 7.5t13.5 7.5t13 3.5q26 0 40 -8.5t21 -19.5q9 -14 10 -28q0 -2 -1 -2zM562 972
q3 0 3 -3q0 -7 -14 -32q-20 -33 -40 -45t-53 -12q-7 4 -14 7t-15 7q-10 21 -14.5 29.5t-5.5 11t-0.5 1.5t0.5 1q0 3 5 21q5 20 10.5 29.5t10.5 13t8 4.5t3 4q0 1 5 4.5t12.5 7t15.5 6.5t13 3q24 0 38 -8t21.5 -17.5t9.5 -18.5t2 -11q0 -3 -1 -3zM797 22q-21 -8 -35 -8
q-5 0 -32 2t-59 2h-14q-8 0 -11 -1q-3 3 -9 3l-8 -2h1h-6h-8q-6 0 -11 -1l-4 2t-6 1q-2 -2 -4.5 -2.5t-5.5 -2.5l-20 2q-2 -2 -4 -2h-1l-2 2h-26q-26 0 -59.5 2.5t-50.5 8.5l-4 15q2 2 4 5.5t6 6.5q4 1 7 2.5t9 2.5t16.5 2t30.5 1q11 0 14 -1l3 1q3 -1 7 -1h7q14 0 22.5 6.5
t13 16.5t6 23t1.5 26q-3 29 -8 31q0 2 0.5 3.5t0.5 3.5q0 10 -4 14q0 2 0.5 4t0.5 4q0 10 -4 14q0 3 0.5 5t0.5 4q0 14 -2.5 20t-4.5 20l-14 18l-16 7h-21q-13 0 -16 -5q-10 0 -10 -2q-39 3 -74 3q-7 0 -13 -0.5t-13 -0.5h-25q-19 -6 -30.5 -17t-20 -28.5t-16 -43
t-18.5 -60.5q0 -4 -0.5 -7t-0.5 -5t0.5 -3t0.5 -2v-5l10 -23q2 0 8 -3t12 -7q3 -2 5.5 -3.5t6.5 -3t11 -2.5t20 -1q5 1 8.5 1.5t6.5 0.5h11q3 0 20 -14l1 -13q-5 -8 -11 -12.5t-12 -8.5h-30q-8 0 -15 0.5t-13 0.5h-5h-117q-10 0 -32 -2t-46 -4t-46.5 -4t-32.5 -2q-3 0 -18 5
l-11 9l2 23q3 4 8.5 8.5t12.5 10.5l14 4q7 0 12 1t7 2h6q24 0 32.5 3t10.5 5q11 1 16 2.5t8.5 3t7.5 3.5t12 5l4 4q4 2 10 6.5t12 9.5t11 10t7 8l6 5q0 1 4 9.5t9.5 18t11 17.5t7.5 9q11 22 17 35t9.5 20.5t7.5 12t12 10.5q4 16 10 28.5t9 14.5q9 24 16.5 37.5t13.5 22
t11 14.5t9 14l5 5q13 29 23.5 52.5t16.5 25.5l2 6q4 7 13 26t21 45t25.5 55t26 55.5t22.5 47t15 28.5q6 10 10.5 22t22.5 38q9 0 21 3.5t21 5.5q7 -4 23 -9q2 -4 3 -8t5 -9q0 -74 6 -78q-2 -4 -2 -34t2 -32q0 -2 -0.5 -3.5t-0.5 -3.5q0 -8 7 -18l2 -17q-1 -5 -1.5 -9.5
t-0.5 -7.5q0 -25 3.5 -43t5.5 -20l6 -34v-10q0 -4 0.5 -9.5t1.5 -12.5q3 -17 4.5 -26.5t2.5 -17t2.5 -14.5t4.5 -18q0 -8 1.5 -17t6.5 -23q-1 0 -1 -5q0 -23 2.5 -30.5t4.5 -8.5q-1 -3 -1 -9q0 -4 1 -5q0 -4 -0.5 -7t-0.5 -6q0 -15 4 -19q-1 -4 -1 -11v-9q1 -22 4.5 -39.5
t6.5 -29.5t4.5 -19.5t-1.5 -10.5v-4q0 -2 2.5 -9t13.5 -33l20 -15q4 -2 8 -5q1 1 6 1t8.5 -1.5t8.5 -1.5q3 0 11 2q18 0 29 -1t16.5 -3.5t7 -6t1.5 -9.5q0 -5 -1 -6zM529 334q2 8 2 10v8q0 6 -2 8q1 3 1 10q0 1 -1 8.5t-3 18.5t-4.5 23t-6.5 22q1 2 1 7t-1.5 9.5t-2.5 21.5
q-1 22 -2 25.5t-2 6.5q0 2 0.5 5t0.5 5q0 9 -2.5 18.5t-6 18t-6 14.5t-2.5 7h-6l-9 -6q-22 -40 -35 -65.5t-20 -40.5t-10.5 -21.5t-6.5 -8.5q-8 -24 -14 -37t-10.5 -19.5t-8 -9.5t-6.5 -6q-1 -9 -4 -15t-7 -8v-12l10 -9q12 -3 15 -8q14 0 35.5 0.5t43.5 2t40 4t26 5.5z" />
    <glyph glyph-name="Aring" unicode="&#xc5;" horiz-adv-x="775" 
d="M649 934q-5 -5 -13 -11.5t-22 -10.5l-14 -4q-1 -1 -9 -1q-4 0 -13.5 0.5t-20 3t-18.5 6t-8 9.5q-13 13 -16 24t-3 17q0 8 1.5 11.5t1.5 5.5v2h-1q0 3 2.5 12.5t7.5 21t13 22.5t20 16q4 2 6.5 6t8.5 8t16.5 7t29.5 3q10 0 23 -5.5t13 -8.5q9 -5 15 -12q5 -6 9.5 -14.5
t4.5 -19.5q-3 -22 -5 -36t-5.5 -23t-9 -15.5t-14.5 -13.5zM797 22q-21 -8 -35 -8q-5 0 -32 2t-59 2h-14q-8 0 -11 -1q-3 3 -9 3l-8 -2h1h-6h-8q-6 0 -11 -1l-4 2t-6 1q-2 -2 -4.5 -2.5t-5.5 -2.5l-20 2q-2 -2 -4 -2h-1l-2 2h-26q-26 0 -59.5 2.5t-50.5 8.5l-4 15q2 2 4 5.5
t6 6.5q4 1 7 2.5t9 2.5t16.5 2t30.5 1q11 0 14 -1l3 1q3 -1 7 -1h7q14 0 22.5 6.5t13 16.5t6 23t1.5 26q-3 29 -8 31q0 2 0.5 3.5t0.5 3.5q0 10 -4 14q0 2 0.5 4t0.5 4q0 10 -4 14q0 3 0.5 5t0.5 4q0 14 -2.5 20t-4.5 20l-14 18l-16 7h-21q-13 0 -16 -5q-10 0 -10 -2
q-39 3 -74 3q-7 0 -13 -0.5t-13 -0.5h-25q-19 -6 -30.5 -17t-20 -28.5t-16 -43t-18.5 -60.5q0 -4 -0.5 -7t-0.5 -5t0.5 -3t0.5 -2v-5l10 -23q2 0 8 -3t12 -7q3 -2 5.5 -3.5t6.5 -3t11 -2.5t20 -1q5 1 8.5 1.5t6.5 0.5h11q3 0 20 -14l1 -13q-5 -8 -11 -12.5t-12 -8.5h-30
q-8 0 -15 0.5t-13 0.5h-5h-117q-10 0 -32 -2t-46 -4t-46.5 -4t-32.5 -2q-3 0 -18 5l-11 9l2 23q3 4 8.5 8.5t12.5 10.5l14 4q7 0 12 1t7 2h6q24 0 32.5 3t10.5 5q11 1 16 2.5t8.5 3t7.5 3.5t12 5l4 4q4 2 10 6.5t12 9.5t11 10t7 8l6 5q0 1 4 9.5t9.5 18t11 17.5t7.5 9
q11 22 17 35t9.5 20.5t7.5 12t12 10.5q4 16 10 28.5t9 14.5q9 24 16.5 37.5t13.5 22t11 14.5t9 14l5 5q13 29 23.5 52.5t16.5 25.5l2 6q4 7 13 26t21 45t25.5 55t26 55.5t22.5 47t15 28.5q6 10 10.5 22t22.5 38q9 0 21 3.5t21 5.5q7 -4 23 -9q2 -4 3 -8t5 -9q0 -74 6 -78
q-2 -4 -2 -34t2 -32q0 -2 -0.5 -3.5t-0.5 -3.5q0 -8 7 -18l2 -17q-1 -5 -1.5 -9.5t-0.5 -7.5q0 -25 3.5 -43t5.5 -20l6 -34v-10q0 -4 0.5 -9.5t1.5 -12.5q3 -17 4.5 -26.5t2.5 -17t2.5 -14.5t4.5 -18q0 -8 1.5 -17t6.5 -23q-1 0 -1 -5q0 -23 2.5 -30.5t4.5 -8.5q-1 -3 -1 -9
q0 -4 1 -5q0 -4 -0.5 -7t-0.5 -6q0 -15 4 -19q-1 -4 -1 -11v-9q1 -22 4.5 -39.5t6.5 -29.5t4.5 -19.5t-1.5 -10.5v-4q0 -2 2.5 -9t13.5 -33l20 -15q4 -2 8 -5q1 1 6 1t8.5 -1.5t8.5 -1.5q3 0 11 2q18 0 29 -1t16.5 -3.5t7 -6t1.5 -9.5q0 -5 -1 -6zM568 1006q-1 -2 -3.5 -13
t-2.5 -23q0 -8 4 -12t9 -6.5t10 -3t7 -0.5q4 1 9 1t10 4.5t10.5 17.5t9.5 41q0 2 -3 11.5t-20 11.5h-14q-6 -1 -13.5 -5.5t-12.5 -23.5zM529 334q2 8 2 10v8q0 6 -2 8q1 3 1 10q0 1 -1 8.5t-3 18.5t-4.5 23t-6.5 22q1 2 1 7t-1.5 9.5t-2.5 21.5q-1 22 -2 25.5t-2 6.5
q0 2 0.5 5t0.5 5q0 9 -2.5 18.5t-6 18t-6 14.5t-2.5 7h-6l-9 -6q-22 -40 -35 -65.5t-20 -40.5t-10.5 -21.5t-6.5 -8.5q-8 -24 -14 -37t-10.5 -19.5t-8 -9.5t-6.5 -6q-1 -9 -4 -15t-7 -8v-12l10 -9q12 -3 15 -8q14 0 35.5 0.5t43.5 2t40 4t26 5.5z" />
    <glyph glyph-name="AE" unicode="&#xc6;" horiz-adv-x="1365" 
d="M1380 211q-4 -12 -9 -31.5t-13 -47.5h2q-5 -31 -12 -62.5t-17 -52.5q-13 -11 -73 -14t-166 -3q-5 0 -15 1t-21.5 2t-22 2t-16.5 1q-11 0 -21 -1t-18 -5l-30 3q-6 3 -19 3q-22 0 -34 -3t-13 -3h-60l-17 8q-22 -8 -36 -8q-3 0 -23.5 2t-62.5 2q-13 0 -21 -1.5t-21.5 -3
t-37.5 -3t-69 -1.5q-49 0 -80.5 8t-31.5 19q0 2 3 7l10 13q15 9 25 9h12q5 0 15 -0.5t24 -1.5l21 2q6 -2 8 -2h8q15 0 15 13v7q0 4 1.5 6t3 5t3 7.5t1.5 13.5q0 21 -3 38.5t-7 33t-7 30t-3 28.5q0 20 -14.5 28.5t-35.5 8.5q-13 0 -35 -1t-45 -1.5t-43.5 -1.5t-29.5 -1
l-20 -5q-5 0 -9 -7.5t-8 -8.5q-3 -10 -9.5 -22.5t-14 -30.5t-14 -42t-9.5 -55l10 -21q8 -2 19 -12t28 -10h20q10 2 12 2h9q6 0 20 -14l3 -12q-6 -8 -11.5 -13t-11.5 -9h-34q-11 0 -25.5 0.5t-31.5 1.5h-90q-10 0 -32 -1.5t-46 -4t-46.5 -4t-32.5 -1.5q-7 0 -17 3l-13 11
l2 21q1 11 7.5 12.5t13.5 6.5q78 2 108 17l29 15q17 8 23 22l16 18q4 9 5.5 11t1.5 1.5t-0.5 -2t-0.5 -0.5h1q4 6 8.5 14t12 21t18 32t25.5 48l40 81q3 9 8.5 18.5t11.5 17.5l18 23l11 30q23 48 32 53q1 1 5.5 10.5t10.5 20t11 19t7 8.5l6 9q25 87 45 96q5 28 12 45t14 22
q2 6 5.5 13.5t9.5 18l14 24.5l20 35l16 6q6 2 10 2h6.5t7.5 1l23 -9q2 -8 9 -27t7 -63q0 -13 -0.5 -23.5t-0.5 -20.5q0 -45 5 -50q2 -23 4 -47.5t7 -51.5q1 -10 1 -19.5t1 -17.5q1 -14 2.5 -27.5t4.5 -18.5v1q6 -38 9 -63.5t10 -35.5q1 -17 2.5 -40t4.5 -53q5 -48 8.5 -67.5
t5.5 -26t3 -9t1 -17.5v-7q0 -4 -1 -7q0 -10 4.5 -17t9.5 -12q5 -3 6 -12t6 -12l19 4q4 4 9.5 7.5t13.5 9.5l11 14q8 4 11.5 18t6 32.5t4 39t5.5 38.5q4 11 9.5 26t10.5 37l20 100q5 12 5 37v18q2 13 3 23.5t3 19.5q14 22 22.5 52t13.5 61.5t7 60t2 47.5q0 16 -21 23.5
t-57 7.5h-10q-7 0 -11 -1q-12 2 -21.5 5t-9.5 10q0 10 8.5 16.5t22 9.5t30 4t33.5 1q2 0 4 -1q1 -1 5 -1t7 -1v-1q11 -3 24 -4t30 -1h40h15t12 1q5 -1 10 -1.5t10 -0.5t9.5 0.5t9.5 1.5l21 2h31q15 4 27 4q13 0 23 -1.5t16 -1.5q8 0 19.5 2t21.5 2q14 0 20 -3t12 -3
q13 0 20 7q11 1 20.5 1.5t18.5 0.5h34q37 0 60 -3h62q2 1 8 1q11 0 14 -9t3 -20q0 -13 -3 -26l-10 -43q-6 -13 -8 -21.5t-3.5 -18.5t-3.5 -25.5t-8 -42.5l-4 -20q-2 -11 -7 -27t-13 -36q-2 -2 -6 -2q-6 0 -10 -1l1 -1q0 -1 -13 -1q-5 0 -5 6q0 4 2 8t2 9q0 8 -4 17
q3 21 3 38q0 36 -10 56q-9 4 -9 16q0 3 2 13q0 8 -15 19q-2 12 -12 23t-22 19.5t-23 13t-14 4.5h-3h-24q-8 0 -23.5 4.5t-24.5 4.5q-2 0 -14 -2t-29 -2q-4 0 -6 0.5t-5 1t-8.5 2t-16.5 3.5h-21q-5 -1 -9 -1.5t-6 -0.5t-3.5 0.5t-3.5 0.5q-9 -2 -18 -5t-17 -5
q-20 -22 -32 -49t-17 -58q0 -6 -0.5 -16t-5.5 -27l-14 -47q-2 -5 -3 -15t-5 -23q1 -1 1 -5q0 -6 -3.5 -16.5t-3.5 -25.5q0 -25 31 -25q14 0 29 4l1 2q30 6 53.5 16.5t41.5 28.5t31 44.5t22 64.5h-1q6 32 23 32h10l4 -3q1 -2 1 -9q0 -13 -5 -28.5t-9 -30.5q-1 -5 -15 -107
l-5 -22q0 -5 -6 -32.5t-17 -79.5q-7 -39 -13 -60.5t-10.5 -31.5t-8.5 -12t-8 -2q-8 5 -12 5q-3 0 -3 6q0 8 2 23.5t4 37.5l-2 24q-1 10 -3 21t-3 24q0 5 -10 15t-30 28l-12 8l-4 2t-5 1l-36 3q-12 4 -19 4q-6 0 -9.5 -2t-5.5 -2l-10 -8q-3 -4 -11 -28.5t-17.5 -64.5
t-18.5 -92.5t-13 -112.5q5 -14 9 -22t9.5 -11.5t12.5 -4.5t18 -1l5 2q14 3 28.5 4t31.5 1q24 0 49 -1t49 -3l3 2q36 6 65 16.5t53 29.5t44.5 47.5t39.5 69.5q23 47 35.5 73.5t19.5 39.5t12 17t14 7l9 -6q2 -6 2 -15q0 -11 -3 -27q-5 -23 -7 -34.5t-3 -18.5t-1.5 -12.5
t-2.5 -15.5zM535 320q2 6 2 9v8q0 7 -2 9q-2 24 -3 38t-1 16q-16 16 -16 98q0 40 -8.5 53.5t-12.5 14.5l-11 -6q-13 -23 -33 -60.5t-38.5 -74t-32.5 -64.5l-16 -32l-1 -12q11 -17 26 -17q126 0 143 14z" />
    <glyph glyph-name="Ccedilla" unicode="&#xc7;" horiz-adv-x="737" 
d="M791 735q-8 -32 -19 -78t-26 -115q-6 -35 -8 -50t-3.5 -22t-4.5 -12t-10 -20h-25l-1 4l-6 4l-3 43q-1 4 -1 7.5v6.5v11v9q0 5 1 6q-5 8 -10 40q-5 4 -5 16t-12 32q-1 3 -1.5 6.5t-2.5 7.5q-2 7 -5 16.5t-7 21.5q-2 5 -6.5 12.5t-12.5 15.5l-15 12l-20 17l-16 8
q-11 5 -28.5 9t-43.5 3q-25 0 -42 -1.5t-32 -6.5t-31 -14.5t-40 -25.5q-3 -5 -11 -13l-19 -19l-27 -34q-2 -2 -24 -47l-12 -37l-4.5 -4.5t-6 -13.5t-10 -35.5t-16.5 -71.5q-30 -141 -30 -218q0 -24 5 -37q4 -5 5 -16.5t4 -16.5q12 -69 71 -81l28 -17q20 -6 38 -8.5t37 -2.5
q7 0 18.5 2.5t23 6.5t21.5 8.5t14 8.5l14 3q2 3 8 6.5t13 7.5t13.5 8.5t9.5 8.5q11 3 22 14l54 54q9 9 17 29.5t17 38.5l1 1q2 2 6.5 16.5t15.5 43.5q9 5 15 23l11 9l15 -6q3 -6 3 -15q0 -16 -8.5 -37.5t-23.5 -47.5l-41 -69q-6 -6 -15 -16.5t-22 -25.5q-13 -16 -23.5 -25
t-21 -15.5t-22.5 -14.5t-29 -23q-31 -13 -57 -20t-46 -9l-6 -17q4 3 8 5.5t9 3.5q4 -2 9 -2t9 2l28 -8q12 0 19 -4l16 -8q8 -2 14 -6q13 -7 13 -17v-3q20 -14 20 -48q0 -5 -1 -9l-2 -8l1 -6q-12 -29 -22 -47t-20 -29.5t-22 -17.5t-28 -12q-7 -3 -14.5 -7t-18.5 -7
t-26.5 -5.5t-37.5 -2.5q-4 0 -13 2.5t-15 2.5h-9q-5 5 -15.5 8t-15.5 11l-6 -2l-11 2l-7 4q-11 0 -28.5 5.5t-34.5 14t-29.5 18.5t-12.5 20q0 2 0.5 2.5t0.5 2.5l5 20q11 8 22 15t26 8q2 -4 16.5 -13.5t34 -19.5t41.5 -17.5t39 -7.5q10 0 23 4t24 9t19.5 10t11.5 8l8 24
q0 2 0.5 4.5t0.5 4.5q0 6 -3 8q1 1 1 6q0 14 -15 22t-35 8h-12q-4 0 -10 -2h-15q0 -1 -8 23l2 12l17 22q0 5 -2 9l-58 9q-10 8 -23.5 10t-21.5 6q-15 5 -36 25.5t-48 54.5l-20 35q-5 13 -13 26.5t-18 27.5l-7.5 39t-3.5 21t-1.5 15t-1.5 20q-9 7 -9 10v3q0 4 1 7l3 23
q-1 3 -1 13q0 9 1 19.5t3.5 25t8 35t14.5 49.5h2l17 38q1 7 8 17t20 30l17 27q6 13 17 26t22 25t20.5 22t12.5 15q8 6 22.5 17t34.5 28q5 12 23 20l26 17q7 4 22.5 12.5t38.5 17.5t53.5 16t68.5 7q35 0 62 -10q20 -6 30 -19t13 -15l18 -17q2 -3 6.5 -9t10 -12t11 -10.5
t9.5 -4.5l12 -1q5 5 15.5 21t23 33.5t25 31.5t21.5 15v2q14 -8 14 -32q0 -8 -1 -15.5t-2 -17.5z" />
    <glyph glyph-name="Egrave" unicode="&#xc8;" horiz-adv-x="795" 
d="M649 871q-13 -19 -32 -19q-17 0 -33 7.5t-33 15.5v8q-5 0 -8 -1l-1.5 3t-7 4.5t-22.5 11.5t-49 24l-1 6q-14 8 -26.5 13.5t-23.5 9.5l-4 6h-2q-12 0 -32 20q-10 11 -14.5 16.5t-7 11t-3.5 13.5t-3 25q2 3 4 9t7.5 14t16.5 18.5t31 23.5q14 1 23 7q7 -3 16 -5.5t22 -6.5
q4 2 8 2q9 0 18 -23l14 -7q4 -3 5 -5.5t3 -6.5l8 -6l1 -11l9 -3q7 -10 16.5 -24t19.5 -34q17 -19 31.5 -39.5t25.5 -37.5q7 -10 13 -20t11 -20zM777 249q-7 -9 -9 -20q-2 -5 -7 -28.5t-13 -66.5l1 -2q-2 -15 -5 -29t-6 -29q-3 -17 -4.5 -30t-10.5 -21.5t-29 -13t-60 -4.5
q-12 0 -31 0.5t-36 1t-29.5 1t-12.5 1.5h-8l-11 -1h-17h-6q-1 0 -9 -2h-16q-5 0 -14 0.5t-19.5 1l-21 1t-17.5 0.5q-10 0 -18.5 -2t-16.5 -5l-14 3q-7 4 -149 4q-10 0 -31 -1t-44.5 -2t-44.5 -2t-31 -1l-6 -1l-19 9l-6 1l-3 8l5 11q4 1 8.5 3t11.5 4h6l3 2q2 2 13 2
q7 0 16 -1t20 -1q23 0 35.5 6t27.5 20l2 5q15 8 20.5 38t16.5 99q10 10 20 63l20 100q0 1 -0.5 2t-0.5 3q1 5 2 15t3 24q5 30 7.5 44t5.5 23t7 18t11 28q2 12 3.5 46.5t15.5 79.5q3 9 3 14q0 4 -2 6v24q-13 25 -70 25h-10q-6 0 -9 -1l-9 -2q-10 2 -15 4q-6 2 -10.5 4.5
t-4.5 7.5v6q0 4 2 10q16 8 39 11t52 3q1 0 4 -1.5t14 -3t32.5 -2.5t59.5 -1q14 0 29.5 1t32.5 3l3 -4h51l1 2l11 2q6 -2 10 -2h13q6 0 17 1t23 1.5t23.5 1.5t18.5 1l9 -2l5 2q10 1 20 1h21h51h60h33t35 -1l20 -2l7 -5q1 -5 1.5 -9.5t0.5 -9.5q0 -11 -5 -39l-7 -31l-2 -3
q-7 -31 -12.5 -57.5t-9.5 -48.5l-1 -2q-5 -24 -10.5 -43.5t-12.5 -36.5l-9 -3l-14 5q-2 5 -3.5 14t-5.5 20v9v6.5t1 7.5q-1 4 -1 8v9t-0.5 10t-1.5 10q-2 2 -2 5v3q-2 4 -5 14t-5 41q-4 7 -9 11t-16 20v4q-3 2 -9 6.5t-12.5 10t-11.5 10t-5 6.5q-17 1 -27 9h-24
q0 -3 -11 3.5t-35 6.5q-29 0 -43 -2t-13 -2q-5 0 -16 3t-16 3h-2q-6 -2 -10 -2h-9q-11 0 -14 1q-18 -3 -31 -9t-23 -18.5t-17.5 -33.5t-13.5 -55q1 -1 1 -6q-1 -5 -2 -14.5t-5 -22.5l-14 -46q-2 -7 -3 -17t-5 -23q2 -6 2 -9q0 -14 -4 -25.5t-4 -14.5q0 -23 31 -23q14 0 29 4
l2 2q3 0 17 4.5t29.5 11.5t28.5 15t14 15q6 4 11.5 9.5t11.5 16.5q9 8 18 28t17 54h-1l3 3l-2 1q7 30 22 30l11 -2l3 -3q0 -5 1 -5q0 -14 -0.5 -20t-1.5 -10t-3.5 -9.5t-5.5 -20t-7.5 -40.5t-10.5 -70l-1 -4q-4 -10 -7.5 -24t-5.5 -31q0 -1 -2.5 -14t-6.5 -33t-9.5 -43
t-11.5 -42.5t-13 -32.5t-13 -13h-1h-4q-5 5 -5 22q0 11 1 23.5t2 23.5v3q-3 0 -1 14t-7 41v14q-5 14 -17 23t-23 19l-12 1q-2 5 -21 8l-2 1q-18 7 -45 7q-11 0 -17 -6t-12.5 -27t-15.5 -62.5t-25 -112.5v-26q1 -4 0 -5.5t-3 -8t-4.5 -20.5t-3.5 -42l9 -27q2 -2 11 -3t26 -5
q2 0 2 -1t1 -2l5 1q13 3 53 3q41 0 107 -3l1 2q8 2 18 2.5t24 2.5q33 9 62.5 30.5t52.5 56.5q2 2 4 4.5t4 4.5q3 4 5.5 7.5t2.5 5.5q8 5 14.5 17t12 24t10 21.5t7.5 9.5q8 21 20.5 47.5t27.5 58.5q7 3 20 10l9 -8q1 -1 1 -6t-1.5 -17.5t-3.5 -25.5t-3.5 -23.5t-1.5 -12.5z
" />
    </font>
</defs>
</svg>
