<?xml version="1.0" encoding="utf-8"?>
<!-- Generator: Adobe Illustrator 21.0.2, SVG Export Plug-In . SVG Version: 6.00 Build 0)  -->
<svg version="1.1" id="Capa_1" xmlns="http://www.w3.org/2000/svg" xmlns:xlink="http://www.w3.org/1999/xlink" x="0px" y="0px"
	 viewBox="0 0 2174.2 455.1" enable-background="new 0 0 2174.2 455.1" xml:space="preserve">
<g>
	<path fill="#F9F9F9" d="M244.3,120.2c0.2,3.1,0.8,7.3,1.8,12.6c1,5.2,2.3,11.8,3.8,19.6c2.9,19.1,5.1,28.7,6.7,28.7v8.3
		c0.4-2.1,2-3.1,4.7-3.1c1.3,1.8,2.7,4.8,4,8.8c1.3,4.1,2.9,9,4.7,14.7c0.4,1.3,1.6,5.4,3.3,12.2c1.8,6.8,4.8,16.5,9,29.1
		c0.2,1.3,0.6,3.2,1.2,5.7c0.6,2.5,1.2,5.6,1.8,9.2c0.9,2.1,0.9,4.1,0,5.9c-0.4,2.1-0.7,3-0.7,2.8c2.2,0,4.2,1.6,6,4.7l0.3,2
		c0.9-2.9,1.9-6.4,3.2-10.6c1.2-4.2,2.6-8.9,4.2-14.1c0.4-3.7,1.3-8,2.7-13c1.3-5,2.7-10.9,4-17.7c1.1-3.7,2.3-8.1,3.5-13.2
		c1.2-5.1,2.7-11.3,4.5-18.7c0-1.6,1.6-6.7,4.7-15.3c3.8-9.2,5.9-13.8,6.3-13.8c0.2-2.4,0.6-5.2,1-8.6c0.4-3.4,0.9-7.5,1.3-12.2
		c0-2.6,0.2-5.6,0.5-8.8c0.3-3.3,1.1-6.7,2.2-10.4c1.8-6,3.1-10.6,4-13.8c0.9-3.1,1.4-5,1.7-5.5v-1.6c0-1.8,0.1-3.7,0.3-5.5
		c0.2-1.8,0.8-4.1,1.7-6.7c-0.2-1.3,0.1-2.9,1-4.7c0.9-1.8,2-3.7,3.3-5.5c1.3-1.8,2.7-3.4,4.2-4.7c1.4-1.3,2.7-2.1,3.8-2.4
		c1.3-0.5,2.9-0.1,4.7,1.2c2.2-0.8,4.6-1.4,7.2-2c2.6-0.5,5.1-0.8,7.5-0.8h22c2.4-0.3,4.8-0.4,7-0.4c2.2,0,4.5,0,6.7,0H419
		c7.1,0,11.5,0.5,13,1.6c4.5,1.3,6.7,4.6,6.7,9.8c-0.7,1-0.9,2.1-0.7,3.1c0.2,1,0.3,2.2,0.2,3.3c-0.1,1.2-0.6,2.5-1.5,3.9
		c-0.9,1.4-2.7,2.9-5.3,4.5c-4,2.1-8.5,3.3-13.4,3.5c-4.9,0.3-9.9,0.4-15,0.4c-3.1,0.8-5.6,1.8-7.5,3.1c-1.9,1.3-2.8,3.1-2.8,5.5
		c0,0.8-0.1,1.9-0.3,3.3c-0.2,1.4-0.5,3-0.8,4.7c-0.3,1.7-0.6,3.3-0.8,4.9c-0.2,1.6-0.3,2.8-0.3,3.5c0.2,0.3,0.3,0.9,0.3,2v3.5v12.6
		v38.1c0,10.2-0.3,20-1,29.5c-0.7,9.4-1.9,18.5-3.7,27.1c1.8,12.1,3.1,21.7,4,28.9c0.9,7.2,1.3,12,1.3,14.3v7.1
		c0,1.6-0.1,3.3-0.2,5.3c-0.1,2-0.3,4.1-0.5,6.5c-0.4,7.9-0.4,14,0,18.5c0,6.8,0.7,13,2,18.7c1.3,5.6,5.6,9.2,12.7,10.8h18.4
		c11.4,0.5,16.7,5.4,16,14.5c-1.1,8.4-6.5,12.6-16,12.6c-1.8,0-4.3-0.2-7.7-0.6c-3.3-0.4-5.6-0.6-6.7-0.6c-3.3,0-8.2-0.2-14.7-0.6
		c-6.5-0.4-14.7-0.7-24.7-1c-16.3-0.3-29.4-0.3-39.4,0c-1.3,0-3.7,0.3-7,0.8c-3.3,0.5-5.9,0.8-7.7,0.8c-6.2,0-10.7-3.7-13.4-11
		c-3.1-7.6-0.8-11.8,7-12.6h6.7c1.6,0,3.2-0.1,4.8-0.2c1.7-0.1,3.6-0.3,5.8-0.6c2.4,0,6.5-0.7,12-2l1-2c1.6-1.6,3.6-2.4,6-2.4
		c-1.8,0-2.1-1.2-1-3.5c0.7-4.5,1.2-8.4,1.7-12c0.4-3.5,0.6-6,0.3-7.3c-0.4-2.9-0.6-5.4-0.3-7.7c0.2-2.2,0.4-4,0.7-5.3
		c-0.4-5.8-0.4-13.2,0-22.4c0.7-5.8,0.7-14,0-24.8c-0.2-5.2-0.4-9.8-0.7-13.8c-0.2-3.9-0.1-7.2,0.3-9.8c-0.4-5.2-0.7-11.8-0.8-19.8
		c-0.1-8-0.2-17.5-0.2-28.5V178c0-2.6,0-5.4,0-8.4c0-3-0.1-6.3-0.3-10v-15.7v-2.4v0.4c-0.9,2.1-1.7,5-2.3,8.8
		c-0.7,3.8-1.8,8.4-3.3,13.9c-4.5,18.1-8.5,27.1-12,27.1c0.4,2.4,0.7,4.5,0.8,6.3c0.1,1.8,0.1,3.7-0.2,5.5c-0.9,2.9-1.9,6.4-3,10.6
		c-1.1,4.2-2.5,9-4,14.5c-0.4,1.6-0.9,3.5-1.3,5.9c-0.4,2.4-1.3,5.2-2.7,8.6c-1.6,1.8-4.3,12.7-8.3,32.6c-0.9,5.2-2,11.7-3.2,19.3
		c-1.2,7.6-3,16.5-5.2,26.7c-0.7,2.1-1.2,4.4-1.7,6.9c-0.4,2.5-0.9,5.6-1.3,9.2c-1.1,5-2.7,9.6-4.8,13.8c-2.1,4.2-3.4,6.3-3.8,6.3
		c0.4,1.3,0.8,2.3,1.2,2.9c0.3,0.7,0.6,1.6,0.8,2.9c0,7.9-3.9,11.8-11.7,11.8c-6.7,0-10-3.4-10-10.2c0-3.1-1.8-8.8-5.3-16.9
		c-1.6-3.9-2.8-7.3-3.7-10c-0.9-2.8-1.5-5.2-1.7-7.3l-1.7-18.5c-1.1-11-2-16.5-2.7-16.5s-2-2.1-4-6.3c-2-4.2-4.3-10.6-7-19.3
		c-3.1-9.2-5.3-16.4-6.5-21.8c-1.2-5.4-1.8-8.7-1.8-10c0-1-0.3-2.6-1-4.5c-0.7-2-1.4-4.1-2.2-6.3c-0.8-2.2-1.5-4.4-2.2-6.5
		c-0.7-2.1-1-3.8-1-5.1c-0.2-1.3-0.8-3.1-1.7-5.3c-0.9-2.2-1.8-4.5-2.7-6.9c-0.9-2.4-1.7-4.7-2.3-7.1s-1-4.3-1-5.9
		s-2.2-9.4-6.7-23.6c-2.5-7.6-4.3-13.7-5.7-18.3c-1.3-4.6-2.1-7.3-2.3-8.1l-0.3-2c-0.2-1.8-0.2-3.3,0-4.3l-2.3-3.5
		c-0.2,0.3-0.3,6.2-0.3,17.7c0.2,7.9,0.4,17.4,0.7,28.5c0.2,11.1,0.1,24.2-0.3,39.1c-1.3,18.3-2.3,34.2-2.8,47.5
		c-0.6,13.4-0.8,24.2-0.8,32.6c0,17,1.1,25.5,3.3,25.5l-1,6.3c1.8-0.5,3-0.8,3.7-1c0.7-0.1,1.2-0.1,1.7,0.2l5.7,13
		c0.2,0.3,0.7,0.8,1.5,1.6c0.8,0.8,1.7,1.6,2.7,2.4c1,0.8,1.9,1.6,2.8,2.4c0.9,0.8,1.6,1.2,2,1.2c6.5,1.8,11.8,3.1,16,3.7
		c4.2,0.7,7.6,1.2,10.2,1.8c2.6,0.5,4.3,1.2,5.3,2.2c1,0.9,1.5,2.6,1.5,4.9c0,7.3-2.9,11.3-8.7,11.8c-5.1,0.5-11.1,1-18,1.4
		c-6.9,0.4-15,0.6-24.4,0.6h-26.4c-3.6,0-6.7,0-9.4,0s-4.9,0.1-6.7,0.4c-13.4,0.5-20-2.8-20-9.8c0-1.6,0.6-4.1,1.7-7.5
		c0-1.8,4.8-3.9,14.4-6.3c10-3.1,15.5-5.2,16.4-6.3c0.4-0.8,0.9-1.4,1.5-2c0.6-0.5,0.9-1,1.2-1.6l1.3-1.6c1.6-1,4.2-16,8-44.8
		c-2.7-23.8-3.7-50.8-3-80.9c0-14.4,0.3-35.4,1-62.9c2.7-34-3.5-51.1-18.4-51.1c-0.9,0-1.8,0.1-2.7,0.2c-0.9,0.1-2,0.5-3.3,1h-5.7
		c-2.7,0-5.3-0.5-7.8-1.4c-2.6-0.9-4.7-2.2-6.5-3.9c-1.8-1.7-3.1-3.7-3.8-5.9c-0.8-2.2-0.6-4.6,0.5-7.3c1.8-0.8,3.5-1.6,5-2.6
		c1.6-0.9,2.9-2,4-3.3c3.8-1.3,7.4-2.4,10.9-3.3c3.4-0.9,6.8-1.4,10.2-1.4h43.8C221.8,72.7,233.2,88.5,244.3,120.2z"/>
	<path fill="#F9F9F9" d="M647.1,370.9c-5.1-3.9-8.2-5.9-9.4-5.9c-0.7,0.8-1.3,1.5-1.8,2.2c-0.6,0.7-1.2,1-1.8,1
		c-0.9,0-1.8-0.4-2.8-1.2c-1-0.8-2.1-1.2-3.2-1.2c-1.6,0-2.8,1.6-3.7,4.7c-4,0-7.9,0.3-11.7,1c-3.8,0.7-6.1,1-7,1
		c-3.1,0-6.9-2.2-11.4-6.7v-1.6c0-3.9-1.3-6.9-4-9c0.4-2.4,2.1-6,5-11c1.6-0.3,3.1-0.5,4.5-0.8c1.4-0.3,2.9-0.5,4.5-0.8
		c2.7-0.5,5.6-0.9,8.7-1.2c3.1-0.3,6.1-0.4,9-0.4h1.7c0.7,0.3,1.7,0.4,3,0.4h2.7c2.2,0,3.3-0.8,3.3-2.4c0-1.8,0.7-3.5,2-5.1v-2.4
		c-0.4-5.5-1.2-10-2.2-13.6s-2.4-5.7-4.2-6.5c-0.2-2.6-0.6-4.8-1.2-6.7c-0.6-1.8-1.2-3.9-2-6.3c-0.8-2.4-1.8-5.4-3-9
		c-1.2-3.7-2.6-8.6-4.2-14.9l-2.3-3.1c-0.2-0.3-0.6-0.5-1.2-0.8c-0.6-0.3-0.9-0.7-1.2-1.2l-3.3-0.8h-5.3c0-0.3-0.3-0.4-1-0.4v-2
		l-4.3,3.1c-1.8,0.8-3.3,1.2-4.7,1.2h-1.3c-5.6-0.5-11.5-0.8-17.9-1c-6.3-0.1-13.2-0.2-20.5-0.2c-0.7,0.8-1.7,1.6-3.2,2.6
		c-1.5,0.9-3.4,4.3-5.8,10l1.7-1.6c-0.2,0.3-0.6,1.9-1.2,4.9c-0.6,3-1.2,6.6-1.8,10.8c-0.7,4.2-1.2,8.6-1.7,13.4
		c-0.4,4.7-0.7,8.8-0.7,12.2v1.6c0,1.3,0.1,2.1,0.3,2.4l0.7,3.1l3.3,6.3h1c1.1,0.3,2.7,1,4.8,2.2c2.1,1.2,4.2,2.4,6.2,3.7h7
		c1.1-0.3,2.1-0.4,2.8-0.4c0.8,0,1.4,0,1.8,0h3.3c2.7,0,6.8,2.5,12.4,7.5l2.3,8.6c-0.7,2.1-1.5,3.7-2.3,4.9
		c-0.9,1.2-1.8,2.2-2.8,3.1c-1,0.9-1.9,1.8-2.7,2.8c-0.8,0.9-1.4,2.2-1.8,3.7c-2.9,0-6.8-0.1-11.9-0.4c-5-0.3-8.6-0.4-10.9-0.4
		h-38.7l-51.1,4.7c-2.7,0-5.5-0.5-8.3-1.6l-8-7.1c-2.4-0.8-3.7-2.5-3.7-5.1c0-2.6,0.9-5.4,2.7-8.3c2.9,0,4.8-1.1,5.7-3.3
		c0.9-2.2,1.9-4.5,3-6.9l6-2.4c0.2-0.3,1.6-0.5,4.2-0.8c2.6-0.3,5.3-0.5,8.3-0.8c3-0.3,5.7-0.5,8-0.8c2.3-0.3,3.4-0.4,3.2-0.4
		l7.7,1.2l7-6.7c0.9-0.8,1.8-2.4,2.7-4.7c0.9-2.4,1.6-5.4,2-9l1.7-2.4c0.9-2.4,2.1-5.8,3.5-10.2c1.4-4.5,2.5-7.9,3.2-10.2
		c0.4-8.1,1.1-13.9,2-17.5c0.9-3.5,1.9-6.3,3-8.3c1.1-2,2.2-3.9,3.2-5.9c1-2,1.8-5.6,2.5-10.8c1.6-2.1,2.9-4.3,4.2-6.7
		c1.2-2.4,2.4-4.7,3.5-7.1l10-41.3l4.7-6.7v-11.8c0.4-6,1.9-12.2,4.3-18.7c2.4-6.4,4.8-12.1,7-17.1c-0.2-0.3,0.4-1.8,1.8-4.7
		c1.4-2.9,2.2-6.5,2.2-11l-0.3-9.4c0-4.7,0.6-9.3,1.7-13.8c1.1-4.5,2.2-8.9,3.3-13.4c1.6,1.8,2.8,2.8,3.7,2.8c1.1,0,2.2-1.6,3.3-4.7
		v-0.4c0-1.3-0.8-2.7-2.3-4.1c-1.6-1.4-2.3-2.8-2.3-4.1c0-7.1,0.7-12.4,2.2-16.1c1.4-3.7,3-6.3,4.7-8.1c1.7-1.7,3.3-2.9,4.8-3.5
		c1.6-0.7,2.4-1.6,2.7-2.9c1.8,0,3.9-0.1,6.3-0.4c2.4-0.3,4.2-0.4,5.3-0.4c0.9,0.3,2.3,0.7,4.3,1.4c2,0.7,4,2,6,3.9
		c2,2,4,4.9,5.8,8.6c1.9,3.8,3.3,9,4.2,15.5c0.9,5.2,1.7,9.1,2.5,11.6c0.8,2.5,1.5,4.8,2.2,6.9c0.7,2.1,1.3,4.7,2,7.9s1.3,8,2,14.5
		c0.7,6,1.3,10.5,1.8,13.6c0.6,3,1.2,5.4,1.8,7.1c0.7,1.7,1.4,3.2,2.3,4.5c0.9,1.3,1.9,3.3,3,6.1c1.1,2.8,2.5,6.7,4.2,11.8
		c1.7,5.1,3.6,12.2,5.8,21.4c2.7,11,4.7,19.3,6.2,24.8c1.4,5.5,2.6,9.4,3.5,11.8c1.1,2.9,1.8,4.3,2,4.3v0.8c0,0.5-0.1,1-0.2,1.4
		c-0.1,0.4-0.2,1.1-0.2,2.2c0,2.1-0.4,3.8-1.3,5.1c0,1.8,1.1,4.3,3.2,7.5c2.1,3.1,3.7,5.2,4.8,6.3c0.7,1.6,1.2,2.8,1.7,3.7
		c0.4,0.9,1,2,1.7,3.3c-0.2,0-0.3,0.3-0.3,0.8c-0.2,0.3,0.2,2.2,1.3,5.7c1.1,3.5,2.1,7.1,3,10.8c0.7,2.6,1.3,5.5,1.8,8.6
		c0.6,3.1,1.2,6.2,1.8,9.2c0.7,3,1.4,5.8,2.3,8.3c0.9,2.5,2.1,4.5,3.7,6.1c0.2,2.1,0.5,3.7,0.8,4.9s0.7,2.3,1.2,3.3
		c0.4,1,0.8,2.1,1.2,3.1c0.3,1,0.6,2.5,0.8,4.3l0.3,4.3c0.9,0.8,1.8,2,2.7,3.7c0.9,1.7,2,3.9,3.3,6.5l8,5.5h2.3c1.1,0,2,0.1,2.7,0.2
		c0.7,0.1,1.3,0.3,2,0.6c0.4,0,0.9-0.3,1.3-0.8c6,0.5,10.7,1.1,14.2,1.8c3.4,0.7,6.1,1.6,7.8,2.9c1.8,1.3,2.9,3.1,3.3,5.3
		c0.4,2.2,0.7,5.3,0.7,9.2l-6.3,8.3c-5.1,2.6-9.9,3.9-14.4,3.9c-1.3,0-3.2-0.3-5.5-1c-2.3-0.7-4.7-1.3-7.2-2c-2.5-0.7-4.8-1.3-7.2-2
		c-2.3-0.7-4.3-1-5.8-1c-4.7,0-9.2,1.4-13.7,4.3c-0.4,0-0.8,0.4-1.2,1.2s-2.1,1.8-5.2,3.1l-4.3-4.3h-4.3c-1.6,0-2.9,0.1-4,0.4
		L647.1,370.9z M564.9,218.8c-0.2,2.9-0.8,5.4-1.8,7.7c-1,2.2-1.6,3.9-1.8,4.9c-0.4,1.6-0.8,3-1,4.3c-0.2,1.3-0.7,2.5-1.3,3.5
		l2.3,2.4c0.4,0.5,0.9,0.9,1.3,1.2c0.4,0.3,1.2,0.5,2.3,0.8h8c2.7,0,5.8-0.1,9.4-0.2c3.6-0.1,7-0.3,10.4-0.4
		c3.3-0.1,6.3-0.3,8.9-0.6c2.6-0.3,4.3-0.7,5.2-1.2l0.3-1.6v-1.2c0-0.3-0.1-0.9-0.3-2c-0.2-1-0.7-2.8-1.3-5.1s-1.7-5.5-3.2-9.4
		c-1.5-3.9-3.4-9-5.8-15.3l-1-2.4c0.9,0,1.4,0.1,1.7,0.4l-2.3-3.5c0.2-2.1,0.4-3.9,0.5-5.3c0.1-1.4,0.2-2.7,0.2-3.7V189v0.4
		c-1.1-10-2.1-14.9-3-14.9c-0.7,0-1.1,0.9-1.3,2.8c-0.2,0.5-0.3,1-0.3,1.4s-0.1,0.9-0.3,1.4L588,176c0.2,0,0.3,0.1,0.3,0.4l-0.7-3.9
		c0-2.4-2.1-7.7-6.3-16.1c-2.9,7.6-4.9,14.7-6,21.2c-1.1,6.6-2.9,13.2-5.3,20l1.3-2.4c0,0.5-0.3,1.8-0.8,3.7c-0.6,2-1.3,4.3-2.2,6.9
		c-0.9,2.6-1.8,5.3-2.7,8.1c-0.9,2.8-1.7,5.2-2.3,7.3L564.9,218.8z"/>
	<path fill="#F9F9F9" d="M742.6,141.4c0.2-0.5,0.6-1.4,1.2-2.8c0.6-1.3,1.4-3,2.5-5.1l2.7-3.1c0.7-1.6,1.9-3.7,3.8-6.5
		c1.9-2.8,4-6.5,6.2-11.2l0.3-0.8c0.7-1,1.3-2,1.8-2.8c0.6-0.8,1.1-2,1.5-3.5l9.4-11.4c1.8-4.5,7.6-10.3,17.4-17.7
		c4-2.9,7.8-5.4,11.5-7.5c3.7-2.1,7.1-4.1,10.2-5.9l-1,1.2c1.1-0.8,3.1-1.4,5.8-2c2.8-0.5,6.5-1.4,11.2-2.8c4.7-1,8.6-1.8,11.9-2.2
		c3.2-0.4,5.6-0.6,7.2-0.6c8.7,0,16.5,2.5,23.4,7.5l-0.7-1.2c1.1,0.5,2,0.9,2.7,1.2c0.7,0.3,1.2,1,1.7,2.4l-0.3-0.8h0.7
		c1.1,0.5,2.2,1,3.2,1.4c1,0.4,2.1,1.2,3.2,2.6v-0.4c1.8,1.3,3.9,3.1,6.3,5.3c2.4,2.2,5.2,4.8,8.3,7.7l0.3,0.4
		c0.9,0.8,1.8,1.7,2.7,2.8c0.9,1,2,2.2,3.3,3.5c0.9,0.5,1.8,1.3,2.8,2.4c1,1,2.1,2,3.2,2.8c1.1-1.3,2.3-3.1,3.5-5.3
		c1.2-2.2,2.7-5.2,4.5-8.8c0.2-0.3,0.3-0.9,0.3-2v-2.4c0-1.6-0.6-3.5-1.7-5.7c-1.1-2.2-1.7-3.6-1.7-4.1c0-2.1,2.7-3.4,8-3.9l5.3-3.5
		c11.8,1.3,17.7,11,17.7,29.1l-1.7,37.3c0,6.3,0.4,10.6,1.3,13c-0.2,1-0.3,2.1-0.3,3.1c0,1,0,2.2,0,3.5v7.9v17.3
		c0.2,1.8,0.3,3.6,0.3,5.3c0,1.7,0,3.2,0,4.5v7.1c0,9.4-1.2,15.6-3.7,18.5l-7,3.5l-7.7-2l-1-2l-3-2.4c-0.2-0.5-0.5-1.2-0.8-2.2
		c-0.3-0.9-1.1-2.2-2.2-3.7l-0.3-9.8c-0.4-1.6-1-3.7-1.7-6.5c-0.7-2.8-1.6-6.3-2.7-10.8c-0.4-0.8-0.8-1.5-1-2.2
		c-0.2-0.7-0.6-1.4-1-2.2v-1.2c0-1.6-1.2-5-3.7-10.2c0-0.3-0.1-0.4-0.3-0.4v-0.4l-4.3-11c-0.4-1-1-2.1-1.5-3.1
		c-0.6-1-1.4-2.2-2.5-3.5c-0.4-4.2-1.5-7.7-3-10.4c-1.6-2.8-3.8-5.3-6.7-7.7c-1.6-2.9-3.7-5.8-6.3-8.8c-2.7-3-5.8-6.3-9.4-10v-0.8
		c-0.4-0.3-1.1-0.5-2-0.6c-0.9-0.1-2-0.5-3.3-1c-2.5-5.5-11-8.3-25.7-8.3c-1.3,0-3.5,0.2-6.5,0.6c-3,0.4-6.7,0.9-11.2,1.4
		c-1.1,0.5-2.1,1-2.8,1.6c-0.8,0.5-1.8,0.9-3.2,1.2c-2.2,2.1-4.8,4.4-7.8,6.9c-3,2.5-6.5,5-10.5,7.7h1.3l-2,2.4
		c-1.3,1.6-2.5,3.7-3.3,6.3c-0.2,0.5-0.9,2-2.2,4.5c-1.2,2.5-3,6-5.2,10.4l0.7-0.4c-2.2,4.7-4,10.3-5.2,16.7
		c-1.2,6.4-2,13.8-2.2,22.2c-1.3,2.9-2,15.9-2,38.9c0,59.5,4.7,95.6,14,108.4c1.3,3.9,3.3,7.8,6,11.6c2.7,3.8,5.6,7.3,8.9,10.4
		c3.2,3.1,6.7,5.9,10.4,8.3s7.2,3.9,10.5,4.7l1.3,1.2l3-0.4c2.4,0,5.2,0.3,8.2,0.8c3,0.5,6.4,1.3,10.2,2.4l1.3,0.4
		c3.1,1.3,5.2,2.5,6.3,3.5c0.7,0.3,1.3,0.8,2,1.6c1.1,0,5.5-4.8,13-14.5l5.3-8.3c0.7-0.8,1.7-1.2,3-1.2l3.7,0.4
		c1.3,0,2.2-0.4,2.7-1.2l3.3-2.4l6.3-1.2c1.1-0.8,1.7-2.5,1.7-5.1c0-2.9,0.6-5,1.7-6.3v-2.4l3-2.4c0.4-1.3,1-2.8,1.7-4.5
		c0.7-1.7,1.3-3.9,2-6.5c0.7,0,2.1-4.8,4.3-14.5l2.3-3.5h-1c0.4-1.8,1.1-5.1,1.8-9.8c0.8-4.7,1.7-11,2.8-18.9c1.6-1.6,2.6-4.6,3-9
		l5.3-5.9h3c7.8,0,11.7,6.4,11.7,19.3c0,1.3-0.3,4-1,8.1c-0.7,4.1-1.9,9.2-3.7,15.5c-1.8,6.5-3.2,11.7-4.2,15.3
		c-1,3.7-1.7,5.8-2.2,6.3l2.7-2.8c-0.4,2.1-1.7,5.1-3.7,9h0.3c-1.3,9.2-11.4,24.8-30.1,46.8c-0.4,2.1-0.7,4.7-0.7,7.9
		c0,1.8,0.3,2.8,1,2.8c0.4,0,0.8-0.1,1-0.4c-0.9,0.5-1.7,0.9-2.3,1c-0.7,0.1-1.2,0.2-1.7,0.2c-0.9,0-1.8-0.6-2.8-1.8
		s-2.1-1.8-3.2-1.8c-0.4,0-0.9,0.3-1.3,0.8c-0.4,0.5-1.3,1.2-2.7,2c-1.3,0.8-3.3,1.7-5.8,2.8c-2.6,1-6.2,2.2-10.9,3.5l1.3-1.2
		c-3.3,2.6-9.4,4.5-18,5.5h-0.3c-3.1,0.8-6.7,1.2-10.7,1.2c-2.5,0-5.3-0.1-8.7-0.4c-3.3-0.3-7.2-0.9-11.7-2c-1.3-1-3.7-2-7.2-2.9
		c-3.5-0.9-8-2.3-13.5-4.1l-1.3-1.2l0.3,0.8c-6.5-2.4-17.9-13-34.4-31.8c-2.5-3.4-4.9-6.9-7.3-10.4c-2.5-3.5-5.1-7.1-8-10.8l-1-2.8
		c-2.7-5.8-5.1-9.8-7.3-12.2c-1.8-3.9-3.6-9.1-5.5-15.5c-1.9-6.4-4.1-13.7-6.5-21.8l-4-9.4c-1.1-5.2-2.1-10.8-2.8-16.7
		c-0.8-5.9-1.2-11.8-1.2-17.9c0-6,0.2-11.1,0.7-15.1c0.4-4.1,0.9-7.3,1.3-9.6l1-10.2c0.7-0.3,1-2,1-5.1l6.3-24
		c0.7-2.1,1.8-4.8,3.3-8.3c1.6-3.4,3.4-7.3,5.7-11.8L742.6,141.4z"/>
	<path fill="#F9F9F9" d="M1174.7,70.7c7.3,0,18.3-0.4,32.7-1.2c7.6-1,14.1-1.7,19.5-2c5.5-0.3,10.1-0.4,13.9-0.4
		c0.2,0,1.6,0.1,4,0.4c2.4,0.3,6,0.9,10.7,2c1.8,1.3,3.8,2.9,6,4.7c2.2,1.8,3.3,4.6,3.3,8.3v-0.4c-0.9,0-1.8,4.1-2.7,12.2l-5.3,4.7
		c-1.3,0.5-2.5,0.8-3.3,0.8h-2.7c-1.3,0-3.5-0.3-6.5-0.8c-3-0.5-5.4-0.8-7.2-0.8c-0.2,0-1.3,0.2-3.2,0.6c-1.9,0.4-4.4,0.9-7.5,1.4
		c-1.1,1.3-3,2-5.7,2c-2,3.7-3.6,8.1-4.7,13.4c-1.1,5.2-1.7,11.8-1.7,19.6c0,4.5,0.1,8.5,0.3,12.2c0.2,3.7,0.9,6.9,2,9.8
		c-1.6,3.4-2.3,11-2.3,22.8c0,1,0.1,2.1,0.2,3.1c0.1,1,0.4,2.2,0.8,3.5v45.2c0,3.4-0.1,6.4-0.3,9c-0.2,2.6-0.4,5.4-0.7,8.3v2
		c0.2,2.1,0.4,4.9,0.7,8.4c0.2,3.5,0.3,7.3,0.3,11.2c0,7.6-0.2,14.1-0.5,19.4c-0.3,5.4-0.8,10.2-1.5,14.3c0.2,1,0.4,3.2,0.7,6.5
		c0.2,3.3,0.4,7.8,0.7,13.6c0.7,8.1,2.6,14.3,5.7,18.5c3.3,1.8,8.9,3.1,16.7,3.9c1.6,0.3,3.1,0.5,4.5,0.6c1.4,0.1,2.9,0.2,4.5,0.2
		c1.6,0,3.1,0,4.5,0c1.4,0,2.8,0.1,4.2,0.4l7.3,5.9l-1.7,13.8c-3.6,5-9.6,7.5-18,7.5h-5c-1.1,0-2.4,0-3.8,0c-1.5,0-3.1-0.1-4.8-0.4
		c-1.6-0.3-3-0.5-4.3-0.6c-1.3-0.1-2.6-0.2-3.7-0.2c-0.9,0-1.8,0.1-2.8,0.2c-1,0.1-2.1,0.3-3.2,0.6l4-3.9c-4,1.8-9,2.9-15,3.1
		c-1.6-1-2.9-1.6-4-1.6c-2,0-4.4,0.4-7.2,1.2c-2.8,0.8-4.8,1.2-6.2,1.2c-4.7,0-10-0.8-16-2.4l0.7,0.4h-7.7c-0.4,0.5-1.3,0.8-2.7,0.8
		h-4.3h-0.7c-1.3,0-2.3,0.1-3,0.4l-1.7-0.4l-5.3,0.4c-12.7,0-19.9-5.4-21.7-16.1c3.6-5.8,13-9.2,28.4-10.2l-1.7,1.2
		c1.1-0.5,2.4-1,3.8-1.4c1.4-0.4,3.1-0.8,4.8-1.4c1.1-0.5,2.2-1.2,3.3-2.2c1.1-0.9,2.2-1.9,3.3-2.9c0.9-3.4,1.7-6.3,2.3-8.8
		c0.7-2.5,1-4.5,1-6.1l-1.7-30.3l2-26.7c0-1.3-0.3-3.4-0.8-6.3c-0.6-2.9-0.8-4.7-0.8-5.5v-10.2c0-2.1,0-4.3,0-6.7s-0.1-4.8-0.3-7.5
		c-0.7-0.8-1.4-1.5-2.2-2.2c-0.8-0.7-1.7-1.1-2.8-1.4l-0.7-0.8c0-0.3-0.3-0.4-1-0.4c-0.9,0-1.5,0.1-1.7,0.4l-36.1-2
		c-33.8,0-51.4,0.9-52.8,2.8l-2.3,0.4c-0.2,0.5-0.5,8.2-0.8,23c-0.3,14.8-0.6,36.9-0.8,66.2c0,4.5,1.6,11.8,4.7,22l3.3,2.8l1.7,0.4
		c1.6,2.4,9.5,3.5,23.7,3.5c2.2,0,4.3,0.4,6.3,1.2s4.1,2.4,6.3,4.7c0.2,2.1,0.4,3.7,0.7,4.9c0.2,1.2,0.3,1.9,0.3,2.2
		c-2.5,12.3-5.3,18.5-8.7,18.5l-9.7-5.5l-7,0.4l-3.3,1.2c-1.6-1.3-3.6-2-6-2.2c-2.5-0.1-5.9-0.2-10.4-0.2c-3.8,0-8.5,0.1-14,0.4
		c-5.6,0.3-12,0.7-19.4,1.2c-7.1,0.3-13.4,0.5-18.9,0.6c-5.5,0.1-10,0.2-13.5,0.2c-3.1,0-6.3-0.1-9.7-0.4c-3.3-0.3-7-0.7-11-1.2
		c-2-2.4-3.9-4.3-5.7-5.9c-1.8-1.6-2.7-5-2.7-10.2c4.7-6.5,10.2-9.8,16.7-9.8c11.4,0,17,0.1,17,0.4h-0.3l2.3,7.1
		c1.1-1.6,2.1-3.9,2.8-7.1c0.8-3.1,2.2-4.7,4.2-4.7c0.9,0,1.4,0.1,1.7,0.4c1.6-2.4,2.7-7.3,3.5-14.9c0.8-7.6,1.2-18.5,1.2-32.6
		c0-12.6-0.4-24.5-1.2-35.8c-0.8-11.3-1.8-21.9-3.2-31.8c1.3-4.7,2.3-8.6,2.8-11.6c0.6-3,0.8-5.4,0.8-7.3c0-1.6-0.3-4.1-0.8-7.5
		c-0.6-3.4-0.8-5.8-0.8-7.1l0.7-2c0.4-1,0.7-2.6,0.7-4.7v-9.4v-10.2c0-2.1-0.1-4.4-0.2-6.9c-0.1-2.5-0.3-5.2-0.5-8.1v-24
		c0-13.6-3.1-23.7-9.4-30.3c-3.1-1.6-7.3-2.4-12.7-2.4c-1.6,0-3.6,0.1-6,0.4c-2.5,0.3-5,0.7-7.7,1.2c-1.6-0.5-3.1-1-4.7-1.4
		c-1.6-0.4-3-1.1-4.3-2.2c-1.3-1-2.4-2.4-3.2-4.1c-0.8-1.7-1.2-4.1-1.2-7.3c0-2.1,0.4-4.5,1.2-7.1c0.8-2.6,2.3-5.5,4.5-8.6
		c2.9-0.5,5.9-0.9,9-1.2c3.1-0.3,6.5-0.7,10-1.2c7.8,1.8,15.7,3.1,23.7,3.7c8,0.7,16.2,1,24.7,1c4.5,0,9.1-0.1,13.9-0.2
		c4.8-0.1,10-0.3,15.5-0.6c12.7-1.6,19.9-2.4,21.7-2.4h1.3c11.4,0,17,5.5,17,16.5c0,0.3-0.1,1.3-0.3,3.1c-0.2,1.8-0.8,4.6-1.7,8.3
		c-1.1,1-2.9,1.9-5.3,2.6c-2.5,0.7-5.2,1-8.3,1c-1.1,0-2.2,0.1-3.3,0.4c-1.1,0.3-1.9,0.5-2.3,0.8l-6.7-1.2h-7.3
		c-1.1,0.8-2.5,1.8-4,2.9c-1.6,1.2-3,2.4-4.3,3.7c-0.4,0.5-0.9,1.8-1.5,3.7c-0.6,2-1.1,5.2-1.5,9.6c0.2,0.3,0.3,0.9,0.3,2v2
		c0,10.5-0.1,20.2-0.3,29.1c-0.2,8.9-0.8,16.9-1.7,24c0.9,2.6,1.4,4.8,1.7,6.5c0.2,1.7,0.3,3.1,0.3,4.1c0,3.1-0.4,5.9-1.3,8.3
		c2.7,4.2,10.5,6.3,23.4,6.3h3.7c1.6,0.5,3.2,1.3,5,2.4c1.1,0,2.8-0.1,5-0.2c2.2-0.1,4.5-0.3,6.8-0.6c2.3-0.3,4.7-0.5,7-0.6
		c2.3-0.1,4.2-0.2,5.5-0.2h2h2.3c1.6,0,2.8,0.1,3.7,0.4c0.4,0.3,1.3,0.4,2.7,0.4c1.1,0,2.6-0.3,4.3-0.8l6,0.4l0.3,1.2
		c1.3,0.5,2.4,0.8,3.3,0.8h4.7c3.1,0,5.5-0.2,7-0.6c1.6-0.4,2.8-0.8,3.7-1.4c3.1-0.8,4.7-4.1,4.7-9.8c0-51.3-0.7-80-2-86
		c-4.5-4.5-7.7-6.7-9.7-6.7H1145c-2.5,0-4.8-0.3-7.2-1c-2.3-0.7-5-1.4-7.8-2.2c-6.5-3.7-9.7-7.7-9.7-12.2c0-5.5,2.4-8.8,7.3-9.8
		c8.5-1.8,13.1-2.8,14-2.8C1141.9,71.1,1152.9,70.7,1174.7,70.7z"/>
	<path fill="#F9F9F9" d="M1370.4,54.2c5.3-1.8,9.8-0.7,13.4,3.5l3,3.1l0.3,1.2c0.4,1.6-0.8,2.9-3.7,3.9c0,1.3,0.1,4.9,0.3,10.6
		c0.2,5.8,0.6,13.8,1,24c0.4,11.3,0.9,19.9,1.3,25.9c0.4,6,0.7,9.4,0.7,10.2c-1.3,34.8-1.3,87.4,0,157.6c-1.3,8.6-1.3,21.1,0,37.3
		c0.4,13.1,9.2,19.6,26.4,19.6h3.7c16.5,0,24.7,4.8,24.7,14.5c0,10-4.8,14.9-14.4,14.9c-1.6,0-3.5-0.1-5.7-0.2
		c-2.2-0.1-4.5-0.3-6.7-0.6c-2.2-0.3-4.3-0.5-6.3-0.6c-2-0.1-3.6-0.2-4.7-0.2c-12.7-0.5-23.2-0.6-31.4-0.2c-8.2,0.4-14.6,0.8-19,1.4
		c-8.2,0.8-15.5,1.3-21.7,1.6c-6.2,0.3-11.7,0.3-16.4,0c-9.4-0.5-17.3-2.4-23.7-5.5c-6.5-3.1-9.7-7.2-9.7-12.2
		c0-11.3,9-15.7,27.1-13.4l3.7,0.4c1.8,0.3,4.6,0,8.5-0.8c3.9-0.8,8.9-2.5,14.9-5.1c5.6-1.6,7.3-13.1,5.3-34.6
		c-0.4-4.5-0.9-13.8-1.3-28.1c-0.4-14.3-0.8-34-1-59.1v-37.3c0-5,0-9.4,0-13.2c0-3.8,0.1-7,0.3-9.6c0-2.9-0.1-6.6-0.3-11.2
		c-0.2-4.6-0.9-10.3-2-17.1c-0.9-0.8-1.7-1.6-2.3-2.4c-0.7-0.8-1.3-1.6-2-2.4c-1.1-1.3-2.1-2.6-3-3.9c-0.9-1.3-1.3-2.6-1.3-3.9
		l-3.7,0.4c-4.5,1.3-7.2,2-8.3,2c-2.7,0-5.7,0.1-9.2,0.4c-3.5,0.3-6.3,0.7-8.5,1.2c-1.3,0-3.8-0.7-7.3-2c-3.6-1.3-6.9-3-10-5.1
		c-0.4,0.5-0.9,0.5-1.3,0l-1.3-1.2c-1.6-2.1-2.6-4.2-3-6.3c-0.4-2.1-0.7-3.9-0.7-5.5c0-3.1,1.8-4.7,5.3-4.7v-0.8
		c0-1.3-0.1-2.5-0.3-3.5c2-5.2,5.7-8.3,11-9c-1.6,0.3-2.4,0.5-2.5,0.6c-0.1,0.1,0.4,0.2,1.5,0.2h15.4c0.2,0,1.2,0.1,3,0.2
		c1.8,0.1,4.5,0.3,8,0.6l-1.7,2.4c4.9-3.4,8.5-5.1,10.7-5.1c1.8,0,3.7-0.1,5.7-0.4c2-0.3,4.2-0.8,6.7-1.6c6.7-1.8,10-4.6,10-8.3
		c0-2.1,0.7-4.1,2.2-6.1c1.4-2,3.4-4.5,5.8-7.7l1.3-0.8l2.3-3.1c3.8-4.5,6.7-6.7,8.7-6.7C1369.4,52.6,1370.2,53.1,1370.4,54.2z"/>
	<path fill="#F9F9F9" d="M1587.5,166.6c1.1,0.3,1.9,0.9,2.3,1.8c0.4,0.9,1.1,2,2,3.3l1.7,2c0.9,1.8,1,2.8,0.3,2.8
		c1.1,0,2.3,0.9,3.7,2.6c1.3,1.7,2.6,3.6,3.7,5.7c1.1,2.1,2,4.3,2.7,6.5c0.7,2.2,1,3.9,1,4.9c0,0.8,0.6,2.6,1.7,5.3
		c1.1,2.8,2.6,6.4,4.3,10.8c2,1,3.6,2.4,4.8,4.1c1.2,1.7,2.4,3.6,3.5,5.7c2.2,5.5,4.3,9.4,6.3,11.8c5.1,6,7.7,10.4,7.7,13
		c0,0.5,1,2.2,3,4.9c2,2.8,3,5.2,3,7.3c0,2.1,2.9,7.7,8.7,16.9c5.3,10,8.3,15.1,9,15.3c0-1.6-0.1-2.8-0.3-3.5
		c-0.4-2.4-0.8-5.5-1-9.4v-10.2c0-2.9,0-6.2,0-10c0-3.8-0.1-8.2-0.3-13.2c-0.4-6.3,1-13.5,4.3-21.6V211c-3.1,1.3-4.7,0.7-4.7-2
		c-1.1-8.9-1.8-21.9-2-38.9v-12.2c1.3-11.3-0.1-22.3-4.3-33c-4.7-12.3-10.9-18.5-18.7-18.5c-0.7,0-1.8-0.3-3.3-1
		c-1.6-0.7-3.2-1.4-5-2.4c-1.8-0.9-3.5-1.9-5.2-2.9c-1.7-1-2.8-2-3.5-2.8v2.4c-4.5-4.5-6.3-8.3-5.7-11.4c0.4-4.2,2.2-7.3,5.3-9.4
		c3.1-2.1,8-3.3,14.7-3.5c9.6-0.3,18.3-0.5,26.2-0.6c7.9-0.1,15.1-0.2,21.5-0.2h30.1c5.6,0,9.5,1.7,11.7,5.1v-1.2l2,1.2
		c4,3.7,6,7.1,6,10.2c0,6.3-4.2,10.5-12.7,12.6c-4,0.3-9.6,1.7-16.7,4.3c-3.1,3.7-6.5,7.5-10.2,11.6c-3.7,4.1-5.5,7.9-5.5,11.6
		c-0.9,4.7-1.7,10.5-2.5,17.3c-0.8,6.8-1.6,14.8-2.5,24c-0.4,3.7-2,3.8-4.7,0.4v11.8c0.9,3.9,1.7,9.8,2.5,17.5
		c0.8,7.7,1.5,17.9,2.2,30.5l0.7,64.4c0,3.1,0.1,6.9,0.3,11.4c0.2,4.5,0.4,9,0.5,13.8c0.1,4.7,0.3,9.2,0.5,13.6
		c0.2,4.3,0.3,7.9,0.3,10.8v15.3c0,1.3,0.1,2,0.2,2.2c0.1,0.1,0.3-0.3,0.5-1.4c-0.7,6.6-2.5,11.9-5.3,16.1c-0.4,1.3-1.3,2.2-2.7,2.8
		c-1.3,0.5-2.6,0.8-3.7,0.8c-7.3,0-12.9-3.4-16.7-10.2c-0.2-0.3-0.8-1.5-1.7-3.7c-0.9-2.2-1.9-5.3-3-9.2V354c0-1.6-0.1-2.4-0.3-2.4
		c-3.6,0-10.6-10.1-21-30.3c-0.4-1.3-1.5-3.3-3-5.9c-1.6-2.6-3.9-6.4-7-11.4c-0.2-0.8-0.2-2.5,0-5.1c-2.2,0-5.1-3.3-8.7-9.8
		c-3.1-6.8-4.7-11.1-4.7-13c0-7.1-5.5-16.6-16.4-28.7c-4.9-5.5-10.5-13.6-16.7-24.4c-4.2-7.1-7.6-12.8-10.2-17.3
		c-2.6-4.5-4.4-7.5-5.5-9c-1.1-2.6-2.6-5.8-4.3-9.6c-1.8-3.8-4.2-8.3-7.3-13.6c-0.7-1-1.7-2.5-3-4.3c-1.3-1.8-2.6-4.1-3.7-6.7
		c-0.9-1.6-1.7-3.1-2.5-4.5c-0.8-1.4-1.6-2.8-2.5-4.1v3.1c0,1.3,0.1,2.7,0.2,4.1c0.1,1.4,0.2,3.2,0.2,5.3c0,1.3-0.3,6-1,14.1
		c-0.7,8.1-1.6,20.2-2.7,36.1c0.2,0,1.3,3,3.3,9c0.4,3.1,0.8,6.4,1.2,9.8c0.3,3.4,0.5,6.7,0.5,9.8v25.9c0.4,2.9,0.7,7,0.8,12.4
		c0.1,5.4,0.3,12.1,0.5,20.2c0,4.2,0.4,7.9,1.3,11.2c0.9,3.3,1.9,6.2,3.2,8.8c1.2,2.6,2.4,5.1,3.7,7.5c1.2,2.4,2.2,4.7,2.8,7.1h-1.3
		c1.1,0.3,1.9,0.6,2.3,1c0.4,0.4,1.1,0.9,2,1.4l3,2.8c0.4,0.3,0.9,0.6,1.3,1c0.4,0.4,1.1,0.9,2,1.4l1,0.8h-0.7
		c0,2.9-0.8,4.7-2.3,5.5h5.7c0,0.5,0.5,0.4,1.5-0.4c1-0.8,1.7-1.2,2.2-1.2h5c2,0,3.4,0.3,4.3,0.8c0.9,0.5,2.3,1.6,4.3,3.1l1,0.8
		c5.1,2.9,7.7,6.3,7.7,10.2c0,7.9-3.7,11.9-11,12.2c-1.8,0.3-4.6,0.4-8.5,0.4c-3.9,0-8.7,0-14.5,0H1500c-19.6,0-30.7-2.6-33.4-7.9
		c-0.7-1.6-1-2.9-1-3.9c0-6.3,8.9-12.4,26.7-18.5c0.7-0.3,1.4-0.4,2.3-0.4c0.9-1.3,1.8-2.7,2.7-4.1c0.9-1.4,2-3.2,3.3-5.3l1.7-4.3
		c1.1-2.9,3-4.6,5.7-5.1c-1.8-0.8-2.7-1.4-2.7-2l1.3-5.1c1.1-3.4,1.7-6.7,1.7-9.8c0-3.1-0.4-6.7-1.3-10.6c-0.2-2.1-0.4-4.4-0.5-6.9
		c-0.1-2.5-0.2-4.9-0.2-7.3c0-1.8,0.1-4.8,0.2-8.8c0.1-4.1,0.3-9.2,0.5-15.5c0.4-3.7,0.8-7,1-10c0.2-3,0.3-5.8,0.3-8.4
		c0-2.9-0.1-4.7-0.3-5.5c-0.2-2.1-0.4-4.6-0.5-7.7c-0.1-3-0.2-6.3-0.2-10c0-5,0.1-10.6,0.3-16.9c0.2-6.3,0.6-13.5,1-21.6
		c0.2-0.5,0.3-1.2,0.3-2.2c0-0.9,0.1-1.9,0.3-2.9c0.2-1.8,0.4-4,0.7-6.5c0.2-2.5,0.6-5.4,1-8.8c0.9-6.8,1.6-12.5,2-17.1
		c0.4-4.6,0.7-7.9,0.7-10c0-2.1-0.1-3.1-0.3-3.1c-0.9-1.6-1.7-2.8-2.3-3.5c-0.9-1.3-1.9-2.7-3-4.1c-1.1-1.4-2.3-3.2-3.7-5.3
		c-6-8.9-10.5-13.4-13.4-13.4c-8,0-14.8-1.8-20.2-5.5c-5.5-3.7-8.2-7.9-8.2-12.6c0-7.6,6.1-11.9,18.4-13h2c6.7,0,11.8,2,15.4,5.9
		c4.2-3.4,8.3-5.1,12.4-5.1h18c4,0.5,7.9,2.5,11.7,5.9c3.8,3.4,7,8.5,9.7,15.3c1.6,3.1,3.1,6.4,4.5,9.8c1.4,3.4,2.7,6.9,3.8,10.6
		c1.1,1,2.3,2.6,3.7,4.7c1.3,2.1,2.9,5.4,4.7,9.8c0.9,2.1,1.3,3.7,1.3,4.7v0.4c2.9,0,7.1,6,12.7,18.1v1.6c1.3,0.5,3,2.9,5,7.1
		L1587.5,166.6z"/>
	<path fill="#F9F9F9" d="M1899.4,370.9c-5.1-3.9-8.2-5.9-9.4-5.9c-0.7,0.8-1.3,1.5-1.8,2.2c-0.6,0.7-1.2,1-1.8,1
		c-0.9,0-1.8-0.4-2.8-1.2c-1-0.8-2.1-1.2-3.2-1.2c-1.6,0-2.8,1.6-3.7,4.7c-4,0-7.9,0.3-11.7,1c-3.8,0.7-6.1,1-7,1
		c-3.1,0-6.9-2.2-11.4-6.7v-1.6c0-3.9-1.3-6.9-4-9c0.4-2.4,2.1-6,5-11c1.6-0.3,3.1-0.5,4.5-0.8c1.4-0.3,2.9-0.5,4.5-0.8
		c2.7-0.5,5.6-0.9,8.7-1.2c3.1-0.3,6.1-0.4,9-0.4h1.7c0.7,0.3,1.7,0.4,3,0.4h2.7c2.2,0,3.3-0.8,3.3-2.4c0-1.8,0.7-3.5,2-5.1v-2.4
		c-0.4-5.5-1.2-10-2.2-13.6s-2.4-5.7-4.2-6.5c-0.2-2.6-0.6-4.8-1.2-6.7c-0.6-1.8-1.2-3.9-2-6.3c-0.8-2.4-1.8-5.4-3-9
		c-1.2-3.7-2.6-8.6-4.2-14.9l-2.3-3.1c-0.2-0.3-0.6-0.5-1.2-0.8c-0.6-0.3-0.9-0.7-1.2-1.2l-3.3-0.8h-5.3c0-0.3-0.3-0.4-1-0.4v-2
		l-4.3,3.1c-1.8,0.8-3.3,1.2-4.7,1.2h-1.3c-5.6-0.5-11.5-0.8-17.9-1c-6.3-0.1-13.2-0.2-20.5-0.2c-0.7,0.8-1.7,1.6-3.2,2.6
		c-1.5,0.9-3.4,4.3-5.8,10l1.7-1.6c-0.2,0.3-0.6,1.9-1.2,4.9c-0.6,3-1.2,6.6-1.8,10.8c-0.7,4.2-1.2,8.6-1.7,13.4
		c-0.4,4.7-0.7,8.8-0.7,12.2v1.6c0,1.3,0.1,2.1,0.3,2.4l0.7,3.1l3.3,6.3h1c1.1,0.3,2.7,1,4.8,2.2c2.1,1.2,4.2,2.4,6.2,3.7h7
		c1.1-0.3,2.1-0.4,2.8-0.4c0.8,0,1.4,0,1.8,0h3.3c2.7,0,6.8,2.5,12.4,7.5l2.3,8.6c-0.7,2.1-1.5,3.7-2.3,4.9
		c-0.9,1.2-1.8,2.2-2.8,3.1c-1,0.9-1.9,1.8-2.7,2.8c-0.8,0.9-1.4,2.2-1.8,3.7c-2.9,0-6.8-0.1-11.9-0.4c-5-0.3-8.6-0.4-10.9-0.4
		h-38.7l-51.1,4.7c-2.7,0-5.5-0.5-8.3-1.6l-8-7.1c-2.4-0.8-3.7-2.5-3.7-5.1c0-2.6,0.9-5.4,2.7-8.3c2.9,0,4.8-1.1,5.7-3.3
		c0.9-2.2,1.9-4.5,3-6.9l6-2.4c0.2-0.3,1.6-0.5,4.2-0.8c2.6-0.3,5.3-0.5,8.3-0.8c3-0.3,5.7-0.5,8-0.8c2.3-0.3,3.4-0.4,3.2-0.4
		l7.7,1.2l7-6.7c0.9-0.8,1.8-2.4,2.7-4.7c0.9-2.4,1.6-5.4,2-9l1.7-2.4c0.9-2.4,2.1-5.8,3.5-10.2c1.4-4.5,2.5-7.9,3.2-10.2
		c0.4-8.1,1.1-13.9,2-17.5c0.9-3.5,1.9-6.3,3-8.3c1.1-2,2.2-3.9,3.2-5.9c1-2,1.8-5.6,2.5-10.8c1.6-2.1,2.9-4.3,4.2-6.7
		c1.2-2.4,2.4-4.7,3.5-7.1l10-41.3l4.7-6.7v-11.8c0.4-6,1.9-12.2,4.3-18.7c2.4-6.4,4.8-12.1,7-17.1c-0.2-0.3,0.4-1.8,1.8-4.7
		c1.4-2.9,2.2-6.5,2.2-11l-0.3-9.4c0-4.7,0.6-9.3,1.7-13.8c1.1-4.5,2.2-8.9,3.3-13.4c1.6,1.8,2.8,2.8,3.7,2.8c1.1,0,2.2-1.6,3.3-4.7
		v-0.4c0-1.3-0.8-2.7-2.3-4.1c-1.6-1.4-2.3-2.8-2.3-4.1c0-7.1,0.7-12.4,2.2-16.1c1.4-3.7,3-6.3,4.7-8.1c1.7-1.7,3.3-2.9,4.8-3.5
		c1.6-0.7,2.4-1.6,2.7-2.9c1.8,0,3.9-0.1,6.3-0.4c2.4-0.3,4.2-0.4,5.3-0.4c0.9,0.3,2.3,0.7,4.3,1.4c2,0.7,4,2,6,3.9
		c2,2,4,4.9,5.8,8.6c1.9,3.8,3.3,9,4.2,15.5c0.9,5.2,1.7,9.1,2.5,11.6c0.8,2.5,1.5,4.8,2.2,6.9c0.7,2.1,1.3,4.7,2,7.9s1.3,8,2,14.5
		c0.7,6,1.3,10.5,1.8,13.6c0.6,3,1.2,5.4,1.8,7.1c0.7,1.7,1.4,3.2,2.3,4.5c0.9,1.3,1.9,3.3,3,6.1c1.1,2.8,2.5,6.7,4.2,11.8
		c1.7,5.1,3.6,12.2,5.8,21.4c2.7,11,4.7,19.3,6.2,24.8c1.4,5.5,2.6,9.4,3.5,11.8c1.1,2.9,1.8,4.3,2,4.3v0.8c0,0.5-0.1,1-0.2,1.4
		c-0.1,0.4-0.2,1.1-0.2,2.2c0,2.1-0.4,3.8-1.3,5.1c0,1.8,1.1,4.3,3.2,7.5c2.1,3.1,3.7,5.2,4.8,6.3c0.7,1.6,1.2,2.8,1.7,3.7
		c0.4,0.9,1,2,1.7,3.3c-0.2,0-0.3,0.3-0.3,0.8c-0.2,0.3,0.2,2.2,1.3,5.7c1.1,3.5,2.1,7.1,3,10.8c0.7,2.6,1.3,5.5,1.8,8.6
		c0.6,3.1,1.2,6.2,1.8,9.2c0.7,3,1.4,5.8,2.3,8.3c0.9,2.5,2.1,4.5,3.7,6.1c0.2,2.1,0.5,3.7,0.8,4.9s0.7,2.3,1.2,3.3
		c0.4,1,0.8,2.1,1.2,3.1c0.3,1,0.6,2.5,0.8,4.3l0.3,4.3c0.9,0.8,1.8,2,2.7,3.7c0.9,1.7,2,3.9,3.3,6.5l8,5.5h2.3c1.1,0,2,0.1,2.7,0.2
		c0.7,0.1,1.3,0.3,2,0.6c0.4,0,0.9-0.3,1.3-0.8c6,0.5,10.7,1.1,14.2,1.8c3.4,0.7,6.1,1.6,7.8,2.9c1.8,1.3,2.9,3.1,3.3,5.3
		c0.4,2.2,0.7,5.3,0.7,9.2l-6.3,8.3c-5.1,2.6-9.9,3.9-14.4,3.9c-1.3,0-3.2-0.3-5.5-1c-2.3-0.7-4.7-1.3-7.2-2c-2.5-0.7-4.8-1.3-7.2-2
		c-2.3-0.7-4.3-1-5.8-1c-4.7,0-9.2,1.4-13.7,4.3c-0.4,0-0.8,0.4-1.2,1.2s-2.1,1.8-5.2,3.1l-4.3-4.3h-4.3c-1.6,0-2.9,0.1-4,0.4
		L1899.4,370.9z M1817.3,218.8c-0.2,2.9-0.8,5.4-1.8,7.7c-1,2.2-1.6,3.9-1.8,4.9c-0.4,1.6-0.8,3-1,4.3c-0.2,1.3-0.7,2.5-1.3,3.5
		l2.3,2.4c0.4,0.5,0.9,0.9,1.3,1.2c0.4,0.3,1.2,0.5,2.3,0.8h8c2.7,0,5.8-0.1,9.4-0.2c3.6-0.1,7-0.3,10.4-0.4
		c3.3-0.1,6.3-0.3,8.9-0.6c2.6-0.3,4.3-0.7,5.2-1.2l0.3-1.6v-1.2c0-0.3-0.1-0.9-0.3-2c-0.2-1-0.7-2.8-1.3-5.1s-1.7-5.5-3.2-9.4
		c-1.5-3.9-3.4-9-5.8-15.3l-1-2.4c0.9,0,1.4,0.1,1.7,0.4l-2.3-3.5c0.2-2.1,0.4-3.9,0.5-5.3c0.1-1.4,0.2-2.7,0.2-3.7V189v0.4
		c-1.1-10-2.1-14.9-3-14.9c-0.7,0-1.1,0.9-1.3,2.8c-0.2,0.5-0.3,1-0.3,1.4s-0.1,0.9-0.3,1.4l-2.3-3.9c0.2,0,0.3,0.1,0.3,0.4
		l-0.7-3.9c0-2.4-2.1-7.7-6.3-16.1c-2.9,7.6-4.9,14.7-6,21.2c-1.1,6.6-2.9,13.2-5.3,20l1.3-2.4c0,0.5-0.3,1.8-0.8,3.7
		c-0.6,2-1.3,4.3-2.2,6.9c-0.9,2.6-1.8,5.3-2.7,8.1c-0.9,2.8-1.7,5.2-2.3,7.3L1817.3,218.8z"/>
	<path fill="#F9F9F9" d="M2018.4,357.6c-4.7,0-8.7-1.9-12-5.8c-3.3-3.9-5-8.7-5-14.2c0-5.4,1.7-10.1,5-14.1c3.3-3.9,7.3-5.9,12-5.9
		c4.6,0,8.7,2,12,5.9c3.4,3.9,5,8.6,5,14.1c0,5.6-1.7,10.3-5,14.2C2027.1,355.6,2023,357.6,2018.4,357.6z M2009.2,346.6
		c0-0.8,0.5-1.3,1.4-1.4c0.2,0,0.4,0,0.7-0.1c0.3,0,0.6-0.1,1-0.1c0.2-0.2,0.3-0.4,0.5-0.5c0.2-0.1,0.3-0.1,0.4-0.1
		c-0.2,0-0.4-0.1-0.5-0.2c-0.1-0.1-0.2-0.3-0.2-0.4c0-1.6,0.1-2.9,0.1-3.8c0-0.9,0.1-1.3,0.1-1.2c-0.1-1.6-0.1-3.1-0.2-4.3
		c0-1.2-0.1-2.3-0.1-3.2v-1.4c0-0.1,0-0.3-0.1-0.6c-0.1-0.3-0.1-0.6-0.1-0.8c0,0.2-0.2,0.3-0.5,0.3c-0.5,0-1.2-0.2-2.2-0.7
		c-2.1,2.7-3.1,5.9-3.1,9.6c0,3.5,0.9,6.6,2.8,9.2V346.6z M2025.5,348.9h-0.5c-0.3,0-0.6-0.2-1.1-0.5c-0.4-0.3-0.9-1-1.5-1.9
		c-0.2-0.4-0.4-0.9-0.5-1.7c-0.1-0.7-0.2-1.7-0.2-2.9c0-1.1-0.1-1.9-0.2-2.4c-0.1-0.5-0.2-0.9-0.4-1.2c-0.1-0.3-0.3-0.4-0.5-0.5
		c-0.2,0-0.4-0.1-0.5-0.2c0-0.5,0.2-0.8,0.7-0.9h-1.5v0.1c0,0.3-0.1,0.5-0.3,0.6c-0.2,0.1-0.4,0.2-0.6,0.2c-0.2,0.1-0.4,0.2-0.6,0.3
		c-0.2,0.1-0.3,0.4-0.3,0.6v0.1c0,0,0,0.1,0,0.1c0,0,0,0.1,0,0.2c0,0.1,0,0.3,0,0.5c0,0.2,0,0.5,0,0.7v3.1c0,0.6,0.1,1,0.2,1.3
		c0.1-0.1,0.1-0.1,0.2-0.1c0.1,0,0.2,0,0.2,0.1l0.4,0.1l0.8-0.1c0.7,0,1.3,0.2,2,0.7c0.4,0.4,0.7,0.8,0.7,1.2c0,0.5-0.2,0.9-0.7,1.3
		c-0.5,0.4-1,0.6-1.5,0.6c-0.6,0-0.9-0.3-0.9-1c0,0.6-0.2,0.9-0.6,0.9c-4.4,0-7.2-0.3-8.4-1c2.3,2.7,5.1,4.1,8.5,4.1
		c1.3,0,2.6-0.2,3.7-0.7C2023.3,350.5,2024.4,349.8,2025.5,348.9z M2013.4,325C2013.4,325,2013.3,325,2013.4,325
		c-0.1-0.1-0.1-0.1-0.2-0.1h-0.1c0,0,1.1-0.1,3.2-0.1c1,0,1.4,0.4,1.4,1.1c0.3-0.6,0.6-0.9,0.8-0.9c0.6,0,1.1,0.1,1.6,0.1
		c0.4,0,0.8,0,1.1,0h1c0.2,0,0.6,0.2,1.1,0.6c0.5,0.3,1.2,0.8,2,1.3c1.6,0.9,2.4,2,2.4,3.3c0,0.8-0.1,1.6-0.3,2.2
		c-0.2,0.6-0.4,1.1-0.6,1.6c-0.2,0.4-0.4,0.7-0.7,1c-0.2,0.2-0.4,0.3-0.4,0.4h-0.1c-0.2,0.2-0.7,0.5-1.6,0.8
		c0.1,0.2,0.6,1.2,1.6,2.9c0.3,0.5,0.5,0.9,0.6,1.2s0.2,0.6,0.3,0.9c0.1,0.3,0.1,0.6,0.1,0.8c0,0.3,0.1,0.6,0.2,0.9
		c0,0,0.1,0.1,0.1,0.3c0,0.1,0,0.2-0.1,0.2c0-0.1,0-0.3,0.1-0.4c0-0.1-0.1-0.3-0.1-0.6c0-0.7,0.2-1.3,0.5-2c0.3-0.7,0.8-1,1.4-1
		c0.6,0,0.9,0.7,1,2.2c0.4-1.2,0.6-2.6,0.6-4.2c0-3.8-1.2-7.1-3.5-9.9c-2.4-2.8-5.2-4.2-8.5-4.2c-2,0-3.7,0.5-5.3,1.6H2013.4z
		 M2022.8,331.1c-0.1,0-0.3-0.3-0.5-0.8c-0.1-0.3-0.5-0.7-1-1.2l-0.4-0.2v-0.4c0-0.4,0.1-0.6,0.2-0.6h0.1c-0.1,0-0.3-0.1-0.6-0.1
		h-0.5c-0.1,0-0.3,0-0.5,0.1c-0.2,0.1-0.4,0.2-0.6,0.2c-0.2,0-0.4,0.1-0.5,0.2c-0.2,0.1-0.3,0.2-0.5,0.4c-0.1,0.2-0.3,0.5-0.3,0.8
		v0.6c0,0.8,0.1,1.5,0.2,2.3c0.1,0.7,0.1,1.2,0.2,1.7c0,0.4,0.1,0.8,0.1,1.1c0,0,0,0.1,0.1,0.1c0.2,0,0.8-0.3,1.8-0.8
		c1.1,0,1.7-0.3,1.9-0.8c0-0.1,0.1-0.3,0.2-0.4c0.1-0.1,0.2-0.3,0.4-0.6c0-0.1,0.1-0.3,0.2-0.6
		C2022.6,331.8,2022.7,331.5,2022.8,331.1z"/>
</g>
<g>
</g>
<g>
</g>
<g>
</g>
<g>
</g>
<g>
</g>
</svg>
