<svg xmlns="http://www.w3.org/2000/svg" viewBox="0 0 245.23 72.34"><defs><style>.cls-1{fill:#078236;stroke:#c17d23;stroke-width:6px;}.cls-1,.cls-2,.cls-3,.cls-4,.cls-5,.cls-6,.cls-9{stroke-miterlimit:10;}.cls-2,.cls-6,.cls-7{fill:#fff;}.cls-2,.cls-5,.cls-6{stroke:#fff;}.cls-2{stroke-width:0.76px;}.cls-3,.cls-9{fill:#b59016;stroke:#b59016;}.cls-3,.cls-4{stroke-width:0.61px;}.cls-4{fill:#e2745f;stroke:#0c0c0c;}.cls-5{fill:none;}.cls-5,.cls-6{stroke-width:0.38px;}.cls-7{font-size:34px;font-family:Arial-BoldMT, Arial;font-weight:700;letter-spacing:0.1em;}.cls-8{letter-spacing:0.06em;}.cls-9{stroke-width:2px;}</style></defs><title>Mesa de trabajo 2</title><g id="Capa_4" data-name="Capa 4"><rect class="cls-1" x="3" y="3.02" width="239.16" height="66.33"/><path class="cls-2" d="M52.6,12.5a23.79,23.79,0,1,0,24,23.79A23.88,23.88,0,0,0,52.6,12.5Zm.23,45.56A21.69,21.69,0,1,1,74.66,36.38,21.76,21.76,0,0,1,52.83,58.06Z"/><path class="cls-3" d="M68.24,43.82A16.91,16.91,0,0,1,52.83,54.1c-9.36,0-16.94-7.85-16.94-17.54S43.47,19,52.83,19A17,17,0,0,1,68.57,30.1c.5-.11,1-.19,1.51-.29A18.64,18.64,0,0,0,52.65,17.25C42.37,17.25,34,25.86,34,36.49s8.33,19.25,18.61,19.25a18.61,18.61,0,0,0,17.2-11.92Z"/><rect class="cls-4" x="68.72" y="35.16" width="2.89" height="3.91"/><circle class="cls-5" cx="52.63" cy="36.44" r="9.51"/><path class="cls-6" d="M52.72,24.69A11.81,11.81,0,1,0,64.53,36.51,11.81,11.81,0,0,0,52.72,24.69ZM52.63,46a9.51,9.51,0,1,1,9.51-9.51A9.51,9.51,0,0,1,52.63,46Z"/><text class="cls-7" transform="translate(81.9 51.08)">NDEB<tspan class="cls-8" x="109.94" y="0">A</tspan></text><line class="cls-9" x1="19.24" y1="5.89" x2="19.24" y2="66.59"/></g></svg>