<?xml version="1.0" standalone="no"?>
<!DOCTYPE svg PUBLIC "-//W3C//DTD SVG 1.1//EN" "http://www.w3.org/Graphics/SVG/1.1/DTD/svg11.dtd" >
<svg>
<metadata>
Created by FontForge 20120731 at Wed Aug 31 04:24:29 2016
 By www
Copyright (c) Baseline Fonts www.baselinefonts.com * Not freely distributable * Licensed Font Visit us on the web for updates and purchasing options, 2004. All rights reserved.
</metadata>
<defs>
<font id="OldTimesAmericanTitlingW" horiz-adv-x="345" >
  <font-face 
    font-family="OldTimesAmericanTitlingW"
    font-weight="400"
    font-stretch="normal"
    units-per-em="1000"
    panose-1="2 0 5 3 8 0 0 2 0 4"
    ascent="800"
    descent="-200"
    x-height="534"
    cap-height="842"
    bbox="-45 -285 1451 1265"
    underline-thickness="50"
    underline-position="-125"
    unicode-range="U+0005-2122"
  />
<missing-glyph horiz-adv-x="500" 
d="M63 846h374v-846h-374v846zM375 63v720h-250v-720h250z" />
    <glyph glyph-name=".notdef" horiz-adv-x="500" 
d="M63 846h374v-846h-374v846zM375 63v720h-250v-720h250z" />
    <glyph glyph-name="glyph1" horiz-adv-x="0" 
 />
    <glyph glyph-name="glyph1" horiz-adv-x="0" 
 />
    <glyph glyph-name="glyph2" horiz-adv-x="432" 
 />
    <glyph glyph-name="uni0005" horiz-adv-x="500" 
d="M420 943q0 -3 7 -9t15 -13t15 -13.5t7 -10.5q0 -5 -6 -16.5t-7 -16.5q0 -4 -8.5 -11.5t-8.5 -13.5q0 -3 -3.5 -7.5t-8.5 -9t-9.5 -8.5t-6.5 -6q-8 -8 -15 -14.5t-13 -9.5q-1 -1 -32 -20l-31 -16q0 -4 -47 -4q-50 0 -54 7q-1 2 -7 4t-13.5 4t-13.5 4t-6 4t-4.5 6t-10 8
t-11 7t-7.5 3q-10 3 -29 34q-16 31 -26 31q-8 0 -18 46v3q0 9 8.5 17.5t18.5 14.5t18.5 10t7.5 5q0 -7 6 -15t12.5 -16t12.5 -16.5t6 -16.5q0 -3 3.5 -14.5t7.5 -11.5v-1q0 -2 1 -7.5t4 -14.5q10 -25 14 -26q47 -35 57 -35q-2 0 7.5 0.5t22 1t23 2t10.5 3.5q13 0 29 22
q26 30 27 64q2 5 3.5 14t5.5 25l1 4q2 7 9.5 11t15.5 6.5t14.5 5t6.5 5.5v1z" />
    <glyph glyph-name="uni0006" horiz-adv-x="500" 
d="M487 833q-2 -8 -2.5 -17.5t-2.5 -20.5q0 -5 -4 -10t-9.5 -9.5t-10 -8t-5.5 -5.5q-7 -15 -40 -18h-7q-26 0 -61 20q-18 12 -18 65q0 73 74 73q28 0 49 -10q9 -6 13.5 -9.5t6.5 -3.5q9 -4 17 -46z" />
    <glyph glyph-name="uni0008" horiz-adv-x="500" 
d="M469 972q1 -2 1 -7v-6q0 -22 -12 -44q-1 -5 -6.5 -9t-14.5 -12q-3 -7 -17 -10l-14 -4q0 -1 -8 -1h-11h-6.5t-8.5 1q-9 0 -27 9q-6 4 -9 6.5t-4.5 4l-2 2t-3.5 2.5q-6 8 -8.5 11t-3.5 4.5t-2 3.5t-3 7q-1 6 -2 9.5t-1 4.5q1 2 1 7q0 7 -4 7q0 2 1 15.5t7 30.5q3 11 6.5 15
t14.5 11q5 3 7 5.5t5 5.5t10 5.5t21 5.5q4 1 7 1.5t7 0.5q14 0 28 -8q11 -6 15 -8.5t10 -8.5q0 -2 3.5 -5t5.5 -4q3 -4 7.5 -10.5t7.5 -15.5q2 -8 2 -12q0 -7 1 -10zM354 978v-11v-9t1 -11q0 -10 2 -11.5t6 -5.5q0 -6 11 -9q7 0 8 -1h6q2 1 6 1q2 0 8 2q7 3 11 5.5t4 14.5
v31q-1 3 -1 6q0 2 -1.5 6.5t-9.5 14.5q-2 4 -7 4.5t-10 1.5q-19 0 -26 -5t-8 -24z" />
    <glyph glyph-name="uni000A" unicode="&#xa;" horiz-adv-x="500" 
d="M47 697q-6 9 -6 17q0 6 2 12q5 13 16.5 24t22.5 23l5 -1q2 2 2 7q3 3 5 4q4 1 53 53l6 1q10 10 17.5 18.5t14.5 15.5l5 3q2 5 8.5 11t20.5 13q11 7 19.5 11t14.5 5l26 -2q2 -2 8 -7t14 -13q8 -6 14 -32q-1 -5 -1.5 -8.5t-0.5 -5.5q0 -4 1 -5l-22 -28q1 -1 1 -3t-1 -3
q-1 -6 -23 -12l-11 -11q-2 -2 -5 -2q-4 0 -7 -1l-7 -5l-9 -2l-5 -6q-8 -4 -19 -7.5t-25 -8.5q-5 -4 -14 -5q-8 -5 -21 -11.5t-32 -13.5q-39 -19 -52 -19q-3 -2 -6.5 -3t-8.5 -3zM231 652q-6 9 -6 17q0 6 2 12q5 13 16.5 24t22.5 23l5 -1q2 2 2 7q3 3 5 4q4 1 53 53l6 1
q10 10 17.5 18.5t14.5 15.5l5 3q2 5 8.5 11t20.5 13q11 7 19.5 11t14.5 5l26 -2q2 -2 8 -7t14 -13q8 -6 14 -32q-1 -5 -1.5 -8.5t-0.5 -5.5q0 -4 1 -5l-22 -28q1 -1 1 -3t-1 -3q-1 -6 -23 -12l-11 -11q-2 -2 -5 -2q-4 0 -7 -1l-7 -5l-9 -2l-5 -6q-8 -4 -19 -7.5t-25 -8.5
q-5 -4 -14 -5q-8 -5 -21 -11.5t-32 -13.5q-39 -19 -52 -19q-3 -2 -6.5 -3t-8.5 -3z" />
    <glyph glyph-name="uni000B" horiz-adv-x="500" 
d="M327 -12l12 -22h2q1 0 1 -3t-4 -11.5t-18 -26.5q-12 -16 -16 -31.5t-4 -28.5q0 -7 1 -12.5t2 -9.5q1 -2 1 -4t1 -4l78 -6q4 -8 6 -11q2 -5 4 -9.5t2 -7.5q0 -7 -12 -14q-2 -2 -5.5 -4t-7.5 -4l-134 13q-2 5 -4 9t-4 9q-4 8 -7.5 16.5t-5.5 17.5q-4 12 -4 19q0 3 0.5 7
t0.5 12q0 9 0.5 14t2 9.5t4 9.5t5.5 13q4 8 11.5 22t15.5 28q5 8 10 16.5t10 17.5l49 -6z" />
    <glyph glyph-name="uni000C" horiz-adv-x="500" 
d="M88 916q0 8 5.5 16.5t12.5 8.5q2 0 4 -2q5 0 11.5 -2.5t14.5 -6.5q6 -4 13.5 -8.5t17.5 -9.5q11 -14 23.5 -28t26.5 -29q11 -9 22.5 -19.5t24.5 -22.5q1 -3 11 -13q5 5 11.5 12t14.5 15q27 27 44 41q14 16 31 32.5t35 34.5l2 3q5 6 10 11.5t11 5.5q8 0 16.5 -5t8.5 -11
l-2 -6q-1 -5 -3.5 -10.5t-6.5 -13.5l-11.5 -11.5t-7 -7.5t-9 -10t-17.5 -18q-28 -28 -31 -32q-10 -11 -21 -21.5t-23 -24.5q-8 -8 -24 -21q-4 -8 -14 -18q-4 -2 -17 -2q-8 0 -16.5 9.5t-16.5 20.5l-3 3q-10 8 -23 17.5t-27 22.5q-18 17 -37.5 37t-40.5 41l-1 1l-2 1
q-6 5 -11.5 9.5t-5.5 10.5z" />
    <glyph glyph-name="uni000D" unicode="&#xd;" horiz-adv-x="432" 
d="M186 438q20 -6 20 -53q0 -9 -1 -22.5t-2.5 -26.5t-2.5 -23t-2 -13v-238q3 -16 25 -25q12 -5 28 -5h9h6q23 0 23 -21q0 -11 -12 -16.5t-26 -5.5q-4 0 -14 2q-17 3 -42 3h-17q-12 -1 -21 -1.5t-17 -0.5t-12.5 0.5t-7.5 1.5q-91 1 -91 20q0 3 4 7t19 5q8 2 12 2q8 0 11 1
q20 4 33 19q6 6 9 23q1 3 1 13v7q0 6 -1 9q-1 5 -1.5 9.5t-0.5 8.5v8v95q0 22 0.5 41t1.5 36v32q0 50 -5 50q-3 0 -14 11q-9 11 -18 11.5t-22 2.5q-16 1 -16 7q0 2 -4.5 4t-4.5 5q0 1 1 2q4 4 18 9q8 4 31.5 5t61.5 1q3 0 20 4q12 0 21 -4z" />
    <glyph glyph-name="uni001C" horiz-adv-x="654" 
d="M318 395q2 -10 2 -13q0 -4 -0.5 -7.5t-1.5 -8.5q-2 -22 -15 -23q-12 -2 -28.5 -4.5t-37.5 -5.5v-10q-1 -7 -1.5 -21t-0.5 -36q0 -15 0.5 -33.5t0.5 -41.5q0 -57 4 -85t8 -28v-1q0 -4 15 -29q0 -4 13 -9t20 -5h2q25 0 60.5 2t83.5 6q56 9 56 12t14 12q16 9 19 9
q5 3 10.5 9t10 12.5t8 12t5.5 6.5q4 9 9.5 18.5t13.5 20.5q15 6 20 80q2 6 4.5 14t4.5 20q0 24 9 63q7 15 16 15q23 0 24 -40q0 1 -1 1v1v1q-2 0 -2 -58q0 -29 -0.5 -53t-0.5 -42t0.5 -29.5t0.5 -17.5q1 -15 1.5 -27.5t0.5 -23.5q0 -25 -3 -38q-3 -18 -47 -18
q-11 0 -26.5 -1t-31.5 -1.5t-30.5 -1.5t-24.5 -1h-127q0 3 -80 3h-90q-68 -3 -153 -3q-7 0 -15 1t-19 4q-27 6 -27 13q0 5 12 13q18 9 46 9h15q40 0 54 32q10 20 10 65v12q-1 12 -1.5 27.5t-0.5 35.5v25v14t1 14v54l-12 -2v-1q-6 2 -9 2t-6 -0.5t-8 -1.5l-22 -3l-33 9
q-17 3 -17 27q0 36 21 38l33 11h19q7 0 14.5 0.5t15.5 1.5q-3 61 -3 129q0 52 3 108q-4 14 -5 27t-9 21q-7 10 -7 13q0 7 -48 9l-42 3t-15 1q-14 5 -14 24q0 20 47 20h12q8 0 13 -1t12.5 -1.5t15.5 -0.5h40q4 1 7 1.5t7 0.5q9 0 14 1q27 3 43 3q23 0 24 -4l59 3q0 3 14 3h52
q18 0 29 -3q22 -7 22 -26v-3q-3 -19 -31 -20q-5 -1 -12 -1h-9q-7 0 -7 1t-29 1q-3 1 -9 1h-7q-14 0 -16 -2q-7 -7 -17 -11q-2 0 -6 -19q-2 -3 -6.5 -11t-4.5 -13v-51v-21q0 -8 0.5 -19.5t1.5 -25.5q0 -44 -7 -66v-9q0 -4 0.5 -9t1.5 -13l1 -19q10 2 20.5 4t16.5 2
q15 0 22.5 -5.5t20.5 -23.5z" />
    <glyph glyph-name="uni001D" horiz-adv-x="654" 
d="M318 395q2 -10 2 -13q0 -4 -0.5 -7.5t-1.5 -8.5q-2 -22 -15 -23q-12 -2 -28.5 -4.5t-37.5 -5.5v-10q-1 -7 -1.5 -21t-0.5 -36q0 -15 0.5 -33.5t0.5 -41.5q0 -57 4 -85t8 -28v-1q0 -4 15 -29q0 -4 13 -9t20 -5h2q25 0 60.5 2t83.5 6q56 9 56 12t14 12q16 9 19 9
q5 3 10.5 9t10 12.5t8 12t5.5 6.5q4 9 9.5 18.5t13.5 20.5q15 6 20 80q2 6 4.5 14t4.5 20q0 24 9 63q7 15 16 15q23 0 24 -40q0 1 -1 1v1v1q-2 0 -2 -58q0 -29 -0.5 -53t-0.5 -42t0.5 -29.5t0.5 -17.5q1 -15 1.5 -27.5t0.5 -23.5q0 -25 -3 -38q-3 -18 -47 -18
q-11 0 -26.5 -1t-31.5 -1.5t-30.5 -1.5t-24.5 -1h-127q0 3 -80 3h-90q-68 -3 -153 -3q-7 0 -15 1t-19 4q-27 6 -27 13q0 5 12 13q18 9 46 9h15q40 0 54 32q10 20 10 65v12q-1 12 -1.5 27.5t-0.5 35.5v25v14t1 14v54l-12 -2v-1q-6 2 -9 2t-6 -0.5t-8 -1.5l-22 -3l-33 9
q-17 3 -17 27q0 36 21 38l33 11h19q7 0 14.5 0.5t15.5 1.5q-3 61 -3 129q0 52 3 108q-4 14 -5 27t-9 21q-7 10 -7 13q0 7 -48 9l-42 3t-15 1q-14 5 -14 24q0 20 47 20h12q8 0 13 -1t12.5 -1.5t15.5 -0.5h40q4 1 7 1.5t7 0.5q9 0 14 1q27 3 43 3q23 0 24 -4l59 3q0 3 14 3h52
q18 0 29 -3q22 -7 22 -26v-3q-3 -19 -31 -20q-5 -1 -12 -1h-9q-7 0 -7 1t-29 1q-3 1 -9 1h-7q-14 0 -16 -2q-7 -7 -17 -11q-2 0 -6 -19q-2 -3 -6.5 -11t-4.5 -13v-51v-21q0 -8 0.5 -19.5t1.5 -25.5q0 -44 -7 -66v-9q0 -4 0.5 -9t1.5 -13l1 -19q10 2 20.5 4t16.5 2
q15 0 22.5 -5.5t20.5 -23.5z" />
    <glyph glyph-name="uni001E" horiz-adv-x="640" 
d="M190 708q-2 0 -7 -6.5t-11 -15.5t-12.5 -18.5t-11.5 -15.5q-20 -25 -20 -38q0 -6 -4.5 -17t-9.5 -22.5t-9.5 -22.5t-4.5 -18q0 -2 -2 -13l-6 -33q-5 -14 -18 -30h-3q-18 0 -20 17q-2 23 -3 44.5t-1 43.5t1 43.5t3 42.5l4 71q4 37 45 37q13 0 30.5 0.5t40.5 0.5l67 -5
l136 5q8 -1 17 -1h20h51q8 0 24.5 3t25.5 3q6 -1 18.5 -1.5t32.5 -2.5q32 -3 51.5 -2t19.5 -14q0 -12 -14 -35q-6 -6 -10.5 -12.5t-9.5 -13.5q-13 -23 -28 -42.5t-27.5 -33.5t-21 -23t-8.5 -12q0 -6 -10 -15.5t-11 -15.5q-4 -10 -20 -35q-1 -3 -5 -8.5t-9 -11t-9 -9.5t-5 -4
q-6 0 -21 -27q-16 -29 -20 -31q-6 -4 -13 -19q-8 -14 -15 -16.5t-17 -16.5q-6 -6 -9 -11.5t-5 -8.5q-5 -8 -9 -15t-8 -15q-6 0 -24 -26l-22 -32q-11 -15 -26 -36t-37 -49q-34 -37 -35 -44q-12 -12 -25 -40l-20 -39q0 -14 29 -14q8 0 21 1.5t15 1.5l120 5q85 0 109 18
q11 6 22.5 15t26.5 22q5 4 10.5 8t11.5 9q2 8 7 14q2 2 10 15.5t21 38.5q6 0 20 38q6 17 9 28t5 18.5t3 13t3 11.5q-1 0 -1 3q0 10 4 23q9 28 20 28q3 0 8 -5q12 -18 12 -47q0 -10 -3 -37l-1 -19q0 -5 0.5 -8.5t0.5 -6.5q2 -22 3 -44t1 -45q0 -41 -3 -83q-3 -43 -61 -43h-14
q-10 0 -15 1q-21 3 -137 3q-22 0 -54.5 1t-77.5 1h-131h-19q-5 0 -12 -0.5t-15 -1.5l-27 -1q-6 0 -10.5 0.5t-8.5 0.5q-13 0 -23.5 1.5t-20.5 3.5q-10 1 -10 12q0 8 26 46q6 17 28 39q1 1 5 5.5t10 15.5q8 13 12 17.5t8 7.5t9 8t16 20q18 32 26 35q8 5 11.5 17.5t6.5 16.5
q21 16 25 37q1 7 8.5 15.5t20.5 19.5q13 12 20.5 21.5t8.5 17.5q1 1 28 40q2 0 6 4.5t8.5 10.5t8 12.5t5.5 10.5t8 12.5t13 17.5t13 18t7 15q3 12 25 31q21 21 21 29q0 4 5 10t10.5 12t10.5 11.5t5 9.5q8 6 14.5 15.5t19.5 29.5q26 35 26 49q0 19 -66 19h-96zM105 1029
q0 11 6.5 21t14.5 10q3 0 5 -2q14 -2 32 -12q7 -5 16.5 -10.5t20.5 -11.5q14 -17 29 -34.5t32 -37.5q13 -11 27 -24t30 -28q2 -4 5.5 -7.5l8.5 -8.5q6 7 14 15t17 18l30 30t24 22q17 20 37.5 40.5t42.5 43.5q1 1 1 1.5t1 1.5q5 8 11.5 15t14.5 7q9 0 19.5 -6.5t10.5 -14.5
q0 -4 -3 -7q-2 -12 -12 -30l-9 -9t-11 -13q-2 -1 -10 -10.5t-25 -26.5q-33 -33 -37 -40q-12 -13 -25.5 -26.5t-28.5 -30.5q-10 -10 -29 -26q-6 -14 -17 -23q-5 -3 -20 -3q-10 1 -20.5 13t-19.5 25q-13 11 -29 24t-36 30q-22 22 -45 46.5t-49 50.5l-1 1q-8 6 -15.5 12.5
t-7.5 14.5z" />
    <glyph glyph-name="uni001F" horiz-adv-x="640" 
d="M190 708q-2 0 -7 -6.5t-11 -15.5t-12.5 -18.5t-11.5 -15.5q-20 -25 -20 -38q0 -6 -4.5 -17t-9.5 -22.5t-9.5 -22.5t-4.5 -18q0 -2 -2 -13l-6 -33q-5 -14 -18 -30h-3q-18 0 -20 17q-2 23 -3 44.5t-1 43.5t1 43.5t3 42.5l4 71q4 37 45 37q13 0 30.5 0.5t40.5 0.5l67 -5
l136 5q8 -1 17 -1h20h51q8 0 24.5 3t25.5 3q6 -1 18.5 -1.5t32.5 -2.5q32 -3 51.5 -2t19.5 -14q0 -12 -14 -35q-6 -6 -10.5 -12.5t-9.5 -13.5q-13 -23 -28 -42.5t-27.5 -33.5t-21 -23t-8.5 -12q0 -6 -10 -15.5t-11 -15.5q-4 -10 -20 -35q-1 -3 -5 -8.5t-9 -11t-9 -9.5t-5 -4
q-6 0 -21 -27q-16 -29 -20 -31q-6 -4 -13 -19q-8 -14 -15 -16.5t-17 -16.5q-6 -6 -9 -11.5t-5 -8.5q-5 -8 -9 -15t-8 -15q-6 0 -24 -26l-22 -32q-11 -15 -26 -36t-37 -49q-34 -37 -35 -44q-12 -12 -25 -40l-20 -39q0 -14 29 -14q8 0 21 1.5t15 1.5l120 5q85 0 109 18
q11 6 22.5 15t26.5 22q5 4 10.5 8t11.5 9q2 8 7 14q2 2 10 15.5t21 38.5q6 0 20 38q6 17 9 28t5 18.5t3 13t3 11.5q-1 0 -1 3q0 10 4 23q9 28 20 28q3 0 8 -5q12 -18 12 -47q0 -10 -3 -37l-1 -19q0 -5 0.5 -8.5t0.5 -6.5q2 -22 3 -44t1 -45q0 -41 -3 -83q-3 -43 -61 -43h-14
q-10 0 -15 1q-21 3 -137 3q-22 0 -54.5 1t-77.5 1h-131h-19q-5 0 -12 -0.5t-15 -1.5l-27 -1q-6 0 -10.5 0.5t-8.5 0.5q-13 0 -23.5 1.5t-20.5 3.5q-10 1 -10 12q0 8 26 46q6 17 28 39q1 1 5 5.5t10 15.5q8 13 12 17.5t8 7.5t9 8t16 20q18 32 26 35q8 5 11.5 17.5t6.5 16.5
q21 16 25 37q1 7 8.5 15.5t20.5 19.5q13 12 20.5 21.5t8.5 17.5q1 1 28 40q2 0 6 4.5t8.5 10.5t8 12.5t5.5 10.5t8 12.5t13 17.5t13 18t7 15q3 12 25 31q21 21 21 29q0 4 5 10t10.5 12t10.5 11.5t5 9.5q8 6 14.5 15.5t19.5 29.5q26 35 26 49q0 19 -66 19h-96zM105 1029
q0 11 6.5 21t14.5 10q3 0 5 -2q14 -2 32 -12q7 -5 16.5 -10.5t20.5 -11.5q14 -17 29 -34.5t32 -37.5q13 -11 27 -24t30 -28q2 -4 5.5 -7.5l8.5 -8.5q6 7 14 15t17 18l30 30t24 22q17 20 37.5 40.5t42.5 43.5q1 1 1 1.5t1 1.5q5 8 11.5 15t14.5 7q9 0 19.5 -6.5t10.5 -14.5
q0 -4 -3 -7q-2 -12 -12 -30l-9 -9t-11 -13q-2 -1 -10 -10.5t-25 -26.5q-33 -33 -37 -40q-12 -13 -25.5 -26.5t-28.5 -30.5q-10 -10 -29 -26q-6 -14 -17 -23q-5 -3 -20 -3q-10 1 -20.5 13t-19.5 25q-13 11 -29 24t-36 30q-22 22 -45 46.5t-49 50.5l-1 1q-8 6 -15.5 12.5
t-7.5 14.5z" />
    <glyph glyph-name="space" unicode=" " horiz-adv-x="432" 
 />
    <glyph glyph-name="space" unicode="&#xa0;" horiz-adv-x="432" 
 />
    <glyph glyph-name="exclam" unicode="!" horiz-adv-x="157" 
d="M182 729q-9 0 -16 -51q-2 -12 -2.5 -21t-2.5 -15q-1 -5 -3 -13q-5 0 -18 -100l-15 -109l-8 -98q-4 -30 -8.5 -54.5t-10.5 -42.5q-2 -8 -12 -8q-8 2 -13.5 3.5t-9 6t-5.5 15t-3 30.5l-4 30q-2 8 -5 47t-9 111q-2 9 -2.5 31t-2.5 55q0 9 -2 23t-5 28.5t-6 27.5t-4 20
q-1 5 -2.5 17t-4.5 32q-4 15 -5 26.5t-1 22.5q0 9 2.5 24.5t7.5 37.5q1 4 6.5 9.5t11.5 11t11 9.5t5 5q0 20 39 20q41 0 53 -12q8 -11 14.5 -22.5t13.5 -22.5q8 -5 12 -40q6 -34 4 -34zM140 65q-2 -4 -4.5 -9.5t-6.5 -13.5l-21 -22q0 -6 -13 -6q-6 0 -16 1t-20.5 4.5
t-19.5 9.5t-14 16q-13 19 -8 37q0 7 8 33q0 1 3 3.5t7 5t7 4t3 0.5q0 3 21 15q22 13 22 14q0 12 18 -9q19 -22 19 -26q0 -3 3 -6t6.5 -9t5.5 -16t0 -26z" />
    <glyph glyph-name="quotedbl" unicode="&#x22;" horiz-adv-x="377" 
d="M363 691q-1 -7 -6 -27t-14 -53q-9 -31 -20 -39q-2 0 -6 -4t-8.5 -9.5t-7.5 -11t-3 -7.5t-4.5 -6.5t-10.5 -10t-10.5 -10.5t-4.5 -7q0 -6 -5.5 -12.5t-13.5 -11.5t-17 -8t-15 -3q-15 0 -15 14q0 12 29 46q15 17 22 27.5l9 13.5q0 4 3.5 12t8 17t8.5 18.5t4 15.5
q0 27 -46 37q-24 8 -31 28q-2 4 -4.5 8.5t-6.5 9.5q-4 9 4 50q1 11 14.5 20t17.5 14q6 13 32 13q11 0 21 -2t21 -5q27 -9 32 -23q27 -57 23 -94zM162 691q-2 -8 -6.5 -28.5t-13.5 -51.5q-11 -32 -20 -39q-3 0 -7.5 -4t-9 -9.5t-7.5 -11t-3 -7.5t-4.5 -6.5t-10.5 -10
t-10.5 -10.5t-4.5 -7q0 -6 -5.5 -12.5t-13.5 -11.5t-16.5 -8t-15.5 -3q-16 0 -16 14q0 11 30 46q15 17 22 27.5t8 13.5q1 4 5 12l8.5 17t8 18.5t3.5 15.5q0 27 -46 37q-24 8 -31 28q-2 4 -4.5 8.5t-6.5 9.5q-1 8 -0.5 20.5t3.5 29.5q4 11 16.5 20t16.5 14q6 13 34 13
q9 0 20.5 -2t22 -6t19 -9.5t11.5 -12.5q28 -58 24 -94z" />
    <glyph glyph-name="numbersign" unicode="#" horiz-adv-x="518" 
d="M512 486q0 -11 -6.5 -24.5t-17.5 -13.5q9 0 -10 -1t-70 -2h-25l-17 -110q8 1 14.5 1.5t11.5 0.5h17h8q3 1 8 1h7h25q21 -2 28 -27q0 -11 -7 -25.5t-16 -14.5h-13q-10 0 -27 -0.5t-42 -1.5h-23q-4 -20 -5 -31.5t-3 -12.5q-1 -6 -3 -15t-4 -21q-5 -7 -11.5 -16t-13.5 -21
q-3 -7 -11 -7q-11 0 -20 9t-9 20v28l11 67l-117 -1q-4 -20 -5 -31t-3 -12l-2.5 -15t-5.5 -21q-13 -16 -24 -37q-3 -7 -11 -7q-9 0 -19 10t-10 19v28l12 66h-37q-4 1 -14 1q-4 0 -9 0.5t-11 1.5q-5 3 -14 8t-20 10q-6 3 -6 8q0 11 11.5 23t22.5 12q5 0 14 2.5t14 2.5l60 -2
l18 110h-38q-4 1 -15 1q-4 0 -9 0.5t-10 1.5q-6 3 -14.5 7.5t-19.5 10.5q-3 2 -5.5 3t-2.5 5q0 11 12.5 22.5t23.5 11.5q5 0 14 3t14 3l58 -2q2 14 4.5 34.5t6.5 47.5q2 20 12 29q3 7 22 14q11 0 24 -4.5t13 -14.5q-4 -22 -6.5 -42t-4.5 -38q0 -3 -1 -9t-2 -17l118 -1
q2 14 4 34.5t5 48.5q3 21 14 29q3 7 22 14q11 0 24 -4.5t13 -14.5q-4 -22 -6.5 -42t-4.5 -38q0 -3 -1 -9t-2 -17q8 1 14.5 1.5t11.5 0.5h17h48q21 -3 27 -28zM197 445l-15 -110l118 -1l18 112z" />
    <glyph glyph-name="dollar" unicode="$" horiz-adv-x="498" 
d="M517 191q-4 -22 -22 -47t-37 -47q-20 -26 -46 -34l-21 -9q-21 -9 -22 -8q0 -8 -31 -9l-30 -3q-18 -8 -20.5 -16t-4.5 -30q-1 -15 0 -31.5t5 -36.5q1 0 1 -3q0 -16 -12 -35q-7 -10 -26 -10q-33 0 -33 57q0 75 -16 91q-4 4 -34 12t-88 23l-25 17q-11 8 -17 12t-7 5
q-6 11 -14 22t-17 24q-14 7 -6 60q6 45 48 59q29 9 46 -5q29 -26 29 -61q0 -11 -10 -22.5t-18 -22.5q-11 -14 -15.5 -21.5t-5.5 -9.5q-1 -4 3 -9t9.5 -9.5t12 -8t10.5 -3.5q38 -20 49 -20q5 0 5 3q0 -5 21 -5q35 0 37 15q4 20 6 45t1 57l-2 103q3 60 -65 66q-5 0 -17.5 2.5
t-31.5 8.5q-37 12 -37 20q-10 4 -34 25q-3 5 -6 8.5t-4 4.5q-28 25 -28 43q0 6 -1.5 16.5t-3.5 27.5q-1 14 -2 24t1 17q0 6 3 21.5t3 23.5q0 13 15 34l23 32q4 6 50 28q46 19 46 24q0 11 49 14q38 3 35 25q0 6 -1.5 17.5t-3 24.5t-3 25t-1.5 19q0 55 40 52q48 -2 48 -41
q0 -7 -2 -18.5t-4 -24t-4 -24t-2 -18.5q0 -19 9 -28q10 -15 63 -21q8 -4 17.5 -7.5t20.5 -8.5q94 -34 94 -106q0 -26 -16.5 -42t-43.5 -16q-24 0 -42 14t-18 38q0 6 2.5 15t5.5 18t5.5 17t2.5 13q0 16 -22 26q-19 6 -34 12.5t-26 4.5q-17 -2 -18 -28v-12q0 -5 -0.5 -10.5
t-1.5 -13.5v-31q0 -11 -0.5 -26t-1.5 -34q-1 -23 -1 -37v-21t-0.5 -5t-1.5 12q3 -24 19 -40q9 -11 21 -13.5t25 -6.5q4 -2 11 -3t20 -3q7 -2 16.5 -7t19 -10.5t18 -10.5t12.5 -6q11 -2 22.5 -11t22 -22t17.5 -27t9 -25q10 -76 9 -104zM222 643q-3 26 -5 26q8 0 -17 19
q-28 -11 -34 -11q-26 0 -64 -20q-41 -21 -45 -40q-17 -54 -17 -59q0 -15 14 -23q7 -5 11 -20q0 -4 4 -9t9.5 -9.5t11.5 -8t10 -3.5q6 0 45 -17t52 -17q26 0 23 38q-2 17 -2.5 36.5t0.5 40.5q2 36 3 55.5t1 21.5zM278 255q-1 -31 0 -72.5t5 -93.5q7 -31 34 -31q5 0 14 3.5
t18.5 8t18.5 8.5t14 4q9 0 29 9q10 5 16 9.5t10.5 9.5t9 11.5t11.5 15.5q8 5 5 28q-2 22 2 26q3 3 3 4q0 17 -20 43q-17 16 -57 48q-16 8 -29 11q-26 4 -30 6q-21 5 -29 6q-13 0 -25 -54z" />
    <glyph glyph-name="percent" unicode="%" horiz-adv-x="566" 
d="M252 728q0 -48 -18 -100q-2 -6 -6 -12t-10 -14q-15 -24 -18 -27q-4 -5 -11 -10.5t-18 -9.5q-4 -1 -16.5 -8t-20.5 -7q-20 0 -39 6q-15 0 -46 22q-3 5 -9.5 12t-14.5 15q-7 4 -7 8q-20 35 -16 35q-3 0 -10 24q-6 24 -6 32q3 32 -3 32v18q0 5 0.5 10.5t1.5 10.5
q-2 15 1.5 32t8.5 35q0 25 8 25q2 0 5 9t4 9q4 10 16 23q9 4 12.5 8.5t7 9.5t8.5 10t16 9q24 11 40 11q14 0 40 -11q30 -11 30 -21q0 -1 3.5 -3.5t8 -6t8.5 -7t4 -5.5q0 -5 6 -12q7 -8 8 -11t9 -15q8 -14 8 -20l5 -9q1 -1 1 -6q0 -2 0.5 -4.5t1.5 -6.5q3 -42 5 -65t2 -15z
M515 811q-5 -6 -12.5 -14.5t-16.5 -19.5q-3 -8 -31.5 -61t-82.5 -153q-112 -210 -117 -212q-33 -51 -68.5 -103.5t-77.5 -109.5q-5 -5 -14.5 -23.5t-20.5 -49.5q-21 -54 -37 -54q-23 0 -40 23q-4 9 -6 29q0 7 5.5 21t18.5 36q11 17 20 30t17 24q33 32 77 128q23 48 41.5 80
t32.5 49q16 13 120 209q52 100 83 154t42 64q5 6 11.5 14.5t14.5 19.5q5 5 14 5q14 0 30 -8.5t16 -22.5t-19 -55zM572 195q0 -46 -18 -100q-4 -10 -16 -26l-18 -26q-7 -12 -29 -20q-4 -1 -16.5 -8t-20.5 -7q-6 0 -19.5 2t-19.5 2q-13 3 -46 23q-3 6 -9.5 13t-14.5 15
q-7 4 -7 8q-19 34 -16 34q-3 0 -10 24q-6 25 -6 33q3 32 -3 32q-2 10 -0.5 26.5t4 34.5t5.5 33.5t5 23.5l4 8l7 14q1 9 4 9q2 4 7.5 9.5t11.5 11t10.5 11t4.5 10.5q2 4 9.5 9.5t17.5 9.5t20.5 7t18.5 3q15 0 42 -11q29 -12 29 -20q0 -2 3.5 -5t8 -6t8 -6.5t3.5 -5.5
q0 -6 6 -12q8 -8 8.5 -11t8.5 -15q8 -14 8 -20l5 -10q1 -1 1 -5q0 -2 2 -12q3 -42 5 -65t2 -15zM46 797q-1 -19 -0.5 -49.5t2.5 -75.5q2 -41 4 -41q13 -27 13 -29q0 -8 9.5 -21.5t17.5 -14.5q8 -2 13.5 -2.5t9.5 -1.5q2 -1 4 -1t4 -1l14 6q8 2 11.5 3.5t5.5 2.5q3 2 8.5 6.5
t12.5 12.5q2 5 4 12.5t6 18.5q6 0 6 30v19q1 4 1 7.5v6.5v12v45q0 7 -0.5 17.5t-1.5 21.5t-1.5 21.5t-0.5 17.5q0 3 -1.5 10t-3.5 14.5t-4.5 13t-3.5 5.5q-1 2 -3 7.5t-7 18.5q-5 12 -20 17l-9 4.5l-13 6.5q-6 0 -14 -1t-20 -2q-32 -5 -41 -66v-18q0 -6 -0.5 -14t-1.5 -19z
M366 265q-1 -20 -0.5 -51t2.5 -74q1 -42 4 -42q8 -12 11 -19.5t3 -9.5q0 -4 2.5 -10t6.5 -11.5t8.5 -9.5t8.5 -4q8 -2 13.5 -3t9.5 -2q3 -1 8 -1l14 4q8 4 11.5 5t5.5 3q10 4 21 17q2 5 4 13t6 19q6 0 6 31v18q1 5 1 15v12v44q0 14 -2 39.5t-2 39.5q0 3 -1.5 10t-3.5 14.5
t-4.5 13t-3.5 5.5q-1 1 -10 26q-5 12 -20 17l-9 4.5t-13 4.5q-5 2 -13 1t-21 -2q-32 -6 -41 -67v-18q0 -6 -0.5 -14t-1.5 -18z" />
    <glyph glyph-name="ampersand" unicode="&#x26;" horiz-adv-x="708" 
d="M709 251q0 -119 -12 -119q1 0 1 -3q0 -12 -35 -91q0 -4 -5.5 -11t-13 -14t-15.5 -12t-12 -6t-19.5 -6.5t-25.5 -5.5q-22 0 -39.5 2t-32.5 7.5t-29.5 14.5t-30.5 24q-4 4 -11 10.5t-14.5 12.5t-16 10.5t-15.5 4.5q-14 0 -21 -15q-20 -33 -97 -62q-27 -10 -102 -7
q-22 1 -41.5 8.5t-36.5 20.5l-33 26q-17 15 -21 31q-2 5 -6.5 17t-13.5 29q-16 28 -16 49q0 146 65 203q33 38 49 42q10 4 21 11.5t19 16.5t12 17.5t1 14.5q0 7 -3.5 19t-7.5 24.5t-7.5 24t-3.5 19.5q-2 38 0.5 63.5t7.5 38.5q10 23 10 35q0 6 4.5 15t11 18.5t13 18
t10.5 11.5q14 11 25.5 18t19.5 12q16 10 67 24q16 4 17 3q12 -2 23.5 -4.5t22.5 -5.5q6 -2 14 -6t16 -10q49 -40 44 -40q6 0 12 -27q3 -11 4 -20t1 -17q0 -12 -20 -60l-7.5 -15t-9.5 -15q-17 -20 -24 -20q-3 0 -19 -13q-15 -14 -15 -17q-3 -5 -12.5 -11t-20.5 -12
t-20.5 -12.5t-12.5 -11.5q-5 -8 -5 -23q0 -52 35 -78q3 -2 23 -57q21 -52 30 -52q10 -19 10 -31q8 -7 14.5 -15t13.5 -16q12 -9 22 -9q30 0 50 71q10 18 15.5 29.5t9.5 14.5q2 0 3 31q3 32 0 32q5 0 5 5q0 20 -22 54q-21 34 -21 15q-12 4 -23.5 8t-24.5 9q-8 5 -8 11
t8.5 11.5t16.5 5.5q155 0 155 4q0 -3 9 -3q11 0 31 2.5t31 2.5q28 0 28 -11q0 -35 -25 -35t-25 -9q0 -1 -5.5 -4.5t-12 -8t-12 -8.5t-5.5 -6q0 -5 -7.5 -12.5t-14.5 -11.5q-5 -3 -6 -7q-2 -4 -13.5 -14t-15.5 -16q-3 -6 -8.5 -16t-11.5 -24q-1 -11 -18 -37q-16 -25 -16 -38
q-1 -2 -2.5 -4t-3.5 -6l-6 -7l-6 -14q-4 -8 -6 -12.5t-3 -6.5q-17 -14 -17 -41q0 -14 40 -63q8 -11 17 -17.5t17 -10.5q2 -2 7.5 -4.5l16.5 -7.5q14 -10 26 -10q11 0 26 8t20 16q22 31 28 106q8 69 11 70q1 3 5 7q1 6 9 6q5 0 11.5 -7.5t6.5 -12.5zM385 640l2 16t1 16
q0 15 -3.5 27t-9.5 23q-9 14 -35 35l-29 6q-59 -12 -59 -26q0 -2 -4.5 -7t-4.5 -7q-4 -19 -5 -34t-1 -26q0 -42 14 -81q18 -55 54 -50q8 3 27 25q21 25 30 25q13 0 23 58zM360 120q-1 8 -25 37q-21 30 -23 41q0 3 -3.5 10.5t-8 15t-9 13t-6.5 5.5q-4 0 -14 21l-13 25
q-5 9 -11.5 18t-14.5 19q-13 25 -15 41q-3 26 -32 43q-5 4 -8.5 5t-7.5 1t-24 -17q-33 -30 -33 -129q0 -14 8 -43q6 -17 8.5 -28t3.5 -16q2 -7 8 -18t13.5 -21.5t15.5 -19.5t14 -12q4 -4 9.5 -10t16.5 -15q20 -17 20 -15q0 -13 54 -16q0 -3 6 -3q19 0 51 16q10 0 16 11.5
t6 25.5q0 7 -2 15z" />
    <glyph glyph-name="quotesingle" unicode="'" horiz-adv-x="178" 
d="M12 437q-7 4 -7 12q0 14 32 51q31 37 34 46q0 5 4 13.5t9.5 18.5t9.5 20t4 17q0 30 -52 40q-26 7 -34 31q-4 7 -10 20q-5 11 3 54q0 6 5 12t11 11t11.5 8.5t7.5 5.5q8 17 35 17q10 0 22.5 -2.5t24.5 -7t21.5 -11t13.5 -13.5q30 -70 26 -103q-1 -13 -6.5 -35t-14.5 -54
q-11 -35 -24 -42q-2 0 -6.5 -5t-9 -11t-8 -12t-3.5 -7q0 -2 -5.5 -7.5l-11.5 -11.5t-11.5 -11t-5.5 -7q0 -7 -6 -14t-14.5 -13t-18 -9.5t-16.5 -3.5t-10 3z" />
    <glyph glyph-name="parenleft" unicode="(" horiz-adv-x="294" 
d="M225 729q-15 -11 -18 -22t-7 -24q-8 -18 -9 -18q-6 -15 -14 -39.5t-19 -56.5q-6 -24 -18 -92q-4 -48 -6 -98.5t-2 -104.5q0 -14 6 -59t17 -120q2 -8 4 -17.5t6 -22.5q9 -32 15 -32q5 0 17 -29q12 -30 12 -37q0 -4 4.5 -9.5t9.5 -11t9.5 -10t4.5 -6.5q0 -8 9 -18l7.5 -9
t4 -5.5t4.5 -6t9 -9.5q14 -14 14 -20q0 -3 2.5 -8.5t5 -12t5 -12t2.5 -8.5q0 -8 -7.5 -17t-15.5 -9q-4 0 -9.5 4t-11 9t-10 9t-6.5 4q-4 0 -43 44q-39 45 -39 51q0 4 -2 8.5t-5 11.5q-4 6 -7 9l-5.5 5.5t-4 6t-3.5 11.5q-3 16 -8 19q-2 1 -25 45q-18 43 -20 43q-6 0 -18 35
q-12 34 -12 45t-10 38q-9 30 -9 43q0 5 3 5q-6 0 -6 44q0 15 1 36t2 47l2 50q0 11 2 23t5 29q5 20 7.5 32.5t3.5 18.5q2 11 3.5 20t2.5 17q7 28 14 30q17 8 22 56q0 5 4 14t9.5 18t11.5 17t10 12q3 3 9 25q4 4 9.5 10.5t10.5 14.5q1 4 6.5 12t12 17t12 18t5.5 14q0 2 3.5 8
t8 12l9 12t6.5 8l27 26q20 17 32 17q38 0 38 -41q0 -12 -4 -23t-14 -24.5t-27.5 -30.5t-44.5 -41z" />
    <glyph glyph-name="parenright" unicode=")" horiz-adv-x="285" 
d="M272 234q0 -6 -3 -23.5t-11 -48.5q-2 -11 -7 -25t-11 -28t-11 -26.5t-7 -19.5q-10 -37 -17 -37l-20 -41q-11 -29 -28.5 -56.5t-44.5 -53.5q-3 -7 -10 -15t-17 -18q-16 -6 -34 -37q-3 -7 -19 -7q-26 0 -26 13q0 7 3.5 18.5t9 22.5t12.5 18.5t14 7.5q-13 0 6 28q5 6 9 11
t6 8q2 2 3 3.5t2 3.5l37 79q17 40 28 74.5t15 63.5q1 17 4.5 45.5t9.5 71.5q6 33 -3 137q-2 20 -5.5 54t-8.5 85q-6 22 -8.5 32.5t-2.5 11.5q0 3 -6 12q-3 5 -4 9t-2.5 8.5t-4 10.5t-9.5 16q-6 11 -8 18t-4 13.5t-5 13.5t-11 18q-7 10 -12.5 17t-10.5 10q-1 1 -4 7t-7 13
t-8.5 13t-8.5 6q-5 8 -11.5 17t-14.5 20q-14 11 -14 24q0 15 14 24.5t31 9.5q35 0 41 -31q8 -8 28 -35q4 0 9 -5.5t10 -12.5t9 -13.5t6 -8.5t8.5 -14t17.5 -37q24 -46 28 -46q5 0 18 -43q16 -42 19 -42q12 0 35 -96q6 -23 8.5 -51t2.5 -62v-35q0 -8 -0.5 -17t-1.5 -17z" />
    <glyph glyph-name="asterisk" unicode="*" horiz-adv-x="374" 
d="M392 726q0 -3 -3 -8.5t-6.5 -10.5t-7.5 -9t-6 -4q7 0 -15.5 -4t-76.5 -12l-1 -2q-1 -1 -1 -4q0 -2 -1 -3q-2 -8 15.5 -10.5t55.5 -10.5q20 0 34.5 -15t14.5 -35q0 -30 -29 -30q-34 0 -54 20q-47 30 -59 30q-6 0 -6 -4q8 -12 14 -20t9 -14q3 0 8 -5t10.5 -12t9 -13.5
t3.5 -9.5q12 -23 12 -31q0 -5 -1 -5.5t-6 -9.5l-7 -11q-11 -11 -23 -11q-1 0 -8.5 2.5t-20.5 7.5q-12 5 -17 44q-5 42 -11 42l-4 18q-5 17 -14 17q-17 0 -17 -78q0 -9 -4.5 -19t-11 -18.5t-15 -14t-17.5 -5.5q-19 0 -26 21q-1 5 -2 10.5t1 12.5q1 7 1 12.5v9.5q0 8 13 21
q7 8 10 12.5l5 7.5l6 13q5 13 5 18q0 9 -10 8q-18 -3 -43 -28q-5 -6 -13.5 -9.5t-21.5 -7.5q-17 -5 -24 3t-13 17q-12 14 -8 14l17 20q15 19 28 22q17 3 34.5 6t28.5 12q3 13 -17 15l-21 4l-22 6q-11 2 -17 3t-8 3l-23 14q-3 0 -6 17q-1 16 10.5 26t20.5 15q30 0 51 -18
q2 -2 10.5 -6.5t23.5 -13.5q8 -5 13 -8.5t9 -5.5q2 -2 3.5 -3t3.5 -2q8 6 8 11q0 13 -31 38q-17 13 -23 20q-5 5 -8 7q-4 5 -5 10t-1 11q0 20 15.5 35.5t35.5 15.5q29 0 38 -62q8 -54 14 -57q13 -2 18 36l5 38q7 17 23 37q0 13 25 13q4 0 9.5 0.5t11 -1.5t11 -8t9.5 -19
q1 -8 -1.5 -19t-6.5 -21.5t-9.5 -18t-9.5 -7.5q-5 0 -10 -5.5t-8.5 -13t-6 -15.5t-2.5 -12q0 -11 7 -11q5 0 15 7q48 30 48 39l24 12q7 3 14 0q11 -5 11 -6q21 -4 18 -37z" />
    <glyph glyph-name="plus" unicode="+" horiz-adv-x="297" 
d="M318 382q1 -5 0 -12.5t-3.5 -14t-6.5 -11t-8 -4.5q-7 0 -18.5 -0.5t-24 -1t-24 -1t-18.5 -0.5h-7v-35v-15q0 -5 -0.5 -10t-1.5 -11q-5 -8 -9.5 -17.5t-10.5 -20.5q-1 -10 -11 -10t-21.5 10t-11.5 21q0 5 -2.5 14t-2.5 14q0 8 1.5 22.5t1.5 22.5v16h-2q-37 0 -36 -1
q-12 0 -37 3q-8 5 -17.5 9t-21.5 9q-8 5 -8 11q0 11 10 22.5t21 11.5q5 0 14 3t14 3t23 -3q14 -2 22 0h15v28v9q0 3 -0.5 6.5t-1.5 8.5q-2 16 0 27q3 22 30 33q13 2 27 -2.5t14 -15.5v-42v-12q0 -4 2 -14v-17v-6h26q18 3 51 0q22 -2 33 -27z" />
    <glyph glyph-name="comma" unicode="," horiz-adv-x="237" 
d="M205 91q0 -27 -2.5 -52t-8.5 -51q-2 -4 -5 -13t-11 -24l-20 -31q-8 -16 -14 -25t-9 -12q-11 -13 -29.5 -31t-43.5 -41q-8 -5 -13 -5q-20 0 -20 29q0 16 25 34q20 17 20 26q0 3 3.5 7.5t8 10t8 10.5t3.5 9q0 3 3 8.5t7 11.5t7 12t3 10q8 45 -22 54q-66 23 -66 67v36
q0 4 3.5 9.5t7.5 11t7.5 10t3.5 6.5q0 3 4.5 6.5t11 7.5t13 6.5t11.5 2.5q24 2 72 -13q21 -6 32 -36q10 -23 10 -51z" />
    <glyph glyph-name="hyphen" unicode="-" horiz-adv-x="268" 
d="M286 294q3 -12 0 -29q-2 -22 -15 -23q-34 -6 -70.5 -11t-75.5 -11q-23 -4 -33.5 -5t-8.5 -3q-9 3 -23 0q-6 0 -16 -2q-3 -1 -6 -1q-5 0 -16.5 4.5t-16.5 4.5q-17 3 -17 27q0 36 21 38q6 2 14 4.5t19 6.5q8 0 21.5 0.5t30.5 2.5q15 4 37 7t52 8q32 11 60 11q23 0 43 -29z
" />
    <glyph glyph-name="period" unicode="." horiz-adv-x="186" 
d="M158 103q5 0 5 -6q0 -4 -2 -13t-5 -19t-6.5 -18.5t-6.5 -12.5q-25 -31 -74 -31q-2 0 -8 2t-12 4.5t-10.5 4.5t-4.5 3l-32 45v26q0 28 3 30q4 9 40 37q10 6 14 8.5t5.5 3t2 0t2.5 -0.5q7 0 28 -3q32 -8 37 -17q30 -43 24 -43z" />
    <glyph glyph-name="slash" unicode="/" horiz-adv-x="689" 
d="M720 849q-12 -10 -28 -34q-1 -2 -54.5 -68.5t-162.5 -201.5l-218 -273q-34 -45 -70.5 -91.5t-75.5 -97.5l-73 -68q-4 -4 -10 -4q-26 0 -40 23q-6 7 -6 29q0 15 20 35q8 8 16 15t16 15q102 121 312 378q51 64 127 161t179 230q4 5 10.5 13t15.5 21q4 4 16 4q13 0 28.5 -8
t15.5 -21q0 -14 -18 -57z" />
    <glyph glyph-name="zero" unicode="0" horiz-adv-x="518" 
d="M506 388q0 -95 -35 -202q-8 -23 -23 -49q-8 -11 -19 -25.5t-24 -34.5q-10 -17 -54 -40q-21 -7 -42 -23q-11 -9 -31 -9q-7 0 -17 1t-23 5l-33 6q-30 2 -88 46q-35 29 -35 42q0 2 -4 5.5t-8.5 8t-8 9t-3.5 7.5q-39 70 -33 70q-15 37 -22.5 65.5t-5.5 49.5q5 65 -8 65l3 80
q-2 63 22 137q6 49 15 49q1 0 3 6t4.5 13t5 13.5t4.5 7.5q3 2 7 8.5t7.5 13.5t7.5 13.5t7 8.5q36 25 36 36q6 31 101 60l12 2t14 1q57 0 100 -34q34 -13 34 -28q0 -5 22 -24q23 -17 23 -22q0 -4 4 -11t9 -14.5t9.5 -14.5t5.5 -11q2 -3 7 -11.5t10 -19.5t9 -21.5t4 -17.5
q0 -5 5.5 -11t5.5 -8q2 -6 3.5 -14t3 -21t3 -32.5t4.5 -49.5q4 -26 5 -46t1 -35zM391 417q0 14 -1.5 34t-3.5 46q-1 26 -2 46.5t-1 34.5q0 6 -2.5 18.5t-8.5 29.5q-9 39 -15 42q-3 0 -20 50q-2 3 -7 8.5t-10.5 11t-11 10t-8.5 4.5q-11 11 -42 20q-8 2 -24 0.5t-39 -4.5
q-13 -2 -23 -10.5t-21 -23.5q-2 -7 -7 -17t-13 -23q-5 -5 -9.5 -20t-7.5 -42q-2 -8 -2.5 -33t-2.5 -68q0 -10 1.5 -73t3.5 -181q1 -88 9 -88q25 -50 25 -58t5.5 -19.5t13 -22.5t16 -19t15.5 -8q2 0 9.5 -3t17 -6.5t18 -6.5t12.5 -3q38 15 61.5 28.5t40.5 36.5q11 22 11 24
q0 4 9 39q12 0 12 63v91z" />
    <glyph glyph-name="one" unicode="1" horiz-adv-x="458" 
d="M477 14q0 -20 -29 -20q-15 -3 -36 0q-15 1 -24 2t-13 1q-60 1 -98.5 0.5t-58.5 -2.5q-31 -2 -55 -3t-41 -1q-108 0 -108 29q0 20 41 20h12q5 0 15 -2h16q14 2 31.5 5.5t39.5 8.5q20 8 26 48q7 34 3 60q-3 26 -5 54t-2 57v111q-3 130 0 153q1 12 -1 30.5t-5 45.5
q0 3 -4.5 7.5t-9.5 9t-9.5 9t-4.5 6.5q0 5 -28 6q-21 3 -52 0l-32 -1q-42 1 -42 10q-11 16 -11 20q0 5 6.5 11.5t7.5 10.5q7 15 29 15q6 0 17 -1.5t16 -1.5t35 -3q0 8 29 8q22 0 50 11q36 13 36 27q0 2 2.5 6t6 8.5t6.5 7.5t4 3q25 25 25 23q0 6 26 3q10 -2 24 -20
q-2 -51 -3 -96t-1 -85v-405v-13q0 -5 -0.5 -12t-1.5 -17v-56q0 -31 29 -48q21 -13 56 -16h38q48 -2 48 -24z" />
    <glyph glyph-name="two" unicode="2" horiz-adv-x="498" 
d="M480 209q0 -10 -1.5 -26.5t-3 -35t-3 -35t-1.5 -26.5q0 -52 -9 -52q-2 0 -7 -8t-8 -14q-1 -4 -5 -4q-3 0 -16 -2.5t-18 -2.5q-110 -8 -174 0q-33 4 -88 -3q-32 -4 -54 -5t-34 -1q-66 0 -61 38q0 3 4 8.5t8.5 11.5t8.5 11t4 6q0 2 3.5 8t8 13t8.5 13t4 8q2 5 8.5 13
t13.5 16.5t13.5 16.5t9.5 14q9 22 111 111q46 28 61 52q5 8 11.5 17.5t14.5 20.5q10 4 45 88q11 0 14 55q1 25 2 39t1 20q-9 57 -9 69q0 6 -5.5 18.5t-5.5 20.5q0 22 -17 33l-25 19q-23 17 -24 17q0 7 -40 6q-10 -1 -17.5 -1.5t-13.5 -0.5h-16q-3 0 -13 -5.5t-25 -18.5
q-28 -25 -42 -25q-8 -13 -13 -22.5t-7 -9.5q-5 -8 -8.5 -18.5t-1.5 -23.5q1 -8 12 -14t12 -7q6 -2 15 -6t22 -11q16 -13 16 -16q20 -14 20 -36q0 -15 -7 -32.5t-20 -34.5q-17 -21 -46 -21q-35 0 -52 20q-36 40 -42 78q-5 36 0 71q8 14 17 40q8 36 30 57q31 22 46 35.5
t15 16.5q0 17 82 42l16 2t16 1t21 -1.5l26 -3t24.5 -3.5t16.5 -3q24 -2 46.5 -12.5t42 -27.5t34 -38.5t21.5 -45.5q8 -23 14 -44.5t6 -48.5q-1 -78 -40 -144q-1 -13 -17 -30q-5 -1 -13 -10t-8 -14q0 -2 -4.5 -8t-10.5 -12.5t-12 -11.5t-9 -5q-11 -4 -20.5 -11.5t-17.5 -17.5
q-2 -3 -8.5 -7.5t-14.5 -9.5t-14.5 -10t-8.5 -9q-2 -3 -7 -7.5t-15 -9.5q-9 -4 -13 -6.5t-7 -5.5t-6.5 -7t-10.5 -10q-14 -12 -17 -12q-12 0 -36 -33q-5 -5 -13 -15.5t-20 -24.5q-14 -11 -14 -23q0 -32 74 -32q9 0 22.5 1t27.5 2t27.5 2t22.5 1q92 0 120 25q3 1 16 38
q10 37 17 37q-7 0 16 63q3 5 7 5q12 0 15 -19v-49z" />
    <glyph glyph-name="three" unicode="3" horiz-adv-x="468" 
d="M471 165q-8 -17 -15.5 -35t-15.5 -35q0 -2 -4 -7t-9 -10l-9.5 -9.5t-5.5 -6.5q0 -1 -5.5 -4t-12 -7t-12 -8t-5.5 -6q0 -7 -42 -23q-40 -13 -40 -16q0 -10 -47 -10q-38 0 -71.5 2.5t-61.5 7.5q-41 7 -58 24l-9 4q-10 4 -10 9q0 17 -23 40q-23 24 -24 43q-1 9 -1.5 16.5
t-0.5 12.5v16q0 30 13 40q1 1 6 7t15 19q7 8 14 13.5t15 6.5q10 4 48 -7q4 -1 10.5 -7t13 -12.5t11.5 -12l5 -5.5q3 0 3 -23q0 -24 -5 -24q1 0 -1.5 -5t-5.5 -11.5t-6 -12t-3 -6.5q-21 -8 -44 -28q-1 -2 -1 -7v-5q0 -23 32 -32q11 -4 20 -8q24 -8 28 -8q3 0 5 2q0 -5 52 -8
q52 0 52 9q0 -6 46 25q9 6 17 18.5t14.5 27.5t10.5 31t4 29q3 19 0 46v27q0 19 -2 33t-11 39q-12 32 -27 40q-2 0 -7.5 4.5t-11 10l-10.5 10.5t-6 7q-8 11 -48 14q-10 2 -24.5 0.5t-33.5 -3.5q-21 -4 -36 -5t-23 -1q-16 1 -16 9q0 10 10 20l11 12q131 9 131 13q7 3 14 5.5
t15 6.5q9 0 18 8t17 19.5t14 24.5t8 23q4 30 4.5 63t-2.5 68q-3 42 -48 74q-44 31 -89 25q-8 -2 -16.5 -3.5t-19.5 -3.5q-41 -6 -41 -41q0 -17 14 -23q21 -14 21 -53q0 -31 -14 -43q-32 -27 -63 -27q-66 0 -66 67q0 4 0.5 12.5t1 17.5t1 17t0.5 12q0 28 54 69q46 37 83 43
q28 5 105 5q6 0 15.5 -2t19 -4.5t18.5 -4.5t14 -2q27 0 91 -61q40 -40 40 -112q0 -82 -61 -133q13 0 -13 -17q-5 -3 -12 -7l-14 -8q0 -5 -40 -17q-6 -1 -8.5 -5.5t-2.5 -9.5q0 -18 14 -23q5 -2 9.5 -3t9.5 -5q10 -4 19.5 -8t18.5 -9q10 -4 35 -31q11 -11 19 -22.5t14 -26.5
q15 0 24 -42q2 -14 3.5 -27t1.5 -26q0 -40 -9 -40z" />
    <glyph glyph-name="four" unicode="4" horiz-adv-x="517" 
d="M491 214h-12h-9t-10 1q-22 3 -34 0q-58 0 -58 -64q0 -11 1 -23.5t3 -29.5q7 -52 45 -52h7q3 0 13 2h25q52 0 52 -26q0 -24 -46 -24q-10 0 -27.5 2t-26.5 2h-49q-14 0 -31 -0.5t-37 -1.5q-77 -3 -115 -3q-87 0 -87 21q0 23 42 25h69q20 0 26 6q0 4 16 23q2 5 3 10.5
t3 11.5l3 38q1 19 2 28t-1 11q-6 40 -16 40h-10q-7 0 -10 1q-8 2 -10 2h-7q-13 0 -31.5 -1t-42.5 -2q-50 -3 -73 -3q-58 0 -72 17q-8 8 -8 20q0 4 2 11t5 14t5.5 14t3.5 11q2 10 20 37l48 73q0 2 4 7.5t8.5 11.5t8.5 11t5 7q37 58 37 69q0 2 3.5 6t8 8.5t8 9t3.5 7.5
q0 2 4 8.5t8.5 13.5t8.5 12.5t5 5.5q7 0 29 41q2 5 7.5 14t17.5 21q1 2 7 12.5t17 32.5q25 45 30 45q6 0 27 52q5 11 33 11q24 0 24 -16q0 -5 2.5 -13.5t2.5 -13.5v-56q0 -7 -1 -17.5t-1.5 -21.5t-1.5 -21.5t-1 -17.5l2 -166v-27q0 -9 -0.5 -21t-1.5 -26q-2 -50 3 -63
q8 -33 45 -37q8 -2 22.5 -2.5t35.5 0.5q49 3 46 -43q-1 -13 -8.5 -24t-18.5 -11zM260 394q9 194 -22 194q-9 0 -19.5 -11.5t-10.5 -19.5q0 -9 -20 -35q-10 -13 -15.5 -21t-9.5 -10q-2 -2 -5.5 -9t-7.5 -14.5t-8 -13.5t-7 -6q-5 0 -21 -28q-31 -34 -31 -46q0 -5 -8.5 -14.5
t-9.5 -14.5q-2 -4 -11 -13.5t-9 -19.5q2 -24 58 -21q30 2 59 0q10 -1 18.5 -1.5t15.5 -0.5h22q31 0 39 36q0 13 3 69z" />
    <glyph glyph-name="five" unicode="5" horiz-adv-x="451" 
d="M60 511q3 -11 15 -11q23 0 23 9q0 2 6 5.5t13.5 7.5t14 7.5t6.5 5.5q13 5 22.5 8.5t16.5 5.5q5 2 17.5 2.5t33.5 2.5q40 1 40 -3l57 -16q56 -15 64 -26l17 -20q19 -16 19 -24q0 -7 13 -19q7 -6 10 -10t4 -8t2 -7.5t4 -8.5q7 -10 7 -15q13 -63 12 -154q0 -8 -6 -21.5
t-6 -21.5q0 -45 -23 -66q-9 -7 -12 -13t-5.5 -12.5t-6 -14t-12.5 -16.5q-9 -8 -13.5 -13t-6.5 -7q-15 -24 -61 -41q-6 -2 -25 -7t-51 -13q-39 -3 -66 -3q-48 0 -48 11q0 -20 -38 6q-33 21 -40 31q-17 17 -24.5 26t-9.5 10q-20 24 -21 45q-3 19 -5 31.5t-3 17.5
q-2 7 -0.5 15.5t4.5 16t5.5 14.5t2.5 11q0 9 7.5 17.5t18.5 15.5t23.5 11.5t21.5 4.5q16 0 23 -10q13 -11 24.5 -21.5t15.5 -24.5q5 -12 -2 -30q-1 -11 -2 -17.5t-1 -9.5q0 -13 -26 -34q-24 -20 -24 -36q0 -7 3 -17q8 -15 30 -26.5t40 -13.5q73 -6 73 0q0 2 38 19
q16 7 40 34q25 25 25 41q0 8 7 20t7 17q3 17 5 35.5t2 35.5q2 54 -1.5 95t-8.5 70q-4 23 -39 73q-25 37 -75 37q-84 0 -100 -21q-4 -7 -34 -28q-21 -17 -26 -35q-1 -5 -5 -11.5t-9 -13t-10.5 -11t-8.5 -4.5q-15 0 -15 20q0 5 2.5 18t2.5 19q0 26 2.5 66.5t7.5 94.5
q6 55 8.5 95t2.5 67v23q3 20 22 21h35q23 0 46.5 -10t56.5 -11q27 -2 44 -2.5t25 0.5l53 5l26 11q24 10 26 12q30 -4 32 -9q7 -24 -1 -31q-15 -8 -29 -32q-4 -5 -12 -12t-22 -16q-26 -17 -37 -17q3 0 -21.5 -4.5t-78.5 -12.5q0 -8 -79 -8q-30 0 -37 -4q-12 -6 -16.5 -30.5
t-12.5 -72.5q0 -4 -2 -12t-4 -17t-3 -17.5t0 -13.5z" />
    <glyph glyph-name="six" unicode="6" horiz-adv-x="491" 
d="M11 203q-12 33 -16 82q-1 22 -2 43t-2 41q-2 20 0 41t6 45l15 87q2 5 5 17t9 30q1 3 5 10t8.5 15.5t8.5 16t4 11.5t8.5 14.5t8.5 14.5q0 3 17 26q9 11 14.5 17t7.5 8q4 2 23 24q21 25 32 25q1 0 6 3t11 7.5t11.5 9t6.5 6.5q1 6 36 15q16 6 28 8.5t20 4.5q57 5 109 -19
q64 -26 74 -75q1 -8 2 -17t1 -19q0 -35 -18.5 -57.5t-52.5 -22.5q-24 0 -44 16.5t-24 40.5q0 6 1 16.5t2.5 21.5t3 20.5t1.5 14.5q0 4 0.5 9t-2 8.5t-9 6t-20.5 2.5q-28 0 -28 -5q0 3 -4 3q-22 0 -59 -29q-35 -28 -29 -28q-12 0 -40 -63q-34 -79 -28 -166q3 -28 13 -28
q3 0 8.5 2.5t11.5 6t11.5 6.5t8.5 4q3 0 9 3.5t13 8t14.5 8t12.5 3.5h-3h8.5t16.5 1t18 1.5t14 0.5h18q51 0 51 -11l25 -12q24 -11 24 -12q8 -8 18.5 -18t24.5 -21q4 -1 9.5 -8.5t12.5 -20.5q14 -26 14 -35q0 -5 1 -14.5t3 -18.5t4 -16t4 -7q1 -11 1.5 -20.5t0.5 -17.5v-31
q0 -14 -8 -43q-5 -15 -7 -26.5t-4 -16.5q0 -9 -6 -21t-15 -24.5t-19 -23t-17 -14.5q-48 -45 -66 -45q-34 -16 -34 -14q0 -9 -94 -9q-10 0 -23 3t-26.5 8.5t-25 12t-18.5 13.5q-10 9 -20.5 17.5t-21.5 16.5q-5 8 -11.5 17.5t-16.5 19.5q-6 2 -14 23q-6 21 -7 21q-6 0 -14 23z
M109 251q0 -97 16 -116q3 -9 9 -22t17 -30q7 -13 24 -28q5 -1 9.5 -2t7.5 -2q16 -4 16 -6q0 -7 32 -7q60 0 60 14q0 -10 18 8q19 19 19 25q0 5 7 16t8 14q4 14 8 38t9 58q0 9 4 27.5t4 27.5t-3 27t-3 27q-2 20 -2.5 31.5t-2.5 14.5q-6 14 -10.5 26.5t-9.5 22.5
q-1 3 -5.5 8.5t-10.5 10.5t-12 9t-10 5q-5 2 -9 3t-6 2t-3 1t-2 1q-16 7 -20 10q-3 1 -11 1h-11q-137 0 -137 -215z" />
    <glyph glyph-name="seven" unicode="7" horiz-adv-x="443" 
d="M68 669q-6 -3 -12 -10t-13 -17q-2 -25 -5.5 -46.5t-6.5 -40.5q-5 -14 -20 -17q-19 -4 -19 22q0 7 2 18t5 22t5 20.5t2 14.5q0 12 1.5 29.5t3.5 40.5q6 45 6 69q0 12 -2 12q3 1 3 5q0 5 2.5 10t19.5 5q4 0 15.5 4t16.5 4q4 0 12 -1t21 -2q21 -3 30 -2q24 3 63 3
q47 -2 65 0q32 -2 68 -2.5t75 1.5q19 0 30.5 1.5t8.5 1.5q30 0 30 -12v-37q-1 -8 -6.5 -15t-13.5 -12l-30 -40q-5 -20 -19 -41q-13 -19 -19.5 -28t-8.5 -11q-5 -10 -15.5 -34t-25.5 -59q-8 -14 -17.5 -37t-22.5 -54q-4 -12 -8 -27t-9 -33q-13 -67 -18 -149q-2 -15 -1 -38.5
t2 -57.5q3 -66 3 -97q0 -9 -6 -19t-14.5 -18.5t-18.5 -14t-19 -5.5q-12 2 -20 4t-14 4q-51 16 -54 120q0 6 1.5 18.5t3.5 32.5q6 49 13 49q2 5 6 17t11 32q4 12 8 25.5t9 28.5q10 22 23.5 54t32.5 77q8 18 14 30.5t6 17.5q0 4 4.5 10.5t10.5 13.5t10.5 13t4.5 9q4 8 13 22
t15 18q6 3 12 15.5t10 16.5q15 15 21 42q7 5 14 23q7 22 -34 26q-17 1 -32.5 0.5t-28.5 -2.5q-26 3 -59 3l-74 -1q-23 -2 -39.5 -7.5t-27.5 -17.5z" />
    <glyph glyph-name="eight" unicode="8" horiz-adv-x="477" 
d="M-12 163q-5 0 0 48q6 49 17 49q2 8 32 51q0 10 35 34q36 27 36 38q-4 17 -21 30t-42 38q-10 5 -17 19t-13 36q-3 17 -5 33.5t-2 32.5q0 54 10 88t30 54q20 23 40 46.5t49 33.5q29 12 29 15q0 -2 25 5l23 8h25h16.5t18.5 1q22 3 54 -12l50 -25q19 -4 44 -32
q46 -55 46 -102q0 -9 -1.5 -23.5t-3.5 -34.5q-1 -12 -23 -39q-6 -11 -17 -23t-22 -22.5t-20.5 -18t-12.5 -8.5q-4 -8 -6 -14t-2 -12t10 -10.5t19 -9.5q14 -7 19 -14q3 -5 9 -11.5t17 -14.5q13 0 34 -45q8 -20 13.5 -39.5t7.5 -41.5q1 -4 1.5 -8.5t0.5 -11.5v-33
q0 -46 -5 -46q0 -4 -11 -34q0 -18 -23 -47q-24 -32 -40 -36q-9 -3 -24.5 -15t-24.5 -15q-87 -30 -149 -30q-21 0 -23 8q-1 2 -8 3.5t-16 3t-17.5 2t-12.5 0.5q-23 7 -37 22q-26 29 -46 29q-9 0 -17 11l-14 21q-22 24 -35 68zM131 535q6 -10 38 -30q17 -8 29 -12.5t20 -6.5
q5 0 15 -2t21.5 -4.5t21.5 -3.5t15 1q6 2 14.5 6t16 9t13 10t5.5 10q25 28 25 31q1 2 4.5 8.5t8.5 19.5q10 16 10 31q0 18 -2 39.5t-6 46.5q0 4 -3 11t-6.5 14.5t-8 14t-7.5 9.5q-32 31 -97 31q-52 0 -89 -20q-17 -17 -54 -42l-13 -40q-13 0 -14 -54q0 -1 2 -7t5 -17
q10 -22 14 -22q6 0 22 -31zM69 208q-1 -2 -1 -14q0 -10 2.5 -23t6.5 -25.5t9.5 -23.5t11.5 -17q8 -6 17 -14t22 -19q1 -2 21 -9l20 -9q0 -6 25 -6q152 0 182 50q1 3 17 19q12 11 15 31t9 38l-4 23q-6 19 -8 19q-3 12 -11 32q-2 2 -9 7t-19 16q-23 21 -23 25q0 3 -29 12
t-29 14t-43 14q-40 6 -49 9q-31 4 -48 -3.5t-39 -30.5q-32 -33 -33 -51q-4 -16 -6.5 -32t-6.5 -32z" />
    <glyph glyph-name="nine" unicode="9" horiz-adv-x="502" 
d="M15 103v-2v5.5t-1 8.5t-1.5 9.5t-0.5 7.5v11q3 12 11 12q-11 0 5 19q15 18 21 18q32 13 37 13t5 -3q0 3 4 3q3 0 10 -2.5t14.5 -6t13.5 -7.5t7 -6q14 -23 14 -43q0 -2 -2.5 -11.5t-8.5 -28.5q-12 -35 -9 -35q33 -11 46 -11q51 4 51 9q0 -3 1 -3q11 0 51 28q5 1 14 12
t11 17q12 15 24 37q8 15 15.5 24.5t6.5 26.5q6 18 9.5 44.5t5.5 59.5q1 7 0.5 16.5t-3 17t-7 12.5t-10.5 3q-13 -8 -33 -17.5t-48 -22.5q-11 -3 -27 -4.5t-39 0.5q-48 2 -97 40q-48 32 -76.5 78t-30.5 97q-2 42 4 54q1 7 6 48q3 11 7 22t8 25q0 5 25 39q14 35 26 35
q1 0 6.5 5.5t11.5 12t11 12t6 6.5q7 5 18.5 13t26.5 17q44 19 103 19q9 0 23.5 -7t24.5 -8q29 -8 29 -19q15 -11 23.5 -15.5t10.5 -5.5q10 0 32 -28q25 -28 25 -39q0 -2 4 -7t8.5 -10.5t8.5 -10.5t5 -7q20 -45 38 -186q2 -15 -0.5 -56t-10.5 -110q-9 0 -21 -80
q-4 -23 -5 -35.5t-1 -14.5q-8 -27 -25 -27q-1 0 -5.5 -4.5t-9.5 -15.5l-13 -20q-7 -8 -15 -19t-18 -26q-2 -3 -7.5 -7t-12 -8.5t-13 -8t-10.5 -5.5q-8 -2 -19 -12.5t-17 -12.5q-9 -3 -23 -7t-31 -10q-47 -15 -47 -9q0 -4 -13 -4q-47 0 -95 21q-9 4 -20 13.5t-20.5 21
t-15.5 24t-6 21.5zM369 468q4 0 6 63v71q1 8 -2 19t-7 22.5t-7.5 22t-3.5 17.5q0 10 -6 22.5t-16 23.5t-21.5 19t-22.5 10q-4 1 -11.5 5t-16 8t-17.5 7.5t-15 3.5q-25 -3 -55 -20q-15 -11 -29 -32.5t-16 -40.5l-5.5 -44t-8.5 -70q-1 -5 -0.5 -22t2.5 -44q1 -60 9 -60
q-5 0 -4 -5t5 -12t8.5 -13.5t7.5 -9.5l19 -18q15 -17 18 -17q0 -11 42 -11q66 0 83 15q4 4 11 10.5t18 14.5q12 9 35 65z" />
    <glyph glyph-name="colon" unicode=":" horiz-adv-x="169" 
d="M71 514q10 0 34 -11q26 -9 29 -17q24 -38 24 -60q0 -13 -6.5 -26.5t-17 -25t-23.5 -18.5t-26 -7q-84 0 -94 76q-2 5 0.5 11.5t6 13.5t7 13.5t3.5 11.5q0 9 27 20q15 6 21 9.5t8.5 6l3 3t3.5 0.5zM157 109q-2 -8 -2.5 -17.5t-2.5 -20.5q0 -5 -4 -10t-9.5 -9.5t-10 -8
t-5.5 -5.5q-7 -15 -40 -18t-68 20q-18 12 -18 65q0 73 74 73q33 0 49 -10q4 -3 9 -4.5t10 -7t9.5 -16t8.5 -31.5z" />
    <glyph glyph-name="semicolon" unicode=";" horiz-adv-x="177" 
d="M69 506q12 2 27.5 -0.5t29 -8.5t22.5 -15t9 -20q0 -50 -8 -74q-14 -33 -57 -36q-5 0 -12 2.5t-14 5.5t-12.5 5.5t-8.5 2.5q-6 2 -16 21q-8 0 -12 25q-5 22 -5 31q0 -2 2.5 3.5l7.5 16.5q4 8 4 13q0 4 5 9t12 9t14 7t12 3zM92 185q5 0 31 -17l25 -17q7 0 23 -37q6 0 6 -28
t-6 -64q-8 -36 -9 -36q-3 0 -17 -26q-8 -14 -11 -22t-5 -12q0 -3 -3 -10t-7.5 -13.5t-9 -12t-6.5 -5.5t-4.5 -5t-5 -11t-5 -11t-3.5 -6q-15 -14 -27 -27q0 -16 -26 -16q-33 0 -30 23q0 21 33 53q36 31 40 44q11 30 15.5 47.5t4.5 23.5q0 33 -38 35q-50 3 -54 63q-1 28 11 39
q6 5 20 23q5 6 28 14q20 6 24 8.5t6 2.5z" />
    <glyph glyph-name="less" unicode="&#x3c;" horiz-adv-x="1011" 
d="M1083 389q-43 -49 -143 -49q-9 0 -24.5 1t-32 1.5t-31.5 1.5t-24 1q-116 0 -170 -70q-11 -3 -22.5 -5t-23.5 -2q-23 0 -47 9t-48 29q-27 21 -83 82q-25 27 -45 45t-34 27q-4 7 -4 14q0 4 3.5 12.5t7.5 18.5t6.5 20.5t0.5 19.5q-35 6 -74 6q-99 0 -166 -34q-30 -9 -58 -9
q-66 0 -99 44q-4 9 -4 23q0 20 20 40q9 8 18 14.5t17 13.5q43 17 106.5 39.5t148.5 54.5q72 24 138 36.5t127 12.5q114 0 215 -43q30 -12 67 -12q10 0 25.5 1.5t32.5 3t33 3t26 1.5q57 0 92 -32q-29 -8 -59.5 -11t-62.5 -3q-37 0 -91.5 6.5t-129.5 19.5q-151 26 -222 26
q-33 0 -64 -3q-67 -39 -196 -69q-142 -34 -194 -59q7 -84 59 -84q27 0 84 27q66 29 91 34q55 22 165 30q54 3 88.5 7t49.5 8q-14 -15 -35.5 -31t-51.5 -32q-65 -35 -90 -57q11 -59 37 -59q15 0 56 28q43 28 60 28q10 0 18 -5q-7 -7 -54 -35q-38 -23 -38 -57
q11 -22 22.5 -33.5t26.5 -11.5q9 0 25.5 7t39.5 19q46 28 69 28h8q5 0 7 -1q-6 -5 -17.5 -10.5t-24 -11.5t-24 -12t-17.5 -11q-20 -17 -23 -40q30 -46 49 -46q8 0 14 3q38 71 156 71h17q10 -2 13 -2h11h43q110 0 149 65l8 -6q-5 -33 26 -34h25q7 0 13 -0.5t13 -1.5z" />
    <glyph glyph-name="equal" unicode="=" horiz-adv-x="302" 
d="M323 394q2 -5 1.5 -12.5t-3.5 -14t-7.5 -11t-8.5 -4.5h-16h-27t-42 -1h-77q-37 0 -35 -2q-10 2 -17 2h-10t-10 1q-8 5 -17.5 10t-21.5 10q-9 3 -9 10q0 10 11 22.5t20 12.5q5 0 14.5 2.5t14.5 2.5q8 0 21.5 -2t21.5 -2q9 0 24.5 0.5t32.5 1.5t32.5 1.5t24.5 0.5h8
q3 1 8 1h7h26q20 -1 34 -29zM323 265q2 -5 1.5 -12.5t-3.5 -14t-7.5 -11t-8.5 -4.5h-16h-27t-42 -1h-77q-37 0 -35 -2q-10 2 -17 2h-10t-10 1q-7 5 -16.5 9.5t-22.5 10.5q-9 3 -9 9q0 11 11 23.5t20 12.5q5 0 14.5 2t14.5 2q8 0 21.5 -1.5t21.5 -1.5q9 0 24.5 0.5t32.5 1
t32.5 1t24.5 0.5h8q6 2 8 2h7h26q22 -3 34 -29z" />
    <glyph glyph-name="greater" unicode="&#x3e;" horiz-adv-x="1042" 
d="M982 508q-27 0 -57 9q-68 34 -167 34q-39 0 -73 -6q-2 -9 0.5 -19.5t6 -20.5t7 -18.5t3.5 -12.5q0 -7 -4 -14q-15 -9 -34.5 -27.5t-43.5 -44.5q-56 -61 -83 -82q-47 -38 -97 -38q-11 0 -22 2t-24 5q-51 70 -168 70q-9 0 -24 -1t-31.5 -1.5t-32 -1.5t-24.5 -1
q-100 0 -143 49q7 1 13 1.5t12 0.5h24q17 1 23.5 10t4.5 24l7 6q41 -65 150 -65h41h11q5 0 15 2h17q115 0 156 -71q6 -3 12 -3q21 0 51 46q-3 23 -23 40q-6 5 -17.5 11t-24 12t-24 11.5t-17.5 10.5q2 1 7 1h8q22 0 68 -28q24 -12 40 -19t24 -7q28 0 51 45q0 34 -38 57
q-53 32 -54 35q8 5 17 5q20 0 60 -28q43 -28 57 -28q27 0 35 59q-13 11 -34.5 25t-53.5 30q-62 35 -89 65q14 -4 48.5 -8t89.5 -7q111 -7 167 -30q27 -5 90 -34q58 -27 85 -27q52 0 58 84q-26 13 -74.5 27.5t-120.5 31.5q-129 30 -194 69q-32 3 -66 3q-37 0 -91.5 -6.5
t-129.5 -19.5t-129.5 -19.5t-90.5 -6.5q-32 0 -62.5 3t-59.5 11q35 32 91 32q10 0 25.5 -1.5t33 -3t33 -3t25.5 -1.5q37 0 67 12q102 43 216 43q120 0 264 -49q27 -9 90 -32.5t166 -61.5q35 -27 35 -29q20 -20 20 -39q0 -31 -37 -52q-15 -8 -32 -11.5t-35 -3.5z" />
    <glyph glyph-name="question" unicode="?" horiz-adv-x="302" 
d="M354 712q3 0 -14 -47q-4 -14 -11 -47q-1 -3 -6 -9.5t-6 -10.5q-7 -29 -29 -52q-26 -29 -36 -46q-3 -4 -9.5 -10.5t-14.5 -17.5q-12 -41 -20 -41t-15.5 -9.5t-18.5 -26.5q-8 -15 -13 -27.5t-7 -22.5q-5 -19 -7 -35.5t-1 -31.5q0 -18 19 -18q15 0 25.5 6t18.5 17
q14 17 14 43q0 8 7.5 22.5t6.5 23.5v13v9t1 11q3 17 6 22t6 5h5q20 0 20 -37q0 -8 -2 -23.5t-2 -23.5q0 -6 -3.5 -18.5t-9.5 -32.5q-10 -37 -18 -37l-40 -40q-3 -9 -23 -9q-40 0 -48 17q-11 15 -16.5 26.5t-7.5 19.5q-3 0 -3 9q0 23 12 92q1 0 21 42q11 22 17 37t10 26
q2 7 7 17.5t13 25.5q9 17 18 52q6 17 9.5 30t5.5 21q19 39 19 59q0 9 -1.5 23.5t-4 30t-4 29.5t-1.5 23q0 11 -7.5 20.5t-17.5 15.5t-20 9t-16 1q-40 0 -70 -34q-7 -5 -15.5 -14.5t-19.5 -22.5q-1 -3 -4.5 -8.5t-7 -12t-6 -13t-2.5 -10.5q0 -2 -1.5 -8t-3.5 -17
q-4 -22 -3 -22q-3 0 -3 -10q0 -6 1.5 -16t3.5 -24l3 -28q0 -6 21 -22q2 -1 5 -2t5 -1q3 0 8 3t9 3q25 0 30 87q2 30 2.5 49.5t-0.5 30.5q-3 18 -3 32t3.5 24.5t13.5 10.5q15 0 24 -17q22 -40 22 -103q0 -66 -26 -90q-4 -8 -7.5 -15.5t-6.5 -15.5q-1 -2 -4.5 -5.5t-7.5 -8
t-7.5 -8.5t-3.5 -6q0 -5 -5 -8.5t-11.5 -6t-14 -4t-12.5 -1.5q-29 0 -48 21t-23 53t-6 49.5t-2 19.5q3 19 5 32.5t4 22.5l2 10t2 9q0 4 4 13.5t9.5 20t9.5 20t4 14.5q0 10 34 32q18 13 28.5 21.5t13.5 12.5q14 20 49 20q11 0 51 -8q34 -6 47 -6q30 0 59 -48q5 -11 10 -18.5
t7 -13.5q3 -11 5 -19l4 -16q0 -5 2 -13.5t4.5 -17.5t5.5 -15.5t5 -6.5zM171 12q-67 0 -85 73v20l2 17q14 17 14 20q0 6 7 13t16.5 13t20 10t17.5 4q25 1 68 -27q21 -14 21 -53q0 -90 -81 -90z" />
    <glyph glyph-name="at" unicode="@" horiz-adv-x="748" 
d="M734 297q11 -11 11 -26q0 -39 -76 -94q-137 -100 -286 -100q-69 0 -130 18.5t-115 53.5q-146 101 -146 305q0 31 3.5 60t9.5 58q43 204 247 319q66 20 118 30.5t92 10.5q127 0 201 -92q69 -86 69 -217q0 -140 -77 -277q-65 -89 -143 -89h-18q-11 0 -26 9t-28 32
q-18 36 -31 36q-10 0 -23 -9q-39 -79 -114 -79q-20 0 -41 9q-52 13 -85 113q0 55 15 107t42.5 98.5t67 86t87.5 69.5q5 1 14.5 4.5t20 7.5t21 7t17.5 3q28 0 55 -48q16 -25 36 -25q5 6 15 28q4 12 17 12q7 0 18 -3l26 -15q-3 -23 -13 -52t-25 -65q-19 -43 -30 -71.5
t-16 -42.5q-11 -34 -14.5 -68t0.5 -69q13 -27 38 -27q20 0 54 20q107 135 96 350q-42 192 -180 216q-38 6 -74 6q-180 0 -302 -140q-86 -119 -86 -282q0 -73 16 -150q12 -38 37 -71t61 -62q73 -58 149 -72q17 -4 33.5 -5t31.5 -1q186 0 360 183zM478 623q4 9 4 17
q0 28 -22.5 44t-51.5 16q-43 0 -63 -35q-13 -20 -30.5 -50t-42.5 -72q-40 -71 -40 -131q0 -48 28 -94q13 -12 25 -12q5 0 12.5 2.5t15 6t14.5 6.5t10 4q114 73 141 298z" />
    <glyph glyph-name="A" unicode="A" horiz-adv-x="858" 
d="M862 23q-22 -8 -37 -8q-8 0 -24 1t-39 2q-44 3 -64 0q-8 5 -20 2h-3q-3 0 -8 -0.5t-13 -1.5q-5 4 -11 4q-3 -2 -6 -3t-5 -2l-23 1q-1 -1 -4 -1l-2 1h-21q-7 1 -14 1.5t-14 0.5h-28q-49 0 -74 9l-7 19q1 4 7 12q4 1 5.5 1.5t5.5 1.5t11.5 2t23.5 3q19 1 36 0l3 1
q3 -1 9 -1h8q18 0 24 10l10 22q0 7 1 8q0 5 -2 14.5t-5 23.5q-8 30 -14 34q-3 16 -10 23q-1 17 -7 23q-3 21 -9 26q0 5 -4 14.5t-4 13.5l-14 14l-4 2l-4 2l-17 7h-23q-12 0 -15 -3q-12 0 -12 -2q-14 1 -28 1.5t-28 0.5h-54h-26q-11 -3 -12 -7q-9 0 -15 -9l-8 -9
q0 -14 -5 -17q-2 -11 -6 -12q0 -9 -1.5 -24t-4 -31t-4 -31t-1.5 -24q0 -8 1 -12t2 -6v-5l17 -24q14 -3 33 -19q5 -1 7.5 -2t4.5 -2q9 0 27.5 1.5t27.5 1.5q7 0 26 -16l5 -13q-8 -17 -20 -24h-35h-10q-4 0 -10 2h-16h-126q-27 0 -84 -6q-28 -4 -49 -5t-35 -1q-5 0 -20 3
l-15 12l-3 23q4 4 8.5 9t9.5 11l14 5q16 0 20 4h8q34 0 35 7q7 0 10 3q19 0 17 1q9 3 27 12l3 5q3 2 8.5 7t11.5 11t10.5 11.5t5.5 7.5l4 6q2 4 4.5 9.5t6.5 13.5q0 27 12 36q12 40 14 40q2 5 4.5 13.5t6.5 21.5q1 2 8 9q0 16 4 20q0 20 6 28q2 6 3.5 13.5t3.5 18.5
q5 13 18 37q5 12 9 26l5 5q9 43 9 46q8 35 16 40l1 5q0 2 1 4.5t2 4.5q7 43 19 51q1 3 2 5l2 4q2 8 4 21t5 33q10 46 17 49q0 5 1.5 15t3.5 25q4 30 8 34q2 22 14 44q1 18 18 54q6 0 9.5 2t7.5 6h12q6 2 8 2h6l12 -4t14 -6q2 -4 5 -8t8 -9q15 -76 26 -84q0 -4 1 -13t5 -26
q6 -32 8 -34q0 -17 12 -27l8 -20q0 -23 7 -31q9 -50 19 -54l14 -37q0 -5 9 -35q11 -28 15 -32q2 -11 6 -24t11 -27q3 -17 17 -43q0 -3 1 -8.5t2.5 -11t3.5 -10.5t4 -6q1 -5 2.5 -7.5t3.5 -4.5q0 -13 5 -15q4 -30 10 -36q3 -32 11 -38q0 -4 2 -12t5 -16t6.5 -15.5t6.5 -10.5
q4 -18 9 -23q0 -6 1.5 -9.5t3.5 -7.5q0 -5 3 -15q2 -2 6.5 -10t15.5 -23l26 -15q0 -2 9 -6q11 2 20 -2q6 0 9.5 1t5.5 2q8 -1 15 -1h12q9 0 15 -2q24 -6 24 -26zM498 363q0 25 -7 28q-3 19 -6 21q-2 8 -5 17t-6 20q-3 2 -5.5 7t-5 10.5t-4.5 10t-2 5.5t-2.5 11t-8.5 30
q-2 7 -5.5 15t-6.5 19q0 8 -3.5 17t-8.5 20l-20 35l-7 2l-9 -6q-11 -29 -15.5 -45t-5.5 -18t-3.5 -11t-6.5 -25q-6 -29 -7 -31q-3 -16 -10 -20q-1 -37 -12 -46q-2 -11 -5.5 -18.5t-6.5 -13.5q0 -18 -6 -25l1 -12l13 -11q14 -1 18 -7h27h18t21 1q43 3 68 3q11 0 20 9z" />
    <glyph glyph-name="B" unicode="B" horiz-adv-x="723" 
d="M774 238q0 -5 -2 -13.5t-5 -17.5t-5 -17t-2 -13l-8 -9q-5 -8 -9 -15.5t-9 -18.5q-6 -7 -15.5 -15t-23.5 -19q0 -3 -6 -3q-9 -5 -24 -22l-14 -3l-9 -7q-11 -4 -25 -9.5t-32 -10.5q-10 -4 -22.5 -6.5t-27.5 -6.5l-1 -1q-13 0 -28 -1.5t-32 -3.5q-64 0 -140 -3l-2 2h-9
q-13 -7 -26 -7t-26 7q-30 1 -85 -3l-1 -2q-5 0 -15.5 1.5t-15.5 1.5q-9 0 -24.5 -1t-32.5 -2t-32.5 -2t-24.5 -1h-11q-7 0 -11 1l-7.5 5t-10.5 8l-2 12l2 9q4 2 13.5 5.5t24.5 7.5h28h14t14 1q40 3 48 9q5 0 16 8q5 22 7.5 51t2.5 64v111q0 33 -0.5 72t-1.5 84l-1 264
q0 38 -19 45q-9 14 -46 14h-29q-47 0 -54 4l-3 2q-23 17 -23 23q0 8 14 31l7 4h37q15 -2 37 -3t51 -3l3 -1q5 0 14 1.5t14 1.5q-14 0 49 -6l3 1q6 0 16.5 -1.5t15.5 -1.5q10 2 22 2h17t20 1q43 3 51 0l6 2l3 1h38q7 1 19 -0.5t24.5 -3t24 -3t17.5 -1.5h20q17 -1 38.5 -7
t49.5 -19q3 0 3 -1q23 -8 33 -22h4q16 -8 30 -19t28 -25q6 -10 11 -20.5t11 -21.5q1 -9 12 -21l1 -14v-24q0 -13 -1 -18l-2 -1l-1 -14q-5 -5 -9 -26q-4 -6 -8 -12.5t-9 -14.5q-2 -2 -5.5 -6.5t-8.5 -9.5q-8 -3 -42 -27q-17 -10 -25.5 -16.5t-9.5 -7.5q-9 -2 -20.5 -7
t-25.5 -12q-4 -1 -7.5 -1h-6.5q-5 0 -9 -2q-3 -4 -10 -4l-4 -7l6 -10q5 0 5 -3q10 -2 19.5 -5t20.5 -6l12 -3h1l27 -6q-5 0 24 -8q2 -2 4.5 -3t6.5 -5q14 -2 23 -15h5q4 -3 63 -63q6 -23 17 -31q9 -26 9 -62zM585 649q0 4 -1.5 16.5t-5.5 32.5q-1 2 -29 44q-21 31 -54 36
l-3 4q-48 9 -129 9q-13 0 -24.5 -1.5t-24.5 -3.5l-17 -14l-8 -14q-1 -15 -2 -57.5t-1 -114.5q-2 -6 -6 -48q2 -5 4 -13t5 -17l11 -30l29 -10h43q57 0 74 9l17.5 2.5t24.5 5.5q9 5 25 15t25 15q6 4 11 10q5 7 10.5 15t11.5 18q1 4 6 19q0 13 4 36t4 36zM626 237q0 55 -31 118
q-4 9 -37 33l-1 1q-6 0 -16 6.5t-15 6.5l-3 3l-9 3q-8 1 -12 6q-9 2 -24.5 5t-33 5.5t-35.5 4.5t-34 2h-44q-8 -2 -19.5 -5t-25.5 -9q0 -11 -3 -12q-1 -3 -1 -105q0 -24 -7 -37q2 -11 3.5 -24t-0.5 -28q-2 -39 0 -51q5 -14 10 -33.5t10 -43.5q6 -2 13 -6.5t17 -10.5
q29 -2 45.5 -3t21.5 -1q87 0 96 9q3 0 6 3l15 1q2 2 3.5 2.5t2.5 2.5q21 4 39 14l6 3q12 8 32 29l8 11q2 4 4.5 8.5t6.5 11.5l1 1q0 7 5 20l2 2q2 21 3 35t1 22z" />
    <glyph glyph-name="C" unicode="C" horiz-adv-x="698" 
d="M688 306q0 -6 -2.5 -21.5t-8.5 -39.5q-12 -49 -15 -50q-2 -3 -4 -8t-4 -13q0 -6 -6 -15.5t-16 -24.5q0 -2 -3 -5q-8 -14 -22 -31t-36 -40q-5 0 -6 -3q-22 -6 -39 -32q-8 -5 -9 -5q-6 -4 -35 -12q-2 -1 -6.5 -3t-12.5 -5q-2 -2 -55 -9l-3 -1q-15 -3 -20 -3l-33 1v2
q-6 -3 -23 0l-1 1l-14 2q-6 3 -24 8.5t-47 11.5l-5 3q-20 9 -46 30.5t-61 55.5h-3q-11 15 -36 43q0 6 -9 12q-1 2 -2 5t-3 8q-6 10 -21 27q-4 8 -8.5 22t-10.5 31q-5 11 -10.5 24t-9.5 28q-16 28 -16 45l1 1q-4 8 -6 35.5t-2 78.5q0 13 1.5 22.5t3.5 17.5h2q4 7 4 18l2 2
q1 8 4 20t13 40l1 2q7 15 18 31t13 27l9 18q5 0 14 14q2 4 4 9.5t5 10.5q9 7 13.5 11t7 8t4.5 9t6 14l32 32q5 14 20 22l3 3q11 8 29.5 18.5t44.5 24.5q0 3 25 12l1 2q4 1 51 9q23 4 37 6t20 2t17.5 -2t22.5 -4.5t20 -6t11 -6.5l9 -3q9 -5 26 -14.5t42 -28.5v-3
q3 -4 9.5 -8.5t14.5 -10.5q15 -20 33 -20h6q4 5 11 14t17 23q0 5 3 13q2 9 4 19t5.5 18.5t10 14.5t17.5 8v1q26 -11 26 -71q0 -8 -1 -20t-1.5 -25t-1.5 -25.5t-1 -19.5q0 -23 1 -36.5t2 -19.5q-1 -13 -2 -28.5t1 -34.5l3 -64q0 -38 -6 -45l-14 -6l-16 3l-1 3l-8 5
q-1 3 -3 7.5t-3 9.5l-2 1q-5 20 -8 38t-7 34l-3 8q-2 4 -5.5 12.5t-11.5 22.5q-6 5 -14 34q-5 7 -14 17q0 4 -4 12.5t-9.5 17t-11.5 16t-10 10.5q-11 17 -21.5 28.5t-18.5 17.5h-5l-6 4l-3 3q-4 3 -7.5 5t-9.5 3q-5 11 -46 20q-15 4 -27.5 5t-23.5 1q-5 0 -21.5 -2t-44.5 -5
q-2 -3 -20 -8q-13 -8 -26.5 -18.5t-30.5 -23.5q-1 0 -4.5 -2t-4.5 -2l-6 -8q-7 -7 -11 -20l-11 -11l-1 -4q-2 -2 -3 -7t-3 -12q0 -4 -4 -4q-3 -8 -8.5 -23.5t-11.5 -39.5v-2q-1 -15 -6 -46q-6 -17 -6 -114v-31q0 -8 0.5 -18.5t1.5 -22.5q1 -23 2 -40.5t1 -29.5
q0 -11 1 -24.5t5 -30.5q5 -20 7.5 -31.5t4 -18.5t2.5 -11.5t3 -10.5q1 -1 1 -4q0 -1 2 -5q4 -12 18 -36q7 -17 21 -33.5t31 -30.5t36.5 -24.5t38.5 -14.5l3 -3q8 -2 28.5 -4.5t52.5 -6.5q2 0 8 1t17 2q8 2 18 5.5t23 8.5q3 3 16 11l12 3q15 7 42 32q1 4 10 6l10 11l1 3
l22 22l1 6l8 6q3 5 6.5 12.5t8.5 18.5l2 1q0 8 14 47l6 17l1 1q2 6 4 22t6 43q3 2 6 8.5t4 17.5l10 9q7 0 18 -6q4 -6 6 -13t2 -18z" />
    <glyph glyph-name="D" unicode="D" horiz-adv-x="820" 
d="M806 426q3 -12 -4 -28q-6 -80 -14 -93q0 -4 -11 -34q-17 -17 -23 -56q-2 -3 -4 -8.5t-7 -11.5q-1 -3 -3.5 -8.5t-4.5 -12.5q-5 -7 -10.5 -14t-10.5 -15q-6 -2 -6 -13l-5 -4q-2 -2 -8 -3q-8 -8 -19.5 -18t-27.5 -24l-5 -1q-16 -11 -23 -11q-11 -8 -18.5 -14t-10.5 -8
q-19 -11 -33 -14q-3 -3 -10 -4l-2 -2l-40 -17q-26 -6 -55 -6q-10 0 -19.5 1t-20.5 2q-15 -7 -28 -7q-10 0 -26 1t-34 2.5t-34 2.5t-26 1q-7 0 -19 -1t-24.5 -2l-25 -2t-19.5 -1q-10 0 -44 9q-11 -1 -28 -6q-23 -2 -28 0l-1 -1l-40 -2l-42 11l-7 9l-2 3l2 3l1 5q17 20 34 20
q5 0 16 -1.5t16 -1.5q38 0 59 3q9 6 23 12t15 19q4 17 6 35t2 38l-5 25l-1 3v59q0 26 -0.5 64t-1.5 88q-1 82 0 131t5 64l-3 17q4 13 4 19q0 118 -20 129l-12 14q-17 6 -48 6q-57 0 -84 21h-2l-4 11v5q7 10 15 15l37 6q22 0 66 -3q11 -1 20.5 -1h17.5h28h14q30 -8 146 -3
q104 5 125 -6q2 0 6 -4q16 -1 49 -9q4 0 10 -2l15 -5q14 -5 28.5 -11t31.5 -14l14 -5q3 -3 7.5 -7t10.5 -10h3q13 -10 30.5 -26t40.5 -38q48 -44 48 -69q3 -4 5.5 -9.5t6.5 -12.5q12 -9 17 -17l3 -1l3 -7q0 -1 1.5 -11t3.5 -29q0 -3 3 -7q10 -60 15 -102zM655 345
q4 55 -3 120t-26 140q-6 6 -9.5 20t-7.5 18l-1 2q0 3 -6 20q-8 4 -19 24q-5 7 -13 15.5t-19 18.5q-24 21 -33 23q-5 8 -52 17l-49 9q-37 2 -59 3.5t-27 1.5q-23 0 -29 -6l-5 -6l-6 -3q0 -12 -6 -16q-4 -26 -6 -58t-4 -70q-1 -17 -0.5 -49t2.5 -80q1 -14 1 -29.5v-31.5v-66
q0 -81 -6 -85q2 -6 2 -24v-51q0 -9 1 -23t2 -28.5t2 -28t1 -22.5q0 -17 8 -25v-3l4 -4h3q16 -22 74 -22q6 0 17.5 1.5t30.5 3.5q20 2 29 4t11 3q42 3 49 10q4 0 8 4l17 5q5 8 17 9l1 3q24 8 29 22q2 0 2 3q4 3 9.5 8.5t13.5 12.5l6 19l2 1q2 5 4.5 10.5t4.5 12.5q10 6 22 77
q1 7 6 16q0 8 1 20t3 29l2 2z" />
    <glyph glyph-name="E" unicode="E" horiz-adv-x="800" 
d="M780 246q0 -3 1 -28t2 -73h2v-39v-9v-6.5t1 -7.5v-15q0 -22 -8 -48q-11 -15 -90 -15q-10 0 -26 0.5t-34 1.5t-34 1.5t-26 0.5v-1l-8 1h-11v-1l-6 1h-12q-6 0 -17 -1.5t-17 -1.5q-5 0 -14.5 1t-24.5 2q-24 3 -40 0q-12 -1 -21 -3t-15 -4l-17 3q-7 4 -163 4q-30 0 -82 -3
q-26 -1 -46 -2t-34 -1l-8 -1l-18 7l-3 3l-6 2l-7 8l2 10q4 2 9 4t13 6l7 1h2q2 2 52 2q36 0 49 13q2 2 5 5.5t11 8.5l1 5q13 10 13 60q0 8 -1 20t-1.5 24.5t-1.5 24.5t-1 20q9 13 6 69l-1 108q-2 22 -4 49t-6 59q6 28 9.5 43.5t3.5 19.5q0 9 -1.5 23t-4 29t-4 28.5
t-1.5 22.5v17v9t1 8q3 17 -4 21q0 3 -5 28q-21 23 -101 23h-10q-2 2 -23 5q-3 1 -6.5 3t-7.5 4q-1 1 -1 23q31 16 95 16l17 -3l2 -2q21 -6 103 -6q15 0 32 1.5t34 3.5l5 -3h55l2 1l10 2q12 -3 26 -3q6 0 16.5 1t27.5 3q31 3 43 2h10v-2l7 2h238h22l9 -8q9 -21 9 -61v-34
l-2 -5v-63q0 -14 0.5 -27t1.5 -24l-2 -3q2 -26 0 -47.5t-6 -38.5l-9 -3l-17 5l-12 29q-4 13 -8.5 30.5t-11.5 41.5q-3 3 -3 9q-7 5 -11 28q-7 9 -14 32q-2 2 -7.5 7t-13.5 13q-2 2 -4.5 5t-8.5 9l-1 3q-7 5 -16.5 12t-20.5 16q-7 1 -12 8q-20 4 -31 12h-26q-42 12 -68 9
q-26 -1 -37 -2t-8 -1q-5 0 -18 3t-19 3h-1q-6 -1 -10.5 -2t-9.5 -1h-8q-2 0 -8 2q-23 -3 -38 -10q-17 -20 -15 -26q-13 -10 -13 -90q6 -10 3 -47q-1 -23 -2.5 -38.5t-1.5 -11.5v-9v-5.5t1 -7.5v-21q2 -3 3 -13t2 -21.5t3.5 -22.5t7.5 -16q2 2 6 -1q15 -5 21 -5q13 0 31 6h2
q5 2 17.5 6.5t32.5 12.5q4 2 7 4.5t7 4.5q2 1 3.5 2t2.5 1q13 7 16 20q12 8 20 29q16 16 18 88l-1 1l1 2l-1 2q2 32 18 32l11 -2l5 -3q0 -5 1 -6q2 -6 3.5 -14.5t-0.5 -19.5q-1 -15 -2 -23t-1 -9q0 -10 9 -119l-1 -3q-2 -13 -2.5 -28t0.5 -32q2 -22 2.5 -37t-0.5 -23
q0 -7 -1 -18.5t-1.5 -24t-1.5 -24.5t-1 -19q0 -40 -7 -47l-10 -2l-4 2q-10 6 -14 33l-3 42l-2 1q-3 11 -8 26t-13 36l-3 15q-8 8 -20.5 19.5t-32.5 23.5l-14 4q-5 5 -26 9l-1 1q-25 5 -51 5q-15 0 -20 -11q-8 -21 -8 -214l5 -26l1 -1v-34q0 -2 1.5 -14.5t3.5 -34.5
q10 -16 17 -31q2 -2 12 -3t30 -5q3 0 4 -1v-2l5 2q3 1 47 1h125h3q7 2 18.5 3t26.5 3q73 22 104 94q0 1 2 4.5t4.5 7.5t4.5 7.5l2 3.5q9 9 17 39q6 29 12 35q0 5 1 6q5 23 12 51.5t16 62.5q4 2 8.5 4.5t10.5 6.5l12 -8q5 -8 6 -43q1 -11 1.5 -19.5t0.5 -15.5q0 -13 1 -14z
" />
    <glyph glyph-name="F" unicode="F" horiz-adv-x="740" 
d="M755 771q5 -20 5 -45q0 -29 -6 -86l-3.5 -49t-1.5 -36q0 -31 6 -52l-7 -20q-9 -9 -17 -11q-21 5 -25 23q-1 4 -2 13t-2 24q-6 3 -20 74q-6 15 -14 31l-16 32q-5 8 -14.5 20.5t-22.5 28.5v4l-7 9l-2 3q-8 8 -26 20q-4 3 -16.5 8.5t-17.5 5.5l-1 1q-16 4 -31 9l-29 5
q-2 2 -7 2q-31 0 -73.5 -1.5t-99.5 -3.5l-16 -8q-5 -8 -9 -15t-8 -15l-1 -2q-2 -4 -2.5 -13.5t-2.5 -24.5l-1 -2q-2 -7 -2.5 -18.5t-1.5 -24.5t-1.5 -25t-2.5 -20q5 -22 5 -37q0 -4 -5 -24l5 -86q3 -6 8.5 -12t11.5 -13q6 -3 20 -3h26l64 32h3l11 14l17 17q4 6 9 22q5 2 5 9
q12 11 21 80l4 9q1 16 16 29l8 -3q3 -9 4.5 -22.5t2 -34t1.5 -49.5t3 -68q4 -38 5 -67.5t1 -49.5q0 -152 -14 -161l-18 -2q-16 16 -19 59q-1 25 -3 40t-4 20l-2 3q-1 2 -2 4.5t-3 6.5q-5 17 -10 29q-4 1 -5 4t-14 16q-5 1 -17 14q-11 5 -37 12q-2 2 -5 3t-7 5l-12 3l-3 1
l-28 5v1l-17 -1q-25 -21 -25 -91q0 -7 0.5 -19.5t1.5 -26t1.5 -26t0.5 -20.5q0 -28 -5 -46q0 -2 1 -16t4 -43q2 -50 13 -52q10 -26 48 -31q0 -4 55 -11q57 -5 57 -13v-14q-15 -5 -17 -11l-12 -2h-17l-1 2h-12h-7.5t-8.5 1l-2 2q-9 2 -22.5 2.5t-30.5 2.5q-12 -2 -25.5 -3.5
t-30.5 0.5l-1 1q-6 2 -18 2h-32q-5 0 -9 -1t-6 -2q-5 1 -38 -2q-2 -2 -7 -2h-8q-3 0 -13 2q-6 2 -72 5q-59 2 -59 13q0 18 22 24q2 1 12 1h23q37 0 54 6q0 3 20 8q26 64 26 106v259q0 21 -3 63q-3 43 -3 64v93q0 70 -6 87q-3 14 -5 16q-5 15 -17 20l-3 1q-2 2 -10 4.5
t-21 7.5q-23 -1 -43 -6l-23 5l-18 11l-2 4q-1 3 -4 6v8q5 8 16.5 14t26.5 11l10 -3q16 -3 51 0q7 -3 39 -3v1l14 -3q8 2 17 3t19 3q19 -2 54 -9q20 0 25 5q13 2 26 3t26 1q21 0 42 -3q13 2 19 3.5t7 1.5q105 0 189.5 -1t150.5 -2l1 -2l4 3q1 -2 6 0l6 -1q6 -6 11 -12t10 -11
q3 -10 2 -33z" />
    <glyph glyph-name="G" unicode="G" horiz-adv-x="729" 
d="M782 388q0 -10 -4 -22q-4 -4 -18 -4q-8 -3 -25 0q-10 1 -16 2t-8 1q-20 0 -36.5 -12.5t-31.5 -26.5l-3 -8q-4 -15 -5 -54.5t-1 -105.5q0 -16 -1 -25t-2 -13q0 -11 1 -12v-42v-27t-1 -31q-3 -3 -3 -6q-2 -4 -6 -9t-10 -10h-1l-17 3l-5 6l-12 54q-25 28 -31 28l-11 -2
q-3 -2 -9.5 -6.5t-14.5 -11.5h-3q-10 -6 -14.5 -11.5t-5.5 -8.5l-11 -9q-7 -5 -18.5 -10.5t-26.5 -12.5l-4 -5h-6q-2 -2 -4 -3l-6 -3h-6q-7 -5 -43 -8q-11 -6 -46 -6l-17 3l-3 3q-11 2 -23 4t-25 5l-3 3q-13 5 -32 15t-43 27q-2 0 -5 3t-4 3q-3 4 -7.5 8t-9.5 7
q-7 13 -30 28q-2 6 -5 13.5t-8 15.5l-9.5 9.5t-12.5 10.5q-2 5 -7 12t-11 15.5t-11 18t-6 19.5q-2 2 -4 4.5t-7 7.5q-5 11 -9.5 23.5t-10.5 26.5q-3 6 -3 21v6l-2 2l-9 34l-2 1q-3 8 -5 29.5t-2 56.5q0 34 3.5 63.5t11.5 55.5q2 2 9 20q6 2 13 29q1 16 6 22q1 2 6.5 15
t16.5 37q14 14 18 26q1 1 3 6q4 5 10.5 12t16.5 17q1 4 2.5 7.5t3.5 8.5l4 4q2 2 4 2q3 0 4 1l5 7q3 3 11.5 12t23.5 21q3 2 6.5 4t7.5 4q1 2 6.5 4.5t13.5 6.5q6 11 23.5 23t30.5 14q3 3 20 4l1 2l13 3l3 3q11 2 18.5 3.5t13.5 1.5q11 0 31 -1.5t31 -1.5v1
q22 -1 45.5 -14.5t47.5 -37.5q6 -6 22 -14q8 -11 17.5 -20.5t22.5 -14.5q15 1 21 7q2 2 17 20q0 2 4 13.5t4 13.5q0 3 3 7t3 9q13 28 20 28q12 0 25 -4l6 -8q0 -2 1 -4.5t2 -6.5l2 -6q0 -21 -1.5 -52t-3.5 -74q-3 -86 -3 -126q0 -70 -9 -100l-16 -7h-14q-8 6 -9.5 19
t-5.5 26q-4 11 -8.5 23.5t-11.5 27.5q0 19 -25 68q0 1 -1.5 3.5t-1.5 3.5q-3 4 -6.5 12.5t-7.5 17.5t-8 17t-8 12q-2 7 -8 15.5t-13.5 16.5t-13.5 15t-8 11v2q-29 26 -40 29q-2 6 -34 14l-25 5t-14 1h-18q-4 -4 -17 -8l-8 2q-3 0 -13 -2.5t-25 -8.5l-22 -17q-5 -2 -12 -9
q0 -2 -7 -11t-7 -12q-6 -4 -12.5 -14t-10.5 -14l-3 -6q-1 0 -3 -4t-4 -9.5t-3.5 -10.5t-1.5 -7q-6 -4 -13 -64h-1q-1 -2 -2 -8t-3 -17q-17 -21 -18 -165l1 -3q3 -21 3 -101q0 5 2.5 -22.5t8.5 -90.5q2 -2 2.5 -5t2.5 -7l3 -3q2 -15 14 -40q1 -5 6 -9l9 -22q7 -8 13.5 -17.5
t14.5 -22.5q5 -8 16.5 -16t26.5 -19l75 -19q17 2 26 5.5t20 8.5l14 3v2l23 8q4 3 12.5 10t23.5 20q26 23 27 37q4 2 6.5 10t5 17.5t3.5 17t2 8.5q2 12 3.5 30.5t1.5 41.5q0 26 -1 41.5t-2 22.5q-7 30 -34 54q-7 3 -14 10l-11 3q-1 1 -10.5 2t-26.5 -1v2l-3 -3h-12
q-13 0 -26.5 2t-27.5 5l-1 6q0 27 43 27q1 0 8.5 -1.5t21.5 -3.5q3 -3 19 0l21 2l5 1q8 0 19 -1t26 -4v-1q7 4 72 5t191 3q14 -11 14 -17z" />
    <glyph glyph-name="H" unicode="H" horiz-adv-x="905" 
d="M915 811q0 -4 -3.5 -12.5t-3.5 -12.5l-10 -6q-10 -3 -29 0q-5 1 -9.5 1.5t-8.5 0.5h-9q1 0 -9.5 -1.5t-32.5 -3.5q-2 -2 -20 -5q-29 -29 -29 -110q0 -18 1 -33t5 -27q-4 -12 -6 -59q-3 -49 0 -85l1 -66q0 -28 -3 -49q2 -8 3.5 -27.5t-0.5 -49.5q-2 -60 -6 -78
q2 -13 2.5 -25t2.5 -25q5 -49 26 -70l3 -2q4 -1 7.5 -3t9.5 -5q17 -2 34.5 -3t36.5 -1q1 0 7.5 -1t18.5 -2l11 -8l-3 -25q-6 -5 -16.5 -8.5t-27.5 -3.5q-37 0 -57.5 1t-25.5 2h-9v-1q-17 5 -29 3q-7 4 -19 4q-8 0 -22 -3.5t-22 -3.5q-45 0 -49 6l-22 -2l-1 2h-7
q-8 -3 -20 -2l-9 -1l-3 1q-4 -1 -8 -1h-8h-15q-40 0 -44 24q3 4 9 7t15 4q14 2 29.5 3.5t21.5 1.5q3 7 28 4q8 4 15.5 9.5t13.5 10.5q0 4 11 23q5 12 3 56q-3 76 -3 58q2 9 6 76q-6 7 -6 107q-9 11 -25 20h-1q-10 2 -21 2h-13.5t-15.5 1l-3 2l-10 2q-10 1 -43 0.5t-93 -2.5
t-89 -3.5t-31 -2.5h-6q-14 -12 -14 -39l-1 -227q0 -26 20 -71l15 -14l3 -1q11 -11 88 -11q14 0 26 -9l3 -10q0 -12 -11 -18h-9q-5 0 -5 -2q-7 -1 -15.5 -2t-19.5 -1h-2l-6 2l-9 -3q-8 1 -21.5 2.5t-30.5 3.5q-21 -4 -75.5 -6t-144.5 -2q-14 0 -29 1.5t-31 3.5q-16 10 -16 24
q11 15 28 17h12h9.5t13.5 -1l4 1l16 -3l10 2l1 1q6 2 12 2.5t14 2.5q11 8 14 6q21 14 25 100v114q0 22 -3.5 53t-8.5 70q10 36 10 52q0 6 -2 19.5t-2 19.5l1 1q2 6 2 46v33q-1 8 -1.5 14.5t-0.5 11.5v18v56q0 45 -4 58q-8 25 -36 48q-9 4 -20 5t-24 1q-20 0 -45 -3
q-2 2 -6.5 3l-13.5 3q-12 3 -12 19q0 14 10 27q11 2 23.5 3t29.5 3q1 -1 26 -1q0 -2 1 -2q32 2 67 2.5t77 -0.5l143 -3q34 0 38 -2q20 -5 20 -26l-5 -21q-4 -3 -11 -4t-15 -1h-15q-5 0 -9 -2q-15 4 -20 4l-31 -2q-8 -6 -16 -10.5t-16 -9.5q-9 -9 -16 -46h-1q-3 -3 0 -9
q1 -3 1 -10q0 -45 -1 -81t-5 -66q8 -29 8 -30q0 -6 -6 -24q15 -35 107 -32q2 0 8 -3.5t6 -4.5q12 6 83 6q2 -2 9 -2h8t9 -1q11 -2 17 -1t10 2h7l2 -1q13 -3 46 -3q28 0 38 9t17 37v132q0 98 -10 122q-26 23 -37 24h-45q-65 0 -65 27q0 31 65 29l2 1q13 -9 95 -9q25 0 111 6
q71 8 106 3l40 -3q0 -1 10.5 -7t10.5 -14z" />
    <glyph glyph-name="I" unicode="I" horiz-adv-x="466" 
d="M475 795l-10 -7l-37 -3l-2 1l-9 3q-26 0 -46 -1t-34 -5q-45 -33 -45 -88q0 -15 1.5 -34.5t3.5 -43.5q4 -35 5 -54.5t1 -24.5l-1 -1q-4 -7 -4 -22q0 -151 7 -164q-4 -35 -5.5 -54.5t-1.5 -22.5q0 -12 1 -29t3 -40q1 -23 2 -40.5t1 -29.5q0 -18 2.5 -29.5t8.5 -20
t16.5 -14.5t27.5 -13q81 -1 94 0l17 -9q4 -17 4 -23l-1 -6q-8 -8 -16 -9l-1 -2q-3 -1 -11 -1h-14q-43 0 -52 3q-7 -3 -29 0q-13 1 -21 2t-12 1q-9 0 -21.5 -0.5t-26.5 -1t-26.5 -1t-21.5 -0.5l-4 -2q-10 -1 -21.5 -2t-25.5 -1q-6 0 -16.5 1.5t-26.5 3.5l-2 1l-11 2
q-10 -4 -27.5 -5t-41.5 -1q-9 0 -23.5 6t-14.5 14q0 17 23 20q3 3 9 3l8 -2h44l2 2q7 -2 14 -1t15 2q7 0 29 16h3q2 3 7 8.5t10 11.5q1 1 3 6q10 13 10 198q0 13 -1.5 32t-3.5 45q-3 54 -3 79q0 35 -6 58q3 11 5 20t2 19l-3 17l-1 1q-3 22 -2 57l3 62q0 -3 -1 11t-3 45
l-5 11q-1 2 -2 3t-1 3l-9 8q-7 4 -22 11l-1 1l-39 5l-6 -2h-16q-5 0 -10 0.5t-12 1.5l-3 2q-8 1 -18 3.5t-22 6.5q-4 -1 -7 5l-1 15q0 19 37 19q36 0 56.5 1t27.5 5l11 -2q3 3 5 3q4 0 4 -1l7 -2l1 2q13 0 17 -2l5 3q8 -4 47 -4h54l3 -2l8 2l2 1q3 0 23 1.5t58 3.5
q67 3 68 2l40 -10l4 -30v-7z" />
    <glyph glyph-name="J" unicode="J" horiz-adv-x="578" 
d="M620 771q0 -13 -42 -16h-44q-17 0 -31 -9.5t-25 -14.5q-11 -7 -13 -39v-41v-47q0 -15 -0.5 -33.5t-1.5 -41.5q-1 -27 -1 -51v-45v-75q1 -6 1 -15v-21v-57q-1 -31 -3.5 -51.5t-2.5 -16.5q0 -4 -3.5 -16.5t-8.5 -32.5q-12 -40 -13 -40q-10 -15 -17 -26t-7 -13
q-42 -44 -51 -54q-14 -10 -31 -19t-37 -14q-82 -25 -89 -25q-8 0 -8 3q-89 0 -89 14q-48 25 -49 28q-4 0 -9.5 5.5t-10.5 11.5q-2 4 -4.5 7t-4.5 6q-3 5 -18 19q-15 13 -18 69q0 -4 2 10.5t6 46.5q0 6 8.5 16.5t8.5 15.5q0 3 5.5 8.5t13 11t14.5 10t10 4.5q47 8 65 -6
q47 -38 47 -74q0 -7 -3 -17.5t-8 -21t-10.5 -19t-10.5 -11.5q-8 -8 -17 -9q-34 -12 -42 -23q-5 -4 -9 -6.5t-3 -7.5q3 -25 16 -25q4 0 10 -3.5t12 -8t11.5 -8t7.5 -3.5q7 0 18.5 -1.5t23.5 -3t23 -3t18 -1.5q23 0 23 7l29 14q29 15 31 20q43 67 43 90q0 10 1.5 30.5
t3.5 52.5q1 26 2 47.5t-1 36.5q-2 52 -3 108.5t-1 119.5q0 25 3 85q1 54 0 84q-5 14 -8.5 28.5t-8.5 19.5q-6 4 -6 9q0 4 -59 9q-17 2 -37 4t-44 7q-13 19 -9 19q-4 0 7 9q6 1 11 6q5 11 60 11q36 0 125 -6q60 -6 67 -4q0 4 51 4h37q12 0 20 -2q12 3 37 3q5 -1 13 -2.5
t19 -3.5q10 -4 10 -20z" />
    <glyph glyph-name="K" unicode="K" horiz-adv-x="883" 
d="M895 818q7 -1 7 -13q0 -24 -13 -27q-5 0 -13 -2t-13 -2t-13 -1l-16 -2t-14 -3t-6 -3q0 -4 -22 -14q-21 -9 -26 -9t-11.5 -4.5t-17.5 -12.5q-10 -8 -16.5 -12.5t-8.5 -6.5q-36 -16 -95 -69q-30 -29 -53 -47.5t-39 -26.5q-2 0 -8 -5t-12.5 -10.5t-12.5 -10.5t-9 -5
q-14 0 -14 -20q0 -27 9 -27q6 0 36 -57q1 -2 5.5 -8t14.5 -17q18 -21 18 -26q0 -7 14 -19q7 -6 9.5 -10t4.5 -8.5t4.5 -9.5t9.5 -12q8 -7 11.5 -11t5.5 -5q8 -15 21.5 -35t30.5 -44q2 -2 5.5 -7t7.5 -11t6.5 -11t2.5 -6q0 -5 5.5 -12t12 -14.5t12.5 -13.5t7 -8q8 -18 29 -45
q21 -28 38 -30q77 -29 77 -19q0 11 28 -8q28 -16 28 -23q-3 -15 -50 -15t-49 2q-168 0 -238 3q-29 1 -45 2t-18 -1q-54 -2 -54 14q0 14 20 17q64 7 64 3q4 3 30 0q5 2 12 5.5t18 11.5q8 8 8 15q0 12 -22 40q-20 32 -20 39q0 5 -10 17.5t-33 33.5q-5 15 -27 38q-6 5 -12 18.5
t-11 18.5q-33 31 -33 46q0 2 -4.5 7.5t-10.5 11.5t-10.5 12t-4.5 9q0 5 -28 39q-2 3 -8 7t-13.5 8.5t-14 7.5t-9.5 3q-4 -6 -7 -9l-7.5 -7.5t-8.5 -5.5q-20 -11 -23 -18q-4 -12 -29 -37q-12 -12 -9 -34q1 -4 1 -15q0 -5 0.5 -10t1.5 -12q0 -47 3 -165q1 -28 18 -50.5
t43 -22.5q11 0 14 1q18 -1 49 -6q16 -4 10 -22q-3 -6 -37 -9q-44 5 -100 0q-37 -1 -85 0q-55 3 -85 -6q-8 2 -20.5 1t-29.5 -3l-12 -2t-11 -1q-13 0 -28 7t-15 18q0 10 75 22q75 10 75 30q0 6 6.5 20t4.5 23q0 9 6 30q-1 10 -2.5 22.5t-3.5 29.5q2 36 2.5 76.5t-0.5 88.5
q-1 19 -1.5 38t-0.5 39v86v160q-12 99 -61 87q-11 -2 -31 0q-30 3 -33 3q-40 0 -40 31q0 16 50 16q5 0 17 -1t32 -3q34 -5 45 -3q13 3 60 0q29 -1 45 -2t19 -1h17q7 0 15 0.5t19 1.5q5 1 10.5 1h12.5t15.5 0.5t18.5 1.5q60 1 60 -20q0 -22 -63 -22q-30 0 -51 -9
q-31 -12 -31 -37v-52v-25t-1 -24l-3 -102q0 -5 -0.5 -13t-1 -17t-1 -17.5t-0.5 -13.5q0 -67 23 -67q9 0 32 20q16 22 83 74q4 4 6.5 8t5.5 8q10 8 23.5 19t30.5 24q15 16 36 32q2 1 6 6.5t8 11.5l3.5 7t3.5 5q3 5 16 5t47 67q8 18 8 27q0 28 -31 50q-2 1 -10 3t-22 4
q-26 5 -26 3q-40 7 -37 26q5 23 57 20q184 -1 184 5q12 -1 88 0q76 3 98 -5z" />
    <glyph glyph-name="L" unicode="L" horiz-adv-x="718" 
d="M-5 769q-13 4 -13 26q0 23 49 23h19h14.5t17.5 -1q16 -2 28.5 -2.5t23.5 0.5q3 0 13 1t25 2q6 1 11 1.5t10 0.5h18q23 0 26 -5q5 2 21 2.5t44 2.5q0 5 26 5q10 -1 16.5 -1.5t10.5 -0.5q6 0 3 -1q15 1 26.5 0.5t18.5 -2.5q27 -8 25 -32q0 -19 -33 -22q-30 -2 -30 0
q-2 2 -33 2q-31 1 -34 -2l-18 -12q-3 -3 -8 -19q0 -5 -5 -13.5t-5 -13.5v-56v-72q0 -50 -7 -71v-10q0 -4 0.5 -10.5t1.5 -14.5q1 -4 1 -8v-8v-13q5 0 2 -45q-1 -5 -1.5 -11t-0.5 -12v-11.5t-1 -13.5q-3 -30 0 -144q4 -123 12 -123q-4 0 17 -34q0 -2 5 -4.5t12 -5t13 -4
t9 -0.5q51 0 155 9q20 0 62 16q0 4 35 21q11 3 23 22l14 21q3 9 10 19.5t16 22.5q8 3 13 25t9 61q1 12 9 38q0 25 9 66q9 17 18 17q4 0 10 -4.5t7 -4.5q10 0 10 -35q0 -19 -1 -33.5t-2 -25.5q-2 -66 -3 -104.5t1 -49.5q7 -72 0 -96q-4 -18 -51 -20q-8 -1 -15.5 -1.5
t-15.5 -0.5t-16 -0.5t-16 -1.5q-10 -1 -18.5 -1h-16.5h-25q-132 0 -138 -2q0 2 -86 5h-99q-92 -3 -166 -3q-8 0 -17 1t-20 4q-29 6 -29 15q0 13 31 20q10 2 20 3.5t20 -0.5q49 -3 67 37q12 30 9 83q-1 24 -2 55.5t1 69.5q1 97 0 126q-10 136 -3 278q-4 14 -4.5 28.5
t-11.5 24.5q-7 10 -7 13q0 7 -53 10z" />
    <glyph glyph-name="M" unicode="M" horiz-adv-x="934" 
d="M940 783q0 -11 -49 -12q-5 -1 -11.5 -1.5t-14.5 -0.5h-15.5t-18.5 -1q-39 -9 -39 -37q0 -6 -4 -26q-2 -10 -2 -13q0 -7 -1 -10q1 -310 -3 -310q6 -74 6 -126v-22q0 -7 -0.5 -14.5t-1.5 -17.5q-2 -23 0 -54q2 -22 3 -36t5 -22q6 -12 18.5 -20t28.5 -12.5t33.5 -6t33.5 0.5
q16 1 26 0q15 -8 12 -22q-2 -20 -37 -20q-8 0 -22 1.5t-22 1.5q-21 0 -53.5 1t-77.5 2q-48 2 -80 2.5t-49 -0.5q-8 0 -33 -5q-20 -1 -29 2q-17 11 -17 23q0 9 31 10h38q8 2 15 2q5 0 10 0.5t12 1.5q4 1 12 7t10 6q9 0 14 23q5 25 7 39t0 20q3 21 3 65q-1 12 -2 20t1 12
q1 3 1 10v14q0 17 -3 56q-2 34 0 54q3 22 -1 69q-2 16 -2.5 33.5t0.5 35.5q0 14 -3 89v9q0 4 0.5 9t1.5 12q1 61 -13 61q-2 0 -5.5 -5t-7 -12t-6 -13.5t-2.5 -9.5q-3 -26 -14 -44q-17 -80 -21 -80q-6 0 -19 -45q-7 -22 -11 -35.5t-6 -16.5q-2 -8 -4.5 -17t-6.5 -22
q0 -5 -6.5 -16.5t-6.5 -17.5q0 -14 -10 -41q-14 -37 -14 -39q-5 -29 -14.5 -72.5t-21.5 -101.5q-10 -43 -13 -43q-9 -26 -9 -32q0 -17 -22 -17q-16 0 -16 12q0 17 -17 53q-8 17 -13.5 28.5t-6.5 18.5q-2 8 -4.5 22.5t-8.5 36.5q-5 26 -9.5 38.5t-5.5 12.5q-7 0 -28 63
q-11 31 -15.5 51.5t-4.5 29.5q0 6 -3.5 15.5t-7 19.5t-7 18.5t-3.5 12.5q-1 5 -5 14.5t-8.5 19.5t-8 20t-3.5 16q0 42 -51 150q-5 0 -12 31q-3 14 -14 14q-8 0 -11 -9q-1 -7 -2 -24.5t-2 -46.5q5 -62 3 -188q-2 -22 -3.5 -60t-1.5 -93q0 -160 16 -160q10 -21 21 -42
q2 -3 7.5 -8t11.5 -9.5t12 -8.5t9 -5q34 -8 56 -12.5t35 -4.5q6 0 6 -3q0 -14 -15 -15l-34 -3q-82 0 -143 -1.5t-99 -3.5q-49 -1 -49 12q0 5 3 11.5t3 10.5q0 5 49 6q35 3 50 20q3 4 7.5 9.5t12.5 15.5q15 49 10 49q7 0 7 78q0 14 -1.5 69.5t-3.5 152.5q-2 35 -0.5 79
t3.5 98q1 8 1.5 15t0.5 12v13q0 100 -56 115q-12 3 -52 2q-17 -1 -27.5 2t-16.5 7t-7.5 8.5t-0.5 6.5q1 4 1 6.5v4.5v2q0 12 177 9q13 0 36 -1t56 -2q11 -3 30 -40q-17 0 1 -37q6 -11 11 -20t11 -18q1 -8 7 -33t19 -67q25 -84 28 -84q5 -10 13 -27t17 -42q2 -8 4 -17l4 -18
q22 -52 32 -80q5 -20 10 -38.5t10 -35.5q1 -4 3 -4t8 -13q7 -12 14 -12q8 0 20 31q35 98 41 146q1 8 5 20t8.5 24.5t8.5 24.5t5 20q0 28 20 68q2 0 23 72q0 23 10 52q16 47 16 53q2 11 3 19.5t2 14.5q1 5 1 12l15 15q16 16 16 12q0 5 60 5h71q11 1 23 1.5t23 0.5h46h31
q20 -3 20 -16q0 -5 -2.5 -12t-2.5 -11z" />
    <glyph glyph-name="N" unicode="N" horiz-adv-x="754" 
d="M395 531q10 -13 15.5 -26.5t10 -26t9.5 -24t13 -20.5l14 -14t8 -9q3 -8 11 -18.5t19 -24.5q10 -8 13.5 -18.5t8.5 -18.5q6 -11 16 -27t25 -38q8 -11 15.5 -23.5t18.5 -27.5q12 -9 17 -9q11 0 6 59q0 11 -3 92q0 51 -3 152q-4 84 -3 88q7 49 -17 103q-27 60 -75 60
q-3 0 -10 1.5t-14 3.5t-12.5 3.5t-5.5 2.5q0 3 -9 10t-9 13q2 17 51 20q81 1 143.5 2t111.5 1h22q3 -4 6.5 -6.5t6.5 -5.5q13 -10 13 -16t-6 -9q-5 -4 -15.5 -7t-28.5 -5q-33 -4 -43 -16q-14 -13 -22 -20.5t-11 -11.5q-11 -11 -15.5 -21.5t-6.5 -20.5q-4 -20 -6.5 -37.5
t-4.5 -32.5q-6 -63 -4 -63v-333q0 -23 3 -69q1 -23 2 -40.5t1 -28.5v-44q0 -5 0 -4t1 8q0 -14 -5.5 -29.5t-18.5 -15.5q-21 0 -37 22q-2 5 -5 13.5t-9 21.5q-9 26 -15 26q-13 17 -23 31t-17 25q-5 7 -13 19.5t-21 29.5q-35 45 -30 45q-2 0 -16 20q-13 20 -13 26q0 34 -58 92
q-24 22 -54 69q-19 29 -31.5 46.5l-17.5 24.5q-6 7 -11 15t-11 19q-5 11 -9.5 20t-8.5 14q-16 15 -20 26q-16 32 -36 37q-9 1 -12 -22v-34q0 -5 1.5 -44t3.5 -114q1 -4 1 -22v-41q-1 -73 0 -76q1 -6 1.5 -14.5t0.5 -19.5v-24t1 -29q0 -26 16 -54q10 -22 15.5 -35.5
t7.5 -16.5q2 -8 9 -8l17 -11q16 -12 17 -11q0 -9 27 -12q29 -1 31 -3q25 -16 25 -25q0 -12 -22 -13q-5 -1 -18 -1.5t-33 -0.5h-110q-57 0 -88.5 1t-42.5 2q-31 4 -31 12q0 9 65 33q3 1 9 2.5t14 4.5q1 2 4 5.5t7 7.5q2 0 23 37q5 12 7.5 18.5t4.5 12.5q2 4 6 10q4 4 -1 42
q-4 23 -5 35.5t-1 14.5q0 11 1 28t3 40t2.5 40.5t-0.5 28.5q-1 10 -1.5 24.5t-0.5 33.5q0 38 3 95q9 161 -1 161q-2 5 -6 12.5t-10 18.5q-2 5 -9 12.5t-15.5 14t-17 11.5t-13.5 5q-88 0 -79 35q6 16 45 19q42 1 42 -2h70h24.5t17.5 -1q30 -3 60 -52q6 -15 14.5 -30t19.5 -32
q5 -5 17 -32q11 -26 20 -26q8 0 20 -25q7 -13 10.5 -19t4.5 -7q2 -1 5.5 -5.5t7 -10t6.5 -9.5l3 -4q2 0 6 -5t8.5 -10.5t9 -10.5t6.5 -5z" />
    <glyph glyph-name="O" unicode="O" horiz-adv-x="737" 
d="M726 446q2 -5 1 -24t-2 -53q-3 -75 -13 -75q4 0 -20 -68q-1 -8 -10.5 -19.5t-10.5 -17.5q-12 -38 -26 -44q-1 -1 -3.5 -7t-6.5 -12.5t-8.5 -12t-9.5 -5.5q4 0 2.5 -3t-5.5 -7t-9.5 -9t-9.5 -9q-4 -6 -12 -14.5t-17 -16t-17.5 -12.5t-14.5 -5q20 0 -34 -23t-54 -17
q0 -8 -46 -12q-19 -2 -34 -3.5t-28 -1.5q-16 0 -33 7q-12 3 -20.5 5t-13.5 4q-42 6 -42 14q-14 11 -25 17t-15 6q-1 1 -6.5 4.5t-13.5 10.5q-17 17 -17 19q0 3 -29 35q-30 34 -34 34q-3 0 -20 26q-17 27 -20 28q-2 2 -15 38q-7 16 -12.5 34t-10.5 38q-3 33 -11 33
q-2 4 -2 13v12t-1 15v44q-3 68 6 68q8 21 8 29q2 20 5.5 32.5t7 20.5t6 13t2.5 10l6 18q2 3 8 13t16 27l13 25q4 5 6 9t4 6q14 24 29 32q3 2 11 10l21 21q18 21 34 25q8 2 43 31q29 20 46 20q6 0 17 2.5t23 5.5t24 5t19 0q19 -3 40.5 -6.5t45.5 -6.5q17 -3 53 -17
q46 -19 46 -30q0 -3 46 -40q4 -2 9 -5.5t11 -9.5q2 -5 7.5 -12t12.5 -14l13 -13l9 -9q8 -11 13.5 -20t7.5 -17q13 -26 20 -44.5t11 -28.5q11 0 29 -116zM585 351q0 8 -3.5 57.5t-9.5 140.5q0 2 -1 10.5t-3 23.5l-6 35q0 11 -28 74q-4 4 -34 45q-2 3 -8.5 8.5t-14 11.5
t-14 10t-9.5 4q3 0 -40 12q-46 12 -69 8q-13 -2 -37 -9t-60 -20q-9 -3 -20 -11.5t-20.5 -19.5t-16 -22.5t-6.5 -20.5q-26 -53 -20 -53l-3 -21q-3 -18 -5 -20q-8 0 -11 -69l-3 -83q-5 -25 -5 -45q0 -17 3.5 -44.5t10.5 -63.5q8 -35 11 -62t3 -44q0 -6 3.5 -14t8.5 -20
q5 -8 8 -14.5t5 -11.5q2 -3 4 -9q4 -16 27 -39q12 -13 19 -20.5t8 -11.5q5 -8 45 -20l41 -12q0 -7 53 -5q52 3 52 11q17 11 35.5 24t38.5 28q35 35 41 77q0 2 5 26.5t14 75.5q6 29 8.5 55t2.5 48z" />
    <glyph glyph-name="P" unicode="P" horiz-adv-x="683" 
d="M3 782q-14 2 -14 18q0 19 40 22q4 0 24 -1t58 -3q17 -1 40 -0.5t51 2.5q1 1 29 -3q27 -3 32 -3t14 3t17 3q12 3 38 0l26 -2q20 2 42 0.5t46 -3.5q127 -10 202 -72q55 -43 55 -80q0 -7 9 -40q11 -30 11 -48q-2 -13 -11 -24t-14 -28q-5 -6 -7.5 -10t-4.5 -5
q-12 -19 -14 -19q-4 0 -10 -5.5t-12.5 -12t-12 -12.5t-8.5 -7q-3 0 -8.5 -3.5t-11.5 -7t-11.5 -7t-8.5 -3.5q-98 -20 -98 -34l-143 -9q-10 0 -29 2t-28 2q-44 0 -42 -29q-2 -9 -4 -23.5t-3 -34.5q1 -3 1 -17v-28q3 -51 0 -92q-1 -11 1 -27t5 -38q4 -22 6 -31t2 -6
q0 -23 58 -24q25 4 71 3q4 -2 10.5 -6t17.5 -10q1 0 1 -3q0 -15 -12.5 -20t-28.5 -11q-2 0 -8 1.5t-13.5 4t-15 4t-11.5 1.5t-13.5 1t-20.5 1.5t-22 1.5t-18 1q-23 -3 -60 0q-13 1 -30.5 0.5t-39.5 -2.5q-27 -2 -45 -3t-26 -1q-56 0 -56 15q0 9 12.5 15.5t21.5 6.5h7
q3 0 13 -2h29q13 2 17.5 6.5t12.5 10.5q10 7 23 51q6 23 4 34q-9 27 -4 138v80q2 77 -2 77q5 0 5 75v45v21t1 20q3 21 3 44q0 35 -5.5 66t-18.5 57q-8 17 -111 17zM242 502q0 -78 44 -84q14 -1 34.5 -2t47.5 -1q93 0 106 22q2 2 9.5 6.5t16.5 9t16.5 7.5t9.5 3q3 0 7.5 4.5
t9 10t7.5 10t4 4.5q5 14 9.5 24t7.5 10q7 0 4 79q-1 106 -38 124q-11 6 -20 12.5t-20 13.5q-13 8 -23.5 11t-21.5 5q-48 3 -77 5t-40 1q-5 -3 -12 0q-5 1 -8 2t-4 1q-2 0 -20 -9q-11 0 -23 -11.5t-16 -22.5q-2 -15 -3 -38.5t-3 -56.5q0 -36 -3 -97z" />
    <glyph glyph-name="Q" unicode="Q" horiz-adv-x="722" 
d="M712 478q0 -151 -3 -173q0 -4 -3 -12t-7 -17t-7 -18t-3 -15q0 -13 -18 -38q-17 -26 -17 -37q0 -12 -28 -46q-27 -36 -37 -39q-7 -2 -23 -18q-14 -17 -20 -17q-3 0 -35 -26q-18 -16 -20 -30v-37q0 -4 3.5 -10.5t7 -13.5t7 -13t3.5 -9q0 -5 4.5 -11t11 -11.5t14 -9
t12.5 -3.5q8 -2 17 -2h27q10 0 44 25q4 3 16 20q4 10 7.5 24t6.5 34q9 39 20 34q17 -9 17 -37q0 -11 -4.5 -32t-15.5 -51q-5 -10 -11.5 -24t-14.5 -34q-8 -23 -11 -26q-29 -32 -86 -36q-7 -1 -13 -1h-11h-19q-75 0 -75 24q0 6 -20 26q-19 19 -20 28q0 2 -2 7.5t-5 11t-6 9.5
t-4 4q-2 0 -14 48t-19 48q-109 0 -192 68q-8 5 -20.5 14.5t-27.5 20.5q-30 25 -35 45q-1 9 -11 24q-2 5 -5.5 7.5t-8.5 6t-10.5 10.5t-10.5 21q-5 11 -11 27t-14 39q-2 17 -12 41q-8 17 -9 59q-2 26 -2.5 43.5t0.5 28.5q2 6 7.5 34t18.5 82q21 82 79 140q14 15 29 31.5
t29 21.5q4 2 11 9l14.5 14.5l14.5 14.5t11 9q9 2 34 17q19 13 34 13q6 0 46 14q4 3 38 0l40 -1q7 0 18 -4t22.5 -9t22.5 -9.5t17 -5.5q41 0 73 -48q1 -2 11 -9t27 -20q31 -22 31 -37q0 -2 5 -8t11 -13t11 -14t5 -11q0 -6 14 -29q7 -11 12.5 -17.5t9.5 -10.5q8 -8 20 -77
q0 -5 3.5 -14t3.5 -14zM582 318q0 10 -2.5 25t-2.5 23q-2 14 -1 23t2 14q2 3 1 9.5t-2.5 13l-3 13t-1.5 10.5q2 6 2 11v14q0 7 -1.5 19.5t-3 26t-2.5 26t-1 19.5q0 15 -9 41q-4 13 -6 22t-4 16.5t-4.5 15.5t-7.5 20q-11 26 -18 26l-11 16q-6 3 -14 10.5t-20 18.5
q-7 5 -11.5 8.5t-8.5 5.5q-15 1 -18 4q-2 2 -14 4t-35 7q-21 3 -31 3q-12 0 -52 -8q-37 -6 -37 -12q0 -4 -36 -23q-35 -18 -35 -32q0 -5 -19 -42q-18 -39 -18 -48q0 -1 1 -1q-8 0 -15 -51q-4 -24 -6 -38t-2 -16v-26v-28t-1 -40q-3 -77 0 -80q-2 -2 -2 -10q0 -20 6 -71
q4 -26 6.5 -41.5t6.5 -21.5q10 -36 35 -99q5 -13 9.5 -18.5t15.5 -8.5q11 -5 11 12v9q0 3 -2 11q-3 8 0 11q2 5 4 9t4 9q4 10 5 15.5t2.5 9.5t4 8.5t8.5 11.5q5 7 10.5 11.5t9.5 6.5q43 25 81 25q12 0 20 -3.5t14 -8.5l46 -37q14 -13 22 -24.5t11 -21.5q14 -59 36 -59
q5 0 11 9q6 8 12.5 19.5t13.5 26.5q4 6 9.5 18t10.5 30q2 12 4 19t3 9q0 18 9 60q5 23 8 39t3 25zM397 66q0 19 -23 94q-9 28 -37 28q-20 0 -42 -13t-30 -32q-11 -27 -11 -61q0 -11 9 -22t17 -20q13 -21 22 -25q15 -3 29.5 -7.5t22.5 -4.5q11 0 23 9q2 1 5 7.5t5 14.5
q4 10 5 14q3 7 4 7t1 11z" />
    <glyph glyph-name="R" unicode="R" horiz-adv-x="768" 
d="M789 223q3 -17 0 -51q-2 -11 -4 -23t-3 -23q0 -4 -2.5 -12.5t-5.5 -17t-6.5 -15t-5.5 -6.5q-3 0 -27 -26q-10 -13 -17 -21t-9 -13q-4 -9 -37 -10q-29 -2 -47.5 -1t-29.5 2q-15 3 -30 11t-27 21.5t-19.5 32.5t-7.5 43l-3 18q-3 21 -3 26q0 7 1 7v80q-8 45 -13 70t-7 30
q-21 55 -72 60q-5 1 -17.5 2.5t-34.5 4.5q-17 2 -30 3.5t-24 1.5q-37 0 -46 -22q-7 -13 -7 -70v-77q4 -34 5.5 -51t1.5 -19q-3 -31 -2 -53t5 -36q5 -13 21.5 -24.5t21.5 -19.5q4 -7 44 -7h19q5 0 11 0.5t13 1.5l28 2q19 0 19 -19q0 -20 -37 -20q-2 0 -10 1t-24 2
q-10 2 -17.5 1t-15.5 -2q-24 -3 -56 -3h-30h-18.5t-21.5 1q-44 3 -67 3q5 0 -10.5 -1t-51.5 -3q-29 -3 -63 0q-6 0 -18.5 9t-12.5 15q0 5 8 5l60 9q8 0 9 -4t5 -4q20 0 55 28q19 16 19 42l-8 372q-3 178 1 178q3 0 0 28q-1 15 -1.5 23.5t-1.5 13t-3 7.5t-6 8q-4 6 -5 10.5
t-3 8t-6.5 6t-16.5 5.5l-23 4q0 -4 -38 -1q-20 1 -30.5 3t-14.5 4q-5 6 -8.5 10.5t-3.5 9.5q0 19 54 22q5 1 11.5 1h14.5t17 0.5t20 1.5q8 1 17.5 2t20.5 -1l37 -3l99 -1q5 0 14.5 1t20 2t20 2t15.5 1q10 -1 18 -1.5t15 -0.5q16 0 20 -1q11 0 25.5 -1.5t31.5 -3.5
q20 -2 34 -3t21 -3q13 0 39 -9q22 -8 36 -9q26 -5 51 -19.5t44.5 -35t32.5 -45.5t16 -51q2 -23 -3.5 -47t-17 -46t-28.5 -39.5t-38 -27.5q-12 -4 -27 -14q-2 -2 -8 -3t-12.5 -2t-12 -1.5t-7.5 -2.5q-5 -6 -46 -12q-45 -8 -45 -16q0 -5 31 -21q15 -8 23.5 -12.5t10.5 -6.5
q12 -11 28.5 -23.5t21.5 -25.5q7 -23 14 -29q4 -8 9 -20t13 -30q1 -14 9 -36q1 -6 2 -10t1 -6q0 -7 2 -19.5t4 -26t4 -26t2 -20.5q0 -32 16 -39q15 -5 23 -8.5t11 -3.5q8 0 10 6q5 4 11.5 10t14.5 15q10 20 15.5 36.5t9.5 29.5q-2 30 0 71q3 23 12 23q14 0 14 -31zM511 478
q57 46 57 114q0 13 -2.5 36.5t-2.5 36.5q0 22 -25 50q-22 31 -41 31q-43 25 -43 22q0 3 -54 3q-11 0 -31 1.5t-31 1.5q-67 0 -83 -39q-4 -9 -1 -87q1 -11 1 -22.5v-22.5v-41v-70q0 -3 1 -10t2 -17q6 -11 22 -15.5t40 -4.5q6 0 26.5 2t56.5 5q72 7 72 10q14 7 22.5 11.5
t13.5 4.5z" />
    <glyph glyph-name="S" unicode="S" horiz-adv-x="612" 
d="M545 863q23 0 23 -37q-2 -22 -3 -58.5t-3 -90.5q-3 -48 -4 -85.5t-1 -65.5q0 -24 -15 -24q-19 0 -22 24q0 4 -9 39q-3 0 -17 38l-16 42q-8 13 -20 31.5t-27 43.5q-3 11 -33 32q-29 22 -40 22q-4 0 -12.5 5t-17.5 11t-18 11t-13 5q17 0 -26 6q-22 4 -36 5t-20 1
q-12 0 -15 -3q0 -1 -35 -10q-14 0 -39 -31q-38 -32 -38 -57q0 -28 5 -52t12 -42t15 -28t15 -10q3 0 9.5 -5.5t14 -11.5t14 -11.5t9.5 -5.5q18 0 55 -20q37 -19 52 -19q7 0 17.5 -3.5t21.5 -8t21.5 -9t16.5 -5.5t18.5 -5t30.5 -12q39 -14 39 -21t34 -19q34 -10 34 -15
q0 -22 29 -42q35 -27 41 -41q22 -48 22 -79q0 -85 -28 -144q0 -2 -3.5 -7t-8 -10t-9 -9t-5.5 -4q-2 0 -7 -10.5t-7 -12.5q-6 -5 -13 -10t-18 -11q-17 -8 -33.5 -16t-33.5 -16q0 -9 -50 -11q-6 -1 -12.5 -1.5t-13.5 -0.5h-27q-6 -1 -17.5 0t-29.5 5q-30 4 -36 12q-3 7 -28 19
q-13 5 -21.5 8.5t-14.5 4.5q-18 3 -53 33q-35 31 -51 31q-13 0 -26.5 -16t-18.5 -29q-1 -11 -5 -23.5t-12 -28.5q-22 -16 -27 -16q-7 0 -10 40v31q0 9 1 22.5t2.5 28t2.5 28.5t1 23q0 8 -1.5 21t-3 27.5t-2.5 28.5t-1 23q1 10 1 21.5v25.5v60q0 19 22 19q-1 0 11 -17
q1 -2 5 -12t10 -27q8 -22 12.5 -36t4.5 -22q0 -4 11 -28q5 -11 9 -17.5t6 -10.5q4 -2 7.5 -9.5t9.5 -20.5q12 -26 22 -33l20 -20t27 -29q13 -17 36 -31t57 -27q59 -24 109 -22h20q7 0 13.5 0.5t14.5 1.5q4 0 12.5 3.5t17 8t14.5 9t6 6.5q0 6 14 20q7 7 11.5 10t6.5 5.5
t3.5 6t3.5 12.5q4 19 9 19q2 6 2 10v6.5t1 7.5q2 7 2.5 11.5t1.5 7.5t1 6q-4 8 -7.5 19.5t-8.5 26.5q0 9 -5 19t-12.5 19t-16.5 16.5t-18 10.5q-3 0 -9.5 3.5t-12.5 8t-11 8.5t-5 6t-6 5t-14 6q-4 2 -7 3l-6 2q-5 1 -9 5q-1 2 -37 16q-17 8 -28 11.5t-15 3.5q-7 0 -19 4
t-24.5 9t-24 9.5t-17.5 5.5q-30 5 -35 14q-1 2 -6.5 5.5t-12 7t-13.5 6t-11 2.5q-9 0 -43 20q-34 21 -34 26q0 6 -15 20q-8 8 -11 12.5t-5 6.5q-5 7 -10.5 17.5t-12.5 25.5q-16 52 -9 112q8 64 18 71q2 0 10.5 11t15.5 18q6 7 13 14t24 29q1 2 7 5.5t13 7l13 6.5l6 3
q0 1 6 5t13.5 8t15 7.5t10.5 3.5q42 14 95 5q8 0 22 -4t19 -4q4 0 12 -1.5t16 -4t14 -5t6 -4.5q36 -17 29 -17q4 0 11.5 -4.5t15 -10t13.5 -11t8 -6.5t6.5 -6t10.5 -10.5t12.5 -10.5t12.5 -6q24 -1 33 17q2 3 3 5t2.5 7.5t2.5 15.5t3 28q8 11 14.5 21.5t21.5 10.5z" />
    <glyph glyph-name="T" unicode="T" horiz-adv-x="731" 
d="M729 838q-3 0 -3 -180q0 6 1.5 -15.5t3.5 -70.5q1 -26 2 -41t-1 -19q-1 -43 -24 -43q-24 0 -36 39q3 13 0 38q-1 11 -3.5 24.5t-8.5 31.5q-7 10 -11 30q-2 14 -3 22.5t-3 11.5q-16 44 -75 103q-26 21 -46 23q-6 0 -31 6q-18 5 -31 2h-18q-11 -3 -16 -80q-2 -42 0 -177
v-67q0 -22 0.5 -48.5t1.5 -58.5q1 -39 0 -69l-3 -69q0 -89 15.5 -124t56.5 -35q4 0 13 -1t25 -3q34 -4 34 -2q0 6 25 3q22 -2 24 -4q10 -4 13 -20q1 -30 -39 -30q-5 0 -15 1t-25 2q-27 6 -41 4q-26 5 -76 0q-7 -2 -16 -1t-22 2l-40 5q-51 -3 -152 -3q-2 0 -14.5 -1t-35.5 -2
q0 2 -5.5 4t-12 4.5t-12 5t-5.5 4.5q0 4 5 8.5t10.5 7.5t10.5 4.5t5 -0.5q0 20 21 20t56 -15q3 3 16.5 4t23.5 1q9 0 10 1q6 2 10 12q2 5 5 7t6 6t5 11t2 21q3 27 6 27q-3 0 -6 36q-1 17 -2 27.5t-1 13.5q3 58 0 103q0 23 -1 42.5t-4 39.5q-1 8 -2 18.5t1 22.5q1 5 1 10v9
q0 11 1 14q1 4 1 11q-1 11 -1.5 23.5t-0.5 26.5v63v-4q0 5 0.5 14.5t1.5 23.5q3 60 3 76q0 58 -9 58l-9 9q-11 8 -16 8q-17 0 -30.5 -1t-23.5 -2q-26 -12 -21 -12q-35 0 -92 -80q-15 -23 -23 -43.5t-8 -41.5q0 -7 -3 -19t-7 -24.5t-7.5 -24t-4.5 -18.5v-17v-12.5t-1 -15.5
q-3 -21 -30 -21q-21 0 -21 41q0 8 1 23t5 37q2 20 3.5 34.5t-0.5 25.5q-2 13 -9 186q-3 39 69 39q27 0 64 -1t88 -2q12 0 31 1t38.5 2t37 2t26.5 1h17q6 0 14 -2q11 -2 106 3q2 -1 12 -1q5 0 11 -0.5t14 -1.5q9 2 23.5 2.5t34.5 2.5q10 -2 12 -2q8 0 11 -1l56 1h30
q21 0 31 -10q7 -10 6 -10z" />
    <glyph glyph-name="U" unicode="U" horiz-adv-x="812" 
d="M643 68q-16 -9 -80 -51q0 -22 -45 -23q-19 -3 -44 0q0 -6 -20 -6q-11 0 -27.5 1t-38.5 5l-45 6q-7 0 -18 4.5t-23.5 10t-23.5 10t-18 4.5q-35 0 -75 69q-40 70 -40 107q0 -14 -1.5 -4t-3.5 45q-3 69 -3 85q0 17 1 18l2 163q0 27 -1 70t-2 103q-2 20 -2.5 32.5t-2.5 20.5
q-6 26 -24 50q-7 6 -46 9l-40 1l-17 7q-22 6 -22 24q0 28 31 28h168q20 1 58 2t92 3q7 0 33 3q10 1 18 2t14 -1q16 -2 18 -4q12 -3 14 -11q9 -21 6 -28q-1 -1 -7 -9.5t-6 -13.5q0 -4 -53 -2q-60 3 -64 0q-39 -11 -42 -89q-1 -57 0 -163q2 -51 0.5 -90.5t-3.5 -70.5
q-2 -8 1 -41t8 -93q12 -117 16 -117q3 0 41 -54q18 -28 79 -38q48 -12 92 -8q7 1 18 4t28 10q35 14 42 23q11 13 22.5 26t23.5 26q8 11 13 29t8 42q3 25 3 78v77q3 145 3 196v127q3 82 -32 105q-6 4 -16.5 7.5t-27.5 9.5q-32 11 -44 11q-6 0 -6 -5q0 -6 -34 22q-9 6 -9 13
q0 11 14 17t25 6q1 0 20.5 1.5t59.5 3.5q67 4 67 0h125q9 0 25 -3t26 -3q20 0 20 -28q0 -19 -28 -23l-40 -3q0 1 -43 -12q-12 -5 -28 -37l-15 -32q-5 0 -8 -137v-28q1 -8 1.5 -17t0.5 -18v-37v-151q0 -75 -2 -77l-7 -88q0 -5 -6.5 -16t-7.5 -15q0 -5 -10 -15
q-4 -6 -5.5 -9.5t-3 -6.5t-4 -7.5t-8.5 -13.5q-7 -8 -10 -12.5t-4 -5.5z" />
    <glyph glyph-name="V" unicode="V" horiz-adv-x="826" 
d="M858 812q11 0 -9 -14q-11 -5 -17.5 -9t-11.5 -6q-67 -22 -83 -34q-16 -13 -42 -43q-18 -30 -18 -41q0 -3 -14 -39q-13 -31 -17 -31q-11 0 -17 -9t-9 -23t-4.5 -30.5t-3.5 -30.5q-1 -20 -2 -31.5t-2 -15.5q-8 -27 -25 -27q-6 0 -15 -37q-9 -36 -13 -36q-8 0 -24 -64
q-2 -2 -5 -9t-9 -17q-9 -22 -8 -22q-11 0 -32 -91q-2 -10 -7.5 -25t-15.5 -35q-19 -36 -22 -58q-9 -48 -38 -48q-16 0 -26 22q-5 15 -10 30.5t-10 32.5q-8 0 -17 40q-7 40 -11 40q-3 0 -9 18q-2 10 -2.5 16t-1.5 10.5t-3.5 9t-6.5 10.5q-8 18 -8 20q0 18 -9 45q6 0 -20 38
q0 17 -15 50q-8 16 -11 28.5t-3 20.5l-9 12q-19 25 -27 68q-5 26 -9.5 42.5t-9 27t-8 17t-5.5 11.5q-1 10 -18 71q-12 48 -23 65q-8 13 -16 22t-15 15q-4 3 -21 7t-47 8q-49 8 -41 32q9 40 78 40h11q10 0 15 -1h23q85 -3 100 -3h48q11 0 19 -0.5t15 -1.5q14 -4 49 -1
q20 1 32 2t17 1q25 -3 25 -34q0 -16 -12 -23q-8 -4 -27.5 -5t-49.5 -1q-51 0 -51 7q-8 -11 -9 -23q0 -1 -1 -7t-2 -17q-2 -17 5.5 -34.5t15.5 -36.5q8 -21 12.5 -36t6.5 -23q1 -5 4.5 -18t8.5 -35q6 -10 17 -36l3 -29q3 -19 10 -28q1 -1 7 -29q7 -28 13 -28q11 0 23 -70
q0 -8 7.5 -19.5t9.5 -16.5l4 -27q3 -21 9 -25q2 -4 5 -9.5t8 -12.5q4 -4 15 -4q19 0 19 18q0 -2 3.5 10t11.5 38q5 0 15 34q6 17 9.5 26t3.5 11q0 -3 9 26q4 30 8 38q5 18 24 25q5 2 9 46q12 35 19 42q10 12 15 53q12 45 19 45t7 43v36q-2 18 -15 30q-6 8 -12.5 15.5
t-21.5 7.5q0 6 -31 10l-20 4t-21 3q-9 2 -16 15t-7 22q0 11 11 11l4 1.5t9 3t9.5 3t7.5 1.5q10 2 22 2h31q3 0 38 3q21 1 37 0h37q11 0 24.5 -0.5t27.5 -1.5q6 0 16 1t20 1.5t19 1.5t13 1q21 0 45 -11q2 0 4.5 -4t5 -9t4 -10t1.5 -8t-2 -3z" />
    <glyph glyph-name="W" unicode="W" horiz-adv-x="1117" 
d="M368 805q-6 0 -20.5 -6.5t-22.5 -4.5q-4 0 -10.5 2t-8.5 2q-38 0 -48 -36q-5 -20 11 -50q8 -18 12.5 -30t6.5 -17q2 -30 26 -85q23 -55 26 -83q2 -8 9 -33t20 -70q28 -85 29 -85q5 0 11 -29q8 -29 20 -29q20 -3 29 44q11 47 13 47q3 0 11 36q0 3 3.5 9.5t8 14t8 14
t3.5 9.5t2 13.5t5 27.5q0 4 14 43l11 20q1 6 2 14.5t3 19.5q0 30 10 37q4 4 11 42q5 0 5 7q0 14 -10 37l-9 25q0 13 -5 27t-13.5 26t-19.5 20t-23 10q-11 -2 -27 -0.5t-36 3.5q-3 0 -6.5 4t-7.5 9.5t-6.5 10.5t-2.5 7q1 1 3 1q9 15 16.5 20t27.5 5q98 2 188 0q10 -1 20 -1.5
t20 -0.5h40h41q27 -1 30 -20q6 -37 -26 -40q-8 -1 -16.5 -1h-16.5h-31q-29 -8 -29 -36q0 -7 5 -32q6 -26 14 -26q9 -30 22 -74.5t30 -104.5l9 -33q5 -11 10.5 -25.5t12.5 -33.5q5 -11 12 -29t16 -45q9 -41 15 -41q0 -3 14 -40q7 -19 13 -19q1 0 3.5 4.5t5.5 9.5t5.5 9.5
t5.5 4.5q1 12 18 78q4 15 9.5 40.5t13.5 63.5q2 3 5 12t9 23q5 11 7 19t3 15.5t2.5 16t5.5 20.5q6 13 8.5 20.5t4.5 11.5q0 4 2.5 11.5t6 15.5t6 15.5t2.5 12.5v15v10t1 12q3 22 0 39q-2 22 -26 41q-2 0 -7 2t-10.5 5t-10 5.5t-4.5 3.5q0 2 -23 4q-17 2 -27 2.5t-15 2.5
q-23 8 -23 29q0 4 1 8t2 9q3 10 89 12q15 2 39.5 2.5t56.5 -0.5q4 -2 13 -2h12.5t15.5 -1q36 -3 36 3l72 -5q20 -1 29 -10t9 -24q0 -32 -33 -33h-31q-47 -3 -68 -45q-2 -7 -21 -35q-5 -8 -9.5 -17t-6.5 -20q-5 -15 -8 -24.5t-4 -12.5q-4 0 -17 -39q-6 -20 -10.5 -31
t-6.5 -15q-2 -3 -4.5 -14.5t-4.5 -28.5q-4 -34 -8 -34t-17 -40q-14 -44 -18 -69q-4 -17 -11 -41.5t-20 -58.5q-11 -32 -18.5 -57.5t-9.5 -42.5t-18 -54q-16 -33 -16 -58q0 -17 -18 -42q-18 -26 -32 -26q-10 0 -14 9q-5 6 -8.5 17t-7.5 26q-1 8 -4 19.5t-6 25.5
q-19 47 -28 108q-2 7 -9 26.5t-20 51.5q-26 71 -20 71q-30 0 -30 89q0 8 -3.5 19.5t-8 23.5t-8 23t-3.5 19q0 7 -2.5 17.5t-6.5 20.5t-9.5 16.5t-11.5 6.5q-14 0 -19 -47q-1 -14 -8 -34t-18 -46q-11 -27 -18 -46.5t-8 -32.5q-3 -24 -26 -98q-7 0 -17 -42q-6 -21 -9.5 -33.5
t-3.5 -17.5q0 -7 -12 -55q-3 -11 -4.5 -20t-3.5 -15q-1 -5 -3 -11q21 0 -4 -40q-26 -42 -34 -43q-8 -5 -14 -5q-14 0 -26 34q-9 34 -14 34q3 0 -25 91q0 8 -3.5 19.5t-11.5 27.5q-8 17 -11.5 28t-3.5 18t-3.5 17t-7.5 20.5t-7.5 20t-3.5 15.5q0 21 -26 84q-10 22 -17 46
t-11 50q-2 10 -3 17.5t-2 12.5q-1 3 -1 5.5t-1 4.5q-11 0 -17 27q-8 30 -3 30l-28 87q-5 17 -14 40t-23 53q-14 20 -23 21l-32 5q-35 6 -48 6q-9 0 -9 -3q-5 1 -10 3t-12 5q-23 9 -24 16q-8 27 9 27q29 17 29 13q0 5 92 2q38 -2 64.5 -2.5t40.5 -2.5q38 -3 73 -2.5t67 5.5
q14 2 28.5 -12t14.5 -29q0 -12 -12 -12z" />
    <glyph glyph-name="X" unicode="X" horiz-adv-x="857" 
d="M438 828q11 -8 11 -14q0 -16 -57 -26q-30 -8 -46.5 -12t-20.5 -5q-3 -3 -3 -13q0 -12 16 -38q19 -30 20 -38q2 -5 7.5 -16.5t14.5 -28.5q4 -3 8 -8t7.5 -11t6 -11t4.5 -7q3 -2 9 -10t14 -22q19 -28 20 -28t13 -6q9 -7 21 -5q10 3 17 16q13 6 18 20q6 10 10 16.5t6 7.5
q3 5 8 12t10 17q1 2 4.5 6t7.5 9t7 9t3 6q0 6 11 17q11 9 12.5 21t1.5 23q0 8 3 17q0 40 -57 57q-10 0 -23.5 2t-32.5 6q-15 7 -15 18q0 13 23 22q9 3 17 5t15 1q17 -2 39.5 -3.5t49.5 0.5l91 1q6 0 16.5 1t21.5 1.5t21.5 1.5t16.5 1q77 0 77 -34q0 -8 -4 -15
q-24 -7 -51.5 -15t-58.5 -19q-30 -17 -52 -34t-34 -34q-37 -36 -37 -49q0 -6 -28 -37q-6 -6 -15.5 -17t-23.5 -26q-10 -11 -17 -19t-10 -15q-11 -21 -19 -32q-7 0 -7 -12q0 -47 38 -87q32 -34 32 -44q0 -2 3 -7.5t7 -11.5t7.5 -10.5t5.5 -4.5q-2 0 1 -4.5t8 -10.5t10 -11.5
t8 -7.5q0 -8 10 -28t33 -52q5 -6 11 -14t12 -20q2 -5 6 -14t11 -23q11 -18 29 -35t46 -32q10 -7 39 -10q16 -1 25 -2t13 -2q23 -4 22 -23q0 -6 -11 -12.5t-17 -6.5q-3 0 -3 2q0 3 -53 3q-53 2 -53 -2q0 11 -147 8q-38 -1 -65.5 -1.5t-46.5 -0.5h-37q-3 4 -5 6.5t-2 6.5
q0 13 35 18q4 -1 9 -1h11h29q6 0 16.5 6t14.5 6q17 0 17 29q0 23 -8 42q-7 8 -16 20.5t-21 30.5l-43 83q-13 22 -26.5 40.5t-28.5 32.5q-11 11 -22 11q-17 0 -37 -29q-3 -8 -10 -19.5t-17 -26.5t-15.5 -23.5t-9.5 -10.5q-7 -4 -12.5 -9.5t-10.5 -16.5q-1 -2 -4.5 -6t-7.5 -9
t-7 -9.5t-3 -6.5q0 -3 -3 -8t-6 -10.5t-6 -10.5t-3 -6q-3 -9 -3 -19q0 -6 12 -43q5 -21 32 -29q8 -4 48 -8q51 -6 51 -17q0 -6 -52 -18q-13 -4 -30 -5t-37 0q-45 3 -66 0q-42 -3 -76 -2.5t-65 4.5h-65q-9 0 -18.5 7t-9.5 16q0 4 2 7.5t9 7t20.5 7t36.5 7.5q39 9 39 12
q0 7 13 8q7 2 9.5 3.5t5 4.5t7 7t15.5 11q13 7 19 11.5t8 5.5q1 2 6.5 6.5t14.5 12.5q18 13 20 20q2 3 7.5 11t17.5 22l26 33q3 0 9 5.5t12.5 13t12 15t7.5 12.5q4 6 12 17.5t21 30.5q8 8 17.5 19.5t22.5 27.5q9 16 4 54q-2 7 -21 26q-11 0 -18.5 8.5t-14 21t-11.5 27.5
t-10 28q-5 12 -42 63q-5 7 -10.5 16t-13.5 19q-4 2 -6.5 6t-6.5 10l-9 18q-3 7 -7 15t-10 18q-3 0 -6.5 5.5t-7.5 12t-7 12t-5 5.5q-1 0 -12.5 9t-31.5 29q-10 10 -34 10h-10q-3 0 -13 -2h-23q-42 0 -42 32q0 33 83 33q28 0 82 -6q28 -4 48 -5.5t33 -1.5q11 0 11 3
q85 2 129 -1.5t52 -8.5z" />
    <glyph glyph-name="Y" unicode="Y" horiz-adv-x="758" 
d="M812 795q0 -23 -30 -24q-66 -3 -93 -39q-11 -15 -24 -29t-27 -28q-3 -1 -20 -30q-14 -30 -16 -30q-9 0 -20 -29q-12 -30 -17 -32q-6 -4 -10 -20q-1 -7 -3 -10.5t-4 -6.5t-5 -7t-6 -13q-5 -15 -8 -15q-8 0 -20 -33q-11 -30 -14 -32q-32 -17 -47 -105q-8 -32 -3 -81
q1 -32 2 -53t1 -29q0 -57 3 -57q-3 0 -3 -1q0 -5 5 -11.5t11 -11.5t11 -8t5 -2q0 -9 48 -9h26q7 0 14 0.5t14 1.5q36 -5 36 -25q0 -17 -9 -20.5t-29 -3.5q-25 0 -65 3q-17 1 -25 2t-8 -1q0 6 -57 3q-57 -2 -57 -4q0 5 -71 3q-72 -3 -79 0h-46l-7 1q-6 2 -9 2h-5v7q-2 2 -2 7
q3 6 9 9q0 35 40 35q19 0 40 -5.5t45 -18.5q34 15 42 47l3 68q1 29 0.5 68.5t-3.5 93.5q0 5 -4 12t-8.5 14t-8.5 12.5t-4 7.5q-2 13 -13 28.5t-15 23.5q-3 6 -8.5 16.5t-11.5 25.5q-5 9 -12 22.5t-15 33.5q-6 14 -18.5 34t-17.5 31q-5 13 -16 32.5t-16 32.5q-12 31 -20 34
q-12 7 -28 41q-8 19 -16 29.5t-19 13.5q-7 2 -16.5 3.5t-22.5 -0.5q-24 -2 -33 0q-17 3 -20 5t-7 11q-2 16 0 21q1 4 17 12q6 2 12 2h19q9 0 27 -3t28 -3h34h23q8 1 16 1h16h35h56q23 0 27 -1q0 -23 46 -20q44 2 44 26l11 -9q9 -12 9 -17q2 -8 -7 -15t-17 -7
q-13 0 -36.5 1.5t-36.5 1.5q-51 0 -53 -23q-1 -6 0.5 -14.5t3.5 -16.5t4 -14.5t2 -9.5q2 -4 4.5 -8.5t8.5 -11.5q12 -15 12 -20q0 -6 25 -40q1 0 12 -20q12 -21 12 -25q3 -18 25 -50q22 -30 24 -47q3 -11 19 -37q18 -26 20 -26q4 0 9 -3q4 -1 11 0q3 0 14 11q-8 0 7 18
q17 20 17 16q0 13 27 54l19.5 32.5t9.5 17.5q5 6 10.5 16t13.5 24q28 78 28 113q0 10 -6 15q-10 9 -15 17q-6 7 -8.5 11t-4.5 6q-6 7 -38 12q-25 5 -45 6q0 4 -7 9.5t-7 10.5q0 16 30 19q11 1 29.5 2t42.5 -1l71 -1q20 0 73 3q54 3 62 3q0 3 6 3q4 0 10.5 -1t14.5 -5
q21 -12 21 -25z" />
    <glyph glyph-name="Z" unicode="Z" horiz-adv-x="694" 
d="M592 660q-15 -24 -43 -57q-5 -6 -8.5 -9.5l-5.5 -5.5q-1 -6 -6.5 -16t-13.5 -24q0 -3 -4 -8.5t-9.5 -11.5t-11 -10t-7.5 -4q-5 0 -21 -31q-17 -30 -24 -34q-2 -1 -5.5 -6.5t-7 -11.5t-8 -12t-8.5 -8q-4 -3 -9.5 -8t-10.5 -10.5t-8.5 -11.5t-3.5 -10q-8 -15 -20 -31
q-6 0 -26 -29q-4 -6 -10.5 -15t-14.5 -22t-25 -35t-43 -56q-8 -11 -20.5 -28.5t-29.5 -40.5q-8 -8 -13.5 -21.5t-11.5 -21.5q-12 -14 -12 -22q0 -14 32 -14q6 0 20 1.5t20 1.5q11 0 26.5 1t38.5 3q22 1 38.5 2t27.5 1q93 0 118 20q11 5 24 15.5t30 24.5q12 5 22 18q1 6 9 15
q1 2 9 16t23 43q9 0 22 40q11 31 15 52q2 6 4 12.5t4 13.5q-2 0 -2 5q0 6 2.5 15.5t6 18t8 14.5t9.5 6q6 0 8 -6q14 -20 14 -51q0 -2 -1 -12.5t-2 -27.5q-3 -18 0 -37q8 -84 0 -188q-3 -47 -65 -47q-11 0 -32 3q-11 1 -48.5 2t-100.5 1h-143h-36h-22.5t-24.5 1h-60
q-7 0 -20 -0.5t-27.5 -1t-28.5 -1t-23 -0.5q-60 3 -60 19q0 13 28 50q6 11 13 22t18 22l18 23l14 21q13 0 34 34q22 35 27 40q8 5 13 18.5t9 16.5q21 17 26 40q3 15 31 40q27 26 32 40q2 2 8.5 13.5t20.5 31.5q2 0 7 5t10 12t9 14t5 12q2 5 9 14t14.5 19t14 19.5t8.5 16.5
q2 5 8 13t17 18q25 22 25 34q0 3 5 9.5t11.5 13.5t11.5 13.5t5 9.5q5 4 14 16t23 32q28 37 28 54q0 16 -29 18q-6 2 -43 2q-153 0 -153 -5q0 2 -3 2q-15 0 -83 -44q-11 0 -32 -30q-22 -31 -22 -42q0 -6 -3.5 -17t-11.5 -26q-14 -33 -14 -41q0 -5 -9 -51l-6 -16
q-8 -16 -12 -17q-24 -4 -27 17q-9 91 0 191q2 19 3 38t4 39q6 40 47 40h76h18q5 0 11.5 0.5t14.5 1.5h31h146h14q5 0 11.5 -0.5t14.5 -1.5h57q9 0 27 3t27 3q29 -3 56.5 -4.5t54.5 0.5q21 0 21 -17q0 -8 -3.5 -17t-11.5 -20q-15 -25 -25 -39t-14 -20q-23 -32 -43 -52z" />
    <glyph glyph-name="bracketleft" unicode="[" horiz-adv-x="275" 
d="M254 820l-22 -2l-1 -4q-2 -2 -5 -3l-9 3q-4 0 -9.5 -1t-16.5 -2l-22 -3h-3l-3 -5h-6l-3 -5l-5 -3v-6h-3l-1 -15h-2v-8h-3v-4l3 -705q0 -37 14 -46q7 -6 46 -6q17 0 48 -22q0 -21 -8 -26h-11q-6 -7 -14 -9q-15 7 -29 7h-32v2q-6 0 -18 2.5t-17 2.5v-4l-10 -1v-2
q-2 -2 -21 2l-6 -2q-6 2 -8 2h-5q-28 0 -50 -5q-2 8 1 22t3 20q0 9 -3 26t-3 26l-5 776h2v12q6 6 11 13t10 15h23h21t26 1q34 3 84 0q27 0 66 -3l4 -23z" />
    <glyph glyph-name="backslash" unicode="\" horiz-adv-x="717" 
d="M738 63q2 -5 0 -11.5t-6 -17.5q-14 -23 -40 -23q-6 0 -10 4q-3 2 -21 19.5t-52 48.5q-33 45 -70 91.5t-76 97.5q-4 4 -58 71t-162 202l-215 270q-6 6 -13 14.5t-17 19.5q-2 10 -5.5 21.5t-9.5 26.5l-2 4t-1 4q0 18 35 18q18 0 53 -26q148 -191 300 -381.5t317 -387.5
l32 -30q21 -20 21 -35z" />
    <glyph glyph-name="bracketright" unicode="]" horiz-adv-x="275" 
d="M260 46q0 -9 -3 -26t-3 -26q0 -7 3 -20q1 -13 0 -22q-17 5 -49 5h-6q-2 0 -8 -2l-6 2q-18 -4 -20 -2v2l-11 1v4q-6 0 -17 -2.5t-17 -2.5v-2h-34q-7 0 -14 -2t-15 -5q-7 2 -14 9h-9q-9 4 -9 26q31 22 49 22t30 1.5t18.5 6.5t9 15.5t2.5 28.5v45l1 664h-1v8h-3l-2 15h-1v6
l-5 3l-3 5h-8l-1 5h-5l-20 3q-5 0 -26 3l-11 -3l-3 3l-3 4l-20 2l-8 17l4 23q4 1 9 1.5t13 0.5h18.5t23.5 1q49 3 85 0q14 -1 26 -1h20h25q5 -8 10 -15t10 -13v-12h3v-8z" />
    <glyph glyph-name="asciicircum" unicode="^" horiz-adv-x="548" 
d="M586 997q0 -11 -7 -24t-17 -13q-2 0 -3.5 1t-3.5 2q-11 2 -31.5 10.5t-52.5 24.5q-17 20 -36.5 40.5t-42.5 43.5q-32 24 -72 60q-4 3 -7.5 7.5t-9.5 10.5q-11 -13 -19.5 -23.5t-15.5 -18.5q-38 -41 -63 -66q-17 -22 -43.5 -53t-61.5 -74q-8 -11 -18 -11q-11 0 -24 7
t-13 16q0 1 0.5 3t2.5 3q1 14 12 40q8 5 23 26q20 27 40.5 51t42.5 46l60 74q6 6 15 13.5t21 18.5q1 18 18 30q4 1 9.5 2t13.5 2q11 0 28 -17q5 -7 12 -13.5t12 -12.5q13 -8 32.5 -23.5t47.5 -37.5q23 -23 57.5 -54t82.5 -73q11 -5 11 -18z" />
    <glyph glyph-name="underscore" unicode="_" horiz-adv-x="388" 
d="M354 51q2 -17 -5 -29q-6 -20 -18 -20h-17q-8 -1 -16.5 -1.5t-19.5 -0.5h-47h-46h-47q-45 0 -43 -2q-10 2 -19 2q-5 0 -11 0.5t-13 1.5q-17 12 -46 23q-11 2 -11 12q0 13 12 27t25 14q6 0 17 3.5t17 3.5q9 0 26 -2.5t26 -2.5h27q8 0 18.5 0.5t21.5 1.5q22 1 39 2t28 1h11
h9t10 1q19 3 30 0q18 -2 26 -11q4 -2 16 -24z" />
    <glyph glyph-name="grave" unicode="`" horiz-adv-x="418" 
d="M448 606q-14 -24 -39 -24q-20 0 -47 10.5t-50 21.5l-1 9q-3 4 -11 -1q-21 6 -60 27q-23 13 -38.5 20t-23.5 11l-4 9q-21 11 -39 18t-33 13l-8 8q-16 0 -54 29q-35 28 -42 46q-1 2 -4.5 12.5t-8.5 30.5q6 10 18 45q8 18 42 43q19 1 30 9q11 -4 25 -8t31 -9q4 3 9 3
q11 0 32 -32l22 -8q8 -8 12 -17l12 -9l7 -14l13 -3q11 -11 23 -26t27 -35q10 -7 15 -19q13 -11 30.5 -27t40.5 -41q49 -53 58 -73q9 -7 16 -19z" />
    <glyph glyph-name="a" unicode="a" horiz-adv-x="508" 
d="M94 -11q0 -5 -48 -3q-23 2 -36 3t-20 3t-8.5 5t-1.5 8q0 19 14 30q4 2 12 5.5t22 7.5q50 17 57 44q0 6 23 48q18 54 28.5 84.5t12.5 41.5t7 25.5t13 31.5q8 19 13 32.5t7 22.5q15 29 22 47.5t7 23.5q0 9 4 22t10 25t14 20.5t17 8.5q20 0 34 -33t14 -52t17 -58
q5 -8 10.5 -19t10.5 -26q7 -44 60 -175q4 -13 10.5 -30.5t14.5 -40.5q16 -45 52 -54q37 -7 37 -26q0 -16 -26 -19h-37h-58q-43 -1 -64 0q-17 2 -32 3t-28 3q-14 4 -17.5 10.5t-3.5 9.5q0 5 11 13q2 1 9 2t20 1q27 0 34 4q14 8 14 31q-2 6 -6.5 18.5t-15.5 30.5
q-16 39 -28 42q-10 4 -24.5 5t-33.5 1q-99 0 -103 -43q-5 -45 12 -72q7 -4 18 -9.5t20.5 -11t15 -11t2.5 -10.5q0 -23 -54 -23t-54 3zM175 223q0 -13 17 -21q6 -2 11 -2q4 0 8.5 -0.5t10.5 -1.5q41 -2 55 0q1 2 3.5 6.5t4.5 13.5q3 0 3 4q0 15 -28 70q0 5 -4 11.5t-10 12
t-12.5 9.5t-10.5 4q-8 0 -12 -15q-2 -5 -4.5 -9.5t-4.5 -10.5q15 0 -4 -36q-23 -41 -23 -35z" />
    <glyph glyph-name="b" unicode="b" horiz-adv-x="508" 
d="M60 -3q-51 1 -51 20q0 12 33 20q4 1 11 2.5t18 3.5q32 9 32 109q0 19 -3 30q-2 11 -2.5 35t0.5 61q2 8 2 22v43q0 13 -3.5 41t-8.5 71q-3 19 -48 20q-45 4 -48 23q-1 28 70 28q4 0 12 -0.5t16.5 -1t15 -1t9.5 -0.5q15 -1 40.5 -2t62.5 -3q35 4 72 1t75 -11q40 -9 40 -16
q0 3 41 -26q42 -30 36 -77q-11 -71 -79 -92q-6 -2 -6 -8q0 -15 40 -40q9 -5 19.5 -13t23.5 -18q20 -23 25 -53q1 -10 2 -25t1 -37q0 -8 -7 -19t-19 -24q-13 -13 -23.5 -20.5t-18.5 -8.5q-14 -6 -35 -12.5t-50 -12.5q-9 0 -63 -3q-26 -1 -38 -2t-14 1q0 -4 -71 -4h-46h-19.5
t-17.5 -1h-26zM202 392q-3 -46 1 -61q7 -36 39 -45q14 -6 63 11q10 4 21.5 9t22 12t18.5 16.5t10 22.5q1 20 -5.5 43t-11.5 37q-1 4 -7 8.5t-13 9t-12.5 8.5t-5.5 6q0 6 -40 6h-47q-24 3 -32 -30v-28v-13t-1 -12zM265 260q-48 0 -56 -8q-7 -7 -7 -58q0 -97 12 -142
q6 -21 66 -21q9 0 16.5 1t12.5 5q10 5 16 8.5t9 5.5q8 2 18.5 8t24.5 15q11 18 21 64q3 16 -4 37q-6 23 -10.5 34.5t-6.5 13.5q-5 7 -17.5 14t-28.5 12t-33.5 8t-32.5 3z" />
    <glyph glyph-name="c" unicode="c" horiz-adv-x="491" 
d="M478 152q-3 -24 -12 -46t-23 -44q-34 -51 -75 -59q-83 -23 -114 -18q-15 2 -29.5 4t-29.5 3q-17 4 -30.5 9t-22.5 13q-80 62 -80 72q-3 3 -8 12l-6 13q-6 3 -12.5 12.5t-12 21.5t-8.5 24.5t-3 21.5q0 5 -3.5 18.5t-3.5 21.5q0 13 3 36t3 36q0 38 35 97q74 122 171 140
q26 6 52.5 4t50.5 -10q3 0 37 -19q34 -18 48 -18q9 0 26 26q9 17 18 17q26 0 26 -38q0 -8 -1.5 -22.5t-1.5 -22.5q0 -7 -0.5 -18.5t-1 -23.5t-1 -23t-0.5 -17q0 -5 -1 -15.5t-3 -27.5q-5 -38 -14 -38q-2 0 -5.5 4t-6.5 10t-6 11.5t-4 8.5q0 8 -7.5 20t-7.5 18q0 7 -4.5 18
t-11 21.5t-14 19t-13.5 10.5q-68 53 -85 53q-3 0 -3 -2q0 5 -12 5q-8 0 -21.5 -1.5t-21.5 -1.5q-5 0 -11.5 -3t-13 -7t-12.5 -7t-9 -3q-6 -6 -11 -13t-11 -15q0 -3 -14 -26q-13 -22 -15 -22q-26 0 -40 -41q-7 -21 -9.5 -41.5t1.5 -40.5q7 -43 34 -43l18 -95q3 -18 50 -65
q24 -25 95 -38q27 -5 58 10q13 8 26.5 15t26.5 15q37 19 46 77q12 67 23 67q4 0 8 -7t6.5 -16.5t3.5 -20t0 -16.5z" />
    <glyph glyph-name="d" unicode="d" horiz-adv-x="497" 
d="M523 334q0 -7 1.5 -18t3 -22.5t3 -22t1.5 -17.5q0 -34 -12 -77q-12 -47 -31 -72l-15 -16q-12 -11 -12 -17q0 -14 -36 -30q-34 -16 -37 -24q-2 -5 -27 -12q-12 -3 -20 -4.5t-16 -2.5t-17.5 -2t-25.5 -3q-26 -3 -40 -3q-17 0 -29 3q-11 2 -31 0q-23 -3 -32 -3
q-101 -3 -105 -2q-5 0 -11.5 1t-9.5 2q-15 3 -19 16q-8 12 11 20q12 6 26 6q37 1 43 46q2 6 2 23v51v189v7v5.5t1 7.5v31q0 73 -26 78q-11 2 -23.5 4t-27.5 6q-14 6 -14 13q0 12 30 23q9 4 26 4l26 -4h14q4 1 7 1.5t6 0.5h11h39h74q66 -3 66 -8q4 3 29 0q11 -1 28 -5.5
t40 -15.5q1 -2 14.5 -11t37.5 -29l25 -25q17 -20 21 -20q3 0 17 -32q14 -36 14 -40zM429 285q-1 5 -5 29t-12 64q-11 26 -19 40t-11 17q-4 4 -15.5 10.5t-34.5 14.5q-43 18 -43 15q0 3 -12 3q-41 0 -57 -3q-33 -6 -35 -35q-2 -8 -2 -15v-10t-1 -10q-3 -45 0 -131
q1 -51 2 -83.5t1 -47.5q-2 -35 -0.5 -54t3.5 -24q13 -31 55 -31q13 0 34.5 3t34.5 3q2 0 48 17q8 8 17 16t17 16q7 4 12.5 18t8.5 41q4 8 6.5 19.5t6.5 26.5q-2 22 -1 44t2 47z" />
    <glyph glyph-name="e" unicode="e" horiz-adv-x="534" 
d="M300 315q7 5 15 26t16 59q22 0 26.5 -8t4.5 -32v-17q1 -5 1 -15v-11v-43q0 -28 -1 -54.5t-5 -53.5q-2 -14 -9 -17q-13 -1 -17 8q-1 1 -1 2t-1 3q-2 4 -6 15q-15 43 -37 60.5t-64 16.5q-24 -3 -24 -77q0 -76 7 -94q15 -48 69 -48h11q6 2 9 2h8h26q50 -3 104 48
q42 39 42 72q2 7 3.5 16.5t4 18.5t7.5 16t14 9q8 0 11 -15q6 -50 1 -90q-2 -11 0 -47q3 -52 -23 -63q-14 -8 -78 -8q-24 0 -49.5 1t-52.5 3q-47 6 -47 4q0 -5 -119 -5q-121 0 -135 8q-8 5 -8 9t7 9t16 8.5t18 6t14 2.5q30 -3 30 2q26 23 18 23q8 0 8 61v72v233q0 49 -42 49
h-6q-1 0 -9 -2h-14q-41 0 -41 31q0 16 20 16q1 0 36 3q18 1 37 -2q17 -2 53 0q18 2 32 2.5t22 -0.5q24 -3 80 0q28 1 81 0h75q46 -7 51 -40v-32q0 -10 0.5 -21.5t1.5 -25.5q1 -91 -11 -91q-10 0 -35 70q12 0 -22 40q0 21 -43 37q-6 2 -14.5 5t-19.5 7q-66 11 -121 -2
q-25 -4 -25 -80q0 -7 1.5 -19.5t3 -26t3 -26t1.5 -20.5q8 -11 31 -14q16 -1 60 26z" />
    <glyph glyph-name="f" unicode="f" horiz-adv-x="528" 
d="M494 305q-12 0 -28 13q-16 14 -4 14l-14 46q-18 0 -30 50q0 3 -5.5 8.5t-18.5 11.5q-23 11 -23 17t-49 7q-44 3 -64 0q-41 -5 -41 -29q0 5 -1 -12.5t-2 -55.5q-3 -21 1 -21q-1 -1 -1 -9q0 -49 24 -56q8 -1 19 0t22.5 4.5t20.5 8.5t14 12q9 12 14 40q3 5 5 15t4.5 18.5
t6 13t8.5 -0.5q14 -5 16.5 -11.5t2.5 -23.5q1 -25 2.5 -60.5t3.5 -86.5v-43q-3 -7 -4 -16t-2.5 -16.5t-5 -12t-10.5 -2.5q-12 0 -15 1q-11 4 -15 42q0 5 -3.5 17t-9.5 30q-2 0 -7 3.5t-11 8t-11.5 9t-7.5 6.5q-3 3 -23 3q-34 0 -34 -14q0 -6 -3 -20t-3 -20q-1 -11 -1 -19.5
v-15.5v-19q0 -28 2 -45.5t6.5 -28t12.5 -15.5t20 -8q3 0 45 -3q5 -1 9.5 -1.5t7.5 -0.5q7 0 8 -1q9 -3 13 -15q10 -36 -43 -36q-7 0 -17.5 1t-22 2.5t-22.5 3t-18 1.5h-25q-8 0 -18.5 -0.5t-23.5 -1.5q-11 -1 -21.5 -1h-18.5h-30q-5 1 -11 1h-11h-22q-29 3 -34 20
q-5 14 5 22.5t24 8.5h63q21 3 23 62v42q0 18 0.5 42.5t1.5 56.5q2 119 -2 119q5 0 -1 69q-1 6 -1.5 10t-2.5 6.5t-6 5t-13 6.5q-23 11 -23 7q0 6 -25 5l-25 -2q-11 10 -13 8q-4 9 -4 17q0 17 17 20q20 4 43.5 5t52.5 1q28 0 84 -3q58 -3 87 -3q8 0 20.5 1t26 2t26 2t20.5 1
q13 0 24 -1t19 -5q8 0 23.5 2.5t23.5 2.5q16 0 26 -7q13 -10 15 -40l-1 7v-5v-43v-28v-7q0 -6 1 -10v-11q0 -13 -3 -35q-8 -38 -9 -38z" />
    <glyph glyph-name="g" unicode="g" horiz-adv-x="486" 
d="M437 306q0 -4 -3 -4q-14 0 -31 29q-16 31 -9 31q-3 0 -22 33q-11 17 -16.5 26.5t-9.5 10.5t-28 36q0 2 -4.5 4.5t-10 5.5t-10 6t-4.5 5q0 6 -77 6q-17 0 -18 -1q-7 -7 -17 -11q-8 -5 -11.5 -7t-5.5 -4q-11 -13 -21 -25.5t-18 -26.5t-13 -30.5t-5 -37.5l-6 -46
q-2 -23 -3.5 -40t-1.5 -28q0 -6 1.5 -16.5t4 -21.5t4.5 -21t3 -14q1 -15 2 -25t2 -14q2 -3 5 -11t9 -21q4 -8 5 -12.5t1 -6.5q0 -12 20 -23l19 -14q0 -15 49 -16q41 -3 52 0q74 10 79 78q0 9 3.5 29t3.5 33q0 38 -27 44q-32 7 -53 14l-6 5q-7 4 -7 12q0 13 41 11h6q4 1 15 1
h21q38 0 38 -3q60 5 62 3h40q27 0 33 -12q4 -4 4 -6q0 -8 -31 -17q-30 -7 -33 -14q-9 -26 -9 -60v-57v-9q0 -2 0.5 -4.5t1.5 -6.5v-23q0 -40 -28 -40q-4 0 -18 20q-16 22 -23 17q-29 -15 -48.5 -25t-27.5 -14q-45 -16 -84 -16l-47 6q-37 0 -37 20q-9 5 -16.5 7.5t-10.5 2.5
q-6 6 -15 13t-22 18q-26 12 -42 54q-4 12 -21 35q15 0 15 17q0 13 -9 39q-14 37 -21 57.5t-7 23.5q0 47 11 47q3 0 11 33q9 35 17 40q8 6 21 28q7 13 12.5 20t10.5 11q12 8 36 37q14 9 29 21q8 8 55 17q20 4 34.5 5t25.5 1q22 0 22 -6q11 -5 69 -38h31q6 2 20 23
q15 19 15 14q0 4 3 4q12 0 22 -10q9 0 9 -85q0 -51 -1 -83.5t-5 -47.5z" />
    <glyph glyph-name="h" unicode="h" horiz-adv-x="717" 
d="M34 6q-22 7 -22 17q0 11 33 22q25 6 43 6t18 -8q0 1 4.5 6t9.5 11.5t9.5 13.5t4.5 11q1 2 1 15q0 6 0.5 14t1.5 18q1 69 2 134t-1 128q0 42 -10 78q-2 6 -3 6q-30 13 -42 13q-5 0 -5 -3t-29 0q-26 1 -34 6q-7 3 -10 7.5t-3 7.5q0 23 40 23q1 3 70 0q60 0 60 3q0 -4 60 -4
h60q11 0 22.5 -1t23.5 -2q5 -2 5 -8q0 -25 -37 -28q-5 -1 -15 -1h-11q-11 -2 -17.5 -2.5t-10.5 -2.5q-15 -5 -20 -17q-1 -5 -2.5 -25t-3.5 -52q-1 -51 11 -74q16 -25 68 -20q64 6 64 2q0 3 8 3t22.5 -3t22.5 -3h32q26 0 37 21q4 12 4 48q0 124 -32 126q-38 3 -74 3
q-5 0 -11 6.5t-6 12.5q0 10 17 12h11q5 0 11 2q39 6 204 6h31q10 1 16.5 1h10.5h2q33 0 33 -21q0 -15 -13.5 -23t-28.5 -6q-1 1 -15 1h-37q-8 -2 -17 -9q-9 -17 -9 -46q4 -33 3 -93q-2 -10 -3.5 -29.5t0.5 -48.5q0 -24 1 -66.5t5 -105.5q2 -23 23 -33q6 -2 17 -2h24h25
q11 0 17 -2q20 -8 20 -26q0 -10 -14 -13q-17 -3 -34.5 -4.5t-34.5 0.5q-48 1 -132 6q-6 0 -16 -0.5l-20 -1t-19 -1t-13 -0.5q-66 0 -66 17t41 17h19q6 -2 10 -2h8q39 0 42 19q16 114 1 190q-2 20 -55 20q-13 0 -30 -1t-39 -5q-6 -1 -16 -0.5t-24 2.5q-17 1 -27 2t-15 1
q-36 0 -46.5 -14t-10.5 -48v-38q-1 -12 -2 -23l-2 -22q-2 -14 0 -24.5t6 -18.5q23 -45 94 -40q23 3 23 -12q0 -20 -28 -20h-52q-29 0 -59 -1t-61 -2q-5 0 -15.5 -1.5t-22.5 -3t-23.5 -2.5t-18.5 -1q-22 0 -34 6z" />
    <glyph glyph-name="i" unicode="i" horiz-adv-x="335" 
d="M15 498q-10 3 -10 8q0 4 4 9t10 9.5t12 7.5t11 3q4 0 4 -3q34 3 48 0q8 -1 18 -1.5t21 -0.5t25 1t30 3q61 6 90 6h27q14 -3 17 -14q1 -6 0 -12q-2 -6 -2 -7q0 -5 -2.5 -7.5t-15.5 -7.5l-28 -1q-7 -1 -12.5 -1.5t-9.5 -0.5q-8 0 -9 -1q-22 -9 -25 -48q-2 -3 0 -60
q2 -32 3 -63t2 -65v-89q0 -80 8 -80l6 -8l8 -7l26 -4l26 -4q37 -7 37 -23q0 -6 -5 -11q-17 -18 -37 -18q-4 0 -7 1q-2 1 -8 1t-11 1q-16 1 -28 0q-61 0 -61 -3q0 7 -48 4q-10 -1 -18 -1h-15q-11 0 -19 -2h-2q-58 3 -58 23q0 8 6.5 14t14.5 5q8 -2 23 -0.5t37 4.5q0 2 8 7
t9 10q4 11 6.5 25.5t4.5 34.5q2 8 1 18.5t-2 24.5l-7 40q0 17 1 43.5t3 64.5q1 38 2 64.5t1 43.5q0 7 -3 17.5t-8.5 20.5t-12 16.5t-13.5 6.5q-17 2 -35 3t-38 3z" />
    <glyph glyph-name="j" unicode="j" horiz-adv-x="489" 
d="M12 58q-15 16 -15 91q0 2 1.5 8l3 12t3.5 11t4 5t14 9q11 9 18 10.5t17 3.5q13 1 22 0q4 -2 11.5 -9t20.5 -17q10 -7 10 -24q0 -14 -14 -40q-6 -8 -12 -16.5t-11 -16.5q-3 -8 -3 -16q0 -34 69 -38q18 -3 44 9q4 1 8 6.5t8 11.5t7.5 11.5t6.5 7.5q17 11 20 46v52
q1 11 1 25.5v31.5v82q-1 10 -1 23.5v30.5v86q0 17 -19.5 27t-39.5 10h-52q-19 0 -20 1q-13 0 -24.5 8.5t-11.5 21.5q0 12 17 15q23 7 70 1q16 -1 37.5 -2t48.5 1l86 3h56q18 0 24 2q15 4 32 4q27 0 33 -17q1 -2 1 -7v-5q0 -28 -52 -28q-10 0 -29 2.5t-28 2.5q-37 0 -37 -80
t9 -234q3 -35 -17 -82q0 -2 -4 -7.5t-9 -12.5t-9 -13.5t-4 -10.5q0 -13 -38 -36t-51 -23h-17h-10.5t-12.5 -1q-10 -1 -16.5 -1.5t-11.5 -0.5h-8q-5 -2 -26 3l-27 5q-18 0 -40 25z" />
    <glyph glyph-name="k" unicode="k" horiz-adv-x="608" 
d="M498 138q3 -3 8.5 -13t16.5 -27q28 -33 42 -33q4 0 10.5 -2t14 -5t13.5 -5t9 -2q19 -3 19 -17q0 -8 -5.5 -17t-5.5 -11q-3 -1 -65 -1q-65 -3 -72 0q-34 -2 -54.5 -2.5t-30.5 0.5q-66 3 -61 29q2 12 28 14h35q22 3 22 19q0 9 -7 26q-2 13 -27 51q-26 36 -34 36
q-15 0 -28 27q-5 10 -9 21.5t-8 22.5q-22 31 -32 31q-12 0 -12 6q2 2 5 8t11.5 17.5t25 28t44.5 38.5q15 12 24.5 20.5t15.5 13.5q21 21 21 43q0 11 -6 22q-55 37 -55 49q0 5 12 8q38 5 95 3q72 -3 96 0q48 1 48 -26q0 -14 -34 -23q-39 -9 -42 -16q-6 -11 -21 -20
q-11 -5 -15.5 -7t-6.5 -3q-27 -16 -108 -79q-17 -14 -12 -25q6 -10 16 -26t23 -37q3 -2 20 -27q7 -12 12 -17.5t9 -7.5q9 -1 26 -43q19 -42 29 -42zM263 285q3 0 2 -7q-3 -5 -8 -3q-2 2 -3 2l-2 1q0 7 11 7zM206 269q3 -4 19 -1l23 4q9 0 -2 -14q-24 -30 -31 -35
q-8 -8 -20 -78q-5 -16 10 -62q0 -4 7.5 -12t7.5 -9q0 -10 40 -14q40 -3 40 -26q0 -16 -55 -19h-32h-19.5t-22.5 -1q-15 -5 -60 -2q-7 1 -13 1.5t-11 0.5h-19q-13 -1 -21.5 -1.5t-13.5 -0.5q-11 0 -5 -2q-36 7 -36 30q0 24 34 24q8 0 23.5 -2t21.5 -2q31 -3 34 44q1 5 1 12
v15v39q0 2 1 23t2 64q1 11 1.5 22t0.5 22v42q-1 8 -1.5 18.5t-0.5 22.5v57v28q14 0 -20 34q-1 -1 -8 -1q-6 0 -13.5 0.5t-14.5 0.5h-8q-35 -3 -51 15q-5 5 -5 8q0 12 40 18q17 4 29 5t19 1q106 0 121 -4q4 -2 12.5 -1t23.5 2q15 2 24 3.5t13 1.5q20 0 23 -8q12 -21 12 -24
q0 -17 -66 -17q-46 0 -46 -113q0 -70 12 -109z" />
    <glyph glyph-name="l" unicode="l" horiz-adv-x="549" 
d="M11 502q-8 5 -8 10q0 17 26 23h40q7 0 18 -0.5t23 -1.5t23 -1.5t18 -0.5q8 0 34 3q9 1 17 2t16 -1q8 -1 14.5 -1h11.5h11q60 5 67 -14q1 -3 1 -11q0 -21 -60 -21q-43 0 -49 -37q-2 -4 -0.5 -47.5t3.5 -128.5v-58q0 -22 -0.5 -52.5t-1.5 -69.5q-6 0 28 -37q5 -5 20 -7
t28 -2h41q13 -2 27 -0.5t26.5 4.5t23.5 6.5t17 6.5q10 4 26.5 16.5t22.5 22.5q30 50 25 50q10 0 15 80q2 0 6 11t10 11q5 0 11.5 -5.5t8.5 -5.5q3 0 3 -49v-29q1 -5 1 -9.5v-8.5v-12v-44q0 -8 1.5 -22t1.5 -20q0 -3 -2 -11t-5 -19q-7 -10 -54 -13q-40 -3 -77.5 -2.5
t-74.5 4.5q-15 1 -29 0.5t-28 -2.5q-6 2 -16.5 -2.5t-14.5 -3.5q-11 2 -26.5 2.5t-38.5 -0.5q-22 -2 -37.5 -1t-26.5 2q-13 -1 -29 -2t-36 -1q-6 0 -14.5 2t-16 5.5t-13 8.5t-5.5 10q0 19 28 19q5 0 16.5 -1.5t16.5 -1.5q51 0 51 95q0 8 -0.5 19.5t-1.5 23.5t-1.5 23
t-0.5 17q-1 17 -1.5 36.5t-0.5 42.5v103q0 18 -1 30t-2 17q-4 25 -25 33q-3 1 -13.5 3t-29.5 4q-25 3 -38 10z" />
    <glyph glyph-name="m" unicode="m" horiz-adv-x="758" 
d="M760 506q-3 -23 -40 -23q-9 0 -26 2.5t-25 2.5q-27 0 -34 -39v-57v-64q0 -19 0.5 -41.5t1.5 -48.5t1 -48v-41v-63q0 -36 84 -40l29 -1l6 -13q8 -11 8 -17q0 -4 -27 -20q-6 -2 -36 0q-54 3 -45 3q-7 -1 -23 -0.5t-42 2.5q-25 -3 -74 0q-9 2 -25 2.5t-41 2.5q-23 2 -23 20
q0 14 56 17q14 1 20.5 2t8.5 2q5 9 11 18.5t6 15.5q2 35 3 96.5t3 152.5q0 2 -1 21t-2 55q3 0 -5 23q-5 23 -7 23q-5 0 -13 -23q-2 -15 -18 -46q-17 -32 -17 -48l-14 -42q-5 -13 -11.5 -32t-16.5 -43q-15 -7 -23 -45q0 -3 -2 -13q-2 -7 -3.5 -16t-3.5 -23q-2 -4 -8.5 -25
l-19.5 -63q-2 0 -4.5 -6t-6 -12.5t-8 -12.5t-8.5 -6q-5 0 -11 7q-17 10 -31 76q-2 10 -15 39q-11 22 -11 38q0 5 -3 13.5t-7 17.5t-7 16t-3 10q0 4 -2 10t-5 12t-5 10.5t-2 6.5q0 11 -15 40q-8 14 -11 24t-5 16q-11 25 -27 81q-2 4 -8 11.5t-19 18.5l-4 -108
q-3 -107 -3 -165q0 -75 6 -75q-4 0 23 -32q6 -8 42 -16q27 -2 27 -21q0 -28 -34 -25h-60q-3 0 -11.5 1t-23.5 2q-26 3 -34 0q-5 -1 -11.5 -2t-17.5 1q-5 1 -9.5 1h-8.5h-10q-11 -1 -23 3.5t-12 13.5t31 15q41 8 50 17q19 15 27 42q5 24 7.5 69.5t4.5 111.5q0 36 -1.5 77
t-3.5 86q-2 30 -41 40l-62 10q-18 6 -18 21q0 26 37 26q9 0 25.5 -2t24.5 -2q4 0 24.5 -1t58.5 -2q11 -1 21.5 -1.5t18.5 -0.5h31q0 18 20 -14q20 -31 20 -50q0 -2 -1 -2q7 0 14 -43q9 -42 13 -42t16 -35q5 -17 8.5 -29.5t3.5 -19.5q2 -6 6.5 -23t13.5 -45q9 -12 25 -28
q1 -1 4 -1q4 0 9 4t9.5 9.5t8 12t3.5 11.5q4 17 19 63t47 138q18 0 18 48t49 49l147 5q5 0 18.5 1.5t19.5 1.5q43 0 40 -31z" />
    <glyph glyph-name="n" unicode="n" horiz-adv-x="688" 
d="M463 200q2 -5 12 -8q5 0 8.5 1t5.5 2q15 13 9 51q-1 5 -1 12v15t-0.5 18.5t-1.5 22.5q-2 104 -10 104l-4 6t-9.5 12.5t-11 12.5t-9.5 6q-4 2 -12 4t-21 7l-10.5 3.5t-8.5 3.5q-6 2 -7 2q-5 1 -10.5 2t-10.5 3l-16 4t-10 4q-5 2 -5 9q0 8 9 16.5t17 8.5q122 0 157 3h72
q61 -3 68 -10q9 -6 9 -13q0 -15 -41 -27q-35 -9 -46 -9q-25 0 -40 -35q-6 -14 -9.5 -28t-4.5 -29q-1 -16 -1.5 -34t-0.5 -38q0 -39 3 -84q-1 -15 -0.5 -36.5t2.5 -49.5q0 -11 1 -28t3 -39q4 -22 4 -37t-2 -25q-9 -20 -29 -20q-17 0 -23 14q-6 8 -12.5 18.5t-13.5 24.5
q-3 9 -9.5 20.5t-17.5 24.5q-15 17 -23 27.5t-10 12.5q-13 20 -29 40t-35 43q-22 31 -48.5 65t-58.5 72q-28 19 -28 30q0 3 -6 3q-9 0 -10.5 -9t-1.5 -18q-3 -19 0 -20q3 0 3 -17v-5q0 -4 -0.5 -10.5t-1.5 -16.5v-19q0 -7 -0.5 -17.5t-1 -22t-1 -22.5t-0.5 -18
q0 -113 63 -129q5 0 20 -6t26 -6q38 0 42 -16q1 -2 1 -7v-5q0 -25 -37 -25q-8 0 -24 2.5t-25 2.5q-6 0 -6 -3h-192q-34 4 -34 23q0 23 57 26q31 8 40 14q17 12 21 14q16 6 20 34q5 31 7.5 61t3.5 59v84v83q0 28 -26 63q-14 17 -112 23l-14 13q-3 1 -3 6t7.5 14.5t7.5 11.5
h62h13q5 0 12.5 0.5t17.5 1.5h58q51 0 51 -30q2 -1 12 -15t33 -40q7 -11 19.5 -28.5t29.5 -40.5q6 0 20 -23q7 -11 11 -18t6 -9q2 0 5.5 -5.5t8 -12t9.5 -12t9 -5.5q2 0 4.5 -5t5 -11t5 -11.5t4.5 -6.5q32 -22 41 -49z" />
    <glyph glyph-name="o" unicode="o" horiz-adv-x="458" 
d="M-3 217q-2 8 -2 15v22q-2 89 14 89q2 5 5 17t11 32q1 8 23 39q7 9 18 21.5t26 29.5q16 13 20 13q-19 0 23 17q43 17 48 17q-6 0 10 1.5t53 3.5q35 2 65 -3q4 -1 11 -5t15 -8.5t15.5 -8t12.5 -3.5t12 -9t12 -9q4 0 16 -17q5 -8 8.5 -12.5t4.5 -6.5q2 -1 6 -5.5t10 -15.5
q14 -20 15 -20q9 0 34 -76q5 0 8 -61q2 -62 0 -62l-11 -44q-12 -45 -23 -45q-30 -43 -40 -63q-4 -6 -15 -17.5t-17 -11.5q-3 0 -8 -3.5t-10 -8t-9.5 -8t-6.5 -3.5t-8.5 -2t-14 -5t-15 -5t-11.5 -2q-11 0 -31 -5.5t-31 -5.5q-6 0 -31 6q-10 2 -17 2.5t-14 2t-15 4.5t-20 10
t-19 10t-11.5 4.5t-8.5 4.5t-9 10q-5 5 -14 11.5t-19 17.5q-6 6 -18 29t-32 62q-15 31 -15 58v2zM98 252q-1 -48 7.5 -89t27 -71.5t46.5 -48t66 -17.5q42 0 89 34q36 25 38 51q2 8 4 21.5t6 33.5q9 39 9 59q0 7 -3 7q3 0 3 19q0 20 -2 44t-6 54q-6 38 -11.5 60.5t-13.5 30.5
q-9 8 -18 17t-18 20q-3 0 -11 3.5t-23 8.5q0 8 -33 8q-35 0 -53 -9q-11 -6 -19 -6q-21 0 -45 -34q-23 -35 -23 -54q0 -1 -10 -42q-2 -11 -3.5 -36.5t-3.5 -63.5z" />
    <glyph glyph-name="p" unicode="p" horiz-adv-x="518" 
d="M22 491q-16 6 -16 15q0 13 29 25q15 4 34 3q32 -3 34 -2q14 0 55 -1t113 -3q35 -1 61.5 -2t43.5 -2q10 -1 18.5 -1h16.5q4 -2 8.5 -4t9.5 -4q9 -4 23.5 -9.5t33.5 -13.5q15 0 29 -29q8 -14 16.5 -29t8.5 -28t-2.5 -28t-8.5 -33q-5 -23 -13 -34.5t-16 -15.5
q-2 0 -7.5 -3.5t-12 -8t-13 -8t-10.5 -3.5q-51 -14 -128 -27h-35q-10 0 -22 -0.5t-26 -1.5q-29 0 -29 -118q0 -37 15 -53q2 -2 9 -5.5t14.5 -7t14.5 -6t10 -2.5q4 0 4 2t5 2t14.5 -2t18.5 -5.5t16.5 -7.5t9.5 -8q10 -30 -80 -30l-57 3q-25 1 -45.5 1.5t-36.5 0.5
q-34 0 -49 -4q-35 -8 -60 6q-11 8 -11 16q0 5 4.5 9.5t11 7.5t14 4.5t12.5 1.5q55 -3 72 21q7 7 5 69v117q0 5 0.5 14.5t1.5 20t1.5 21t0.5 17.5v10t-1 11q-1 5 -1 11.5v14.5v17t-1 20v17v16q0 5 -6 15t-6 15q0 7 -45 10q-22 2 -34.5 3t-15.5 3zM217 415q-1 -21 -1.5 -36
t-0.5 -23v-10q2 -20 5.5 -36t11.5 -27q7 -9 28 -9q7 0 17.5 1.5t22 4t21 4t14.5 1.5q14 1 30.5 5.5t36.5 14.5q9 5 20 32q5 14 8.5 23.5t3.5 14.5t-3 5q4 0 4 6t-2.5 16.5t-7 21t-9.5 19t-10 9.5q-3 5 -9 10.5t-17 11.5q-15 2 -31 9q0 5 -46 5h-34q-12 0 -18 -2
q-33 -4 -34 -71z" />
    <glyph glyph-name="q" unicode="q" horiz-adv-x="551" 
d="M22 243q0 80 3 80q-16 0 3 34q18 35 23 35q-12 0 7 28q10 11 16.5 19t11.5 12q18 14 45 44q9 8 23 15.5t32 15.5q39 18 39 16q0 7 20 7q16 0 39 -3.5t54 -11.5q34 -5 73 -43q5 -6 13 -13.5t19 -15.5q3 -3 9 -16l10 -15q8 0 20 -34q11 -34 16 -40q8 -6 9 -25.5t2 -36.5
q3 -30 3 -55q0 -65 -20 -74q-1 0 -3 -6.5t-4.5 -15t-5 -15t-4.5 -6.5q-7 -9 -14 -19.5t-15 -21.5q-2 -8 -40 -31q-9 -8 -9 -22q0 -19 11 -35q20 -32 43 -32q5 0 14 -4q8 -2 10 0q5 1 13 11q5 8 10 17.5t8 22.5q2 5 5.5 13t8.5 20q5 11 14 9q16 -3 18 -36q3 -32 -27 -93
q-3 -8 -11.5 -16.5t-19 -16t-20.5 -12.5t-17 -5q-2 0 -9 -2t-20 -5q1 1 -39 1q-5 0 -11 3t-12 7t-11 7t-7 3q-32 14 -39 49q-11 43 -20 53q-13 2 -25.5 4t-26.5 3q-51 7 -51 16q-8 3 -16 8t-18 10q-1 2 -30 19q-27 16 -27 30q0 3 -3.5 7.5t-8 9.5t-8 9.5t-3.5 7.5t-4 9.5
t-9.5 13t-9.5 12.5t-4 8q-23 66 -23 88zM131 323q-4 -118 9 -169q2 -5 4.5 -12.5t4.5 -15t5 -13.5t6 -7q5 0 13.5 5t17 11.5t15.5 14t9 12.5q8 11 30 11q49 0 83 -31q25 -31 34 -31q18 0 26 33q11 42 15.5 78t4.5 69q0 14 -3.5 32.5t-9.5 40.5q-5 22 -8.5 37t-3.5 23
q0 7 -8 18q-5 8 -8.5 12.5t-3.5 6.5q-8 5 -17.5 14t-20.5 20q-2 2 -11.5 5.5t-25.5 9.5q0 3 -13 3q-53 0 -64 -11q-12 -11 -24.5 -20.5t-24.5 -19.5q-5 -2 -14 -31q-8 -27 -8 -35q0 -5 -1.5 -13t-3 -17t-3 -17.5t-1.5 -12.5zM292 60q5 19 -8 32.5t-33 16.5q-17 5 -26 -37
q-3 0 12 -15q17 -17 17 -12q0 -5 6 -5q9 0 20 6t12 14z" />
    <glyph glyph-name="r" unicode="r" horiz-adv-x="526" 
d="M-9 31q0 8 24 11q19 1 45 6q2 0 8 7t7 7q7 0 10 40q0 9 3 44q1 14 2 25.5t1 19.5q0 9 -1.5 24t-3 31t-2.5 31.5t-1 24.5q0 8 -3 103v9q0 4 0.5 9t1.5 12q1 6 -3 18.5t-4 17.5q0 21 -38 21q-44 3 -49 14q-2 6 -2 9q0 19 37 19q11 0 55 -6q-12 0 56 3q42 1 46 0q0 -2 48 -5
q17 -1 31 -1h25t19.5 -0.5t13.5 -1.5q34 -4 53.5 -9.5t24.5 -16.5q2 -4 12 -9.5t28 -15.5q13 -5 23.5 -19.5t10.5 -27.5q0 -8 -1 -22t-5 -34q-1 -8 -11 -18.5t-14 -16.5q-6 -16 -93 -37q-16 -3 -16 -9q0 -5 20 -16q24 -11 25 -12q18 -19 27.5 -32.5t9.5 -24.5q26 -41 20 -41
q3 0 14 -54q10 -28 27 -28q5 0 13 6q2 1 4.5 6t5 11t4 12t1.5 8t-3 3.5t-3 7.5q0 4 2 11.5t5.5 14.5t7.5 12t8 5q2 0 5 -11q1 -5 1 -10.5v-10.5v-19q0 -78 -29 -98q-43 -31 -54 -31q-4 0 -11 3q-14 4 -30.5 8t-20.5 14q-2 5 -18 26q-10 16 -11 29q0 48 -3 111q-2 51 -26 67
q-5 5 -21 12q-4 2 -7 3t-5 2q-5 2 -5 4t-17 2q-52 0 -70 -11t-18 -38v-43v-55v-21.5t1 -17.5q3 -18 16 -32q0 -1 5 -2.5t11 -3.5q3 -1 5.5 -2t4.5 -2q5 -2 5 -1q0 2 37 3q5 0 13.5 -3.5t19.5 -11.5q5 -3 5 -8q0 -8 -13 -14.5t-22 -6.5q-3 0 -3 1h-130q-130 0 -130 3t-5 8
q-6 6 -6 11zM174 422q-2 -11 0 -25t6 -34t6 -33.5t2 -21.5q0 -11 81 -8q28 3 60 18q8 5 14 17t11 16q2 2 5.5 10t6.5 17t5.5 18t2.5 13q0 6 -3 6q-7 13 -15 26t-16 28q-4 4 -13 7.5t-24 9.5q0 14 -81 14q-31 -3 -40 -28q-6 -9 -8 -50z" />
    <glyph glyph-name="s" unicode="s" horiz-adv-x="440" 
d="M371 360q-15 0 -48 69q-15 19 -40 42q-8 15 -37 21q0 10 -38 13q0 9 -16 9q2 0 -6.5 -1.5t-28.5 -3.5q-5 -1 -16.5 -7.5t-17.5 -6.5q-5 0 -20 -15q-14 -14 -15 -19t-5 -15q-1 -5 -2 -8.5t-1 -5.5q0 -5 1.5 -11.5t1.5 -11.5t4.5 -11.5t11 -12.5t13.5 -11.5t11 -7.5
q2 -1 4.5 -2t5.5 -3l30 -15q8 -3 19.5 -6.5t25.5 -5.5q32 -7 44 -9q17 -4 42 -10.5t57 -17.5q36 -17 41 -31l22 -35q14 -21 15 -40q3 -12 0 -40q-1 -8 -1 -14v-11v-14q0 -20 -19 -38q-11 -13 -18 -20t-9 -11q-4 -9 -13.5 -16.5t-21.5 -13t-24.5 -9t-22.5 -4.5q-39 -3 -60 0
q-5 0 -12.5 4t-12.5 4t-15 3t-26 11q-32 15 -32 16q-8 0 -18.5 9.5t-18.5 9.5q-23 0 -30 -22q-10 -28 -17 -30q-11 -8 -20 -8q-23 0 -23 38v12q0 4 0.5 9t1.5 10q1 9 2 17t-1 14q-1 31 0 43q-2 31 0 66q3 26 17 26q6 0 13.5 -6t14 -14t11 -17.5t4.5 -16.5q0 -12 20 -35
q11 -11 15.5 -19t6.5 -12q3 -4 34 -35q8 -4 18 -10.5t22 -14.5q14 -14 48 -14q0 -4 10 -4q5 0 14 1t23 5t22 7t12 5q17 13 28 25t17 23q1 4 2 11.5t1 19.5q0 14 -3 22t-7 12.5t-7 7t-3 5.5q-6 4 -12.5 8t-13.5 9q-1 1 -7 5t-13 8.5t-13 8t-6 5.5q0 3 -48 12q-20 3 -33 5.5
t-20 3.5q-23 4 -41 9t-32 10q-11 5 -25.5 15.5t-32.5 25.5q-25 21 -28 43q0 2 -2 9.5l-6 22.5q-1 10 -2 18t-1 15q10 67 16 67t18 17q5 9 9 12.5t7.5 5t8 3.5t9.5 7q13 11 23 14t23 9q6 0 9 1q5 1 12 1.5t15 0.5q20 3 37 0q18 -6 41 -6q30 0 55 -31q10 -10 16 -10q8 0 24 24
q19 25 28 25q25 -3 25 -114q0 -30 -2 -45.5t-5 -22.5t-6.5 -8t-6.5 -1z" />
    <glyph glyph-name="t" unicode="t" horiz-adv-x="517" 
d="M2 334q-20 0 -17 77q2 73 4 77q-2 2 0 17q1 8 1.5 12.5t2.5 7.5t7 5.5t14 6.5q17 9 17 5q0 -6 54 -4h18q5 0 10 0.5t10 1.5h20h60q72 3 77 0q2 0 6 1t11 2l15 2q0 -2 26 -5q6 0 16.5 1t27.5 2l40 5q16 0 46 -6q17 -3 20 -47v-11q0 -7 -0.5 -18.5t-1.5 -27.5
q0 -15 1 -35.5t2 -47.5q3 -20 -15 -20q-16 0 -26 36q-2 13 -4.5 24.5t-6.5 22.5q-2 4 -6 13t-11 24q-16 37 -88 43q-32 3 -40 -29q-1 -5 -1 -10.5v-12.5t-0.5 -15.5t-1.5 -18.5q-1 -9 -0.5 -44.5t2.5 -98.5q0 -7 -1 -28.5t-2 -57.5q-2 -29 -1.5 -48.5t2.5 -29.5
q9 -49 49 -45q20 2 34 3.5t23 2.5q20 0 25 -6q13 -18 6 -40q-5 -15 -43 -15h-13q-10 0 -15 1l-17 2q-35 1 -59.5 2t-35.5 -1q-76 -6 -91 -1q-13 4 -37 3q-7 -1 -12 -1.5t-10 -0.5h-15q-3 2 -9.5 3t-14.5 3q-1 0 -4 3.5t-6 7.5t-4.5 7.5t0.5 3.5l14 9q16 9 20 9q11 3 43 0
q61 -2 72 39q4 13 6.5 25.5t4.5 25.5q3 11 -2 35q-2 15 -3 24t-1 13v49v160q0 35 -6 49q-11 23 -40 23q-33 0 -70 -29q-3 -5 -9 -11.5t-15 -17.5q-2 -10 -6.5 -18.5t-9.5 -16.5q-9 -5 -13 -39q-5 -32 -23 -32z" />
    <glyph glyph-name="u" unicode="u" horiz-adv-x="642" 
d="M29 500q-46 7 -46 25q0 10 26 18q11 4 19.5 5t16.5 0q22 -2 57.5 -1.5t86.5 2.5l66 3q17 2 30 -1.5t24 -8.5q6 -2 6 -13q0 -32 -49 -31q-15 2 -25 0.5t-15 -3.5q-22 -6 -24 -38q1 -8 1 -14.5v-13.5v-26v-209q8 -140 122 -140q62 0 87 20q40 34 40 40q0 3 8 21q9 19 12 19
q2 0 5 68q1 10 1 20v20v40q1 15 1.5 29t0.5 28v55q0 20 -17 46q-5 5 -13.5 12t-17 13t-14.5 10t-6 3q0 7 -23 10q-21 1 -21 14q0 8 4 15q7 19 96 15q17 -1 34 -1.5t33 -0.5t31.5 1t30.5 3q49 0 40 -29q-3 -14 -10 -18t-14.5 -4.5t-14.5 1t-10 -1.5q0 6 -28 -16
q-2 -1 -7.5 -11t-18.5 -30q-6 0 -12 -110q3 -70 4.5 -107t-0.5 -40q-7 0 -18 -86q-3 -18 -36 -47q-16 -15 -28.5 -23t-20.5 -12q-26 -9 -49 -13.5t-40 -6.5q-15 -2 -34 0.5t-43 5.5q-2 1 -7.5 4t-11.5 6.5t-11.5 6t-8.5 2.5q-10 0 -22 6t-24 15t-22 19.5t-15 19.5
q-15 26 -22.5 49.5t-9.5 43.5q-1 37 0 104q2 45 3.5 70.5t1.5 33.5v51q-3 52 -45 61q-6 2 -13 2h-21z" />
    <glyph glyph-name="v" unicode="v" horiz-adv-x="562" 
d="M318 209q10 4 27 39q17 36 17 47q0 6 2 15t5 21q8 24 19 29q11 8 14 55q1 23 0.5 38.5t-2.5 23.5q-1 9 -42 26t-36 29q5 23 67 23q7 0 18 -0.5t23 -1.5t23 -1.5t18 -0.5q8 0 23 1.5t23 1.5q32 0 32 -12q6 -6 6 -14t-10 -14q-8 -5 -11 -8l-5 -5t-5 -4.5t-10 -7.5
q-15 -7 -17 -7q-13 0 -20 -16q-12 -18 -15 -21q-5 -5 -16 -33q-12 -30 -17 -30q-10 0 -31 -71q-10 -35 -15.5 -54.5t-5.5 -24.5q0 -7 -4 -19t-9 -24.5t-9.5 -24t-5.5 -18.5q0 -6 -4 -17t-9 -23t-9 -23t-4 -17q0 -9 -4.5 -19t-11 -19t-15 -14.5t-17.5 -5.5q-16 0 -27 20
q-8 26 -15 50.5t-15 49.5q-4 0 -29 78q-14 0 -26 74q-2 4 -6 13.5t-8.5 20t-8 20.5t-3.5 17q-8 11 -17 37q-1 4 -4.5 9.5t-7.5 11t-7.5 10t-3.5 7.5q0 6 -4.5 17.5t-4.5 16.5q0 20 -22 29q-1 2 -15 5.5t-42 11.5q-11 3 -14 14q-6 34 36 34h26q8 0 17.5 -0.5t20.5 -1.5
t20.5 -1h17.5h27q66 0 69 1q9 2 20 1.5t21 -3.5t17 -8.5t7 -12.5q1 -19 -29 -24h-37q-12 -6 -22.5 -12t-8.5 -10q0 -6 3.5 -16t8.5 -25q13 -30 13 -34q0 -10 3.5 -22.5t11.5 -28.5q9 -20 14.5 -32.5t6.5 -18.5q2 -13 7 -28t13 -32q21 -43 40 -37z" />
    <glyph glyph-name="w" unicode="w" horiz-adv-x="835" 
d="M51 495q-12 2 -22 2.5t-18 2.5q-9 3 -13 15q0 10 -1 13q-1 1 18 10q23 12 23 10q6 -3 34 0l40 1q45 -3 77 -3q17 0 30 0.5t23 1.5t17 -6.5t7 -18.5q0 -28 -37 -28q-23 0 -23 -24t19 -69q18 -47 18 -53t3.5 -16t8 -20.5t8.5 -19.5t5 -13q5 -20 7.5 -30.5t4.5 -14.5
q10 -24 31 -24q6 0 20 41q8 21 11.5 35l5.5 22q1 8 5 21t10 33q12 34 12 55q0 43 -26 67q-5 3 -10 5.5t-10 6.5q-15 5 -26.5 11t-11.5 14q0 35 51 35q8 0 24.5 -3t30.5 -3q20 1 31 2t6 1h29h8q7 0 11 1h13q48 0 65 -17q6 -5 6 -13q0 -6 -11 -15.5t-15 -14.5q-2 -2 -18 -2
q-7 0 -14 -1t-11 -3q-15 -7 -12 -29q0 -8 2 -21.5t5 -30.5q9 -34 13 -34q2 0 17 -57q13 -55 21 -55q3 0 9 -24q12 -28 16 -35q9 -12 17 -12q9 0 18 35q13 36 14 36q3 0 20 44q2 7 6 18.5t9 27.5q17 29 17 66q0 76 -47 84q-3 0 -8.5 2t-11.5 4.5t-11 4.5t-6 2q-2 0 -2 5
q0 4 2 8q2 11 9 14q48 11 149 9h11h8.5t9.5 1q21 3 33 0q33 0 33 -21q0 -5 -2 -12.5t-19 -16.5q0 -2 -10 -7.5t-17 -9.5q-6 -2 -11.5 -4t-17.5 -14l-7.5 -7.5t-7.5 -8.5q-14 -12 -18 -33q-1 -4 -6.5 -11t-11.5 -15.5t-11 -17.5t-5 -16q0 -12 -14 -35q-8 -14 -11.5 -23
t-5.5 -14q-2 -13 -9 -34t-20 -50q-4 0 -25 -70q-11 -29 -15.5 -46t-4.5 -24q0 -23 -14 -35.5t-37 -12.5q-21 0 -38 74q-17 81 -28 92q-3 4 -6 9.5t-4 15.5l-5 27q0 3 -9 26l-10 25q-3 0 -15 31q0 1 -6 6.5t-6 7.5q0 7 -3 7q-6 0 -20 -23q-19 -31 -32.5 -77t-24.5 -106
q-2 -15 -6.5 -31t-10.5 -35q-17 -51 -34 -51q-41 0 -48 46q-1 15 -3.5 31.5t-13.5 35.5q-7 13 -11 22t-6 16q-6 33 -18 55q-14 33 -18 45q-3 11 -7.5 25t-9.5 34l-10 21l-20 63q0 19 -10 32q-17 36 -19 36q-6 7 -35 21z" />
    <glyph glyph-name="x" unicode="x" horiz-adv-x="537" 
d="M362 394q-6 -9 -15 -21.5t-22 -29.5q-8 -11 -8 -20q0 -16 26 -54q28 -34 28 -46q0 -4 21 -38q25 -36 26 -36q4 0 30 -44q21 -34 49 -34q58 0 58 -29q0 -14 -14.5 -20.5t-28.5 -4.5h-64q-38 1 -60 2t-30 -1q-5 -1 -14.5 -0.5t-21.5 2.5t-20 3.5t-13 1.5q-20 0 -20 17
q0 14 15.5 16t30.5 4q22 4 22 10q0 10 -1 16.5t-2 9.5q0 4 -7 11.5t-7 13.5q-2 2 -3.5 5t-3.5 6q-4 5 -8.5 13t-12.5 19q-8 14 -18 28.5t-25 14.5q-5 0 -10.5 -5.5t-10.5 -5.5q-9 0 -23 -26q-11 -24 -17 -24q-2 0 -4 -4t-4 -10t-3.5 -12t-1.5 -10q0 -9 8.5 -21t10.5 -17
q1 -5 21 -9q19 -5 23.5 -13.5t4.5 -13.5q0 -23 -52 -23q-34 0 -69.5 1t-73.5 2q-16 0 -20 2q-13 4 -16.5 10t-8.5 12q0 6 26 23q9 5 17.5 9.5t18.5 11t22.5 17t29.5 26.5q8 10 20.5 25t27.5 35q8 8 18 21.5t23 32.5q8 21 8 28q0 5 -3 11.5t-6.5 13t-6.5 12t-3 7.5
q0 5 -20 34q-10 21 -27 40q-3 3 -7 10.5t-8.5 16.5t-8.5 18t-7 14q-10 13 -17.5 21.5t-16 13.5t-19 8t-26.5 4q-49 4 -49 28q0 25 25 28q12 2 38 0q7 -1 12.5 -1.5t10.5 -0.5h14q9 0 23 1t29 2t29.5 2t23.5 1q71 0 74 -26q1 -23 -25 -31q-26 -5 -26 -13q0 -10 14 -36
q16 -25 18 -32q8 -35 45 -35q17 0 17 12q0 5 7.5 15.5t7.5 12.5q7 0 14 13q4 11 5 20t1 14q0 10 -4.5 15t-18.5 13q-14 9 -14 8q-5 1 -11 3.5t-12 8.5q-3 4 -5.5 7.5t-0.5 9.5q3 11 22 15l20 5h106q82 0 84 -2q4 -5 5 -11.5t3 -14.5q3 -19 -11 -28q-3 -1 -11.5 -2t-22.5 -2
q-6 0 -14.5 -3.5t-17 -8.5t-15.5 -10.5t-11 -9.5q-12 -17 -15 -17q-6 0 -22 -25q-8 -13 -12.5 -19t-5.5 -7z" />
    <glyph glyph-name="y" unicode="y" horiz-adv-x="578" 
d="M569 546q9 -6 9 -15q0 -7 -7.5 -19t-21.5 -12q-1 0 -1 2q0 5 -59 -33q-13 0 -29 -34q-16 -36 -23 -43q-16 -13 -34 -52q-18 -38 -34 -51q-31 -28 -34 -101q-2 -71 0 -77q7 -42 47 -46q5 -1 11 -1.5t11 -0.5h12t12 -1q29 -6 29 -27q0 -32 -52 -26q-17 2 -26.5 3.5
t-10.5 1.5q-26 -2 -58.5 -1.5t-74.5 2.5q-18 3 -38 0q-7 -1 -12.5 -1h-10.5h-16h-4q-4 0 -6 1h-10q-9 0 -19 11t-10 20q2 2 4 4.5t4 4.5q7 9 11 10q9 -3 37 0q16 0 33 4q5 2 15.5 11t15.5 9q4 0 6 26v17v15t-1 18l-2 33q0 5 -1 10t-4.5 13t-10.5 20t-18 30q-7 11 -10 18
t-5 12.5t-4 10.5t-7 11q-10 15 -12 20q-2 8 -10 17.5t-13 22.5q-6 11 -14.5 28.5t-19.5 40.5q-14 36 -31 36l-18 6q-18 6 -26 6q-5 0 -5 -3q-12 3 -18 7q-7 4 -13 8.5t-6 9.5q0 32 54 32q11 0 31.5 -2.5t31.5 -2.5q9 0 22 -0.5t27 -1t27.5 -1t22.5 -0.5q4 0 12 1t17 2
t17.5 2t13.5 1q35 0 35 -24t-45 -31q-29 -5 -29 -29q0 -21 26 -68q30 -53 33 -60t5.5 -13.5t6.5 -14.5q9 -20 18 -20t16 10q23 23 23 35q0 8 18 35q21 30 23 30t5 4t6 9t5 9t3 4q9 0 9 9q0 20 -20 48q0 2 -32 17q-31 16 -31 24q0 6 9 12q29 21 100 10q6 -2 11 -2h15
q22 0 22 3q36 0 75 -3z" />
    <glyph glyph-name="z" unicode="z" horiz-adv-x="523" 
d="M189 111q-29 -29 -29 -37q0 -9 91 -9q5 0 14.5 -0.5t20 -1t20 -1t14.5 -0.5q15 0 34 13q22 14 20 14q9 0 26 33q16 33 20 33q2 0 31 90q1 6 7 6q24 0 27 -76q0 -5 1 -18.5t3 -33.5q2 -17 2.5 -30t-0.5 -24q-3 -45 -16 -52q-1 0 -14 -1.5t-39 -3.5q-10 -1 -18 -1h-15h-21
q-260 1 -303 0q-60 -5 -60 27q0 9 29 50q8 0 18.5 12t12.5 18q2 8 23 24q20 14 20 21q0 15 27 35q28 24 28 34q0 11 28 39q14 14 22 23t10 12q2 5 66 82q29 33 43 57t14 37q0 23 -40 16q-11 -1 -18 -1.5t-13 -0.5q-12 0 -29 -4q-11 -1 -18 -2t-13 -1q-11 0 -22.5 -6.5
t-21.5 -16.5t-17.5 -22t-10.5 -24q-4 -11 -6.5 -21.5t-5.5 -21.5q-9 -34 -16 -34q-5 0 -9 -9q-5 -8 -8 -8q-30 0 -30 88q0 6 -1 17t-2 22.5t-2 22.5t-1 18q0 53 30 58q9 1 23 0.5t28.5 -1.5t27.5 -2t20 -1q35 1 77 0t90 -5q1 -1 74 2l46 1q36 -2 36 -20q0 -30 -31 -58
q-8 -8 -15.5 -14.5t-15.5 -11.5q-8 -8 -14.5 -16.5t-11.5 -16.5q-16 -16 -40 -49q-4 -19 -40 -52q-33 -32 -35 -43t-15.5 -23t-21.5 -20q-20 -21 -31.5 -34t-16.5 -19q-30 -35 -37 -58z" />
    <glyph glyph-name="braceleft" unicode="{" horiz-adv-x="283" 
d="M297 825l-6 -10l-11 -3l-6 -4l-5 3h-6l-5 -3q-4 4 -7 4l-40 -12l-3 -6l-8 -2l-5 -7l-6 -3q-4 -7 -4 -14l-5 -5l2 -6l-4 -3l-9 -32q3 -6 3 -14q0 -12 -3 -28h3q-1 -4 -2 -6.5t-1 -5.5l3 -11q-1 -1 -1 -6q0 -2 -2 -6q2 -5 1.5 -15t-1 -21t-1 -21.5t0.5 -15.5l-1 -4l1 -8
l-3 -5v-23q0 -6 2 -10q-4 -10 -8 -23.5t-9 -30.5l-6 -3v-7q-12 -6 -23 -23q-9 -2 -22 -13q-2 -2 -13.5 -5.5t-35.5 -8.5l9 -6l3 3l3 -2l19 -5l7 -7l26 -13l7 -9q9 -4 10 -14l7 -7v-6l4 -7l-1 -6l6 -15l-2 -9q0 -5 1.5 -11.5t1.5 -11.5l3 -7l-1 -6l3 -7l-2 -10q3 -14 3 -17
q0 -5 -3.5 -13.5t-3.5 -13.5l6 -13l-3 -6q0 -12 4 -27l-4 -11l3 -14v-46l3 -6v-14q4 -5 7 -10.5t7 -11.5q4 -4 8 -15l6 -6t9 -11h8l3 -5q3 -1 7 -2t8 -1l5 -3l6 2q2 -2 5.5 -2.5t8.5 -2.5q4 2 9 2h6.5t8.5 1l-3 -3q0 2 5 2l8 -8l1 -8l2 -1l-2 -3q-2 -4 -4.5 -7t-6.5 -4v3
l-6 -2l-6 2l-22 -3q-7 7 -29 4q-5 2 -15.5 4t-27.5 6q-3 3 -9 6t-14 4q-1 2 -2 3.5t-1 3.5l-17 9q-2 6 -12 18q-4 10 -7.5 23.5t-9.5 30.5l1 8q-4 7 -4 61v68q-2 6 -2 8v6q0 4 1 9t2 11q-1 1 -1 5v7l1 6l-3 7q2 10 2 12v12q0 49 -37 71h-6l-3 5q-4 1 -13 3t-24 7l-10 -1
l-3 -2q-5 4 -9 7.5t-6 9.5l6 11l9 6v3l8 -3l11 5q22 -4 57 17q8 10 15 21t12 22l-1 3q0 11 1 12q3 39 0 42l5 12q-2 11 -5 14l4 11q-3 28 1 38q-4 10 -1 23l-2 6l3 6l-3 5q2 11 2.5 23t-0.5 25l6 21l-2 5l2 8l-2 4q4 13 16 31q0 9 10.5 21t19.5 16q4 2 10 8l6 1h6q6 7 6 6
h17l3 5l12 3l10 -2l12 5q11 -2 18.5 -3.5t13.5 0.5l6 3q11 0 25 -8v-7z" />
    <glyph glyph-name="bar" unicode="|" horiz-adv-x="492" 
d="M506 665q2 -10 2 -15v-13q0 -81 -51 -106q-2 2 -11 69q-6 44 -32 65q-60 -19 -92 -77q15 -35 15 -71q0 -9 -1.5 -22.5t-3 -27.5t-2.5 -27.5t-1 -22.5q7 -15 17 -15q4 0 10 2.5l12 5t11 5t7 2.5l20 29q20 -18 17 -43q0 -22 -9 -35q-8 -36 -48 -36q-15 0 -29 8
q-27 10 -39 65q-9 55 -26 61q-18 -21 -18 -49q0 -20 17 -66t17 -62q0 -37 -57 -49q-31 40 -31 74q0 20 9 32q19 25 19 66q0 35 -13 54q-9 -11 -23 -49q-7 -20 -13 -33t-11 -21q-22 -28 -51 -31q-62 47 -62 73q0 13 13 26l14 21q2 -11 35 -41q7 -3 12 -3q7 0 15 5.5t15 13
t11 16.5t4 17q-25 16 -25 49q0 6 1 11t2 11q23 11 23 40q2 10 -3 24t-14.5 27t-22.5 22.5t-27 10.5q-20 0 -34 -26q-25 -6 -25 -37v-27q0 -20 -11 -28q-21 -4 -40 34q-15 34 -15 58q11 29 17 46.5t8 22.5q18 38 52 45q49 -7 114 -85q14 -15 18 -58q2 -22 7 -36t10 -19
q23 34 23 78q0 32 -21 100q-11 34 -15.5 59.5t-4.5 42.5q0 58 46 101q12 3 18 3q24 0 34 -38q17 -44 26 -49q0 -20 -5.5 -50t-18.5 -70q-25 -76 -25 -117q0 -30 14 -60q7 17 18.5 43t26.5 61q25 60 81 80q57 9 100 -64z" />
    <glyph glyph-name="braceright" unicode="}" horiz-adv-x="277" 
d="M297 406q-2 -6 -6 -9.5t-9 -7.5l-2 2l-11 1q-5 -2 -14.5 -4.5t-22.5 -5.5l-1 -5h-6q-39 -20 -39 -71v-13q0 -5 2 -11l-3 -7l1 -6v-7q0 -4 -1 -5q0 -11 4 -20q-4 -17 -4 -60v-19v-10.5t1 -10.5v-23q-1 -7 -2 -12t-2 -8l1 -8q-4 -8 -7 -21.5t-8 -32.5q-6 -2 -13 -18l-17 -9
q-1 -2 -2 -3.5t-2 -3.5q-8 -1 -14 -4t-9 -6q-8 -2 -18.5 -4t-23.5 -6q-23 3 -31 -4l-20 3l-6 -2l-6 2v-3q-10 1 -12 11v3l1 1v8q8 8 10.5 8t2.5 -2l-2 3q8 0 25 -3l14 5l6 -2l3 3q3 0 7.5 1t7.5 2l5 5h6q4 4 7 7.5t8 9.5q3 11 10 15q5 15 12 22l1 14l4 6v46l3 14l-5 11
q0 5 1 11.5t2 15.5l-1 6l4 13q0 5 -3 13.5t-3 13.5q0 2 1 6t2 11l-1 10l1 7l-1 6l3 7q0 5 1.5 11.5t1.5 11.5l-2 9l6 15v6l3 7l2 6l5 7q1 9 12 14l4 9q5 2 11.5 5.5t16.5 7.5l6 7l19 5l3 2l4 -3l8 6q-4 1 -12.5 3t-21.5 6q-3 0 -7 1t-8 4q-4 6 -20 13q-13 18 -25 23v7l-6 3
l-15 54q1 2 1 10q0 24 -1 23l-2 5v8l-1 4q2 4 1.5 14.5t-1.5 21.5t-1.5 21.5t1.5 15.5q0 3 -1 6.5t-2 5.5l4 11l-3 12h3q-1 11 -2 18t-1 13v6q0 3 2 5q-2 5 -4 13t-4 19l-3 3v6l-3 5q-2 3 -3 6.5t-3 7.5l-5 3l-6 7l-6 2l-5 6l-40 12q-4 0 -8 -4l-4 3h-5l-4 -3l-8 4l-11 3
l-6 10v7q14 8 26 8l6 -3q6 -2 13 -0.5t18 3.5l14 -5l9 2l11 -3l3 -5h17q1 1 6 -6h6l8 -1q5 -4 11.5 -10t16.5 -14q10 -10 10 -21q6 -2 11 -14l5 -17v-4l1 -8l-1 -5l4 -21q2 -10 2 -21v-27l-2 -5l3 -6l-3 -6q3 -11 0 -23q3 -12 0 -38l3 -11q-1 -2 -2 -5.5t-2 -8.5l4 -12
q-2 -3 0 -42q4 -1 4 -12l-2 -3q5 -11 11.5 -22t14.5 -21q35 -21 59 -17l10 -5l8 3l-1 -3l10 -6z" />
    <glyph glyph-name="asciitilde" unicode="~" horiz-adv-x="534" 
d="M572 705q0 -43 -29 -74q-14 -19 -17 -29q-3 -4 -8 -9.5t-10 -12.5l-4.5 -4.5l-6.5 -6.5l-6 -4q-8 -5 -8 -8q3 -11 -9 -11q-11 -6 -25 -12.5t-32 -13.5h-5q-2 0 -4 -0.5l-6 -1.5q-15 -1 -21 -2t-1 -2l-31 3q-7 -4 -15 1l-14 7q-9 0 -23 2t-31 5q-19 4 -26 6t-3 2
q-2 0 -26 8q-13 0 -35.5 3.5t-35.5 3.5q-6 0 -19.5 -4.5t-18.5 -4.5q-12 0 -19 -21q-9 -4 -18 -16q-2 -4 -5 -20q-1 -1 -4 -1q-2 0 -4 -2q-5 -3 -11.5 -6.5t-17.5 -7.5q-8 -1 -18.5 2t-22.5 11l6 12q-2 2 -2 5v7q9 35 11 29q-3 3 14 33q4 4 9 14q-2 6 2 13q4 3 10 5
q0 3 28 28q4 5 10.5 12t15.5 12q2 2 5 4t7 4q12 4 24.5 7t26.5 8q6 -1 13 -0.5t16 2.5q10 9 34 6q4 0 17 -5t19 -4q8 2 19.5 1t26.5 -4q7 -4 18.5 -8t29.5 -8q6 3 16 0q2 -1 3.5 -3t3.5 -4q2 2 7 4l6 -3t10 -4q2 1 15 1q13 -2 12 -3q2 2 5 4l6 4q8 -5 28 -5q3 4 8 9.5
t13 10.5q2 2 16 28q2 8 14 18q6 7 10 7l3 -5q2 -2 3.5 -2.5t3.5 -2.5q10 -1 20 4.5t13 5.5q14 0 14 -17z" />
    <glyph glyph-name="exclamdown" unicode="&#xa1;" horiz-adv-x="175" 
d="M91 654q-40 13 -40 20q0 6 -8 11q-8 6 -8 20q0 13 11 40l20 20q0 6 11 6q-6 0 4 -2t33 -6q17 -4 28 -21t7 -34q0 -5 -2 -12t-5 -18q0 -3 -19 -13zM75 578q3 8 11 8q23 0 23 -18q0 -2 1.5 -10.5t3.5 -22.5q1 -5 2 -12t2 -15q2 -13 4.5 -48t8.5 -95q1 -5 1 -12.5v-17.5
t0.5 -22t1.5 -27q7 -35 13.5 -70.5t12.5 -73.5q2 -15 2.5 -29t-0.5 -27q-1 -2 -3.5 -11t-6.5 -24q0 -3 -4.5 -8t-10.5 -10.5t-10.5 -9.5t-4.5 -5q0 -18 -36 -18q-35 0 -48 12q-7 11 -13.5 20t-12.5 20q-2 4 -5 13t-5 24q-3 31 0 31l7 46q10 41 28 136q6 42 9 67t5 33l6 89
q7 51 18 87z" />
    <glyph glyph-name="cent" unicode="&#xa2;" horiz-adv-x="449" 
d="M435 311q-6 -44 -32 -82q-15 -22 -31.5 -35t-36.5 -17q-7 -2 -19.5 -5t-29.5 -9q-26 -8 -52 -3q-17 2 -33 4t-33 5q-2 -5 -3 -11t-3 -12q-4 -9 -8 -23t-9 -32q-2 -6 -5.5 -14t-7.5 -19q-5 -5 -11 -12t-13 -18q-3 -5 -8 -5q-9 0 -15.5 13t-2.5 22q1 22 18 67q2 7 6.5 20.5
t10.5 34.5q1 1 1 6q0 3 2 11q-60 48 -60 57q0 1 -3.5 6.5t-8.5 13.5q-5 2 -10.5 10.5t-10 20t-7.5 23t-3 18.5q0 6 -4 18t-4 18q0 5 1 13.5t1.5 18t1.5 18.5t1 14q0 32 32 88q74 119 177 131q2 3 2.5 9.5t2.5 17.5q3 6 6.5 26t16.5 65q10 11 21 32q3 7 8 7q9 0 16.5 -12.5
t3.5 -21.5q0 -5 -3.5 -21t-8.5 -45q-2 -8 -4.5 -22.5t-6.5 -34.5l-2 -5q4 -2 8 -2.5t9 -2.5q10 -5 19 -10t20 -10q25 -13 38 -13q5 0 11 6t11.5 13t10 13t7.5 6q22 0 23 -28q3 -12 0 -24q0 -6 -0.5 -10t-1.5 -7t-1 -6v-37q0 -13 -1 -32t-3 -44q-4 -34 -14 -34q-2 0 -5 4
t-6 9t-5 10t-3 8q0 6 -7 17t-7 17t-4 16t-10 19.5t-12.5 17.5t-11.5 10q-72 48 -77 48q-3 0 -3 -3q0 4 -11 4h-9h-6.5t-7.5 -1l-15 -2q-9 0 -23 -8.5t-20 -8.5q-5 -5 -9.5 -12t-9.5 -14q0 -2 -4 -9t-8.5 -14.5t-8.5 -13.5t-5 -6q-25 0 -35 -37q-6 -18 -8 -36.5t2 -35.5
q6 -39 29 -39l17 -86q1 -15 43 -58q11 -12 32.5 -20t53.5 -14q25 -4 52 9q6 2 17.5 9t30.5 17q35 15 41 70q7 61 20 61q4 0 8 -6.5t6 -15.5t3 -18.5t0 -14.5z" />
    <glyph glyph-name="sterling" unicode="&#xa3;" horiz-adv-x="509" 
d="M538 263q-6 -86 -9 -92q-7 0 -18 -56q-3 -15 -26 -50q-24 -33 -37 -33l-5.5 -2.5t-12.5 -5t-13 -5t-8 -2.5q-3 0 -3 1q0 -4 -55 -3q-13 2 -27.5 6.5t-29.5 12.5q-24 15 -52 31.5t-54 16.5q-12 0 -37 -37q-21 -20 -46.5 -28.5t-56.5 -7.5q-28 2 -43.5 23.5t-15.5 49.5
q0 16 7 31t18.5 27t27 20.5t32.5 11.5q11 2 31 5.5t49 8.5q4 2 7.5 4.5t7.5 6.5l9 11q28 0 19 44q-4 19 -11 39.5t-20 43.5q-23 47 -31 47q-23 15 -30 15h-34q-17 -2 -28 -1t-17 2q-4 3 -11 5.5t-13 4.5t-9.5 3.5t-0.5 2.5q0 34 34 34q-1 0 7 -1t25 -2q11 -2 19 -1t15 2
q21 5 26 22v37q0 17 1.5 38t5.5 48q1 5 3.5 16.5t8.5 27.5q12 34 18 34q-9 0 28 40q22 25 39 29q14 8 37 15t55 15q8 0 23 2t23 2q24 0 31 -10q0 -3 21 -7q22 -4 22 -7q11 -8 21 -15.5t20 -15.5q8 -13 23 -28q13 -4 13 -34q0 -61 -29 -87q-23 -20 -53 -20q-28 0 -47 17.5
t-20 45.5q-3 18 18 44q20 25 20 40t-37 27q0 3 -17 3q-8 0 -19 -1.5t-25 -3.5q-37 -4 -37 -12q0 3 -9.5 -3t-26.5 -23q-5 -7 -9 -11.5t-6 -7.5q-2 -5 -4 -9.5t-4 -7.5q-1 0 0 -43q1 -8 4.5 -21t7.5 -27.5t7 -28.5t3 -23q0 -4 3.5 -10t8 -12t8.5 -11t4 -7q0 -3 4 -5.5
t8.5 -4.5t8.5 -4t4 -3q3 -1 22 -1h47q11 0 32.5 1.5t32.5 1.5q9 0 16.5 -13t7.5 -23q0 -4 -3 -4q11 0 -14 -6q-12 -3 -19.5 -4t-10.5 -1q-8 0 -8 3h-26q-10 0 -22.5 -0.5t-29.5 -1.5q-33 0 -42 -36q-2 -10 -3.5 -25.5t-1.5 -38.5v-9v-25q0 -14 -2 -21t-8 -23q-8 -25 -7 -32
q3 -19 31 -28q8 -3 40 -9q23 -6 48.5 -7t54.5 1q61 4 82 112q2 15 5.5 22t7.5 9t8.5 3t7.5 4q6 0 10.5 -13t4.5 -19zM131 102q1 2 1 6v7q0 17 -24 17q-12 0 -25 -3.5t-24.5 -10t-19 -15t-7.5 -18.5q0 -21 48 -25q43 27 51 42z" />
    <glyph glyph-name="currency" unicode="&#xa4;" horiz-adv-x="516" 
d="M255 402q10 -2 17.5 -2.5t14 -1.5t13.5 -4t17 -10l12 -17l12 12q5 2 11.5 6t14.5 10q6 5 16.5 12.5t26.5 18.5q2 2 12 11t16 12q2 2 4 2h5q7 0 23 -11q1 -2 5 -8q1 -1 1 -5q0 -2 2 -6q2 -6 2 -11q0 -8 -6.5 -10t-17.5 -7l-26 -18q-8 -4 -13.5 -13t-9.5 -11l-21 -17
q0 1 -2 1l-2 -1l-7 -5q12 -16 16 -33t4 -35v-45q0 -2 -2.5 -10t-6 -17.5t-6 -18t-2.5 -11.5v-1q4 -3 9 -9t13 -14q13 -11 39 -36q2 -1 13 -9t15 -13l1 -1q4 -4 4 -12t-7 -21q-1 -4 -6 -7q-1 -1 -4 -2.5t-6 -3.5q-7 -4 -12 -4q-6 0 -9.5 6t-9.5 14q-4 5 -11 11t-12 12
t-14.5 9.5t-13.5 6.5q-9 8 -16 21t-9 14q0 -1 -4.5 -4.5t-11 -8t-13.5 -9t-12 -7.5q-22 -12 -22 -13t-17 -6t-35 -5q-9 0 -21 4t-23 8.5t-19 9t-9 6.5q-4 -2 -11.5 -8t-15 -13t-14 -12.5t-8.5 -6.5q-5 -5 -9.5 -8l-7.5 -5t-5 -4h-5q-1 -2 -2.5 -3t-3.5 -3q-7 -3 -9 -8
l-23 -3q-7 0 -16 14q-5 10 -5 20q0 8 5 10q3 7 13 15q5 3 11.5 7.5t14.5 10.5q7 5 13 10.5t20 16.5q8 5 13 7.5l9 4.5q5 1 5 3.5t-2 5.5t-5 5.5t-5 3.5q-7 0 -14 31q-2 14 -4 22t-3 10q-1 3 -1 15q0 23 5 44t14 41v6l-22 22q-5 7 -15 10.5t-13 6.5q-10 8 -14.5 12.5
l-5.5 5.5v1q0 1 -0.5 1.5t-0.5 2.5q-2 2 -3.5 2.5t-3.5 2.5q-5 6 -10 8l-6 20q-1 1 -1 4q0 7 10 17q13 9 21 9q5 0 8 -3q7 -3 17 -10q3 -4 8.5 -9.5t12.5 -13.5q8 -5 17 -14l22 -22q2 -1 7.5 -4.5t10.5 -8.5q3 2 5.5 3t5.5 3l21 18l18 6q3 1 6 1l19 3q17 4 32 4zM163 219
q0 -12 4 -24q2 -13 4 -20t3 -10q0 -23 19 -45q15 -15 21 -15q5 -1 9 -1.5t8 -1.5q7 -2 13.5 -3t9.5 -1q6 0 6 2q8 0 42 25q2 0 10 17q4 9 4 15v1q3 0 5.5 8t2.5 10q1 11 1.5 22t0.5 22q0 6 -0.5 18t-0.5 23v8q0 6 -1.5 12l-3.5 14q-5 10 -6.5 16.5t-3.5 10.5q0 12 -12 26
t-25 19q-4 1 -9.5 2t-13.5 1q-5 0 -10 -0.5t-11 -1.5q-23 0 -26 -8q-1 -1 -5.5 -5t-12.5 -13q-4 0 -9 -17q-8 -18 -8 -20t-1 -22t-4 -58v-6z" />
    <glyph glyph-name="yen" unicode="&#xa5;" horiz-adv-x="758" 
d="M812 795q0 -23 -30 -24q-66 -3 -93 -39q-11 -15 -24 -29t-27 -28q-2 0 -7.5 -4.5t-12 -10t-12.5 -10t-8 -4.5q-8 0 -20 -29q-11 -30 -16 -32q-6 -4 -10 -20q-1 -7 -3 -10.5t-4 -6.5t-5 -7t-6 -13q-4 -16 -8 -16q-8 0 -20 -32q-11 -29 -14 -32q-34 -17 -47 -105
q-3 -12 -3 -26h16h8h7.5t9.5 1q18 3 29 0q22 -2 36 -24q5 -9 -2 -21.5t-18 -12.5h-20q-11 0 -27 -0.5t-39 -1.5q1 -5 1 -20q0 -6 0.5 -13.5t1.5 -15.5h13h8q6 2 9 2h8h29q23 -3 36 -25q3 -11 -3 -22.5t-16 -11.5h-24h-24t-33 -1v-2q0 -57 3 -57q-3 0 -3 -1q0 -5 5 -11.5
t11 -11.5t11 -8t5 -2q0 -9 48 -9h26q7 0 14 0.5t14 1.5q36 -5 36 -25q0 -17 -9 -20.5t-29 -3.5q-25 0 -65 3q-17 1 -25 2t-8 -1q0 6 -57 3q-57 -2 -57 -4q0 5 -71 3q-72 -3 -79 0h-46l-7 1q-6 2 -9 2h-5v7q-2 2 -2 7q3 6 9 9q0 35 40 35q19 0 40 -5.5t45 -18.5q33 14 40 43
q2 5 2.5 20t2.5 41q-20 -2 -51 3q-8 4 -18.5 7.5t-23.5 8.5q-9 1 -9 9q0 9 12.5 18.5t21.5 9.5q5 0 15.5 2t15.5 2q3 -1 15 -1q5 0 10.5 -0.5t12.5 -1.5q-1 5 -1 21v30q-20 0 -51 3q-8 4 -18.5 8t-23.5 7q-9 3 -9 10q0 9 11.5 19t22.5 10q4 0 15 3q9 1 16 0h13q5 0 10 -0.5
t11 -1.5l-3 36q0 4 -4 11t-8.5 14.5t-8.5 13.5t-4 8q-3 19 -15 31q-6 5 -12.5 20t-12.5 20q-4 6 -8 22q-2 17 -9 20q-7 4 -18 38q-12 34 -19 34q-5 0 -18 31q-12 32 -16 32q-2 0 -15 31t-20 34q-5 3 -12 11.5t-15 17.5t-16.5 16.5t-15.5 9.5t-17 3.5t-23 -0.5q-24 -2 -33 0
q-17 3 -20 5t-7 11q-2 16 0 21q1 4 17 12q6 2 12 2h19q9 0 27 -3t28 -3h34h23q8 1 16 1h16h35h56q23 0 27 -1q0 -23 46 -20q44 2 44 26l11 -9q9 -12 9 -17q2 -8 -7 -15t-17 -7q-13 0 -36.5 1.5t-36.5 1.5q-51 0 -53 -23q1 -8 3 -11t4.5 -6t6 -8.5t7.5 -18.5q11 -14 11 -20
t25 -40q1 0 12 -20q12 -21 12 -25q3 -18 25 -51q18 -27 23 -44q2 -14 18 -39q17 -26 23 -26q4 0 9 -2.5t10 -2.5q1 2 4.5 4.5t9.5 8.5q-8 0 7 18q17 20 17 16q0 7 7 20t19 33q25 40 30 51q5 6 10.5 16t13.5 24q5 11 9.5 22t9.5 23l8.5 25.5t3.5 17.5q0 3 -3 6.5t-7 7t-7.5 7
t-3.5 5.5q-6 7 -8.5 11t-4.5 6q-6 7 -38 12q-25 5 -45 6q0 4 -7 9.5t-7 10.5q0 16 30 19q11 1 29.5 2t42.5 -1l71 -1q20 0 73 3q54 3 62 3q0 3 6 3q4 0 10.5 -1t14.5 -5q21 -12 21 -25z" />
    <glyph glyph-name="brokenbar" unicode="&#xa6;" horiz-adv-x="129" 
d="M100 685q0 -10 -2.5 -26.5t-2.5 -26.5v-28q0 -8 0.5 -18t1.5 -21q1 -23 2 -40t1 -28v-9q2 -6 2 -10v-9v-31q-6 -27 -36 -41q-12 -3 -29 5q-20 6 -20 18v17q0 13 -0.5 33.5t-1.5 49.5v92q0 44 -1 43q1 5 1 18q0 5 0.5 11.5t1.5 13.5q6 8 11.5 20t11.5 27q3 10 12 10
q13 0 27.5 -12t14.5 -25q0 -5 3 -16.5t3 -16.5zM100 298q0 -9 -2.5 -26t-2.5 -26v-28q0 -8 0.5 -18.5t1.5 -21.5q1 -22 2 -39t1 -28v-9q2 -6 2 -10v-9v-31q-6 -27 -36 -41q-12 -2 -29 4q-20 8 -20 19v17q0 13 -0.5 33.5t-1.5 49.5v92q0 44 -1 43q1 5 1 18q0 5 0.5 11.5
t1.5 13.5q6 8 11.5 19.5t11.5 26.5q3 11 12 11q13 0 27.5 -12t14.5 -25q0 -5 3 -16.5t3 -17.5z" />
    <glyph glyph-name="section" unicode="&#xa7;" horiz-adv-x="329" 
d="M315 448q-30 -95 -49 -85q24 -45 36.5 -86t12.5 -79q0 -14 -2 -27.5t-5 -27.5q-13 -36 -24 -59t-19 -36q-17 -25 -38.5 -35.5t-48.5 -9.5q-23 2 -38 4t-23 4q-26 9 -54 37q-35 35 -35 92q0 37 17 69q18 39 53 39q25 0 40 -26q6 -34 -15 -53q-9 -9 -48 -26q-6 -5 -6 -17
t6 -18q23 -23 45 -33t46 -10q18 0 36 7q35 29 53.5 62t18.5 75q0 34 -16 62q-24 36 -120 89q-45 26 -74.5 47t-41.5 36q-25 31 -25 72q0 28 14 67q32 59 32 96q0 17 -14 59t-14 60q0 29 17 68q45 98 133 98q42 0 70 -24.5t37 -66.5v-47q0 -18 -1 -20q-4 -20 -14 -32.5
t-26 -20.5q-43 -6 -49 28q-7 10 -7 23q0 19 23 45q25 25 25 35q0 7 -6.5 13.5t-16.5 11.5t-21.5 7.5t-20.5 2.5q-33 0 -61 -18t-37 -49q-1 -4 -1.5 -7t-0.5 -7v-12q0 -76 70 -131l81 -51q50 -32 79 -65q35 -41 35 -83q0 -18 -8 -47zM271 472q-12 80 -82 114q-16 8 -48 15.5
t-81 15.5q-2 -6 -2 -15q0 -51 20.5 -83t66.5 -65q63 -48 93 -40q39 22 33 58z" />
    <glyph glyph-name="dieresis" unicode="&#xa8;" horiz-adv-x="435" 
d="M462 1057q4 0 4 -6q0 -5 -2.5 -14.5t-5.5 -19.5t-6.5 -18t-5.5 -11q-25 -31 -74 -31q-2 0 -8 2t-12 4.5t-10.5 4.5t-4.5 3l-32 44v27q0 25 3 30q4 9 40 37q9 5 13 7.5t5.5 3t2 0.5h3.5t28 -5q33 -6 37 -15q30 -43 25 -43zM246 1057q5 0 5 -6q0 -5 -2.5 -14.5t-5.5 -19.5
t-6.5 -18t-5.5 -11q-25 -31 -74 -31q-2 0 -8 2t-12 4.5t-10.5 4.5t-4.5 3l-33 44v27q0 12 1 20t2 10q4 6 14 15t26 22l13.5 7.5t6 3t2.5 0.5h3q3 0 28 -5q31 -6 37 -15q30 -43 24 -43z" />
    <glyph glyph-name="copyright" unicode="&#xa9;" horiz-adv-x="546" 
d="M542 555q0 -112 -80 -195q-80 -80 -196 -80q-115 0 -195 80t-80 195q0 116 80 196t195 80q116 0 196 -80q80 -83 80 -196zM486 555q0 92 -64 156t-156 64q-91 0 -155 -64q-65 -65 -65 -156q0 -90 65 -155t155 -65q88 0 156 65q64 64 64 155zM394 483q-2 -14 -8 -29
t-15 -27.5t-20 -22t-23 -12.5q-27 -5 -44.5 -8.5t-25.5 -1.5q-17 3 -36.5 6.5t-30.5 11.5q-13 11 -25 21.5t-23 21.5q-4 6 -9 15t-12 22q-8 19 -8 26q0 4 -2.5 12t-2.5 11q0 8 2.5 22.5t2.5 22.5q0 23 20 57q43 73 103 84q31 7 61 -3q49 -25 56 -21q2 0 4.5 3.5t5.5 8
t6.5 8.5t6.5 4q13 0 15 -18q0 -5 -1.5 -15.5t-1.5 -15.5v-51q0 -10 -3 -26q-5 -21 -9 -21q-8 0 -11 21q-1 4 -6 11.5t-5 13.5q0 3 -3 9t-7 12t-8.5 11t-7.5 6q-7 5 -13 10t-13 10q-19 13 -25 13q-1 0 -1 -2q0 3 -15 3q-13 -1 -17.5 -2t0.5 -1q-6 0 -15.5 -5.5t-14.5 -5.5
q-3 -3 -5.5 -7.5t-6.5 -9.5q0 -2 -2.5 -6.5t-5.5 -9.5t-6.5 -9t-5.5 -4q-1 0 -3 -23.5t-3 -74.5l11 -59q1 -5 8.5 -15t20.5 -23q14 -14 57 -23q11 -2 27 3.5t41 20.5q20 8 29 50q6 36 12 36q3 0 5 -4.5t3.5 -10t2 -11.5t0.5 -9z" />
    <glyph glyph-name="ordfeminine" unicode="&#xaa;" 
 />
    <glyph glyph-name="guillemotleft" unicode="&#xab;" horiz-adv-x="597" 
d="M635 120q5 -5 5 -15q0 -14 -8.5 -30.5t-22.5 -16.5q-2 0 -7 4q-10 2 -21.5 5.5t-26.5 9.5q-6 6 -14.5 13.5t-19.5 15.5q-4 2 -18.5 14t-39.5 34t-40.5 36t-23.5 21q-20 16 -42.5 34.5t-49.5 40.5q-6 7 -16 18t-24 25q-21 5 -35 23q-6 6 -6 30q0 16 53 64q8 7 22 19t34 29
q26 35 66 85.5t94 117.5q3 5 10 13t16 21q7 4 15 4q14 0 30.5 -8t16.5 -22q0 -3 -4 -8q-1 -9 -5 -21t-10 -27q-7 -6 -14 -14.5t-15 -19.5q-2 -3 -15 -19t-36 -42q-44 -54 -54 -60q-16 -20 -34.5 -43t-40.5 -49q-4 -4 -9 -9.5t-13 -10.5l27.5 -32.5t38.5 -43.5q35 -26 85 -66
t119 -94q5 -3 12.5 -10t20.5 -16zM392 120q6 -5 6 -15q0 -14 -8.5 -30.5t-21.5 -16.5q-4 0 -8 4q-11 2 -22.5 5.5t-26.5 9.5q-6 6 -14 13.5t-19 15.5q-3 2 -18 14t-42 35l-63 56q-15 11 -37 30t-53 45q-4 4 -13.5 14.5t-26.5 28.5q-24 5 -37 23q-5 8 -5 30q0 7 5 15t18 20
t33.5 30t52.5 47q27 35 66.5 85.5t93.5 117.5q4 5 10.5 13t15.5 21q4 4 16 4q14 0 29 -8.5t15 -21.5t-18 -56q-12 -10 -28 -34q-2 -3 -13.5 -17.5t-33.5 -40.5q-23 -24 -36.5 -40t-20.5 -23q-17 -20 -35 -43t-41 -49q-5 -4 -10.5 -9.5l-10.5 -10.5l27.5 -32.5t38.5 -43.5
q32 -26 82 -66t119 -94q6 -3 14.5 -10t19.5 -16zM602 146q14 -12 22 -18t11.5 -9.5t4 -6t0.5 -7.5q0 -14 -8.5 -30.5t-22.5 -16.5q-2 0 -7 4q-30 10 -48 15q-12 9 -20 16t-14 13q-36 29 -66 54.5t-56 50.5q-20 17 -42.5 35.5t-49.5 39.5l-40 43q-21 5 -35 23q-4 11 -6 18
t0 12q0 16 53 64q20 17 34 29.5t22 18.5q42 51 80 101t80 102q12 14 18 22t9.5 11.5t6 4t7.5 0.5q14 0 30.5 -8t16.5 -22q0 -3 -4 -8q-5 -15 -9 -26.5t-6 -21.5q-9 -11 -16 -19.5t-13 -14.5q-2 -3 -15 -19t-36 -42q-44 -54 -54 -60q-22 -26 -40.5 -49t-34.5 -43
q-4 -4 -9 -9.5t-13 -10.5q65 -72 66 -76q51 -42 100.5 -80t103.5 -80zM358 146q13 -9 26.5 -20t13.5 -21q0 -14 -8.5 -30.5t-21.5 -16.5q-4 0 -8 4q-15 5 -26.5 9t-22.5 6q-11 9 -19 16t-14 13q-8 5 -23.5 16.5t-37.5 31.5q-15 15 -31 29t-31 28q-26 23 -49 41.5t-41 33.5
l-40 43q-24 5 -37 23q-7 18 -5 30q-2 15 20 35q5 4 15.5 14t27.5 26q28 25 46 37q42 51 80 101t80 102q12 14 18 22t9.5 11.5t6 4t8.5 0.5q14 0 29 -8.5t15 -21.5q0 -3 -2.5 -11t-5.5 -17t-6 -17t-4 -11q-19 -23 -28 -34q-29 -35 -54.5 -65t-49.5 -56q-17 -20 -36 -43
t-40 -49q-5 -4 -10.5 -9.5l-10.5 -10.5q31 -36 47.5 -55t18.5 -21q54 -45 104.5 -84.5t96.5 -75.5zM635 120q5 -5 5 -15q0 -14 -8.5 -30.5t-22.5 -16.5q-2 0 -7 4q-10 2 -21.5 5.5t-26.5 9.5q-6 6 -14.5 13.5t-19.5 15.5q-4 2 -18.5 14t-39.5 34t-40.5 36t-23.5 21
q-20 16 -42.5 34.5t-49.5 40.5q-6 7 -16 18t-24 25q-21 5 -35 23q-6 6 -6 30q0 16 53 64q8 7 22 19t34 29q26 35 66 85.5t94 117.5q3 5 10 13t16 21q7 4 15 4q14 0 30.5 -8t16.5 -22q0 -3 -4 -8q-1 -9 -5 -21t-10 -27q-7 -6 -14 -14.5t-15 -19.5q-2 -3 -15 -19t-36 -42
q-44 -54 -54 -60q-16 -20 -34.5 -43t-40.5 -49q-4 -4 -9 -9.5t-13 -10.5l27.5 -32.5t38.5 -43.5q35 -26 85 -66t119 -94q5 -3 12.5 -10t20.5 -16zM392 120q6 -5 6 -15q0 -14 -8.5 -30.5t-21.5 -16.5q-4 0 -8 4q-11 2 -22.5 5.5t-26.5 9.5q-6 6 -14 13.5t-19 15.5
q-3 2 -18 14t-42 35l-63 56q-15 11 -37 30t-53 45q-4 4 -13.5 14.5t-26.5 28.5q-24 5 -37 23q-5 8 -5 30q0 7 5 15t18 20t33.5 30t52.5 47q27 35 66.5 85.5t93.5 117.5q4 5 10.5 13t15.5 21q4 4 16 4q14 0 29 -8.5t15 -21.5t-18 -56q-12 -10 -28 -34q-2 -3 -13.5 -17.5
t-33.5 -40.5q-23 -24 -36.5 -40t-20.5 -23q-17 -20 -35 -43t-41 -49q-5 -4 -10.5 -9.5l-10.5 -10.5l27.5 -32.5t38.5 -43.5q32 -26 82 -66t119 -94q6 -3 14.5 -10t19.5 -16z" />
    <glyph glyph-name="logicalnot" unicode="&#xac;" horiz-adv-x="380" 
d="M357 160q-2 -10 -2 -19v-11t-1 -13q-12 -16 -23 -46q-3 -11 -13 -11q-12 0 -26.5 12t-14.5 25q0 6 -3 17t-3 17q0 8 2 25.5t2 26.5l-4 55l-46 -1h-48h-22h-11t-12 1q-44 0 -43 -1q-14 0 -44 3q-8 6 -19.5 11.5t-25.5 11.5q-11 3 -11 12q0 13 12 26.5t25 13.5q5 0 16.5 4
t17.5 4q11 -2 24 -3.5t28 -1.5q8 0 25 1t43 3q40 1 66 0q28 0 43 4q6 2 8 2q5 0 8 1q7 1 15.5 0t16 -4t12.5 -8t5 -11v-4q1 -4 1 -14v-19v-63v-3q0 -45 2 -43z" />
    <glyph glyph-name="uni00AD" unicode="&#xad;" horiz-adv-x="318" 
d="M342 412q2 -16 -5 -29q-8 -20 -19 -20q10 0 -17.5 -0.5t-82.5 -2.5h-46h-89q-8 0 -18.5 1t-24.5 2q-8 5 -19.5 10.5t-26.5 12.5q-11 3 -11 12q0 13 12 26.5t25 13.5q6 0 17 3.5t17 3.5q9 0 26 -1.5t26 -1.5q14 0 68 3q40 1 66 0h11h8.5t9.5 1q19 3 31 0q17 -2 26 -9
q2 -4 6 -9.5t10 -15.5z" />
    <glyph glyph-name="registered" unicode="&#xae;" horiz-adv-x="546" 
d="M542 555q0 -112 -80 -195q-80 -80 -196 -80q-115 0 -195 80t-80 195q0 116 80 196t195 80q116 0 196 -80q80 -83 80 -196zM486 555q0 92 -64 156t-156 64q-91 0 -155 -64q-65 -65 -65 -156q0 -90 65 -155t155 -65q88 0 156 65q64 64 64 155zM128 418q-3 6 0 10
q1 1 12 1.5t28 4.5q1 4 9 9q4 0 6 23v26q2 11 3.5 22.5t-0.5 23.5q-1 6 -2 18.5t-2 29.5v19q0 8 -0.5 18.5t-1.5 24.5v5q0 3 2 13q0 5 -2.5 11.5t-2.5 10.5q0 9 -25 12q-26 3 -27 9q-7 16 21 16q-6 0 2 -1t30 -2h11h9.5t12.5 1q26 3 29 0l58 -3q8 -1 13.5 -1.5t10.5 -0.5
q11 0 13 -1q28 -3 33 -14q1 -1 7 -5.5t19 -9.5q20 -11 20 -28q0 -4 -1.5 -12t-3.5 -22q-1 -6 -5.5 -12t-12.5 -14q-10 -6 -53 -17q-9 -2 -9 -5q0 -1 4 -3.5t9 -5t9 -5t4 -4.5q23 -20 23 -32q17 -26 11 -26q16 -48 26 -48q9 0 14 15q5 11 2 11t-3 5t4.5 15.5t9.5 10.5
q3 0 3 -6q6 -68 -17 -83q-30 -21 -39 -17q-7 1 -11 2t-6 1q-5 1 -8.5 4t-5.5 6q-7 8 -16 34q-2 8 -2 22q0 8 -0.5 19t-1.5 24q-1 30 -15 41q-23 17 -23 11q0 3 -25 2q-23 -5 -27 -6q-11 -11 -10 -48q-2 -20 0 -57q3 -13 10 -18q1 -2 9.5 -4.5t8.5 -3.5h11q4 1 8 1h4
q5 2 14 -2.5t9 -9.5t-7.5 -9.5t-12.5 -4.5q-3 0 -3 2h-78q-76 0 -77 1zM235 657q0 -6 1.5 -14.5t3.5 -18t3.5 -18t1.5 -14.5q0 -10 47 -7q16 0 37 12l14 18q2 1 4.5 6t4.5 10.5t3.5 11t1.5 8.5t-3 3q-7 16 -19 32q-2 4 -23 11q0 2 -5.5 3.5t-13.5 2.5t-16 1.5t-12 0.5
q-17 -3 -25 -17q-2 -5 -2.5 -12.5t-2.5 -18.5z" />
    <glyph glyph-name="degree" unicode="&#xb0;" horiz-adv-x="177" 
d="M154 737q1 -4 1 -12v-11q0 -28 -9 -52q-17 -35 -37 -42q-3 -2 -10.5 -6.5t-16.5 -2.5q-11 1 -15.5 2t-6.5 1q-6 1 -20 12q-2 4 -5.5 7.5t-8.5 9.5q-1 2 -2 2.5t-1 2.5q-4 5 -6.5 9t-4.5 9q-10 22 -7 32q1 19 -2 19v21q0 26 11 53q5 16 15 23q2 1 4.5 4.5t8.5 10.5
q2 6 27 13q20 5 39 -11q21 -17 21 -20t9 -13q6 -10 13 -26q1 -5 1 -16q0 -4 0.5 -9t1.5 -10zM38 757v-17q0 -8 0.5 -21.5t1.5 -32.5q0 -24 2 -24q2 -6 4.5 -10.5t4.5 -9.5q8 -15 15.5 -17t16.5 -3q4 1 8 3t9 4q5 5 11.5 12t6.5 16q4 0 4 17v52q0 8 -2 23t-2 20t-12 40
q-2 8 -23 16q-5 2 -13 0.5t-15 -7t-11.5 -13.5t-3.5 -19v-9q0 -4 -0.5 -8.5t-1.5 -11.5z" />
    <glyph glyph-name="plusminus" unicode="&#xb1;" horiz-adv-x="242" 
d="M258 326q2 -9 -2.5 -22t-12.5 -13h-35h-10q-2 0 -12 -2h-14h-6v-29v-13v-8.5t-1 -9.5q-8 -12 -17 -32q-2 -6 -8 -6q-8 0 -18.5 8t-10.5 13q0 6 -2.5 14.5t-2.5 13.5q0 6 1.5 18.5t1.5 18.5q0 12 -1 12h-30h-12q-4 0 -8.5 0.5t-9.5 1.5q-6 3 -14 7.5t-19 9.5q-7 1 -7 7
q0 10 8.5 20t17.5 10q3 0 11 2t12 2q6 0 18.5 -1.5t18.5 -1.5h14q-3 16 0 25v7q0 3 -2 13q-2 15 0 21q3 19 23 28q10 2 23 -2t13 -13v-36v-9q0 -7 1 -12v-14v-5h20h9q3 0 13 2q28 0 40 -6q2 -3 10 -19zM252 137q2 -9 -2 -21.5t-13 -12.5h-9h-23.5t-38.5 -1h-34h-60h-13h-8
t-9 1q-10 6 -33 17q-6 3 -6 8q0 8 8 18.5t14 10.5q5 0 13.5 2.5t13.5 2.5q9 -4 37 -4h15q5 0 13 0.5t18 1.5q36 3 48 0h7q3 0 13 2q14 2 22 0q18 -3 27 -25z" />
    <glyph glyph-name="uni00B2" unicode="&#xb2;" horiz-adv-x="243" 
d="M208 591q0 -10 -2.5 -26t-2.5 -25q0 -17 -2 -19.5t-6 -6.5l-1 -5h-8q-2 -1 -8 -1q-44 -3 -69 0q-12 1 -24 0q-24 -3 -25 -3h-28q-21 2 -18 13q0 2 5.5 8t5.5 8q0 -4 9 17q4 4 7.5 9t9 12.5t16 18t28.5 27.5q10 6 16.5 11t10.5 11q1 6 9 15q4 4 18 36q9 0 6 44
q-1 14 -2 23t-2 14q-3 4 -3 6q0 10 -26 28q0 3 -17 3q-11 1 -16 -1t-9 -5t-9.5 -7t-16.5 -7q-13 -22 -11 -31q5 -5 14 -9q25 -6 25 -26q0 -14 -8.5 -24.5t-21.5 -10.5q-12 0 -20 7q-14 16 -17 33q-2 13 0 27q2 6 6.5 16t12.5 23q6 6 12.5 11t11.5 10q0 6 33 17q6 0 47 -3
q19 -1 36 -16.5t23 -34.5q8 -27 8 -36q0 -12 -4.5 -26t-12.5 -31q-2 -4 -3 -6.5t-3 -6.5q-5 -1 -7.5 -4t-2.5 -6l-14 -14q-7 -1 -15 -13q-8 -5 -17 -11.5t-18 -14.5q-4 -6 -13 -11q-7 0 -27 -29q-6 -5 -6 -9q0 -12 40 -12l29 3q37 0 49 9q1 1 2.5 5.5t3 10t3 9.5t3.5 4
q-3 0 6 26q3 3 7 0q3 -3 3 -6v-18z" />
    <glyph glyph-name="uni00B3" unicode="&#xb3;" horiz-adv-x="223" 
d="M197 558q11 0 -12 -26l-11 -14q0 -1 -7 -4.5t-7 -7.5q-13 -5 -22.5 -8.5t-9.5 -5.5q0 -7 -34 -4q-38 2 -62 14q-7 7 -7 4q0 8 -9.5 16.5t-9.5 17.5q-1 47 23 52q6 0 20 -3q3 -1 16 -14q1 -1 1 -10v-10l-9 -12q-4 -1 -7.5 -4t-9.5 -8q-3 -12 12 -17q22 -9 22 -6
q0 -3 20 -3q21 0 21 3q26 9 33 34q4 7 4 56q0 25 -10 31q-9 6 -13 10.5t-7 7t-6.5 4t-12.5 1.5q-5 -1 -11 -1h-11t-11 -0.5t-13 -1.5q-8 0 -8 3q5 5 9 13l34 3q19 0 19 3l11 4q8 0 15.5 11.5t7.5 19.5q1 11 2 24t-1 28q0 9 -5.5 16.5t-13.5 12.5t-17.5 7.5t-18.5 2.5
q-5 -2 -11.5 -3t-14.5 -5q-5 -2 -5 -11q0 -5 7 -9.5t7 -17.5q2 -16 -5 -20q-20 -16 -38 -8q-12 4 -14 20q1 -4 1 -4.5t0 2.5v28q0 6 6 13.5t14.5 14.5t17.5 12t16 6q6 2 43 2q5 0 13.5 -2.5t13.5 -2.5q12 0 22 -8t17.5 -20.5t11 -26.5t1.5 -26q-3 -26 -25 -42
q-8 -11 -15 -12q0 -4 -16 -8q-7 0 -4 -7q0 -3 12 -10q9 -1 31 -20q7 -6 12 -20q8 0 11 -26q3 -28 -3 -28z" />
    <glyph glyph-name="acute" unicode="&#xb4;" horiz-adv-x="409" 
d="M440 1138q-2 -7 -5.5 -15.5t-6.5 -19.5q-4 -12 -34 -37q-32 -23 -42 -23l-6 -6q-13 -5 -27 -11t-31 -14l-3 -7q-21 -8 -43 -18.5t-47 -23.5q-5 -5 -7 -5q-6 2 -10 2l-1 -8q-55 -26 -77 -26q-20 0 -31 20q2 4 5.5 7t7.5 7q5 14 46 58q17 18 31 31.5t26 24.5
q8 10 21.5 25.5t30.5 38.5l11 2l4 11l10 7q1 4 4 7.5t6 6.5l17 6q16 25 26 25q6 0 8 -1q7 3 17.5 6.5t25.5 6.5q9 -6 25 -7q30 -21 34 -34q10 -30 15 -36z" />
    <glyph glyph-name="mu" unicode="&#xb5;" horiz-adv-x="486" 
d="M71 -137q-10 2 -24 8.5t-14 14.5v1l14 61l13 58q2 10 3.5 16t1.5 9q0 2 -1 2q2 4 4 10.5t5 14.5q2 2 4 3t4 3v30q0 44 -3 124q1 4 1 13v15q0 20 -1 44t-3 53q-1 4 -6.5 12t-5.5 11q0 14 -28 23q-18 6 -35.5 11.5t-17.5 13.5q0 3 3.5 6t8 6t9 5t6.5 2t2 -1q70 4 81 6
q11 4 22 4q45 0 48 -36v-15q0 -27 -2 -62t-5 -78q-1 -5 -1 -15.5v-27.5v-90v-46q0 -5 6 -14.5t6 -12.5q0 -5 5 -8t11 -5.5t11 -4t5 -2.5q6 -8 16 -8q5 0 15 3t14 3q5 0 16.5 3.5t12.5 7.5q16 13 37 43q2 4 4 11t7 18q9 25 14 25t8 66q1 10 1 19v18t0.5 18t1.5 19v15
q0 99 -79 103l-24 3q-8 2 -11 7t-5 10v3q0 9 10 13t10 7h163q22 -1 22 -38q0 -9 -1.5 -25t-1.5 -21q-3 -134 -5 -134v-3q0 -2 -0.5 -4t-0.5 -6q0 -9 0.5 -24.5t1.5 -38.5q1 -37 2.5 -57.5t2.5 -26.5q5 -19 22.5 -24.5t34.5 -9.5q6 -2 12.5 -12t6.5 -16q0 -7 -7 -7t-19.5 -1
t-26.5 -2.5t-27.5 -2.5t-22.5 -1q-32 0 -53 10q-12 4 -12 35v11q0 19 -10 19q-4 0 -5 -1q-3 -1 -6 -5.5t-5.5 -9.5l-4.5 -9t-3 -5q-37 -46 -108 -46q-32 0 -68 14q-2 -11 -6 -30q-2 -16 -4 -26.5t-3 -15.5q-1 -1 -4 -18v-5q0 -9 -4 -14q-3 -11 -10.5 -14t-24.5 -5z" />
    <glyph glyph-name="paragraph" unicode="&#xb6;" horiz-adv-x="463" 
d="M435 0q-23 7 -49 9.5t-55 1.5q-9 0 -82 -6l-32 9q2 16 41 38q41 26 51 46q-1 12 0 34q3 25 3 36q0 41 -38 58q-20 2 -49 3t-68 5q-68 6 -95 57q-52 42 -64 132q-1 22 -2.5 54t-4.5 75q-2 28 6 60t28 70q23 45 51.5 74t61.5 44q53 38 150 38q25 0 78 -3q49 -2 69 0
q-5 -85 -7.5 -186t-2.5 -221q0 -121 2.5 -226t7.5 -202zM386 709q0 45 -3 57q-8 31 -40 26q-4 -52 -6 -103.5t-2 -103.5q0 -45 2 -109.5t6 -152.5t6 -151.5t2 -108.5h27q4 48 6 98.5t4 110.5q1 81 0 213zM294 283q-3 69 0 255q1 81 -1 143.5t-5 110.5q-19 11 -40 11
q-32 0 -66 -25l-8 -453q8 -23 32.5 -37t50.5 -14q20 0 37 9z" />
    <glyph glyph-name="cedilla" unicode="&#xb8;" horiz-adv-x="402" 
d="M431 -146q0 -25 -14 -56l-9 -18q-20 -27 -23 -28q-13 -11 -30 -14l-12 -6q-2 0 -8 -2q-4 -2 -7 -4t-5 -4l-18 -4h-17q-2 -1 -10 -1q-19 0 -23 -2q-9 2 -22 4.5t-19 2.5l-8 4l-11 3q-2 2 -6.5 4t-11.5 7q-3 -3 -19 0l-10 6q-11 3 -13 2q-26 1 -27 9q-86 23 -86 58v20
q9 8 14.5 12.5t6.5 6.5q5 2 11.5 4t14.5 4q11 -15 103 -53q1 1 7 -0.5t12.5 -3.5t12 -3.5t7.5 -1.5h15q8 2 9 2h7q5 0 10.5 1t10.5 5q8 4 12.5 6.5t8.5 4.5t8 4.5t11 7.5l2 27q0 14 -5 19q0 38 -63 38q-12 0 -22 -3q-6 2 -17 2q-1 2 -4.5 8t-8.5 16l-2 13l9 18q5 3 5 8
q0 4 -4.5 11t-4.5 10q3 2 5 5l4 6l54 -1q1 -3 1 -8v-9v-9q0 -7 -1 -10q3 2 7.5 4.5t9.5 5.5q5 -4 10 -4t10 4q2 -5 6 -5q2 0 4 5q10 -4 11 -10q4 2 11 2q12 0 20 -6l8 1q7 -3 14 -6.5l15 -7.5q16 -11 18 -24q3 0 8 -5q0 -1 7 -9.5t8 -13.5l10 -21q2 -11 0 -20q3 0 3 -8z" />
    <glyph glyph-name="uni00B9" unicode="&#xb9;" horiz-adv-x="208" 
d="M191 488q9 -3 9 -10q0 -6 -12 -9h-6q-2 0 -8 2h-14q-47 1 -63 0q-82 -7 -82 9q0 8 16 9q3 -1 9 -1h9q27 3 34 9.5t3 34.5v93q-1 55 0 61q0 10 -3 31q0 4 -5.5 7.5t-5.5 4.5q0 3 -21 3h-23q-17 3 -20.5 8t-1.5 5l8.5 8.5t22.5 3.5q12 2 23 0q1 1 5 1q1 0 9 2q19 0 24 15
q4 7 7 10l9 10h11q1 -1 3 -2.5l6 -4.5l-2 -74q-2 -69 0 -200q0 -9 11 -20q7 -4 23 -6h25z" />
    <glyph glyph-name="ordmasculine" unicode="&#xba;" horiz-adv-x="978" 
d="M954 498q9 -39 9 -69q0 -106 -94 -124q-24 -2 -49 -4t-49 -4q-52 12 -68 57q-1 3 -2 6.5t-1 7.5q0 5 3.5 13t8.5 16q4 11 12 18t16 12.5l16 11t12 13.5q-15 3 -28 3q-7 0 -28 -4.5t-57 -15.5q-24 -14 -24 -40q0 -10 9 -17l11 -7q-26 -48 -77 -48q-16 0 -29 6
q-13 13 -31 13q-4 0 -12.5 -1t-17.5 -2.5t-18 -2.5t-14 -1q-15 -20 -46 -20q-6 0 -11 1l-10 2l-3 7q-12 -18 -31.5 -26t-42.5 -11t-46.5 -3.5t-41.5 -2.5q-117 0 -171 75q-26 44 -26 94q0 121 174 121q55 -10 55 -66q0 -51 -29 -71v-4q26 3 45 7.5t32 7.5q44 14 68 42
q4 7 4 18q0 13 -8 24.5t-21 11.5q9 12 29 12q7 0 42 -6l12 -6q7 -3 12 0q7 10 22 10q5 0 13 -2t16.5 -5t16.5 -5t12 -2q19 0 27 24q9 -16 24 -16q7 0 20.5 4.5t33.5 15.5q40 22 60 22q8 0 20 -5q37 14 75 14q55 0 103.5 -25.5t72.5 -73.5zM918 498q-44 74 -149 74
q-18 0 -37 -3q-4 1 -7 1.5t-7 0.5h-12q-15 0 -36 -4.5t-48 -15.5q-54 -20 -85 -20q-3 -25 14 -25q5 0 13 2.5t17 6t17.5 6t13.5 2.5q8 0 14 -3q-2 -5 -21 -14q10 2 28 5t42 9q45 12 71 12q11 0 20 -1t19 -5v-6q-6 2 -10 2h-10q-11 0 -23.5 -2.5t-29.5 -5.5l-50 -12
q-8 -2 -18.5 -5.5t-21.5 -11.5q-15 -11 -24.5 -15.5t-11.5 -6.5q5 2 19.5 7t20.5 5q9 0 17 -9l-14 -11q-5 1 -12 -2t-14 -7t-13 -7.5t-8 -3.5q-9 0 -20 17l10 11q-5 0 -20 -5.5t-40 -15.5q-10 10 -10 18q6 9 40 20q31 9 38 18l-65 -21q-9 4 -9 8q0 3 6 8.5t6 9.5
q0 3 0.5 4.5t-3 5t-13 9t-28.5 15.5q-3 -14 0 -39q2 -17 3 -26.5t1 -13.5q0 -16 -4 -23q12 3 21 3q22 0 51 -20q12 -8 23.5 -16.5t22.5 -16.5l-6 -16q-16 5 -49 34q-14 12 -26 12q-5 0 -13.5 -3.5l-17 -7t-16.5 -7t-12 -3.5q-11 0 -21 9q2 4 -1.5 10.5t-8 12.5t-9 11.5
t-4.5 8.5q0 8 6 14l17 -15q9 27 7 32q-15 55 -46 54q7 -17 0 -36q-18 -45 -87 -75q-57 -25 -119 -25q-27 0 -38 8q-37 18 -37 54q0 12 6 20q12 38 60 38q23 -5 23 -20q0 -22 -18 -29q-6 -1 -10.5 -2.5t-9.5 -3.5q-1 -7 15 -25q24 0 49 25q4 8 5 16.5t1 18.5q0 45 -27 60
q-21 3 -42 3q-115 0 -115 -96q0 -72 43.5 -112.5t116.5 -40.5q20 0 63.5 8t113.5 23q23 0 40.5 13t19.5 36q3 -6 5 -12t4 -11t5.5 -7.5t9.5 -1.5q17 0 40 38q14 0 31 -35q11 -8 29 -8q8 0 16.5 1.5t19.5 3.5l-8 46q2 35 37 48q9 2 23 5.5t32 9.5q12 4 31.5 5t47.5 1
q66 0 95 -47q8 -54 -29 -68q-14 -2 -22 -3.5t-10 -1.5q-22 0 -31 16q-3 24 14 24h4q4 0 6 -1h11q14 0 22 12q-4 25 -30 25q-3 0 -6.5 -1t-6.5 -2q-59 -26 -59 -54q0 -5 2 -11q11 -26 40 -42q164 0 164 114q0 40 -14 66zM418 414q0 -20 -21 -20q-20 0 -20 20t20 20
q21 0 21 -20zM375 394q0 -17 -18 -17q-17 0 -17 17q0 18 17 18q18 0 18 -18zM334 377q0 -15 -16 -15q-15 0 -15 15t15 15q16 0 16 -15zM286 365q0 -11 -11 -11q-12 0 -12 11q0 12 12 12q11 0 11 -12zM238 357q0 -11 -10 -11q-11 0 -11 11q0 12 11 12q10 0 10 -12zM202 354
q-14 -11 -37 -11q-51 0 -48 35q16 -18 37 -18q8 0 20.5 4t17.5 4q7 0 10 -14z" />
    <glyph glyph-name="guillemotright" unicode="&#xbb;" horiz-adv-x="597" 
d="M640 382q2 -5 -0.5 -12t-5.5 -18q-11 -18 -36 -23l-40 -43q-20 -16 -42.5 -34.5t-49.5 -40.5q-7 -7 -22 -21t-39 -35q-27 -22 -42 -34.5t-18 -14.5q-6 -6 -14 -13t-19 -16q-11 -2 -22.5 -6t-26.5 -9q-1 -4 -8 -4q-13 0 -21.5 16.5t-8.5 30.5q0 5 0.5 7.5t4 6t11.5 9.5
t22 18l203 160q2 2 18.5 21t47.5 55q-7 5 -12.5 10.5t-8.5 9.5q-21 26 -40 49t-36 43q-24 26 -49.5 56t-54.5 65q-9 11 -28 34q0 3 -3 11t-6 17t-6 17t-3 11q0 14 15 22t29 8q6 0 8.5 -0.5t6 -4t9.5 -11.5t18 -22q42 -52 80 -102t80 -101q18 -12 46 -37q17 -16 27.5 -26
t15.5 -14q20 -20 20 -35zM398 382q2 -5 0 -12t-6 -18q-14 -18 -35 -23l-42 -43q-18 -15 -41 -33.5t-49 -41.5l-30 -28t-30 -29q-42 -37 -62 -48q-6 -6 -14.5 -13t-19.5 -16q-9 -2 -21.5 -6t-27.5 -9q-4 -4 -8 -4q-13 0 -21 16.5t-8 30.5q0 5 0.5 7.5t4.5 6t11.5 9.5l22.5 18
q51 39 100.5 78.5t100.5 81.5q2 2 19 21t49 55q-7 5 -12.5 10.5l-9.5 9.5q-16 20 -34.5 43t-40.5 49q-5 4 -19 19t-37 41q-22 26 -34.5 42t-14.5 19q-5 6 -12.5 14.5t-16.5 19.5q-2 10 -6 21.5t-9 26.5q-3 4 -3 8q0 14 16 22t30 8q8 0 15 -4q2 -2 7.5 -10.5t18.5 -23.5
l160 -203q8 -6 22 -18.5t34 -29.5q53 -48 53 -64zM640 382q0 -21 -6 -30q-14 -19 -36 -23q-17 -18 -26.5 -28.5t-13.5 -14.5q-17 -15 -40 -34t-52 -41q-7 -7 -22 -21t-39 -35q-27 -22 -42 -34.5t-18 -14.5q-11 -8 -19.5 -15t-13.5 -14q-15 -6 -27.5 -9.5t-21.5 -5.5
q-1 -4 -8 -4q-13 0 -21.5 16.5t-8.5 30.5q0 11 4 15q13 9 21 16t13 10q67 54 117.5 94t85.5 66q22 24 38.5 43.5l27.5 32.5l-10.5 10.5t-10.5 9.5q-22 26 -40.5 49t-35.5 43q-7 7 -20.5 23t-36.5 40q-22 26 -33.5 40.5t-13.5 17.5q-16 24 -28 34q-18 43 -18 56q0 14 15 22
t29 8q12 0 16 -4q9 -13 15.5 -21t10.5 -13q54 -67 93.5 -117.5t66.5 -85.5q31 -28 53.5 -47t35.5 -30q20 -20 20 -35zM398 382q-2 -21 -6 -30q-14 -18 -35 -23q-19 -20 -29.5 -30.5l-12.5 -12.5q-31 -26 -53 -45t-37 -30q-2 -2 -17.5 -16.5t-44.5 -40.5q-44 -41 -60 -48
q-11 -8 -19.5 -15.5t-14.5 -13.5q-15 -6 -26.5 -9.5t-22.5 -5.5q-4 -4 -8 -4q-13 0 -21 16.5t-8 30.5q0 10 5 15q11 9 19.5 16t14.5 10q69 54 119 94t82 66q22 24 39 43.5t29 32.5q-10 8 -15 13l-7 7q-18 22 -36.5 45t-38.5 47q-5 4 -19 19t-37 41q-22 26 -34.5 42t-14.5 19
q-20 27 -29 34q-6 15 -10 27t-5 21q-3 4 -3 8q0 14 16 22t30 8q8 0 15 -4q9 -13 16 -21t10 -13q54 -67 94 -117.5t66 -85.5q19 -17 32.5 -29t23.5 -19q56 -47 53 -64zM640 382q2 -5 -0.5 -12t-5.5 -18q-11 -18 -36 -23l-40 -43q-20 -16 -42.5 -34.5t-49.5 -40.5
q-7 -7 -22 -21t-39 -35q-27 -22 -42 -34.5t-18 -14.5q-6 -6 -14 -13t-19 -16q-11 -2 -22.5 -6t-26.5 -9q-1 -4 -8 -4q-13 0 -21.5 16.5t-8.5 30.5q0 5 0.5 7.5t4 6t11.5 9.5t22 18l203 160q2 2 18.5 21t47.5 55l-10.5 10.5t-10.5 9.5q-21 26 -40 49t-36 43q-24 26 -49.5 56
t-54.5 65q-9 11 -28 34q0 3 -3 11t-6 17t-6 17t-3 11q0 14 15 22t29 8q6 0 8.5 -0.5t6 -4t9.5 -11.5t18 -22q42 -52 80 -102t80 -101q18 -12 46 -37q17 -16 27.5 -26t15.5 -14q20 -20 20 -35zM398 382q2 -5 0 -12t-6 -18q-14 -18 -35 -23l-42 -43q-18 -15 -41 -33.5
t-49 -41.5l-30 -28t-30 -29q-42 -37 -62 -48q-6 -6 -14.5 -13t-19.5 -16q-9 -2 -21.5 -6t-27.5 -9q-4 -4 -8 -4q-13 0 -21 16.5t-8 30.5q0 5 0.5 7.5t4.5 6t11.5 9.5l22.5 18q51 39 100.5 78.5t100.5 81.5q2 2 19 21t49 55q-7 5 -12.5 10.5l-9.5 9.5q-16 20 -34.5 43
t-40.5 49q-5 4 -19 19t-37 41q-22 26 -34.5 42t-14.5 19q-5 6 -12.5 14.5t-16.5 19.5q-2 10 -6 21.5t-9 26.5q-3 4 -3 8q0 14 16 22t30 8q8 0 15 -4q2 -2 7.5 -10.5t18.5 -23.5l160 -203q8 -6 22 -18.5t34 -29.5q53 -48 53 -64z" />
    <glyph glyph-name="onequarter" unicode="&#xbc;" horiz-adv-x="495" 
d="M185 454q-2 -6 -136 -6q-1 0 -12 -5.5t-19 -5.5q-14 0 -16 23q-3 9 15 9q-7 -1 -8.5 -1t0.5 0h29q47 0 47 47q0 84 -1.5 136t-5.5 75l-12 14q-48 0 -69 8l-5 9q12 17 23 17q-2 0 5 -1t22 -2q52 10 52 20q6 10 18 21l13 2l10 -9q-1 -36 -2 -88.5t-1 -124.5v-95
q0 -19 14 -19q4 0 11 2t11 2q17 0 17 -28zM494 797q-2 -11 -6.5 -22.5t-10.5 -26.5q-6 -6 -13 -14.5t-16 -19.5q-84 -161 -127 -243t-50 -89q-32 -57 -67 -115t-73 -121q-6 -6 -16.5 -24.5t-25.5 -52.5q-27 -58 -41 -58q-26 0 -40 23q-6 7 -6 29q0 24 61 91q11 13 33 51
t53 104q32 66 54 104t32 49q29 27 87 166q58 138 87 167q4 8 10.5 15.5t15.5 18.5q5 5 14 5q14 0 30 -8t16 -21q0 -7 -1 -8zM491 112l-13 -15h-38q-17 -5 -17 -29q0 -46 22 -46h26q18 -3 18 -11q0 -11 -21 -11h-130q-38 0 -38 9q0 11 25 11q18 0 27.5 1t13.5 6.5t5 17
t3 32.5l-8 18l-17 2h-15q-7 0 -16 -0.5t-21 -1.5q-39 -1 -46 7l-3 9q1 3 2.5 9l3.5 14q23 38 58 93.5t83 130.5l16 8q14 0 14 -20q0 -11 -1 -28.5t-2 -40.5q-2 -22 -3 -39t-1 -29q0 -41 7 -63q3 -9 13.5 -10.5t22.5 -2.5t21 -4t9 -15v-2zM375 192q0 73 -10 73q-4 0 -14 -16
l-73 -107q0 -11 77 -11q18 0 20 24v37z" />
    <glyph glyph-name="onehalf" unicode="&#xbd;" horiz-adv-x="528" 
d="M186 454q-2 -6 -134 -6q-3 0 -14 -5.5t-16 -5.5q-16 0 -19 23q-2 9 15 9q-6 -1 -7.5 -1t0.5 0h31q26 0 35 10.5t9 36.5q0 84 -1 136t-5 75l-12 14q-48 0 -70 8l-4 9q12 17 23 17q-2 0 4.5 -1t21.5 -2q52 10 52 20q8 12 19 21l12 2l11 -9q-1 -18 -1.5 -40.5t-0.5 -48.5
v-124v-95q0 -19 13 -19q3 0 10.5 2t10.5 2q17 0 17 -28zM495 797q-2 -11 -6.5 -22.5t-10.5 -26.5q-5 -6 -12 -14.5t-15 -19.5q-164 -318 -179 -332q-31 -57 -66.5 -115t-73.5 -121q-5 -5 -40 -77q-27 -58 -43 -58q-23 0 -40 23q-6 9 -6 29q-2 24 62 91q11 13 32.5 51
t53.5 104q65 132 86 153q28 28 86 166q61 141 88 167q5 8 11.5 17t14.5 17q5 5 15 5q13 0 29 -8t16 -21q0 -6 -2 -8zM509 106q0 -42 -9 -91l-8 -10q-38 -7 -174 -7q-30 0 -27 14v3q20 25 41 62q12 21 45 48q34 27 46 43q7 2 20 40q6 0 6 50q0 39 -15 65l-22 15l-40 2
l-35 -22q-14 -26 -14 -30v-3q2 -2 7.5 -5.5t18.5 -11.5q17 -12 17 -25q0 -14 -9 -26t-23 -12q-20 0 -31.5 18t-11.5 40q0 19 8.5 38t23 34t32.5 24t37 9q51 0 82 -25.5t31 -76.5q0 -59 -50 -103q-2 -2 -60 -48q-50 -39 -50 -53q6 -14 32 -14q83 0 100 12q6 6 21 63q0 2 4 2
q7 0 7 -19z" />
    <glyph glyph-name="threequarters" unicode="&#xbe;" horiz-adv-x="494" 
d="M214 543q0 -58 -82 -92q0 -5 -23 -5q-63 0 -94 22q-3 3 -7 10t-10 16q-4 5 -4 29q0 11 4 20q20 20 28 20q5 0 17 -3l17 -17l2 -20l-7 -7t-10 -10.5t-9 -10.5t-4 -6q0 -9 14 -15t25 -6l47 1q42 21 42 68q0 19 -1 30.5t-4 20.5t-10 17t-19 20q-11 3 -20 5t-17 1l-35 -3
q-9 0 -9 3q0 6 9 15q55 0 72 11q28 0 28 63q0 74 -59 74q-38 0 -38 -22l5 -10q10 -6 10 -24q0 -8 -6 -18q-17 -14 -29 -14q-29 0 -29 31q0 38 23.5 59t65.5 21q109 0 109 -85q0 -34 -26 -60q-42 -21 -42 -27q0 -3 28 -25q28 -21 36 -34q12 0 12 -43zM492 797
q-2 -11 -6.5 -22.5t-10.5 -26.5q-5 -6 -12 -14.5t-15 -19.5q-165 -318 -179 -332q-31 -57 -66.5 -115t-73.5 -121q-5 -5 -40 -77q-27 -58 -43 -58q-23 0 -40 23q-6 9 -6 29q-3 22 62 91q20 21 40.5 59t45.5 95q47 112 87 155q20 22 42.5 63.5t48.5 101.5q56 134 88 177
q5 5 9.5 12t10.5 12q5 5 15 5q13 0 29 -8t16 -21q0 -6 -2 -8zM489 112l-12 -15h-37q-18 -5 -18 -29q0 -46 23 -46h24q19 -3 19 -11q0 -11 -22 -11h-128q-38 0 -38 9q0 11 23 11q18 0 28 1t14.5 6.5t5.5 17t1 32.5l-7 18l-16 2h-15q-7 0 -16 -0.5t-21 -1.5q-39 -1 -46 7l-5 9
q4 6 6 23q25 38 60 93.5t83 130.5l16 8q12 0 12 -20q0 -23 -3 -69q-3 -44 -3 -68q0 -20 1 -35t5 -28q3 -10 13.5 -11.5t22.5 -2.5t21 -3.5t9 -14.5v-2zM374 192q0 73 -9 73q-4 0 -16 -16q-35 -52 -53.5 -79t-18.5 -28q0 -11 78 -11q16 0 19 24v37z" />
    <glyph glyph-name="questiondown" unicode="&#xbf;" horiz-adv-x="311" 
d="M82 702q0 81 73 81q62 0 77 -66v-17l-1 -17q-13 -17 -13 -21q0 -2 -6 -8q-9 -9 -24.5 -17.5t-24.5 -8.5q-17 0 -32 7q-17 11 -26.5 16.5t-10.5 6.5q-12 15 -12 44zM320 188q0 -6 -1.5 -15t-4 -19t-4 -18.5t-1.5 -13.5q0 -10 -14 -33q-5 -11 -8.5 -18t-3.5 -11
q0 -7 -31 -29q-15 -11 -24 -18.5t-13 -12.5q-11 -20 -44 -20q-8 0 -20 2t-25 5t-25 5t-19 2q-23 0 -44 26q-3 5 -9 16.5t-17 31.5q-7 15 -7 30q0 48 -16 48q1 2 2 5t2 7q2 6 4 14t6 19q2 5 4 15.5t5 24.5q3 4 10 20q6 21 29 47q11 14 19 24.5t12 17.5q3 4 8 9.5t13 15.5
q12 37 20 37q12 0 29 32q8 14 12.5 25.5t6.5 20.5q3 17 5 32.5t2 29.5q-1 16 -16 16q-27 0 -40.5 -17.5t-13.5 -43.5q0 -6 -7 -19t-7 -23q1 -9 0 -27q-4 -23 -8 -24.5t-8 -1.5q-18 0 -18 33q0 8 2.5 22t2.5 23q0 12 10 43q12 35 17 35l36 36q6 8 23 8q36 0 43 -16
q8 -13 13.5 -22.5t7.5 -17.5q3 0 3 -11q0 -10 -2.5 -30.5t-7.5 -52.5q-22 0 -31 -35q-4 -15 -6.5 -30t-5.5 -30q-2 -5 -7 -14.5t-13 -24.5q-6 -11 -8 -20t-4.5 -19t-6 -23t-12.5 -31q-17 -40 -17 -54q0 -10 1 -23.5t5 -33.5l5 -39q0 -11 7 -19t16 -13.5t18 -8.5t14 -2
q38 0 63 31q7 6 15 14.5t17 20.5q1 2 4 7.5t6.5 12t6 12t2.5 8.5l5 20q6 30 6 31q0 12 -2 27t-6 35q0 3 -4.5 8.5t-15.5 11.5q-7 4 -14 1q-2 -1 -4.5 -2t-6.5 -2q-23 0 -27 -79q-3 -51 0 -72q9 -62 -13 -62q-14 0 -23 16q-20 34 -20 94q0 58 25 83q2 5 5.5 11.5t6.5 15.5
l11 11q5 5 9 17q4 8 16.5 12.5t23.5 2.5q27 0 44 -19.5t21 -47.5q3 -29 5.5 -44.5t0.5 -18.5z" />
    <glyph glyph-name="Agrave" unicode="&#xc0;" horiz-adv-x="854" 
d="M532 946q-11 -20 -30 -20q-22 0 -77 26l-2 8h-4q-1 0 -5 -2q-21 0 -49 19q-20 13 -32 19.5t-16 8.5l-3 7q-17 8 -31.5 14t-27.5 11l-6 6q-9 0 -41 23q-30 25 -34 37q-2 2 -4.5 10t-7.5 25q1 3 5 12t10 24q4 13 34 34q8 1 13.5 3t10.5 4q8 -3 18.5 -6.5t24.5 -6.5q3 1 8 1
q11 0 26 -25l17 -6q4 -3 6.5 -6.5t4.5 -7.5l9 -7l5 -11l11 -2q8 -9 18 -21.5l22 -27.5q3 -3 6.5 -7.5t5.5 -7.5q11 -11 25.5 -24.5t31.5 -31.5q20 -22 31 -36t15 -22l7 -7t5 -7zM862 23q-22 -8 -37 -8q-8 0 -24 1t-39 2q-44 3 -64 0q-8 5 -20 2h-3q-3 0 -8 -0.5t-13 -1.5
q-5 4 -11 4q-3 -2 -6 -3t-5 -2l-23 1q-1 -1 -4 -1l-2 1h-21q-7 1 -14 1.5t-14 0.5h-28q-49 0 -74 9l-7 19q1 4 7 12q4 1 5.5 1.5t5.5 1.5t11.5 2t23.5 3q19 1 36 0l3 1q3 -1 9 -1h8q18 0 24 10l10 22q0 7 1 8q0 5 -2 14.5t-5 23.5q-8 30 -14 34q-3 16 -10 23q-1 17 -7 23
q-3 21 -9 26q0 5 -4 14.5t-4 13.5l-14 14l-4 2l-4 2l-17 7h-23q-12 0 -15 -3q-12 0 -12 -2q-14 1 -28 1.5t-28 0.5h-54h-26q-11 -3 -12 -7q-9 0 -15 -9l-8 -9q0 -14 -5 -17q-2 -11 -6 -12q0 -9 -1.5 -24t-4 -31t-4 -31t-1.5 -24q0 -8 1 -12t2 -6v-5l17 -24q14 -3 33 -19
q5 -1 7.5 -2t4.5 -2q9 0 27.5 1.5t27.5 1.5q7 0 26 -16l5 -13q-8 -17 -20 -24h-35h-10q-4 0 -10 2h-16h-126q-27 0 -84 -6q-28 -4 -49 -5t-35 -1q-5 0 -20 3l-15 12l-3 23q4 4 8.5 9t9.5 11l14 5q16 0 20 4h8q34 0 35 7q7 0 10 3q19 0 17 1q9 3 27 12l3 5q3 2 8.5 7t11.5 11
t10.5 11.5t5.5 7.5l4 6q2 4 4.5 9.5t6.5 13.5q0 27 12 36q12 40 14 40q2 5 4.5 13.5t6.5 21.5q1 2 8 9q0 16 4 20q0 20 6 28q2 6 3.5 13.5t3.5 18.5q5 13 18 37q5 12 9 26l5 5q9 43 9 46q8 35 16 40l1 5q0 2 1 4.5t2 4.5q7 43 19 51q1 3 2 5l2 4q2 8 4 21t5 33q10 46 17 49
q0 5 1.5 15t3.5 25q4 30 8 34q2 22 14 44q1 18 18 54q6 0 9.5 2t7.5 6h12q6 2 8 2h6l12 -4t14 -6q2 -4 5 -8t8 -9q15 -76 26 -84q0 -4 1 -13t5 -26q6 -32 8 -34q0 -17 12 -27l8 -20q0 -23 7 -31q9 -50 19 -54l14 -37q0 -5 9 -35q11 -28 15 -32q2 -11 6 -24t11 -27
q3 -17 17 -43q0 -3 1 -8.5t2.5 -11t3.5 -10.5t4 -6q1 -5 2.5 -7.5t3.5 -4.5q0 -13 5 -15q4 -30 10 -36q3 -32 11 -38q0 -4 2 -12t5 -16t6.5 -15.5t6.5 -10.5q4 -18 9 -23q0 -6 1.5 -9.5t3.5 -7.5q0 -5 3 -15q2 -2 6.5 -10t15.5 -23l26 -15q0 -2 9 -6q11 2 20 -2q6 0 9.5 1
t5.5 2q8 -1 15 -1h12q9 0 15 -2q24 -6 24 -26zM498 363q0 25 -7 28q-3 19 -6 21q-2 8 -5 17t-6 20q-3 2 -5.5 7t-5 10.5t-4.5 10t-2 5.5t-2.5 11t-8.5 30q-2 7 -5.5 15t-6.5 19q0 8 -3.5 17t-8.5 20l-20 35l-7 2l-9 -6q-11 -29 -15.5 -45t-5.5 -18t-3.5 -11t-6.5 -25
q-6 -29 -7 -31q-3 -16 -10 -20q-1 -37 -12 -46q-2 -11 -5.5 -18.5t-6.5 -13.5q0 -18 -6 -25l1 -12l13 -11q14 -1 18 -7h27h18t21 1q43 3 68 3q11 0 20 9z" />
    <glyph glyph-name="Aacute" unicode="&#xc1;" horiz-adv-x="854" 
d="M732 1138q-2 -14 -5 -23t-8 -16.5t-13 -14.5t-20 -16q-28 -25 -41 -25l-7 -6q-12 -5 -26 -11t-30 -14l-5 -7q-43 -17 -89 -42q-3 -5 -8 -5q-6 2 -8 2l-3 -8q-55 -26 -77 -26q-19 0 -30 20q3 4 5.5 7t6.5 7q5 9 16.5 24t31.5 36l31 31t25 23l5 7.5t8 7.5q9 11 18 22.5
t20 26.5l11 2l6 11l9 7q5 10 10 14l18 6q16 25 25 25q6 0 7 -1q8 3 19 6.5t26 6.5q9 -6 25 -7q27 -22 32 -34q6 -14 9.5 -23t5.5 -13zM862 23q-22 -8 -37 -8q-8 0 -24 1t-39 2q-44 3 -64 0q-8 5 -20 2h-3q-3 0 -8 -0.5t-13 -1.5q-5 4 -11 4q-3 -2 -6 -3t-5 -2l-23 1
q-1 -1 -4 -1l-2 1h-21q-7 1 -14 1.5t-14 0.5h-28q-49 0 -74 9l-7 19q1 4 7 12q4 1 5.5 1.5t5.5 1.5t11.5 2t23.5 3q19 1 36 0l3 1q3 -1 9 -1h8q18 0 24 10l10 22q0 7 1 8q0 5 -2 14.5t-5 23.5q-8 30 -14 34q-3 16 -10 23q-1 17 -7 23q-3 21 -9 26q0 5 -4 14.5t-4 13.5
l-14 14l-4 2l-4 2l-17 7h-23q-12 0 -15 -3q-12 0 -12 -2q-14 1 -28 1.5t-28 0.5h-54h-26q-11 -3 -12 -7q-9 0 -15 -9l-8 -9q0 -14 -5 -17q-2 -11 -6 -12q0 -9 -1.5 -24t-4 -31t-4 -31t-1.5 -24q0 -8 1 -12t2 -6v-5l17 -24q14 -3 33 -19q5 -1 7.5 -2t4.5 -2q9 0 27.5 1.5
t27.5 1.5q7 0 26 -16l5 -13q-8 -17 -20 -24h-35h-10q-4 0 -10 2h-16h-126q-27 0 -84 -6q-28 -4 -49 -5t-35 -1q-5 0 -20 3l-15 12l-3 23q4 4 8.5 9t9.5 11l14 5q16 0 20 4h8q34 0 35 7q7 0 10 3q19 0 17 1q9 3 27 12l3 5q3 2 8.5 7t11.5 11t10.5 11.5t5.5 7.5l4 6
q2 4 4.5 9.5t6.5 13.5q0 27 12 36q12 40 14 40q2 5 4.5 13.5t6.5 21.5q1 2 8 9q0 16 4 20q0 20 6 28q2 6 3.5 13.5t3.5 18.5q5 13 18 37q5 12 9 26l5 5q9 43 9 46q8 35 16 40l1 5q0 2 1 4.5t2 4.5q7 43 19 51q1 3 2 5l2 4q2 8 4 21t5 33q10 46 17 49q0 5 1.5 15t3.5 25
q4 30 8 34q2 22 14 44q1 18 18 54q6 0 9.5 2t7.5 6h12q6 2 8 2h6l12 -4t14 -6q2 -4 5 -8t8 -9q15 -76 26 -84q0 -4 1 -13t5 -26q6 -32 8 -34q0 -17 12 -27l8 -20q0 -23 7 -31q9 -50 19 -54l14 -37q0 -5 9 -35q11 -28 15 -32q2 -11 6 -24t11 -27q3 -17 17 -43q0 -3 1 -8.5
t2.5 -11t3.5 -10.5t4 -6q1 -5 2.5 -7.5t3.5 -4.5q0 -13 5 -15q4 -30 10 -36q3 -32 11 -38q0 -4 2 -12t5 -16t6.5 -15.5t6.5 -10.5q4 -18 9 -23q0 -6 1.5 -9.5t3.5 -7.5q0 -5 3 -15q2 -2 6.5 -10t15.5 -23l26 -15q0 -2 9 -6q11 2 20 -2q6 0 9.5 1t5.5 2q8 -1 15 -1h12
q9 0 15 -2q24 -6 24 -26zM498 363q0 25 -7 28q-3 19 -6 21q-2 8 -5 17t-6 20q-3 2 -5.5 7t-5 10.5t-4.5 10t-2 5.5t-2.5 11t-8.5 30q-2 7 -5.5 15t-6.5 19q0 8 -3.5 17t-8.5 20l-20 35l-7 2l-9 -6q-11 -29 -15.5 -45t-5.5 -18t-3.5 -11t-6.5 -25q-6 -29 -7 -31
q-3 -16 -10 -20q-1 -37 -12 -46q-2 -11 -5.5 -18.5t-6.5 -13.5q0 -18 -6 -25l1 -12l13 -11q14 -1 18 -7h27h18t21 1q43 3 68 3q11 0 20 9z" />
    <glyph glyph-name="Acircumflex" unicode="&#xc2;" horiz-adv-x="854" 
d="M715 997q0 -11 -6.5 -24t-17.5 -13q-3 0 -6 3q-12 2 -32.5 11t-52.5 24q-17 20 -36.5 40.5t-41.5 43.5q-17 12 -35 27t-38 33q-3 3 -7 7.5t-10 10.5q-11 -13 -19.5 -23.5t-15.5 -18.5q-38 -41 -63 -66q-17 -22 -43.5 -53t-61.5 -74q-5 -11 -18 -11q-11 0 -24 7t-13 16
q0 1 0.5 3t2.5 3q1 14 12 40q12 8 23 26q20 27 40.5 51t42.5 46l60 74q6 6 15 13.5t21 18.5q1 18 18 30q4 1 9.5 2t13.5 2q11 0 28 -17q6 -7 12.5 -13.5l12.5 -12.5q13 -8 32.5 -23.5t47.5 -37.5q22 -23 57 -54t83 -73q10 -6 10 -18zM862 23q-22 -8 -37 -8q-8 0 -24 1t-39 2
q-44 3 -64 0q-8 5 -20 2h-3q-3 0 -8 -0.5t-13 -1.5q-5 4 -11 4q-3 -2 -6 -3t-5 -2l-23 1q-1 -1 -4 -1l-2 1h-21q-7 1 -14 1.5t-14 0.5h-28q-49 0 -74 9l-7 19q1 4 7 12q4 1 5.5 1.5t5.5 1.5t11.5 2t23.5 3q19 1 36 0l3 1q3 -1 9 -1h8q18 0 24 10l10 22q0 7 1 8q0 5 -2 14.5
t-5 23.5q-8 30 -14 34q-3 16 -10 23q-1 17 -7 23q-3 21 -9 26q0 5 -4 14.5t-4 13.5l-14 14l-4 2l-4 2l-17 7h-23q-12 0 -15 -3q-12 0 -12 -2q-14 1 -28 1.5t-28 0.5h-54h-26q-11 -3 -12 -7q-9 0 -15 -9l-8 -9q0 -14 -5 -17q-2 -11 -6 -12q0 -9 -1.5 -24t-4 -31t-4 -31
t-1.5 -24q0 -8 1 -12t2 -6v-5l17 -24q14 -3 33 -19q5 -1 7.5 -2t4.5 -2q9 0 27.5 1.5t27.5 1.5q7 0 26 -16l5 -13q-8 -17 -20 -24h-35h-10q-4 0 -10 2h-16h-126q-27 0 -84 -6q-28 -4 -49 -5t-35 -1q-5 0 -20 3l-15 12l-3 23q4 4 8.5 9t9.5 11l14 5q16 0 20 4h8q34 0 35 7
q7 0 10 3q19 0 17 1q9 3 27 12l3 5q3 2 8.5 7t11.5 11t10.5 11.5t5.5 7.5l4 6q2 4 4.5 9.5t6.5 13.5q0 27 12 36q12 40 14 40q2 5 4.5 13.5t6.5 21.5q1 2 8 9q0 16 4 20q0 20 6 28q2 6 3.5 13.5t3.5 18.5q5 13 18 37q5 12 9 26l5 5q9 43 9 46q8 35 16 40l1 5q0 2 1 4.5
t2 4.5q7 43 19 51q1 3 2 5l2 4q2 8 4 21t5 33q10 46 17 49q0 5 1.5 15t3.5 25q4 30 8 34q2 22 14 44q1 18 18 54q6 0 9.5 2t7.5 6h12q6 2 8 2h6l12 -4t14 -6q2 -4 5 -8t8 -9q15 -76 26 -84q0 -4 1 -13t5 -26q6 -32 8 -34q0 -17 12 -27l8 -20q0 -23 7 -31q9 -50 19 -54
l14 -37q0 -5 9 -35q11 -28 15 -32q2 -11 6 -24t11 -27q3 -17 17 -43q0 -3 1 -8.5t2.5 -11t3.5 -10.5t4 -6q1 -5 2.5 -7.5t3.5 -4.5q0 -13 5 -15q4 -30 10 -36q3 -32 11 -38q0 -4 2 -12t5 -16t6.5 -15.5t6.5 -10.5q4 -18 9 -23q0 -6 1.5 -9.5t3.5 -7.5q0 -5 3 -15
q2 -2 6.5 -10t15.5 -23l26 -15q0 -2 9 -6q11 2 20 -2q6 0 9.5 1t5.5 2q8 -1 15 -1h12q9 0 15 -2q24 -6 24 -26zM498 363q0 25 -7 28q-3 19 -6 21q-2 8 -5 17t-6 20q-3 2 -5.5 7t-5 10.5t-4.5 10t-2 5.5t-2.5 11t-8.5 30q-2 7 -5.5 15t-6.5 19q0 8 -3.5 17t-8.5 20l-20 35
l-7 2l-9 -6q-11 -29 -15.5 -45t-5.5 -18t-3.5 -11t-6.5 -25q-6 -29 -7 -31q-3 -16 -10 -20q-1 -37 -12 -46q-2 -11 -5.5 -18.5t-6.5 -13.5q0 -18 -6 -25l1 -12l13 -11q14 -1 18 -7h27h18t21 1q43 3 68 3q11 0 20 9z" />
    <glyph glyph-name="Atilde" unicode="&#xc3;" horiz-adv-x="858" 
d="M862 23q-22 -8 -37 -8q-8 0 -24 1t-39 2q-44 3 -64 0q-8 5 -20 2h-3q-3 0 -8 -0.5t-13 -1.5q-5 4 -11 4q-3 -2 -6 -3t-5 -2l-23 1q-1 -1 -4 -1l-2 1h-21q-7 1 -14 1.5t-14 0.5h-28q-49 0 -74 9l-7 19q1 4 7 12q4 1 5.5 1.5t5.5 1.5t11.5 2t23.5 3q19 1 36 0l3 1
q3 -1 9 -1h8q18 0 24 10l10 22q0 7 1 8q0 5 -2 14.5t-5 23.5q-8 30 -14 34q-3 16 -10 23q-1 17 -7 23q-3 21 -9 26q0 5 -4 14.5t-4 13.5l-14 14l-4 2l-4 2l-17 7h-23q-12 0 -15 -3q-12 0 -12 -2q-14 1 -28 1.5t-28 0.5h-54h-26q-11 -3 -12 -7q-9 0 -15 -9l-8 -9
q0 -14 -5 -17q-2 -11 -6 -12q0 -9 -1.5 -24t-4 -31t-4 -31t-1.5 -24q0 -8 1 -12t2 -6v-5l17 -24q14 -3 33 -19q5 -1 7.5 -2t4.5 -2q9 0 27.5 1.5t27.5 1.5q7 0 26 -16l5 -13q-8 -17 -20 -24h-35h-10q-4 0 -10 2h-16h-126q-27 0 -84 -6q-28 -4 -49 -5t-35 -1q-5 0 -20 3
l-15 12l-3 23q4 4 8.5 9t9.5 11l14 5q16 0 20 4h8q34 0 35 7q7 0 10 3q19 0 17 1q9 3 27 12l3 5q3 2 8.5 7t11.5 11t10.5 11.5t5.5 7.5l4 6q2 4 4.5 9.5t6.5 13.5q0 27 12 36q12 40 14 40q2 5 4.5 13.5t6.5 21.5q1 2 8 9q0 16 4 20q0 20 6 28q2 6 3.5 13.5t3.5 18.5
q5 13 18 37q5 12 9 26l5 5q9 43 9 46q8 35 16 40l1 5q0 2 1 4.5t2 4.5q7 43 19 51q1 3 2 5l2 4q2 8 4 21t5 33q10 46 17 49q0 5 1.5 15t3.5 25q4 30 8 34q2 22 14 44q1 18 18 54q6 0 9.5 2t7.5 6h12q6 2 8 2h6l12 -4t14 -6q2 -4 5 -8t8 -9q15 -76 26 -84q0 -4 1 -13t5 -26
q6 -32 8 -34q0 -17 12 -27l8 -20q0 -23 7 -31q9 -50 19 -54l14 -37q0 -5 9 -35q11 -28 15 -32q2 -11 6 -24t11 -27q3 -17 17 -43q0 -3 1 -8.5t2.5 -11t3.5 -10.5t4 -6q1 -5 2.5 -7.5t3.5 -4.5q0 -13 5 -15q4 -30 10 -36q3 -32 11 -38q0 -4 2 -12t5 -16t6.5 -15.5t6.5 -10.5
q4 -18 9 -23q0 -6 1.5 -9.5t3.5 -7.5q0 -5 3 -15q2 -2 6.5 -10t15.5 -23l26 -15q0 -2 9 -6q11 2 20 -2q6 0 9.5 1t5.5 2q8 -1 15 -1h12q9 0 15 -2q24 -6 24 -26zM498 363q0 25 -7 28q-3 19 -6 21q-2 8 -5 17t-6 20q-3 2 -5.5 7t-5 10.5t-4.5 10t-2 5.5t-2.5 11t-8.5 30
q-2 7 -5.5 15t-6.5 19q0 8 -3.5 17t-8.5 20l-20 35l-7 2l-9 -6q-11 -29 -15.5 -45t-5.5 -18t-3.5 -11t-6.5 -25q-6 -29 -7 -31q-3 -16 -10 -20q-1 -37 -12 -46q-2 -11 -5.5 -18.5t-6.5 -13.5q0 -18 -6 -25l1 -12l13 -11q14 -1 18 -7h27h18t21 1q43 3 68 3q11 0 20 9z" />
    <glyph glyph-name="Adieresis" unicode="&#xc4;" horiz-adv-x="848" 
d="M602 1057q3 0 3 -6q0 -5 -2.5 -14.5t-5.5 -19.5t-6.5 -18t-5.5 -11q-25 -31 -74 -31q-2 0 -8 2t-12 4.5t-11 4.5t-5 3q-30 43 -30 71q1 28 3 30q5 6 9 11t9 11q2 3 8.5 7t13.5 9q4 2 8.5 5t9.5 5h6q3 0 28 -5q33 -6 35 -15q30 -43 27 -43zM386 1057q3 0 3 -6
q0 -5 -2.5 -14.5t-5.5 -19.5t-6.5 -18t-5.5 -11q-25 -31 -74 -31q-2 0 -8 2t-12 4.5t-10.5 4.5t-4.5 3l-31 44v27q1 7 1.5 12t0.5 9q0 8 1 9q5 6 9.5 11t9.5 11q2 3 8.5 7t13.5 9q4 2 8.5 5t9.5 5h6q3 0 28 -5q32 -6 35 -15q30 -43 26 -43zM862 23q-22 -8 -37 -8q-8 0 -24 1
t-39 2q-44 3 -64 0q-8 5 -20 2h-3q-3 0 -8 -0.5t-13 -1.5q-5 4 -11 4q-3 -2 -6 -3t-5 -2l-23 1q-1 -1 -4 -1l-2 1h-21q-7 1 -14 1.5t-14 0.5h-28q-49 0 -74 9l-7 19q1 4 7 12q4 1 5.5 1.5t5.5 1.5t11.5 2t23.5 3q19 1 36 0l3 1q3 -1 9 -1h8q18 0 24 10l10 22q0 7 1 8
q0 5 -2 14.5t-5 23.5q-8 30 -14 34q-3 16 -10 23q-1 17 -7 23q-3 21 -9 26q0 5 -4 14.5t-4 13.5l-14 14l-4 2l-4 2l-17 7h-23q-12 0 -15 -3q-12 0 -12 -2q-14 1 -28 1.5t-28 0.5h-54h-26q-11 -3 -12 -7q-9 0 -15 -9l-8 -9q0 -14 -5 -17q-2 -11 -6 -12q0 -9 -1.5 -24t-4 -31
t-4 -31t-1.5 -24q0 -8 1 -12t2 -6v-5l17 -24q14 -3 33 -19q5 -1 7.5 -2t4.5 -2q9 0 27.5 1.5t27.5 1.5q7 0 26 -16l5 -13q-8 -17 -20 -24h-35h-10q-4 0 -10 2h-16h-126q-27 0 -84 -6q-28 -4 -49 -5t-35 -1q-5 0 -20 3l-15 12l-3 23q4 4 8.5 9t9.5 11l14 5q16 0 20 4h8
q34 0 35 7q7 0 10 3q19 0 17 1q9 3 27 12l3 5q3 2 8.5 7t11.5 11t10.5 11.5t5.5 7.5l4 6q2 4 4.5 9.5t6.5 13.5q0 27 12 36q12 40 14 40q2 5 4.5 13.5t6.5 21.5q1 2 8 9q0 16 4 20q0 20 6 28q2 6 3.5 13.5t3.5 18.5q5 13 18 37q5 12 9 26l5 5q9 43 9 46q8 35 16 40l1 5
q0 2 1 4.5t2 4.5q7 43 19 51q1 3 2 5l2 4q2 8 4 21t5 33q10 46 17 49q0 5 1.5 15t3.5 25q4 30 8 34q2 22 14 44q1 18 18 54q6 0 9.5 2t7.5 6h12q6 2 8 2h6l12 -4t14 -6q2 -4 5 -8t8 -9q15 -76 26 -84q0 -4 1 -13t5 -26q6 -32 8 -34q0 -17 12 -27l8 -20q0 -23 7 -31
q9 -50 19 -54l14 -37q0 -5 9 -35q11 -28 15 -32q2 -11 6 -24t11 -27q3 -17 17 -43q0 -3 1 -8.5t2.5 -11t3.5 -10.5t4 -6q1 -5 2.5 -7.5t3.5 -4.5q0 -13 5 -15q4 -30 10 -36q3 -32 11 -38q0 -4 2 -12t5 -16t6.5 -15.5t6.5 -10.5q4 -18 9 -23q0 -6 1.5 -9.5t3.5 -7.5
q0 -5 3 -15q2 -2 6.5 -10t15.5 -23l26 -15q0 -2 9 -6q11 2 20 -2q6 0 9.5 1t5.5 2q8 -1 15 -1h12q9 0 15 -2q24 -6 24 -26zM498 363q0 25 -7 28q-3 19 -6 21q-2 8 -5 17t-6 20q-3 2 -5.5 7t-5 10.5t-4.5 10t-2 5.5t-2.5 11t-8.5 30q-2 7 -5.5 15t-6.5 19q0 8 -3.5 17
t-8.5 20l-20 35l-7 2l-9 -6q-11 -29 -15.5 -45t-5.5 -18t-3.5 -11t-6.5 -25q-6 -29 -7 -31q-3 -16 -10 -20q-1 -37 -12 -46q-2 -11 -5.5 -18.5t-6.5 -13.5q0 -18 -6 -25l1 -12l13 -11q14 -1 18 -7h27h18t21 1q43 3 68 3q11 0 20 9z" />
    <glyph glyph-name="Aring" unicode="&#xc5;" horiz-adv-x="848" 
d="M509 1088q4 -15 0.5 -30t-11.5 -32q-1 -2 -5.5 -8t-15.5 -15q-5 -6 -17.5 -9.5t-17.5 -7.5h-36q-5 1 -12 3.5t-14 5.5t-12 6.5t-5 6.5l-5 3q-4 1 -4 3l-12 17l-5 12q-5 15 -5 14q3 15 -1 15v17q0 25 14 45l4 8q11 6 23 21q2 4 36 11q23 5 44 -6q20 -11 25 -15t5 -7
q0 -2 3 -3q4 -1 4 -5q6 -4 17 -29q2 -4 2 -9q0 -7 1 -12zM862 23q-22 -8 -37 -8q-8 0 -24 1t-39 2q-44 3 -64 0q-8 5 -20 2h-3q-3 0 -8 -0.5t-13 -1.5q-5 4 -11 4q-3 -2 -6 -3t-5 -2l-23 1q-1 -1 -4 -1l-2 1h-21q-7 1 -14 1.5t-14 0.5h-28q-49 0 -74 9l-7 19q1 4 7 12
q4 1 5.5 1.5t5.5 1.5t11.5 2t23.5 3q19 1 36 0l3 1q3 -1 9 -1h8q18 0 24 10l10 22q0 7 1 8q0 5 -2 14.5t-5 23.5q-8 30 -14 34q-3 16 -10 23q-1 17 -7 23q-3 21 -9 26q0 5 -4 14.5t-4 13.5l-14 14l-4 2l-4 2l-17 7h-23q-12 0 -15 -3q-12 0 -12 -2q-14 1 -28 1.5t-28 0.5h-54
h-26q-11 -3 -12 -7q-9 0 -15 -9l-8 -9q0 -14 -5 -17q-2 -11 -6 -12q0 -9 -1.5 -24t-4 -31t-4 -31t-1.5 -24q0 -8 1 -12t2 -6v-5l17 -24q14 -3 33 -19q5 -1 7.5 -2t4.5 -2q9 0 27.5 1.5t27.5 1.5q7 0 26 -16l5 -13q-8 -17 -20 -24h-35h-10q-4 0 -10 2h-16h-126q-27 0 -84 -6
q-28 -4 -49 -5t-35 -1q-5 0 -20 3l-15 12l-3 23q4 4 8.5 9t9.5 11l14 5q16 0 20 4h8q34 0 35 7q7 0 10 3q19 0 17 1q9 3 27 12l3 5q3 2 8.5 7t11.5 11t10.5 11.5t5.5 7.5l4 6q2 4 4.5 9.5t6.5 13.5q0 27 12 36q12 40 14 40q2 5 4.5 13.5t6.5 21.5q1 2 8 9q0 16 4 20
q0 20 6 28q2 6 3.5 13.5t3.5 18.5q5 13 18 37q5 12 9 26l5 5q9 43 9 46q8 35 16 40l1 5q0 2 1 4.5t2 4.5q7 43 19 51q1 3 2 5l2 4q2 8 4 21t5 33q10 46 17 49q0 5 1.5 15t3.5 25q4 30 8 34q2 22 14 44q1 18 18 54q6 0 9.5 2t7.5 6h12q6 2 8 2h6l12 -4t14 -6q2 -4 5 -8t8 -9
q15 -76 26 -84q0 -4 1 -13t5 -26q6 -32 8 -34q0 -17 12 -27l8 -20q0 -23 7 -31q9 -50 19 -54l14 -37q0 -5 9 -35q11 -28 15 -32q2 -11 6 -24t11 -27q3 -17 17 -43q0 -3 1 -8.5t2.5 -11t3.5 -10.5t4 -6q1 -5 2.5 -7.5t3.5 -4.5q0 -13 5 -15q4 -30 10 -36q3 -32 11 -38
q0 -4 2 -12t5 -16t6.5 -15.5t6.5 -10.5q4 -18 9 -23q0 -6 1.5 -9.5t3.5 -7.5q0 -5 3 -15q2 -2 6.5 -10t15.5 -23l26 -15q0 -2 9 -6q11 2 20 -2q6 0 9.5 1t5.5 2q8 -1 15 -1h12q9 0 15 -2q24 -6 24 -26zM385 1094v-8v-11.5t1 -14.5q0 -7 8 -18q0 -10 12 -10q2 -1 9 -1
q4 -3 7 0q11 0 17.5 3t9.5 7.5t4 8t1 5.5v23v5q0 2 -2 6v11q-1 2 -3.5 6.5t-8.5 11.5q-3 3 -18 8q-20 0 -28 -6t-9 -26zM498 363q0 25 -7 28q-3 19 -6 21q-2 8 -5 17t-6 20q-3 2 -5.5 7t-5 10.5t-4.5 10t-2 5.5t-2.5 11t-8.5 30q-2 7 -5.5 15t-6.5 19q0 8 -3.5 17t-8.5 20
l-20 35l-7 2l-9 -6q-11 -29 -15.5 -45t-5.5 -18t-3.5 -11t-6.5 -25q-6 -29 -7 -31q-3 -16 -10 -20q-1 -37 -12 -46q-2 -11 -5.5 -18.5t-6.5 -13.5q0 -18 -6 -25l1 -12l13 -11q14 -1 18 -7h27h18t21 1q43 3 68 3q11 0 20 9z" />
    <glyph glyph-name="AE" unicode="&#xc6;" horiz-adv-x="1465" 
d="M1451 229q0 -7 -1 -18.5t-1.5 -23.5t-1.5 -23.5t-1 -18.5l2 -2v-15q1 -4 1 -7.5v-6.5v-9v-39q0 -13 -2 -24.5t-5 -23.5q-12 -15 -91 -15h-35h-21.5t-25.5 -1q-13 -1 -24.5 -1.5t-22.5 -0.5h-34q-7 0 -18.5 1t-24 2t-24 2t-18.5 1q-11 0 -21.5 -1t-18.5 -5l-34 3
q-3 2 -12 2.5t-22 -0.5l-37 -5h-64l-22 8q-21 -8 -37 -8h-7.5t-9.5 1q-9 1 -22 1.5t-30 0.5q-15 2 -32 1t-37 -2l-42 -4q-20 -1 -38 -2t-35 -1q-87 0 -119 20q-16 5 -8 17l8 14q16 12 29 9q-6 0 53 -3l23 3q3 -1 9 -1h8q16 0 13 12q-4 16 0 19l2 9q0 6 -2 17t-5 22t-7 20
t-8 12q-10 24 -21.5 50.5t-13.5 49.5q-14 17 -25.5 21.5t-34.5 4.5q-14 0 -34.5 -1t-46.5 -2q-14 -1 -25.5 -1.5t-22.5 -0.5h-34l-22 -4q-5 0 -7.5 -8.5t-5.5 -10.5q-5 -18 -11 -31q0 -9 -1.5 -23.5t-4 -30t-4 -30t-1.5 -23.5q0 -5 1.5 -12.5t1.5 -12.5l17 -25q14 -2 32 -17
q8 -4 22 -4q7 -3 23 0q4 1 7.5 1h5.5h10q6 0 25 -13l6 -14q-4 -10 -9 -15.5t-11 -9.5h-41q-12 0 -26.5 0.5t-31.5 1.5t-31 1h-27h-40q-14 0 -35 -1t-50 -5q-28 -4 -48.5 -6t-34.5 -2q-4 0 -21 5l-14 11l-3 24q0 11 9 16l9 3q89 4 114 20l28 17q15 8 20 23l12 20q2 4 4.5 9.5
t6.5 13.5q0 -1 2 3.5t4 11t4.5 14.5t3.5 15q3 8 9 25t14 42l9 32l15 57q2 8 9.5 24t18.5 39l6 34q9 48 23 57q0 3 2.5 12t7.5 22q11 29 13 30l5 10q9 92 25 104q2 60 13 74q3 23 33 98l17 7q2 1 10 1q4 0 7.5 0.5t8.5 1.5l26 -11q8 -16 12 -17q8 -17 13.5 -37.5t11.5 -47.5
q21 -91 28 -98q5 -24 14 -50.5t19 -55.5q1 -2 2 -5t2 -7l9 -36q6 -30 17 -43q1 -4 7 -19.5t19 -43.5l6 -25q3 -12 11 -18q7 -27 14 -52t15 -50q26 -79 34 -89q6 -14 10 -27.5t5 -27.5q1 -7 5.5 -13.5t10 -12t10.5 -11t7 -9.5q1 -10 9 -13l20 5l8 8t12 10l9 14q5 5 6 14
q3 7 0 18v17q0 7 -1 19.5t-2 25.5t-2 25t-1 20q0 13 3 34.5t3 34.5v109q2 8 0 21t-6 33q-4 17 -5 30t0 22q6 30 9.5 46t3.5 17q0 57 -4.5 104t-14.5 82q-26 30 -111 24q-2 1 -7.5 2t-15.5 2l-13 9q-2 2 -2 22q17 8 41 11.5t56 3.5l15 -3l2 -1q25 -5 60 -5h44q9 0 16.5 0.5
t13.5 1.5q10 -3 23 -3h9q5 0 8 1l24 3h34q11 2 19.5 3.5t16.5 -0.5q17 -1 27.5 -2t15.5 1q8 1 15 2t14 -1q8 3 14 2q9 -4 14 -4.5t13 -0.5q11 0 20 6q51 4 86.5 3t60.5 -4q22 -3 35 -2q5 1 10 1.5t9 0.5h13q15 5 26 -8q12 -25 10 -51l-2 -46q-5 -20 -5 -31q0 -9 5 -21
q3 -21 0 -66l2 -22q1 -13 -8 -68q-1 -1 -6 -1q-3 0 -9 -2q1 -1 -14 -1q-9 0 -6 20q0 3 -2.5 9t-5.5 14q-5 61 -31 101q-17 7 -12 33q-6 9 -23 20q-8 24 -28 31q-4 3 -7.5 6.5t-9.5 5.5q-15 8 -18 11q-10 10 -30 10h-27q-10 0 -26.5 5.5t-26.5 5.5t-30 -4q-19 -2 -29 1t-28 6
h-23l-12 -2t-11 1q-10 -2 -19 -4.5t-18 -6.5q-31 -49 -28 -117q1 -4 2 -10.5t1 -14.5q0 -13 -2.5 -35t-2.5 -35v-22q2 -21 3.5 -36.5t1.5 -26.5q0 -37 40 -37q6 0 13 1.5t16 3.5l2 1q84 21 106 79q16 15 18 89q0 35 17 35h13l4 -4q7 -12 5 -36q-3 -44 -3 -37q0 4 3 -35
q2 -20 3 -40.5t1 -42.5v-22q-2 -14 0 -67q1 -16 1.5 -29.5t0.5 -24.5v-37q0 -58 -8 -69q-2 -11 -12 -11l-5 1q-8 1 -11 3.5t-4 10.5t-2 22.5t-4 40.5l-8 28q0 3 -2.5 9.5t-6 14t-6 15t-2.5 12.5q-5 6 -18 16.5t-34 27.5l-15 8q-6 3 -13 3h-12l-26 3q-22 4 -26 3q-1 -1 -5 -1
q-2 0 -6 -2l-11 -7q-4 -11 -5 -50.5t-1 -109.5q0 -36 2.5 -76.5t8.5 -86.5q8 -15 14.5 -23.5t9.5 -10.5q13 -10 39 -10l3 4q35 5 86 3l88 -3l1 1q81 12 123 57q20 20 34.5 50t25.5 72q17 66 27 99.5t12 36.5q2 4 6.5 6.5t11.5 6.5l11 -8q8 -14 8 -46q0 -37 3 -46v-42z
M509 348q0 3 -2.5 13.5t-8.5 27.5q-5 20 -8.5 31.5t-4.5 13.5q-21 18 -40 108q-4 9 -9.5 22.5t-12.5 32.5q-8 17 -17 18l-9 -6q-11 -29 -21 -60t-21 -64l-37 -128l2 -12q16 -19 31 -19q137 0 154 14z" />
    <glyph glyph-name="Ccedilla" unicode="&#xc7;" horiz-adv-x="685" 
d="M689 777q-1 -7 -1 -13v-12v-23v-77q-2 -13 -2.5 -28.5t0.5 -35.5l3 -63q0 -40 -7 -48l-14 -3l-14 3l-2 3l-7 5l-7 17l-7 30q-2 7 -4 18t-5 25q-4 4 -9.5 15t-10.5 28q-8 8 -14 34q-5 7 -14 17q-5 8 -13 23t-19 36l-10 12.5t-17 16.5l-18 14l-12 11l-14 7l-19 8
q-13 8 -32.5 11.5t-48.5 3.5q-54 0 -77 -10q-13 -5 -30 -15t-39 -27l-10 -15t-17 -20l-21 -37q-5 -8 -15 -53l-5 -40q-2 -2 -3 -21q-8 -19 -8 -114q0 -228 32 -278q5 -5 9.5 -18t9.5 -18q30 -73 94 -88l35 -18q22 -6 43.5 -8.5t41.5 -2.5q8 0 19.5 3t23.5 7t21.5 9t12.5 9
l14 3q15 9 41 32q6 2 10.5 7t9.5 10l46 59q6 7 11 25.5t11 48.5l1 1q2 2 11 65q8 5 11 26l9 9l19 -6q3 -6 5 -13t2 -18q0 -30 -17 -78l-27 -77q-11 -9 -34 -45q-22 -34 -39 -46q-8 -6 -19 -15t-25 -22q-33 -14 -59.5 -22t-46.5 -10l-4 -19q4 2 8 4.5t9 5.5q7 -4 11 -4t9 4
l33 -8q12 0 20 -6l20 -8q0 -1 23 -11q10 -5 12 -18q7 -4 14 -13t12 -19t7 -20t-1 -17h2l1 -8q-5 -24 -10 -41.5t-11 -27.5q-16 -30 -54 -47q-7 -2 -15 -6.5t-17 -9.5q-22 -7 -68 -7q-4 0 -14.5 3.5t-16.5 1.5l-10 2q-2 1 -7 3t-11 4.5t-11 5t-8 5.5l-8 -2l-11 2l-11 6
q-28 0 -73 22q-53 23 -53 47v20q17 15 22 17q5 4 12 6l14 4q10 -18 66 -39q65 -25 89 -25q13 0 28 7.5t29 12.5q4 2 9.5 5t12.5 8l1 27q3 15 -4 19q0 38 -63 38q-13 0 -22 -3l-17 2q-4 4 -14 24l-1 13l9 18q5 3 5 6q0 2 -1 5l-2 6l-67 9q-10 7 -26 10q-11 1 -16.5 2.5
t-9.5 3.5q-16 5 -43.5 28t-67.5 61l-29 37q-8 13 -19.5 27t-26.5 31q-4 8 -8 21t-9 32q-6 11 -11 24t-9 28q-9 6 -11.5 7t-2.5 6v9l-1 24q-10 16 -10 69q0 70 7 85h1l5 18l4 24q-2 5 19 50l12 30q4 12 11 25.5t18 27.5q13 15 20 25.5t10 16.5q16 13 52 49q2 14 20 22l23 18
q11 7 30 17t48 23q4 6 51 12q20 4 35 5.5t24 1.5q33 0 69 -13q17 -5 30.5 -17t23.5 -20l24 -18l23 -19q4 -5 7 -8.5t4 -4.5q7 -7 16 -7h13q14 14 34 68q13 39 34 42v1q26 -11 26 -71v-21z" />
    <glyph glyph-name="Egrave" unicode="&#xc8;" horiz-adv-x="800" 
d="M505 946q-11 -20 -31 -20q-22 0 -77 26l-2 8q-3 0 -9 -2q-21 0 -49 19q-20 13 -32 19.5t-16 8.5l-3 7q-17 8 -31 14t-27 11l-6 6q-10 0 -42 23q-30 25 -34 37q-1 2 -4 10t-8 25q1 3 5.5 12t9.5 24q4 13 34 34q7 1 13.5 3t11.5 4q8 -3 18.5 -6.5t24.5 -6.5q2 1 7 1
q11 0 27 -25l17 -6q3 -3 5.5 -6.5t4.5 -7.5l10 -7l4 -11l11 -2q17 -19 40 -49q4 -3 7 -7.5l5 -7.5q12 -11 26 -24.5t31 -31.5q41 -44 46 -58q4 -4 7.5 -7t5.5 -7zM780 246q0 -3 1 -28t2 -73h2v-77q0 -28 -7 -48q-11 -15 -90 -15q-10 0 -26 0.5t-34 1.5t-34 1.5t-26 0.5v-1
l-8 1h-11l-1 -1l-5 1h-12q-6 0 -17 -1.5t-17 -1.5q-5 0 -14.5 1t-24.5 2q-24 3 -40 0q-11 -1 -20.5 -3t-17.5 -4l-15 3q-7 4 -163 4q-30 0 -82 -3q-26 -1 -46 -2t-34 -1l-8 -1l-20 7l-1 3l-6 2l-7 8l2 10q4 2 9 4t13 6l7 1h2q2 2 52 2q36 0 49 13q2 2 5 5.5t11 8.5l1 5
q13 10 13 60q0 8 -1 20t-1.5 24.5t-1.5 24.5t-1 20q9 13 6 69l-1 108q-2 22 -4 49t-6 59q6 28 9.5 43.5t3.5 19.5q0 9 -1.5 23t-4 29t-4 28.5t-1.5 22.5v17v9t1 8q3 17 -4 21q0 3 -5 28q-21 23 -101 23h-10q-2 2 -23 5q-10 3 -12.5 6t-2.5 10v14q31 16 95 16l17 -3l2 -2
q21 -6 103 -6q15 0 32 1.5t34 3.5l5 -3h55l2 1l10 2q12 -3 26 -3q6 0 16.5 1t27.5 3q31 3 43 2h10v-2l7 2h238h22l9 -8q9 -21 9 -61v-34l-2 -5v-63q0 -14 0.5 -27t1.5 -24l-2 -3q2 -26 0 -47.5t-6 -38.5l-9 -3l-17 5l-12 29q-4 13 -8.5 30.5t-11.5 41.5q-3 3 -3 9
q-7 5 -11 28q-7 9 -14 32q-2 2 -7.5 7t-13.5 13q-2 2 -4.5 5t-8.5 9l-1 3q-7 5 -16.5 12t-20.5 16q-7 1 -12 8q-20 4 -31 12h-26q-42 12 -68 9q-26 -1 -37 -2t-8 -1q-5 0 -18 3t-19 3h-1q-6 -1 -10.5 -2t-9.5 -1h-8q-2 0 -8 2q-23 -3 -38 -10q-17 -20 -15 -26
q-13 -10 -13 -90q6 -10 3 -47q-1 -23 -2.5 -38.5t-1.5 -11.5v-9v-5.5t1 -7.5v-21q2 -3 3 -13t2 -21.5t3.5 -22.5t7.5 -16q1 1 4 -1q8 -2 13 -3.5t10 -1.5q13 0 31 6h2q5 2 17.5 6.5t32.5 12.5q4 2 7 4.5t7 4.5q2 1 3.5 2t2.5 1q13 7 16 20q12 8 20 29q16 16 18 88l-1 1l1 2
l-1 2q2 32 18 32l11 -2l5 -3q0 -5 1 -6q2 -6 3.5 -14.5t-0.5 -19.5q-1 -15 -2 -23t-1 -9q0 2 1 -6.5t2 -28.5q2 -20 3.5 -40.5t1.5 -43.5v-3q-2 -13 -2.5 -28t0.5 -32q2 -22 2.5 -37t-0.5 -23q0 -7 -1 -18.5t-1.5 -24t-1.5 -24.5t-1 -19q0 -40 -7 -47l-10 -2l-4 2
q-10 6 -14 33l-3 42l-2 1q-3 11 -8 26t-13 36l-3 15q-8 8 -20.5 19.5t-32.5 23.5l-14 4q-5 5 -26 9l-1 1q-12 2 -24.5 3.5t-26.5 1.5q-15 0 -20 -11q-8 -21 -8 -214l5 -26l1 -1v-34q0 -2 1.5 -14.5t3.5 -34.5q10 -16 17 -31q2 -2 12 -3t30 -5q3 0 4 -1v-2l5 2q3 1 47 1h125
h3q7 2 18.5 3t26.5 3q73 21 103 94q14 14 14 23q9 9 17 39q6 29 12 35q-2 3 1 6q5 23 12 51.5t16 62.5q4 2 8.5 4.5t10.5 6.5l12 -8q5 -8 6 -43q1 -11 1.5 -19.5t0.5 -15.5q0 -13 1 -14z" />
    <glyph glyph-name="Eacute" unicode="&#xc9;" horiz-adv-x="800" 
d="M674 1138q-2 -14 -5 -23t-8 -16.5t-13 -14.5t-20 -16q-28 -25 -42 -25l-6 -6q-12 -4 -26 -10.5t-31 -14.5l-5 -7q-20 -8 -42 -18.5t-47 -23.5q-2 -5 -7 -5q-6 2 -8 2l-3 -8q-27 -13 -45.5 -19.5t-31.5 -6.5q-20 0 -31 20q4 4 6.5 7t5.5 7q5 9 16.5 24t31.5 36
q17 17 31.5 31t25.5 23q2 3 4.5 7.5t7.5 7.5q21 22 39 49l11 2l6 11l9 7q1 4 3.5 7.5t5.5 6.5l19 6q15 25 24 25q7 0 8 -1q8 3 19 6.5t26 6.5q7 -5 24 -7q27 -20 32 -34q6 -14 10 -23t6 -13zM780 246q0 -3 1 -28t2 -73h2v-77q0 -28 -7 -48q-11 -15 -90 -15q-10 0 -26 0.5
t-34 1.5t-34 1.5t-26 0.5v-1l-8 1h-11l-1 -1l-5 1h-12q-6 0 -17 -1.5t-17 -1.5q-5 0 -14.5 1t-24.5 2q-24 3 -40 0q-11 -1 -20.5 -3t-17.5 -4l-15 3q-7 4 -163 4q-30 0 -82 -3q-26 -1 -46 -2t-34 -1l-8 -1l-20 7l-1 3l-6 2l-7 8l2 10q4 2 9 4t13 6l7 1h2q2 2 52 2
q36 0 49 13q2 2 5 5.5t11 8.5l1 5q13 10 13 60q0 8 -1 20t-1.5 24.5t-1.5 24.5t-1 20q9 13 6 69l-1 108q-2 22 -4 49t-6 59q6 28 9.5 43.5t3.5 19.5q0 9 -1.5 23t-4 29t-4 28.5t-1.5 22.5v17v9t1 8q3 17 -4 21q0 3 -5 28q-21 23 -101 23h-10q-2 2 -23 5q-10 3 -12.5 6
t-2.5 10v14q31 16 95 16l17 -3l2 -2q21 -6 103 -6q15 0 32 1.5t34 3.5l5 -3h55l2 1l10 2q12 -3 26 -3q6 0 16.5 1t27.5 3q31 3 43 2h10v-2l7 2h238h22l9 -8q9 -21 9 -61v-34l-2 -5v-63q0 -14 0.5 -27t1.5 -24l-2 -3q2 -26 0 -47.5t-6 -38.5l-9 -3l-17 5l-12 29
q-4 13 -8.5 30.5t-11.5 41.5q-3 3 -3 9q-7 5 -11 28q-7 9 -14 32q-2 2 -7.5 7t-13.5 13q-2 2 -4.5 5t-8.5 9l-1 3q-7 5 -16.5 12t-20.5 16q-7 1 -12 8q-20 4 -31 12h-26q-42 12 -68 9q-26 -1 -37 -2t-8 -1q-5 0 -18 3t-19 3h-1q-6 -1 -10.5 -2t-9.5 -1h-8q-2 0 -8 2
q-23 -3 -38 -10q-17 -20 -15 -26q-13 -10 -13 -90q6 -10 3 -47q-1 -23 -2.5 -38.5t-1.5 -11.5v-9v-5.5t1 -7.5v-21q2 -3 3 -13t2 -21.5t3.5 -22.5t7.5 -16q1 1 4 -1q8 -2 13 -3.5t10 -1.5q13 0 31 6h2q5 2 17.5 6.5t32.5 12.5q4 2 7 4.5t7 4.5q2 1 3.5 2t2.5 1q13 7 16 20
q12 8 20 29q16 16 18 88l-1 1l1 2l-1 2q2 32 18 32l11 -2l5 -3q0 -5 1 -6q2 -6 3.5 -14.5t-0.5 -19.5q-1 -15 -2 -23t-1 -9q0 2 1 -6.5t2 -28.5q2 -20 3.5 -40.5t1.5 -43.5v-3q-2 -13 -2.5 -28t0.5 -32q2 -22 2.5 -37t-0.5 -23q0 -7 -1 -18.5t-1.5 -24t-1.5 -24.5t-1 -19
q0 -40 -7 -47l-10 -2l-4 2q-10 6 -14 33l-3 42l-2 1q-3 11 -8 26t-13 36l-3 15q-8 8 -20.5 19.5t-32.5 23.5l-14 4q-5 5 -26 9l-1 1q-12 2 -24.5 3.5t-26.5 1.5q-15 0 -20 -11q-8 -21 -8 -214l5 -26l1 -1v-34q0 -2 1.5 -14.5t3.5 -34.5q10 -16 17 -31q2 -2 12 -3t30 -5
q3 0 4 -1v-2l5 2q3 1 47 1h125h3q7 2 18.5 3t26.5 3q73 21 103 94q14 14 14 23q9 9 17 39q6 29 12 35q-2 3 1 6q5 23 12 51.5t16 62.5q4 2 8.5 4.5t10.5 6.5l12 -8q5 -8 6 -43q1 -11 1.5 -19.5t0.5 -15.5q0 -13 1 -14z" />
    <glyph glyph-name="Ecircumflex" unicode="&#xca;" horiz-adv-x="800" 
d="M657 997q0 -11 -7 -24t-18 -13q-1 0 -2.5 1t-3.5 2q-11 2 -31.5 10.5t-52.5 24.5q-18 20 -37.5 40.5t-41.5 43.5q-32 24 -72 60q-4 3 -7.5 7.5t-9.5 10.5q-21 -26 -36 -42q-18 -20 -34 -36.5t-29 -29.5q-17 -22 -43 -53t-61 -74q-8 -11 -19 -11t-24 7t-13 16v3q0 1 2 3
q2 8 5.5 17.5t8.5 22.5q9 8 23 26q2 5 37 46q18 21 29.5 33.5t16.5 17.5l60 74q6 6 15 13.5t20 18.5q3 18 19 30q3 1 9 2t14 2q11 0 28 -17q5 -7 11.5 -13.5l12.5 -12.5q13 -8 32.5 -23.5t47.5 -37.5q22 -23 57 -54t83 -73q11 -5 11 -18zM780 246q0 -3 1 -28t2 -73h2v-77
q0 -28 -7 -48q-11 -15 -90 -15q-10 0 -26 0.5t-34 1.5t-34 1.5t-26 0.5v-1l-8 1h-11l-1 -1l-5 1h-12q-6 0 -17 -1.5t-17 -1.5q-5 0 -14.5 1t-24.5 2q-24 3 -40 0q-11 -1 -20.5 -3t-17.5 -4l-15 3q-7 4 -163 4q-30 0 -82 -3q-26 -1 -46 -2t-34 -1l-8 -1l-20 7l-1 3l-6 2l-7 8
l2 10q4 2 9 4t13 6l7 1h2q2 2 52 2q36 0 49 13q2 2 5 5.5t11 8.5l1 5q13 10 13 60q0 8 -1 20t-1.5 24.5t-1.5 24.5t-1 20q9 13 6 69l-1 108q-2 22 -4 49t-6 59q6 28 9.5 43.5t3.5 19.5q0 9 -1.5 23t-4 29t-4 28.5t-1.5 22.5v17v9t1 8q3 17 -4 21q0 3 -5 28q-21 23 -101 23
h-10q-2 2 -23 5q-10 3 -12.5 6t-2.5 10v14q31 16 95 16l17 -3l2 -2q21 -6 103 -6q15 0 32 1.5t34 3.5l5 -3h55l2 1l10 2q12 -3 26 -3q6 0 16.5 1t27.5 3q31 3 43 2h10v-2l7 2h238h22l9 -8q9 -21 9 -61v-34l-2 -5v-63q0 -14 0.5 -27t1.5 -24l-2 -3q2 -26 0 -47.5t-6 -38.5
l-9 -3l-17 5l-12 29q-4 13 -8.5 30.5t-11.5 41.5q-3 3 -3 9q-7 5 -11 28q-7 9 -14 32q-2 2 -7.5 7t-13.5 13q-2 2 -4.5 5t-8.5 9l-1 3q-7 5 -16.5 12t-20.5 16q-7 1 -12 8q-20 4 -31 12h-26q-42 12 -68 9q-26 -1 -37 -2t-8 -1q-5 0 -18 3t-19 3h-1q-6 -1 -10.5 -2t-9.5 -1
h-8q-2 0 -8 2q-23 -3 -38 -10q-17 -20 -15 -26q-13 -10 -13 -90q6 -10 3 -47q-1 -23 -2.5 -38.5t-1.5 -11.5v-9v-5.5t1 -7.5v-21q2 -3 3 -13t2 -21.5t3.5 -22.5t7.5 -16q1 1 4 -1q8 -2 13 -3.5t10 -1.5q13 0 31 6h2q5 2 17.5 6.5t32.5 12.5q4 2 7 4.5t7 4.5q2 1 3.5 2t2.5 1
q13 7 16 20q12 8 20 29q16 16 18 88l-1 1l1 2l-1 2q2 32 18 32l11 -2l5 -3q0 -5 1 -6q2 -6 3.5 -14.5t-0.5 -19.5q-1 -15 -2 -23t-1 -9q0 2 1 -6.5t2 -28.5q2 -20 3.5 -40.5t1.5 -43.5v-3q-2 -13 -2.5 -28t0.5 -32q2 -22 2.5 -37t-0.5 -23q0 -7 -1 -18.5t-1.5 -24
t-1.5 -24.5t-1 -19q0 -40 -7 -47l-10 -2l-4 2q-10 6 -14 33l-3 42l-2 1q-3 11 -8 26t-13 36l-3 15q-8 8 -20.5 19.5t-32.5 23.5l-14 4q-5 5 -26 9l-1 1q-12 2 -24.5 3.5t-26.5 1.5q-15 0 -20 -11q-8 -21 -8 -214l5 -26l1 -1v-34q0 -2 1.5 -14.5t3.5 -34.5q10 -16 17 -31
q2 -2 12 -3t30 -5q3 0 4 -1v-2l5 2q3 1 47 1h125h3q7 2 18.5 3t26.5 3q73 21 103 94q14 14 14 23q9 9 17 39q6 29 12 35q-2 3 1 6q5 23 12 51.5t16 62.5q4 2 8.5 4.5t10.5 6.5l12 -8q5 -8 6 -43q1 -11 1.5 -19.5t0.5 -15.5q0 -13 1 -14z" />
    <glyph glyph-name="Edieresis" unicode="&#xcb;" horiz-adv-x="800" 
d="M574 1057q3 0 3 -6q0 -5 -2.5 -14.5t-5.5 -19.5t-6.5 -18t-5.5 -11q-25 -31 -74 -31q-2 0 -8 2t-12 4.5t-10.5 4.5t-4.5 3l-31 44v27q1 28 3 30q5 6 9 11t9 11q3 3 9.5 7t13.5 9q4 2 8 5t9 5h7q2 0 27 -5q33 -6 36 -15q30 -43 26 -43zM358 1057q4 0 4 -6q0 -5 -2.5 -14.5
t-5.5 -19.5t-6.5 -18t-5.5 -11q-25 -31 -74 -31q-2 0 -8 2t-12 4.5t-11 4.5t-5 3q-30 43 -30 71q1 28 3 30q5 6 9 11t9 11q2 3 8.5 7t13.5 9q4 2 8.5 5t9.5 5h6q3 0 28 -5q33 -6 35 -15q30 -43 26 -43zM780 246q0 -3 1 -28t2 -73h2v-77q0 -28 -7 -48q-11 -15 -90 -15
q-10 0 -26 0.5t-34 1.5t-34 1.5t-26 0.5v-1l-8 1h-11l-1 -1l-5 1h-12q-6 0 -17 -1.5t-17 -1.5q-5 0 -14.5 1t-24.5 2q-24 3 -40 0q-11 -1 -20.5 -3t-17.5 -4l-15 3q-7 4 -163 4q-30 0 -82 -3q-26 -1 -46 -2t-34 -1l-8 -1l-20 7l-1 3l-6 2l-7 8l2 10q4 2 9 4t13 6l7 1h2
q2 2 52 2q36 0 49 13q2 2 5 5.5t11 8.5l1 5q13 10 13 60q0 8 -1 20t-1.5 24.5t-1.5 24.5t-1 20q9 13 6 69l-1 108q-2 22 -4 49t-6 59q6 28 9.5 43.5t3.5 19.5q0 9 -1.5 23t-4 29t-4 28.5t-1.5 22.5v17v9t1 8q3 17 -4 21q0 3 -5 28q-21 23 -101 23h-10q-2 2 -23 5
q-10 3 -12.5 6t-2.5 10v14q31 16 95 16l17 -3l2 -2q21 -6 103 -6q15 0 32 1.5t34 3.5l5 -3h55l2 1l10 2q12 -3 26 -3q6 0 16.5 1t27.5 3q31 3 43 2h10v-2l7 2h238h22l9 -8q9 -21 9 -61v-34l-2 -5v-63q0 -14 0.5 -27t1.5 -24l-2 -3q2 -26 0 -47.5t-6 -38.5l-9 -3l-17 5
l-12 29q-4 13 -8.5 30.5t-11.5 41.5q-3 3 -3 9q-7 5 -11 28q-7 9 -14 32q-2 2 -7.5 7t-13.5 13q-2 2 -4.5 5t-8.5 9l-1 3q-7 5 -16.5 12t-20.5 16q-7 1 -12 8q-20 4 -31 12h-26q-42 12 -68 9q-26 -1 -37 -2t-8 -1q-5 0 -18 3t-19 3h-1q-6 -1 -10.5 -2t-9.5 -1h-8q-2 0 -8 2
q-23 -3 -38 -10q-17 -20 -15 -26q-13 -10 -13 -90q6 -10 3 -47q-1 -23 -2.5 -38.5t-1.5 -11.5v-9v-5.5t1 -7.5v-21q2 -3 3 -13t2 -21.5t3.5 -22.5t7.5 -16q1 1 4 -1q8 -2 13 -3.5t10 -1.5q13 0 31 6h2q5 2 17.5 6.5t32.5 12.5q4 2 7 4.5t7 4.5q2 1 3.5 2t2.5 1q13 7 16 20
q12 8 20 29q16 16 18 88l-1 1l1 2l-1 2q2 32 18 32l11 -2l5 -3q0 -5 1 -6q2 -6 3.5 -14.5t-0.5 -19.5q-1 -15 -2 -23t-1 -9q0 2 1 -6.5t2 -28.5q2 -20 3.5 -40.5t1.5 -43.5v-3q-2 -13 -2.5 -28t0.5 -32q2 -22 2.5 -37t-0.5 -23q0 -7 -1 -18.5t-1.5 -24t-1.5 -24.5t-1 -19
q0 -40 -7 -47l-10 -2l-4 2q-10 6 -14 33l-3 42l-2 1q-3 11 -8 26t-13 36l-3 15q-8 8 -20.5 19.5t-32.5 23.5l-14 4q-5 5 -26 9l-1 1q-12 2 -24.5 3.5t-26.5 1.5q-15 0 -20 -11q-8 -21 -8 -214l5 -26l1 -1v-34q0 -2 1.5 -14.5t3.5 -34.5q10 -16 17 -31q2 -2 12 -3t30 -5
q3 0 4 -1v-2l5 2q3 1 47 1h125h3q7 2 18.5 3t26.5 3q73 21 103 94q14 14 14 23q9 9 17 39q6 29 12 35q-2 3 1 6q5 23 12 51.5t16 62.5q4 2 8.5 4.5t10.5 6.5l12 -8q5 -8 6 -43q1 -11 1.5 -19.5t0.5 -15.5q0 -13 1 -14z" />
    <glyph glyph-name="Igrave" unicode="&#xcc;" horiz-adv-x="466" 
d="M386 946q-11 -20 -31 -20q-13 0 -31.5 6.5t-45.5 19.5l-1 8q-3 0 -9 -2q-21 0 -50 19q-20 13 -32 19.5t-15 8.5l-3 7q-17 8 -31.5 14t-27.5 11l-6 6q-9 0 -41 23q-15 13 -23.5 22t-12.5 15l-11 35q2 4 6 13t10 23q5 12 32 34q16 1 25 7q8 -3 19 -6.5t25 -6.5q2 1 8 1
q10 0 26 -25l17 -6q4 -3 6.5 -6.5t4.5 -7.5l9 -7l5 -11l10 -2q17 -19 40 -49q4 -3 7.5 -7.5t5.5 -7.5q11 -11 25.5 -24.5t31.5 -31.5q20 -22 31 -36t15 -22q3 -4 6.5 -7t5.5 -7zM475 795l-10 -7l-37 -3l-2 1l-9 3q-26 0 -46 -1t-34 -5q-45 -33 -45 -88q0 -15 1.5 -34.5
t3.5 -43.5q4 -35 5 -54.5t1 -24.5l-1 -1q-4 -7 -4 -22q0 -151 7 -164q-4 -35 -5.5 -54.5t-1.5 -22.5q0 -12 1 -29t3 -40q1 -23 2 -40.5t1 -29.5q0 -18 2.5 -29.5t8.5 -20t16.5 -14.5t27.5 -13q81 -1 94 0l17 -9q4 -17 4 -23l-1 -6q-8 -8 -16 -9l-1 -2q-3 -1 -11 -1h-14
q-43 0 -52 3q-7 -3 -29 0q-13 1 -21 2t-12 1q-9 0 -21.5 -0.5t-26.5 -1t-26.5 -1t-21.5 -0.5l-4 -2q-10 -1 -21.5 -2t-25.5 -1q-6 0 -16.5 1.5t-26.5 3.5l-2 1l-11 2q-10 -4 -27.5 -5t-41.5 -1q-9 0 -23.5 6t-14.5 14q0 17 23 20q3 3 9 3l8 -2h44l2 2q7 -2 14 -1t15 2
q7 0 29 16h3q2 3 7 8.5t10 11.5q1 1 3 6q10 13 10 198q0 13 -1.5 32t-3.5 45q-3 54 -3 79q0 35 -6 58q3 11 5 20t2 19l-3 17l-1 1q-3 22 -2 57l3 62q0 -3 -1 11t-3 45l-5 11q-1 2 -2 3t-1 3l-9 8q-7 4 -22 11l-1 1l-39 5l-6 -2h-16q-5 0 -10 0.5t-12 1.5l-3 2q-8 1 -18 3.5
t-22 6.5q-4 -1 -7 5l-1 15q0 19 37 19q36 0 56.5 1t27.5 5l11 -2q3 3 5 3q4 0 4 -1l7 -2l1 2q13 0 17 -2l5 3q8 -4 47 -4h54l3 -2l8 2l2 1q3 0 23 1.5t58 3.5q67 3 68 2l40 -10l4 -30v-7z" />
    <glyph glyph-name="Iacute" unicode="&#xcd;" horiz-adv-x="466" 
d="M494 1138q-2 -7 -5.5 -15.5t-6.5 -19.5q-3 -6 -11 -15t-23 -22q-32 -23 -42 -23l-6 -6q-13 -5 -27 -11t-31 -14l-4 -7q-20 -8 -42 -18.5t-47 -23.5q-5 -5 -7 -5q-6 2 -10 2l-1 -8q-27 -13 -45.5 -19.5t-31.5 -6.5q-20 0 -31 20q2 4 5.5 7t6.5 7q8 16 47 58l31 31l25 25
q10 11 23 26.5t30 37.5l11 2l4 11l9 7q4 7 11 14l17 6q16 25 26 25q6 0 8 -1q7 3 17.5 6.5t25.5 6.5q9 -5 25 -7q28 -19 33 -34q13 -31 16 -36zM474 795l-11 -7l-35 -3l-2 1l-9 3q-26 0 -46.5 -1t-35.5 -5q-43 -31 -43 -88q0 -13 1.5 -32.5l3.5 -45.5t3.5 -46t1.5 -33l-2 -1
q-2 -6 -2 -22q0 -151 7 -164q-4 -35 -5.5 -54.5t-1.5 -22.5v-29q0 -8 0.5 -18.5t1.5 -21.5q3 -47 3 -70q0 -33 11.5 -48t43.5 -29q83 -2 94 0l17 -9q2 -11 3.5 -16t1.5 -7v-6q-9 -7 -17 -9l-2 -2q-2 -1 -10 -1h-14q-43 0 -53 3q-5 -3 -27 0q-14 1 -22 2t-12 1q-9 0 -22 -0.5
t-26.5 -1t-26.5 -1t-22 -0.5l-2 -2q-10 -1 -22.5 -2t-26.5 -1q-5 0 -15 1.5t-26 3.5l-2 1l-11 2q-10 -4 -28 -5t-42 -1q-10 0 -24.5 6t-14.5 14q0 17 25 20q3 3 9 3l6 -2h45l3 2q7 -2 14 -1t15 2q4 2 11 5t18 11h2q5 5 17 20q1 1 1 2q0 2 2 4q9 13 9 198q0 26 -3 77
q-3 54 -3 79q0 35 -6 58q6 21 6 39l-2 17l-1 1q-4 8 -2 57q1 10 1.5 18.5t0.5 16.5v14.5t1 12.5q0 -3 -1 11t-3 45h-2l-3 11q-5 3 -3 6l-9 8q-4 2 -9.5 4.5t-13.5 6.5l-2 1l-38 5l-5 -2h-17q-5 0 -10.5 0.5t-12.5 1.5l-1 2q-8 1 -18 3.5t-22 6.5q-7 -1 -7 5l-1 15
q0 19 37 19q36 0 56.5 1t27.5 5l11 -2q3 3 5 3q3 0 4 -1l7 -2l1 2q14 0 16 -2l6 3q7 -4 46 -4h55l3 -2l8 2l2 1q3 0 22.5 1.5t57.5 3.5q68 3 69 2l40 -10l3 -30v-7z" />
    <glyph glyph-name="Icircumflex" unicode="&#xce;" horiz-adv-x="466" 
d="M475 795l-10 -7l-37 -3l-2 1l-9 3q-26 0 -46 -1t-34 -5q-45 -33 -45 -88q0 -15 1.5 -34.5t3.5 -43.5q4 -35 5 -54.5t1 -24.5l-1 -1q-4 -7 -4 -22q0 -151 7 -164q-4 -35 -5.5 -54.5t-1.5 -22.5q0 -12 1 -29t3 -40q1 -23 2 -40.5t1 -29.5q0 -18 2.5 -29.5t8.5 -20
t16.5 -14.5t27.5 -13q81 -1 94 0l17 -9q4 -17 4 -23l-1 -6q-8 -8 -16 -9l-1 -2q-3 -1 -11 -1h-14q-43 0 -52 3q-7 -3 -29 0q-13 1 -21 2t-12 1q-9 0 -21.5 -0.5t-26.5 -1t-26.5 -1t-21.5 -0.5l-4 -2q-10 -1 -21.5 -2t-25.5 -1q-6 0 -16.5 1.5t-26.5 3.5l-2 1l-11 2
q-10 -4 -27.5 -5t-41.5 -1q-9 0 -23.5 6t-14.5 14q0 17 23 20q3 3 9 3l8 -2h44l2 2q7 -2 14 -1t15 2q7 0 29 16h3q2 3 7 8.5t10 11.5q1 1 3 6q10 13 10 198q0 13 -1.5 32t-3.5 45q-3 54 -3 79q0 35 -6 58q3 11 5 20t2 19l-3 17l-1 1q-3 22 -2 57l3 62q0 -3 -1 11t-3 45
l-5 11q-1 2 -2 3t-1 3l-9 8q-7 4 -22 11l-1 1l-39 5l-6 -2h-16q-5 0 -10 0.5t-12 1.5l-3 2q-8 1 -18 3.5t-22 6.5q-4 -1 -7 5l-1 15q0 19 37 19q36 0 56.5 1t27.5 5l11 -2q3 3 5 3q4 0 4 -1l7 -2l1 2q13 0 17 -2l5 3q8 -4 47 -4h54l3 -2l8 2l2 1q3 0 23 1.5t58 3.5
q67 3 68 2l40 -10l4 -30v-7zM497 997q0 -11 -7 -24t-18 -13q-1 0 -2.5 1t-3.5 2q-11 2 -31.5 10.5t-52.5 24.5q-18 20 -37.5 40.5t-41.5 43.5q-32 24 -72 60q-4 3 -7.5 7.5t-9.5 10.5q-21 -26 -36 -42q-18 -20 -34 -36.5t-29 -29.5q-17 -22 -43 -53t-61 -74q-8 -11 -19 -11
t-24 7t-13 16q0 3 3 6q2 8 5 17.5t8 22.5q11 8 23 26q20 27 40.5 51t42.5 46l60 74q6 6 15 13.5t20 18.5q3 18 19 30q3 1 9 2t14 2q11 0 28 -17q5 -7 11.5 -13.5l12.5 -12.5q13 -8 32.5 -23.5t47.5 -37.5q22 -23 57 -54t83 -73q11 -5 11 -18z" />
    <glyph glyph-name="Idieresis" unicode="&#xcf;" horiz-adv-x="466" 
d="M409 1057q3 0 3 -6q0 -5 -2.5 -14.5t-5.5 -19.5t-6.5 -18t-5.5 -11q-25 -31 -74 -31q-2 0 -8 2t-12 4.5t-10.5 4.5t-4.5 3l-32 44v27q0 25 3 30q5 6 9 11t9 11q3 3 9.5 7t14.5 9q5 2 9 5t9 5h6q3 0 28 -5q30 -6 35 -15q30 -43 26 -43zM194 1057q3 0 3 -6q0 -5 -2.5 -14.5
t-5.5 -19.5t-6.5 -18t-5.5 -11q-25 -31 -74 -31q-2 0 -8 2t-12 4.5t-10.5 4.5t-4.5 3l-33 44v27q0 12 1 20t2 10q5 6 9.5 11t9.5 11q3 3 10 7t14 9q4 2 8 5t9 5h7q2 0 27 -5q31 -6 36 -15q30 -43 26 -43zM475 795l-10 -7l-37 -3l-2 1l-9 3q-26 0 -46 -1t-34 -5
q-45 -33 -45 -88q0 -15 1.5 -34.5t3.5 -43.5q4 -35 5 -54.5t1 -24.5l-1 -1q-4 -7 -4 -22q0 -151 7 -164q-4 -35 -5.5 -54.5t-1.5 -22.5q0 -12 1 -29t3 -40q1 -23 2 -40.5t1 -29.5q0 -18 2.5 -29.5t8.5 -20t16.5 -14.5t27.5 -13q81 -1 94 0l17 -9q4 -17 4 -23l-1 -6
q-8 -8 -16 -9l-1 -2q-3 -1 -11 -1h-14q-43 0 -52 3q-7 -3 -29 0q-13 1 -21 2t-12 1q-9 0 -21.5 -0.5t-26.5 -1t-26.5 -1t-21.5 -0.5l-4 -2q-10 -1 -21.5 -2t-25.5 -1q-6 0 -16.5 1.5t-26.5 3.5l-2 1l-11 2q-10 -4 -27.5 -5t-41.5 -1q-9 0 -23.5 6t-14.5 14q0 17 23 20
q3 3 9 3l8 -2h44l2 2q7 -2 14 -1t15 2q7 0 29 16h3q2 3 7 8.5t10 11.5q1 1 3 6q10 13 10 198q0 13 -1.5 32t-3.5 45q-3 54 -3 79q0 35 -6 58q3 11 5 20t2 19l-3 17l-1 1q-3 22 -2 57l3 62q0 -3 -1 11t-3 45l-5 11q-1 2 -2 3t-1 3l-9 8q-7 4 -22 11l-1 1l-39 5l-6 -2h-16
q-5 0 -10 0.5t-12 1.5l-3 2q-8 1 -18 3.5t-22 6.5q-4 -1 -7 5l-1 15q0 19 37 19q36 0 56.5 1t27.5 5l11 -2q3 3 5 3q4 0 4 -1l7 -2l1 2q13 0 17 -2l5 3q8 -4 47 -4h54l3 -2l8 2l2 1q3 0 23 1.5t58 3.5q67 3 68 2l40 -10l4 -30v-7z" />
    <glyph glyph-name="Eth" unicode="&#xd0;" horiz-adv-x="820" 
d="M806 426q3 -12 -4 -28q-6 -80 -14 -93q0 -4 -11 -34q-17 -17 -23 -56q-2 -3 -4 -8.5t-7 -11.5q-1 -3 -3.5 -8.5t-4.5 -12.5q-5 -7 -10.5 -14t-10.5 -15q-6 -2 -6 -13l-5 -4q-2 -2 -8 -3q-8 -8 -19.5 -18t-27.5 -24l-5 -1q-16 -11 -23 -11q-11 -8 -18.5 -14t-10.5 -8
q-19 -11 -33 -14q-3 -3 -10 -4l-2 -2l-40 -17q-26 -6 -55 -6q-10 0 -19.5 1t-20.5 2q-15 -7 -28 -7q-10 0 -26 1t-34 2.5t-34 2.5t-26 1q-7 0 -19 -1t-24.5 -2l-25 -2t-19.5 -1q-10 0 -44 9q-11 -1 -28 -6q-23 -2 -28 0l-1 -1l-40 -2l-42 11l-7 9l-2 3l2 3l1 5q17 20 34 20
q5 0 16 -1.5t16 -1.5q38 0 59 3q9 6 23 12t15 19q4 17 6 35t2 38l-5 25l-1 3v47q0 22 -0.5 52.5t-1.5 72.5q-14 0 -18 2q-8 0 -19 1t-26 2q-8 6 -19.5 11.5t-26.5 11.5q-9 3 -9 12q0 13 12 26.5t25 13.5q5 0 16.5 4t17.5 4q8 -1 19.5 -2t27.5 -2q0 61 1.5 98.5t3.5 51.5
l-3 17q4 13 4 19q0 118 -20 129l-12 14q-17 6 -48 6q-57 0 -84 21h-2l-4 11v5q7 10 15 15l37 6q22 0 66 -3q11 -1 20.5 -1h17.5h28h14q30 -8 146 -3q104 5 125 -6q2 0 6 -4q16 -1 49 -9q4 0 10 -2l15 -5q14 -5 28.5 -11t31.5 -14l14 -5q3 -3 7.5 -7t10.5 -10h3
q13 -10 30.5 -26t40.5 -38q48 -44 48 -69q3 -4 5.5 -9.5t6.5 -12.5q12 -9 17 -17l3 -1l3 -7q0 -1 1.5 -11t3.5 -29q0 -3 3 -7q10 -60 15 -102zM655 345q4 55 -3 120t-26 140q-6 6 -9.5 20t-7.5 18l-1 2q0 3 -6 20q-8 4 -19 24q-5 7 -13 15.5t-19 18.5q-24 21 -33 23
q-5 8 -52 17l-49 9q-37 2 -59 3.5t-27 1.5q-23 0 -29 -6l-5 -6l-6 -3q0 -12 -6 -16q-6 -45 -8 -119.5t0 -180.5q9 0 11 -1h10h9t10 1q19 3 31 0q18 -1 24 -8t16 -26q2 -6 1 -14.5t-4 -16t-8 -13t-11 -5.5q-12 0 -88 -3q0 -79 -6 -83q2 -6 2 -24v-51q0 -9 1 -23t2 -28.5
t2 -28t1 -22.5q0 -17 8 -25v-3l4 -4h3q16 -22 74 -22q6 0 17.5 1.5t30.5 3.5q20 2 29 4t11 3q42 3 49 10q4 0 8 4l17 5q5 8 17 9l1 3q24 8 29 22q2 0 2 3q4 3 9.5 8.5t13.5 12.5l6 19l2 1q2 5 4.5 10.5t4.5 12.5q10 6 22 77q1 7 6 16q0 8 1 20t3 29l2 2z" />
    <glyph glyph-name="Ntilde" unicode="&#xd1;" horiz-adv-x="754" 
d="M651 1166q1 -28 -17 -54q-6 -5 -13 -16.5t-15 -26.5q-16 -16 -31.5 -29.5t-31.5 -25.5q-38 -23 -78 -23q-9 0 -25 3l-154 31l-52 7q-50 8 -69 -35q-10 -7 -20 -20q-17 -12 -33 -12q-10 0 -17 4q55 126 150 156l17 7q2 2 33 2q30 0 62 -16q81 -35 115 -35q62 0 110 39
q11 22 30 47q9 9 19 9q8 0 20 -12zM395 531q10 -13 15.5 -26.5t10 -26t9.5 -24t13 -20.5l14 -14t8 -9q3 -8 11 -18.5t19 -24.5q10 -8 13.5 -18.5t8.5 -18.5q6 -11 16 -27t25 -38q8 -11 15.5 -23.5t18.5 -27.5q12 -9 17 -9q11 0 6 59q0 11 -3 92q0 51 -3 152q-4 84 -3 88
q7 49 -17 103q-27 60 -75 60q-3 0 -10 1.5t-14 3.5t-12.5 3.5t-5.5 2.5q0 3 -9 10t-9 13q2 17 51 20q81 1 143.5 2t111.5 1h22q3 -4 6.5 -6.5t6.5 -5.5q13 -10 13 -16t-6 -9q-5 -4 -15.5 -7t-28.5 -5q-33 -4 -43 -16q-14 -13 -22 -20.5t-11 -11.5q-11 -11 -15.5 -21.5
t-6.5 -20.5q-4 -20 -6.5 -37.5t-4.5 -32.5q-6 -63 -4 -63v-333q0 -23 3 -69q1 -23 2 -40.5t1 -28.5v-44q0 -5 0 -4t1 8q0 -14 -5.5 -29.5t-18.5 -15.5q-21 0 -37 22q-2 5 -5 13.5t-9 21.5q-9 26 -15 26q-13 17 -23 31t-17 25q-5 7 -13 19.5t-21 29.5q-35 45 -30 45
q-2 0 -16 20q-13 20 -13 26q0 34 -58 92q-24 22 -54 69q-19 29 -31.5 46.5l-17.5 24.5q-6 7 -11 15t-11 19q-5 11 -9.5 20t-8.5 14q-16 15 -20 26q-16 32 -36 37q-9 1 -12 -22v-34q0 -5 1.5 -44t3.5 -114q1 -4 1 -22v-41q-1 -73 0 -76q1 -6 1.5 -14.5t0.5 -19.5v-24t1 -29
q0 -26 16 -54q10 -22 15.5 -35.5t7.5 -16.5q2 -8 9 -8l17 -11q16 -12 17 -11q0 -9 27 -12q29 -1 31 -3q25 -16 25 -25q0 -12 -22 -13q-5 -1 -18 -1.5t-33 -0.5h-110q-57 0 -88.5 1t-42.5 2q-31 4 -31 12q0 9 65 33q3 1 9 2.5t14 4.5q1 2 4 5.5t7 7.5q2 0 23 37
q5 12 7.5 18.5t4.5 12.5q2 4 6 10q4 4 -1 42q-4 23 -5 35.5t-1 14.5q0 6 1 23.5t3 46.5q2 23 2.5 40t-0.5 27q-1 11 -1.5 26t-0.5 34q0 37 3 93q9 161 -1 161q-2 5 -6 12.5t-10 18.5q-2 5 -9 12.5t-15.5 14t-17 11.5t-13.5 5q-88 0 -79 35q6 16 45 19q42 1 42 -2h70h24.5
t17.5 -1q30 -3 60 -52q6 -15 14.5 -30t19.5 -32q5 -5 17 -32q11 -26 20 -26q8 0 20 -25q7 -13 10.5 -19t4.5 -7q2 -1 5.5 -5.5t7 -10t6.5 -9.5l3 -4q2 0 6 -5t8.5 -10.5t9 -10.5t6.5 -5z" />
    <glyph glyph-name="Ograve" unicode="&#xd2;" horiz-adv-x="737" 
d="M498 946q-11 -20 -30 -20q-22 0 -77 26l-2 8q-3 0 -9 -2q-21 0 -49 19q-20 13 -32 19.5t-16 8.5l-3 7q-17 8 -31.5 14t-26.5 11l-7 6q-9 0 -41 23q-30 25 -34 37q-2 2 -4.5 10t-7.5 25q1 3 5 12t10 24q4 13 34 34q15 2 25 7q8 -3 18.5 -6.5t24.5 -6.5q2 1 7 1
q11 0 26 -25l17 -6q4 -3 7 -6.5t4 -7.5l9 -7l5 -11l11 -2q8 -9 18 -21.5l22 -27.5q3 -3 6.5 -7.5t5.5 -7.5q11 -11 25.5 -24.5t31.5 -31.5q41 -44 46 -58l7 -7t5 -7zM726 446q2 -5 1 -24t-2 -53q-3 -75 -13 -75q4 0 -20 -68q-1 -8 -10.5 -19.5t-10.5 -17.5q-12 -38 -26 -44
q-1 -1 -3.5 -7t-6.5 -12.5t-8.5 -12t-9.5 -5.5q4 0 2.5 -3t-5.5 -7t-9.5 -9t-9.5 -9q-4 -6 -12 -14.5t-17 -16t-17.5 -12.5t-14.5 -5q20 0 -34 -23t-54 -17q0 -8 -46 -12q-19 -2 -34 -3.5t-28 -1.5q-16 0 -33 7q-12 3 -20.5 5t-13.5 4q-42 6 -42 14q-14 11 -25 17t-15 6
q-1 1 -6.5 4.5t-13.5 10.5q-17 17 -17 19q0 3 -29 35q-30 34 -34 34q-3 0 -20 26q-17 27 -20 28q-2 2 -15 38q-7 16 -12.5 34t-10.5 38q-3 33 -11 33q-2 4 -2 13v12t-1 15v44q-3 68 6 68q8 21 8 29q2 20 5.5 32.5t7 20.5t6 13t2.5 10l6 18q2 3 8 13t16 27l13 25q4 5 6 9t4 6
q14 24 29 32q3 2 11 10l21 21q18 21 34 25q8 2 43 31q29 20 46 20q6 0 17 2.5t23 5.5t24 5t19 0q19 -3 40.5 -6.5t45.5 -6.5q17 -3 53 -17q46 -19 46 -30q0 -3 46 -40q4 -2 9 -5.5t11 -9.5q2 -5 7.5 -12t12.5 -14l13 -13l9 -9q8 -11 13.5 -20t7.5 -17q13 -26 20 -44.5
t11 -28.5q11 0 29 -116zM585 351q0 8 -3.5 57.5t-9.5 140.5q0 2 -1 10.5t-3 23.5l-6 35q0 11 -28 74q-4 4 -34 45q-2 3 -8.5 8.5t-14 11.5t-14 10t-9.5 4q3 0 -40 12q-46 12 -69 8q-13 -2 -37 -9t-60 -20q-9 -3 -20 -11.5t-20.5 -19.5t-16 -22.5t-6.5 -20.5q-26 -53 -20 -53
l-3 -21q-3 -18 -5 -20q-8 0 -11 -69l-3 -83q-5 -25 -5 -45q0 -17 3.5 -44.5t10.5 -63.5q8 -35 11 -62t3 -44q0 -6 3.5 -14t8.5 -20q5 -8 8 -14.5t5 -11.5q2 -3 4 -9q4 -16 27 -39q12 -13 19 -20.5t8 -11.5q5 -8 45 -20l41 -12q0 -7 53 -5q52 3 52 11q17 11 35.5 24t38.5 28
q35 35 41 77q0 2 5 26.5t14 75.5q6 29 8.5 55t2.5 48z" />
    </font>
</defs>
</svg>
