<?xml version="1.0" encoding="utf-8"?>
<!-- Generator: Adobe Illustrator 21.1.0, SVG Export Plug-In . SVG Version: 6.00 Build 0)  -->
<svg version="1.1" id="Capa_1" xmlns="http://www.w3.org/2000/svg" xmlns:xlink="http://www.w3.org/1999/xlink" x="0px" y="0px"
	 width="192.8px" height="192.8px" viewBox="0 0 192.8 192.8" enable-background="new 0 0 192.8 192.8" xml:space="preserve">
<g>
	<polygon fill-rule="evenodd" clip-rule="evenodd" fill="#FFFFFF" points="0,0 192.8,0 192.8,192.8 0,192.8 0,0 	"/>
	<path fill-rule="evenodd" clip-rule="evenodd" fill="#E30613" d="M39.7,125.2C57,114,92.9,86.9,97.1,94.2
		c5.5,9.6-25.6,29.5-27.9,31.8C67.3,128,39.6,125.3,39.7,125.2L39.7,125.2z"/>
	<path fill-rule="evenodd" clip-rule="evenodd" fill="#016737" d="M112.7,72.1c-8.2,0.6-14.6-1.8-14.9-8.4
		c-0.8-14.4-5.6-18.6-24-14.9c-30.5,6.1-42.1-12.8-4.3-16.4c20.6-2,32.2-4.4,38.1,17.9c2.8,10.6,17.3,1.9,29.4-7.1
		c15-11.1,31.9-18.5,29.5-13.7C159.9,42.9,126.5,70.9,112.7,72.1L112.7,72.1z"/>
	<path fill-rule="evenodd" clip-rule="evenodd" fill="#E30613" d="M120.7,42.2c-10.6-4.4-10.5-14.7-2.1-22.2
		C141.5,6.6,146.3,41.5,120.7,42.2L120.7,42.2z"/>
	<polygon fill-rule="evenodd" clip-rule="evenodd" fill="#016737" points="8.5,125.2 184.3,125.2 184.3,175.9 8.5,175.9 8.5,125.2 	
		"/>
	<path fill-rule="evenodd" clip-rule="evenodd" fill="#E30613" d="M107,122.6c2.2-2.3,22.2-17,16-20.9c-2.3-1.5-41.5-18.3-22.2-26.9
		c4-1.8,44.9,15.6,43.5,29.1c-0.6,6.2-35,32.9-47.6,32.8C93,136.6,105.5,124.1,107,122.6L107,122.6z"/>
	<path fill-rule="evenodd" clip-rule="evenodd" fill="#FFFFFF" d="M38,138.6v7.7c-1-1-2-1.9-2.9-2.3c-0.9-0.5-2-0.8-3.1-0.8
		c-2,0-3.7,0.7-5,2.1c-1.2,1.4-1.9,3.2-1.9,5.4c0,2.1,0.7,3.8,2,5.1c1.3,1.3,2.9,2.1,4.9,2.1c1.1,0,2.2-0.3,3.1-0.8
		c1-0.5,2-1.3,2.9-2.4v7.7c-1.1,0.6-2.3,0.9-3.4,1.2c-1.1,0.3-2.3,0.4-3.4,0.4c-1.4,0-2.7-0.2-3.9-0.5c-1.2-0.4-2.3-0.9-3.4-1.6
		c-2-1.3-3.4-2.9-4.4-4.9c-1-2-1.6-4.2-1.6-6.6c0-2,0.3-3.8,1-5.4c0.7-1.6,1.7-3.1,2.9-4.4c1.2-1.2,2.6-2.2,4.2-2.8
		c1.6-0.6,3.3-1,5.2-1c1.1,0,2.3,0.2,3.4,0.4C35.7,137.7,36.8,138.1,38,138.6L38,138.6z M68.8,150.6c0,1.9-0.4,3.6-1,5.2
		c-0.7,1.7-1.7,3.1-3,4.4c-1.3,1.2-2.8,2.2-4.6,2.9c-1.7,0.7-3.5,1-5.3,1c-1.9,0-3.6-0.3-5.3-1c-1.7-0.7-3.2-1.7-4.6-2.9
		c-1.3-1.3-2.3-2.7-3.1-4.4c-0.7-1.6-1-3.4-1-5.2c0-1.9,0.4-3.6,1-5.2c0.7-1.6,1.7-3.1,3.1-4.3c1.3-1.3,2.8-2.3,4.6-2.9
		c1.7-0.7,3.5-1,5.3-1c1.9,0,3.7,0.4,5.4,1s3.3,1.7,4.6,2.9c1.3,1.2,2.3,2.7,3,4.3C68.4,147,68.8,148.7,68.8,150.6L68.8,150.6z
		 M54.8,158.1c2,0,3.6-0.7,4.9-2.1c1.3-1.4,1.9-3.3,1.9-5.4s-0.6-4-1.9-5.4c-1.3-1.4-2.9-2.2-4.9-2.2c-2,0-3.6,0.7-4.9,2.2
		c-1.3,1.4-2,3.3-2,5.4s0.6,4,1.9,5.4C51.2,157.4,52.8,158.1,54.8,158.1L54.8,158.1z M73.3,163.4v-25.8h6.9l9.9,13.3
		c0.2,0.3,0.5,0.8,0.9,1.6c0.5,0.8,0.9,1.8,1.4,2.9c-0.2-1.1-0.3-2-0.3-2.9c-0.1-0.8-0.1-1.6-0.1-2.2v-12.8h6.8v25.8H92l-9.9-13.3
		c-0.2-0.3-0.5-0.8-0.9-1.6c-0.5-0.8-0.9-1.8-1.4-2.9c0.2,1.1,0.3,2.1,0.3,2.9c0.1,0.8,0.1,1.6,0.1,2.2v12.7H73.3L73.3,163.4z
		 M111.3,153.8h7.1l-2.6-8.5c-0.1-0.3-0.2-0.7-0.4-1.2c-0.2-0.6-0.3-1.3-0.5-2.2c-0.2,0.6-0.3,1.2-0.5,1.8c-0.2,0.6-0.3,1.1-0.5,1.7
		L111.3,153.8L111.3,153.8z M101.3,163.4l9.1-25.8h8.9l9.1,25.8h-7.1l-1.3-4.6h-10.1l-1.4,4.6H101.3L101.3,163.4z M130.8,163.4
		v-25.8h5.4c4.1,0,6.9,0.2,8.6,0.6c1.7,0.4,3.2,1,4.4,1.9c1.6,1.1,2.9,2.6,3.7,4.3c0.9,1.8,1.3,3.8,1.3,6.1c0,2.3-0.4,4.3-1.3,6.1
		c-0.8,1.8-2.1,3.2-3.7,4.3c-1.3,0.9-2.7,1.5-4.3,1.9c-1.6,0.4-4.1,0.6-7.6,0.6h-1.2H130.8L130.8,163.4z M137.9,157.6h1.2
		c2.8,0,4.9-0.6,6.2-1.7c1.3-1.1,1.9-2.9,1.9-5.4c0-2.5-0.6-4.3-1.9-5.4c-1.3-1.1-3.4-1.7-6.2-1.7h-1.2V157.6L137.9,157.6z
		 M158.9,163.4v-25.8h16v5.7h-9.1v4.4h8.5v5.5h-8.5v4.3h9.1v5.8H158.9L158.9,163.4z"/>
</g>
</svg>
